<?xml version="1.0" encoding="UTF-8"?><svg id="_レイヤー_2" xmlns="http://www.w3.org/2000/svg" viewBox="0 0 13.12 13.12"><defs><style>.cls-1{fill:#d91a17;stroke-width:0px;}</style></defs><g id="_レイヤー_1-2"><path class="cls-1" d="M6.56,0c3.64,0,6.56,2.93,6.56,6.56s-2.93,6.56-6.56,6.56S0,10.2,0,6.56,2.93,0,6.56,0ZM5.88,2.73c-.11,0-.22.05-.3.14l-.63.63c-.19.16-.19.44,0,.63l2.43,2.43-2.43,2.43c-.19.19-.19.46,0,.63l.63.63c.08.08.19.14.3.14.14,0,.25-.05.33-.14l3.23-3.23c.25-.25.25-.68,0-.93l-3.23-3.23c-.08-.08-.19-.14-.33-.14Z"/></g></svg>