<?xml version="1.0" encoding="UTF-8"?><svg id="_レイヤー_2" xmlns="http://www.w3.org/2000/svg" viewBox="0 0 155.44 30.18"><defs><style>.cls-1{fill:#fff;stroke-width:0px;}</style></defs><g id="_レイヤー_2-2"><g id="_レイヤー_1-2"><path class="cls-1" d="M28.69,15.39h1.93v9.32h5.59v1.67h-7.52s0-10.99,0-10.99Z"/><path class="cls-1" d="M38.15,15.39h1.93v10.99h-1.93v-10.99Z"/><path class="cls-1" d="M42.94,15.39h2.03l5.02,8.1h.03v-8.1h1.83v10.99h-2.03l-5.01-8.08h-.05v8.08h-1.83v-10.99h.01Z"/><path class="cls-1" d="M54.72,15.39h7.92v1.67h-5.99v2.87h5.54v1.57h-5.54v3.22h6.1v1.67h-8.03v-11Z"/><path class="cls-1" d="M68.26,15.55c.14-.29.21-.55.29-.91.5.14,1.01.31,1.39.49.15.07.21.14.21.24,0,.08-.03.14-.13.21-.14.1-.22.24-.32.43-1.06,2.17-2.39,3.84-4.12,5.15-.15.13-.25.2-.32.2-.08,0-.14-.1-.27-.31-.24-.39-.53-.74-.78-.91,1.85-1.13,3.25-2.84,4.05-4.59ZM72.89,21.47c.08-.04.13-.07.17-.07.03,0,.06.03.11.08,1.13,1.4,2.02,2.76,2.98,4.48.07.13.07.15-.13.27l-1.05.6c-.07.04-.13.07-.17.07-.06,0-.08-.03-.13-.11-.21-.43-.43-.85-.66-1.27-2.35.35-4.9.63-7.36.84-.28.03-.42.08-.53.15-.1.07-.15.1-.24.1-.1,0-.17-.08-.21-.22-.13-.39-.24-.9-.34-1.48.53.01,1.04,0,1.6-.03.13,0,.27-.01.39-.01.76-1.65,1.43-3.32,1.81-4.54.18-.56.31-.99.38-1.47.55.13,1.02.22,1.5.36.15.06.27.13.27.24,0,.1-.03.15-.11.25-.13.14-.21.29-.36.67-.5,1.34-1.12,2.9-1.79,4.35,1.43-.11,2.93-.25,4.31-.41-.45-.7-.91-1.39-1.43-2.07-.08-.11-.07-.14.11-.25,0,0,.88-.53.88-.53ZM72.63,14.66c.18-.08.21-.07.28.07.92,2.17,2.65,4.07,4.55,5.18-.27.21-.56.64-.78,1.05-.11.21-.18.31-.27.31-.07,0-.15-.07-.29-.18-2.04-1.55-3.6-3.58-4.56-5.78-.06-.15-.03-.17.14-.25l.94-.39h-.01Z"/><path class="cls-1" d="M81.16,18.29c-1.27,0-1.71.03-1.79.03-.14,0-.14-.01-.14-.17v-1.11c0-.15,0-.17.14-.17.08,0,.52.03,1.79.03h5.03c0-.18-.01-.38-.01-.57,0-.94-.03-1.34-.11-2,.5.01,1.05.03,1.53.08.14.01.22.08.22.17,0,.11-.06.21-.08.29-.07.2-.08.48-.07,1.41v.62h1.72c1.27,0,1.71-.03,1.79-.03.14,0,.15.01.15.17v1.11c0,.15-.01.17-.15.17-.08,0-.52-.03-1.79-.03h-1.67c.1,1.82.32,3.4.8,4.79.41,1.26.84,2.07,1.26,2.07.38,0,.55-.77.63-2.04.21.21.6.46.91.63.27.15.39.37.35.66-.28,1.79-.87,2.55-1.69,2.53-1.06-.01-2.04-1.01-2.74-3.08-.53-1.53-.83-3.47-.97-5.56h-5.11ZM83.43,21.4v2.74c.92-.22,1.89-.49,2.73-.78-.03.25-.04.6-.04.88,0,.31-.14.5-.42.59-1.4.46-3.5,1.04-5.01,1.36-.35.08-.5.15-.59.21-.1.06-.17.1-.25.1s-.15-.06-.2-.18c-.11-.34-.25-.92-.36-1.41.48-.01.84-.07,1.34-.17l1.34-.25v-3.08h-.48c-1.19,0-1.58.03-1.67.03-.14,0-.15-.01-.15-.14v-1.05c0-.15.01-.17.15-.17.08,0,.48.03,1.67.03h2.48c1.18,0,1.57-.03,1.65-.03.15,0,.17.01.17.17v1.05c0,.13-.01.14-.17.14-.08,0-.48-.03-1.65-.03h-.55.01ZM89.07,14.57c.08-.06.13-.08.17-.08s.08.03.14.08c.43.35.87.81,1.2,1.29.08.11.07.17-.1.28l-.66.45c-.08.06-.14.08-.18.08s-.08-.04-.13-.11c-.31-.52-.73-.99-1.09-1.33-.11-.11-.08-.15.06-.25,0,0,.59-.41.59-.41Z"/><path class="cls-1" d="M96.77,17.38c-.8,0-1.65.06-2.48.11-.17.01-.22-.08-.25-.21-.11-.39-.2-1.09-.25-1.51.95.07,1.72.1,2.84.1h6.01c.59,0,.83-.03.97-.08.07-.03.2-.1.27-.1.11,0,.22.08.32.2.31.27.57.56.84.88.07.08.11.17.11.25,0,.11-.07.21-.2.29-.15.11-.27.25-.38.41-.66.99-1.53,1.96-2.46,2.7-.08.08-.18.13-.29.13s-.24-.06-.34-.14c-.35-.28-.7-.43-1.16-.57,1.12-.84,1.81-1.44,2.51-2.45h-6.06ZM97.55,22.84c.53-.99.69-1.95.69-3.3,0-.52-.03-.84-.14-1.32.69.07,1.41.17,1.81.27.18.04.24.14.24.27,0,.08-.03.17-.07.25-.1.2-.11.34-.13.57-.04,1.36-.18,2.6-.83,3.85-.55,1.05-1.39,2.04-2.55,2.79-.13.08-.25.14-.39.14-.1,0-.2-.04-.28-.13-.34-.29-.74-.52-1.27-.71,1.53-.8,2.32-1.55,2.93-2.67h-.01Z"/><path class="cls-1" d="M111.64,17.81c.06-.69.08-1.13.1-1.89,0-.36-.01-.66-.1-1.11.74.07,1.37.17,1.82.29.18.06.24.17.24.29,0,.08-.03.18-.07.27-.13.21-.15.35-.18.66-.04.45-.06.78-.13,1.47h2.13c.64,0,1.3-.03,1.95-.03.22,0,.29.04.29.2,0,.18-.03.74-.06,1.48-.06,1.72-.25,3.67-.52,4.61-.28,1.08-.76,1.67-1.65,1.89-.32.08-.83.15-1.41.15-.17,0-.28-.1-.34-.28-.18-.52-.41-.9-.81-1.27,1.04.04,1.55-.01,1.9-.13.38-.13.56-.35.73-.98.25-1.06.38-2.25.42-4.2h-2.83c-.28,1.69-.66,2.95-1.25,3.88-.64,1.05-1.68,2.1-2.97,2.88-.11.07-.22.11-.32.11-.08,0-.18-.04-.27-.14-.28-.31-.7-.6-1.18-.81,1.61-.81,2.53-1.69,3.29-2.86.43-.7.78-1.65,1.01-3.02h-1.26c-.69,0-1.36.03-2.02.07-.14.01-.2-.07-.21-.24-.06-.34-.08-.84-.11-1.36.88.06,1.51.06,2.32.06h1.49Z"/><path class="cls-1" d="M128.55,17.03c.66,0,.87-.04,1.05-.15.06-.04.13-.07.2-.07.11,0,.22.06.31.14.28.21.69.57.94.87.07.07.1.14.1.21,0,.11-.06.21-.14.31-.18.18-.24.45-.31.69-.43,1.44-.94,2.86-1.76,4.12-.81,1.26-2.2,2.59-3.61,3.43-.08.06-.15.08-.22.08-.1,0-.18-.06-.29-.14-.43-.29-.84-.46-1.4-.63,1.97-1.09,3.07-2.06,4-3.49.78-1.19,1.27-2.41,1.62-3.91h-6.09v1.18c0,.56.03,1.13.04,1.69,0,.22-.04.27-.22.27-.42.03-.87.03-1.29,0-.18,0-.22-.04-.22-.21.01-.71.03-1.18.03-1.74v-1.13c0-.45,0-.95-.03-1.36-.01-.13.07-.18.2-.18.66.03,1.43.04,2.13.04h1.43v-.55c0-.74,0-1.32-.14-1.86.69.06,1.34.13,1.74.21.28.06.36.21.25.43-.07.2-.17.49-.17,1.08v.67h1.88-.03Z"/><path class="cls-1" d="M135.06,16.15c.06-.07.13-.11.2-.11.06,0,.11.03.18.07.71.38,1.88,1.23,2.67,1.99.08.08.13.14.13.2s-.03.11-.08.18c-.21.28-.67.84-.87,1.05-.07.07-.11.11-.17.11s-.11-.04-.18-.11c-.84-.87-1.85-1.67-2.86-2.28.31-.38.71-.81.98-1.09h0ZM136.28,23.53c1.71-.88,2.62-1.47,4.03-2.6,1.71-1.39,2.65-2.28,3.84-3.81.08.7.21,1.18.39,1.64.04.1.07.18.07.27,0,.13-.07.24-.22.42-.74.87-1.95,1.99-3.22,2.97-1.16.91-2.34,1.69-4.23,2.74-.63.38-.81.52-.94.64-.08.08-.17.14-.25.14-.07,0-.15-.06-.24-.15-.35-.39-.78-.97-1.12-1.55.71-.2,1.15-.32,1.89-.7h0Z"/><path class="cls-1" d="M150.81,18.77c1.71.53,3.07,1.08,4.45,1.9.15.08.22.18.15.36-.18.46-.41.9-.6,1.22-.06.1-.11.15-.18.15-.04,0-.1-.01-.15-.07-1.29-.83-2.55-1.44-3.68-1.79v3.09c0,.91.03,1.74.06,2.74,0,.17-.06.21-.25.21-.41.03-.84.03-1.25,0-.2,0-.27-.04-.27-.21.04-1.04.06-1.86.06-2.76v-6.89c0-1.05-.04-1.51-.14-2.07.64.04,1.34.11,1.75.22.2.04.27.13.27.24,0,.08-.04.2-.11.32-.1.18-.1.53-.1,1.32v2.02Z"/><path class="cls-1" d="M22.38,17.94c0-5.01-5.02-9.08-11.19-9.08S0,12.93,0,17.94c0,4.49,3.98,8.25,9.36,8.96.36.08.86.24.99.55.11.28.07.73.04,1.01,0,0-.13.79-.16.96-.05.28-.23,1.11.97.6,1.19-.5,6.45-3.8,8.79-6.5h0c1.62-1.78,2.4-3.58,2.4-5.59h-.01ZM7.24,20.62c0,.12-.1.22-.22.22h-3.14c-.06,0-.11-.02-.15-.06h0s-.06-.09-.06-.15v-4.88c0-.12.1-.22.22-.22h.79c.12,0,.22.1.22.22v3.87h2.13c.12,0,.22.1.22.22v.78h0ZM9.14,20.62c0,.12-.1.22-.22.22h-.79c-.12,0-.22-.1-.22-.22v-4.88c0-.12.1-.22.22-.22h.79c.12,0,.22.1.22.22v4.88ZM14.54,20.62c0,.12-.1.22-.22.22h-.89s-.04-.03-.06-.05l-2.24-3.02v2.9c0,.12-.1.22-.22.22h-.79c-.12,0-.22-.1-.22-.22v-4.88c0-.12.1-.22.22-.22h.88s.01.02.02.03l2.24,3.02v-2.9c0-.12.1-.22.22-.22h.79c.12,0,.22.1.22.22v4.88l.05.02ZM18.88,16.53c0,.12-.1.22-.22.22h-2.13v.82h2.13c.12,0,.22.1.22.22v.78c0,.12-.1.22-.22.22h-2.13v.82h2.13c.12,0,.22.1.22.22v.78c0,.12-.1.22-.22.22h-3.14c-.06,0-.11-.02-.15-.06h0s-.06-.09-.06-.15v-4.88c0-.06.02-.11.06-.15h0s.09-.06.15-.06h3.14c.12,0,.22.1.22.22v.79h0Z"/></g><path class="cls-1" d="M26.36,7.58L19.15.37l.27-.27,7.21,7.21-.27.27Z"/><path class="cls-1" d="M28.69,4.53c-.04.14-.07.27-.09.4-.03.13-.04.26-.04.4,0,.26.13.47.38.63.26.16.67.24,1.24.24.36,0,.71-.01,1.04-.04.34-.03.65-.06.95-.11.3-.04.56-.1.79-.16v1.11c-.22.05-.48.1-.76.14-.29.04-.6.08-.93.1-.33.02-.68.04-1.05.04-.61,0-1.11-.07-1.51-.2-.4-.13-.7-.33-.91-.58-.2-.25-.31-.56-.31-.92,0-.23.02-.44.06-.63s.07-.36.1-.51l1.05.09ZM28.02,1.17c.29.04.62.06.98.08s.76.02,1.17.02c.26,0,.53,0,.81-.02.27-.01.54-.03.8-.04.26-.02.49-.04.69-.05v1.05c-.18.01-.41.02-.67.04-.26.02-.53.03-.82.04-.28.01-.55.02-.8.02-.41,0-.79,0-1.15-.03-.35-.02-.69-.04-1.01-.06v-1.05ZM32.68.36c.07.09.14.21.22.34.08.13.15.26.23.4.07.13.14.25.19.35l-.64.28c-.08-.16-.18-.35-.29-.56-.11-.21-.22-.39-.33-.55l.63-.25ZM33.62,0c.07.1.14.22.22.35.08.13.16.26.23.39.08.13.14.24.19.34l-.63.27c-.08-.16-.18-.35-.3-.56-.12-.21-.23-.39-.34-.53l.63-.25Z"/><path class="cls-1" d="M37.01,2.31l1.09.2c-.18.78-.42,1.49-.72,2.13s-.66,1.2-1.08,1.69c-.42.49-.9.9-1.45,1.23-.06-.07-.14-.15-.25-.25-.11-.1-.22-.2-.33-.29s-.21-.18-.3-.23c.83-.42,1.49-1,1.98-1.76.49-.76.84-1.66,1.06-2.71ZM35.56.56h2.25v.97h-2.25v-.97ZM37.35.56h.98c0,.25.01.54.03.86s.07.66.13,1.02c.07.36.17.73.31,1.11.14.38.32.76.55,1.13.23.37.52.73.87,1.07.35.34.77.66,1.25.95-.07.05-.15.13-.25.23-.1.1-.2.2-.29.31s-.17.2-.23.29c-.5-.31-.93-.65-1.29-1.03-.36-.38-.67-.79-.92-1.22s-.45-.87-.6-1.31c-.15-.44-.27-.87-.35-1.29-.08-.42-.13-.81-.16-1.18-.03-.36-.04-.68-.04-.95Z"/><path class="cls-1" d="M45.62,1.05c-.21.3-.48.61-.82.92-.33.31-.7.61-1.11.89-.41.28-.83.53-1.27.74-.03-.08-.08-.17-.15-.27-.07-.1-.13-.19-.21-.29-.07-.09-.14-.17-.21-.24.45-.2.89-.45,1.31-.75s.79-.62,1.12-.95c.33-.34.59-.66.79-.97h1c.21.29.45.56.71.82s.53.49.82.71.59.4.9.57c.31.17.62.31.94.42-.12.12-.23.25-.33.41s-.2.31-.29.45c-.4-.19-.8-.41-1.2-.68-.41-.27-.79-.56-1.14-.87-.35-.31-.64-.62-.87-.93ZM42.37,4.04h6.58v.89h-6.58v-.89ZM42.41,6.39c.47-.02,1.02-.03,1.64-.05s1.27-.04,1.96-.07c.68-.03,1.36-.05,2.02-.08l-.03.87c-.64.04-1.3.07-1.96.1-.66.03-1.29.06-1.89.09-.6.03-1.14.05-1.62.08l-.12-.93ZM44.3,4.62l1.09.29c-.12.25-.25.5-.38.76-.13.26-.27.5-.4.73-.13.23-.25.44-.37.62l-.83-.28c.11-.2.22-.42.33-.66.12-.25.22-.5.32-.75.1-.26.18-.49.24-.71ZM43.78,2.51h3.71v.87h-3.71v-.87ZM46.27,5.43l.83-.44c.24.21.47.43.71.67s.45.48.64.72c.2.24.35.46.48.66l-.89.54c-.11-.2-.25-.43-.45-.68s-.4-.51-.63-.76c-.23-.26-.46-.49-.69-.7Z"/><path class="cls-1" d="M51.57,2.83c.19,0,.36.05.51.14.15.09.27.21.36.36.09.15.14.32.14.51s-.05.35-.14.51-.21.28-.36.37c-.15.09-.32.14-.51.14s-.35-.05-.51-.14c-.15-.09-.28-.21-.37-.37s-.14-.32-.14-.51.05-.36.14-.51c.09-.15.22-.27.37-.36.15-.09.32-.14.51-.14Z"/><path class="cls-1" d="M56.92.42s-.01.11-.02.19-.02.17-.03.26c0,.09-.01.17-.02.23-.01.15-.02.32-.03.5,0,.18-.01.37-.02.56,0,.19,0,.39-.01.58,0,.2,0,.39,0,.57,0,.22,0,.46,0,.72,0,.26.01.52.02.78,0,.26.01.49.02.7,0,.21,0,.38,0,.49,0,.33-.04.58-.11.76-.07.18-.17.3-.3.38-.13.07-.29.11-.46.11-.19,0-.39-.04-.61-.11-.22-.08-.42-.18-.61-.32-.19-.14-.34-.3-.46-.48-.12-.18-.18-.38-.18-.59,0-.25.1-.51.29-.76.19-.25.45-.48.77-.69s.66-.38,1.03-.51c.35-.13.72-.23,1.09-.29s.71-.09,1.01-.09c.41,0,.77.07,1.1.2.33.13.59.33.78.59.2.26.29.57.29.93,0,.31-.06.59-.17.85-.12.26-.3.48-.56.67-.26.19-.6.33-1.02.44-.18.04-.36.06-.53.08s-.34.03-.5.04l-.36-1.02c.18,0,.35,0,.52-.01.17,0,.32-.02.46-.04.22-.04.41-.11.59-.19s.31-.2.41-.33c.1-.14.15-.3.15-.49,0-.18-.05-.33-.15-.46-.1-.13-.23-.22-.41-.29-.17-.07-.38-.1-.61-.1-.33,0-.67.03-1.01.1-.34.07-.67.16-.98.28-.23.09-.44.19-.63.31-.19.12-.33.24-.44.37s-.16.25-.16.36c0,.06.02.12.06.18.04.06.09.1.15.15.06.04.13.08.19.1.07.02.12.04.17.04.07,0,.13-.02.18-.07.05-.05.07-.13.07-.27,0-.14,0-.35-.01-.61,0-.27-.02-.56-.02-.89,0-.33-.01-.65-.01-.97,0-.22,0-.45,0-.67,0-.23,0-.44,0-.65s0-.39,0-.55c0-.16,0-.28,0-.37,0-.06,0-.13,0-.22s-.01-.18-.02-.27c0-.09-.02-.16-.03-.2h1.09ZM54.32,1.71c.23.03.44.04.61.05.18,0,.34.01.48.01.21,0,.43,0,.68-.03.25-.02.5-.04.76-.08.26-.03.51-.08.76-.12.25-.05.47-.1.67-.16l.02.98c-.22.05-.46.1-.72.14-.26.04-.52.08-.78.11-.26.03-.51.06-.74.07-.23.02-.44.02-.61.02-.26,0-.48,0-.65,0-.17,0-.32-.02-.46-.03l-.02-.96ZM59.18,1.28c.2.09.43.21.68.35s.49.27.72.41c.23.13.41.25.55.36l-.48.81c-.1-.08-.23-.18-.39-.29-.16-.11-.34-.21-.52-.32-.19-.11-.37-.21-.54-.31-.17-.1-.32-.18-.45-.23l.44-.77Z"/><path class="cls-1" d="M61.85.43h.94v7.14h-.94V.43ZM62.32,1.58h1.98v.64h-1.98v-.64ZM62.39.43h2.51v2.96h-2.51v-.72h1.62v-1.52h-1.62V.43ZM63.61,3.94h.88v2.95h-.88v-2.95ZM64.02,3.94h2.68v2.5h-2.68v-.78h1.78v-.94h-1.78v-.78ZM68.11.43v.72h-1.77v1.54h1.77v.71h-2.68V.43h2.68ZM66,1.58h2v.64h-2v-.64ZM67.6.43h.97v6c0,.26-.03.47-.09.62-.06.15-.18.26-.34.34-.17.08-.38.13-.63.15-.25.02-.57.03-.93.03,0-.09-.03-.2-.06-.32-.04-.12-.08-.23-.12-.35-.04-.12-.09-.22-.14-.31.16.01.32.02.48.02.16,0,.3,0,.42,0s.21,0,.27,0c.07,0,.13-.01.15-.04.03-.03.04-.08.04-.15V.43Z"/><path class="cls-1" d="M71.16,1.19c-.02.09-.04.2-.05.32s-.02.24-.03.36c0,.12-.01.21-.01.29,0,.17,0,.35,0,.54,0,.19,0,.37.02.57,0,.19.02.38.04.57.04.38.09.72.16,1.01.07.29.16.52.27.68.11.16.25.24.42.24.09,0,.18-.05.27-.15.09-.1.17-.23.24-.39s.13-.33.19-.51c.06-.18.1-.35.15-.51l.79.97c-.17.46-.35.83-.52,1.1-.17.27-.35.47-.53.59-.19.12-.39.18-.6.18-.29,0-.56-.1-.81-.29-.26-.19-.47-.5-.65-.92s-.31-.99-.38-1.7c-.03-.24-.05-.5-.06-.77-.01-.27-.02-.53-.02-.77,0-.24,0-.44,0-.6,0-.11,0-.24-.02-.4-.01-.15-.03-.29-.05-.41l1.22.02ZM75.12,1.37c.15.18.29.4.43.66.14.26.26.54.38.83.12.3.22.6.31.91.09.31.16.61.22.9.06.29.09.56.11.8l-1.05.4c-.03-.32-.07-.67-.14-1.05-.07-.38-.16-.76-.28-1.15-.12-.39-.25-.75-.42-1.09s-.35-.64-.57-.89l1.01-.32Z"/><path class="cls-1" d="M80.9,1.06c-.22.31-.49.63-.82.95s-.7.63-1.1.93-.82.56-1.26.8c-.04-.07-.1-.16-.16-.25-.07-.09-.14-.19-.21-.28s-.15-.17-.23-.23c.46-.23.9-.5,1.32-.82.42-.32.8-.65,1.13-1.01.33-.35.6-.69.79-1.01h.99c.21.3.45.59.71.86.26.27.54.53.84.77s.6.45.91.63c.32.18.63.34.94.47-.12.12-.23.26-.33.41-.11.15-.2.3-.29.45-.31-.16-.62-.34-.93-.55-.31-.21-.61-.43-.9-.67-.29-.23-.55-.48-.8-.72-.24-.25-.45-.49-.62-.72ZM78.43,4.31h5.05v3.26h-.98v-2.43h-3.14v2.43h-.93v-3.26ZM78.85,6.44h4.1v.84h-4.1v-.84ZM78.95,2.68h3.97v.84h-3.97v-.84Z"/><path class="cls-1" d="M87.2,2.67c-.08,0-.19.02-.33.04-.13.02-.27.04-.42.06s-.3.04-.46.06c-.15.02-.3.04-.43.06l-.1-1.01c.12,0,.23,0,.33,0s.22,0,.36-.01c.13-.01.28-.03.46-.04.18-.02.36-.04.54-.07.18-.03.35-.06.51-.09.16-.03.28-.06.37-.1l.32.4c-.05.06-.1.14-.16.24-.06.1-.12.19-.19.29-.06.1-.12.18-.17.26l-.47,1.49c-.08.12-.19.27-.31.46-.12.19-.25.38-.39.59-.14.21-.27.4-.4.59-.13.19-.25.36-.36.5l-.63-.86c.1-.13.22-.27.35-.44.13-.17.27-.34.41-.53.14-.19.28-.37.42-.56.14-.19.27-.36.38-.53.12-.17.22-.31.3-.43l.02-.21.06-.14ZM87.11,1.14v-.35c0-.12-.01-.24-.03-.36l1.16.04c-.03.12-.06.3-.1.53s-.07.49-.11.79c-.03.3-.07.61-.09.93-.03.32-.05.65-.07.97-.02.32-.03.62-.03.9,0,.22,0,.44,0,.66,0,.22,0,.45.01.68s.02.47.03.72c0,.07.01.17.02.29.01.12.02.23.03.32h-1.09c.01-.09.02-.19.02-.31,0-.12,0-.21,0-.27,0-.26.01-.5.02-.72,0-.22,0-.46.01-.7,0-.25,0-.54.02-.86,0-.12.01-.28.02-.46.01-.19.02-.39.04-.62.01-.22.03-.45.04-.68.02-.23.03-.45.04-.65.01-.2.02-.38.03-.52,0-.15.01-.24.01-.3ZM89,6.11c.35-.05.67-.13.96-.23.29-.1.54-.23.76-.39.21-.16.38-.35.49-.58.12-.23.17-.5.17-.81,0-.15-.03-.3-.09-.44-.06-.14-.14-.27-.26-.38-.11-.11-.25-.2-.41-.27-.16-.06-.34-.09-.54-.09-.5,0-.97.13-1.4.39-.43.26-.84.6-1.23,1.01v-1.13c.48-.44.95-.76,1.44-.93s.94-.27,1.36-.27.77.09,1.1.27c.33.18.59.43.79.75.2.32.29.69.29,1.12s-.06.76-.19,1.09c-.13.32-.31.6-.56.85-.25.24-.56.45-.93.61-.37.17-.8.3-1.29.4l-.48-.96Z"/><path class="cls-1" d="M93.02,2.66c.12,0,.26,0,.44-.02.17-.01.36-.02.56-.04.16-.02.39-.04.7-.07s.67-.06,1.06-.1.81-.08,1.24-.11c.43-.04.84-.08,1.24-.11.4-.03.75-.06,1.05-.08.11-.01.24-.02.38-.03.14,0,.27-.02.38-.03v.97s-.11,0-.21,0-.19,0-.3,0c-.1,0-.19,0-.26.01-.21,0-.46.02-.75.04-.3.02-.61.04-.95.07-.34.03-.68.06-1.03.1-.35.03-.69.07-1.01.11s-.61.07-.87.09c-.26.03-.46.05-.62.06-.08.01-.19.03-.31.04-.12.02-.24.04-.36.06-.12.02-.21.03-.28.04l-.11-1.01ZM95.68.87c-.02.13-.03.26-.04.38s0,.27,0,.44c0,.14,0,.33,0,.57,0,.24,0,.49,0,.77,0,.28,0,.55,0,.83,0,.28,0,.53,0,.76s0,.41,0,.54c0,.2.02.36.04.48s.08.22.15.29c.08.07.2.12.38.14.17.03.41.04.7.04.26,0,.53,0,.82-.03s.57-.04.84-.08c.27-.03.5-.06.7-.09l-.04,1.08c-.17.02-.39.04-.65.06s-.53.03-.81.05c-.28.01-.55.02-.8.02-.51,0-.92-.03-1.23-.09-.31-.06-.54-.16-.7-.29-.16-.14-.26-.32-.32-.55-.05-.23-.08-.52-.09-.86,0-.12,0-.27,0-.47s0-.41,0-.65v-.74c0-.25,0-.49,0-.72s0-.43,0-.61v-.38c0-.16,0-.32-.02-.46s-.03-.28-.05-.42h1.12ZM98.79.63s-.01.1-.02.19c0,.08-.01.17-.02.26,0,.09-.01.17-.02.25,0,.17,0,.34,0,.51,0,.16,0,.32,0,.46,0,.15,0,.29-.01.42,0,.23-.01.48-.02.73-.01.25-.02.49-.04.71s-.04.39-.06.53c-.04.21-.12.34-.22.42s-.26.11-.47.11c-.09,0-.21,0-.37-.02-.16-.01-.31-.03-.46-.05s-.27-.04-.37-.05l.02-.88c.12.03.25.05.4.07s.25.03.33.03c.08,0,.14-.01.18-.04.04-.02.06-.07.07-.15.02-.1.03-.23.04-.38,0-.15.02-.32.02-.5,0-.18.01-.36.02-.53v-1.35c0-.07,0-.15-.01-.24,0-.09-.01-.18-.02-.27s-.01-.16-.02-.21h1.06Z"/><path class="cls-1" d="M102.51.74c-.02.05-.04.13-.07.22-.03.09-.05.19-.07.28-.02.09-.03.16-.04.21-.03.11-.06.26-.09.45-.03.19-.07.4-.1.63-.03.23-.07.48-.1.72-.03.25-.06.48-.07.7-.02.22-.02.41-.02.57,0,.08,0,.17,0,.26,0,.09.01.18.03.26.04-.09.08-.19.11-.28.04-.09.08-.18.12-.27.04-.09.08-.18.12-.27l.48.4c-.07.22-.15.44-.23.68-.08.24-.15.46-.21.67s-.11.39-.14.53c-.01.05-.02.12-.03.19,0,.07-.01.13-.01.18,0,.04,0,.09,0,.15,0,.06,0,.12.01.17l-.89.07c-.08-.28-.16-.64-.22-1.07-.06-.44-.1-.92-.1-1.46,0-.3.01-.61.04-.93.03-.32.06-.64.09-.94.03-.3.07-.58.11-.83.04-.25.07-.45.09-.61.02-.11.03-.24.05-.38.02-.14.03-.27.03-.4l1.09.09ZM106.38.65c-.01.07-.02.16-.03.25s-.01.18-.02.27c0,.08-.01.2-.02.34s0,.3,0,.48v.56c0,.36,0,.7.02,1.01.01.31.02.6.04.87.02.27.03.51.04.73s.02.43.02.62c0,.21-.03.4-.08.57-.06.17-.14.33-.27.46-.12.13-.28.23-.48.31-.2.07-.44.11-.73.11-.55,0-.98-.11-1.3-.33-.32-.22-.48-.54-.48-.96,0-.27.07-.51.21-.71s.35-.36.61-.48c.26-.11.58-.17.93-.17s.72.04,1.02.12c.31.08.59.18.84.32.25.13.48.28.68.43.2.16.38.31.53.45l-.55.83c-.3-.29-.59-.53-.88-.74-.29-.21-.57-.36-.85-.48-.28-.11-.57-.17-.88-.17-.22,0-.4.04-.54.13-.14.08-.21.2-.21.36s.07.27.21.35.32.11.52.11c.16,0,.29-.03.39-.08.09-.06.16-.14.2-.25.04-.11.06-.24.06-.39,0-.14,0-.32-.02-.54-.01-.22-.02-.47-.04-.74s-.03-.56-.04-.86c-.01-.3-.02-.59-.02-.88,0-.3,0-.57,0-.82,0-.25,0-.43,0-.55,0-.06,0-.14-.02-.25s-.02-.2-.04-.28h1.13ZM103.37,1.99c.23.02.46.04.69.05s.46.02.7.02c.49,0,.97-.02,1.45-.06.48-.04.92-.11,1.33-.2v.99c-.41.06-.86.1-1.34.14-.48.03-.96.05-1.44.05-.23,0-.46,0-.69-.01-.23,0-.46-.02-.69-.04v-.94Z"/><path class="cls-1" d="M109.91,4.45c-.04.14-.07.27-.1.4-.03.13-.04.26-.04.4,0,.25.13.46.38.63.26.16.67.25,1.24.25.36,0,.7-.01,1.04-.04.33-.03.65-.06.95-.11.3-.05.56-.1.8-.17v1.12c-.22.05-.48.1-.77.14s-.59.07-.92.1c-.33.02-.68.04-1.05.04-.6,0-1.11-.07-1.51-.2-.41-.13-.71-.32-.91-.57-.2-.25-.3-.56-.3-.92,0-.23.02-.44.06-.63.04-.19.07-.36.1-.51l1.04.1ZM109.25,1.09c.29.03.62.06.98.07s.76.02,1.17.02c.26,0,.53,0,.8-.02s.55-.02.8-.04c.26-.02.49-.03.69-.06v1.05c-.18.02-.41.03-.67.05s-.53.03-.82.04c-.28,0-.55.01-.8.01-.41,0-.79,0-1.15-.02-.35-.02-.69-.04-1.01-.06v-1.05Z"/><path class="cls-1" d="M115.13,1.47c.25.04.53.08.82.11.3.03.57.04.82.04s.53,0,.84-.02.62-.04.96-.07c.34-.03.68-.07,1.02-.12s.67-.11,1-.18l.02.94c-.25.04-.54.08-.86.13-.32.04-.65.08-1,.11-.35.03-.69.06-1.03.08-.34.02-.65.03-.93.03-.31,0-.6,0-.88-.02-.28-.01-.53-.03-.77-.05v-.98ZM117.89.54c-.04.14-.08.27-.11.41-.03.13-.06.27-.08.4-.03.13-.06.27-.09.44-.03.16-.07.34-.11.52-.04.18-.08.37-.13.55-.05.18-.09.37-.14.54s-.09.34-.13.49c.32-.18.64-.31.96-.38.32-.08.65-.11,1.01-.11.43,0,.8.07,1.12.21.32.14.57.34.74.59.18.25.27.55.27.89,0,.44-.1.82-.31,1.12s-.49.55-.87.72-.83.29-1.35.33c-.53.05-1.11.04-1.75-.03l-.28-1.02c.43.07.86.11,1.27.11s.79-.04,1.12-.12c.33-.08.6-.21.8-.38s.3-.41.3-.7c0-.24-.1-.44-.3-.61-.2-.17-.49-.26-.88-.26-.46,0-.88.08-1.26.24s-.69.39-.93.69c-.04.06-.07.11-.11.17-.03.05-.07.11-.11.18l-.93-.33c.15-.29.29-.61.41-.97.13-.36.24-.73.34-1.1.1-.37.18-.71.25-1.03.06-.32.11-.58.13-.78.03-.17.04-.31.05-.43,0-.12,0-.24,0-.37l1.12.05Z"/><path class="cls-1" d="M123.82,2.07c-.03.11-.05.24-.08.41-.03.17-.06.34-.08.52s-.05.35-.08.51c-.02.16-.04.3-.06.41.36-.26.74-.45,1.13-.57.39-.12.8-.18,1.21-.18.46,0,.86.08,1.19.25.33.17.58.39.75.67.17.27.26.57.26.9,0,.36-.08.69-.23,1s-.4.57-.75.78c-.35.22-.81.37-1.37.46-.57.09-1.26.1-2.08.03l-.3-1.04c.79.11,1.46.12,2,.04.54-.08.95-.23,1.22-.46.28-.23.42-.51.42-.84,0-.17-.05-.33-.15-.46-.1-.13-.24-.24-.42-.32s-.38-.11-.61-.11c-.44,0-.86.08-1.25.24-.39.16-.71.39-.95.69-.07.08-.13.16-.17.23-.05.07-.09.15-.12.23l-.91-.23c.03-.15.06-.33.09-.54.03-.21.06-.43.1-.67.03-.24.06-.48.09-.72.03-.24.05-.48.07-.72.02-.24.04-.45.05-.65l1.06.15ZM123.78.48c.19.06.43.12.71.18.29.06.58.13.9.19.31.06.61.11.88.15.28.04.5.07.68.09l-.24.97c-.16-.02-.35-.05-.57-.09s-.46-.08-.71-.13c-.25-.05-.5-.1-.74-.15-.24-.05-.46-.1-.66-.15-.2-.05-.36-.09-.49-.12l.25-.95Z"/><path class="cls-1" d="M136.03.1l.27.27-7.21,7.21-.27-.27L136.03.1Z"/></g></svg>