<?xml version="1.0" encoding="UTF-8"?><svg id="_レイヤー_2" xmlns="http://www.w3.org/2000/svg" viewBox="0 0 148 45"><defs><style>.cls-1{fill:#fff;}.cls-1,.cls-2,.cls-3,.cls-4,.cls-5,.cls-6{stroke-width:0px;}.cls-1,.cls-3,.cls-5,.cls-6{fill-rule:evenodd;}.cls-2{fill:none;}.cls-3{fill:#d91a17;}.cls-4,.cls-5{fill:#231815;}.cls-6{fill:#040000;}</style></defs><g id="_レイヤー_1-2"><path class="cls-1" d="M30.94,25.38c-.28,1.17.42,4.34.42,4.34l-5.36.79s-.56-.85-.04-1.77c.52-.92-.27-2.4-2.3-1.78-1.3.39-1.04,1.28-.46,2.03.58.75.22,1.81.22,1.81l-5.75-.28s.85-2.37.55-4.61c-.37-2.71-4.81.73-4.64-3,.17-3.62,4.59.85,4.59-1.65v-4.83s5.24,1.42,5.78.34c.54-1.07-2.23-2.61-.6-3.85,1.87-1.42,4.71-.05,4.99,1.03.28,1.07-.89,1.2-1.21,1.99-1.07,2.68,4.27,1.73,4.27,1.73,0,0-.72,3.51-.49,4.42.3,1.17,3.47-1.73,3.64,1.21.18,3-3.24.56-3.6,2.06Z"/><path class="cls-4" d="M23.41,31.26s-.01,0-.02,0l-5.75-.28c-.15,0-.28-.08-.36-.21-.08-.12-.1-.28-.05-.41,0-.02.81-2.29.52-4.39-.1-.72-.49-.8-1.77-.73-.81.05-1.73.1-2.33-.49-.4-.4-.58-1.01-.54-1.86.04-.81.27-1.36.72-1.66.72-.5,1.7-.17,2.57.11.38.12,1.1.36,1.24.25.01,0,.06-.09.06-.32v-4.83c0-.14.07-.28.18-.37.12-.09.26-.12.4-.08,2.44.66,4.94.93,5.25.58.1-.2-.2-.65-.47-1.05-.49-.73-1.3-1.96,0-2.95.99-.75,2.33-.91,3.68-.44,1.06.37,1.86,1.05,2.04,1.72.24.94-.35,1.42-.74,1.74-.22.18-.41.34-.49.54-.21.53-.06.72,0,.79.48.59,2.49.54,3.77.32.15-.03.31.02.41.13.11.11.15.27.12.42-.26,1.28-.62,3.5-.5,4.16.16,0,.52-.11.76-.18.7-.21,1.57-.47,2.22-.02.42.29.64.8.69,1.55.04.76-.11,1.3-.48,1.65-.54.53-1.35.46-2.06.4-.81-.07-1.02-.04-1.07.15h0c-.21.87.24,3.28.42,4.14.03.13,0,.26-.07.36s-.19.18-.31.2l-5.36.79c-.18.02-.36-.05-.45-.2-.03-.04-.71-1.1-.06-2.25.15-.27.12-.62-.08-.87-.31-.38-.92-.47-1.68-.25-.19.06-.52.18-.59.39-.06.19.07.53.36.91.72.94.31,2.19.29,2.24-.06.19-.24.32-.44.32ZM18.28,30.08l4.76.23c.04-.29.03-.72-.22-1.04-.5-.65-.68-1.24-.51-1.76.15-.47.56-.8,1.21-1,1.62-.49,2.41.22,2.67.55.43.54.5,1.31.17,1.9-.23.4-.17.79-.09,1.03l4.54-.67c-.19-.98-.56-3.08-.32-4.06.24-1.02,1.29-.93,2.05-.86.51.04,1.09.1,1.33-.14.2-.19.22-.61.2-.93-.02-.31-.08-.7-.29-.84-.28-.2-.91,0-1.42.15-.6.18-1.11.34-1.52.1-.14-.08-.32-.23-.39-.53-.19-.77.15-2.86.36-3.99-1.13.13-3.2.22-3.99-.74-.25-.31-.48-.86-.13-1.72.17-.42.5-.69.76-.91.39-.32.52-.45.43-.8-.08-.31-.64-.8-1.44-1.07-.5-.17-1.77-.49-2.82.3-.52.4-.42.74.22,1.69.41.61.86,1.31.52,1.99-.56,1.12-3.61.58-5.73.05v4.23c0,.5-.15.86-.44,1.07-.53.38-1.28.14-2.07-.12-.63-.2-1.41-.46-1.75-.23-.24.16-.3.6-.32.94-.03.57.06.96.27,1.16.3.3.98.26,1.62.23,1.06-.06,2.52-.14,2.75,1.53.23,1.66-.14,3.36-.39,4.23Z"/><path class="cls-5" d="M21.92,22.1c0,.44-.36.8-.8.8s-.8-.36-.8-.8.36-.81.8-.81.8.36.8.81Z"/><path class="cls-5" d="M28.71,22.5c0,.44-.36.8-.8.8s-.8-.36-.8-.8.36-.8.8-.8.8.36.8.8Z"/><path class="cls-3" d="M22.74,23.48s.46,1.3,1.53,1.3,1.61-1.25,1.61-1.25l-3.14-.05Z"/><path class="cls-6" d="M10.45,25.82s0,.08.04.09l1,.41-.07.16c-.03.06,0,.1.03.12l.45.18s.08,0,.1-.06l.07-.16.97.4s.08,0,.09-.04l.16-.4-2.67-1.11-.16.4Z"/><path class="cls-6" d="M16.43,18.95s0-.08-.04-.09l-.97-.4.07-.16c.03-.06,0-.1-.03-.12l-.45-.18s-.08,0-.1.06l-.07.16-1-.41s-.08,0-.09.04l-.16.4,2.67,1.11.16-.4Z"/><path class="cls-6" d="M16.87,19.86l-4.01-1.67c-.05-.02-.12,0-.14.06l-.4.96c-.02.05,0,.12.06.14l1.7.71-1.44,3.46-.39.95-1.7-.71c-.05-.02-.12,0-.14.06l-.4.96c-.02.05,0,.12.06.14l4.01,1.67c.05.02.12,0,.14-.06l.4-.96c.02-.05,0-.12-.06-.14l-1.73-.72,1.83-4.41,1.73.72c.05.02.12,0,.14-.06l.4-.96c.02-.05,0-.12-.06-.14Z"/><path class="cls-3" d="M131.62,23.11l-.45,2.21,2.23,2.43h-39.93c-.03.16-.07.31-.11.46-.16.55-.42,1.04-.77,1.46h45.14l-6.1-6.55Z"/><path class="cls-3" d="M43.05,17.58c-.72,0-1.34.09-1.83.26-.48.17-.88.43-1.17.77-.3.34-.51.77-.64,1.29-.13.52-.2,1.15-.2,1.86v.95c0,.68.06,1.28.18,1.78.12.49.32.9.6,1.22.28.32.66.56,1.14.72.48.16,1.1.24,1.84.24h1.5c.43,0,.88-.01,1.37-.03l.32-1.89c-.57,0-1.08.01-1.55.01h-1.41c-.32,0-.58-.02-.79-.06-.22-.05-.41-.13-.55-.27-.14-.13-.24-.3-.29-.51-.05-.19-.08-.45-.09-.75v-.13s3.88,0,3.88,0c.25,0,.46-.03.63-.08.16-.05.28-.14.38-.27.1-.13.17-.31.21-.53.04-.23.06-.54.06-.91v-.36c0-1.04-.28-1.87-.83-2.44-.55-.58-1.48-.87-2.77-.87ZM44.49,21.4h-3.01v-.13c0-.37.02-.68.06-.92.04-.25.12-.45.23-.6.12-.15.28-.26.48-.32.19-.06.43-.08.73-.08s.54.03.73.08c.2.06.36.17.48.32.12.15.2.35.24.6.04.24.06.55.06.92v.13Z"/><path class="cls-3" d="M54.53,22.01c-.18-.21-.43-.4-.74-.54-.32-.14-.71-.24-1.19-.28l-1.46-.14c-.4-.04-.66-.11-.78-.21-.14-.11-.21-.28-.21-.5,0-.29.1-.47.3-.55.16-.06.44-.09.84-.09h1.15c.27,0,.58,0,.93,0,.33,0,.72.01,1.16.02l.32-1.87c-.4,0-.75-.02-1.07-.02-.36,0-.67,0-.95,0h-1.39c-.64,0-1.2.06-1.64.18-.44.12-.79.28-1.06.5-.26.22-.46.48-.58.79-.12.31-.18.68-.18,1.09v.33c0,.67.18,1.24.53,1.7.35.45.95.71,1.79.78l1.56.12c.4.03.66.1.79.21.13.12.2.3.2.53,0,.3-.1.51-.3.61-.17.09-.49.14-.96.14-.51,0-1.08,0-1.72,0-.59,0-1.14-.01-1.64-.02l-.31,1.88c.28,0,.58.02.89.02.36,0,.71,0,1.06,0h1.65c1.22,0,2.12-.22,2.68-.65.55-.42.83-1.1.83-2.01v-.29c0-.34-.04-.67-.12-.96-.07-.28-.2-.54-.39-.75Z"/><path class="cls-3" d="M61.73,19.76l.34-1.91h-2.87v-2.47l-2.28.36v7.46c0,.69.05,1.27.14,1.72.09.44.26.78.5,1.04.24.25.58.43,1.01.53.44.11,1.02.16,1.72.16h.34c.14,0,.29,0,.43,0,.15,0,.29,0,.41,0h.16l.34-1.9h-.12c-.13.01-.28.01-.44.01h-.8c-.29,0-.52-.02-.69-.06-.19-.05-.34-.13-.46-.26-.11-.13-.18-.3-.22-.51-.03-.2-.05-.45-.05-.76v-3.39h2.54Z"/><path class="cls-3" d="M68.66,22.65c0,.28-.02.53-.06.72-.04.21-.13.39-.26.52-.13.13-.3.23-.51.28-.2.05-.46.08-.77.08s-.54-.03-.73-.09c-.19-.06-.34-.16-.45-.29-.1-.13-.17-.29-.2-.48-.03-.18-.04-.39-.04-.64v-4.9h-2.28v5.49c0,1.04.26,1.79.76,2.23.51.44,1.27.67,2.27.67.55,0,.98-.04,1.29-.13.3-.09.56-.21.77-.36l.2-.15v.35c0,.35-.03.65-.08.88-.06.24-.17.44-.33.57-.15.13-.36.22-.6.26-.23.04-.52.06-.87.06h-.97c-.2,0-.44,0-.71,0-.24,0-.53-.01-.87-.02l-.34,1.98c.38,0,.72.02,1,.02.32,0,.6,0,.84,0h1.23c.74,0,1.37-.07,1.89-.21.5-.14.91-.35,1.22-.64.31-.29.53-.67.67-1.12.14-.46.21-1.04.21-1.7v-8.17h-2.28v4.8Z"/><path class="cls-3" d="M81.83,18.57c-.29-.32-.69-.57-1.19-.73-.51-.17-1.16-.25-1.93-.25s-1.4.08-1.9.24c-.5.16-.9.41-1.2.73-.3.33-.52.75-.66,1.24-.13.51-.2,1.11-.2,1.8v.62c0,.72.07,1.35.2,1.86.13.5.34.92.62,1.24.28.32.64.55,1.07.7.44.15.98.23,1.6.23.49,0,.88-.04,1.17-.13.29-.09.54-.21.74-.36l.2-.15v.36c0,.35-.03.65-.08.88-.06.24-.17.44-.33.57-.15.13-.36.22-.6.26-.23.04-.52.06-.87.06h-.97c-.2,0-.44,0-.71,0-.24,0-.53-.01-.87-.02l-.34,1.98c.39,0,.74.02,1.03.02.33,0,.61,0,.85,0h1.19c.74,0,1.37-.07,1.88-.21.5-.14.91-.35,1.22-.64.31-.29.53-.66.67-1.12.14-.46.21-1.04.21-1.7v-4.63c0-.61-.06-1.16-.18-1.64-.12-.47-.32-.87-.62-1.19ZM80.34,22.45c0,.34-.02.63-.07.85-.05.24-.13.43-.26.58-.13.14-.3.25-.52.31-.21.05-.47.08-.79.08-.35,0-.62-.03-.83-.09-.23-.07-.41-.19-.53-.36-.12-.17-.2-.39-.24-.68-.04-.27-.06-.62-.06-1.04v-.38c0-.42.02-.77.05-1.03.03-.29.11-.52.24-.68.13-.17.3-.29.53-.36.21-.06.49-.09.84-.09s.62.03.83.09c.23.07.41.19.53.36.12.17.2.4.23.68.03.27.05.62.05,1.03v.73Z"/><path class="cls-3" d="M89.69,22.65c0,.28-.02.53-.06.72-.04.21-.13.39-.26.52-.13.13-.3.23-.51.28-.2.05-.46.08-.77.08s-.54-.03-.73-.09c-.19-.06-.34-.16-.45-.29-.1-.13-.17-.29-.2-.48-.03-.18-.04-.39-.04-.64v-4.9h-2.28v5.49c0,1.04.26,1.79.76,2.23.51.44,1.27.67,2.27.67.55,0,.98-.04,1.29-.13.3-.09.56-.21.77-.36l.2-.15v.35c0,.35-.03.65-.08.88-.06.24-.17.44-.33.57-.15.13-.36.22-.6.26-.23.04-.52.06-.87.06h-.97c-.2,0-.44,0-.71,0-.24,0-.53-.01-.87-.02l-.34,1.98c.38,0,.72.02,1,.02.32,0,.6,0,.84,0h1.23c.74,0,1.37-.07,1.89-.21.5-.14.91-.35,1.22-.64.31-.29.53-.67.67-1.12.14-.46.21-1.04.21-1.7v-8.17h-2.28v4.8Z"/><path class="cls-3" d="M96.03,21.06c0-.25.01-.46.04-.64.03-.19.09-.36.19-.49.1-.14.24-.24.42-.29.17-.06.39-.08.67-.08s.5.03.67.08c.18.06.32.16.41.3.09.13.15.29.18.48.03.18.04.39.04.64v5.58h2.28v-5.71c0-.23.02-.42.05-.59.04-.18.1-.32.2-.44.1-.12.25-.21.43-.27.17-.05.39-.07.64-.07.28,0,.5.03.67.08.18.06.32.16.42.3.1.13.16.3.19.49.03.18.04.4.04.64v5.58h2.28v-5.83c0-.62-.08-1.14-.23-1.55-.15-.41-.37-.74-.66-.98-.29-.24-.64-.42-1.06-.53-.42-.11-.91-.16-1.43-.16-1.21,0-2.07.32-2.58.95l-.1.12-.1-.12c-.52-.63-1.38-.96-2.55-.96-.54,0-1.03.05-1.46.16-.42.1-.78.28-1.06.53-.28.24-.51.58-.66.98-.15.42-.23.94-.23,1.55v5.83h2.28v-5.58Z"/><polygon class="cls-3" points="108.93 22.43 110.27 22.43 110.27 20.07 112.4 20.07 112.4 18.74 110.27 18.74 110.27 16.37 108.93 16.37 108.93 18.74 106.81 18.74 106.81 20.07 108.93 20.07 108.93 22.43"/><path class="cls-3" d="M121.3,24.66h-5.07v-.47c0-.25.01-.47.04-.65.03-.19.08-.36.15-.5.07-.14.17-.27.31-.37.13-.1.28-.19.47-.27l2.1-.95c.73-.32,1.25-.74,1.55-1.25.31-.51.46-1.16.46-1.93v-.28c0-.93-.26-1.65-.77-2.14-.51-.49-1.39-.74-2.6-.74-.55,0-1.15,0-1.79,0-.6,0-1.15.01-1.65.02l-.31,1.96c.54,0,1.12-.02,1.74-.02.67,0,1.27,0,1.79,0s.83.09,1.03.29c.2.19.3.52.3.98,0,.41-.07.71-.22.9-.14.19-.41.36-.81.55l-1.75.83c-.42.2-.79.42-1.08.65-.29.22-.53.5-.71.81-.18.31-.32.69-.4,1.11-.08.43-.13.94-.13,1.53v1.93h7.03l.32-1.98Z"/><polygon class="cls-3" points="126.95 26.64 129.07 26.64 129.07 24.46 129.92 24.46 130.26 22.59 129.07 22.59 129.07 18.99 126.95 19.37 126.95 22.59 124.09 22.59 127.66 15.14 125.47 15.12 121.87 22.76 121.87 24.46 126.95 24.46 126.95 26.64"/><rect class="cls-2" width="148" height="45"/></g></svg>