<?xml version="1.0" encoding="UTF-8"?><svg id="_レイヤー_2" xmlns="http://www.w3.org/2000/svg" viewBox="0 0 21.31 21.31"><defs><style>.cls-1{fill:#444;}.cls-1,.cls-2{stroke-width:0px;}.cls-2{fill:#fff;}</style></defs><g id="_レイヤー_1-2"><circle class="cls-1" cx="10.66" cy="10.66" r="10.66"/><path class="cls-2" d="M10.66,8.55c-1.16,0-2.09.94-2.09,2.09s.94,2.09,2.09,2.09,2.09-.94,2.09-2.09-.94-2.09-2.09-2.09ZM10.66,12c-.75,0-1.36-.61-1.36-1.36s.61-1.36,1.36-1.36,1.36.61,1.36,1.36-.61,1.36-1.36,1.36ZM13.18,8.12c-.09-.09-.21-.14-.34-.14-.27,0-.49.22-.49.49s.22.49.49.49.49-.22.49-.49c0-.13-.06-.26-.14-.34ZM13.18,8.12c-.09-.09-.21-.14-.34-.14-.27,0-.49.22-.49.49s.22.49.49.49.49-.22.49-.49c0-.13-.06-.26-.14-.34ZM10.66,8.55c-1.16,0-2.09.94-2.09,2.09s.94,2.09,2.09,2.09,2.09-.94,2.09-2.09-.94-2.09-2.09-2.09ZM10.66,12c-.75,0-1.36-.61-1.36-1.36s.61-1.36,1.36-1.36,1.36.61,1.36,1.36-.61,1.36-1.36,1.36ZM10.66,8.55c-1.16,0-2.09.94-2.09,2.09s.94,2.09,2.09,2.09,2.09-.94,2.09-2.09-.94-2.09-2.09-2.09ZM10.66,12c-.75,0-1.36-.61-1.36-1.36s.61-1.36,1.36-1.36,1.36.61,1.36,1.36-.61,1.36-1.36,1.36ZM13.18,8.12c-.09-.09-.21-.14-.34-.14-.27,0-.49.22-.49.49s.22.49.49.49.49-.22.49-.49c0-.13-.06-.26-.14-.34ZM13.18,8.12c-.09-.09-.21-.14-.34-.14-.27,0-.49.22-.49.49s.22.49.49.49.49-.22.49-.49c0-.13-.06-.26-.14-.34ZM10.66,8.55c-1.16,0-2.09.94-2.09,2.09s.94,2.09,2.09,2.09,2.09-.94,2.09-2.09-.94-2.09-2.09-2.09ZM10.66,12c-.75,0-1.36-.61-1.36-1.36s.61-1.36,1.36-1.36,1.36.61,1.36,1.36-.61,1.36-1.36,1.36ZM14.71,8.96c-.02-.43-.09-.73-.19-.99-.1-.27-.24-.49-.47-.72s-.45-.37-.72-.47c-.26-.1-.56-.17-.99-.19-.44-.02-.57-.02-1.68-.02s-1.25,0-1.68.02c-.43.02-.73.09-.99.19-.27.1-.5.24-.72.47s-.36.45-.47.72c-.1.26-.17.56-.19.99-.02.44-.03.57-.03,1.68s0,1.25.03,1.68c.02.44.09.73.19.99.1.27.24.5.47.72.23.23.46.37.72.47.26.1.56.17.99.19.43.02.57.03,1.68.03s1.25,0,1.68-.03c.43-.02.73-.09.99-.19.27-.1.49-.24.72-.47.23-.23.37-.46.47-.72.1-.26.17-.55.19-.99.02-.43.03-.57.03-1.68s0-1.25-.03-1.68ZM13.97,12.29c-.02.4-.08.61-.14.76-.07.19-.16.33-.31.47-.14.14-.28.23-.47.31-.14.06-.36.12-.76.14-.43.02-.56.02-1.65.02s-1.22,0-1.65-.02c-.4-.02-.61-.08-.76-.14-.19-.07-.33-.16-.47-.31-.14-.14-.23-.28-.31-.47-.06-.14-.12-.36-.14-.76-.02-.43-.02-.56-.02-1.65s0-1.22.02-1.65c.02-.4.08-.61.14-.76.07-.19.16-.33.31-.47.14-.14.28-.23.47-.31.14-.06.36-.12.76-.14.38-.02.52-.02,1.28-.02h.37c1.09,0,1.22,0,1.65.02.4.02.61.08.76.14.19.07.33.16.47.31.14.14.23.28.31.47.06.14.12.36.14.76.02.43.02.56.02,1.65s0,1.22-.02,1.65ZM12.83,7.98c-.27,0-.49.22-.49.49s.22.49.49.49.49-.22.49-.49c0-.13-.06-.26-.14-.34s-.21-.14-.34-.14ZM10.66,8.55c-1.16,0-2.09.94-2.09,2.09s.94,2.09,2.09,2.09,2.09-.94,2.09-2.09-.94-2.09-2.09-2.09ZM10.66,12c-.75,0-1.36-.61-1.36-1.36s.61-1.36,1.36-1.36,1.36.61,1.36,1.36-.61,1.36-1.36,1.36ZM10.66,8.55c-1.16,0-2.09.94-2.09,2.09s.94,2.09,2.09,2.09,2.09-.94,2.09-2.09-.94-2.09-2.09-2.09ZM10.66,12c-.75,0-1.36-.61-1.36-1.36s.61-1.36,1.36-1.36,1.36.61,1.36,1.36-.61,1.36-1.36,1.36ZM13.18,8.12c-.09-.09-.21-.14-.34-.14-.27,0-.49.22-.49.49s.22.49.49.49.49-.22.49-.49c0-.13-.06-.26-.14-.34ZM13.18,8.12c-.09-.09-.21-.14-.34-.14-.27,0-.49.22-.49.49s.22.49.49.49.49-.22.49-.49c0-.13-.06-.26-.14-.34ZM10.66,8.55c-1.16,0-2.09.94-2.09,2.09s.94,2.09,2.09,2.09,2.09-.94,2.09-2.09-.94-2.09-2.09-2.09ZM10.66,12c-.75,0-1.36-.61-1.36-1.36s.61-1.36,1.36-1.36,1.36.61,1.36,1.36-.61,1.36-1.36,1.36ZM10.66,8.55c-1.16,0-2.09.94-2.09,2.09s.94,2.09,2.09,2.09,2.09-.94,2.09-2.09-.94-2.09-2.09-2.09ZM10.66,12c-.75,0-1.36-.61-1.36-1.36s.61-1.36,1.36-1.36,1.36.61,1.36,1.36-.61,1.36-1.36,1.36ZM13.18,8.12c-.09-.09-.21-.14-.34-.14-.27,0-.49.22-.49.49s.22.49.49.49.49-.22.49-.49c0-.13-.06-.26-.14-.34ZM13.18,8.12c-.09-.09-.21-.14-.34-.14-.27,0-.49.22-.49.49s.22.49.49.49.49-.22.49-.49c0-.13-.06-.26-.14-.34ZM10.66,8.55c-1.16,0-2.09.94-2.09,2.09s.94,2.09,2.09,2.09,2.09-.94,2.09-2.09-.94-2.09-2.09-2.09ZM10.66,12c-.75,0-1.36-.61-1.36-1.36s.61-1.36,1.36-1.36,1.36.61,1.36,1.36-.61,1.36-1.36,1.36Z"/></g></svg>