<?xml version="1.0" encoding="UTF-8"?><svg id="_レイヤー_2" xmlns="http://www.w3.org/2000/svg" viewBox="0 0 43.95 34.09"><defs><style>.cls-1{fill:#fff;}.cls-1,.cls-2,.cls-3,.cls-4,.cls-5{stroke-width:0px;}.cls-1,.cls-2,.cls-4,.cls-5{fill-rule:evenodd;}.cls-2{fill:#d91a17;}.cls-3,.cls-4{fill:#231815;}.cls-5{fill:#040000;}</style></defs><g id="_レイヤー_1-2"><path class="cls-1" d="M36.8,23.77c-.49,2.05.74,7.63.74,7.63l-9.43,1.39s-.99-1.49-.08-3.11c.91-1.62-.48-4.21-4.04-3.13-2.28.68-1.82,2.25-.81,3.56,1.01,1.32.38,3.17.38,3.17l-10.11-.49s1.5-4.16.96-8.1c-.65-4.76-8.46,1.28-8.15-5.27.3-6.35,8.07,1.5,8.07-2.89v-8.48s9.22,2.49,10.16.6c.95-1.88-3.92-4.59-1.06-6.76,3.29-2.49,8.28-.08,8.76,1.81.48,1.89-1.57,2.1-2.12,3.5-1.89,4.71,7.5,3.04,7.5,3.04,0,0-1.26,6.17-.86,7.77.53,2.06,6.09-3.03,6.4,2.13.31,5.26-5.69.99-6.32,3.62Z"/><path class="cls-3" d="M23.57,34.09s-.03,0-.04,0l-10.11-.49c-.26-.01-.5-.15-.64-.36-.14-.21-.18-.49-.09-.73.01-.04,1.42-4.02.92-7.71-.17-1.26-.86-1.41-3.12-1.28-1.43.08-3.04.17-4.09-.87-.71-.7-1.02-1.77-.95-3.27.07-1.43.48-2.38,1.27-2.93,1.26-.87,2.99-.31,4.52.19.67.22,1.93.62,2.18.44.02-.02.11-.16.11-.56v-8.48c0-.25.12-.49.32-.65.2-.15.46-.2.71-.14,4.29,1.16,8.68,1.64,9.22,1.01.17-.35-.36-1.15-.82-1.85-.86-1.29-2.29-3.45,0-5.18,1.74-1.32,4.1-1.59,6.47-.77,1.87.65,3.27,1.84,3.58,3.02.42,1.65-.61,2.5-1.3,3.07-.39.32-.72.59-.86.94-.38.94-.1,1.27-.01,1.38.85,1.04,4.38.95,6.62.56.27-.05.54.04.73.23.19.19.27.47.21.73-.46,2.25-1.09,6.15-.89,7.32.29,0,.91-.19,1.33-.32,1.23-.37,2.76-.83,3.9-.04.73.51,1.13,1.4,1.21,2.73.08,1.33-.2,2.28-.84,2.9-.96.93-2.37.81-3.62.7-1.42-.12-1.8-.07-1.88.26h0c-.37,1.53.41,5.76.75,7.27.05.22,0,.45-.13.64s-.33.31-.55.34l-9.43,1.39c-.32.04-.62-.09-.8-.36-.05-.08-1.25-1.93-.11-3.96.27-.47.21-1.08-.14-1.52-.54-.68-1.62-.83-2.95-.43-.34.1-.92.33-1.04.69-.11.34.13.94.64,1.59,1.26,1.64.54,3.84.51,3.93-.11.33-.42.55-.77.55ZM14.55,32.02l8.37.4c.06-.51.06-1.26-.38-1.83-.89-1.15-1.19-2.19-.9-3.09.26-.82.98-1.41,2.12-1.75,2.85-.86,4.23.4,4.7.97.76.95.88,2.3.29,3.34-.4.71-.3,1.39-.15,1.81l7.97-1.17c-.34-1.72-.98-5.41-.56-7.14.42-1.78,2.26-1.63,3.61-1.51.9.08,1.92.17,2.34-.24.34-.34.38-1.07.35-1.63-.03-.54-.15-1.23-.51-1.48-.5-.35-1.6-.01-2.49.26-1.05.32-1.96.59-2.68.18-.24-.13-.55-.41-.69-.93-.34-1.35.26-5.02.63-7-1.99.23-5.62.39-7-1.3-.44-.54-.84-1.51-.24-3.02.3-.74.87-1.22,1.34-1.6.68-.56.91-.78.75-1.4-.14-.54-1.13-1.4-2.53-1.89-.88-.31-3.11-.86-4.95.53-.92.7-.74,1.29.38,2.98.71,1.07,1.52,2.29.91,3.5-.98,1.97-6.34,1.02-10.07.09v7.43c0,.87-.26,1.5-.78,1.88-.93.67-2.25.25-3.65-.21-1.11-.36-2.48-.81-3.08-.4-.41.29-.54,1.06-.56,1.66-.05,1,.11,1.68.47,2.03.54.53,1.71.46,2.85.4,1.87-.11,4.42-.25,4.83,2.69.4,2.92-.25,5.91-.68,7.44Z"/><path class="cls-4" d="M20.94,17.99c0,.77-.63,1.41-1.41,1.41s-1.41-.63-1.41-1.41.63-1.42,1.41-1.42,1.41.63,1.41,1.42Z"/><path class="cls-4" d="M32.88,18.7c0,.78-.63,1.41-1.41,1.41s-1.41-.63-1.41-1.41.63-1.41,1.41-1.41,1.41.63,1.41,1.41Z"/><path class="cls-2" d="M22.38,20.43s.81,2.28,2.69,2.28,2.83-2.2,2.83-2.2l-5.52-.08Z"/><path class="cls-5" d="M.79,24.53c-.03.06,0,.13.07.16l1.75.73-.12.28c-.05.11-.02.18.05.21l.78.33c.06.03.13,0,.18-.11l.12-.28,1.7.71c.06.03.13,0,.16-.07l.29-.69-4.69-1.95-.29.69Z"/><path class="cls-5" d="M11.3,12.47c.03-.06,0-.13-.07-.16l-1.7-.71.12-.28c.05-.11.02-.18-.05-.21l-.78-.33c-.06-.03-.13,0-.18.11l-.12.28-1.75-.73c-.06-.03-.13,0-.16.07l-.29.69,4.69,1.95.29-.69Z"/><path class="cls-5" d="M12.08,14.07l-7.04-2.93c-.1-.04-.2,0-.24.1l-.7,1.69c-.04.1,0,.2.1.24l2.99,1.24-2.53,6.09-.69,1.67-2.99-1.24c-.1-.04-.2,0-.24.1L.01,22.73c-.04.1,0,.2.1.24l7.04,2.93c.1.04.2,0,.24-.1l.7-1.69c.04-.1,0-.2-.1-.24l-3.04-1.26,3.22-7.75,3.04,1.26c.1.04.2,0,.24-.1l.7-1.69c.04-.1,0-.2-.1-.24Z"/></g></svg>