<?xml version="1.0" encoding="UTF-8"?><svg id="_レイヤー_2" xmlns="http://www.w3.org/2000/svg" viewBox="0 0 82.8 52.5"><defs><style>.cls-1{fill:#000;}.cls-1,.cls-2{stroke-width:0px;}.cls-2{fill:#d91a17;}</style></defs><g id="_レイヤー_1-2"><path class="cls-2" d="M29.58,2.46s.02-.02.02-.04l.79-.79c.17-.17.45-.32.66-.45,1.16-.73,2.29-1.59,3.69-.98h.02c.13.09.22.13.36.17v.02c.32.17.66.34.98.53l.09.34c.02.06.19.09.24.21.11.22-.06.97-.21,1.16-.15.53-.45,1.05-.67,1.56-.09.04-.41.81-.43.94-.08.13-.15.3-.21.43-.04.04-.21.45-.21.51-.24.58-.51,1.2-.71,1.8l.02.04c-.04.06-.06.13-.07.19l-.06.09c.58-.04,1.22.02,1.8.02,0,0-.02.02,0,.02.13-.06.36-.04.49-.04l.04.02c-.08,0-.15.02-.21.04.19-.02.51-.08.67-.04l.02.06c-.06,0-.09,0-.15.02v.06s.06-.02.08-.02v.08c-.24.04-.47.09-.71.11l-.02.06c.13-.02.28-.04.41-.08v.06c-.15.06-.32.11-.47.11.02,0,.06,0,.08-.02-.75.13-1.54.23-2.29.23l.02.04-.06.13-.04.04v.04c-.06.13-.09.26-.15.38h-.06s0,.06.02.07c-.06.15-.3.49-.3.58l.02.04c-.08.11-.11.23-.15.34l-.06.04-.02.08.02.06c-.02.09-.06.22-.11.3v.06c-.11.28-.71,1.67-.75,1.91-.11.02-.15.13-.09.24-.04.06-.11.08-.17.06.02.08.09.19.04.24-.08.08-.13.28-.19.3-.09.13-.17.28-.23.43-.09.02-.15.13-.19.22-.11-.04-.3-.07-.39-.17-.09-.11-.02-.24-.15-.34-.09.56-.81.04-.86-.28-.04-.21.24-.83.13-1.09,0-.02,0-.04.02-.04l.06-.13c0-.13.06-.26.06-.38.02-.04.04-.09.04-.13.04-.06.06-.13.07-.19l.04-.02-.02-.04.02-.06.04-.04s.02-.09.02-.13l.02-.02v-.04l.04-.09.02-.02c0-.09.06-.19.08-.28h.06l-.02-.06.06-.15h.02c.13-.15.21-.54.3-.75v-.06l.04-.02c0-.17.08-.58.17-.77l-.02.04c.04-.17.11-.34.19-.51l-.96-.17h.02s-.09-.04-.13-.04l.04.02-.07-.02-.02-.02c-.36.06-2.44-.69-2.94-.83-1.03,1.73-1.65,3.62-2.53,5.4v-.02l.02-.04s0-.04-.02-.02c-.06.19-.11.38-.19.56v.04l-.02.02-.04.09s-.06.09-.06.11c-.02.02,0,.06,0,.07h-.02l-.02.06h-.02s-.04.08-.06.11v.04l.02.04c-.02.08-.06.11-.08.19l-.06.04v.06h-.02c-.08.11-.15.34-.19.47h-.09l.04-.22c-.15.15-.32-.02-.24-.06-.02,0-.04,0-.04-.02-.02.08-.13.32-.21.13-.06-.11.04-.26.04-.38h-.02c-.15-.06.15-1.46.23-1.67.15-.39.34-1.03.43-1.44.09-.41,1.03-2.36,1.28-2.79v-.04s.17-.26.17-.3c.04-.04.06-.09.08-.13l.06-.02v-.08s.04-.08.07-.09c.02-.08.06-.13.09-.19l.04-.02v-.06l.06-.08c-.84-.15-1.65-.06-2.47.23.06-.02.09-.09.11-.15h.02l.02.08.09-.02.04-.04c.07-.02.07-.04.04-.11l.02-.02h.08l.02.09.06-.02c.06-.09-.02-.11-.06-.17.06,0,.09,0,.15.02l.08-.08h.04l.04.02s.08,0,.11-.02l.07-.06c.13-.02.23-.04.36-.04.02.08.09.06.15.06-.04,0-.04-.04-.06-.06l.06-.06c.13,0,.79.06.92.08l.06.07s.11.02.11,0l-.04-.04v-.09c-.09-.02-.19-.04-.26-.09-.06.04-1.03.08-1.16.04l-.04-.06h-.07c-.06.06-.13.06-.21.08-.06-.04-.11-.06-.17-.02-.11.02-.36.08-.45.13-.06,0-.09.06-.11.09-.19.06-.36.19-.53.32h.06l.07-.04h.06l-.13.09.04.11.09-.02-.02.08c-.06.02-.09.04-.13.08l-.06-.08-.04.04.06.06c-.08.04-.13.09-.19.15-.21.08-.6.84-.66,1.07-.08.08-.11.49-.06.6,0,.08.04.13.09.19l-.02.08-.06.08c-.08-.02-.13-.06-.17-.11-.67-.45.17-2.38.69-2.68,1.2-.71,2.55-.86,3.92-.66.06-.06.17-.15.15-.24.06-.08.13-.15.17-.24l.13-.13v-.06c.52-.88,1.74-2.38,2.42-3.15l-.02.04c.07-.06.13-.13.21-.21l-.06.04.09-.11c.06.02.09-.02.11-.08l.17-.19c-.08.06-.11.11-.17.17ZM22.59,7.9l.07-.04.08.06v-.08c-.13-.08-.15-.09-.21.06-.06-.08-.13-.09-.21-.11-.04.02-.04.08-.02.11l.13.06c-.06,0-.09,0-.15.02l.06.09s-.08.02-.09,0v.08c.02.06.06.09.09.13h.06l-.04-.08c.06.02.11,0,.13-.06.06-.06.13-.09.17-.17l-.07-.07ZM24.78,10.24l-.02-.02v-.08l.04-.04-.04-.09c.06-.09.11-.17.13-.26h.02c0-.06.02-.13.06-.19-.3.17-1.28,2.85-1.28,3.04-.06.06-.11.09-.04.17,0,0,.77-1.95.96-2.36l.04-.04.06.02-.06.13c-.13.06-.11.09-.11.21-.06.06-.06.11-.06.19-.06.02-.08.06-.08.11-.04.06-.21.47-.21.53-.06.06-.04.11-.04.19-.02.06-.06.13-.11.17,0,.04-.02.04-.02.06l.04.11-.04.08h-.02v.13c.11-.06.15-.3.23-.39v.02l.04-.08v-.06h.02v-.06c.17-.47.3-1.05.49-1.48ZM23.77,14s-.06.06-.06.07v.04l.02.02.04-.13ZM23.79,13.92s-.07-.02-.02.02t0,.04l.02-.06ZM23.88,13.49c.04-.09.09-.21.09-.3-.06.11-.07.21-.09.3ZM24.01,7.41s-.04-.06-.06-.06l-.06.07.11-.02ZM24.46,7.32c-.02-.08-.06-.11-.13-.09.02.06.07.09.13.09ZM24.95,10.19l-.04-.02c-.06.21-.19.38-.22.58.06-.09.13-.38.19-.41.02-.06.04-.11.08-.15ZM25.02,10.04h-.06l-.02.06h.02l.02.02s.02-.06.04-.08ZM25.31,8.97c-.08.04-.22.39-.26.49h.02s.06-.13.09-.15l.04-.09v-.02c.04-.08.09-.15.11-.23ZM25.64,8.44l-.06-.04-.11.22.04-.02.04-.06h.02l.08-.11ZM25.72,8.28l.04-.06-.04.06ZM25.77,8.18c.04-.06.08-.11.09-.17-.02.06-.06.11-.09.17ZM25.91,7.96l.28-.47-.04-.02c-.06.17-.15.32-.24.49ZM27.89,7.73c-.06-.06-.13-.11-.19-.19l-.47-.13-.06.11c.24.06.47.13.71.21ZM27.42,5.71h.06l.11-.17c-.09.04-.11.08-.17.17ZM33.01,4.28c0-.06,0-.13.02-.19-.04-.09.45-.88.45-1.09.21-.26.23-.51.28-.58l.04-.04c.02-.13.04-.28.19-.32.21-.41.41-.83.58-1.27l-.07.07c.04-.11.06-.3-.02-.38-.19,0-.28.02-.47.08l-.02.02c-.28.08-.56.23-.81.39v.02c-.28.09-.49.26-.75.41-2.14,1.31-3.6,3.3-4.86,5.46.52.17,3.51,1.05,3.9,1.01.02-.15.09-.52.26-.58.02-.08.06-.13.06-.21.09-.17.13-.34.24-.51-.02-.07.02-.17.06-.24,0-.13.09-.17.15-.26v-.08c.04-.06.04-.11.09-.15l.04-.09s.15-.3.17-.39l.09.02.08-.04h.02l.02-.08s-.08-.08-.11-.08c.06-.06.09-.13.08-.21l.02-.04c.06-.02.28-.58.28-.68ZM27.84,5.12l.02.04.06-.08v-.04s-.04.04-.04.07h-.04ZM28.04,4.88s.07-.06.11-.09h-.04l-.07.06v.04ZM28.16,4.77c.09-.08.36-.47.45-.6h-.02c-.04.06-.28.38-.34.39l-.02.04v.06l-.04.04h-.02l-.02.08ZM28.83,3.81c-.22.23-.45.45-.62.73.23-.22.41-.49.62-.73ZM28.49,3.89l.06.02s.04-.11.04-.13l-.09.11ZM28.61,7.92l-.09-.04v.02l.07.04.02-.02ZM29.3,2.86c-.22.24-.39.51-.58.77l.06-.04c.02-.06.04-.11.11-.11.22-.54,1.72-1.76,2.17-2.12.13-.09.73-.49.81-.58h-.04c-.47.17-2.17,1.69-2.53,2.08ZM29.15,8.07l-.34-.09-.02-.02-.04.04h.02c.08.04.15.06.23.07.02.02.08.02.09.04l.06-.04ZM29.19,3.23l.11-.13-.11.13ZM29.56,8.16c-.11-.06-.23-.04-.32-.07l.06.04c.08.02.17,0,.26.04ZM29.73,2.65c-.04.06-.26.28-.3.28l-.06.06-.02.08c.15-.15.3-.28.47-.41h.02s-.06.04-.06.07v.02c.19-.19,1.05-.94,1.16-1.11.22-.06.75-.64,1.01-.69l.06-.06v-.04h-.04c-.64.3-1.8,1.26-2.25,1.8ZM29.58,2.46v.02-.02ZM29.75,2.29c.08-.02.21-.15.24-.21-.06.02-.19.15-.24.21ZM29.86,8.43l-.11-.02.02.02.09.04s.02-.04,0-.04ZM30.01,8.46s-.08,0-.11-.02c.04.04.06.04.11.02ZM30.31,13.55s-.02-.02-.04-.02l-.04.02c0,.06.02.09.06.13,0-.04,0-.09.02-.13ZM30.37,13.45l-.04-.11-.04.11s.02.02.04.02l.04-.02ZM31.19,8.48l-.08-.06c-.15-.04-.58-.09-.66-.06.15.09.3.02.38.09.11,0,.24.02.36.02ZM30.48,13.41s.04-.06.04-.11l-.04.11ZM31.19,11.9c-.09.04-.34.9-.36.97l-.23.66-.02.02-.08-.02v-.02s-.02.09-.02.13l.04.08-.04.02.08.08c-.06.07-.06.13-.08.21.15-.43.64-1.56.6-1.69l.06-.07c.02-.08.06-.17.02-.24.09-.04.09-.06.02-.11ZM30.59,8.54s-.06-.02-.08-.02c.02.02.04.02.08.02ZM30.52,13.3l.06.04-.04.09c.07-.02.15-.04.09-.13.04-.04.02-.11,0-.15.04,0,.06-.04.06-.07.02-.04.08-.28.11-.36.04-.04.02-.11-.02-.15,0,.08-.02.11-.08.21.02.06.04.09-.02.15-.02.04-.02.08-.02.11-.04.06-.06.13-.06.19h-.06l-.02.04h-.02v.04ZM30.54,13.21s.06-.09.06-.15l-.06.15ZM30.78,12.57l.06-.08h.04s.02-.08.02-.08l-.06-.07-.02.06s-.04.04-.04.06v.11ZM30.97,8.58c-.06,0-.11-.02-.17-.02.06.02.11.02.17.02ZM30.84,12.29h.04s0-.06-.02-.08c0,.02-.02.06-.02.08ZM30.86,12.49l.04-.02s-.04,0-.04.02ZM30.88,12.16h.02l.08-.08-.04-.06-.04.04-.02.09ZM31.03,11.8s.02-.04,0-.08v.08ZM31.12,11.46l.04.02.06-.02-.04-.04-.06.04ZM31.16,8.59s.02.02.04.02c.02.02.04,0,.02-.02h-.06ZM31.34,10.47c.06-.02,0-.04-.02-.04,0,.11-.11.38-.17.47v.04c.06-.07.19-.41.19-.47ZM31.61,10.62l-.02-.04c-.08.02-.11.07-.13.13l-.09-.06c-.04.09-.07.21-.09.3l.02-.02-.04.11s.06-.09.08-.15c0-.04.02-.08.06-.09l.04.06.08.04c.08-.08.09-.19.11-.28ZM31.33,11.63l-.04-.08h-.02l-.02.08.06.04.02-.04ZM31.34,11.44l-.04-.02-.02.02.04.09s.04-.06.02-.09ZM31.4,11.29l-.02-.02h-.04s-.02.08-.02.11c.04-.02.08-.06.08-.09ZM31.46,10.24h-.04l-.07.15.04-.02.07-.13ZM31.34,11.07l.02.04h.04s-.04-.04-.06-.04ZM31.42,10.51s-.04-.02-.04,0c-.02.04-.02.09-.02.13l.04.02s.04-.09.02-.15ZM31.49,10.26l-.04.08h.08v-.06l-.04-.02ZM32.3,8.84c-.06,0-.09-.02-.15-.02l-.15.36v.09c-.15.34-.26.69-.36,1.05-.04.04-.06.11-.07.17l.02.06.06-.04c.15-.41.6-1.35.66-1.67ZM32.21.77l.13-.09s0-.04-.02-.02c-.04.04-.11.08-.17.11h.06ZM32.34.53l.02.02c.15-.06.28-.13.43-.21-.08-.02-.38.15-.45.19ZM32.92,7c-.15.3-.3.6-.43.92h.15c.06-.13.36-.84.28-.92ZM32.66,5.44c-.09.08-.09.09-.09.21.02-.08.06-.13.09-.21ZM32.75,5.28l.07-.19c-.07.06-.07.09-.07.19ZM32.99,5.52c.11,0,.13.02.24-.02-.06-.06-.13-.09-.19-.13-.09.02-.08.08-.06.15ZM33.31,6.25l-.02-.02v.02l-.11.13c-.02.06-.11.13-.02.19-.02.06-.06.08-.09.11l-.06.15c.15.02.26-.47.3-.58ZM33.65,5.61c.11-.08.26-.68.3-.81-.04-.17.45-.79.47-.98.02-.24.13-.45.24-.67l.17-.36c0-.06,0-.11-.02-.17l.11-.07v-.02s-.06-.07-.09-.11c-.15.09-.96,2.55-1.16,2.76l-.11-.06s.02-.11.04-.15c.13-.02.24-.06.15-.21v-.02c.07-.06.06-.17.02-.24.15,0,.13-.08.15-.19,0,0,.19-.47.21-.53.07-.08.02-.17,0-.24l.07-.11.09-.04s-.02.02-.02.04l.04-.02-.02-.02.02-.08c-.06-.15-.24-.15-.02-.24l-.04-.15c-.22.06-.22.36-.32.41-.06-.08-.09-.13-.19-.06v.06s.19.06.15.13l-.06.02-.04-.06-.02.02-.08-.04c-.11.15-.08.3.04.43-.06-.02-.13-.04-.19-.04-.09.09.11.11,0,.17l.09.06v.04l-.06-.02-.04-.08c-.13-.04-.21.41-.24.53.02.06.11.08.07.15h-.13c.02.11-.06.21-.09.32.02.02.17.13.13.17-.06.04-.09-.06-.15-.08l-.08.02c-.04.19.08.24.22.3.06-.06.13-.07.21-.07l.04.13-.04.04.09.11c-.06.09-.15.19-.15.3l-.02.11s-.04.09-.02.13l.06-.06.02-.06h.02l.09-.17h-.04c.04-.06.08-.13.08-.21l.02-.04ZM34.68,8.74c-.19,0-.39.04-.58-.02-.13.04-.28.02-.43.02v.04c.06,0,.92,0,1.01-.04ZM34.01,2.86s.02.04.04.06l.06-.04-.09-.02ZM34.4,4.82c-.09.19-.13.36-.19.53l.17-.43s0-.06.02-.09ZM34.5.89s-.02.04-.02.04c0,0,0-.02.02-.04ZM36.2,8.2v-.02l.02.02h-.02Z"/><path class="cls-2" d="M41.06,6.03c-.08-.08-.3.24-.32.28-.17.28-.32.71-.53.96l-.02-.02c-.04.08-.07.15-.13.21-.06.07-.15.22-.19.04-.04-.11.08-.3,0-.39l-.07-.04c0-.07,0-.22.04-.34l-.09-.06c-.11.04-.34.09-.43.15-.97.71-2.1,3.3-2.03,4.54.02.3.15.54.24.83h.02c.13.06.24.17.39.19.11.08.36.06.49.04,1.2-.21,2.53-2.44,3.26-3.39v.02c.06-.11.15-.23.23-.32.02,0,.04,0,.04-.02l-.08.13c.08-.11.06-.04.21-.15l.04.04s-.04.08-.07.09l.02.02.04-.02v-.02l.04.06c-.11.15-.08.06-.17.21l.02.04c.06-.07-.02.08.04-.02l.04.04c-.08.11.02,0-.06.11-.17.3-.51.96-.62,1.07-.04.09-.23.38-.28.43h-.04l.26-.41c-.11.13-.22.28-.3.41.02.02,0,.04-.02.02-.08.11-.15.24-.24.34v.02c-.06.11-.13.21-.22.28l-.02.04c.06-.02.47-.58.53-.66l.02.02c-.04.07-.26.36-.26.36,0,.02-.02.04-.02.04-.06.09-.09.19-.17.26-.36.43-.82.94-1.33,1.18l.02-.02-.09.06h.02l-.06.04-.02-.02c-.06.09-.36.17-.47.23-.45.04-.96-.06-1.31-.36-.17.04-.36-.15-.47-.26h-.02l-.04.04c-.11-.13-.21-.26-.3-.41l.04.08c-.38-.68-.53-1.41-.53-2.18.02,0,.04-.02.06-.04h.06c-.06.15,0,.88.04,1.07,0-.19-.02-.34.02-.52-.06-.17,0-.38,0-.56-.04-.02-.02-.06,0-.04,0-.06.02-.09.02-.15l-.06-.02c0,.06-.02.11-.02.17l-.08-.04.11-.47s.02-.09.02-.11l-.04.09-.04-.02.09-.24s.02-.11.04-.15l-.02.02.15-.34s.09-.26.11-.3l-.02.02c.24-.51.86-1.59,1.33-1.88.04-.02.08-.04.11-.08l-.04.02.08-.06.02.02c.38-.45,1.5-.24,1.95.02l-.02.06-.04-.02s0,.04.02.04v.04s.07.02.11.02l.02-.02-.02-.02c.04-.09.09-.17.09-.28l.02-.02h-.02c.02-.06.06-.09.09-.13.04-.06,0-.13.04-.17v-.02h.04v-.04l.02-.02.02-.06h.02v-.04s.07-.08.07-.13l.04-.04.04.02.02-.04-.04-.02.02-.04s.06-.04.08-.06v-.09s0-.06.02-.06c.02-.04.04-.09.08-.11v-.02l-.02-.04c.04-.09.11-.19.09-.28.02-.08,0-.17.04-.22.15-.06.98.49,1.13.64s.04.26-.06.41c-.51.81-1.14,1.58-1.76,2.29l-.09-.08c.15-.11.9-1.41,1.05-1.65ZM37.49,7c-.09.09-.28.34-.32.45-.06.06-.09.11-.13.19v.02l-.04.06s-.02.07,0,.06c.06-.11.34-.49.36-.56.06-.06.09-.13.13-.21ZM37.21,7.17s.04-.02.06-.04c0-.02,0-.06.02-.08l-.06.06-.02.06ZM37.53,6.74s.02-.04.02-.06c-.08.11-.17.21-.23.3v.04l.21-.28ZM37.44,12.51l.26.17v-.02c-.07-.06-.19-.11-.26-.15ZM37.46,6.96l.04-.04v-.02s-.04.04-.04.06ZM37.68,6.53c.3-.34.79-.43,1.2-.51.13-.02.62.11.73.09t-.02-.02c-.41-.15-1.35-.13-1.71.22-.06.04-.13.08-.17.13l-.04.08ZM39.67,6.23s-.04-.02-.02-.04c-.49-.11-.75-.17-1.26-.04-.17.04-.34.21-.45.22l-.04.08c-.09.04-.15.11-.22.19.45-.36.86-.54,1.42-.51.08,0,.45.08.47.08l.04.02h.06ZM37.74,12.65h.02l.08.04-.02-.04-.06-.02-.02.02ZM37.91,12.72c.06.02.13.04.19.04.21.08.88-.04,1.03-.21l.11-.04s.04-.04.04-.06h.06c.06-.04.52-.43.54-.49l.04-.02.06-.07c.08-.04.17-.15.21-.21l.04-.02-.04-.02c-.08.08-.34.36-.41.38-.21.32-.69.53-1.03.66-.06-.02-.51.15-.71.04h-.06l-.02-.02h-.04s-.02.02,0,.04ZM39.78,12.14c-.22.28-1.01.71-1.37.68l-.04.02-.13-.02c-.08.02-.17-.02-.24-.02l-.04-.02h-.04s.11.04.13.04c.47.09.79-.06,1.2-.23.04-.04.11-.06.15-.11l.11-.06v-.02s.07-.06.11-.08l.17-.15s0-.06-.02-.04ZM38.13,6.14s-.04.02-.04.02c0,0,.02-.02.04-.02ZM39.01,12.74l-.09.04h.02l.09-.04h-.02ZM39.12,12.68l-.08.04s.06-.02.08-.04ZM39.84,6.72s.02-.06.04-.08c.02-.02,0-.04-.02-.02l-.02.09ZM39.91,12.06v-.02s-.04.04-.06.08l.06-.06ZM39.91,12.12s.04,0,.06-.02c-.02,0-.04,0-.06.02ZM42.01,9.21l.02-.04s-.02.02-.02.04Z"/><path class="cls-2" d="M46.75,6.03c-.07-.08-.3.24-.32.28-.17.28-.32.71-.53.96l-.02-.02c-.04.08-.08.15-.13.21-.06.07-.15.22-.19.04-.04-.11.08-.3,0-.39l-.07-.04c0-.07,0-.22.04-.34l-.09-.06c-.11.04-.34.09-.43.15-.97.71-2.1,3.3-2.03,4.54.02.3.15.54.24.83h.02c.13.06.24.17.39.19.11.08.36.06.49.04,1.2-.21,2.53-2.44,3.26-3.39v.02c.06-.11.15-.23.22-.32.02,0,.04,0,.04-.02l-.07.13c.07-.11.06-.04.21-.15l.04.04s-.04.08-.08.09l.02.02.04-.02v-.02l.04.06c-.11.15-.07.06-.17.21l.02.04c.06-.07-.02.08.04-.02l.04.04c-.08.11.02,0-.06.11-.17.3-.51.96-.62,1.07-.04.09-.22.38-.28.43h-.04l.26-.41c-.11.13-.22.28-.3.41.02.02,0,.04-.02.02-.07.11-.15.24-.24.34v.02c-.06.11-.13.21-.22.28l-.02.04c.06-.02.47-.58.52-.66l.02.02c-.04.07-.26.36-.26.36,0,.02-.02.04-.02.04-.06.09-.09.19-.17.26-.36.43-.83.94-1.33,1.18l.02-.02-.09.06h.02l-.06.04-.02-.02c-.06.09-.36.17-.47.23-.45.04-.96-.06-1.31-.36-.17.04-.36-.15-.47-.26h-.02l-.04.04c-.11-.13-.21-.26-.3-.41l.04.08c-.38-.68-.53-1.41-.53-2.18.02,0,.04-.02.06-.04h.06c-.06.15,0,.88.04,1.07,0-.19-.02-.34.02-.52-.06-.17,0-.38,0-.56-.04-.02-.02-.06,0-.04,0-.06.02-.09.02-.15l-.06-.02c0,.06-.02.11-.02.17l-.08-.04.11-.47s.02-.09.02-.11l-.04.09-.04-.02.09-.24s.02-.11.04-.15l-.02.02.15-.34s.09-.26.11-.3l-.02.02c.24-.51.86-1.59,1.33-1.88.04-.02.08-.04.11-.08l-.04.02.07-.06.02.02c.38-.45,1.5-.24,1.95.02l-.02.06-.04-.02s0,.04.02.04v.04s.08.02.11.02l.02-.02-.02-.02c.04-.09.09-.17.09-.28l.02-.02h-.02c.02-.06.06-.09.09-.13.04-.06,0-.13.04-.17v-.02h.04v-.04l.02-.02.02-.06h.02v-.04s.08-.08.08-.13l.04-.04.04.02.02-.04-.04-.02.02-.04s.06-.04.07-.06v-.09s0-.06.02-.06c.02-.04.04-.09.07-.11v-.02l-.02-.04c.04-.09.11-.19.09-.28.02-.08,0-.17.04-.22.15-.06.97.49,1.12.64.15.15.04.26-.06.41-.51.81-1.14,1.58-1.76,2.29l-.09-.08c.15-.11.9-1.41,1.05-1.65ZM43.19,7c-.09.09-.28.34-.32.45-.06.06-.09.11-.13.19v.02l-.04.06s-.02.07,0,.06c.06-.11.34-.49.36-.56.06-.06.09-.13.13-.21ZM42.91,7.17s.04-.02.06-.04c0-.02,0-.06.02-.08l-.06.06-.02.06ZM43.23,6.74s.02-.04.02-.06c-.08.11-.17.21-.23.3v.04l.21-.28ZM43.13,12.51l.26.17v-.02c-.08-.06-.19-.11-.26-.15ZM43.15,6.96l.04-.04v-.02s-.04.04-.04.06ZM43.38,6.53c.3-.34.79-.43,1.2-.51.13-.02.62.11.73.09t-.02-.02c-.41-.15-1.35-.13-1.71.22-.06.04-.13.08-.17.13l-.04.08ZM45.36,6.23s-.04-.02-.02-.04c-.49-.11-.75-.17-1.26-.04-.17.04-.34.21-.45.22l-.04.08c-.09.04-.15.11-.22.19.45-.36.86-.54,1.43-.51.07,0,.45.08.47.08l.04.02h.06ZM43.43,12.65h.02l.08.04-.02-.04-.06-.02-.02.02ZM43.6,12.72c.06.02.13.04.19.04.21.08.88-.04,1.03-.21l.11-.04s.04-.04.04-.06h.06c.06-.04.53-.43.54-.49l.04-.02.06-.07c.08-.04.17-.15.21-.21l.04-.02-.04-.02c-.08.08-.34.36-.41.38-.21.32-.69.53-1.03.66-.06-.02-.51.15-.71.04h-.06l-.02-.02h-.04s-.02.02,0,.04ZM45.48,12.14c-.22.28-1.01.71-1.37.68l-.04.02-.13-.02c-.08.02-.17-.02-.24-.02l-.04-.02h-.04s.11.04.13.04c.47.09.79-.06,1.2-.23.04-.04.11-.06.15-.11l.11-.06v-.02s.07-.06.11-.08l.17-.15s0-.06-.02-.04ZM43.83,6.14s-.04.02-.04.02c0,0,.02-.02.04-.02ZM44.71,12.74l-.09.04h.02l.09-.04h-.02ZM44.82,12.68l-.07.04s.06-.02.07-.04ZM45.53,6.72s.02-.06.04-.08c.02-.02,0-.04-.02-.02l-.02.09ZM45.61,12.06v-.02s-.04.04-.06.08l.06-.06ZM45.61,12.12s.04,0,.06-.02c-.02,0-.04,0-.06.02ZM47.71,9.21l.02-.04s-.02.02-.02.04Z"/><path class="cls-2" d="M53.48,9.04c-.06.09.02.08,0,.11-.15.28-.51.99-.64,1.12-.04.09-.23.38-.28.43h-.04l.26-.41c-.11.13-.22.28-.3.41.02.02,0,.04-.02.02-.08.11-.15.24-.24.34v.02c-.06.11-.13.21-.22.28l-.02.04c.06-.02.47-.58.53-.66l.02.02c-.04.07-.08.15-.13.21-.04.04-.11.09-.13.15,0,.02-.02.04-.02.04-.06.09-.09.19-.17.26-.36.43-.82.94-1.33,1.18l.02-.02-.09.06h.02l-.06.04-.02-.02c-.06.09-.36.17-.47.23-.45.04-.96-.06-1.31-.36-.17.04-.36-.15-.47-.26h-.02l-.04.04c-.11-.13-.21-.26-.3-.41l.04.08c-.38-.68-.53-1.41-.53-2.18.02,0,.04-.02.06-.04h.06c-.06.15,0,.88.04,1.07,0-.19-.02-.34.02-.52-.06-.17,0-.38,0-.56-.04-.02-.02-.06,0-.04,0-.06.02-.09.02-.15l-.06-.02c0,.06-.02.11-.02.17l-.08-.04.11-.47s.02-.09.02-.11l-.04.09-.04-.02.09-.24s.02-.11.04-.15l-.02.02.15-.34s.09-.26.11-.3l-.02.02c.08-.13.15-.26.21-.41.32-.3.54-1.11,1.12-1.46.04-.02.08-.04.11-.08l-.04.02.08-.06.02.02c.39-.45,1.5-.24,1.95.02h-.02c.26.11.43.36.54.6.02.04.04.17.06.17.04.11-.06.38-.06.51,0,.11-.22.54-.26.66-.28.68-.88,1.12-1.52,1.44h-.02c-.26.09-.36.19-.66.19.02,0,0-.02-.02,0-.08.02-.15.04-.23.04,0-.02-.02-.02-.04-.02l.11-.04c-.09.02-.24.06-.34.06-.32.96-.32,1.43,0,2.36h.02c.13.06.24.17.39.19.11.08.36.06.49.04,1.22-.21,2.36-2.23,3.09-3.21v.02c.06-.11.15-.23.22-.32.02,0,.04,0,.04-.02l-.09.15c.11-.15.21-.3.36-.41l.04.04s-.04.07-.07.09l.02.02.04-.02v-.02l.04.06c-.11.13-.06.13-.11.23l.04.04ZM48.45,7.77c.06-.11.34-.49.36-.56.06-.06.09-.13.13-.21-.09.09-.28.34-.32.45-.06.06-.09.11-.13.19v.02l-.04.06s-.02.07,0,.06ZM48.66,7.17s.04-.02.06-.04c0-.02,0-.06.02-.08l-.06.06-.02.06ZM48.77,7.02l.21-.28s.02-.06.04-.08l-.24.32v.04ZM49.14,12.66c-.07-.06-.19-.11-.26-.15l.26.17v-.02ZM48.94,6.91s-.04.04-.04.06l.04-.04v-.02ZM49.28,9.51l-.19.06v-.02l-.04.08c.08-.04.15-.06.23-.08v-.04ZM49.09,6.55c.3-.36.81-.43,1.24-.53.13-.02.62.11.73.09t-.02-.02c-.47-.17-1.54-.11-1.88.36l-.08.09ZM51.19,6.66c-.11.04-.36.09-.43.15-.53.39-1.56,2.06-1.65,2.7l.02-.02.17-.08-.06.02c.21-.09.41-.13.58-.3.11-.04.24-.15.36-.21.02,0,.04,0,.06.02-.11.09-.24.17-.38.24h-.02l-.04.02c.06,0,.11-.04.17-.06l.02-.02h.04c.06-.08.17-.09.24-.17-.02-.02,0-.04.02-.02l.09-.08s0-.04.02-.02l.08-.06h.02c.04-.06.08-.11.15-.13v-.02h-.04s-.13.15-.15.13l-.21.15-.02-.04c.06-.06.13-.11.21-.15.02.02.04,0,.02-.02.23-.3.58-.52.73-.88v.02l.04-.06s-.02-.04,0-.02v-.04c.11-.24.22-.47.28-.73,0-.04.02-.09.04-.13-.04-.19-.06-.19-.24-.23l-.02.06-.09-.06ZM51.11,6.23s-.04-.02-.02-.04c-.49-.11-.75-.17-1.26-.04-.17.04-.34.21-.45.22l-.04.08c-.09.04-.15.11-.22.19.45-.36.86-.54,1.42-.51.08,0,.45.08.47.08l.04.02h.06ZM49.26,12.65l-.06-.02-.02.02h.02l.08.04-.02-.04ZM51.66,11.65l-.04-.02c-.08.08-.34.36-.41.38-.21.32-.69.53-1.03.66-.06-.02-.51.15-.71.04h-.06l-.02-.02h-.04s-.02.02,0,.04c.06.02.13.04.19.04.21.08.88-.04,1.03-.21l.11-.04s.04-.04.04-.06h.06c.06-.04.52-.43.54-.49l.04-.02.06-.07c.08-.04.17-.15.21-.21l.04-.02ZM51.23,12.14c-.22.28-1.01.71-1.37.68l-.04.02-.13-.02c-.08.02-.17-.02-.24-.02l-.04-.02h-.04s.11.04.13.04c.47.09.79-.06,1.2-.23.04-.04.11-.06.15-.11l.11-.06v-.02s.07-.06.11-.08l.17-.15s0-.06-.02-.04ZM49.58,6.14s-.04.02-.04.02c0,0,.02-.02.04-.02ZM50.46,12.74l-.09.04h.02l.09-.04h-.02ZM50.57,12.68l-.08.04s.06-.02.08-.04ZM51.58,7.21v.04l-.02.02c.02.22-.26.49-.26.69l-.04.02c-.04.15-.13.23-.19.36v.02l-.04.02c-.02.06-.15.19-.15.19l.02.02c.22-.23.34-.39.47-.67h.02c.04-.08.08-.15.09-.23l.02-.02c.04-.11.08-.24.09-.36l.02-.02s0-.09-.04-.08ZM50.98,8.22s-.04,0-.04.02c.02,0,.04,0,.04-.02ZM51.02,8.28s.02,0,.02-.04l-.02.02v.02ZM51.15,8.01c-.04.06-.13.26-.08.21.06-.08.15-.24.19-.34,0-.06.11-.21.13-.24v-.04l.09-.24.04-.11s0-.06-.02-.04l-.15.45-.04.04c-.02.09-.11.23-.17.32ZM51.25,7.77l.02-.06s-.02.04-.02.06ZM51.26,7.71s.04-.04.04-.06h-.02l-.02.04v.02ZM51.36,12.06v-.02s-.04.04-.06.08l.06-.06ZM51.36,12.12s.04,0,.06-.02c-.02,0-.04,0-.06.02ZM51.56,7.09s.04-.09.02-.15c0,.06-.02.13-.02.15ZM51.6,7.17h.04s0-.02-.02-.04l-.02.04ZM53.42,9.04l.02.04c.04-.06-.02,0-.02-.04ZM53.46,9.21l.02-.04s-.02.02-.02.04ZM53.48,9.16v.02l.04-.06-.04.04Z"/><path class="cls-2" d="M55.19,5.52c.24.13.58.41.73.58.26.28.32.39.34.54-.6.56-1.37,1.44-1.26,2.21l.02.04c-.06.28.41,1.29.56,1.58.36-.26,1.13-.77,1.42-1.07l.02-.04-.02.02c.08-.11.17-.15.23-.24.06-.08-.11.04-.13.06-.11.11-.21.24-.34.34-.02-.08.39-.51.77-.92.3.04.43.23.47.41-.3.38-.64.75-.71.86-.28.23-1.14.94-1.48,1.12.28.66.54,1.76.32,2.48-.04-.04-.02.13-.04.17l-.02.02v-.08c-.02.08-.04.15-.07.23h-.06v-.06l-.04-.02v.04l-.06-.02c0-.08.02-.17.02-.24l-.04-.02s-.02.09-.02.13h-.02c-.02.13-.09.24-.15.36l.15-.09.04.04-.15.13.02.04.06-.06h.02l.02.06c-.21.21-.49.34-.73.49h-.04l-.06.04v.02c.15-.08.36-.17.49-.26v.02l.02.04c-.17.11-.34.21-.53.28l.06-.02c-1.03.49-2.83.34-3.15-.97.02-.04.02-.08.02-.11l.02-.04c.09.69.71,1.14,1.37,1.31-.3-.09-.6-.22-.83-.45-.11-.04-.39-.38-.39-.49-.32-.64.02-1.31.51-1.74l.04-.04c-.13.04-.39.38-.45.51-.13.08-.24.62-.24.79,0,.04-.04.02-.04,0,0-.38.13-.51.24-.83.02-.02.06-.04.04-.06.11-.19.24-.3.36-.47l-.02.02c.41-.45,1.56-.97,2.14-1.2-.19-.24-.51-.58-.58-.9l.02-.04v-.04l.06-.04c.08.26.32.62.49.88l-.6-1.26c0-.06-.04-.11-.04-.17-.07-.17-.13-.24-.13-.45l-.02-.02-.04.06c.09.28.15.64.3.9l-.09.02c-.04-.08-.17-.49-.19-.51.06,0,0-.04-.02-.06-.07-.11-.13-.26-.17-.39v.04c-.17-.67.02-1.42.32-2.04v.02l.06-.09h-.04l.04-.04h.04s0-.06-.02-.08c.09-.13.09-.3.19-.41.13-.17.34-.3.49-.43v-.02c.04-.08.11-.09.15-.15l-.02-.02.39-.19ZM54.82,11.48h-.06l.02.02c-.68.3-3.23,1.56-2.38,2.61,1.09,1.41,3.47.19,2.42-2.63ZM53.39,11.76l-.19.08.02.02s.07-.06.17-.09ZM53.46,11.71c.17-.09.36-.19.41-.19.21-.15.58-.28.81-.39l-.02-.06c-.06.02-.19.11-.24.11-.22.09-.66.36-.96.53ZM53.88,7.69l.02-.02c0-.09.17-.66.21-.67,0-.04.41-.71.45-.75.06-.06.23-.21.24-.28.04-.08-.09,0-.11.02-.04.02-.13.17-.15.21-.15.26-.41.49-.51.77h-.02s-.09.26-.09.28c0,.06,0,.11-.02.17-.06.06-.04.17-.06.23,0,0,.02.06.04.06ZM54.67,6.61c0-.06.06-.08.04-.13.02-.04.19-.28.24-.3l.06-.08-.02-.04-.06-.02c-.17.04-.66.79-.66.94-.02,0-.04.04-.02.06l-.06.02-.02.02.04.07s-.06,0-.08.02c0,.06-.02.13-.04.19.02.07-.02.13-.04.19,0,.09-.02.19-.06.28,0,.04,0,.08.02.11l-.06.04s0,.11.02.15c-.02.09-.02.22-.02.32h.06c0-.19,0-.34.09-.51v-.06c.22-.41.13-.79.54-1.27ZM54.27,11.16l-.15.08-.02.02h.02c.17-.09.38-.19.56-.24l-.04-.04c-.11.08-.24.13-.38.19ZM55.15,7.69l-.06-.04c-.04.11-.08.21-.09.32.04-.09.07-.21.15-.28ZM55.45,12.85v-.17s-.02.11,0,.17ZM55.43,7.34c.13-.13.58-.45.58-.62h-.08c-.15.22-.38.38-.51.62ZM55.62,10.54c.09-.04.24-.13.39-.24-.17.11-.32.21-.41.22l.02.02ZM57.22,9.36h-.04v.02s-.13.06-.11.11c.04.09-1.31,1.14-1.39,1.09h-.04l.04.07c.06-.02.24-.11.26-.15.06-.02.71-.43.73-.51.13-.13.39-.38.51-.54v-.04s.04-.04.04-.06ZM57.08,9.38s0-.02.02-.02l-.02.02ZM57.57,8.8l-.24.32.02.02c.09-.11.17-.21.22-.34Z"/><path class="cls-2" d="M59.55,5.52c.24.13.58.41.73.58.26.28.32.39.34.54-.6.56-1.37,1.44-1.26,2.21l.02.04c-.06.28.41,1.29.56,1.58.36-.26,1.12-.77,1.43-1.07l.02-.04-.02.02c.07-.11.17-.15.22-.24.06-.08-.11.04-.13.06-.11.11-.21.24-.34.34-.02-.08.39-.51.77-.92.3.04.43.23.47.41-.3.38-.64.75-.71.86-.28.23-1.14.94-1.48,1.12.28.66.54,1.76.32,2.48-.04-.04-.02.13-.04.17l-.02.02v-.08c-.02.08-.04.15-.08.23h-.06v-.06l-.04-.02v.04l-.06-.02c0-.08.02-.17.02-.24l-.04-.02s-.02.09-.02.13h-.02c-.02.13-.09.24-.15.36l.15-.09.04.04-.15.13.02.04.06-.06h.02l.02.06c-.21.21-.49.34-.73.49h-.04l-.06.04v.02c.15-.08.36-.17.49-.26v.02l.02.04c-.17.11-.34.21-.52.28l.06-.02c-1.03.49-2.83.34-3.15-.97.02-.04.02-.08.02-.11l.02-.04c.09.69.71,1.14,1.37,1.31-.3-.09-.6-.22-.83-.45-.11-.04-.39-.38-.39-.49-.32-.64.02-1.31.51-1.74l.04-.04c-.13.04-.39.38-.45.51-.13.08-.24.62-.24.79,0,.04-.04.02-.04,0,0-.38.13-.51.24-.83.02-.02.06-.04.04-.06.11-.19.24-.3.36-.47l-.02.02c.41-.45,1.56-.97,2.14-1.2-.19-.24-.51-.58-.58-.9l.02-.04v-.04l.06-.04c.08.26.32.62.49.88l-.6-1.26c0-.06-.04-.11-.04-.17-.08-.17-.13-.24-.13-.45l-.02-.02-.04.06c.09.28.15.64.3.9l-.09.02c-.04-.08-.17-.49-.19-.51.06,0,0-.04-.02-.06-.08-.11-.13-.26-.17-.39v.04c-.17-.67.02-1.42.32-2.04v.02l.06-.09h-.04l.04-.04h.04s0-.06-.02-.08c.09-.13.09-.3.19-.41.13-.17.34-.3.49-.43v-.02c.04-.08.11-.09.15-.15l-.02-.02.39-.19ZM59.17,11.48h-.06l.02.02c-.67.3-3.22,1.56-2.38,2.61,1.09,1.41,3.47.19,2.42-2.63ZM57.75,11.76l-.19.08.02.02s.08-.06.17-.09ZM57.82,11.71c.17-.09.36-.19.41-.19.21-.15.58-.28.81-.39l-.02-.06c-.06.02-.19.11-.24.11-.23.09-.66.36-.96.53ZM58.24,7.69l.02-.02c0-.09.17-.66.21-.67,0-.04.41-.71.45-.75.06-.06.22-.21.24-.28.04-.08-.09,0-.11.02-.04.02-.13.17-.15.21-.15.26-.41.49-.51.77h-.02s-.09.26-.09.28c0,.06,0,.11-.02.17-.06.06-.04.17-.06.23,0,0,.02.06.04.06ZM59.02,6.61c0-.06.06-.08.04-.13.02-.04.19-.28.24-.3l.06-.08-.02-.04-.06-.02c-.17.04-.66.79-.66.94-.02,0-.04.04-.02.06l-.06.02-.02.02.04.07s-.06,0-.07.02c0,.06-.02.13-.04.19.02.07-.02.13-.04.19,0,.09-.02.19-.06.28,0,.04,0,.08.02.11l-.06.04s0,.11.02.15c-.02.09-.02.22-.02.32h.06c0-.19,0-.34.09-.51v-.06c.23-.41.13-.79.54-1.27ZM58.63,11.16l-.15.08-.02.02h.02c.17-.09.38-.19.56-.24l-.04-.04c-.11.08-.24.13-.38.19ZM59.51,7.69l-.06-.04c-.04.11-.08.21-.09.32.04-.09.08-.21.15-.28ZM59.81,12.85v-.17s-.02.11,0,.17ZM59.79,7.34c.13-.13.58-.45.58-.62h-.08c-.15.22-.38.38-.51.62ZM59.98,10.54c.09-.04.24-.13.39-.24-.17.11-.32.21-.41.22l.02.02ZM61.57,9.36h-.04v.02s-.13.06-.11.11c.04.09-1.31,1.14-1.39,1.09h-.04l.04.07c.06-.02.24-.11.26-.15.06-.02.71-.43.73-.51.13-.13.39-.38.51-.54v-.04s.04-.04.04-.06ZM61.44,9.38s0-.02.02-.02l-.02.02ZM61.93,8.8l-.24.32.02.02c.09-.11.17-.21.22-.34Z"/><path class="cls-1" d="M11.96,36.76c.16,0,.41.02.38.28-.03.24-.35.35-.47.4-.46,2.58-1.24,5.22-2.19,7.03-1.26,2.42-3.86,5.38-6.78,6.96-.99-1.06-1.65-1.62-2.89-2.49,3.5-1.88,7.36-4.44,8.05-12.41l3.9.24ZM18.18,32.29c.16,0,.74,0,1.33-.21l2.23,2.4c-.28.33-.36.45-1.01,1.22-3.68,4.46-5.93,6.51-7.31,7.75-.68-1.08-1.28-1.76-2.3-2.58,2.18-1.81,3.35-2.94,5.03-5.03H.67l.5-3.55h17.01Z"/><path class="cls-1" d="M36.85,34.29c.76,0,1.2-.17,1.69-.35l1.69,1.67c-.52.71-2.38,3.92-3.08,5.12-4.7,8.13-10.21,10.74-12.39,11.77-.32-.52-.86-1.29-2.61-2.68,3.73-1.5,6.89-4.09,8.3-5.57,2.2-2.3,3.66-5.15,4.37-6.58h-5.79c-1.79,2.23-3.83,4.23-6.05,6.02-1.06-1.34-1.46-1.83-2.47-2.54,6.3-4.84,8.34-8.98,9.05-10.39l3.1,1.65c.09.05.28.16.25.35-.03.24-.37.31-.6.33-.47.73-.57.92-.77,1.2h5.3Z"/><path class="cls-1" d="M48.38,31.31l3.75.19c.23,0,.46.02.43.26-.03.24-.33.35-.52.4l-.72,5.17,7.27-.85c.54-.07,1.17-.21,1.73-.45l2.09,2.23c-.35.35-.98,1.03-1.22,1.29-.85.94-4.45,5.33-5.22,6.18-1.08-.89-2.47-1.69-2.88-1.93.64-.59,2.1-1.95,3.27-3.53l-5.56.68-.71,5.08c-.2,1.43.19,1.79,2.04,1.79s5.83-.14,7.56-.42c-.32.82-.81,2.63-.97,3.81-1.77.05-6.35.07-7.97.07-4.51,0-4.91-1.81-4.49-4.79l.71-5.05-5.11.61.18-3.62,5.44-.66.9-6.46Z"/><path class="cls-1" d="M66.12,35.84l.49-3.53h11.83c.37,0,1.21-.05,1.62-.19l1.53,2c-.22.24-.63.73-1.09,1.5-1.13,1.97-2.34,3.95-3.75,5.76.87.75,4.6,4.32,6.04,6.44-.89.89-2.34,2.3-3.22,3.2-.69-1.2-2.25-3.95-5.29-6.7-2.6,2.7-6.66,5.73-9.87,7.03-.67-1.48-1.07-2.14-2.19-3.22,3.14-1.08,5.62-2.47,8.18-4.7,3-2.58,4.27-4.89,5.69-7.59h-9.98Z"/></g></svg>