<?xml version="1.0" encoding="UTF-8"?><svg id="_レイヤー_2" xmlns="http://www.w3.org/2000/svg" viewBox="0 0 351.84 369.43"><defs><style>.cls-1{fill:#000;}.cls-1,.cls-2,.cls-3,.cls-4{stroke-width:0px;}.cls-5{fill:none;stroke:#c9c9c9;stroke-miterlimit:10;stroke-width:.5px;}.cls-2{fill:#ff4;}.cls-3{fill:#d91a17;}.cls-4{fill:#fff;}</style></defs><g id="_レイヤー_1-2"><circle class="cls-2" cx="43.39" cy="238.37" r="33.75"/><path class="cls-3" d="M26.82,229.71c.48-.07.85.12.93.66.08.51-.16.84-.69.92l-6.13.93c-.11.47-.52,1.85-1.27,3.23l.82,5.43c.03.18.11.76-.66.88-.66.1-.89-.15-.96-.63l-.55-3.62c-.56.66-.69.75-.95.79-.49.07-.94-.29-1.02-.83-.06-.37-.01-.42.99-1.56,1.01-1.14,1.55-2.58,1.8-3.42l-2.57.39c-.54.08-.85-.17-.93-.66-.08-.51.16-.84.69-.92l3.19-.48c.14-1.22.23-1.54.89-1.65.32-.05.95-.04,1.03.49.01.09.03.18-.12.89l5.5-.83ZM25.63,238.79l2.49-.38c.42-.06.84.07.93.66.08.5-.16.84-.69.92l-6.68,1.01c-.5.08-.85-.13-.93-.66-.08-.53.16-.84.69-.92l2.54-.39-.48-3.17-2.15.33c-.48.07-.84-.11-.93-.65-.08-.51.18-.83.69-.91l2.15-.33-.2-1.32c-.06-.37.02-.79.64-.89.58-.09.92.07,1,.64l.2,1.32,2.13-.32c.49-.07.83.12.91.65.08.53-.18.83-.68.9l-2.13.32.48,3.17Z"/><path class="cls-3" d="M39.33,230.12l.54-.08c.39-.06.65.1.7.49.06.38-.14.63-.53.68l-.54.08.11.75.81-.12c.14-.02.67-.1.76.48.09.57-.39.66-.58.69l-5.58.85c-.14.02-.67.1-.75-.46-.04-.28-.03-.61.58-.71l.78-.12-.11-.75-.5.08c-.4.06-.66-.12-.72-.48-.06-.4.15-.63.54-.69l.5-.08-.05-.36c-.04-.26.03-.53.59-.61.36-.05.73-.02.8.4l.06.39,1.17-.18-.06-.39c-.02-.14,0-.21.04-.28-.23.05-.51.08-.71-.08-.13-.1-.17-.17-.52-.83l-.63.09c-.27.53-.68,1.21-1.12,1.27-.41.06-.88-.22-.93-.61-.03-.2.04-.32.12-.45-.09.07-.14.1-.39.14l-.91.14c.07.12.21.36.23.49.06.36-.34.55-.73.61-.17.03-.25.02-.34.01.18.12.24.31.27.51l.03.22,1.11-.17c.17-.03.66-.1.75.5.08.55-.28.67-.56.72l-1.11.17.07.49.92-.14c.17-.03.63-.08.72.47.07.48-.23.63-.54.67l-.92.14.07.49,1.12-.17c.15-.02.67-.1.76.52.08.54-.29.67-.57.72l-.91.14c.5.54,1.13.98,1.28,1.08.37.25.48.33.52.58.06.36-.25.75-.6.8-.39.06-.83-.45-1.17-.86l.23,1.52c.04.27.06.77-.58.86-.53.08-.74-.2-.81-.65l-.27-1.76c-.11.45-.48,1.15-.58,1.31-.3.53-.46.62-.63.65-.37.06-.79-.24-.84-.62-.04-.28.07-.43.42-.89.38-.52.96-1.53,1.03-1.71l-1.08.16c-.18.03-.68.09-.77-.51-.08-.5.23-.66.59-.72l1.48-.22-.07-.49-1.14.17c-.18.03-.62.08-.7-.47-.07-.46.19-.62.53-.67l1.14-.17-.07-.49-1.25.19c-.23.04-.66.06-.75-.5-.07-.49.19-.66.56-.72l1.25-.19-.03-.22c-.09-.6.28-.74.57-.78.18-.03.29-.02.34-.01-.1-.06-.12-.1-.26-.34-.04-.07-.21-.4-.24-.46l-.42.06c-.56,1.02-.92,1.48-1.33,1.54-.32.05-.84-.19-.92-.68-.04-.23,0-.29.37-.77.46-.61.61-.93.89-1.58.17-.38.33-.5.59-.54.45-.07,1,.1,1,.61l2.09-.32c.23-.03.68-.09.78.53.03.18,0,.26-.01.36.35-.54.5-.89.62-1.18.25-.59.3-.72.67-.77.35-.05,1.03.05,1.03.61l3.07-.47c.19-.03.69-.11.79.52.1.66-.39.73-.59.76l-1.58.24c.2.28.27.39.29.53.02.12-.02.2-.06.29.39-.06.7-.04.77.4l.06.36ZM41.26,236.82c.18,1.16-.04,1.46-1.22,1.64l-2.96.45c-1.17.18-1.48-.03-1.66-1.21l-.29-1.89c-.17-1.16.04-1.45,1.22-1.63l2.96-.45c1.17-.18,1.48.03,1.65,1.19l.29,1.89ZM39.52,235.57l-.06-.39c-.03-.19-.12-.3-.35-.26l-2.2.33c-.22.03-.31.15-.28.36l.06.39,2.83-.43ZM39.67,236.57l-2.83.43.06.38c.03.21.15.29.37.26l2.2-.33c.22-.03.29-.15.26-.35l-.06-.38ZM36.92,231.68l.11.75,1.17-.18-.11-.75-1.17.18Z"/><path class="cls-3" d="M48.24,226.89c-.19-1.25.04-1.57,1.3-1.76l1.7-.26c1.26-.19,1.57.05,1.76,1.3l1.32,8.7c.19,1.26,0,1.59-1.49,1.82-.03,0-.64.08-.84.09-.63,0-.72-.59-.74-.69-.06-.39.08-.77.58-.85.1-.02.59-.08.68-.09.32-.07.29-.35.27-.48l-.31-2.02-1.93.29c.11,1.94-.22,3.04-.37,3.47-.22.61-.36.74-.68.79-.27.04-.83-.04-.99-.56-.11.11-.25.18-.4.21-.3.05-.45-.1-1.05-.66-.12-.1-.62-.51-.7-.62-.07-.09-.11-.19-.12-.26-.06-.38.33-.69.57-.73.5-.08,1.64.92,1.83,1.25.3-.9.33-.97.39-2.02-.1.3-.32.35-.56.39l-5.46.83c-.15.02-.69.1-.8-.59-.06-.37.07-.72.52-.79l.44-.07-.74-4.91-.33.05c-.48.07-.64-.35-.68-.6-.05-.33.05-.72.47-.78l.33-.05-.09-.57c-.05-.35.02-.79.63-.88.48-.07.8.14.88.66l.09.57,1.81-.27-.09-.57c-.06-.39.05-.8.64-.89.51-.08.81.17.89.65l.09.57.36-.05c.55-.08.64.51.66.6.03.18.07.71-.44.79l-.36.05.74,4.91.37-.06c.54-.08.64.39.67.53,0-.8-.08-1.45-.1-1.63l-.73-4.8ZM45.46,235.46c.05.3-.39,1.06-.59,1.38-.55.89-.89,1.15-1.21,1.2-.4.06-.74-.26-.79-.59-.04-.25.04-.44.36-.83.38-.45.4-.49.86-1.26.19-.33.29-.44.56-.48.15-.02.74.09.81.59ZM45.75,228.17l-1.81.27.13.84,1.81-.27-.13-.84ZM46.05,230.16l-1.81.27.13.85,1.81-.27-.13-.85ZM46.35,232.15l-1.81.27.14.92,1.81-.27-.14-.92ZM49.97,228.37l1.81-.27-.2-1.31c-.04-.3-.22-.35-.44-.32l-1.05.16c-.27.04-.35.19-.32.43l.2,1.31ZM52,229.5l-1.81.27.26,1.75,1.81-.27-.26-1.75Z"/><path class="cls-3" d="M57.56,235.29c.03.19.11.72-.6.83-.62.09-.84-.14-.91-.6l-1.46-9.66c-.16-1.05.25-1.46,1.19-1.6l2.38-.36c.92-.14,1.44.12,1.6,1.18l.32,2.15c.16,1.07-.25,1.46-1.18,1.6l-2.27.35.93,6.13ZM58.41,225.78l-.05-.35c-.03-.17-.12-.3-.36-.26l-1.62.25c-.26.04-.28.21-.26.36l.05.35,2.24-.34ZM56.35,227.26l.11.69,1.93-.29c.22-.03.29-.16.26-.35l-.06-.39-2.24.34ZM59.92,234.26c-.9.14-1.43-.09-1.6-1.18l-.33-2.2c-.16-1.07.24-1.47,1.18-1.61l3.26-.49c.94-.14,1.44.12,1.6,1.19l.33,2.2c.06.41.06.77-.14,1.09.28-.03.63-.08.91-.13.37-.06.5-.1.44-.49l-.72-4.73-2.31.35c-.94.14-1.45-.11-1.61-1.17l-.33-2.15c-.16-1.05.25-1.46,1.19-1.6l2.39-.36c.98-.15,1.44.16,1.6,1.18l1.32,8.7c.2,1.31-.1,1.61-1.65,1.84-1.05.16-1.33.16-1.49.11-.25-.08-.47-.32-.53-.71-.03-.19,0-.29,0-.38-.09.03-.14.03-.26.05l-3.26.49ZM59.5,231.17l3.15-.48-.07-.48c-.03-.19-.15-.28-.35-.25l-2.53.38c-.17.03-.3.11-.26.34l.07.48ZM59.66,232.22l.08.54c.03.2.15.29.35.26l2.53-.38c.22-.03.29-.16.26-.35l-.08-.54-3.15.48ZM62.17,225.21l2.22-.34-.05-.35c-.03-.19-.15-.29-.36-.26l-1.61.24c-.22.03-.29.16-.26.36l.05.35ZM64.57,226.01l-2.22.34.06.39c.03.18.12.3.34.26l1.93-.29-.11-.69Z"/><path class="cls-3" d="M24.11,251.74c-.24,1.14-.64,2.07-1.59,2.21-1.18.18-2.53-1.22-2.81-3.13-.43-2.82,1.39-5,4.16-5.42,2.99-.45,4.71,1.47,5.02,3.52.48,3.17-2.2,4.86-2.74,4.94-.46.07-.76-.29-.81-.64-.04-.27.05-.44.27-.58.7-.45,2.17-1.42,1.85-3.52-.13-.83-.66-2.56-2.98-2.52.05,1.49.04,3.27-.36,5.13ZM21.03,250.66c.16,1.04.75,1.91,1.22,1.84.33-.05.45-.66.55-1.15.3-1.46.36-2.98.33-4.48-1.78.76-2.32,2.37-2.1,3.79Z"/><path class="cls-3" d="M33.75,245.1c-.13.02-.39.06-.56-.2-.07.39-.71,1.72-1.45,3.06.34-.06.58-.12.91-.2-.07-.15-.21-.49-.23-.58-.04-.27.24-.39.38-.42.28-.04.38.15.5.38.14.28.66,1.35.7,1.6.03.23-.16.44-.46.48-.33.05-.41-.21-.51-.48-.13.03-.21.05-.54.15l.61,4.02c.02.14.09.56-.42.64-.5.08-.56-.35-.58-.49l-.59-3.91c-.46.11-.91.22-1.06.25-.39.06-.59-.16-.64-.52-.08-.52.26-.58.67-.66.1-.2.29-.58.43-.87-.37-.33-.77-.64-.94-.76-.37-.26-.51-.36-.55-.6-.05-.32.13-.67.44-.72.11-.02.17,0,.27.05.17-.44.29-.82.32-.91.23-.76.26-.83.54-.87.28-.04.72.1.77.4.04.27-.51,1.65-.67,2.01.06.04.21.16.33.27.17-.38.36-.83.56-1.38.11-.29.19-.47.47-.52.19-.03.46.02.66.25-.01-.44.34-.5.49-.52l1.81-.27-.06-.41c-.07-.43.23-.57.56-.62.3-.04.59.03.65.43l.06.41.99-.15c-.45-.32-.46-.39-.47-.47-.04-.25.24-.46.53-.5.18-.03.27.02.44.12.37.23.45.33.47.46.02.13-.04.21-.08.26.24-.04.61-.09.69.44.08.52-.36.58-.48.6l-1.93.29.06.4.95-.14c.97-.15,1.22.03,1.37,1.02l.21,1.42c.07.46.15,1.01-.52,1.24l.07.45.54-.08c.39-.06.58.15.62.46.04.25-.03.55-.46.61l-.54.08.17,1.14c.17,1.12-.13,1.24-1.4,1.44-.76.12-1.15.17-1.26-.49-.1.11-.23.2-.39.22-.15.02-.28-.03-.35-.08-.11-.07-.57-.47-.68-.55-.45-.34-.5-.38-.53-.56,0-.05-.04-.28.23-.49l-.26.04c-.4.06-.58-.17-.62-.46-.03-.22,0-.54.46-.61l3.2-.49-.06-.4-2.29.35c-1,.15-1.23-.05-1.38-1l-.21-1.42c-.15-.99.04-1.23,1.01-1.38l.88-.13-.06-.4-1.81.27ZM30.44,252.75c-.02-.15.02-.79.02-.93.01-.57-.01-.86-.05-1.55,0-.12-.02-.44.4-.51.48-.07.53.29.55.42.07.43.12,1.72.09,2.23-.01.28-.02.63-.36.68-.14.02-.59.07-.65-.34ZM33.91,250.21c.15.49.32,1.08.38,1.48.03.17.07.47-.42.54-.35.05-.42-.12-.5-.47-.07-.3-.47-1.73-.49-1.9-.02-.15-.01-.38.37-.43.38-.06.47.08.67.78ZM34.87,246.82l.96-.15-.09-.58-.7.11c-.19.03-.25.15-.22.3l.05.32ZM35.01,247.69l.05.33c.02.14.1.25.3.21l.7-.11-.09-.58-.96.15ZM35.51,250.64c.23.09.42.24.83.57.27.2.37.31.41.51.16-.12.23-.13.91-.24.17-.03.34-.06.3-.34l-.13-.86-2.32.35ZM38.03,246.35l-.05-.32c-.03-.17-.11-.25-.29-.23l-.73.11.09.58.99-.15ZM38.16,247.22l-.99.15.09.58.73-.11c.2-.03.24-.17.22-.29l-.05-.33Z"/><path class="cls-3" d="M42.67,245.92c.14-.38.25-.48.46-.51.29-.04.58.14.62.4.02.14,0,.22-.25.95-.2.62-.44,1.62-.47,1.91-.04.36-.07.66-.65.75-.4.06-.61-.19-.79-.66-.09-.2-.44-1.15-.67-2.65-.17-1.09-.22-2.33-.19-2.96.01-.29.06-.64.57-.72.34-.05.74.04.8.42.03.21-.01,1.14,0,1.33.03,1.22.18,2.14.28,2.67.05-.19.17-.63.28-.93ZM47.31,242.29c.16.62.42,1.97.55,2.82.34,2.22.16,3.85-1.39,5.39-.12.12-.79.78-1.18.84-.35.05-.76-.23-.82-.63-.05-.33.05-.41.61-.89,1.52-1.29,1.66-2.56,1.35-4.57-.12-.83-.3-1.69-.49-2.49-.06-.22-.08-.32-.1-.43-.03-.2-.07-.66.73-.76.53-.06.66.39.74.73Z"/><path class="cls-3" d="M51.51,247.67c-.18.52-.3.84-.72.9-.34.05-.81-.1-.87-.55-.03-.21-.01-.29.25-.97.12-.33.57-1.78.88-3.22-1.14.19-1.67.3-1.78-.45-.1-.67.45-.75.67-.78.27-.04,1.12-.17,1.34-.21.03-.21.13-1.21.18-1.37.08-.25.27-.39.53-.43.32-.05.82.03.88.44.03.17,0,.27-.1,1.01.14-.04.77-.24.9-.26.37-.06.59.2.65.55.1.67-.21.76-1.8,1.16-.27,1.41-.56,2.82-1.02,4.17ZM55.01,244.28c-.09-.6.37-.71.53-.73.67-.1.77.38.81.57.18.8.3,1.5.39,2,.65.13,1.45.4,1.82.58.29.14.44.26.48.52.05.34-.1.83-.54.89-.14.02-.2,0-.71-.23-.29-.13-.7-.26-.79-.29.2,1.3-.59,1.91-1.89,2.11-1.38.21-2.53-.31-2.71-1.49-.15-.96.46-1.99,2.02-2.23.37-.06.76-.05.9-.05-.05-.23-.29-1.4-.33-1.66ZM54.53,247.22c-.7.11-.95.43-.9.79.08.55.78.58,1.15.53.12-.02.81-.13.87-.61.02-.11,0-.17-.09-.7-.2-.04-.64-.07-1.04,0ZM57.39,242.07c.66.21.92.3.98.68.05.36-.13.81-.49.87-.2.03-.27,0-.97-.28-.49-.18-1.26-.39-1.53-.47-.17-.05-.41-.12-.46-.45-.07-.43.24-.75.58-.8.35-.05,1.43.29,1.89.45Z"/><path class="cls-3" d="M59.95,240.62c-.09-.76-.13-1.15.58-1.26.75-.11.81.36.9,1.09l.51,4.46c.1.85.26,2.26,2.05,1.99,1.19-.18,2.17-.9,2.77-3.18.09-.35.2-.62.58-.67.35-.05.82.11.88.53.06.37-.25,1.29-.47,1.81-.39.92-1.18,2.53-3.53,2.89-1.69.26-2.84-.34-3.35-1.43-.11-.22-.25-.6-.38-1.65l-.54-4.57Z"/><path class="cls-2" d="M14.51,35.65c-.41-.7-.98-1.57-1.58-2.49l-1.01,8.27h-5.33l.89-7.26c-1.44,1.88-3.01,3.59-4.49,4.86-.66-1.36-1.99-3.46-3-4.5,2.56-1.75,5.33-4.68,7.36-7.66H2.11l.65-5.29h6.27l.33-2.67H2.97l.63-5.16h3.06c0-1.22-.19-2.76-.46-3.94l2.07-.57h-3.66l.63-5.12h5.93l.46-3.72h5.33l-.46,3.72h5.93l-.63,5.12h-3.06l1.58.35c-.84,1.62-1.51,3.06-2.1,4.16h3.25l-.63,5.16h-6.16l-.33,2.67h5.78l-.65,5.29h-5.78v.04c1.23,1.01,3.79,3.54,4.5,4.24l-3.69,4.5ZM10.69,9.23c.33,1.31.55,2.89.53,3.98l-1.73.53h6.46l-2.2-.53c.52-1.14,1.16-2.67,1.62-3.98h-4.68ZM27.6,14.22h11.33l-.72,5.86h-3.21l-2.6,21.17h-5.32l2.6-21.17h-2.79c-.91,6.47-3.01,15.61-8.41,21.43-.51-1.4-2.24-3.59-3.4-4.33,4.77-5.29,6.06-12.73,6.78-18.63l1.87-15.26,2.87.96c3.6-1.05,7.21-2.45,9.65-3.89l3.82,4.59c-3.58,1.79-7.9,3.1-11.83,4.07l-.64,5.21Z"/><path class="cls-2" d="M50.98,34.82c-.6-1.58-1.56-3.63-2.49-5.55-1.57,4.46-3.88,8.57-7.43,11.63-.6-1.31-2.06-3.5-3.18-4.55,4.29-3.24,6.26-8.84,7.32-14.13h-4.91l.7-5.73h5.1l.56-4.59h-4.57l.68-5.55h4.57l.73-5.99h5.14l-.73,5.99h4.42l-.68,5.55h-4.42l-.56,4.59h4.91l-.7,5.73h-5.1l-.08.31c1.4,1.84,4.26,6.56,4.98,7.74l-4.26,4.55ZM69.45,35.12c.49,0,.67-.57,1.32-4.94.83.96,2.9,1.92,4.17,2.32-1.24,6.39-2.69,8.05-5.59,8.05h-2.19c-3.81,0-4.35-1.79-3.74-6.78l.81-6.6h-1.17c-1.38,6.34-3.55,11.37-10.75,14.39-.35-1.44-1.44-3.67-2.36-4.77,5.65-2.05,7.01-5.42,7.98-9.62h-2.04l3.17-25.81h17.18l-3.17,25.81h-3.78l-.8,6.52c-.16,1.31-.14,1.44.28,1.44h.68ZM61.63,21.56h6.84l.19-1.58h-6.84l-.19,1.58ZM62.43,15.05h6.84l.19-1.57h-6.84l-.19,1.57ZM63.24,8.49h6.84l.19-1.53h-6.84l-.19,1.53Z"/><path class="cls-2" d="M101.58,2.23c-1.06,8.62-1.9,24.41,10.47,33.5-1.39,1.14-3.96,3.98-5.1,5.6-6.56-4.99-9.62-12.68-10.84-20.29-3.99,9.14-9.3,16.05-15.91,20.38-.85-1.36-3.09-4.02-4.38-5.21,8.16-4.38,13.6-12.68,16.89-23.79l2.65.57c-.04-1.49-.02-2.93.03-4.29h-8.35l.79-6.47h13.75Z"/><path class="cls-2" d="M125.45,15.48c-2.11,1.53-4.41,2.97-6.7,4.11-.45-1.53-1.63-3.98-2.59-5.34,6.84-3.15,13.49-9.32,16.82-14.26h5.82c3.25,6.43,8.35,11.02,14.08,13.3-1.56,1.62-3.05,3.89-4.26,5.82-1.87-1.05-3.78-2.45-5.59-3.98l-.44,3.59h-17.52l.4-3.24ZM140.77,27.25c2.73,3.28,5.39,7.48,6.67,10.63l-5.58,3.59c-.24-.79-.63-1.66-1.04-2.58-8.76.57-17.95,1.05-24.45,1.4l.04-6.21c1.74-.04,3.68-.13,5.81-.22,1.08-2.06,2.17-4.42,3.04-6.61h-8.12l.72-5.9h31.46l-.72,5.9h-7.82ZM132.01,27.25c-1.21,2.14-2.46,4.38-3.65,6.39,3-.13,6.15-.26,9.26-.39-.83-1.27-1.7-2.49-2.54-3.59l4.3-2.41h-7.36ZM140.57,12.9c-2.19-2.19-4.05-4.55-5.2-6.82-1.71,2.23-4,4.59-6.62,6.82h11.82Z"/><path class="cls-2" d="M180.76,28.87h-8.8c-.03,3.63-.03,7.3-.06,10.93h-6.12c.03-3.63.03-7.3.1-10.93h-11.59l.82-6.65h10.84c.07-2.1.26-4.24.48-6.39h-10.54l.82-6.65h10.54l.84-6.87h6.04l-.84,6.87h9.89l-.82,6.65h-9.86c-.22,2.14-.41,4.29-.44,6.39h9.52l-.82,6.65Z"/><path class="cls-2" d="M209.56,19.99c-.25,2.01-.7,3.28-1.92,4.9l-2.4,3.24h-5.97l4.03-6.04c.32-.48.79-1.18.86-1.79l.06-.52h-7.55l-.83,18.5h-5.59l.83-18.5h-4l.75-6.12h3.51l.24-4.77h5.55l-.21,4.77h13.41l-.78,6.34Z"/><path class="cls-2" d="M241.46,10.28c-.49,4.02-1.2,7.92-2.62,11.81-4.51,12.12-13.34,17.58-23.87,17.58h-2.76l.82-6.65h2.38c2.91,0,5.5-.48,8.34-1.79,8.21-3.81,10.56-12.16,11.63-20.95h6.08ZM227.38,10.8h-12.42l.82-6.65h12.42l-.82,6.65Z"/><path class="cls-2" d="M270.85,39.45l-14-26.86-12.23,16.27,1.43-11.68c3.3-4.42,6.59-8.79,7.3-9.62,1.25-1.53,2.93-2.36,4.59-2.32,1.62.04,2.95.92,3.71,2.36.64,1.27,6.33,12.12,10.6,20.38l-1.41,11.46ZM271.28,13.43c-2.38,0-4.04-2.19-3.7-4.94.33-2.71,2.53-4.94,4.91-4.94s3.99,2.23,3.66,4.94c-.34,2.76-2.53,4.94-4.87,4.94ZM272.09,6.87c-.79,0-1.49.74-1.6,1.62s.41,1.62,1.2,1.62,1.45-.74,1.56-1.62-.4-1.62-1.16-1.62Z"/><path class="cls-2" d="M278.71,16.62h27.87l-.96,7.79h-27.87l.96-7.79Z"/><path class="cls-2" d="M336.63,10.28c-.49,4.02-1.2,7.92-2.62,11.81-4.51,12.12-13.34,17.58-23.87,17.58h-2.76l.82-6.65h2.38c2.91,0,5.5-.48,8.34-1.79,8.21-3.81,10.56-12.16,11.63-20.95h6.08ZM322.55,10.8h-12.42l.82-6.65h12.42l-.82,6.65Z"/><path class="cls-2" d="M347.33,39.06h-6.08l.78-6.34h6.08l-.78,6.34ZM348.54,29.22h-6.08l3.3-26.9h6.08l-3.3,26.9Z"/><path class="cls-4" d="M75.77,61.41c-.05.19-.1.38-.13.57-.04.19-.06.37-.06.56,0,.36.18.66.54.89.36.23.95.35,1.76.35.51,0,1-.02,1.47-.06.47-.04.92-.09,1.34-.16.42-.07.8-.15,1.13-.24v1.58c-.32.08-.68.14-1.09.2-.4.06-.84.1-1.31.13-.47.03-.96.05-1.49.05-.85,0-1.57-.09-2.14-.28-.58-.19-1.01-.46-1.29-.81-.28-.36-.43-.79-.43-1.31,0-.33.03-.63.08-.9s.1-.51.15-.72l1.47.13ZM74.83,56.65c.41.04.88.08,1.39.1.52.02,1.07.03,1.66.03.37,0,.75,0,1.14-.02.39-.01.77-.03,1.14-.06.37-.02.69-.05.98-.08v1.49c-.26.02-.58.04-.95.07-.37.02-.76.04-1.16.05-.4.01-.78.02-1.14.02-.58,0-1.13-.01-1.63-.03-.5-.02-.98-.05-1.44-.09v-1.48Z"/><path class="cls-4" d="M87.38,58.87c-.12.01-.27.03-.46.06s-.39.05-.6.08-.43.06-.65.09c-.22.03-.42.06-.61.08l-.15-1.44c.16,0,.32,0,.47,0s.32,0,.51-.02c.18-.02.39-.04.65-.06.25-.03.5-.06.76-.09s.5-.08.72-.12c.22-.04.4-.09.53-.13l.45.57c-.07.09-.14.2-.23.34s-.17.27-.26.41-.17.26-.24.36l-.66,2.11c-.12.17-.27.39-.44.65s-.36.54-.56.83c-.19.29-.39.57-.57.84s-.36.51-.51.71l-.89-1.22c.14-.18.31-.39.49-.62.18-.24.38-.49.58-.75s.4-.53.59-.8c.19-.27.38-.52.54-.75.17-.24.31-.44.42-.61l.02-.29.08-.21ZM87.24,56.72v-.5c0-.17-.02-.34-.04-.51l1.64.06c-.04.17-.09.42-.14.75-.05.33-.1.7-.15,1.12s-.09.86-.13,1.32c-.04.46-.07.92-.1,1.38-.03.46-.04.88-.04,1.28,0,.31,0,.62,0,.93,0,.31,0,.64.02.96,0,.33.02.67.04,1.02,0,.1.02.23.03.41s.03.33.04.45h-1.55c.01-.13.02-.28.03-.45,0-.16,0-.29,0-.38,0-.37.01-.71.02-1.02,0-.31.01-.65.02-1s.01-.76.03-1.22c0-.17.02-.39.03-.66.01-.27.03-.56.05-.88.02-.32.04-.64.06-.97s.04-.64.06-.93.03-.54.04-.74c.01-.21.02-.35.02-.42ZM95.14,64.23c-.26.24-.56.44-.91.59-.34.16-.74.24-1.2.24-.42,0-.76-.15-1.02-.44-.26-.29-.39-.71-.39-1.26,0-.3.02-.62.06-.97.04-.35.09-.7.14-1.05.05-.35.1-.69.14-1s.06-.6.06-.86c0-.28-.07-.48-.2-.62s-.32-.21-.56-.21c-.26,0-.55.09-.88.28-.32.18-.65.42-.99.7-.34.28-.66.59-.96.91-.3.32-.57.63-.79.92v-1.73c.12-.15.3-.33.52-.53s.47-.41.75-.63.58-.42.89-.61c.31-.19.62-.35.94-.47.32-.12.63-.18.93-.18.4,0,.74.07.99.22.26.15.45.34.58.59.13.25.19.53.19.85,0,.29-.02.61-.06.95-.04.34-.08.69-.13,1.04s-.1.7-.13,1.04c-.03.34-.05.66-.05.94,0,.15.04.27.11.37s.18.14.31.14c.21,0,.44-.07.7-.21s.51-.34.76-.6l.18,1.58Z"/><path class="cls-4" d="M97.21,58.25c.2.02.4.02.6.02.19,0,.4,0,.61-.02.18,0,.4-.02.67-.04.27-.02.55-.04.84-.06.3-.02.59-.05.89-.07s.58-.05.83-.06.46-.02.63-.02c.4,0,.75.07,1.05.2.3.13.54.35.72.67.18.31.26.74.26,1.28,0,.44-.02.92-.06,1.44-.04.52-.11,1.01-.2,1.48-.09.47-.22.87-.38,1.2-.18.39-.42.66-.74.81-.31.15-.68.22-1.11.22-.22,0-.45-.02-.69-.05s-.46-.07-.66-.11l-.25-1.48c.15.04.31.07.49.11.18.04.34.07.5.09.16.02.29.03.39.03.19,0,.35-.04.49-.11s.26-.2.35-.38c.1-.22.19-.5.25-.84.06-.34.11-.72.15-1.12s.05-.78.05-1.15c0-.3-.04-.52-.12-.66-.08-.14-.2-.24-.36-.29-.16-.05-.36-.07-.6-.07-.16,0-.4.01-.69.04-.3.03-.61.06-.94.09-.33.03-.64.07-.93.11-.29.04-.51.06-.67.08-.16.03-.36.06-.61.1-.25.03-.46.07-.63.09l-.13-1.53ZM101.77,55.94c-.04.14-.07.3-.11.47-.03.17-.07.32-.1.47-.03.17-.07.35-.11.56s-.09.41-.13.62c-.04.21-.08.41-.13.6-.08.32-.17.7-.28,1.12-.11.43-.24.89-.39,1.38-.15.49-.32.98-.5,1.48s-.39.97-.59,1.44c-.21.47-.43.89-.67,1.26l-1.46-.58c.26-.35.51-.75.74-1.18.23-.44.44-.89.62-1.35.19-.46.35-.92.5-1.37.15-.45.27-.87.38-1.26.1-.39.19-.72.25-1,.1-.51.19-1,.25-1.47.06-.47.09-.92.08-1.34l1.67.17ZM105.63,57c.18.24.36.54.56.9s.38.75.56,1.15c.18.4.35.79.51,1.17s.27.69.35.95l-1.43.66c-.08-.31-.18-.66-.31-1.05-.13-.39-.28-.78-.45-1.18s-.35-.78-.54-1.14c-.19-.36-.39-.66-.59-.9l1.34-.57Z"/><path class="cls-4" d="M112.33,58.03c-.04.15-.08.34-.12.58s-.08.48-.12.74c-.04.25-.07.5-.11.73-.03.23-.06.43-.08.58.51-.37,1.04-.64,1.6-.81.56-.17,1.13-.26,1.71-.26.66,0,1.22.12,1.68.36.46.24.82.55,1.06.94s.36.81.36,1.27c0,.51-.11.98-.33,1.41-.22.43-.57.8-1.07,1.11-.49.31-1.14.52-1.94.65s-1.78.14-2.95.04l-.43-1.47c1.12.15,2.07.17,2.83.06s1.34-.33,1.73-.65c.39-.33.59-.72.59-1.2,0-.25-.07-.47-.21-.66-.14-.19-.34-.34-.59-.45s-.54-.16-.86-.16c-.63,0-1.22.11-1.77.34-.55.23-1,.56-1.35.98-.1.12-.18.23-.24.33-.06.1-.12.21-.17.32l-1.29-.33c.04-.22.09-.47.13-.77.04-.3.09-.61.13-.95.04-.34.09-.68.12-1.03.04-.34.07-.68.1-1.02s.05-.64.07-.92l1.5.21ZM112.27,55.78c.27.08.61.17,1.01.26.4.09.83.18,1.27.26.44.09.86.16,1.25.22.39.06.71.11.96.13l-.34,1.37c-.22-.03-.5-.07-.81-.13-.32-.06-.65-.12-1.01-.18s-.71-.14-1.05-.21-.66-.14-.94-.21-.52-.12-.7-.17l.36-1.35Z"/><path class="cls-4" d="M123.46,56.15c-.02.08-.05.18-.1.31-.04.13-.08.27-.1.39-.03.13-.05.22-.06.29-.04.16-.08.37-.12.63-.04.27-.09.57-.14.9-.05.33-.1.67-.14,1.02-.04.35-.08.68-.1.99s-.03.58-.03.8c0,.11,0,.23,0,.37,0,.13.02.25.04.36.05-.13.11-.27.16-.39.06-.13.11-.25.17-.38.06-.13.12-.25.17-.38l.68.56c-.1.31-.21.63-.32.96-.11.34-.21.66-.29.95-.09.3-.15.55-.2.75-.02.08-.03.17-.04.27-.01.11-.02.19-.02.26,0,.06,0,.13,0,.22,0,.09,0,.17.02.24l-1.27.1c-.12-.4-.22-.9-.31-1.52-.09-.62-.13-1.31-.13-2.07,0-.42.02-.86.06-1.32.04-.46.08-.9.13-1.33s.1-.82.15-1.17.09-.64.12-.86c.02-.16.04-.33.07-.53s.04-.39.04-.57l1.55.13ZM128.94,56.02c-.02.1-.03.22-.04.35s-.02.25-.03.38c0,.12-.02.28-.02.48,0,.2-.01.43-.01.68v.79c0,.51,0,.99.02,1.43.01.45.03.86.06,1.23s.04.72.06,1.04c.02.31.03.61.03.88,0,.29-.04.56-.12.81-.08.25-.2.46-.38.65-.17.19-.4.33-.68.43-.28.1-.62.15-1.03.15-.78,0-1.39-.16-1.84-.47-.45-.31-.67-.77-.67-1.36,0-.38.1-.72.3-1s.49-.51.86-.67c.37-.16.82-.24,1.32-.24s1.01.06,1.45.17c.43.11.83.26,1.19.45.36.19.68.39.96.61.28.22.53.43.76.63l-.77,1.18c-.43-.4-.84-.75-1.25-1.04-.4-.29-.81-.52-1.21-.67s-.81-.24-1.24-.24c-.31,0-.57.06-.77.18-.2.12-.3.29-.3.5s.1.39.3.49c.2.1.45.16.74.16.23,0,.42-.04.55-.12.13-.08.23-.19.29-.35s.08-.34.08-.56c0-.2,0-.45-.02-.76-.01-.31-.03-.67-.05-1.05-.02-.39-.04-.79-.05-1.22-.02-.42-.02-.84-.02-1.24,0-.43,0-.81,0-1.16s0-.61,0-.78c0-.08,0-.2-.02-.35-.02-.15-.03-.28-.06-.39h1.6ZM124.67,57.92c.32.03.65.05.97.07.33.02.66.03.99.03.69,0,1.37-.03,2.05-.09.68-.06,1.31-.15,1.89-.28v1.4c-.58.08-1.22.15-1.9.2-.68.05-1.36.07-2.04.07-.33,0-.66,0-.98-.02-.33-.01-.65-.03-.98-.05v-1.34Z"/><path class="cls-4" d="M135.98,55.98c-.04.24-.07.49-.09.76s-.04.51-.06.73c-.01.3-.03.67-.04,1.11-.01.44-.03.9-.04,1.38-.02.48-.03.95-.04,1.41-.01.46-.02.87-.02,1.22,0,.38.07.67.21.89.14.22.33.38.56.47s.5.14.79.14c.46,0,.88-.06,1.26-.18.39-.12.73-.29,1.04-.5.31-.21.59-.46.85-.74.25-.28.48-.57.68-.88l1.02,1.25c-.19.27-.43.55-.72.85-.29.3-.64.58-1.04.84-.4.26-.86.47-1.39.63-.52.16-1.1.24-1.74.24s-1.14-.09-1.59-.28c-.46-.19-.81-.48-1.06-.88-.25-.4-.37-.92-.37-1.55,0-.31,0-.66.01-1.05s.02-.8.03-1.23c.01-.43.02-.84.03-1.25s.02-.78.02-1.11.01-.59.01-.78c0-.27-.01-.53-.03-.79s-.06-.5-.1-.72l1.81.02ZM138.88,56.88c.1.16.22.34.35.56s.26.43.39.65c.13.22.23.42.31.6l-1,.44c-.11-.24-.22-.46-.33-.67-.11-.21-.22-.4-.33-.59-.11-.19-.23-.38-.38-.57l.98-.42ZM140.38,56.26c.11.15.24.33.37.54.13.21.27.43.4.64.13.21.24.41.32.58l-.98.47c-.11-.24-.23-.46-.34-.66-.12-.2-.23-.39-.35-.58-.12-.19-.25-.37-.39-.55l.97-.45Z"/><path class="cls-4" d="M151.91,56.01c-.02.1-.05.22-.08.36-.03.14-.07.28-.1.43-.03.14-.06.26-.08.35-.12.5-.25,1.01-.4,1.53-.15.52-.32,1.03-.5,1.54s-.39.98-.62,1.43c-.23.44-.48.83-.76,1.18-.34.43-.65.79-.95,1.07-.3.28-.59.48-.88.61s-.61.2-.95.2c-.31,0-.6-.08-.87-.25-.27-.17-.49-.42-.66-.75-.17-.33-.25-.74-.25-1.23s.09-1,.27-1.5c.18-.5.44-.96.76-1.39.33-.43.71-.78,1.15-1.07.6-.39,1.19-.66,1.76-.82s1.16-.24,1.76-.24c.78,0,1.47.16,2.07.49s1.07.78,1.4,1.36c.34.58.51,1.27.51,2.05s-.17,1.46-.52,2.04c-.35.57-.83,1.03-1.43,1.37-.61.34-1.3.57-2.08.69l-.86-1.3c.62-.05,1.15-.16,1.59-.34.44-.17.79-.39,1.07-.65.27-.26.47-.55.6-.88.13-.32.19-.66.19-1.01,0-.51-.11-.96-.33-1.34-.22-.39-.53-.69-.93-.91-.4-.22-.86-.33-1.4-.33-.59,0-1.12.09-1.58.29-.46.19-.89.43-1.28.71-.29.21-.54.46-.75.76-.21.3-.37.61-.48.94-.11.33-.17.65-.17.95,0,.27.06.49.17.65.12.16.27.25.47.25.14,0,.29-.04.44-.13.15-.09.3-.2.45-.35.15-.15.3-.32.45-.51.15-.19.3-.4.45-.62.21-.32.41-.68.59-1.08.19-.4.36-.81.51-1.25.15-.43.28-.86.39-1.26.1-.41.19-.78.25-1.13.04-.17.06-.35.07-.56.01-.21.02-.38.02-.5l1.55.15ZM147.17,56.38c.04.19.08.37.12.55.04.18.08.36.13.53.08.31.18.64.29.99s.23.71.36,1.06c.13.35.26.68.4.97.13.3.27.55.4.76.19.3.42.61.66.94.25.33.5.62.76.87l-1.13.9c-.22-.25-.42-.48-.6-.71-.18-.23-.36-.48-.54-.77-.16-.25-.33-.55-.5-.89-.17-.34-.33-.7-.49-1.1-.16-.4-.31-.8-.46-1.22-.15-.42-.29-.83-.42-1.25-.06-.2-.13-.4-.2-.58-.07-.19-.16-.38-.25-.58l1.47-.46Z"/><path class="cls-4" d="M158.63,56.26c.16.02.33.04.5.04.18,0,.35.01.52.01.12,0,.3,0,.54,0s.51,0,.81-.02c.3,0,.6-.02.9-.02.3,0,.57-.02.81-.03.24-.01.43-.02.57-.03.23-.02.42-.04.55-.06s.24-.04.3-.06l.73,1c-.13.08-.26.16-.39.25-.13.08-.27.17-.39.27-.15.11-.33.24-.54.41-.21.17-.43.35-.67.53-.24.19-.46.37-.69.55s-.42.34-.6.48c.19-.04.37-.08.54-.1.17-.02.35-.03.53-.03.64,0,1.21.12,1.71.37.5.25.91.58,1.2,1,.3.42.44.91.44,1.45,0,.59-.15,1.13-.45,1.61-.3.48-.75.86-1.35,1.14-.6.28-1.36.43-2.26.43-.52,0-.98-.08-1.4-.22-.42-.15-.74-.36-.98-.64-.24-.28-.36-.6-.36-.98,0-.31.08-.59.25-.86.17-.26.4-.48.71-.64.3-.17.65-.25,1.05-.25.52,0,.95.1,1.31.31s.63.48.82.83c.19.34.29.72.3,1.13l-1.31.18c0-.41-.11-.74-.31-.99-.2-.25-.46-.38-.79-.38-.21,0-.38.05-.5.16-.13.11-.19.23-.19.38,0,.21.1.38.31.5s.48.19.82.19c.64,0,1.17-.08,1.59-.23.43-.15.75-.37.96-.66s.32-.63.32-1.03c0-.34-.1-.63-.31-.89-.21-.25-.48-.45-.84-.59-.35-.14-.75-.21-1.19-.21s-.83.05-1.19.16c-.36.11-.7.26-1.02.46-.32.2-.63.44-.93.72s-.6.59-.9.94l-1.02-1.06c.2-.16.43-.35.68-.56.25-.21.51-.42.78-.65.27-.22.52-.44.75-.63.24-.2.44-.36.6-.5.16-.13.34-.28.55-.45s.43-.35.65-.53.44-.36.64-.53c.2-.17.37-.31.51-.43-.11,0-.26,0-.44.01s-.38.01-.59.02c-.21,0-.43.01-.64.02s-.41.02-.59.03c-.18.01-.33.02-.45.03-.15,0-.31.02-.47.03-.16.01-.31.03-.45.06l-.04-1.46Z"/><path class="cls-4" d="M176.35,58.66c-.02.07-.06.16-.1.28s-.09.24-.13.37c-.04.13-.07.23-.1.3-.22.67-.48,1.29-.79,1.85-.31.56-.65,1.04-1,1.46-.36.42-.71.75-1.07,1.02-.37.28-.79.52-1.26.72-.47.21-.95.31-1.43.31-.27,0-.52-.06-.75-.17-.23-.11-.42-.29-.56-.53-.14-.24-.21-.55-.21-.93,0-.4.08-.8.25-1.19.16-.39.39-.76.69-1.11.29-.35.63-.66,1.02-.94.39-.27.81-.49,1.26-.65.37-.13.77-.24,1.21-.33.44-.08.87-.12,1.3-.12.7,0,1.32.13,1.87.38.55.25.98.6,1.3,1.04.31.44.47.96.47,1.55,0,.4-.06.78-.19,1.16-.13.38-.33.73-.62,1.05s-.67.6-1.14.83c-.47.23-1.05.4-1.74.51l-.74-1.18c.72-.08,1.3-.25,1.75-.49.45-.24.78-.54.98-.88.21-.34.31-.7.31-1.07,0-.33-.09-.62-.26-.89s-.44-.47-.79-.63c-.35-.16-.78-.24-1.29-.24s-.96.06-1.36.17-.73.23-1,.36c-.37.18-.71.41-1,.68s-.52.56-.68.86c-.16.3-.25.58-.25.83,0,.18.04.32.12.41s.21.14.39.14c.27,0,.58-.09.93-.26.35-.18.7-.42,1.04-.75.4-.37.79-.82,1.15-1.35.36-.52.65-1.17.89-1.95.02-.07.04-.17.07-.29.02-.12.04-.24.06-.36.02-.12.03-.22.04-.3l1.37.33ZM171.51,57.02c.71,0,1.38-.02,2-.04.62-.03,1.23-.08,1.81-.16.58-.08,1.16-.18,1.73-.33v1.3c-.38.07-.81.13-1.27.18-.47.06-.95.1-1.46.14s-1,.07-1.49.08-.94.03-1.37.03c-.19,0-.41,0-.66-.01-.24,0-.48-.02-.72-.03-.24-.01-.44-.02-.61-.03l-.03-1.3c.13.01.31.04.55.06.24.03.5.05.77.07s.52.03.75.03ZM173.51,55.78c-.03.1-.06.21-.08.31-.03.1-.05.2-.07.29-.07.35-.13.75-.19,1.21-.06.45-.11.92-.15,1.41-.04.49-.06.97-.06,1.44,0,.58.03,1.12.09,1.61.06.49.14.94.25,1.36.11.42.23.81.35,1.18l-1.29.39c-.11-.34-.22-.74-.32-1.2s-.19-.96-.25-1.5c-.07-.53-.1-1.08-.1-1.62,0-.37.01-.75.04-1.13.03-.38.05-.75.08-1.12s.07-.73.11-1.07c.04-.34.08-.65.11-.93,0-.1.02-.22.02-.34,0-.12,0-.23,0-.33l1.46.03Z"/><path class="cls-4" d="M185.42,55.78c-.04.19-.1.43-.18.73s-.16.61-.25.94c-.09.33-.19.66-.3.98-.17.54-.38,1.11-.65,1.72-.27.61-.56,1.2-.88,1.77-.31.58-.63,1.09-.95,1.54l-1.36-.7c.25-.31.51-.66.75-1.04.25-.38.48-.77.7-1.18.22-.4.41-.79.59-1.17s.32-.72.42-1.03c.14-.4.27-.84.38-1.33.11-.49.17-.95.19-1.39l1.55.16ZM181.06,57.46c.24.03.5.05.77.06.27.01.51.02.72.02.46,0,.93-.03,1.41-.08s.93-.12,1.38-.21c.44-.09.84-.18,1.2-.3l.04,1.3c-.32.08-.71.17-1.15.25-.45.09-.91.16-1.41.21-.49.06-.98.08-1.46.08-.22,0-.45,0-.68-.01-.23,0-.47-.02-.72-.03l-.1-1.3ZM188.05,59.27c-.02.24-.02.48-.02.71s0,.48.02.72c0,.17.02.39.03.66s.02.55.04.84c.01.3.03.58.04.84s.02.48.02.63c0,.34-.07.66-.21.94-.14.28-.37.5-.68.67-.31.16-.74.25-1.27.25-.46,0-.88-.07-1.26-.21-.37-.14-.67-.34-.9-.62-.22-.27-.34-.62-.34-1.03,0-.37.1-.7.29-.99.19-.3.48-.53.85-.7.37-.17.82-.25,1.34-.25.66,0,1.26.09,1.82.27.55.18,1.05.42,1.49.7s.82.57,1.13.85l-.75,1.2c-.2-.18-.43-.38-.69-.61-.26-.22-.55-.43-.86-.63-.32-.19-.66-.36-1.03-.48-.37-.13-.77-.19-1.2-.19-.32,0-.58.06-.77.19-.19.13-.29.29-.29.49s.08.38.25.5c.17.13.41.19.71.19.25,0,.46-.04.61-.13.15-.09.25-.21.31-.37.06-.16.09-.34.09-.54,0-.17,0-.42-.02-.73s-.03-.66-.05-1.04c-.02-.38-.04-.76-.05-1.14-.02-.38-.03-.72-.04-1.01h1.4ZM189.98,59.86c-.22-.18-.49-.37-.81-.57s-.65-.39-.99-.58c-.34-.18-.64-.33-.89-.44l.72-1.11c.2.09.43.2.69.33.26.13.52.27.79.41.27.14.51.28.74.42.23.14.41.26.56.37l-.8,1.18Z"/><path class="cls-4" d="M197.63,55.85c-.04.15-.09.33-.13.55-.04.22-.08.39-.1.51-.05.25-.12.56-.2.93-.08.37-.17.76-.26,1.17-.09.41-.19.8-.29,1.18-.1.4-.22.82-.36,1.29-.14.46-.29.93-.45,1.4-.16.48-.32.93-.49,1.36-.16.43-.33.81-.48,1.15l-1.56-.53c.16-.28.34-.63.53-1.04s.37-.85.54-1.32c.18-.47.34-.94.49-1.4.15-.46.28-.89.38-1.29.07-.26.15-.53.21-.81.07-.28.13-.55.18-.81s.1-.51.14-.74.07-.43.1-.6c.02-.21.04-.42.04-.63,0-.21,0-.38-.01-.51l1.72.13ZM194.77,57.53c.46,0,.93-.02,1.43-.07.49-.04.99-.11,1.49-.19.5-.08,1-.18,1.49-.29v1.4c-.46.11-.96.2-1.48.27-.52.08-1.04.13-1.55.17s-.98.06-1.4.06c-.27,0-.51,0-.73-.02-.22-.01-.43-.02-.63-.03l-.03-1.4c.29.03.54.05.75.07s.43.02.66.02ZM198.9,62.07c-.04.16-.08.32-.11.49-.03.17-.04.32-.04.44,0,.12.03.23.08.34.05.11.13.2.25.28s.27.14.47.19.45.07.75.07c.38,0,.76-.02,1.15-.06.39-.04.78-.1,1.18-.17l-.06,1.44c-.31.04-.66.07-1.04.11-.38.03-.8.05-1.25.05-.94,0-1.66-.16-2.16-.47-.5-.31-.75-.75-.75-1.32,0-.25.02-.51.07-.77s.09-.5.13-.73l1.34.13ZM198.29,59.24c.31-.03.66-.06,1.04-.08.38-.02.75-.03,1.11-.03.32,0,.65,0,.98.02.33.02.66.04.99.08l-.03,1.35c-.28-.04-.58-.07-.91-.1-.33-.03-.67-.04-1.02-.04-.38,0-.75,0-1.11.03s-.71.05-1.06.1v-1.33Z"/><path class="cls-4" d="M209.55,55.81c-.04.2-.1.46-.18.79-.08.32-.2.68-.36,1.09-.12.28-.26.56-.41.86s-.31.56-.47.79c.1-.04.22-.08.37-.12.15-.03.3-.06.47-.08.16-.02.3-.03.43-.03.47,0,.86.13,1.17.4s.47.67.47,1.2c0,.15,0,.33,0,.55s0,.44.02.68c0,.24.01.47.02.69,0,.22.01.43.01.61h-1.35c.02-.13.02-.28.03-.46,0-.17,0-.36.01-.55,0-.2,0-.38.01-.57,0-.18,0-.35,0-.5,0-.36-.1-.61-.29-.75-.19-.14-.4-.21-.63-.21-.31,0-.63.08-.95.23-.32.15-.59.33-.8.54-.16.16-.33.35-.5.55-.17.2-.35.43-.54.68l-1.2-.9c.49-.45.91-.88,1.26-1.3.36-.42.66-.83.9-1.25.25-.41.45-.82.61-1.24.11-.3.2-.61.27-.94.07-.33.11-.63.13-.92l1.48.12ZM205.33,56.84c.28.04.61.08.99.1s.7.03.99.03c.49,0,1.03-.01,1.62-.03s1.18-.06,1.79-.12c.61-.06,1.18-.13,1.73-.22v1.3c-.41.05-.84.1-1.3.14-.46.04-.93.08-1.4.1-.48.03-.93.04-1.36.06-.43.01-.82.02-1.16.02-.15,0-.33,0-.56,0s-.45-.01-.68-.02c-.23-.01-.45-.02-.66-.04v-1.31ZM214.21,60.03c-.12.04-.26.08-.42.14-.16.06-.32.11-.48.17-.16.06-.31.11-.43.16-.36.14-.78.31-1.27.52-.49.2-1,.44-1.53.71-.34.18-.62.36-.85.53-.23.17-.41.35-.53.52-.12.18-.18.37-.18.58,0,.16.03.29.1.39.07.1.17.18.3.24.13.06.3.1.51.12.2.02.44.03.72.03.48,0,1.01-.03,1.58-.08.58-.06,1.11-.13,1.6-.23l-.04,1.45c-.24.03-.54.06-.91.1-.37.03-.75.06-1.14.07-.39.01-.77.02-1.13.02-.58,0-1.11-.06-1.57-.17-.46-.11-.83-.3-1.09-.58-.27-.27-.4-.65-.4-1.13,0-.39.09-.74.26-1.05.18-.31.41-.6.7-.85.29-.25.61-.48.96-.69.35-.21.69-.4,1.03-.57.34-.18.65-.33.93-.46s.54-.24.78-.34c.24-.1.48-.2.7-.31.22-.1.43-.19.63-.29.2-.09.41-.19.62-.3l.56,1.3Z"/><path class="cls-4" d="M217.21,56.6h1.35v2.83c0,.46-.02.96-.05,1.51-.03.55-.09,1.12-.17,1.7-.08.58-.2,1.14-.35,1.69-.15.55-.36,1.04-.61,1.48-.08-.07-.2-.16-.34-.26-.15-.1-.29-.2-.44-.29-.15-.09-.28-.16-.38-.21.23-.4.42-.85.55-1.32.13-.48.23-.97.3-1.47s.11-.99.13-1.48c.02-.48.03-.93.03-1.34v-2.83ZM217.84,56.6h8.87v1.28h-8.87v-1.28ZM219.18,60.89l1.21.26c-.04.43-.09.87-.16,1.32-.07.46-.16.89-.26,1.3-.11.41-.25.76-.42,1.07l-1.19-.54c.16-.29.29-.62.4-.99.11-.37.2-.76.26-1.18s.12-.83.16-1.25ZM220.77,60.03h1.34v3.91c0,.21.02.34.07.39.05.05.15.08.3.08h.91c.11,0,.2-.04.26-.13.06-.09.1-.26.13-.52s.05-.65.06-1.17c.1.08.21.15.35.22.14.08.28.14.43.19.15.05.28.1.39.13-.04.64-.11,1.13-.21,1.49s-.25.61-.45.76c-.2.15-.48.22-.84.22h-1.25c-.4,0-.7-.05-.92-.15-.21-.1-.36-.28-.45-.52-.09-.25-.13-.58-.13-.99v-3.92ZM220.85,58.77l.91-.89c.3.14.62.31.97.49.34.19.67.38.99.58.31.2.57.39.77.56l-.97,1.01c-.18-.18-.42-.38-.72-.59-.3-.21-.62-.42-.96-.63-.34-.21-.67-.39-.98-.54ZM221.23,55.27h1.4v2.05h-1.4v-2.05ZM224.29,61.05l1.2-.46c.22.38.44.8.65,1.24.21.44.39.88.54,1.3s.26.81.31,1.15l-1.32.55c-.04-.34-.13-.72-.26-1.16-.14-.44-.3-.88-.5-1.33-.19-.45-.4-.88-.62-1.29Z"/><path class="cls-4" d="M228.85,61.29c.45-.1.99-.24,1.61-.4.62-.16,1.26-.34,1.89-.52l.17,1.22c-.59.17-1.19.35-1.8.52-.61.18-1.16.34-1.67.49l-.2-1.31ZM228.99,57.4h3.43v1.24h-3.43v-1.24ZM230.17,55.28h1.23v9.11c0,.31-.03.55-.1.74-.06.18-.18.33-.35.43-.16.1-.37.18-.62.21-.25.04-.56.05-.94.04-.02-.16-.06-.37-.12-.61s-.14-.45-.22-.63c.21,0,.4.01.58.02s.3,0,.36,0c.07,0,.11-.01.14-.04.03-.03.04-.08.04-.15v-9.11ZM234.12,59.02h1.29c-.03.47-.08.96-.14,1.46-.06.5-.16,1-.28,1.49s-.29.97-.5,1.44c-.21.46-.49.9-.82,1.3-.33.4-.74.76-1.23,1.08-.09-.16-.22-.33-.38-.51s-.33-.33-.49-.46c.44-.27.81-.58,1.11-.93.3-.35.53-.73.71-1.13.18-.4.32-.81.41-1.24.09-.43.16-.85.21-1.28s.08-.83.11-1.22ZM232.55,59.93h6.77v1.09h-6.77v-1.09ZM238.24,55.33l.75.99c-.42.09-.88.17-1.39.23-.51.06-1.03.12-1.57.16-.54.04-1.08.08-1.62.11-.54.03-1.06.04-1.57.05-.02-.14-.05-.31-.11-.5-.06-.2-.12-.36-.18-.49.49-.02,1-.05,1.52-.07s1.03-.06,1.53-.11c.5-.04.98-.1,1.43-.16s.85-.13,1.2-.2ZM232.77,58.35h6.21v1.05h-6.21v-1.05ZM233.06,57.13l1.02-.28c.09.2.18.43.28.68.1.25.17.46.22.62l-1.08.35c-.04-.18-.11-.4-.2-.66-.09-.26-.17-.5-.25-.71ZM237.52,61.47h.25l.22-.03.73.29c-.22.8-.54,1.47-.97,2.02-.43.55-.94.99-1.52,1.32-.58.33-1.23.59-1.95.78-.04-.1-.11-.21-.19-.34-.08-.13-.17-.25-.27-.38-.1-.12-.18-.22-.26-.29.67-.14,1.28-.34,1.81-.61s.98-.6,1.35-1.03c.37-.42.64-.95.8-1.58v-.17ZM234.01,61.47h3.78v.96h-3.78v-.96ZM235.12,62.21c.25.44.6.83,1.03,1.17.43.34.94.62,1.52.85.58.23,1.22.4,1.92.51-.14.13-.29.3-.44.52-.15.22-.27.41-.36.58-1.12-.23-2.07-.62-2.86-1.18-.79-.55-1.43-1.26-1.9-2.12l1.09-.33ZM235.01,56.94l1.04-.19c.07.22.13.47.19.72s.1.47.12.65l-1.11.25c-.02-.18-.04-.41-.09-.68-.04-.27-.09-.52-.15-.75ZM237.6,56.55l1.23.36c-.2.34-.42.68-.64,1.02-.22.34-.43.63-.61.86l-.94-.33c.12-.18.24-.38.35-.61.12-.22.23-.45.33-.68.1-.23.19-.44.27-.63Z"/><path class="cls-4" d="M244.32,55.91c-.03.23-.06.48-.08.75-.03.27-.05.52-.06.74,0,.31-.02.68-.04,1.12-.02.44-.03.9-.04,1.38s-.02.95-.03,1.41-.02.87-.02,1.21c0,.38.07.67.21.89.14.22.32.38.56.47s.49.14.79.14c.46,0,.89-.06,1.27-.18.38-.12.73-.29,1.04-.5.31-.21.6-.45.85-.73.25-.28.48-.57.68-.88l1.02,1.23c-.18.27-.42.55-.71.85-.29.3-.64.58-1.04.84-.4.26-.86.47-1.39.64-.52.16-1.1.25-1.74.25s-1.15-.1-1.6-.29c-.45-.19-.8-.49-1.06-.89-.25-.4-.38-.92-.38-1.55,0-.31,0-.66.01-1.05s.02-.8.03-1.23c.02-.43.03-.84.03-1.25s.02-.78.02-1.11.01-.59.01-.79c0-.27-.01-.53-.03-.79s-.06-.5-.11-.72l1.81.02Z"/><path class="cls-4" d="M258.45,55.73c-.02.11-.03.24-.04.38s-.02.28-.03.42c0,.15-.02.35-.02.6s-.01.53-.01.83v1.68c0,.31,0,.66.02,1.05.02.39.04.77.06,1.17.03.39.05.76.07,1.1.02.34.03.62.03.85,0,.31-.08.6-.25.86-.16.26-.41.46-.73.61-.33.15-.74.22-1.23.22-.9,0-1.58-.17-2.04-.49s-.7-.79-.7-1.38c0-.38.11-.72.33-1s.54-.51.95-.68c.42-.17.91-.25,1.49-.25.61,0,1.19.07,1.72.2.53.13,1.02.3,1.46.51.44.21.83.43,1.18.66.34.23.64.44.88.63l-.81,1.26c-.27-.25-.57-.5-.9-.75s-.7-.47-1.09-.67c-.39-.2-.81-.36-1.25-.49-.44-.12-.9-.18-1.39-.18-.39,0-.69.07-.9.2-.21.13-.32.3-.32.49,0,.14.04.27.13.37.09.1.22.18.39.24.17.05.39.08.65.08.2,0,.38-.02.52-.07s.26-.13.34-.25c.08-.12.12-.29.12-.51,0-.16,0-.4-.02-.71-.01-.31-.02-.65-.04-1.02-.02-.37-.03-.74-.04-1.09-.02-.36-.02-.68-.02-.95s0-.55,0-.85,0-.59,0-.88,0-.56,0-.8,0-.44,0-.6c0-.1,0-.23-.02-.39-.01-.15-.03-.28-.05-.39h1.52ZM253.73,59.21c.18.03.39.06.64.09.25.03.5.05.76.07.26.01.5.03.74.04.23.01.42.02.57.02.7,0,1.33-.01,1.89-.04.56-.03,1.09-.07,1.59-.11.49-.04.97-.1,1.43-.16v1.33c-.4.04-.78.08-1.14.11-.36.03-.73.06-1.11.08-.38.02-.78.04-1.22.04-.43,0-.92.01-1.46.01-.22,0-.49,0-.81-.02-.32-.01-.65-.03-.98-.05s-.63-.05-.88-.08v-1.32ZM253.79,56.79c.2.03.43.06.67.09.25.03.5.06.76.08.26.03.5.04.74.06.23.01.43.02.61.02.76,0,1.52-.02,2.28-.07.76-.05,1.55-.14,2.36-.27v1.29c-.39.05-.83.1-1.34.15-.5.04-1.03.08-1.6.11s-1.13.04-1.7.04c-.23,0-.52,0-.86-.03-.34-.02-.68-.04-1.02-.08-.34-.03-.63-.07-.88-.1l-.03-1.28Z"/><path class="cls-4" d="M264.36,57.16c.33,0,.7,0,1.12-.01.42,0,.86-.01,1.31-.02.46,0,.91-.01,1.35-.02.44,0,.86-.01,1.25-.02s.73,0,1.01,0,.59,0,.93,0c.34,0,.67,0,1,0h1.54v1.32c-.36-.01-.83-.03-1.4-.04-.58-.01-1.28-.02-2.11-.02-.51,0-1.03,0-1.55.02-.52.01-1.04.02-1.56.04-.52.01-1.01.03-1.49.05-.48.02-.93.04-1.36.07l-.03-1.36ZM270.44,60.48c0,.61-.07,1.12-.22,1.53-.15.4-.36.71-.66.91-.29.21-.65.31-1.09.31-.21,0-.43-.04-.66-.13-.23-.09-.44-.22-.63-.39-.19-.17-.35-.38-.47-.64-.12-.25-.17-.55-.17-.9,0-.43.1-.79.3-1.11s.47-.55.81-.73c.34-.17.72-.26,1.13-.26.49,0,.91.11,1.24.33.33.22.58.52.75.89s.25.8.25,1.27c0,.37-.06.75-.18,1.14s-.32.78-.59,1.16c-.27.38-.64.72-1.1,1.03-.46.31-1.03.56-1.72.75l-1.2-1.19c.48-.1.92-.22,1.34-.38.41-.16.77-.35,1.08-.59.31-.24.55-.53.73-.89.18-.35.26-.77.26-1.27,0-.36-.09-.63-.26-.81s-.39-.27-.63-.27c-.14,0-.28.03-.42.1s-.24.17-.33.3c-.08.13-.12.3-.12.49,0,.25.09.46.26.61s.38.23.6.23c.18,0,.34-.06.48-.17.14-.11.23-.3.27-.56.04-.26,0-.61-.11-1.06l1.04.28ZM270.7,55.76c0,.06-.02.16-.03.29-.01.13-.02.26-.03.39s-.01.23-.02.29c0,.15-.01.35-.01.6v.84c0,.31,0,.62,0,.93,0,.31,0,.6.01.88,0,.27,0,.5,0,.68l-1.4-.47v-1.34c0-.28,0-.56,0-.84,0-.28,0-.53-.02-.75,0-.22-.02-.39-.02-.5-.02-.23-.03-.44-.06-.61s-.04-.3-.06-.37h1.63Z"/><path class="cls-4" d="M279.3,64.91c-.28,0-.52-.09-.71-.28-.19-.19-.28-.42-.28-.71s.09-.53.28-.72c.19-.19.42-.28.71-.28s.52.09.71.28c.19.19.28.43.28.72s-.09.52-.28.71-.42.28-.71.28ZM278.73,61.93l-.3-3.84-.06-1.67h1.86l-.06,1.67-.3,3.84h-1.15Z"/><rect class="cls-4" x="9.08" y="78.42" width="335" height="117.13" rx="3" ry="3"/><rect class="cls-4" x="25.1" y="282.17" width="302.95" height="87.27" rx="3" ry="3"/><path class="cls-1" d="M92.26,117.24c0,4.98.73,14.1,9.75,19.36-.83.66-2.32,2.3-2.96,3.23-4.8-2.88-7.48-7.33-8.92-11.72-1.92,5.28-4.9,9.27-8.97,11.77-.68-.78-2.4-2.32-3.36-3.01,5.1-2.53,8.06-7.33,9.35-13.75l1.82.33c-.15-.86-.25-1.69-.33-2.48h-5.58v-3.74h9.2Z"/><path class="cls-1" d="M109.1,124.9c-1.29.88-2.7,1.72-4.14,2.38-.43-.88-1.42-2.3-2.17-3.08,4.32-1.82,8.26-5.38,10.08-8.24h3.89c2.7,3.71,6.49,6.37,10.51,7.68-.91.93-1.72,2.25-2.38,3.36-1.34-.61-2.73-1.42-4.07-2.3v2.07h-11.72v-1.87ZM120.31,131.7c2.1,1.89,4.22,4.32,5.33,6.14l-3.44,2.07c-.23-.46-.56-.96-.91-1.49-5.81.33-11.93.61-16.25.81l-.48-3.59c1.16-.03,2.45-.08,3.87-.13.56-1.19,1.09-2.55,1.49-3.82h-5.43v-3.41h21.05v3.41h-5.23ZM119,123.41c-1.64-1.26-3.08-2.63-4.04-3.94-.96,1.29-2.3,2.65-3.87,3.94h7.91ZM114.45,131.7c-.63,1.24-1.29,2.53-1.92,3.69,2-.08,4.09-.15,6.17-.23-.66-.73-1.34-1.44-2-2.07l2.68-1.39h-4.93Z"/><path class="cls-1" d="M148.95,132.63c-.88,1.24-1.77,2.53-2.53,3.49h5.15v3.13h-21.4v-3.13h4.52c-.43-1.09-1.16-2.5-1.9-3.59l1.87-.78h-3.16v-3.13h7.23v-2.02h-4.35v-1.11c-1.14.81-2.32,1.54-3.54,2.2-.45-.86-1.52-2.22-2.3-2.98,4.32-2.07,8.31-5.89,10.13-8.89h3.84c2.75,3.94,6.67,7.03,10.71,8.59-.91.93-1.74,2.17-2.43,3.31-1.21-.66-2.45-1.44-3.66-2.3v1.19h-4.5v2.02h7.3v3.13h-3.46l2.45.88ZM136.08,131.75c.81,1.16,1.64,2.55,1.97,3.56l-1.84.81h2.53v-4.37h-2.65ZM144.6,123.41c-1.54-1.34-2.91-2.73-3.84-4.02-.94,1.31-2.22,2.7-3.74,4.02h7.58ZM142.65,131.75v4.37h1.87l-1.34-.56c.71-1.04,1.57-2.55,2.1-3.82h-2.63Z"/><path class="cls-2" d="M108.24,231.53c-.23,2.14-.83,3.21-2.23,3.84-1.45.65-3.37.73-6.03.73-.09-1.12-.65-2.98-1.15-4,1.66.13,3.85.11,4.48.11s.83-.21.89-.73l.32-3h-10.42c-1.01,2.9-2.61,5.69-5.19,7.65-.49-.78-1.88-2.22-2.66-2.74,4.17-3.19,5-8.07,5.41-11.96l.94-8.96h17.66l-2,19.06ZM104.9,224.79l.26-2.51h-9.69c-.11.78-.25,1.64-.42,2.51h9.85ZM96.11,216.17l-.26,2.51h9.69l.26-2.51h-9.69Z"/><path class="cls-2" d="M119.32,220.61c-1.43.91-2.98,1.78-4.54,2.45-.35-.91-1.21-2.38-1.91-3.19,4.66-1.88,9.13-5.56,11.32-8.51h4.02c2.39,3.84,6.02,6.58,10.03,7.94-1.04.97-2.02,2.32-2.82,3.47-1.32-.63-2.67-1.46-3.96-2.38l-.23,2.14h-12.12l.2-1.93ZM130.18,227.63c1.96,1.96,3.89,4.47,4.84,6.35l-3.78,2.14c-.19-.47-.47-.99-.78-1.54-6.04.34-12.4.63-16.88.84l-.11-3.71c1.2-.03,2.54-.08,4.01-.13.7-1.23,1.4-2.64,1.96-3.94h-5.62l.37-3.53h21.76l-.37,3.53h-5.41ZM129.72,219.07c-1.56-1.31-2.9-2.72-3.75-4.07-1.13,1.33-2.67,2.74-4.43,4.07h8.18ZM124.12,227.63c-.79,1.28-1.61,2.61-2.39,3.81,2.07-.08,4.25-.16,6.4-.24-.6-.76-1.23-1.49-1.84-2.14l2.92-1.44h-5.09Z"/><path class="cls-2" d="M156.36,232.07c2.16.78,4.4,1.67,5.79,2.32l-4.47,1.78c-1.35-.81-3.89-1.98-6.41-2.9l2.11-1.2h-6.19l1.92.91c-2.31,1.33-5.83,2.56-8.6,3.24-.55-.76-1.71-2.09-2.46-2.72,2.15-.31,4.48-.84,6.26-1.44h-2.69l.79-7.52c-.56.1-1.14.18-1.75.26-.23-.81-.97-2.25-1.5-2.92,3.14-.31,5.08-.84,6.25-1.59h-1.57l-.1.18-3.4-.21c.75-1.38,1.61-3.37,2.25-5.04h4.86l.08-.78h-5.72l.23-2.14h5.72l.1-.99h3.42l-.1.99h2.3l.1-.99h3.58l-.1.99h5.41l-.53,5.07h-5.41l-.08.78h7.11s-.09.57-.12.91c-.29,1.78-.55,2.77-1.08,3.32-.47.47-1.14.68-1.72.73l-.29.03-.94,8.93h-3.06ZM144.86,218.15h2.19c.08-.26.13-.52.19-.78h-2.04l-.34.78ZM145.6,229.25l-.08.76h10.24l.08-.76h-10.24ZM145.88,226.59l-.08.73h10.24l.08-.73h-10.24ZM146.16,223.93l-.08.73h10.24l.08-.73h-10.24ZM149.86,220.3c-.3.57-.66,1.1-1.16,1.57h3.79l.16-1.57h-2.8ZM152.97,217.37h-2.3c-.03.26-.08.52-.11.78h2.33l.08-.78ZM150.89,215.23h2.3l.08-.78h-2.3l-.08.78ZM156.24,220.3l-.16,1.57h1.86c-.07-.34-.16-.68-.27-.94.54.08.96.11,1.25.08.21,0,.37,0,.54-.18.06-.11.13-.26.21-.52h-3.42ZM156.85,214.45l-.08.78h1.99l.08-.78h-1.99Z"/><path class="cls-2" d="M164.52,230.98c5.32-4.41,8.96-7.94,9.26-10.76.19-1.78-.71-2.74-2.25-2.74-1.33,0-2.47.89-3.49,1.88l-2.27-2.51c2.12-2.01,4-3,6.77-3,3.76,0,6.12,2.4,5.73,6.11-.35,3.34-3.61,7.03-6.91,10.03.98-.13,2.33-.26,3.19-.26h3.58l-.41,3.92h-13.48l.28-2.66Z"/><path class="cls-2" d="M183.81,233.46c-1.44,0-2.67-.94-2.5-2.61.16-1.57,1.55-2.61,3.17-2.61,2.04,0,2.99,1.62,2.7,4.33-.35,3.37-2.58,5.9-6.3,7l-.68-2.48c2.33-.78,3.68-2.17,3.83-3.63h-.24Z"/><path class="cls-2" d="M192.6,228.91c.58.71,1.71,1.33,2.84,1.33,1.99,0,3.7-1.41,4.33-5.67-1.07,1.25-2.79,1.96-3.92,1.96-3.27,0-5.49-1.93-5.05-6.11.43-4.13,3.62-6.58,7.09-6.58,3.68,0,6.97,2.79,6.23,9.85-.74,7.05-4.79,10.31-8.76,10.31-2.61,0-4.38-1.1-5.48-2.32l2.72-2.77ZM200.02,221.44c-.05-3.21-1.19-4.13-2.39-4.13s-2.36.86-2.6,3.11c-.22,2.09.75,2.85,2.05,2.85.94,0,2.04-.5,2.93-1.83Z"/><path class="cls-2" d="M205.97,228.81c.26-2.43,1.8-3.94,3.7-4.91v-.13c-1.38-1.12-2.24-2.61-2.03-4.67.34-3.24,3.11-5.25,6.72-5.25s5.61,2.04,5.28,5.2c-.19,1.85-1.48,3.4-2.91,4.31v.13c1.74.96,2.98,2.58,2.7,5.25-.32,3-3.27,5.27-7.35,5.27-3.81,0-6.44-2.12-6.12-5.2ZM215.14,228.55c.18-1.7-1.23-2.43-3.5-3.45-.86.76-1.51,1.93-1.64,3.16-.17,1.59,1.02,2.51,2.53,2.51,1.33,0,2.45-.68,2.61-2.22ZM215.84,219.36c.15-1.41-.57-2.3-1.95-2.3-1.04,0-2.03.65-2.17,2.04-.16,1.54.95,2.38,2.78,3.13.82-.89,1.24-1.88,1.35-2.87Z"/><path class="cls-2" d="M222.22,223.82c.7-6.69,3.82-9.98,7.92-9.98s6.54,3.34,5.85,9.98c-.7,6.69-3.87,10.18-7.97,10.18s-6.5-3.5-5.8-10.18ZM231.59,223.82c.56-5.3-.45-6.4-1.83-6.4s-2.6,1.1-3.15,6.4c-.56,5.33.4,6.58,1.79,6.58s2.64-1.25,3.2-6.58Z"/><path class="cls-2" d="M260.84,231.84c-.2,1.93-.7,2.95-1.97,3.58-1.27.63-2.89.71-5.22.71-.04-1.07-.51-2.82-.96-3.79,1.35.1,3.07.08,3.57.08s.7-.16.75-.63l.57-5.38h-14.84l-1.02,9.69h-3.81l2.44-23.19h22.49l-1.99,18.94ZM243.13,222.65h5.33l.63-5.98h-5.33l-.63,5.98ZM257.97,222.65l.63-5.98h-5.72l-.63,5.98h5.72Z"/><path class="cls-2" d="M279.54,219.3h-5.46c-.28,1.91-.64,3.6-1.16,5.04-.68,1.96-2.89,7.81-3.98,10.79h-4.02c.88-2.38,3.56-9.53,4.31-11.7.41-1.15.74-2.53.96-4.13h-4l.4-3.81h4l.29-2.74h3.89l-.29,2.74h5.46l-.4,3.81ZM286.49,235.13h-6.69c-1.91,0-3.34-.58-4.27-1.67-.88-1.07-1.22-2.53-1.03-4.39l.16-1.54h3.81l-.16,1.54c-.06.58-.06,1.28.27,1.7.32.39,1.07.55,1.61.55h6.69l-.4,3.81ZM287.04,223.95h-9.33l.4-3.81h9.33l-.4,3.81ZM284.89,214.89h-2.77l.31-2.95h2.77l-.31,2.95ZM288.62,214.89h-2.77l.31-2.95h2.77l-.31,2.95Z"/><path class="cls-2" d="M291.56,235.13c-.67-2.12-.87-4.39-.63-6.69l1.6-15.25h3.87l-1.6,15.25c-.24,2.32.17,4.6.92,6.69h-4.15ZM312.99,221.08h-3.53l-.65,6.16c-.5,4.75-3.68,7.89-8.51,7.89h-.39l.4-3.81h.39c2.72,0,4.02-1.44,4.29-4.07l.65-6.16h-7.63l.4-3.81h7.63l.48-4.52h3.81l-.48,4.52h3.53l-.4,3.81Z"/><path class="cls-4" d="M335.95,217.55c-.45.03-.89.05-1.32.11-1.79.16-4.18,1.02-5.77,1.91-2.36,1.31-4.2,3.19-4.48,5.88-.58,5.48,4.93,5.51,9.03,5.51l-.4,3.81c-2.85,0-5.64,0-8.18-1.17-3.27-1.49-4.76-4.44-4.37-8.15.3-2.87,2.11-6.14,4.73-7.76h-8.33l.4-3.81h19.07l-.39,3.68ZM333.45,222.44h-2.77l.31-2.95h2.77l-.31,2.95ZM337.16,222.44h-2.74l.31-2.95h2.74l-.31,2.95Z"/><path class="cls-4" d="M86.53,270.21c-.49-1.56-.64-3.23-.46-4.93l1.18-11.24h2.81l-1.18,11.24c-.2,1.87.12,3.27.71,4.93h-3.06ZM101.82,259.07h-2.93l-.5,4.77c.92.54,1.84,1.13,2.7,1.77l-.35,3.31c-.92-.62-1.83-1.25-2.75-1.85-.55,1.98-2.31,3.33-4.33,3.33-2.27,0-3.79-1.69-3.55-3.96.24-2.31,2.31-3.66,4.46-3.66.39,0,.75.04,1.1.11l.4-3.83h-4.93l.3-2.81h4.93l.27-2.54h2.81l-.27,2.54h2.93l-.3,2.81ZM95.39,265.77c-.35-.17-.72-.29-1.13-.29-.64,0-1.3.29-1.38,1.02-.07.67.4,1.1,1.06,1.1.81,0,1.31-.6,1.39-1.35l.05-.48Z"/><path class="cls-4" d="M118.61,262.78c-.46,4.39-3.34,7.56-7.9,7.56-4.31,0-6.31-3.14-5.88-7.24l.95-9.06h2.93l-.95,9.06c-.25,2.37.65,4.43,3.25,4.43,3.18,0,4.51-2.06,4.81-4.96h2.81l-.02.21ZM116.36,257.45h-2.04l.23-2.19h2.04l-.23,2.19ZM119.11,257.45h-2.04l.23-2.19h2.04l-.23,2.19Z"/><path class="cls-4" d="M131.41,270.21h-.5l.29-2.81h.5c1.96,0,3.26-2.06,3.44-3.81.16-1.52-.46-2.94-1.69-3.71v.02c-1.19,2.5-2.65,4.91-4.03,7.35-1.02,1.83-2.05,2.89-4.23,2.89-1.19,0-2.2-.67-2.88-1.56-.93-1.23-1.14-2.93-.97-4.52.25-2.4,1.77-4.52,3.82-5.95-.02-.9.04-1.81.13-2.73l.11-1.02h2.81c-.08.79-.19,1.6-.21,2.39.71-.21,1.46-.33,2.19-.33.48,0,.96-.02,1.44,0,.13-.91.21-1.79.3-2.69h2.81l-.14,1.29c-.07.67-.14,1.35-.27,2.02,2.52,1.14,3.9,3.69,3.6,6.56-.35,3.33-2.99,6.62-6.55,6.62ZM125.47,261.36c-.72.77-1.2,1.69-1.3,2.69-.09.9-.04,2.02.5,2.71.22.29.6.56,1,.56.48,0,.66-.21.93-.58-.41-1.77-.84-3.56-1.13-5.39ZM129.91,259.22c-.6,0-1.21.13-1.79.37.13,1.17.35,2.31.6,3.44.71-1.25,1.42-2.52,2.06-3.81h-.87Z"/><path class="cls-4" d="M153.77,266.69c-1.34,2.5-3.99,3.52-6.59,3.52h-5.02l.29-2.81h5.02c1.75,0,3.91-.71,4.13-2.81.17-1.63-1.06-2.58-2.58-2.58h-.62c-.91,0-1.68.4-2.41.96-.94.69-1.84,1.42-2.71,2.17h-2.17l.74-7.06h2.91l-.3,2.81c1.18-.94,2.51-1.69,3.97-1.69,1.16,0,2.08-.02,3.13.42,1.97.83,3.08,2.75,2.85,4.96-.07.71-.29,1.44-.64,2.1ZM152.83,257.76l-2.68-.9c-.69-.23-1.73-.35-2.48-.35h-4.77l.3-2.81h4.77c2.04,0,3.32.48,5.17,1.11l-.31,2.94Z"/><path class="cls-4" d="M173.08,270.21h-.96c-2.25,0-3.41-1.04-3.17-3.37l.84-8.02c.06-.56-.22-1.04-.8-1.04-.65,0-1.08.37-1.54.79-1.39,1.27-2.72,2.62-4.05,3.93l-.81,7.72h-2.91l.49-4.64-3.04,2.89.43-4.08,3.04-2.89.25-2.37h-2.73l.3-2.81h2.73l.27-2.6h2.91l-.49,4.66c.72-.66,1.41-1.31,2.13-1.96,1.02-.92,2.12-1.46,3.44-1.46,2.29,0,3.42,1.73,3.19,3.91l-.82,7.77c-.1.96.94.77,1.59.77l-.29,2.81Z"/><path class="cls-4" d="M189.34,267.27c-1.52,2.23-4.24,2.94-6.66,2.94h-2.06c-2.25,0-3.79-1.27-3.55-3.62.21-1.96,2-3.27,3.88-3.27h.42c1.85,0,3.26,1,3.05,3-.03.33-.13.67-.28.98,1.44-.15,3.12-.9,3.29-2.56.16-1.54-.94-2.56-2.43-2.56h-3.41c-1.4,0-2.2.39-3.4,1.19l-2.44,1.62.37-3.5,7.13-4.98h-5.54l.3-2.81h10.95l-.24,2.29-4.88,3.39h1.64c2.94,0,5.08,2.42,4.77,5.37-.09.89-.4,1.75-.92,2.52ZM181.15,266h-.52c-.42,0-.74.31-.79.71-.04.42.27.69.7.69h.98c.23-.21.29-.4.32-.69.04-.4-.31-.71-.7-.71Z"/><path class="cls-4" d="M202.14,270.21h-.54l.28-2.69h.54c.77,0,1.61-.33,2.26-.81.65-.5.97-1.17,1.05-1.96.17-1.6-1.1-2.54-2.6-2.54h-2.08l-.54,5.12c-.17,1.64-1.49,2.87-3.13,2.89h-.42c-2.91.02-4.09-2.62-3.82-5.21.16-1.54.88-2.87,2.09-3.96.72-.67,2.3-1.39,3.28-1.4l.2-1.94h-3.66l.25-2.42h3.66l.16-1.54h2.81l-.16,1.54h3.77l-.25,2.42h-3.77l-.19,1.83c1.42,0,2.9-.13,4.22.35,2.1.73,3.23,2.6,2.99,4.89-.35,3.35-3.19,5.47-6.41,5.47ZM198.22,262.38c-1.22.12-2.13,1.56-2.24,2.66-.1.9.06,2.58,1.27,2.58.23,0,.44-.15.47-.4l.51-4.83ZM209.88,259.15h-2.81c.32-3.02.36-2.54-.66-4.93h3.08c.52,1.06.72,1.77.58,3.04l-.2,1.89Z"/><path class="cls-4" d="M218.79,257.93c-.59.81-1.25,1.65-1.99,2.46l-1.11,10.54h-2.71l.79-7.56c-.53.46-1.06.89-1.57,1.25-.13-.64-.63-2.23-.96-2.93,1.8-1.15,3.89-3,5.22-4.81l2.34,1.04ZM218.84,253.76c-1.56,1.85-3.8,3.79-5.8,4.98-.22-.64-.75-1.79-1.12-2.39,1.58-.88,3.43-2.44,4.37-3.67l2.54,1.08ZM229.06,266.05h-2.5l-.23,2.21c-.13,1.21-.41,1.87-1.28,2.25-.85.39-1.83.4-3.08.4-.04-.71-.29-1.67-.54-2.35l-1.59,1.04c-.33-.71-1.17-1.83-1.86-2.62l1.5-.94h-2.46l.25-2.35h6.72l.08-.77h-6.2l.24-2.27h11.1l-.24,2.27h-2.08l-.08.77h2.5l-.25,2.35ZM228.8,260.09h-9.8l.72-6.89h9.8l-.72,6.89ZM223.73,266.05h-3.33c.62.67,1.32,1.5,1.66,2.1l-.45.31c.59.02,1.31.02,1.52.02.27-.02.35-.08.38-.29l.22-2.14ZM226.24,257.53h-4.27l-.07.64h4.27l.07-.64ZM226.49,255.12h-4.27l-.06.62h4.27l.06-.62Z"/><path class="cls-4" d="M239.93,258.55h-2.66c-.21,1.11-.5,2.21-.87,3.29-.67,1.98-1.46,3.96-2.2,5.93h-2.91c.82-2.17,1.69-4.37,2.44-6.56.29-.88.53-1.77.7-2.65h-2.69l.3-2.81h2.75l.21-2.02h2.81l-.21,2.02h2.62l-.3,2.81ZM246.41,268.54c-.91-.52-1.82-1.04-2.72-1.58-.52,2-2.22,3.33-4.24,3.33s-3.77-1.67-3.54-3.83c.25-2.4,2.2-3.77,4.5-3.77.31,0,.67.06.97.13l.74-7.08h5.33l-.3,2.81h-2.52l-.55,5.23c.91.5,1.78,1.04,2.66,1.56l-.34,3.19ZM241.07,265.69c-.33-.17-.7-.31-1.08-.31-.69,0-1.25.33-1.32,1.06-.07.64.45,1.04,1.06,1.04.69,0,1.22-.6,1.29-1.27l.05-.52Z"/><path class="cls-4" d="M264.64,262.86h-5.43c-.67,4.5-3.68,7.41-8.27,7.41h-.89l.31-2.93c1.02,0,2.02.02,3.01-.4,1.69-.73,2.5-2.41,2.76-4.08h-6.83l.31-2.92h6.83l.21-2h-4.37l.31-2.93h6.18c1.91,0,3.15-.31,4.94-1.08l-.33,3.17c-1.18.44-2.4.69-3.62.77l-.22,2.06h5.41l-.31,2.92Z"/><path class="cls-4" d="M280.02,261.49c-.09.89-.31,1.44-.9,2.16l-1.17,1.42h-3.04l1.95-2.66c.16-.21.38-.52.41-.79l.02-.23h-3.85l-.12,8.14h-2.85l.13-8.14h-2.04l.28-2.69h1.79l.05-2.1h2.83l-.03,2.1h6.83l-.29,2.79Z"/><path class="cls-4" d="M297.9,257.22c-.19,1.77-.48,3.48-1.14,5.2-2.1,5.33-6.51,7.74-11.88,7.74h-1.41l.31-2.93h1.21c1.48,0,2.79-.21,4.22-.79,4.12-1.67,5.18-5.35,5.59-9.22h3.1ZM290.73,257.45h-6.33l.31-2.93h6.33l-.31,2.93Z"/><path class="cls-4" d="M314.08,270.21h-3.6l-2.78-4.52c-2.22,2.08-4.87,3.83-7.86,4.83l.34-3.23c2.55-1.02,4.55-2.46,6.28-4.23,2.09-2.15,3.23-4.04,3.63-5.66h-8.2l.31-2.93h11.66l-.17,1.62c-.56,2.42-1.85,4.93-3.81,7.29l4.19,6.83Z"/><path class="cls-4" d="M323.19,269.88h-3.1l.29-2.79h3.1l-.29,2.79ZM323.64,265.55h-3.1l1.24-11.84h3.1l-1.24,11.84Z"/><path class="cls-4" d="M335.77,269.88h-3.1l.29-2.79h3.1l-.29,2.79ZM336.23,265.55h-3.1l1.24-11.84h3.1l-1.24,11.84Z"/><path class="cls-1" d="M112.95,303.42h-9.54l.21-2.01h3.71l.63-6.03h-3.53l.21-2.01h9.17l-.21,2.01h-3.53l-.63,6.03h3.71l-.21,2.01Z"/><path class="cls-1" d="M125.26,303.85h-2.47l-1.91-3.11c-1.52,1.43-3.34,2.63-5.4,3.32l.23-2.22c1.75-.7,3.12-1.69,4.31-2.91,1.44-1.48,2.22-2.78,2.5-3.89h-5.63l.21-2.01h8.01l-.12,1.11c-.39,1.67-1.27,3.38-2.61,5.01l2.88,4.69Z"/><path class="cls-1" d="M137.46,298.33h-3.3c-.35,3.3-2.43,5.45-5.82,5.45h-.36l.21-2.01h.36c2.14,0,3.27-1.31,3.48-3.36v-.08s-4.39,0-4.39,0l.21-2.01h9.82l-.21,2.01ZM137.2,295.04h-8.62l.21-2.01h8.62l-.21,2.01Z"/><path class="cls-1" d="M148.77,294.36c-.14.34-.27.7-.41,1.06-.53,1.28-1.59,1.8-2.8,2.29l-.61,5.8h-1.93l.52-4.97-3.53,1.44.21-2.01,3.51-1.44c.59-.24,1.19-.48,1.77-.73.96-.42,1.01-.58,1.35-1.44h1.93Z"/><path class="cls-1" d="M160.73,295.36c-.33,3.09-2.1,6.15-5.12,7.51-1.35.61-2.57.73-3.96.73l.21-2.01c1.03,0,1.98-.08,2.98-.53,1.47-.66,2.54-1.92,3.17-3.37.37-.86.54-1.73.63-2.62h-6.86l.21-2.01h8.99l-.24,2.3Z"/><path class="cls-1" d="M171.77,294.36c-.14.34-.27.7-.41,1.06-.53,1.28-1.59,1.8-2.8,2.29l-.61,5.8h-1.93l.52-4.97-3.53,1.44.21-2.01,3.51-1.44c.59-.24,1.19-.48,1.77-.73.96-.42,1.01-.58,1.35-1.44h1.93Z"/><path class="cls-1" d="M176.52,298.43h-1.85l.38-3.66h1.85l-.38,3.66ZM182.89,296.47c-.28,2.66-1.52,5.33-4.22,6.48-1.22.52-2.32.56-3.55.56l.19-1.85h.63c3.17,0,4.69-2.29,5-5.18l.18-1.71h1.94l-.18,1.71ZM179.05,298.43h-1.85l.38-3.66h1.85l-.38,3.66Z"/><path class="cls-1" d="M193.88,299.31h-3.45c-.85,0-1.46-.17-2.02-.57l-.54,5.1h-2.11l1.19-11.33h2.11l-.4,3.83c.58.42.74.54.74.54.39.28.8.41,1.41.41h3.28l-.21,2.01Z"/><path class="cls-1" d="M205.52,301.88l-3.34-1.4-.35,3.34h-2.11l.35-3.3c-1.4.66-2.67,1.08-3.72,1.36l.22-2.1c2.72-.78,5.5-2.33,6.77-3.86h-6.07l.21-2.01h3.28l.16-1.48h2.11l-.16,1.48h3.33l-.14,1.38c-.31.83-1.36,2.15-2.89,3.36l2.58,1.07-.23,2.17Z"/><path class="cls-1" d="M217.8,303.85h-2.47l-1.91-3.11c-1.52,1.43-3.34,2.63-5.4,3.32l.23-2.22c1.75-.7,3.12-1.69,4.31-2.91,1.44-1.48,2.22-2.78,2.5-3.89h-5.63l.21-2.01h8.01l-.12,1.11c-.39,1.67-1.27,3.38-2.61,5.01l2.88,4.69Z"/><path class="cls-1" d="M229.9,295.28c-.5,4.75-3.57,8.54-8.6,8.54h-.61l.22-2.05h.5c.86,0,1.8-.18,2.62-.56.72-.32,1.33-.7,1.87-1.29,1.15-1.27,1.71-3.04,1.88-4.64l.02-.22h-3.34c-.67,1.81-2.37,3.3-4.2,3.85l.23-2.18c1.33-.66,2.13-1.76,2.28-3.17l.05-.5h7.32l-.23,2.23Z"/><path class="cls-1" d="M241.59,297.36c-.44,4.2-3.77,6.5-7.77,6.5h-.71l.21-2.01c1,0,1.87.01,2.89-.33,1.65-.57,2.87-1.82,3.15-3.54h-7.11l.21-2.01h9.28l-.15,1.39ZM241.12,295.04h-7.76l.21-2.01h7.76l-.21,2.01Z"/><path class="cls-1" d="M253.72,293.6h-.37c-.18,1.75-.24,3.04-.96,4.71-.86,2-2.35,3.66-4.36,4.56-1.33.61-2.56.73-3.95.73l.21-2.01c1.03,0,1.96-.08,2.96-.53,1.48-.66,2.55-1.92,3.18-3.37.37-.86.54-1.73.63-2.62h-6.87l.21-2.01h7.97l.1-.95h1.4l-.16,1.49ZM255.61,293.6h-1.4l.16-1.49h1.4l-.16,1.49Z"/><path class="cls-1" d="M93.57,320.85h-4.69c-2.52,0-3.75-1.64-3.49-4.11l.74-7.02h2.13l-.23,2.17h6.49l-.21,2.01h-6.49l-.3,2.84c-.14,1.3.33,2.1,1.7,2.1h4.57l-.21,2.01ZM93.69,310.8h-1.4l.16-1.49h1.4l-.16,1.49ZM95.58,310.8h-1.4l.16-1.49h1.4l-.16,1.49Z"/><path class="cls-1" d="M107.28,313.18c-.49,4.64-3.64,7.87-8.38,7.87h-1.35l.21-2.01h1.2c1.6,0,3.11-.38,4.35-1.59,1.27-1.23,1.66-2.62,1.83-4.24l.12-1.1h2.13l-.11,1.07ZM101.56,315.71h-4l.21-2.01h4l-.21,2.01ZM101.92,312.28h-4l.21-2.01h4l-.21,2.01ZM106.38,310.8h-1.4l.16-1.49h1.4l-.16,1.49ZM108.27,310.8h-1.4l.16-1.49h1.4l-.16,1.49Z"/><path class="cls-1" d="M119.09,312.48c-.5,4.75-3.57,8.54-8.6,8.54h-.61l.22-2.05h.5c1.55,0,3.35-.61,4.49-1.85.12-.13.23-.28.35-.42l-2.87-.61.22-2.05,3.66.77c.28-.75.44-1.55.52-2.33l.02-.22h-3.34c-.67,1.81-2.37,3.3-4.2,3.85l.23-2.18c1.33-.66,2.13-1.76,2.28-3.17l.05-.5h7.32l-.23,2.23Z"/><path class="cls-1" d="M121.7,314.04h9.75l-.25,2.35h-9.75l.25-2.35Z"/><path class="cls-1" d="M137.59,315.26c.62.49,1.72,1.49,2.01,1.76l-1.26,1.67c-.25-.37-.6-.85-.97-1.31l-.44,4.16h-1.88l.44-4.18c-.62,1.02-1.3,1.96-2.01,2.63-.13-.57-.52-1.39-.77-1.9.98-.86,1.98-2.19,2.67-3.42h-2.01l.19-1.77h2.39l.13-1.28c-.7.13-1.4.24-2.06.33-.03-.44-.23-1.1-.4-1.49,1.93-.3,4.02-.82,5.39-1.41l1.19,1.47c-.69.27-1.44.49-2.21.69l-.18,1.71h2.1l-.19,1.77h-2.1l-.06.6ZM141.76,318.11h-1.86l.79-7.49h1.86l-.79,7.49ZM145.79,309.24l-1.05,10.02c-.11,1.07-.36,1.59-1.01,1.9-.65.3-1.61.37-2.83.37-.02-.55-.23-1.45-.45-2,.83.04,1.7.04,1.99.04.25,0,.37-.08.39-.33l1.05-10h1.9Z"/><path class="cls-1" d="M157.7,319.39c-.1.95-.35,1.45-.96,1.74-.64.3-1.46.34-2.64.33-.01-.52-.21-1.35-.41-1.84.64.05,1.5.04,1.74.04s.34-.08.36-.3l.17-1.59h-2.35l-.38,3.58h-1.94l.38-3.58h-2.38c-.4,1.44-1.05,2.86-2.08,3.85-.27-.36-.99-1.01-1.39-1.24,1.6-1.57,1.96-3.95,2.16-5.82l.5-4.72h10.24l-1,9.54ZM151.85,315.97l.14-1.31h-2.13c-.04.41-.1.85-.18,1.31h2.17ZM150.18,311.68l-.13,1.2h2.13l.13-1.2h-2.13ZM156.15,315.97l.14-1.31h-2.35l-.14,1.31h2.35ZM156.6,311.68h-2.35l-.13,1.2h2.35l.13-1.2Z"/><path class="cls-1" d="M170.65,318.02l-.37,3.52h-1.8l.33-3.19-3.53.62-.09-1.65-1.23,1.4c-.13-.38-.36-.88-.59-1.39l-.44,4.18h-1.77l.45-4.27c-.5,1.14-1.08,2.22-1.66,2.99-.1-.59-.41-1.47-.63-2.01.69-.74,1.4-1.98,1.89-3.05h-1.31l.19-1.79h1.93l.45-4.31h1.77l-.39,3.7c.33-.87.73-2.17.95-3.09l1.56.33c-.46,1.11-.98,2.38-1.38,3.17l-1.15-.3-.05.5h1.84l-.19,1.79h-1.84v.05c.36.33,1.33,1.53,1.63,1.94l3.78-.66.79-7.52h1.8l-.76,7.2,1.27-.22.09,1.78-1.55.28ZM160.56,313.26c.08-.85-.01-2.17-.2-3.16l1.36-.34c.23.99.33,2.29.29,3.13l-1.45.37ZM166.6,312.84c.71.41,1.65,1.06,2.07,1.55l-1.13,1.53c-.38-.5-1.29-1.23-1.99-1.71l1.04-1.38ZM168.33,312.61c-.34-.52-1.19-1.24-1.87-1.73l1.06-1.29c.68.44,1.56,1.1,1.95,1.59l-1.14,1.44Z"/><path class="cls-1" d="M182.99,317.74c-.53.65-1.06,1.32-1.51,1.82h2.7l-.17,1.64h-11.19l.17-1.64h2.37c-.17-.57-.47-1.31-.79-1.88l1.02-.41h-1.65l.17-1.64h3.78l.11-1.06h-2.27l.06-.58c-.64.42-1.3.81-1.97,1.15-.19-.45-.67-1.16-1.04-1.56,2.37-1.08,4.67-3.08,5.79-4.65h2.01c1.22,2.06,3.1,3.67,5.13,4.49-.53.49-1.03,1.14-1.45,1.73-.6-.34-1.2-.75-1.79-1.2l-.07.62h-2.35l-.11,1.06h3.82l-.17,1.64h-1.81l1.23.46ZM176.32,317.28c.36.61.72,1.34.84,1.86l-1.01.42h1.32l.24-2.29h-1.39ZM181.23,312.92c-.73-.7-1.37-1.43-1.79-2.1-.56.69-1.31,1.41-2.18,2.1h3.96ZM179.75,317.28l-.24,2.29h.98l-.67-.29c.43-.54.96-1.33,1.31-2h-1.38Z"/><path class="cls-1" d="M192.32,318.79c-.13,1.24-1.05,2.08-2.3,2.08h-.56l.16-1.48h.56c.43,0,.62-.18.66-.6l.28-2.64c.05-.49-.14-.78-.65-.78h-.8c-.1.61-.24,1.21-.46,1.79-.44,1.18-.91,2.35-1.35,3.53h-1.54c.5-1.31,1.02-2.61,1.52-3.92.17-.46.28-.92.36-1.4h-1.59l.16-1.48h1.61l.18-1.71h1.48l-.18,1.71c.58,0,1.16-.05,1.68.18.81.35,1.16,1.19,1.07,2.08l-.28,2.64ZM194.22,313.01h-1.07l.12-1.15h1.07l-.12,1.15ZM194.97,317.69h-1.48l.27-2.57c.08-.78-.18-1.15-.53-1.76h1.76c.24.5.31,1.19.25,1.76l-.27,2.57ZM195.66,313.01h-1.06l.12-1.15h1.06l-.12,1.15Z"/><path class="cls-1" d="M196.3,318.39h2.09l.59-5.59h-1.81l.15-1.45c1.08-.2,1.79-.46,2.52-.88h1.73l-.83,7.93h1.77l-.2,1.9h-6.21l.2-1.9Z"/><path class="cls-1" d="M205.52,320.2c-.73,0-1.35-.48-1.26-1.32.08-.79.79-1.32,1.61-1.32,1.03,0,1.51.82,1.37,2.19-.18,1.71-1.3,2.99-3.19,3.54l-.34-1.26c1.18-.4,1.86-1.1,1.94-1.84h-.12Z"/><path class="cls-1" d="M208.85,315.32c.36-3.38,1.93-5.05,4.01-5.05s3.31,1.69,2.96,5.05c-.36,3.38-1.96,5.16-4.03,5.16s-3.29-1.77-2.93-5.16ZM213.59,315.32c.28-2.68-.23-3.24-.93-3.24s-1.31.55-1.6,3.24c-.28,2.7.2,3.33.9,3.33s1.34-.63,1.62-3.33Z"/><path class="cls-1" d="M217.13,315.32c.36-3.38,1.93-5.05,4.01-5.05s3.31,1.69,2.96,5.05c-.36,3.38-1.96,5.16-4.03,5.16s-3.29-1.77-2.93-5.16ZM221.87,315.32c.28-2.68-.23-3.24-.93-3.24s-1.31.55-1.6,3.24c-.28,2.7.2,3.33.9,3.33s1.34-.63,1.62-3.33Z"/><path class="cls-1" d="M225.4,315.32c.36-3.38,1.93-5.05,4.01-5.05s3.31,1.69,2.96,5.05c-.36,3.38-1.96,5.16-4.03,5.16s-3.29-1.77-2.93-5.16ZM230.15,315.32c.28-2.68-.23-3.24-.93-3.24s-1.31.55-1.6,3.24c-.28,2.7.2,3.33.91,3.33s1.33-.63,1.62-3.33Z"/><path class="cls-1" d="M245,319.38c-.1.98-.36,1.49-1,1.81-.64.32-1.46.36-2.64.36-.02-.54-.26-1.43-.49-1.92.68.05,1.56.04,1.81.04s.35-.08.38-.32l.29-2.72h-7.51l-.52,4.9h-1.93l1.23-11.74h11.38l-1.01,9.58ZM236.04,314.73h2.7l.32-3.03h-2.7l-.32,3.03ZM243.54,314.73l.32-3.03h-2.89l-.32,3.03h2.89Z"/><path class="cls-1" d="M253.28,315.34s-.07.53-.14.78c-.49,2.82-.87,4.12-1.42,4.67-.46.46-.9.61-1.52.67-.48.07-1.28.07-2.08.05.03-.62-.18-1.47-.5-2.02.75.07,1.58.08,1.95.08.25,0,.43-.03.62-.16.26-.2.5-.91.78-2.3h-2.23l-.18.6-1.9-.3c.45-1.34.98-3.33,1.33-4.97h3.55l.12-1.16h-3.81l.19-1.78h5.71l-.5,4.73h-3.74c-.11.38-.2.75-.29,1.12h4.04ZM258.34,309.23l-1.29,12.32h-1.94l1.29-12.32h1.94Z"/><path class="cls-1" d="M264,320.82h-2.13l.2-1.92h2.13l-.2,1.92ZM264.31,317.85h-2.13l.85-8.13h2.13l-.85,8.13Z"/><path class="cls-1" d="M44.66,351.53c.37.84,1.13,1.18,2.38,1.23,1.66.08,4.89.04,6.9-.13-.26.44-.65,1.34-.8,1.89-1.76.09-4.61.12-6.31.04-1.52-.07-2.47-.42-3.15-1.43-.63.49-1.26.98-2.07,1.54l-.68-1.94c.58-.31,1.25-.67,1.86-1.07l.27-2.61h-1.58l.19-1.79h3.43l-.45,4.28ZM44.28,345.77c-.36-.63-1.29-1.55-2.04-2.17l1.47-1.26c.76.55,1.74,1.39,2.17,2.02l-1.59,1.4ZM47.39,352.36h-1.82l.73-6.92h2.5c-.43-.2-.88-.4-1.26-.56l1.28-.96h-2.17l.15-1.44h5.94l.38-.09,1.04.92c-.69.6-1.55,1.24-2.42,1.79.24.12.47.24.66.35h1.59l-.56,5.32c-.08.75-.24,1.14-.75,1.39-.48.25-1.08.27-1.83.27-.02-.47-.15-1.1-.31-1.51.31.01.72.01.84.01.15,0,.19-.05.21-.19l.03-.25h-1.16l-.19,1.83h-1.72l.19-1.83h-1.14l-.2,1.88ZM48.87,349.1l.05-.49h-1.14l-.05.49h1.14ZM47.98,346.81l-.05.47h1.14l.05-.47h-1.14ZM49.03,343.91c.37.13.8.31,1.22.48.24-.15.49-.31.72-.48h-1.94ZM51.76,349.1l.05-.49h-1.16l-.05.49h1.16ZM50.84,346.81l-.05.47h1.16l.05-.47h-1.16Z"/><path class="cls-1" d="M67.59,343.78l-.36,3.44h-1.94l.19-1.78h-7.95l-.19,1.78h-1.86l.36-3.44h1.63c-.13-.32-.3-.67-.49-.95l1.85-.7c.32.4.62.96.74,1.36l-.69.28h1.72l.18-1.71h2.02l-.18,1.71h1.8l-.65-.23c.35-.4.77-.96,1.01-1.38l2.05.6c-.39.38-.74.72-1.07,1h1.8ZM65.93,352.51c-.09.84-.31,1.32-.94,1.6-.63.27-1.38.28-2.29.28-.04-.54-.23-1.28-.43-1.77.48.03,1.2.03,1.37.03.2,0,.27-.04.29-.19l.1-.96h-2l-.34,3.28h-2.02l.34-3.28h-2.11l-.28,2.69h-1.98l.46-4.41h4.09l.07-.63h-2.75l.34-3.25h7.23l-.34,3.25h-2.46l-.07.63h4.01l-.29,2.73ZM59.5,347.82h3.38l.06-.58h-3.38l-.06.58Z"/><path class="cls-1" d="M67.8,352.31l1.25-1.5c.54.57,1.2.96,1.97.96.92,0,1.57-.39,1.64-1.14.09-.86-.31-1.36-2.4-1.36l.18-1.67c1.7,0,2.29-.52,2.37-1.31.07-.68-.29-1.06-1.02-1.06-.67,0-1.21.31-1.87.83l-1.05-1.46c1-.78,2.04-1.23,3.22-1.23,2.06,0,3.31.96,3.12,2.74-.1.99-.72,1.76-1.83,2.19v.07c1.07.33,1.8,1.14,1.66,2.42-.2,1.86-2,2.9-3.98,2.9-1.58,0-2.63-.55-3.26-1.39Z"/><path class="cls-1" d="M77.77,353.42c-.74,0-1.37-.48-1.28-1.34.08-.8.8-1.34,1.62-1.34,1.04,0,1.53.83,1.38,2.22-.18,1.72-1.32,3.02-3.22,3.58l-.35-1.27c1.19-.4,1.88-1.11,1.96-1.86h-.12Z"/><path class="cls-1" d="M80.86,352.32l1.24-1.5c.51.54,1.16.95,1.94.95.96,0,1.62-.52,1.73-1.55.11-1-.44-1.54-1.29-1.54-.55,0-.83.11-1.45.48l-.97-.68.77-4.92h5.59l-.21,1.98h-3.54l-.32,1.68c.38-.15.68-.2,1.05-.2,1.68,0,3,.99,2.77,3.14-.23,2.23-2.06,3.53-3.97,3.53-1.59,0-2.62-.6-3.33-1.38Z"/><path class="cls-1" d="M89.62,348.48c.36-3.42,1.95-5.11,4.05-5.11s3.35,1.71,2.99,5.11c-.36,3.42-1.98,5.21-4.08,5.21s-3.33-1.79-2.97-5.21ZM94.42,348.48c.29-2.71-.23-3.28-.94-3.28s-1.33.56-1.61,3.28c-.29,2.73.21,3.37.92,3.37s1.35-.64,1.64-3.37Z"/><path class="cls-1" d="M97.98,348.48c.36-3.42,1.95-5.11,4.05-5.11s3.35,1.71,2.99,5.11c-.36,3.42-1.98,5.21-4.08,5.21s-3.33-1.79-2.97-5.21ZM102.78,348.48c.29-2.71-.23-3.28-.94-3.28s-1.33.56-1.61,3.28c-.29,2.73.21,3.37.92,3.37s1.35-.64,1.64-3.37Z"/><path class="cls-1" d="M117.8,352.59c-.1.99-.36,1.51-1.01,1.83-.65.32-1.48.36-2.67.36-.02-.55-.26-1.44-.49-1.94.69.05,1.57.04,1.83.04s.36-.08.38-.32l.29-2.75h-7.59l-.52,4.96h-1.95l1.25-11.87h11.51l-1.02,9.69ZM108.74,347.88h2.73l.32-3.06h-2.73l-.32,3.06ZM116.33,347.88l.32-3.06h-2.93l-.32,3.06h2.93Z"/><path class="cls-1" d="M134.65,351.53c-.17,1.63-1.38,2.74-3.03,2.74h-.74l.21-1.95h.74c.56,0,.81-.24.87-.79l.37-3.48c.07-.64-.19-1.03-.85-1.03h-1.06c-.12.8-.31,1.59-.61,2.37-.58,1.55-1.19,3.1-1.79,4.65h-2.03c.66-1.72,1.35-3.45,2-5.17.22-.6.37-1.22.47-1.84h-2.1l.21-1.95h2.12l.24-2.26h1.95l-.24,2.26c.76,0,1.53-.07,2.22.24,1.07.47,1.53,1.56,1.41,2.74l-.37,3.48ZM137.17,343.91h-1.42l.16-1.51h1.42l-.16,1.51ZM138.16,350.07h-1.95l.36-3.38c.11-1.03-.24-1.51-.7-2.33h2.33c.32.66.41,1.56.33,2.33l-.36,3.38ZM139.06,343.91h-1.4l.16-1.51h1.4l-.16,1.51Z"/><path class="cls-3" d="M144.02,352.38c4.3-3.56,7.23-6.41,7.47-8.68.15-1.43-.57-2.21-1.81-2.21-1.08,0-1.99.72-2.82,1.52l-1.83-2.02c1.71-1.62,3.23-2.42,5.46-2.42,3.04,0,4.94,1.94,4.63,4.93-.28,2.7-2.92,5.67-5.57,8.09.79-.11,1.88-.21,2.57-.21h2.89l-.33,3.16h-10.88l.23-2.15Z"/><path class="cls-3" d="M159.63,354.39c-1.16,0-2.15-.76-2.01-2.11.13-1.26,1.25-2.11,2.56-2.11,1.65,0,2.41,1.31,2.18,3.5-.29,2.72-2.08,4.76-5.09,5.65l-.55-2c1.88-.63,2.97-1.75,3.09-2.93h-.19Z"/><path class="cls-3" d="M164.44,352.66l1.96-2.36c.8.84,1.83,1.5,3.07,1.5,1.52,0,2.55-.82,2.72-2.45.17-1.58-.69-2.42-2.04-2.42-.87,0-1.3.17-2.29.76l-1.53-1.07,1.22-7.76h8.81l-.33,3.12h-5.59l-.51,2.66c.59-.23,1.07-.32,1.66-.32,2.66,0,4.73,1.56,4.37,4.95-.37,3.52-3.24,5.56-6.26,5.56-2.51,0-4.14-.95-5.25-2.17Z"/><path class="cls-3" d="M178.21,346.61c.57-5.4,3.08-8.05,6.39-8.05s5.28,2.7,4.72,8.05c-.57,5.4-3.12,8.22-6.43,8.22s-5.25-2.82-4.68-8.22ZM185.78,346.61c.45-4.28-.36-5.17-1.48-5.17s-2.1.89-2.55,5.17c-.45,4.3.33,5.31,1.44,5.31s2.13-1.01,2.58-5.31Z"/><path class="cls-3" d="M191.36,346.61c.57-5.4,3.08-8.05,6.39-8.05s5.28,2.7,4.72,8.05c-.57,5.4-3.12,8.22-6.43,8.22s-5.25-2.82-4.68-8.22ZM198.93,346.61c.45-4.28-.36-5.17-1.48-5.17s-2.1.89-2.55,5.17c-.45,4.3.33,5.31,1.45,5.31s2.13-1.01,2.58-5.31Z"/><path class="cls-3" d="M214.71,353.68c-.1.91-.33,1.39-.93,1.69-.6.3-1.37.33-2.46.33-.02-.51-.24-1.33-.45-1.79.64.05,1.45.04,1.68.04s.33-.07.35-.3l.27-2.54h-7l-.48,4.58h-1.8l1.15-10.96h10.62l-.94,8.94ZM206.35,349.34h2.52l.3-2.83h-2.52l-.3,2.83ZM213.35,349.34l.3-2.83h-2.7l-.3,2.83h2.7Z"/><path class="cls-3" d="M221.64,355.2c-.89-1.22-1.54-3.01-1.3-5.35.25-2.34,1.27-4.13,2.42-5.35h1.97c-1.26,1.25-2.46,2.9-2.72,5.35-.26,2.46.59,4.11,1.59,5.35h-1.97Z"/><path class="cls-3" d="M228.87,352.24c-.09-.27-.24-.64-.41-1.01l-.47,4.48h-1.74l.4-3.81c-.41.75-.84,1.43-1.29,1.95-.11-.52-.41-1.27-.63-1.73.72-.75,1.45-1.92,1.98-3h-1.41l.18-1.67h1.64l.12-1.17c-.46.07-.92.15-1.35.2-.03-.39-.19-1-.35-1.37,1.38-.22,2.89-.59,3.91-1.02l1.04,1.38c-.46.17-.96.31-1.46.45l-.16,1.54h1.18l-.18,1.67h-1.18l-.02.15c.3.27,1.17,1.31,1.36,1.57l-1.16,1.41ZM234.85,353.94c.14,0,.2-.18.36-1.44.29.27,1,.57,1.44.68-.34,1.85-.82,2.37-1.78,2.37h-.69c-1.25,0-1.45-.53-1.29-2.04l.28-2.69h-.47c-.37,2.15-1.01,3.86-3.4,4.91-.14-.44-.55-1.1-.9-1.43,1.89-.75,2.29-1.95,2.55-3.48h-.84l.46-4.38h.8c-.14-.56-.44-1.25-.72-1.79l1.55-.64c.39.64.79,1.49.91,2.1l-.79.33h2.64l-.94-.36c.41-.58.9-1.44,1.18-2.11l1.79.59c-.48.69-.96,1.37-1.35,1.88h1.01l-.46,4.38h-1.29l-.28,2.68c-.04.41-.03.44.06.44h.16ZM234.71,348h-2.59l-.13,1.27h2.59l.13-1.27Z"/><path class="cls-3" d="M240.84,352.63c.38.76,1.18,1.07,2.38,1.12,1.5.06,4.31.02,6.1-.14-.24.43-.62,1.3-.76,1.83-1.58.09-4.03.11-5.56.04-1.46-.06-2.4-.37-3.12-1.32-.55.44-1.12.89-1.84,1.42l-.67-1.88c.54-.28,1.14-.63,1.7-1l.24-2.29h-1.27l.17-1.65h3.02l-.41,3.87ZM240.25,347.29c-.3-.57-1.07-1.39-1.72-1.95l1.44-1.07c.65.51,1.47,1.27,1.83,1.84l-1.55,1.18ZM245.07,347.19c-.01-.35-.01-.7,0-1.06h-2.1l.18-1.69h3.62c-.23,3.37.08,6.37,2.57,7.67-.45.3-1.17.95-1.54,1.38-1.3-.85-2.04-2.1-2.41-3.59-.77,1.54-1.78,2.76-3.08,3.6-.22-.35-.85-1.05-1.23-1.36,1.78-.97,2.87-2.75,3.45-5.03l.52.07Z"/><path class="cls-3" d="M250.38,353.28c2.51-2.08,4.23-3.75,4.37-5.08.09-.84-.33-1.3-1.06-1.3-.63,0-1.17.42-1.65.89l-1.07-1.18c1-.95,1.89-1.42,3.19-1.42,1.78,0,2.89,1.13,2.71,2.89-.17,1.58-1.71,3.32-3.26,4.74.46-.06,1.1-.12,1.5-.12h1.69l-.19,1.85h-6.36l.13-1.26Z"/><path class="cls-3" d="M259.54,354.45c-.68,0-1.26-.44-1.18-1.23.08-.74.73-1.23,1.5-1.23.96,0,1.41.77,1.28,2.05-.17,1.59-1.22,2.79-2.97,3.31l-.32-1.17c1.1-.37,1.74-1.02,1.81-1.72h-.11Z"/><path class="cls-3" d="M266.54,347.18h-3.95l.19-1.83h6.29l-.14,1.33c-2.39,2.53-2.79,4.26-3.33,7.85h-2.21c.49-3.02,1.16-4.96,3.14-7.35Z"/><path class="cls-3" d="M268.86,353.44l1.14-1.38c.47.49,1.07.88,1.79.88.89,0,1.49-.48,1.59-1.43.1-.93-.41-1.42-1.19-1.42-.51,0-.76.1-1.34.44l-.9-.63.71-4.54h5.15l-.19,1.83h-3.27l-.3,1.56c.35-.14.62-.19.97-.19,1.55,0,2.76.91,2.56,2.9-.22,2.06-1.9,3.26-3.66,3.26-1.47,0-2.42-.56-3.07-1.27Z"/><path class="cls-3" d="M276.95,349.9c.33-3.16,1.8-4.71,3.74-4.71s3.09,1.58,2.76,4.71c-.33,3.16-1.83,4.81-3.76,4.81s-3.07-1.65-2.74-4.81ZM281.37,349.9c.26-2.5-.21-3.02-.87-3.02s-1.23.52-1.49,3.02c-.26,2.52.19,3.11.84,3.11s1.25-.59,1.51-3.11Z"/><path class="cls-3" d="M295.23,353.68c-.1.91-.33,1.39-.93,1.69-.6.3-1.37.33-2.46.33-.02-.51-.24-1.33-.45-1.79.64.05,1.45.04,1.68.04s.33-.07.35-.3l.27-2.54h-7l-.48,4.58h-1.8l1.15-10.96h10.62l-.94,8.94ZM286.88,349.34h2.52l.3-2.83h-2.52l-.3,2.83ZM293.88,349.34l.3-2.83h-2.7l-.3,2.83h2.7Z"/><path class="cls-3" d="M298.27,355.2h-1.97c1.27-1.25,2.46-2.9,2.72-5.35.26-2.46-.59-4.11-1.6-5.35h1.97c.9,1.22,1.55,3.01,1.3,5.35-.25,2.34-1.27,4.13-2.43,5.35Z"/><path class="cls-3" d="M306.45,355.03c-.3-1-.41-2.07-.3-3.16l.74-7h1.8l-.74,7c-.12,1.18.09,2.11.47,3.16h-1.97ZM314.92,354.45h-3.6c-1.52,0-2.5-1.11-2.34-2.62l.1-.97h1.8l-.1.97c-.05.52.21.81.73.81h3.6l-.19,1.8ZM315.42,347.62h-5.66l.19-1.8h5.66l-.19,1.8Z"/><path class="cls-1" d="M126.17,343.22c-.45-.46-1.08-.87-2.07-.87s-1.7.41-2.25.87l.08-.8c.54-.41,1.29-.75,2.24-.75s1.63.34,2.08.75l-.08.8Z"/><path class="cls-1" d="M122.89,346.89c-.04-.11-.1-.26-.17-.41l-.19,1.81h-.7l.16-1.54c-.17.3-.34.58-.52.79-.04-.21-.17-.51-.26-.7.29-.3.58-.78.8-1.21h-.57l.07-.67h.66l.05-.47c-.19.03-.37.06-.55.08-.01-.16-.08-.4-.14-.55.56-.09,1.16-.24,1.58-.41l.42.56c-.19.07-.39.12-.59.18l-.07.62h.48l-.07.67h-.48v.06c.12.11.47.53.54.63l-.47.57ZM125.3,347.58c.05,0,.08-.08.15-.58.12.11.4.23.58.27-.14.75-.33.96-.72.96h-.28c-.5,0-.58-.21-.52-.82l.11-1.09h-.19c-.15.87-.41,1.56-1.37,1.98-.06-.18-.22-.44-.36-.58.76-.3.92-.79,1.03-1.4h-.34l.19-1.77h.32c-.06-.22-.18-.5-.29-.72l.62-.26c.16.26.32.6.37.85l-.32.13h1.06l-.38-.14c.16-.23.36-.58.48-.85l.72.24c-.19.28-.39.55-.55.76h.41l-.19,1.77h-.52l-.11,1.08c-.02.17-.01.18.03.18h.06ZM125.25,345.18h-1.04l-.05.51h1.04l.05-.51Z"/><path class="cls-1" d="M123.26,350.9s-.02.17-.04.25c-.17,1.18-.27,1.67-.43,1.85-.13.14-.26.19-.43.22-.14.02-.37.03-.6.02.01-.19-.04-.45-.12-.62.18.02.36.02.45.02.07,0,.12,0,.17-.06.07-.08.14-.37.25-1.05h-.39c-.19.66-.5,1.28-1.07,1.73-.09-.18-.27-.41-.43-.53.71-.54.88-1.37,1-2.17h-.47l.19-1.8h2.1l-.19,1.8h-.92c-.02.11-.04.22-.06.34h1ZM121.86,349.93h.75l.06-.53h-.75l-.06.53ZM124.1,351.99h-.7l.3-2.85h.7l-.3,2.85ZM125.61,348.64l-.4,3.77c-.04.4-.14.6-.38.72-.25.11-.61.14-1.06.14,0-.21-.09-.55-.17-.75.31.01.64.01.75.01.09,0,.14-.03.15-.12l.4-3.77h.72Z"/><path class="cls-1" d="M125,354.4c-.54.41-1.29.75-2.24.75s-1.63-.34-2.08-.75l.08-.8c.45.46,1.08.87,2.07.87s1.7-.41,2.25-.87l-.08.8Z"/><polygon class="cls-2" points="7.08 103 7.08 129.75 60.42 76.42 33.66 76.42 7.08 103"/><path class="cls-3" d="M19.68,106.69c-.44.62-.53.75-1.11,1.51l-1.21-1.21c.57-.73.66-.84,1.12-1.49l-1.53-1.53-.34.34c.42.77.47,1.55.13,2.36l-1.41-1.41c-.08-.54-.13-.63-1.35-1.9l-.44-.46.95-.95c.52.52.59.59,1.02,1.04l.23-.23-1.43-1.43,1.26-1.26,1.43,1.43.57-.57,1.2,1.2-.57.57,1.36,1.36.47-.69,1.15,1.15-.46.71,2.39,2.39-1.26,1.26-2.18-2.18ZM24.48,104.13l-1.13,1.13c-.7-.42-1.06-.61-1.81-.93l1.26-1.26c.77.32,1.09.47,1.64.82l.69-.69-1.5-1.5-2.49,2.49-1.14-1.14,2.49-2.49-.44-.44-2.49,2.49-1.05-1.05,1.49-1.49-.52-.52-1.33,1.33-1.12-1.12,1.33-1.33-.56-.56,1.26-1.26.56.56,1.37-1.37,1.12,1.12-1.37,1.37.52.52,1.58-1.58,1.05,1.05-.56.56.44.44.56-.56,1.14,1.14-.56.56,1.46,1.46c.94.89.99,1.46.17,2.28l-1.01,1.01-1.05-1.05Z"/><path class="cls-3" d="M27.02,98.69l-4.27-4.27,1.77-1.77-.78-.78,1.28-1.28.78.78.47-.47-.78-.78,1.28-1.28.78.78,1.81-1.8,4.27,4.27.59-.59,1.19,1.19-1.35,1.35c.88.13,1.26.15,2.58.13l-1.98,1.98c-.84-.08-1.07-.11-2.29-.42l-1.59,1.59c.28,1.13.33,1.4.44,2.27l-1.97,1.97c.07-1.42.06-1.81-.13-2.58l-1.5,1.5-1.19-1.19.59-.59ZM26.57,94.69l-.86-.86-.46.46.86.86.46-.46ZM28.32,92.95l-.86-.86-.47.47.86.86.47-.47ZM28.79,96.92l-.98-.98-.46.46.98.98.46-.46ZM30.07,91.2l-.86-.86-.47.47.86.86.47-.47ZM30.54,95.17l-.98-.98-.47.47.98.98.47-.47ZM32.29,93.42l-.98-.98-.47.47.98.98.47-.47Z"/><path class="cls-3" d="M31.69,87.31l-1.31-1.31,1.24-1.24c.72-.71.9-.86,1.16-1,.69-.31.98-.2,2.25,1.07l5.08,5.08-1.55,1.55-4.72-4.72c-.71-.71-.9-.72-1.61,0l-.56.56Z"/><polygon class="cls-2" points="23.1 306.75 23.1 333.5 76.44 280.17 49.69 280.17 23.1 306.75"/><path class="cls-3" d="M33.26,309.04l-2.62,2.69-1.08-1.08,2.33-2.38-1.37-.81,1.31-1.31,1.35.79,1.91-1.95,1.06,1.06-1.64,1.68,2.23,1.32-1.32,1.32-2.15-1.34ZM35.11,314.34c-.72.2-1.47.02-1.97-.48-.34-.34-.46-.56-.87-1.52l1.28-1.28c.27.9.35,1.08.63,1.36.48.48,1.09.19,2.48-1.2.53-.53.93-.99,1.91-2.16l1.15,1.15c-.93,1.08-1.51,1.72-2.23,2.44-1.02,1.02-1.69,1.5-2.38,1.68Z"/><path class="cls-3" d="M37.32,302.98l-.75.75-1.06-1.06c2.44-2.38,2.6-2.53,4.52-4.26l1.08,1.08c-1.78,1.56-2.71,2.42-3.78,3.49ZM40.36,307.43l1.53-1.53c1.14-1.14,1.19-1.19,1.42-1.46.41-.48.51-.69.48-.95-.03-.24-.14-.46-.3-.62-.41-.41-1.01-.3-1.6.29-.46.46-.79,1.06-.92,1.68-.06.28-.08.5-.05.97l-1.1,1.1-2.8-2.8,1.19-1.19,1.49,1.49c.46-1.37.81-2.01,1.41-2.61,1.17-1.17,2.69-1.3,3.7-.29.7.7.96,1.64.69,2.53-.14.47-.38.85-.95,1.47-.28.3-.5.52-1.51,1.54l-1.54,1.54-1.16-1.16Z"/><path class="cls-3" d="M45.54,299.72c-.99-.99-1.96-2.15-3.16-3.78l1.19-1.19c1.28,1.82,1.86,2.51,3.38,4.03.14.14,1.17,1.13,2.2,2.1l-1.15,1.15c-1.43-1.31-1.82-1.67-2.46-2.31ZM44.53,294.52l3.45-3.45,1.12,1.12-3.45,3.45-1.12-1.12ZM49.95,299.16c-.6.1-1.28-.12-1.72-.56-.36-.36-.7-.92-.95-1.57l1.18-1.18c.23.71.38,1.01.64,1.28.28.28.57.35.91.24.23-.08.41-.21.78-.59.64-.64,1.03-1.04,1.48-1.55l1.12,1.12c-.37.4-1.24,1.29-1.57,1.63-.77.77-1.29,1.1-1.87,1.19Z"/><path class="cls-3" d="M49.53,288.26l1.69-1.69,4.33,4.99-1.06,1.06-4.96-4.36ZM54.68,293.1l1.34-1.34,1.31,1.3-1.34,1.34-1.31-1.3Z"/><path class="cls-1" d="M55.93,153.03c.27.04.46.05.84.05h.77c.33,0,.58-.01.84-.05-.03.34-.04.61-.04,1.2v2.35c.19.32.31.45.54.62.21.14.4.24.55.29.51.13,1.19.2,2.19.2,1.79,0,2.4-.03,4.6-.29-.14.4-.24.84-.32,1.31-1.44.07-2.55.09-4.4.09-1.12,0-1.99-.1-2.48-.27-.54-.2-.83-.41-1.28-.94-.08.08-.13.13-.18.17q-.39.4-1.22,1.07l-.59-1.21c.41-.19.92-.57,1.45-1.06v-2.34h-.56c-.27,0-.45.01-.7.06v-1.23ZM56.78,149c.79.69,1.38,1.29,1.9,1.99l-.91.89c-.64-.88-1.1-1.4-1.87-2.06l.88-.83ZM61.2,151.23c-.59-.41-.62-.42-.91-.57l.85-.5h-1.04c-.54,0-.79.01-1.14.05v-1.12c.35.04.69.07,1.31.07h3.56c.69,0,1.05-.02,1.24-.08l.56.68c-.18.11-.23.15-.55.42-.44.38-.98.76-1.42,1.05h.88c.55,0,.86-.01,1.12-.06-.03.3-.04.66-.04,1.28v3.39c0,.63-.04.85-.2,1.01-.2.19-.47.25-1.16.25-.1,0-.29,0-.5-.01-.03-.44-.1-.71-.25-1.04.3.04.55.07.73.07.24,0,.25-.02.25-.31v-.43h-1.65v.46c0,.61.01.88.07,1.22h-1.22c.04-.32.07-.65.07-1.22v-.46h-1.48v.56c0,.65.01.94.07,1.2h-1.24c.04-.3.05-.64.05-1.2v-3.48c0-.64-.01-.91-.04-1.29.34.04.66.06,1.23.06h.87ZM60.27,152.17v.72h1.48v-.72h-1.48ZM60.27,154.5h1.48v-.74h-1.48v.74ZM61.23,150.17c.4.28.5.34,1.14.83.78-.55.79-.56,1.1-.83h-2.24ZM62.84,152.88h1.65v-.72h-1.65v.72ZM64.49,153.76h-1.65v.74h1.65v-.74Z"/><path class="cls-1" d="M71.15,149.69c0-.31-.02-.56-.05-.79h1.3c-.03.23-.05.48-.05.79v.67h.85c.35-.47.59-.87.8-1.35l1.19.34c-.09.12-.14.21-.18.28-.32.47-.34.51-.52.74h.91c.66,0,.88-.01,1.18-.04-.03.29-.04.56-.04,1.03v.71c0,.3.01.52.06.78h-1.21v-1.45h-7.11v1.43h-1.21c.03-.27.04-.52.04-.79v-.73c0-.39-.01-.67-.04-.99.29.03.6.04,1.08.04h.92c-.27-.48-.43-.7-.74-1.06l1.17-.33c.43.57.58.81.88,1.39h.78v-.67ZM69.75,154.52c-.45,0-.75.01-1.05.03.02-.25.03-.43.03-.92v-.79c0-.36-.01-.65-.03-.88.3.02.66.03,1.06.03h4.15c.45,0,.76-.01,1.04-.03-.02.25-.03.48-.03.89v.78c0,.51.01.69.03.92-.34-.02-.68-.03-1.1-.03h-1.53v.65h2.52c.54,0,.84-.01,1.08-.04-.03.25-.04.51-.04.99v1.5c0,.8-.29.98-1.64.98-.14,0-.2,0-.74-.03-.04-.5-.09-.68-.26-1.09.42.06.76.08,1.06.08.32,0,.4-.04.4-.23v-1.09h-2.37v1.67c0,.52.01.83.06,1.17h-1.31c.04-.36.05-.67.05-1.17v-1.67h-2.17v1.3c0,.53.01.8.05,1.1h-1.3c.03-.34.05-.66.05-1.13v-1.46c0-.36-.01-.62-.04-.9.29.03.6.04,1.01.04h2.39v-.65h-1.38ZM69.9,152.88v.74h3.87v-.74h-3.87Z"/><path class="cls-1" d="M79.91,158.25c.07-.43.09-.86.09-1.43v-6.06h-.53c-.41,0-.73.02-1.13.07v-1.4c.34.05.58.07,1.1.07h1.01c.56,0,.73-.01,1.12-.06-.07.65-.09,1.16-.09,1.82v5.57c0,.58.02.98.09,1.43h-1.66Z"/><path class="cls-1" d="M86.01,158.25c.07-.43.09-.86.09-1.43v-6.06h-.53c-.41,0-.73.02-1.13.07v-1.4c.34.05.58.07,1.1.07h1.01c.56,0,.73-.01,1.12-.06-.07.65-.09,1.16-.09,1.82v5.57c0,.58.02.98.09,1.43h-1.66Z"/><path class="cls-1" d="M91.91,158.25c0,.95-.24,1.3-1.13,1.65l-.4-.58c.67-.19.83-.38.84-1.07h-.92v-1.61h1.62v1.61Z"/><path class="cls-1" d="M94.01,157.54c-.33-.33-.58-.71-.73-1.11-.29-.78-.43-1.64-.43-2.53,0-1.17.26-2.38.67-3.05.59-.99,1.58-1.53,2.81-1.53.94,0,1.74.31,2.32.89.33.33.58.71.73,1.11.29.77.43,1.65.43,2.55,0,1.35-.3,2.54-.81,3.26-.62.86-1.53,1.3-2.67,1.3-.94,0-1.73-.31-2.31-.89ZM97.52,156.69c.5-.52.77-1.54.77-2.83s-.28-2.28-.77-2.82c-.26-.3-.7-.46-1.2-.46-.53,0-.91.18-1.23.56-.48.57-.73,1.47-.73,2.67s.21,2.11.56,2.62c.34.48.8.72,1.41.72.48,0,.91-.17,1.19-.46Z"/><path class="cls-1" d="M102.02,157.54c-.33-.33-.58-.71-.73-1.11-.29-.78-.43-1.64-.43-2.53,0-1.17.26-2.38.67-3.05.59-.99,1.58-1.53,2.81-1.53.94,0,1.74.31,2.32.89.33.33.58.71.73,1.11.29.77.43,1.65.43,2.55,0,1.35-.3,2.54-.81,3.26-.62.86-1.53,1.3-2.67,1.3-.94,0-1.73-.31-2.31-.89ZM105.53,156.69c.49-.52.77-1.54.77-2.83s-.28-2.28-.77-2.82c-.26-.3-.7-.46-1.2-.46-.53,0-.91.18-1.23.56-.48.57-.73,1.47-.73,2.67s.21,2.11.56,2.62c.34.48.8.72,1.41.72.48,0,.91-.17,1.19-.46Z"/><path class="cls-1" d="M110.02,157.54c-.33-.33-.58-.71-.73-1.11-.29-.78-.43-1.64-.43-2.53,0-1.17.26-2.38.67-3.05.59-.99,1.58-1.53,2.81-1.53.94,0,1.74.31,2.32.89.33.33.58.71.73,1.11.29.77.43,1.65.43,2.55,0,1.35-.3,2.54-.81,3.26-.62.86-1.53,1.3-2.67,1.3-.94,0-1.73-.31-2.31-.89ZM113.53,156.69c.49-.52.77-1.54.77-2.83s-.28-2.28-.77-2.82c-.26-.3-.7-.46-1.2-.46-.53,0-.91.18-1.23.56-.48.57-.73,1.47-.73,2.67s.21,2.11.56,2.62c.34.48.8.72,1.41.72.48,0,.91-.17,1.19-.46Z"/><path class="cls-1" d="M118.48,157.66c0,.69.01,1.02.06,1.28h-1.35c.04-.35.07-.75.07-1.32v-7.2c0-.46-.01-.74-.04-1.06.35.03.64.04,1.22.04h6.69c.6,0,.94-.01,1.2-.04-.03.32-.04.6-.04,1.2v7.05c0,.56-.13.87-.45,1.03-.21.11-.56.15-1.16.15-.43,0-1.03-.02-1.46-.04-.07-.43-.14-.74-.34-1.19.73.08,1.28.12,1.67.12.43,0,.5-.03.5-.3v-2.68h-6.55v2.95ZM121.09,150.57h-2.61v2.98h2.61v-2.98ZM125.03,153.55v-2.98h-2.75v2.98h2.75Z"/><path class="cls-1" d="M132.93,159.1c-.62-.88-.89-1.36-1.2-2.17-.4-1.01-.58-1.98-.58-3.04s.18-1.95.56-2.94c.32-.8.58-1.29,1.21-2.17h1.54c-.77.97-1.09,1.46-1.4,2.19-.39.9-.57,1.84-.57,2.92s.19,2.1.58,3.01c.31.73.62,1.21,1.4,2.19h-1.54Z"/><path class="cls-1" d="M136.7,150.55c-.37.08-.57.11-1.14.2-.05-.3-.18-.57-.43-1.01,1.22-.14,2.04-.34,2.88-.69.17-.07.33-.15.47-.25l.68.96c-.11.04-.12.05-.29.13-.37.15-.64.25-1.03.37v1.47h.34c.36,0,.56-.01.77-.04v1.14c-.22-.03-.42-.04-.77-.04h-.31q.02.05.08.15c.33.73.59,1.11,1.17,1.69l-.1.2c-.2.37-.23.45-.4.86-.38-.5-.47-.65-.85-1.45.03.26.07.9.07,1.25v2.2c0,.64.01.99.07,1.35h-1.28c.04-.38.07-.74.07-1.35v-1.9c0-.21.04-1.08.07-1.35-.3.98-.69,1.74-1.33,2.53-.19-.53-.31-.79-.56-1.14.46-.54.72-.92,1.03-1.51.24-.45.52-1.11.64-1.53h-.55c-.43,0-.64.01-.88.05v-1.17c.25.04.45.06.88.06h.7v-1.18ZM142.25,151.08c.44-.81.64-1.32.89-2.23l1.22.4c-.51,1.11-.62,1.34-.91,1.84h.34c.38,0,.6-.01.91-.04-.03.26-.04.44-.04.77v2.02c0,.33.01.55.04.81-.3-.03-.56-.04-.91-.04h-.5v2.99c0,.21.05.23.47.23.45,0,.47-.05.49-1.57.42.27.7.42,1.03.5-.08,1.2-.14,1.54-.34,1.8-.21.3-.56.37-1.6.37-.95,0-1.21-.21-1.21-.93v-3.39h-.69c-.09,1.2-.21,1.8-.52,2.49-.42.94-.95,1.49-1.91,2.01-.24-.42-.4-.61-.81-.97,1.42-.65,2.08-1.77,2.08-3.53h-.17c-.35,0-.57.01-.87.04.02-.25.03-.52.03-.83v-1.98c0-.26-.01-.55-.03-.8.32.03.5.04.88.04h2.11ZM140.46,151.02c-.34-.81-.56-1.23-.9-1.69l1.07-.5c.42.64.66,1.1.91,1.71l-1.08.48ZM140.39,153.52h3.09v-1.39h-3.09v1.39Z"/><path class="cls-1" d="M146.34,153c.29.04.46.06.88.06h.9c.33,0,.58-.01.84-.06-.03.36-.04.59-.04,1.21v2.3c.17.35.26.46.63.7.53.33,1.1.41,2.99.41,1.6,0,2.99-.08,4.08-.23-.19.53-.25.8-.33,1.31-.98.03-2.57.07-3.33.07-1.8,0-2.7-.07-3.27-.25-.57-.18-.97-.47-1.4-1.03-.35.35-.62.58-1.13.98-.19.14-.25.2-.33.26q-.11.09-.17.13l-.54-1.25c.47-.2,1.17-.66,1.64-1.08v-2.37h-.67c-.31,0-.47.01-.75.06v-1.21ZM147.38,149.03c.79.69,1.39,1.31,1.93,2.01l-.91.89c-.68-.92-1.03-1.31-1.89-2.08l.88-.83ZM150.92,150.39c-.37,0-.64.01-.91.06v-1.19c.24.04.47.05.91.05h1.57c.35,0,.59-.01.8-.04-.02.25-.02.41-.02.59,0,1.08.25,2.19.73,3.19.56,1.21,1.22,1.97,2.42,2.83-.31.37-.5.68-.73,1.16-.8-.61-1.25-1.05-1.76-1.72-.55-.74-.86-1.41-1.23-2.61-.28,1.17-.58,1.86-1.2,2.68-.41.56-.75.91-1.49,1.51-.3-.4-.46-.57-.87-.96.67-.48,1-.81,1.45-1.41.58-.78,1-1.68,1.22-2.62.11-.45.15-.77.21-1.53h-1.11Z"/><path class="cls-1" d="M157.18,159.1c.78-.98,1.09-1.46,1.4-2.19.4-.91.58-1.89.58-3.01s-.18-2.01-.56-2.92c-.32-.73-.64-1.22-1.41-2.19h1.55c.62.87.88,1.35,1.2,2.17.38,1,.56,1.89.56,2.94s-.19,2.02-.57,3.04c-.32.8-.58,1.29-1.2,2.17h-1.55Z"/><path class="cls-1" d="M168.97,149.79c-.06.32-.13.77-.24,1.36q-.03.19-.07.33c.33-.01.48-.02.68-.02.73,0,1.27.2,1.63.58.37.42.52.95.52,1.95,0,1.89-.32,3.4-.85,4-.31.36-.64.5-1.22.5-.51,0-.96-.09-1.69-.33.01-.21.02-.37.02-.48,0-.29-.02-.51-.11-.93.59.26,1.22.44,1.61.44.32,0,.5-.21.66-.75.18-.57.29-1.57.29-2.51,0-1.01-.25-1.31-1.1-1.31-.23,0-.41.01-.66.03-.54,2.25-1.03,3.59-2.24,5.98l-1.28-.7c.85-1.15,1.69-3.13,2.21-5.18q-.17.02-.52.09l-1,.17c-.18.03-.3.07-.45.11l-.13-1.3c.5-.01,1.07-.07,2.34-.23.21-1.22.29-1.85.29-2.22v-.2l1.43.14c-.03.09-.07.23-.09.34l-.02.14ZM172.31,149.34c.48.52.78.94,1.16,1.62l-.77.41c-.36-.67-.67-1.11-1.16-1.64l.77-.38ZM173.33,151.52c.76,1.04,1.33,2.23,1.65,3.5l-1.25.63c-.22-1.16-.9-2.77-1.51-3.58l1.11-.55ZM174.02,150.67c-.33-.6-.69-1.12-1.12-1.59l.74-.39c.5.51.8.92,1.14,1.55l-.76.43Z"/><path class="cls-3" d="M197.81,135.7c0-18.07.6-21.78,1.79-25.37,3.33-10.41,11.67-16.64,24.4-16.64s21.07,6.22,24.4,16.64c1.19,3.59,1.79,7.3,1.79,25.37s-.6,21.78-1.79,25.37c-3.33,10.41-11.67,16.64-24.4,16.64s-21.07-6.22-24.4-16.64c-1.19-3.59-1.79-7.3-1.79-25.37ZM223.99,163.58c4.17,0,7.02-1.8,8.21-5.51.71-2.15.95-4.55.95-22.38s-.24-20.23-.95-22.38c-1.19-3.71-4.05-5.51-8.21-5.51s-7.02,1.79-8.21,5.51c-.71,2.15-.95,4.55-.95,22.38s.24,20.23.95,22.38c1.19,3.71,3.93,5.51,8.21,5.51Z"/><path class="cls-3" d="M289.37,162.85h-23.12v15.19h-6.39v-38.39h35.94v33.55c0,1.96-.37,4.84-4.52,4.84h-7.76l-1.12-6.47h5.73c1.2,0,1.25-.67,1.25-1.29v-7.43ZM266.26,156.84h8.47v-11.06h-8.47v11.06ZM280.91,156.84h8.47v-11.06h-8.47v11.06Z"/><line class="cls-5" x1="321.5" y1="330.03" x2="34.11" y2="330.03"/><path class="cls-2" d="M68.68,255.99s1.75,5.26,6.79,6.08c0,0-5.82,5.25-14.38-2.55l7.59-3.53Z"/><path class="cls-2" d="M191.98,238.04l1.26.56c-1.17,1.16-2.28,2.69-2.52,4.96-.24,2.27.55,3.81,1.48,4.96l-1.37.56c-1.04-1.12-1.93-2.96-1.66-5.52s1.55-4.4,2.82-5.52Z"/><path class="cls-2" d="M196.4,244.38l-.44,4.15h-1.61l.37-3.53c-.38.7-.78,1.33-1.2,1.81-.1-.48-.38-1.18-.59-1.6.67-.7,1.34-1.78,1.83-2.78h-1.3l.16-1.54h1.52l.11-1.09c-.43.07-.85.14-1.25.18-.03-.37-.18-.92-.32-1.27,1.28-.21,2.67-.55,3.62-.95l.96,1.28c-.43.16-.89.29-1.36.41l-.15,1.43h1.1l-.16,1.54h-1.1v.14c.27.25,1.07,1.21,1.25,1.45l-1.07,1.3c-.09-.25-.22-.59-.38-.94ZM198.72,244.01h-.78l.43-4.06h.74c-.13-.52-.4-1.16-.67-1.66l1.43-.59c.36.59.73,1.38.85,1.94l-.73.31h2.45l-.87-.33c.38-.54.84-1.34,1.1-1.95l1.66.55c-.44.64-.89,1.27-1.26,1.74h.94l-.43,4.06h-1.2l-.26,2.48c-.04.38-.03.41.06.41h.15c.13,0,.19-.17.33-1.34.27.25.93.53,1.34.63-.32,1.71-.76,2.19-1.65,2.19h-.64c-1.15,0-1.34-.49-1.2-1.89l.26-2.49h-.43c-.35,1.99-.94,3.58-3.15,4.55-.13-.41-.51-1.02-.83-1.33,1.75-.7,2.12-1.81,2.36-3.22ZM202.07,242.57l.12-1.18h-2.4l-.12,1.18h2.4Z"/><path class="cls-2" d="M206.26,245.75l.22-2.13h-1.18l.16-1.53h2.8l-.38,3.59c.35.71,1.1,1,2.21,1.04,1.39.06,4,.02,5.66-.13-.22.4-.57,1.2-.7,1.69-1.46.08-3.74.1-5.16.03-1.35-.06-2.23-.34-2.89-1.22-.51.41-1.03.82-1.7,1.31l-.62-1.74c.5-.26,1.06-.58,1.57-.93ZM207.09,237.94c.6.47,1.36,1.18,1.7,1.7l-1.44,1.1c-.28-.53-1-1.29-1.59-1.81l1.34-.99ZM211.81,239.66h-1.94l.16-1.57h3.36c-.21,3.12.08,5.9,2.38,7.11-.42.27-1.09.88-1.43,1.28-1.21-.79-1.89-1.94-2.23-3.33-.71,1.43-1.65,2.56-2.85,3.34-.21-.32-.79-.97-1.14-1.26,1.65-.9,2.66-2.55,3.2-4.66l.48.07c-.01-.32-.01-.65,0-.98Z"/><path class="cls-2" d="M216.57,246.87l1.07-1.28c.46.48,1.02.82,1.69.82.79,0,1.34-.33,1.4-.97.08-.73-.27-1.17-2.05-1.17l.15-1.44c1.45,0,1.96-.43,2.03-1.11.06-.58-.25-.9-.88-.9-.57,0-1.03.25-1.6.71l-.9-1.25c.86-.66,1.74-1.05,2.75-1.05,1.76,0,2.83.82,2.67,2.34-.09.85-.62,1.51-1.56,1.88v.06c.9.29,1.53.97,1.41,2.07-.17,1.59-1.71,2.48-3.4,2.48-1.35,0-2.25-.47-2.79-1.19Z"/><path class="cls-2" d="M225.32,247.82h-.1c-.63,0-1.17-.41-1.09-1.14.07-.69.68-1.14,1.39-1.14.89,0,1.31.71,1.18,1.9-.15,1.47-1.12,2.58-2.76,3.06l-.3-1.08c1.03-.34,1.62-.96,1.68-1.59Z"/><path class="cls-2" d="M232.1,242.03c.08-.78-.3-1.2-.98-1.2-.58,0-1.07.39-1.53.82l-.99-1.1c.93-.89,1.75-1.31,2.96-1.31,1.65,0,2.68,1.05,2.51,2.67-.15,1.46-1.58,3.07-3.02,4.39.43-.06,1.02-.11,1.41-.11h1.55l-.18,1.71h-5.9l.12-1.17c2.33-1.93,3.92-3.47,4.05-4.71Z"/><path class="cls-2" d="M239.16,241.09h-3.66l.18-1.7h5.83l-.13,1.25c-2.21,2.33-2.59,3.94-3.08,7.27h-2.05c.45-2.8,1.08-4.59,2.91-6.81Z"/><path class="cls-2" d="M241.81,245.79c.11-1.06.79-1.74,1.62-2.15v-.06c-.61-.49-.98-1.14-.89-2.04.15-1.42,1.37-2.3,2.94-2.3s2.46.89,2.31,2.27c-.08.81-.65,1.48-1.27,1.88v.06c.76.42,1.3,1.13,1.18,2.3-.14,1.31-1.43,2.31-3.21,2.31-1.67,0-2.82-.93-2.68-2.27ZM244.68,246.65c.59,0,1.07-.3,1.14-.97.08-.74-.54-1.06-1.53-1.51-.38.33-.66.85-.72,1.38-.07.7.44,1.1,1.11,1.1ZM245.54,242.91c.36-.39.54-.82.59-1.26.06-.62-.25-1.01-.84-1.01-.47,0-.9.29-.96.89-.07.67.42,1.04,1.22,1.37Z"/><path class="cls-2" d="M249.94,238.37h9.84l-.87,8.29c-.09.85-.31,1.29-.86,1.57-.56.27-1.27.31-2.28.31-.02-.47-.22-1.23-.42-1.66.59.05,1.34.03,1.56.03s.3-.07.33-.27l.25-2.35h-6.49l-.45,4.24h-1.67l1.07-10.15ZM253.49,242.63l.28-2.62h-2.33l-.28,2.62h2.33ZM257.93,240.02h-2.5l-.28,2.62h2.5l.28-2.62Z"/><path class="cls-2" d="M260.9,249.08l-1.26-.56c1.17-1.15,2.28-2.69,2.52-4.96.24-2.27-.55-3.8-1.48-4.96l1.37-.56c1.04,1.12,1.93,2.96,1.66,5.52s-1.55,4.4-2.82,5.52Z"/></g></svg>