<?xml version="1.0" encoding="UTF-8"?><svg id="_レイヤー_2" xmlns="http://www.w3.org/2000/svg" viewBox="0 0 61.18 51.85"><defs><style>.cls-1{fill:#000;}.cls-1,.cls-2{stroke-width:0px;}.cls-2{fill:#d91a17;}</style></defs><g id="_レイヤー_1-2"><path class="cls-2" d="M13.23,2.36h.02s-.02.04,0,.08l-.06-.02c0-.26-.13-.49-.13-.75-.04-.07-.11-.17-.06-.24,0-.11-.13-.38-.17-.51l-.13-.11h-.11c-.08.09-.13.09-.24.09-.47-.04-.83.23-1.26.34-.53.13-2.18,1.89-2.34,2.42-.02.02-.06.04-.06.08-.09.06-.3.41-.36.52v.02l-.09.15s-.08.08-.08.11l-.06.11-.06.02.02.06-.04.06-.06.04c0,.06-.04.11-.06.17l-.02.02c-.02.07-.09.15-.09.22l-.15.3-.04.02v.06c-.06.09-.22.41-.22.51-.83,1.99-1.05,4.65.49,6.36.06.02.15.04.21.08.09-.04.23.02.32.04.3.07,1.61-.26,1.84-.49.02,0,.04,0,.04-.02.11-.02.26-.06.36-.13h.02c.08-.04.15-.11.22-.11l.04.02.02-.06.04-.02.04.02.08-.08.02.02.02-.04.08-.04s.06,0,.04-.02c.08-.02.13-.06.19-.07l.02.02.02-.06.11-.06.02.02c.06-.02.15-.02.19-.08v-.02c.06-.02.11-.08.17-.09h.04l.02-.02v-.04s.07-.08.11-.09c.02,0,.04-.02.04-.04.11-.06.75-.58.75-.58l.06-.07h.02l.15-.17v-.02c.22-.28.49-.64.73-.9.02-.09.13-.09.15-.21.02,0,.11-.02.08-.04.02-.04.04-.08.02-.11.04-.02.09-.02.13,0v-.17c.08-.04.13-.17.17-.17.21-.21.34-.47.52-.71h.02l-.02.02v.04l.02.04c.06-.08.34-.53.41-.62-.06.13-.13.24-.19.36l.45-.69.06.02c-.06.08-.07.15-.11.23l.06.02.02-.06.02-.02.04.06-.36.71.02.06c.09-.17.21-.34.28-.51l.04.02c.02.08-.26.54-.3.66.06-.08.09-.15.13-.24-.11.45-1.16,1.99-1.5,2.33v.02c-.06.06-.51.56-.51.6l-.04.02s-.24.36-.3.41l.04-.02c-.17.22-1.48,1.42-1.67,1.42-.04.02-.07.04-.09.08l-.09.04c-.11.13-.22.09-.32.19l-.04-.04h-.06l-.04.02.02.08c-.08,0-.13.02-.17.08-.06-.02-.51.21-.58.26-.19.15-.83.11-1.07.09-.09-.02-.21,0-.3-.04-.09,0-.23-.02-.28-.11-.23-.08-.51-.11-.71-.21-.47-.21-.81-.53-1.22-.83l-.04.04-.06-.02c-.11-.19-.32-.3-.45-.47l-.3-.43c.02.09.21.34.26.43-.92-.92-1.13-3.11-1.13-4.35l.06-.04.02-.08.08-.04c0,.53,0,1.39.13,1.88-.02.07,0,.17.02.24,0-.26-.06-.54-.02-.81-.04-.09.02-.15,0-.24-.07-.08-.06-.96-.06-1.11l-.02-.02v-.04l.02-.02c0-.06.04-.45.06-.47v-.17c.13-.22.13-.83.28-1.16v-.08l-.07.11c-.06.24-.21.51-.17.77l-.02.02s-.13.88-.15.97c-.02.06-.11.06-.11,0-.02-.28.19-.86.15-1.03l.04-.04c0-.28.04-.54.11-.83l-.04.04c.02-.09.67-1.71.73-1.8.17-.24.39-.47.51-.75.04-.02.08-.06.11-.09,0-.06.04-.09.06-.15l.08-.09c.06-.19.22-.09.26-.3.06-.07.21-.13.21-.21,0-.04.02-.08.06-.09.15-.06.19-.11.28-.22l.08.06h.08s.06-.04.08-.06c0-.04,0-.11-.06-.13.11-.06.13-.11.21-.19.04,0,.62-.39.66-.45.04-.06.07-.13.13-.17.06-.17,1.07-.43,1.16-.56.11-.02.69-.21.69-.21.11-.07.28-.15.41-.04.67-.09,2.06-.09,2.27.73.23.17.43.47.56.71.06.09.06.21.13.3.02.06.06.13.04.19.28-.36,1.09-1.59,1.44-1.71.11-.04.28-.02.24.15l.06.04c.04.21.34.9.28,1.01-.06.09-.11.11-.15.24-.04.15-.21.28-.34.38-.09.15-.21.26-.32.38-.02-.02-.04,0-.02.02-.11.24-.73.79-.79.96-.02,0-.64.81-.64.83-.13.09-.15.21-.26.32v.02c-.08.15-.17.34-.26.47,0,0-.08-.02-.06.02v.07l-.09-.02.04.11-.06.04-.04.06c-.13.09-.23.24-.32.36l-.02-.02c-.17.17-.34.53-.45.75-.09.02-.09.15-.21.15-.08,0-.15-.06-.22-.06-.06,0-.09.04-.15.04l-.04-.02.06-.13v.04s.06-.09.08-.13l.08-.08c0-.09.09-.15.09-.24.02,0,.02-.02.02-.04-.06.08-.23.34-.28.34-.04.06-.08.11-.09.19l-.08-.09-.06.02c-.41-.28-.22-.38,0-.77l.26-.45c.17-.06.43-.69.54-.86.04-.07.08-.13.13-.19v-.02c.09-.15.13-.38.32-.45l.06-.11.07-.04c.11-.19.24-.38.39-.56v-.08s.02-.02.02-.04l-.02-.04s.02-.09.04-.13l-.02-.02.02-.04v-.04l-.02-.02s.04-.07.02-.11h.06s.02-.02.02-.04v-.13s-.02.04-.02.06ZM5.5,7.75l.04-.02v-.19l-.04-.02s-.06.09-.06.13l.06.09ZM5.49,8.01l-.04.06h.06c.02-.06.02-.09.02-.15l-.08.04.04.06ZM5.47,7.37l.07.04c.02-.06.02-.11.02-.17h-.06s-.04.09-.04.13ZM5.49,8.5s0-.02-.02-.02v.02h.02ZM5.5,7.2l.06.02c-.02-.15.02-.36.04-.54l-.04.02s-.04.26-.04.3c-.08.06-.02.13-.02.21ZM5.6,9.1c0-.08-.02-.13-.02-.21l-.04-.02v.02h-.04c-.02.07.04.15.09.21ZM5.67,9.62l-.08.04c.06.06.04.13.06.19.02.02.06.02.09.02-.06-.15-.09-.45-.11-.62h-.02l-.04-.02h.06l-.04-.11-.08.02s.02.06.04.06l.02.04c-.08.02,0,.26.02.34.04,0,.08.02.08.06ZM5.52,8.5s0,.02.02.02v-.02h-.02ZM5.54,8.65v.02s.02-.02.02-.04h-.02v.02ZM5.6,6.64l.04-.13-.04-.02c-.04.06-.02.11,0,.15ZM5.77,10.03l-.02-.11-.04-.02h-.04l-.02.04s.08.08.11.09ZM5.69,8.08s.02-.06,0-.08v.08ZM5.73,8.14l.02-.02-.02-.02s-.02,0-.04.02l.04.02ZM5.71,8.25s0-.02-.02-.02v.02h.02ZM5.86,9.45l-.04-.02.02-.02c.02-.13-.02-.34-.04-.49l-.06-.08.02-.09.04-.02v-.06l-.11-.06c0,.21.04.83.13.97-.04.08-.06.13.04.15.06-.09,0-.21,0-.3ZM5.73,7.43l.02.02h.04v-.02s-.02,0-.04-.02h-.02v.02ZM5.79,8.33s-.04,0-.04.02h.04v-.02ZM5.77,7.09l.02-.02.04.02c.02-.06.06-.13.04-.19l-.02.06-.06-.02s-.02.09-.02.15ZM5.84,7.28l.02-.02-.02-.02-.04.02.04.02ZM5.86,7.65s-.04,0-.04.02t.04-.02ZM5.88,7.18c-.06,0-.04.04-.02.04,0-.02.02-.02.02-.04ZM5.86,7.73v-.08l-.02.04.02.04ZM5.86,7.84v-.04s0,.04,0,.04ZM5.88,7.61v-.02h-.02s0,.02.02.02ZM6.44,7.05v.02s.04-.04.02-.06t-.02.04ZM6.52,6.56s0-.02.02-.04l-.02.02v.02ZM6.78,7.95c-.08.24-.08.64-.08.88.04-.24.09-.64.08-.88ZM7.21,5.93c.17-.51.41-1.14.71-1.58.08-.11.26-.39.26-.51-.32.56-.67,1.07-.9,1.71-.13.36-.21.75-.32,1.11.11-.22.17-.51.24-.73ZM7.36,2.08l.19-.17c-.11.04-.13.06-.19.17ZM7.92,2.01c-.08-.02-.09.06-.11.11l.08.04.09-.08-.06-.08ZM7.87,1.65l.17-.17-.15.11-.02.06ZM8.2,1.9l-.02-.08-.04-.04-.06-.02c-.06.06-.09.17-.04.24l.15-.11ZM8.6,1.37c-.02.06.06.13,0,.17l-.13-.08c-.04.13-.17.15-.24.23.02.04.06.11.04.15.08-.02.13-.06.19-.11.08.02.17-.04.19-.13.04-.02.09-.02.13.02.06-.11.02-.17.17-.17.09-.13.64-.39.77-.53l-.02-.04v-.06l-.02.02-.02-.09c-.19.04-.26.17-.28.36l-.11-.17c-.13.02.02.19-.11.15l.02.09-.02.04-.04-.06.04-.08c-.11-.11-.45.21-.54.28ZM8.62,3.3s-.04,0-.02.02c-.08.08-.13.13-.17.23-.06.06-.11.11-.15.19.08.02.3-.36.34-.43ZM8.35,2.16s.02,0,.02-.02t-.02.02ZM8.35,12.7c.08.19,1.16,0,1.35-.06l.04.02v.06l-.04.02h-.02c-.06-.04-.09-.08-.13,0-.04,0-.08.02-.11.06l-.08-.02-.04.02c-.09,0-.19.02-.26.04-.06-.02-.08.02-.11.06l-.07-.02-.04-.04h-.02l-.06.09c.34.11.86-.08,1.18-.15l-.02-.04s-.08-.02-.09-.06l.04-.06h.04v-.08h.09l.08-.04.04-.02s.06-.04.06-.06c0,0-.88.21-.99.22-.17.04-.32,0-.49.04-.08-.04-.17-.06-.24,0-.04-.06-.06-.06-.09,0ZM8.49,2.19v.06h.02s0-.04-.02-.06ZM8.54,2.21l.06-.04-.04-.04h-.04s.04.06.02.08ZM8.65,2.08l-.02.02v.04l.02-.06ZM8.69,2.1l.06-.06h.06c.06-.06.13-.09.19-.13l.02-.06.04.02c.02-.06.08-.06.13-.08v-.06c-.15.08-.28.17-.41.26l-.02.04v-.02l-.08.04.02.04ZM9.33,2.55c.26-.32.56-.54.84-.83-.34.17-.75.53-.98.83l-.06.02-.04-.04s.04-.08.08-.09c.08-.02.19-.04.17-.15l.08-.08c-.28.13-.38.24-.58.45v.02l.04.02s.07-.04.11-.06l.02.02-.02.08-.04.04.02.09c-.13.13-.15.09-.23.28-.04.02-.06.06-.06.09.22-.21.45-.45.64-.69ZM8.71,12.9v-.02s-.02,0-.02.02h.02ZM8.75,2.8s-.02.02-.02.04h.02s0-.02.02-.04h-.02ZM8.79,13.03h-.04l.02.02s.02,0,.02-.02ZM8.88,2.78l-.02.02v.02s.02-.02.02-.04ZM8.94,1.73h.02s.02-.02.02-.04l-.04.04ZM9.24,1.52v.02h.02l.08-.04.04-.06-.08.04h-.02s-.04.02-.04.02v.02-.02l-.13.06-.09.09.04.02s.04-.02.06,0c.04-.04.08-.07.11-.09,0,0,0-.04.02-.06ZM10.38,12.96s-.09.04-.13.04c.02.02-.02.02-.02.02-.06,0-.09.04-.11.09-.06-.08-.19.02-.24.04-.06.06-.15,0-.24.06-.08-.02-.09.02-.15.06-.06-.02-.13-.02-.21-.02l-.04.06-.06-.02-.02-.02-.09.04c.11.11.22.04.34.08l-.04.06.06.06.02-.02.02-.08.04-.02.02.02-.02.04h.02v.04c.11.02.19-.04.24-.13l.04.09s.07-.06.11-.06l.08.02c.11-.04.21-.09.3-.13.02-.02.04-.06.04-.09l.08.06c.04-.06.13-.08.19-.11,0-.04,0-.08.02-.11.06,0,.04.04.04.08l.04.02.08-.09-.04-.09-.09-.02s-.02-.02-.04-.02c-.06.02-.21.13-.21.09ZM9.07,13.37v.06s.04-.06,0-.06ZM9.2,13.07l.04-.02h-.06l.02.02ZM9.24,1.76l.06-.07-.02-.02-.08.06s.02.04.04.04ZM9.25,13.43s-.04-.04-.04,0h.04ZM9.46,1.41s-.06,0-.08.02v.02l.08-.04ZM9.72.73l.06.13v.04l.09-.04h-.02c0-.08.02-.21-.09-.17l-.04.04ZM9.91,13.03h.04l.02-.02s-.04.02-.06.02ZM9.95,13.33l-.04.04v-.06l.02-.02.02.04ZM9.97,12.66h-.02s0,.02.02.02v-.02ZM9.99,12.72s-.02.02,0,.04h.06s-.04-.04-.06-.04ZM9.99,13.02s.04,0,.07-.04c-.04.02-.06.04-.07.04ZM10.02.71l.04.02v-.04l-.04-.02v.04ZM10.04,12.73h.02l-.02-.02v.02ZM10.23,12.43l.02.02s.17-.02.15-.08h.08l.08-.04s-.13,0-.17.02c-.04.04-.09.06-.15.08ZM11.5,11.83s-.06.04-.09.06l-.49.24c-.06.02-.26.15-.28.19.11-.06.26-.11.39-.15v-.02s.04-.02.06-.04c.15-.06.28-.17.41-.26v-.02ZM10.77,13.17s-.08.06-.13.08l.13-.04v-.04ZM10.91,12.92l-.06-.04-.02-.02h-.04s0,.07.02.11c.04.02.07-.02.09-.06ZM10.85,12.87h.02s0-.02-.02-.02v.02ZM11.64,5.33l-.04-.04c-.08.15-.17.26-.24.41.08-.09.24-.26.28-.38ZM12.8,4.26l-.02-.04v-.02c-.15.24-.39.51-.56.73l.02.08v.02l.02-.02.02-.09c.15-.15.24-.34.39-.49.02-.04.04-.09.07-.13.02.02.04-.02.06-.04ZM12.24,11.59l.02.06.06-.07-.02-.04-.06.06ZM12.31,11.57h.04c.08-.04.13-.11.19-.17v-.02l.02.02.06-.06v-.04l-.06-.02-.24.24s.02.04,0,.04ZM12.93,3.85v-.09l.02-.04h-.02c-.09.24-.32.41-.47.62l.04.06c.11-.19.28-.39.43-.54ZM12.74,11.18s.02-.02.02-.04c-.02,0-.02.02-.02.04ZM12.84,11.05v-.02h-.02s0,.02.02.02ZM12.91,10.99l.06-.06h-.02l-.04.02v.04ZM12.99,10.92l.02-.02-.02-.02v.04ZM13.12,10.75v.02-.02ZM13.16,10.65l.06-.06-.08.06h.02ZM13.25,1.6s.02-.02.02-.04t-.04.02s0,.02.02.02ZM13.29,10.78s0-.04.02-.04h.04l.02-.04s-.02,0-.02-.02c-.04,0-.08,0-.11-.02v.04l.06.08ZM13.75,2.18c-.04-.21-.06-.54-.19-.71,0-.06-.04-.13-.09-.15.04-.08.02-.09-.06-.06.06.32.19.54.24.99l-.02.02h-.06l-.02-.04v-.02c.06-.02.11-.06.02-.09.04-.04-.02-.06-.04-.08.06-.02.06-.04.02-.07,0-.06-.02-.13-.04-.19l-.08-.06v-.06l.04-.04-.02-.02h-.09v-.04l.02-.02-.06-.02s-.04.06-.04.09c.02.02.04.06.02.08h-.04l-.04.04v.02l.08-.02c.06-.02-.04.02-.02.04h-.06c0,.07.08.09.13.09l-.09.04s.02.02.04.02v.02l-.02.04c.02.06.04.09.04.15l.08.02-.08.04s.04.06.04.09h.06l.04.02s-.06.02-.07.02l-.04.02.06.04h.11s.09-.08.09-.04l.13-.17ZM13.36,10.69h.02l.06-.06v-.06l.04.02.06-.08-.02-.02v-.04l.04.02s0,.04.02.02l.02-.06-.06-.06h-.04l-.06.04v-.04l-.04-.02c-.06.04-.09.11-.13.17l.13-.13h.02l.02.04s-.04.04-.08.06l.06.04-.04-.02-.04.08.02.06s.02.02,0,.04ZM13.31,10.73h-.02v-.02l.02.02ZM13.36,1.97l-.02-.02h.06s-.02.02-.04.02ZM13.44,10.33v.02h.02s.02-.02-.02-.02ZM13.51,10.3s0-.02.02-.02v-.02s-.06,0-.02.04ZM13.49,2.46h.02l-.02-.02v.02ZM13.55,3.34l.09-.13s.02-.06.02-.08c-.06.04-.13.13-.11.21ZM13.64,2.94s-.02,0-.02.02l.02-.02ZM13.75,2.53l-.06.06h.02s.04-.04.04-.06ZM13.87,9.72c.11-.13.56-.69.66-.77l.02.04-.02.04s-.09.02-.08.08l-.04.09-.06.02s-.04.06-.06.08v.02l.19-.15.04.02-.11.15.04.04.09-.15v-.06h.04l.08-.11-.02-.02v-.04s.04.02.06.02v-.08l-.04-.04s-.06.02-.08.02v-.04l.02-.02-.02-.04.06-.06.06-.13c-.11.09-.71.92-.83,1.09ZM13.94,2.35l.38-.47.04-.02s-.02-.02-.04-.02c-.13.13-.24.32-.38.45v.06ZM13.96,2.57c.06-.02.17-.17.17-.24.07-.07.19-.24.28-.3.02-.09.07-.04.07-.15h-.04c-.17.17-.32.38-.49.54v.15ZM14.56,2.08c-.19.19-.41.43-.56.66v.04l.06-.04c.09-.13.39-.45.45-.56.04-.02.06-.06.06-.09ZM14.66,9.4c-.04.08-.13.15-.15.19v.02s.11-.13.15-.21ZM14.58,1.78s0-.04-.02-.02l-.04.06s0,.04.02.02l.04-.06ZM14.71,1.48l-.17.15-.02.04.02.02c.08-.06.13-.13.17-.21ZM14.67,9.36s.02,0,.02-.02c0,.02-.02.02-.02.02Z"/><path class="cls-2" d="M22.71,8.91l.04.02s-.06.09-.06.13c-.04.08-.08.15-.13.23,0,0,.02,0,.02-.02t-.02.04l-.06.06h.02c-.41.58-.97,1.16-1.69,1.29l-.04-.02h-.06l-.02-.04c.24,0,.79-.22.96-.39.04-.02.08-.04.11-.08-.13.06-.24.17-.38.22h-.02c-.26.19-1.11.34-1.39.15-.02-.02-.04,0-.02.02h.04l.02.02c.22.08.38.08.6.08l.02.04c-.22,0-.45-.08-.66-.08,0-.02-.02-.02-.04-.02-.08.15-.23.3-.32.45v-.02l-.06.08h.04l-.04.04h-.02v.06c-.26.43-.47.6-.82.96-.23.07-.39.21-.62.26h.02l-.02.02c-.32.02-.66.02-.94-.13l-.06.02c-.32-.07-.62-.26-.84-.49v.02c-.11-.13-.21-.26-.3-.41l.04.08c-.26-.41-.32-.9-.51-1.33,0-.28-.08-.56-.02-.84.02-.02.04-.04.06-.04h.04c0,.38,0,.71.06,1.07v-.86c0-.08-.02-.3.02-.26v-.11l.02-.04-.06-.02-.04.17-.06-.04c0-.09.09-.45.09-.47l.04-.02s0-.04-.02-.04l-.02.04-.04-.02c.04-.11.06-.28.11-.39l-.02.02.15-.34.02-.02c.02-.09.06-.19.11-.28l-.02.02c.23-.47.51-.99.86-1.41.06-.17.34-.38.47-.47.04-.02.08-.04.11-.08l-.04.02.06-.06.04.02c.39-.45,1.48-.24,1.93.02l-.02.06s-.04-.02-.04,0l.04.02-.02.04c.17.04.36.11.21.3h-.26l-.02.08c.08,0,.15.02.23.04.15-.02.36,0,.49.08.02.02.11.06.09.08l.15.22h.04c.04.13.09.26.11.38v-.08c.09.62.21,1.18.21,1.8l-.04.02-.02.04h-.02l-.02.04.06.02c0,.09-.08.41-.08.43-.04.02-.02.22-.02.26l-.04.09h.02c-.06.15-.15.3-.19.45l-.02.02c.73.21,1.48-.49,1.93-.96v.02c.04-.09.19-.28.26-.36,0-.02.02-.02.04-.02l-.09.17c.13-.17.22-.34.36-.51l.04.02v.04l-.06.09.04.02s.02-.04.04-.06l.02.06h.02l-.34.56.02.06.21-.34v.02ZM16.41,7.28h.02c.06-.09.36-.54.41-.6.02-.06.06-.11.09-.17-.17.17-.26.34-.39.54-.02.04-.04.09-.08.11l-.02.06s-.04.04-.04.06ZM19.26,6.23l-.08-.06c-.11.04-.38.09-.45.15-.94.62-2.1,3.38-2.01,4.54.02.3.13.54.24.83.09.04.19.09.28.15,1.07,0,1.44-.94,1.91-1.71-.58-.58-.77-1.14-.84-1.95l.02.02v-.13l-.02.02v-.06l.02-.02c-.22-.45.3-1.71.92-1.78ZM16.88,6.32l-.13.21s.04,0,.02-.02l.11-.19ZM16.97,6.21c.38-.47.84-.66,1.54-.66.09,0,.45.02.51.08h.04c-.36-.22-.94-.08-1.33-.02-.11.02-.3.19-.41.22-.06.09-.19.15-.26.26h-.02l-.06.11ZM19.07,5.7c-.39-.15-.84-.13-1.26-.04-.17.04-.26.19-.43.22,0,.04-.04.06-.06.08-.08.02-.17.11-.21.19.45-.38.84-.54,1.42-.51.08,0,.43.08.47.08l.02.02h.07l-.04-.04ZM17.78,12.28l-.04-.04c-.11,0-.23-.06-.34-.04l-.04-.02s-.06.04-.02.04c.13.04.28.06.43.06ZM17.48,12.32c.11.04.21.02.32.02l-.11-.02c-.09.02-.17-.02-.26-.02l-.02-.02h-.04s.09.04.11.04ZM17.8,12.34h.15v-.02s-.11,0-.15.02ZM18.38,8.2c-.02-.53.13-1.05.34-1.5-.3.3-.34,1.07-.34,1.46v.04ZM18.44,8.65c.02.15.06.3.13.41.02.02.04,0,.02-.02-.08-.13-.11-.26-.15-.39ZM18.72,6.7s0-.02.02-.04c-.02,0-.02.02-.02.04ZM19.73,8.63c.08-.39.17-1.76-.06-2.04l-.02.02c-.08-.02-.21.06-.26.11-.69.24-.56,1.8-.34,2.34.09.24.24.38.38.58.15-.34.22-.66.3-1.01ZM19.84,10.52l-.04-.02c-.02.06-.24.43-.26.45.02.09-.19.24-.22.36l-.08.08c-.04.09-.13.21-.19.28-.02.04-.15.21-.13.19.26-.26.43-.6.68-.86v-.02c.06-.06.09-.13.11-.21h.02c0-.09.08-.17.11-.24ZM19.09,11.46l.21-.22.02-.06c.06-.04.11-.17.13-.24l.06-.02v-.08l.04-.02s.08-.08.08-.13h-.08l-.45.77ZM22.52,9.36s.04-.04.04-.08v.02s-.04.04-.04.06Z"/><path class="cls-2" d="M23.78,5.93l.06-.09v.09l.02-.04.04.02s-.17.66-.26.94c.06-.04.13-.11.17-.17,0,.21-.3.49-.3.67l-.04.04.04.09.13-.28s.06-.11.11-.15v-.04c.06-.13.08-.21.22-.24v.02c-.15.24-.26.54-.39.81l.09.06c.08-.13.34-.62.36-.73.15-.13.77-1.74.96-2.1,0-.04.02-.11.08-.11v-.02c.13-.17.19-.45.28-.66v-.04l-.15-.06c-.21.53-.51,1.03-.69,1.58l-.06-.13-.02.02c.06-.15.49-1.12.56-1.16.04-.17.41-1.12.53-1.2-.02-.06.08-.17.11-.21-.02-.04.11-.24.15-.26.06-.08.09-.21.15-.3l-.08-.02s-.58.99-.6,1.09c.02.06-.06.19-.11.23.02.19-.34.79-.43.96-.04,0-.09-.02-.13-.02.02-.02,0-.04-.02-.02.04-.06.56-1.29.69-1.54l-.26.47.17-.43v-.02l-.04.02c-.26.6-.51,1.16-.9,1.71-.04,0-.09,0-.13.02.15-.41.39-.79.58-1.18.09-.21.17-.45.28-.66.26-.52.67-1.01.83-1.59-.17.32-.26.69-.54.92.08-.28.98-2.06,1.18-2.14.13-.04.49.09.62.15l.06-.02c.15.13.41.06.51.28l.62.39c-.07.28-.34.47-.47.73-.22.43-.43.88-.64,1.31-.96,2.03-2.03,4.01-2.81,6.15-1.11,2.98-.41,3.28-.26,3.34h.02s.04.02.06.04l.06-.04c.09.02.38-.24.43-.3,1.44-1.31,1.56-1.86,2.7-3.28v.02c.06-.06.15-.24.21-.32h.02l-.06.13c.11-.15.19-.3.32-.43l.06.02-.08.11.04.02.02-.04h.02l.04.04-.28.51.02.04.17-.28v.02l.04.02c-.08.11-.13.24-.19.38l.06-.09c-.3.54-.19.41-.53.92h-.02l-.04.02h-.02c.02-.07.06-.17.11-.26l-.15.26s-.02.02-.02.04c-.04.06-.21.34-.24.38-.04.11-.11.22-.21.3v.04c.06-.06.22-.28.22-.34h.02c.08-.11.17-.23.23-.36l.04.02c-.04.08-.22.34-.22.38,0,.02-.06.02-.04.04l-.17.3.02-.02c-.36.51-.75.94-1.16,1.39v-.02l-.08.07h.02l-.04.04h-.02c-.02.06-.3.32-.34.34-.26.19-.56.45-.9.45-.24,0-.73-.3-.88-.45-.77-.73-1.09-1.99-.86-3.02.06-.23.15-.45.21-.68.09-.11.71-2.49,1.01-3.09.02.08.08.13.15.17-.06.11-.09.22-.13.34l-.06.04-.02.04c.02.08.02.15-.04.21-.04.09-.06.23-.15.3v.13c-.09.22-.15.45-.22.67l.09-.13c.11-.28.21-.58.32-.88l-.06.08s.04-.11.04-.13c.02,0,.02.02.02.02.08-.17.13-.34.23-.51l.04-.09-.02.02-.04-.02ZM22.72,9.4c.02-.08.06-.11.09-.19,0-.24.08-.49.11-.73l-.06.17-.04.04c-.08,0-.04.13-.02.17l-.04.08s0,.09-.04.13c0,.09,0,.24-.04.34h.02ZM23.09,8.48c-.04.06-.06.36-.08.45l.02.04c.06-.17.13-.3.06-.49ZM23.3,8.82h-.02l.02.02v-.02ZM23.41,6.83s.04-.08.08-.11l-.08.15v-.04ZM23.6,6.43c.02-.11.09-.22.15-.34v.02c-.04.07-.09.26-.15.32ZM23.88,6.36l.02-.06.07.02.04-.02s-.04.09-.08.13c0,.09-.04.13-.09.19.02-.08.13-.21.04-.26ZM23.88,5.78c.04-.21.15-.47.24-.66l.04-.02c-.09.21-.15.43-.24.64l-.04.04ZM23.97,12.81c.08.02.13.06.21.06v-.02c-.08,0-.13-.04-.21-.04ZM24.07,6.34c-.02.06-.04.11-.07.15.02-.04.04-.13.07-.15ZM24.07,6.55l-.02-.06.06-.02-.04.08ZM24.22,5.8s-.04.06-.04.09l-.04-.04v-.08s.06.02.08.02ZM24.18,5.05s-.02-.08,0-.09l.04.02s-.02.06-.04.08ZM24.18,5.66c.02-.09.11-.17.15-.26h.02l.04-.26h.06l.04.02-.04.11c-.04.06-.13.21-.11.26-.04.06-.06.13-.08.19l-.07-.06ZM24.29,12.77s-.08,0-.09.02c.02,0,.06,0,.09-.02ZM24.23,4.86h-.02s0-.02.02-.02v.02ZM24.25,6.08v-.11c.06-.09.06-.15.06-.26l.06-.11.11-.02c-.08.17-.13.36-.23.51ZM24.33,5.59l-.02.06s0-.04.02-.06ZM24.37,12.75l.02.02v-.02c.43-.15.71-.64,1.03-.81v-.02l.02-.04c.06-.04.49-.53.53-.62l.04-.02c.09-.11.15-.24.26-.34l-.04-.02s-.81.94-.9,1.05l-.04.02c-.08.11-.23.17-.3.28-.06.02-.36.38-.54.43l-.04.04s-.04.02-.04.04ZM24.44,5.05c.04-.06.11-.43.11-.45l.06.06h.06l.02-.04c-.02.11-.17.45-.21.49,0-.02-.02-.04-.04-.06ZM25.88,11.48c-.17.34-.62.56-.81.84-.15.06-.26.22-.39.32-.06.04-.28.17-.21.17.32-.15.75-.56.99-.81.02-.04.36-.38.43-.51.02-.02,0-.04-.02-.02ZM25.3,12.23h-.04l-.06.08h.02l.08-.06v-.02ZM26.02,2.65c.02-.08.07-.17.13-.22-.04-.04-.09-.09-.15-.11,0,.08-.15.23-.19.32-.19.39-.38.75-.54,1.16l.04.08.09.02c0-.09.08-.11,0-.19h.08l-.04-.06.04-.02c.15-.23.38-.83.54-.98ZM25.4,4.5c.02-.08.04-.15.04-.22-.06.11-.11.24-.15.38l.11-.15ZM25.36,12.15l-.06.08s.04-.04.06-.08ZM25.51,4.67l-.02-.02s-.04.02-.02.06c.02,0,.04-.02.04-.04ZM25.96,3.4l-.06-.04c.13-.23.26-.43.32-.71-.08.15-.54,1.05-.53,1.12.11-.09.09-.38.26-.38ZM25.74,4.15v-.02h-.02v.04l.02-.02ZM26.02,11.36h-.02l-.06.08.06-.04.02-.04ZM26.8,2.1c-.34.66-.49,1.43-.83,2.06.32-.56.84-1.67.84-2.03l-.02-.04ZM26.04,3.41l-.02.02v.02s.04,0,.04-.02t-.02-.02ZM26.07,11.4h-.02l-.04.04s.04,0,.06-.04ZM26.09,3.32h-.02s.02.02.04.02t-.02-.02ZM26.2,3.11l-.02.02v.02h.02v-.02s.02,0,.02-.02h-.02ZM27.52,8.52h.02v-.02l-.02.02Z"/><path class="cls-2" d="M30.85,10.45l-.49.86v-.02l-.08.11.02-.02-.02.06h-.02c-.02.47-1.22,2.04-1.99,1.28,0,.02,0,.04-.02.04-.06-.04-.11-.07-.17-.13h-.02l-.21-.24v-.02c-.17-.17-.32-.3-.43-.53.02.02.02-.04.04-.04.09.09.13.23.23.32l-.06-.09v-.02s-.15-.21-.17-.22v-.04s-.08-.11-.08-.13l-.04-.08v-.02s-.09-.15-.08-.21l-.02.04c0,.06.15.38.19.41l-.04.02c-.06-.08-.06-.19-.11-.24.02-.02,0-.04-.02-.02-.04-.09-.11-.22-.13-.32,0,0,.02-.11-.02-.08-.02-.11-.04-.23-.04-.34l.02-.04h-.02c.02-.32.08-.64.17-.94.02-.06.08-.24.08-.28.04-.07.08-.28.13-.32-.02-.04.04-.17.08-.21.02-.02,0-.04-.02-.02.51-1.2.96-2.4,1.56-3.58.08.02.15.06.21.09.06.02.11.06.17.09.06,0,.11.02.13.08.23.17.47.34.62.58.24.38-.06.67-.21,1.01-.26.58-.49,1.22-.71,1.82l-.04.04c-.11.28-.58,1.76-.64,1.84,0,.04,0,.08-.02.09h-.02l-.02-.02s0,.02-.02.04h.04s-.02.08-.04.11v.02l.02.07s-.04.09-.04.11c-.02.02-.09.32-.11.38l-.02.02s0,.04.02.04l-.02.04c.02.06-.06.39-.09.43v.08l.04.04s.02-.02.04-.02v.04h.06l.17.08c.19,0,.51-.24.62-.39.58-.73,1.2-2.19,1.71-3.06.56-.96,1.22-1.84,1.91-2.7v.04c.04-.09.23-.32.3-.39,0,0,.02-.02.04-.02l-.09.17c.17-.24.36-.45.45-.73.09,0,.3.13.39.19.06,0,.09.02.11.08.21.15.51.38.64.58.23.34-.06.71-.21,1.01-.26.56-.54,1.22-.71,1.82l-.04.04c-.24.54-.38,1.2-.62,1.69,0,.02-.02.23-.04.24-.02,0-.04,0-.06-.02-.02.04-.17.32-.06.21l.02-.06-.02-.02h.02v-.04l.04-.08.04.02s-.02.08-.04.11c-.04-.04,0,.09,0,.09l-.02.02.02.02-.04.08s0,.04-.02.04c-.02.08-.13.38-.09.39,0,.08-.06.43-.09.47l-.02.06s.02.02.02.02l.02.04.02-.02c.08,0,.15-.04.19-.09.08-.02.13-.07.17-.15.71-.47,2.04-3.28,2.83-4.05.26.04.36.19.3.45-.13.19-.24.39-.3.62-.11.17-.19.38-.3.54-.02,0-.04.02-.06.04l-.04-.02s.06-.09.08-.15c.08-.17.19-.3.26-.47l.02-.02.04-.09-.36.56c-.02.06-.04.11-.08.17.02.02,0,.04-.02.02l-.08.17s-.08.13-.11.17v.02c-.04.09-.09.19-.17.26v.04l.04-.02c.06-.09.13-.17.15-.28h.02s.15-.26.19-.34l.04.04c-.04.06-.06.13-.11.19-.02.06-.08.09-.08.15-.04.08-.11.21-.15.32l.02-.02c-.28.45-.62.86-.92,1.29v-.02l-.08.08.04-.02-.04.04h-.02l-.02.06c-.08.07-.11.17-.17.26-.21.36-.96.97-1.37.6,0,.02,0,.04-.02.04-.06-.04-.11-.07-.15-.13h-.04c-.11-.13-.24-.36-.39-.43l-.23-.36s0-.04.02-.04l.09.13c-.06-.07-.09-.17-.09-.19l-.06-.09s0-.04-.02-.04l-.02-.08s-.06-.08-.07-.11v-.09l-.02-.02c0,.06.02.13.04.19l.04.04c.02.08.06.15.09.23l-.04.02c-.06-.08-.06-.17-.11-.24t0-.02c-.06-.06-.06-.11-.09-.17.02-.06-.08-.19-.06-.22l-.04-.09c0-.08-.02-.15-.02-.24l.02-.04c.04-.54.22-.98.32-1.48l.04-.04c0-.06.02-.11.04-.17l.06-.06s0-.04-.02-.02c.09-.41.32-.86.49-1.24-.15.23-.34.43-.45.68h-.04l-.02.04h-.04c.17-.3.43-.58.6-.9-.08.13-.24.3-.32.38-.06.19-.24.34-.32.53.02.02-.04.02-.04.04l-.13.21c-.04.06-.11.21-.15.24-.06.15-.15.28-.23.43.08-.04.24-.36.24-.43h.02c.06-.15.21-.3.28-.45l.04.04-.3.45s-.02.04-.02.06l-.17.36h.02l-.6,1.03v-.02h-.02s-.02.04-.02.06c0,0,.02,0,.02-.02ZM27.7,9.11c.24-.58.45-1.16.73-1.73h.02l.02-.04s.02-.02.02-.04c.04-.09.34-.64.39-.68.02-.06.04-.09.04-.15.04-.06.09-.19.13-.21v-.04s0-.02,0-.04l-.04-.02c-.08.21-.26.45-.38.66-.02,0-.04,0-.04.02l.02.04-.04.02-.04.06s0,.08-.02.11l-.04.04c-.02.08-.08.11-.09.19v.04h-.02s-.02.06-.02.08l-.06.11s-.06.08-.02.08c-.36.73-.71,1.56-.86,2.34.13-.26.17-.56.28-.84ZM28.5,6.92l-.17.23c.06.02.09,0,.09-.11l.07-.11ZM28.52,11.1c-.04.09-.13.24-.02.13v-.08s.02-.04.02-.06ZM28.56,6.81s-.02,0-.02.02l.02-.02ZM28.62,6.7l.15-.19.06-.15.04-.06.08-.13s-.02-.04-.06.04c-.06.07-.17.34-.21.38h-.02l-.04.11ZM29.18,12.75l-.02-.02c-.06.04-.11.06-.17.08.06,0,.09-.02.13-.02l.06-.04ZM29.22,12.62l-.06.06h.02l.08-.06h-.04ZM31.04,9.77h-.04c-.02.06-.26.49-.32.53l-.02.06c-.06.02-.69,1.26-.81,1.44-.09.15-.17.32-.28.45-.06.08-.11.15-.19.22l-.08.08v.02c.19,0,.84-1.11.88-1.27l.06-.04s0-.08.02-.09c.02,0,.45-.79.47-.88l.06-.04c.06-.15.15-.34.24-.47ZM29.74,12.21l-.11.13s-.21.22-.23.26c.02.02.09-.08.11-.09.08-.08.15-.19.23-.3ZM30.7,10.54h-.02c-.04.11-.38.69-.41.73v.04c-.08.11-.13.24-.21.38l.06-.06c.04-.09.15-.28.21-.34,0-.06.13-.3.17-.32.04-.13.13-.28.21-.39v-.04ZM30.17,11.59l-.02.02-.06.11s.06-.08.08-.11v-.02ZM30.21,11.53l-.02.06s0-.04.02-.06ZM30.81,10.39l-.02-.02-.06.11.07-.09ZM32.14,9.11c.13-.3.64-1.63.81-1.8l.06-.11c.04-.11.09-.22.17-.32v-.02l.19-.28.02-.09c.04-.06.08-.11.09-.19l.02-.02v-.04s.02,0,.02-.02-.04-.04-.06-.04l-.02.04v.02c-.08.19-.23.34-.32.53v.04l-.02.04h-.04v.06l-.04.02c-.02.08-.04.15-.07.21h-.02c0,.08-.04.13-.07.19v.04h-.04s-.02.06-.02.08c-.04.02-.08.08-.06.11,0,.02-.06.08-.02.08-.36.73-.71,1.56-.86,2.34.15-.26.17-.56.28-.84ZM32.01,11.93l.13.19-.04-.09s-.06-.04-.09-.09ZM32.89,7.03s.02-.04.02-.06l-.11.19h.02s.06-.09.08-.13ZM33.42,12.64l-.02-.02c-.07.04-.15.08-.21.13.08-.02.15-.07.23-.11ZM33.34,6.19l-.06.08.06-.08ZM34.86,10.63l-.02-.02c-.08.13-.21.32-.32.41-.09.26-.58.69-.64.88l-.09.09c-.02.08-.21.32-.28.39l-.06.06s.02.04.04.04v-.02c.06-.02.69-.79.75-.86v-.06l.04-.02c.11-.13.28-.39.36-.56l.04-.02.04-.08v-.04s.13-.15.15-.21ZM34.26,11.67c-.09.09-.71.86-.71.86.06.02.21-.21.24-.24.17-.17.32-.45.51-.6.02-.08.11-.15.15-.21.04-.11.13-.17.17-.28,0-.13-.28.39-.36.47Z"/><path class="cls-2" d="M42.55,5.83h-.02c.09.17.15.36.13.49-.11.41-.21.84-.36,1.26-.13.36-.36.68-.51,1.03.11-.19.67-1.14.79-1.22.19-.28.39-.77.68-.96.06-.15.71-.75.86-.79.53-.38.81-.43,1.41-.28l.02.06.3.17c.06,0,.09.02.11.08h.02c.23.17.47.34.62.58.24.36-.06.69-.21,1.01-.26.6-.49,1.22-.71,1.82l-.04.04c-.11.28-.6,1.76-.64,1.84,0,.04,0,.08-.02.09h-.06l.04.02s-.02.08-.04.11v.11s-.02.06-.02.09c-.04.02-.11.32-.11.38l-.02.02v.13c0,.06-.06.34-.09.38v.06l-.02.02h.02l.04.04s.02.02.02-.02c.07,0,.13-.04.19-.09.39-.13,2.12-2.94,2.46-3.51.15-.26.36-.45.53-.69.67.09.08.73,0,1.07-.04.06-.08.11-.09.19-.09.09-.13.36-.26.39l-.02-.02c.09-.23.22-.41.32-.62-.11.19-.36.58-.38.64-.02.04-.07.17-.11.19v.04l-.09.13c-.02.13-.13.19-.17.3l.06-.02c.08-.19.22-.45.36-.62l.04.04s-.21.32-.21.34c-.02,0-.02.02-.02.04-.06.09-.08.19-.13.28l.02-.02c-.26.45-.58.9-.92,1.29v-.02l-.06.08-.02.02h-.02c-.04.24-.66.83-.88.96-.22.13-.45.09-.66-.04l-.04.04-.15-.11h.02l-.02-.02h-.04c-.11-.13-.24-.36-.39-.43l-.22-.36s0-.04.02-.04l.21.28-.04-.06v-.02s-.19-.22-.17-.26l-.06-.09s0-.04-.02-.04l-.02-.08s-.06-.06-.08-.11c.04.13.11.3.15.34,0,.02-.02.02-.04.02-.06-.08-.06-.17-.11-.24v-.02c-.06-.06-.06-.11-.09-.17.02-.04-.02-.11-.04-.15,0-.02-.02-.09-.04-.08-.02-.11-.04-.23-.04-.34l.02-.04c.04-.54.22-.98.32-1.48l.04-.04c0-.06.02-.11.04-.17l.06-.06-.02-.02c.21-.69,1.09-2.85,1.46-3.43-.11-.04-.23-.06-.34-.04-.51.08-1.73,1.56-1.99,2.01v.02c-.11.11-1.24,1.91-1.31,2.08-.08.19-.21.45-.34.62v-.11l.04.02c.02-.06.08-.09,0-.13l.04-.04.04.04c0-.06,0-.09-.08-.08l.06-.06v-.07l.04-.02h.02v-.09l.09-.15.04-.02.02-.04h-.04v-.06l-.11.17h-.06s-.04.09-.04.13l-.08.06c-.04.08-.06.15-.11.21v.09l-.04.06c0,.08-.04.15-.08.23l.08-.06-.04.08.06.04.04-.04v.06l-.04.06s-.04,0-.04-.02l-.02.04.04.02-.09.13.04-.08-.04-.02h-.02l.04-.04.04.02v-.04l-.04-.02c-.06,0-.06.02-.06.08l-.11-.02v.06s.06.02.08.02l-.08.04.04.04h-.04v.04l.04.06.02.02h.02c-.13.26-.21.52-.28.79-.04.11-.13.22-.17.34-.04.11-.04.34-.09.41-.17.21-.94-.45-1.07-.6-.04-.04-.24-.17-.15-.23-.04-.19.02-.3.06-.47.23-1.31.88-2.46,1.43-3.66.04-.09.04-.23.13-.28.06.19-.39.94-.41,1.24h.02c.08-.17.13-.34.17-.53.17-.21.3-.6.39-.84-.04.04-.06.11-.13.11-.04-.24.77-1.44.86-1.78h-.02c-.06-.43-.9.41-.98.49-.09.04-.21.11-.24.23-.38.21-1.69,2.49-1.88,2.59l-.08.11s-.69,1.05-.77,1.16c-.11.15-.15.38-.28.51-.04.09-.09.26-.17.32-.17.34-.41,1.05-.58,1.31l-.04.02c0,.06-.06.34-.09.38v.04l.02.02s0,.02.02.06l.02-.02.04.32.02.02-.02.06-.09-.06-.04.04c-.06-.04-.11-.08-.15-.13h-.04c-.06-.08-.13-.15-.19-.24v-.02c-.15-.15-.36-.3-.43-.53,0-.02,0-.04.02-.06l.22.34-.04-.09s-.06-.08-.08-.09c-.02-.04-.04-.09-.08-.11l-.02-.06s-.04,0-.02-.02l-.06-.09s0-.04-.02-.04l-.02-.08h-.04c.04.08.09.15.11.22l-.04.02-.11-.24v-.02l-.09-.17c.02-.06-.04-.11-.06-.17,0,0,.02-.11-.02-.08-.09-.38,0-.96.09-1.33h.02c0-.13.17-.58.17-.62.02-.04.04-.11.04-.15l.06-.06s0-.04-.02-.02c.34-1.13.81-2.25,1.29-3.32.06-.11.11-.23.15-.34.13,0,.28.11.39.19.04-.02.09.02.11.06v.02c.21.13.51.38.64.58.22.36-.06.71-.19,1.03-.26.6-.41,1.26-.68,1.86-.07.15-.15.3-.19.47.28-.43.47-.94.75-1.37.58-.84,1.31-1.91,2.03-2.63v.11l-.02.02-.04-.04s-.13.09-.04.13v.02l-.04.02-.06-.04-.02.04c.02.06.08.06.11.08l-.09.02v.08s-.02.02-.04.02l-.04.02-.02.04v.06l-.06.04c0,.06-.04.08-.08.11h-.06l-.04.04h.08v.04c-.04.06-.13.08-.15.13-.08.08-.13.19-.19.26h-.08s-.02.06-.02.06l.02-.02.06.04s.09-.08.15-.08c-.02-.09.09-.24.17-.3l.13-.17.06-.04.06.02.04-.04s.02-.07.04-.11c.06-.02.09-.08.15-.09l.11-.13.02-.08c.08-.06.11-.17.19-.23l.02-.06s-.04.04-.06.04h-.04l.06-.06-.04-.08-.06.02v-.06l.08-.06.06.06.02-.02-.06-.04c.26-.19.58-.38.92-.43.24.08.26-.11.49.19.15.02.24.15.32.26l-.02-.08c.09.09.21.26.3.45v-.06s.04.06.04.09ZM35.72,11.65l.04.02-.06-.09s-.02-.09-.02-.13l-.02.04.06.17ZM36.04,9.21c.19-.54.41-1.11.64-1.65l.06-.11s.04,0,.04-.02v-.04s.21-.41.23-.47c.06-.04.13-.15.15-.22v-.02l.04-.06.02-.09c.04-.06.08-.13.09-.21.02-.02.06-.08.02-.09,0,0-.06,0-.04.02-.04.08-.34.53-.32.6l-.02.04-.04.02v.06h-.04s-.02.07-.04.11v.06c-.04.06-.11.17-.13.24l.02.04h-.04s-.02.06-.02.07l-.09.19h.02c-.36.73-.66,1.59-.81,2.4.15-.26.17-.58.26-.86ZM36.79,6.98c-.06.08-.11.15-.15.22,0,.02,0,.04.02.04v-.02s.08-.15.13-.24ZM36.83,6.9s.02-.06.04-.06c0-.06.15-.26.19-.3.04-.11.09-.21.15-.32,0-.02,0-.06-.02-.04l-.04.04s-.17.38-.19.39h-.02l-.11.28ZM37.37,10.22l-.09.11-.08.04-.02.07.04.02c.09-.06.08-.09.15-.17v-.08ZM37.18,10.35h.02l.02-.04s0-.02-.02-.04c0,.02,0,.06-.02.07ZM37.41,9.85c-.09.06-.11.24-.17.34l.04-.02.06-.13h.04l.04-.02v-.04l-.02-.04.04-.08-.02-.02ZM37.3,10.26v-.02h-.02v.02h.02ZM37.43,10.11h-.02v.02h.02v-.02ZM37.65,9.72s-.02-.06-.06-.06v-.09l-.09.04-.04.11-.04.04c0,.06.06.02.08,0l.06.06-.02.07c.06-.06.06-.07.06-.15l.06-.02ZM37.52,9.86l-.04-.06-.04.09.02.02.06-.06ZM37.54,9.92h-.02l-.02.02.02.04.02-.02v-.04ZM37.73,9.49l-.06-.04-.02-.06-.04.08.04.04.02.08.06-.09ZM37.93,9.17s-.06-.11-.04-.17c-.08.04-.11.11-.15.19-.06.04-.04.09-.06.15.04-.02.08-.04.11-.07l-.02.06.06-.06.02-.06h-.02l.04-.04h.06ZM37.88,9.34s-.04.02-.06.04l.02.04.06-.02s-.02-.04-.02-.06ZM37.9,9.25s.02-.02.04-.06c-.02.02-.04.04-.04.06ZM39.1,7.2l-.08.06c-.04.13-.47.69-.58.86v.09l-.07-.02s0,.04-.02.02l-.06.09s-.02.04-.04.02l.04.07-.08.06-.02.06s-.02-.04-.02-.02l.02.02s-.04.06-.04.09c.13-.11.75-1.01.79-1.13l.06-.04c.04-.06.06-.11.06-.17.06-.02.08-.02.04-.08ZM39.25,7.03l-.02-.04-.04.02.06.02ZM39.36,6.96l-.07-.08-.02.06.04.04-.06.06v.08l.11-.15ZM39.32,7.07h-.02v.02l.02-.02ZM39.45,6.68h.02v-.02h-.02v.02ZM39.7,6.3h.02s0-.02-.02-.02v.02ZM39.77,6.19s.08.04.09,0c-.04-.02-.06-.04-.09,0ZM39.94,6.04l.02-.02-.04-.02h-.02l.04.04ZM39.92,5.96l.06.02s.02-.06,0-.08l-.06.06ZM40.07,6.21l-.02.02v.02l.02-.04ZM40.39,11.23l-.02-.02c-.06.08-.09.15-.11.22l.13-.17v-.04ZM41.31,8.65l-.04-.02c-.22.41-.38.81-.53,1.26-.07.06-.28.6-.26.66l-.17.41s0,.04-.02.04l.04.04h.04c.09-.24.23-.47.34-.69.06-.13.08-.3.13-.41l.06-.04s-.02-.06-.02-.07c.02,0,.06-.02.06-.04l.04-.09c0-.08.02-.17.06-.24,0-.13.08-.21.11-.32l-.02-.06.06-.02s.02-.09.02-.13l.11-.26ZM41.23,9.3h-.04s-.22.64-.22.64c0,.09-.15.3-.19.41-.04.02-.24.53-.28.66l-.02.02v.04c.06.04.15-.26.17-.3.06-.11.36-.79.39-.81,0-.04.07-.24.09-.26.02-.13.11-.28.09-.39ZM40.75,10.86c-.06.06-.07.15-.13.21v.02c-.02.08-.06.11-.08.19l.04.02c.07-.13.11-.28.17-.43ZM40.92,5.33l-.04-.09-.04-.02s0,.04.02.04c-.04-.02-.08-.02-.11,0l-.13.11.06.06s-.08,0-.11-.02v.04c.09.04.09.08.15-.02.02.04.08.08.11.09l.02-.06-.07-.06s.07,0,.11.02l-.04-.08.06.02.02-.04ZM41.07,10.82l-.02-.04.06-.04s-.02.04-.04.08ZM41.07,10.82h.02-.02ZM41.14,10.69l-.04.06.02-.02s0-.02.02-.04ZM41.29,9.19l-.02-.02s-.04.06-.02.09l.04-.04v-.04ZM41.46,9.68h-.02v.04l.02-.04ZM41.57,9.88h-.04s-.02.04,0,.06l.04-.06ZM41.57,9.83h-.04s.02.02.04.02v-.02ZM41.67,9.66s-.06-.02-.07.02c.04.02.06.02.07-.02ZM41.7,8.33c.06-.08.08-.17.11-.26v-.08c.09-.13.09-.24.17-.38l.08.04c-.02.08-.17.36-.15.39l-.04.02s0,.04.02.04l-.02.09c.11-.24.54-1.22.54-1.46l-.11.26.02-.02c-.09.17-.09.41-.21.56-.02,0-.04.02-.06.04l-.06-.02c.02-.06.04-.13.04-.19.09-.21.19-.45.26-.67-.09.09-.28.53-.32.66-.02.04-.02.22-.06.24l-.08.19v.04l-.07.15c0,.13-.06.24-.13.36v.04l.06-.04ZM41.67,9.43c.13-.11.15-.24.24-.38h.06s.02-.06.02-.06l-.02.02-.04-.04-.11.11c0,.06-.08.22-.15.34ZM41.72,9.55h-.02v.02h.02v-.02ZM41.91,9.13l-.02.02h.02v-.02ZM41.91,5.33l.09.09.04-.06-.13-.11v.08ZM42.06,8.82l.02-.04c-.06.04-.08.09-.11.15l.06.04.02-.04-.02-.04.04-.04v-.04ZM42.1,8.85h-.04s.04.02.04,0ZM43.02,7.37c-.15.13-.81,1.16-.81,1.24-.04.02-.06.04-.04.07l.08-.06c.11-.26.34-.56.51-.81v-.09l.06.02s0-.04.02-.02l.06-.09s.02-.04.04-.04l-.02-.04c.08-.08.06-.11.11-.19ZM43.45,6.71l-.09.06.02-.04-.04.04-.02.06-.04.04-.04-.02c.02.06.04.09.02.15.07-.06.17-.19.19-.28ZM43.24,6.85s.04-.04.04-.07l-.04.07ZM43.3,6.71s.06-.04.06-.08l-.06.04v.04ZM43.54,6.62l-.04-.11-.06.08.04.04v.06l.06-.06ZM43.58,6.45v.08l.08-.02s.06-.08.09-.11c.02-.04-.04-.04-.06-.02l-.04-.04.04-.06c-.06.04-.08.04-.09.11l-.04.02.02.04ZM43.71,6.51c-.06.06-.09.11-.15.15.06-.04.11-.09.15-.15ZM43.71,6.3s-.02.04.02.04l.04-.06v-.02l-.06.04ZM43.71,6.25s.02,0,.02-.02t.02-.02h-.04v.04ZM43.97,6.13l-.07.06h-.06l-.02.04v.02l-.06.08c.06,0,.11-.04.13-.09l.07-.09ZM44.07,9.11c.21-.54.43-1.11.69-1.61l.09-.19.08-.11c.08-.24.22-.41.36-.62v-.09s.04-.08.07-.09l.04-.09.02-.02v-.04s0-.04-.02-.06c-.08.21-.26.45-.38.66-.02,0-.06,0-.04.02l.02.04c-.06-.02-.09.15-.09.19l-.04.04c-.02.08-.08.11-.09.19v.04h-.04s-.02.06-.02.08c-.04.02-.06.08-.04.11,0,.02-.04.06-.04.08-.38.77-.62,1.5-.84,2.31.13-.26.17-.54.26-.81ZM43.93,6.04l.11-.08h.08l.06-.04-.04-.04c-.09.04-.15.06-.21.15ZM44.35,5.89l-.34.3c.13-.07.24-.19.34-.3ZM44.12,5.98s-.04.04-.04.06l.02-.02.06-.02-.04-.02ZM44.72,7.15s0,.04.02.04v-.02c.06-.08.09-.19.15-.26v-.04l-.17.28ZM44.87,11.23v-.06l-.04.08.02.02v-.02l.02-.02ZM44.89,11.1s.02-.02.02-.04c0,.02-.02.04-.02.04ZM44.98,6.7l.11-.13v-.02c.06-.04.09-.17.13-.24l.06-.11.02-.02v-.02l-.02.02c-.08.13-.13.3-.24.41l-.06.11ZM45.34,12.64l-.02-.02c-.08.04-.15.08-.21.13.08-.02.15-.07.22-.11ZM46.8,10.63l-.04-.02-.23.32-.04.02c-.13.26-.64.81-.69.96-.06.06-.15.21-.19.28l-.06.04c-.02.08-.09.11-.11.17l-.04.02s-.04.04-.02.06l.02.02v-.02c.08-.02.51-.54.53-.6.06-.04.09-.09.11-.15.02-.02.06-.04.06-.08.02,0,.04-.02.06-.04v-.06l.06-.02c.06-.06.09-.13.11-.21l.06-.06v-.02l.17-.28.04-.02c.04-.09.13-.26.21-.32ZM46.5,11.27s.06-.06.06-.09l-.02-.02v.02c-.09.15-.22.36-.36.49v.02c-.08.11-.22.22-.28.34l-.06.04c-.06.09-.32.36-.36.47.04.02.19-.21.22-.24.17-.21.34-.41.53-.6,0-.04.04-.09.08-.11l.06-.09h.02c0-.08.07-.15.11-.21ZM47.85,9.1s.06-.08.08-.11l-.08.11Z"/><path class="cls-2" d="M56.24,8.27c.08.17-.49,1.31-.64,1.46l-.04-.02c.11-.19.24-.39.32-.6l-.11.13v.02l-.06.06c-.04.11-.13.28-.19.39.02.02,0,.04-.02.02l-.09.17v.02s-.09.15-.11.17c-.02.09-.08.19-.15.26v.04l.04-.02c.09-.23.24-.41.36-.62l.04.04s-.21.32-.21.34c-.02,0-.02.02-.02.04-.06.08-.08.19-.11.28v-.02c-.26.45-.58.88-.92,1.29v-.02l-.06.08-.02.02h-.02v.06c-.39.41-.84,1.29-1.54.86,0,.02-.02.04-.04.04-.04,0-.09-.07-.13-.11l-.04-.02h-.02c-.09-.13-.24-.36-.39-.43l-.22-.36s0-.04.02-.04l.08.08c.02.08.08.15.13.21,0-.02-.02-.09-.04-.08-.02-.06-.09-.09-.11-.19-.02-.02-.08-.06-.06-.08l-.06-.09s0-.04-.02-.04c0,.06.04.11.08.15l-.04.02h-.02c-.06-.08-.06-.17-.11-.24t0-.02l-.09-.17c.02-.06-.08-.19-.06-.22l-.04-.09s0-.09-.02-.13c.08-.36.08-.73.17-1.09.04-.19.13-.36.17-.54l.04-.04c0-.06.02-.11.04-.17l.06-.06s0-.04-.02-.02c.11-.39,1.2-3.04,1.41-3.3-.15-.09-.3-.11-.47-.09l-.09.06c.11-.02.21-.04.32-.02v.04c-.15.04-.26.04-.41.09l.11-.04c-.54.23-1.42,1.28-1.73,1.8v.02l-.07.11v.02c-.49.69-.92,1.39-1.28,2.18v-.02l-.06.11.02-.02-.02.06-.02.02c-.13.39-.34.79-.45,1.2-.08.26-.09.54-.19.79-.04.11-.09.3-.17.38.02.13.04.26.04.39l-.09-.06-.04.04-.15-.11-.02-.02h-.02c-.08-.08-.13-.13-.19-.23v-.02c-.17-.17-.3-.32-.43-.53,0-.02,0-.04.02-.06.08.11.17.22.22.34-.06-.13-.13-.24-.21-.36,0-.02-.02-.02-.02-.04s-.08-.11-.08-.13l-.04-.08v-.02s-.06-.08-.06-.11c0,.04.02.09.04.13.04.08.06.17.11.22l-.04.02c-.06-.08-.06-.17-.11-.24v-.02c-.06-.06-.06-.11-.09-.17v-.04l-.06-.11v-.07h-.02c-.13-.56.19-1.58.17-1.63.08-.15.09-.34.15-.49l.06-.06s0-.04-.02-.02c.19-.54.38-1.09.58-1.63.21-.56.43-1.14.69-1.69.06-.11.13-.21.17-.34.07,0,.32.13.39.19.06,0,.09.02.11.08,1.16.86.62,1.11.21,2.23.56-.58,1.41-2.19,2.33-2.33t.02.02c.58-.13.45-.22,1.07-.08l.02.06.3.17c.06,0,.11.02.13.08.23.17.47.34.62.58.24.36-.06.69-.21,1.01-.26.6-.49,1.22-.71,1.82l-.04.04c-.11.28-.6,1.76-.64,1.84,0,.04,0,.08-.02.09h-.06l.04.02s-.02.08-.04.11v.11s-.02.06-.02.09c-.02.02-.09.32-.11.38-.02,0-.02.02-.02.04l.02.02-.02.04c.02.06-.06.39-.09.43v.08l.04.04s0-.04.02-.02c.08,0,.13-.04.19-.09.56-.19,2.33-3.53,3-4.2.15.02.23.04.28.19ZM48.14,9.04c.21-.6.47-1.18.69-1.76.02,0,.04,0,.04-.02v-.04h.02c.09-.24.26-.45.36-.69v-.02s.13-.28.15-.34l.02-.02v-.04s.02,0,.02-.02-.04-.04-.06-.04l-.02.04v.02c-.08.19-.23.39-.32.58v.02l-.04.02v.06l-.04.02c-.02.06-.06.11-.04.17l-.04.04c.02.06-.08.13-.09.19v.04s-.04.04-.04.06v.02c-.04.06-.06.11-.08.17l-.02.02h.02c-.32.79-.67,1.59-.81,2.42.13-.28.17-.6.26-.88ZM48.79,6.96l-.06.09s0,.04.02.02c0-.04.02-.08.04-.11ZM48.81,6.92c.06-.08.11-.15.13-.22,0,0,.32-.54.36-.64v-.04s-.04,0-.02.02c-.08.08-.19.32-.23.41l-.02.02c-.02.06-.04.11-.08.15-.04.11-.09.21-.15.3ZM49,11.38l.02.02c.02-.06,0-.15,0-.09l-.02.08ZM49.07,11.44h-.02c-.04.09-.04.21-.04.3.02-.06,0-.19.06-.24v-.06ZM49.47,9.94l-.21.49h.02l.04-.04v.06l-.04.06s-.06,0-.04.02l.04.02c-.15.15-.13.39-.23.56v.06l-.02.02v.04c.04.09.17-.39.19-.47.06-.19.17-.36.21-.54l.02-.02-.02-.04v-.02l.04.02.04-.11s-.02-.02-.04-.02l.04-.04v.02l.02-.04v-.02h-.06ZM49.3,10.69c-.08.23-.17.45-.15.49l-.02.04s.04,0,.02-.02c.06-.15.09-.32.15-.51ZM49.22,10.54v.02h.02l-.02-.02ZM49.41,10.37l-.02.02v.04s.02-.04.02-.06ZM49.75,9.68l-.17.3v.02c-.08.11-.11.22-.15.36,0-.02.02-.06.04-.07.08-.13.17-.3.21-.43l.02-.02c0-.06.04-.09.06-.15ZM49.52,9.88v-.04s-.04.06-.04.08l.04-.04ZM49.58,10.13l-.06.13h.02l.04-.09v-.04ZM49.58,9.79v-.07s-.02.06-.04.09l.02-.02h.02ZM49.69,9.49v-.04l-.11.22.09-.13.04-.02.02-.04h-.04ZM49.62,10.05l-.04.08s.04-.04.04-.08ZM49.64,9.7l.04-.04s-.04,0-.06.02l.02.02ZM49.69,9.43c.13-.09.17-.28.24-.43l-.09.09s-.08.17-.15.34ZM50.07,8.93s-.02.02-.02.04t.02-.04ZM50.78,7.8v-.02c-.04.07-.09.13-.15.19v.04c.06-.06.11-.13.15-.21ZM50.99,7.45l-.17.26.02.02.04-.04.02-.08h.02l.02-.04v-.02s.06-.08.06-.11ZM50.99,7.45l.06-.08-.04.06s-.02.02-.02.02ZM51.77,6.49l-.19.17c.06-.04.13-.09.19-.17ZM51.79,11.61l-.02-.08-.02-.02c-.04-.06-.06-.13-.06-.19l-.02-.02c-.02.08.08.22.11.3ZM51.77,6.49s.06-.08.09-.11h-.02l-.08.11ZM52.09,9.11c.26-.73.6-1.58,1.03-2.23v-.02l.19-.28.02-.09c.04-.06.08-.11.09-.19l.02-.02v-.04s0-.04-.02-.06c-.08.21-.26.45-.38.66-.02,0-.04,0-.04.02l.02.04c-.06-.02-.09.15-.09.19l-.04.04c-.02.08-.08.11-.09.19v.04h-.02s-.02.06-.02.08c-.04.02-.08.08-.06.11,0,.02-.06.08-.02.08-.34.51-.69,1.67-.86,2.31.13-.26.17-.54.26-.81ZM52.47,5.42h.04-.04ZM52.52,12.64s-.04-.02-.04-.02l.04.02ZM52.75,7.15s0,.04.02.04v-.02c.06-.08.13-.21.17-.3-.06.09-.11.19-.19.28ZM53.37,12.64l-.02-.02c-.08.04-.15.08-.21.13.08-.02.15-.07.22-.11ZM54.83,10.63l-.04-.02-.23.32-.04.02c-.23.45-.62.81-.88,1.24l-.06.04s-.17.24-.17.24c.02.04.11-.07.13-.09.11-.11.49-.54.53-.66.02-.02.06-.04.06-.08.02,0,.04-.02.06-.04v-.06l.06-.02c.06-.06.09-.13.11-.21l.08-.08c.02-.09.08-.17.15-.24v-.04l.04-.02c.04-.09.13-.26.21-.32ZM54.57,11.16v.02c-.06.08-.32.47-.36.49v.02c-.07.11-.22.22-.28.34l-.06.04s-.34.45-.36.47c.06.04.19-.21.22-.24.17-.21.34-.41.53-.6,0-.04.04-.09.08-.11l.06-.09h.02c0-.08.13-.24.17-.28,0-.02,0-.04-.02-.04ZM55.88,9.1s.04-.06.06-.08l-.06.08Z"/><path class="cls-1" d="M0,48.58l.51-3.64h13.59l1.12-7.97H1.62l.51-3.64h17.57l-2.27,16.24h-3.98l.14-.99H0Z"/><path class="cls-1" d="M37.57,36.67c.72,0,1.32-.02,2.02-.21l2.02,1.62c-.5.75-2.66,4.09-3.12,4.75-2.92,4.16-5.79,6.81-11.33,9.02-.49-1.1-1.48-2.35-2.1-3.03,2.23-.75,7.77-2.61,10.92-8.72h-13.89l.48-3.43h15ZM39.71,31.19l-.47,3.36h-13.43l.47-3.36h13.43Z"/><path class="cls-1" d="M56.79,38.43c1.95,2.91,3.96,7.1,4.39,9.16-1.18.8-2.58,1.76-3.49,2.47-.17-.75-.34-1.5-.7-2.63-5.54,1.01-9.06,1.55-15.37,2.28-.08.21-.22.45-.41.45-.23,0-.27-.26-.28-.47l-.37-3.62c1.09-.02,1.7-.05,2.44-.09,2.1-3.12,5.64-9.89,7.53-15.25l3.86,1.04c.2.05.4.12.37.33-.05.33-.43.4-.62.45-.54,1.01-2.77,5.55-3.26,6.46-.51.96-2.29,4.28-3.83,6.67,2.23-.23,5.01-.56,8.67-1.24-.72-1.43-1.45-2.84-2.44-4.07l3.51-1.93Z"/></g></svg>