<?xml version="1.0" encoding="UTF-8"?><svg id="_レイヤー_2" xmlns="http://www.w3.org/2000/svg" viewBox="0 0 206.09 90.11"><defs><style>.cls-1{fill:#fff;stroke-width:0px;}</style></defs><g id="_レイヤー_1-2"><path class="cls-1" d="M9.89,2.36h.02s-.02.04,0,.08l-.06-.02c0-.26-.13-.49-.13-.75-.04-.07-.11-.17-.06-.24,0-.11-.13-.38-.17-.51l-.13-.11h-.11c-.07.09-.13.09-.24.09-.47-.04-.83.23-1.26.34-.53.13-2.18,1.89-2.34,2.42-.02.02-.06.04-.06.08-.09.06-.3.41-.36.52v.02l-.09.15s-.08.08-.08.11l-.06.11-.06.02.02.06-.04.06-.06.04c0,.06-.04.11-.06.17l-.02.02c-.02.07-.09.15-.09.22l-.15.3-.04.02v.06c-.06.09-.23.41-.23.51-.83,1.99-1.05,4.65.49,6.36.06.02.15.04.21.08.09-.04.23.02.32.04.3.07,1.61-.26,1.84-.49.02,0,.04,0,.04-.02.11-.02.26-.06.36-.13h.02c.08-.04.15-.11.23-.11l.04.02.02-.06.04-.02.04.02.08-.08.02.02.02-.04.07-.04s.06,0,.04-.02c.08-.02.13-.06.19-.07l.02.02.02-.06.11-.06.02.02c.06-.02.15-.02.19-.08v-.02c.06-.02.11-.08.17-.09h.04l.02-.02v-.04s.07-.08.11-.09c.02,0,.04-.02.04-.04.11-.06.75-.58.75-.58l.06-.07h.02l.15-.17v-.02c.23-.28.49-.64.73-.9.02-.09.13-.09.15-.21.02,0,.11-.02.08-.04.02-.04.04-.08.02-.11.04-.02.09-.02.13,0v-.17c.08-.04.13-.17.17-.17.21-.21.34-.47.52-.71h.02l-.02.02v.04l.02.04c.06-.08.34-.53.41-.62-.06.13-.13.24-.19.36l.45-.69.06.02c-.06.08-.07.15-.11.23l.06.02.02-.06.02-.02.04.06-.36.71.02.06c.09-.17.21-.34.28-.51l.04.02c.02.08-.26.54-.3.66.06-.08.09-.15.13-.24-.11.45-1.16,1.99-1.5,2.33v.02c-.06.06-.51.56-.51.6l-.04.02s-.24.36-.3.41l.04-.02c-.17.22-1.48,1.42-1.67,1.42-.04.02-.07.04-.09.08l-.09.04c-.11.13-.22.09-.32.19l-.04-.04h-.06l-.04.02.02.08c-.08,0-.13.02-.17.08-.06-.02-.51.21-.58.26-.19.15-.83.11-1.07.09-.09-.02-.21,0-.3-.04-.09,0-.23-.02-.28-.11-.23-.08-.51-.11-.71-.21-.47-.21-.81-.53-1.22-.83l-.04.04-.06-.02c-.11-.19-.32-.3-.45-.47l-.3-.43c.02.09.21.34.26.43-.92-.92-1.13-3.11-1.13-4.35l.06-.04.02-.08.07-.04c0,.53,0,1.39.13,1.88-.02.07,0,.17.02.24,0-.26-.06-.54-.02-.81-.04-.09.02-.15,0-.24-.07-.08-.06-.96-.06-1.11l-.02-.02v-.04l.02-.02c0-.06.04-.45.06-.47v-.17c.13-.22.13-.83.28-1.16v-.08l-.07.11c-.06.24-.21.51-.17.77l-.02.02s-.13.88-.15.97c-.02.06-.11.06-.11,0-.02-.28.19-.86.15-1.03l.04-.04c0-.28.04-.54.11-.83l-.04.04c.02-.09.67-1.71.73-1.8.17-.24.39-.47.51-.75.04-.02.07-.06.11-.09,0-.06.04-.09.06-.15l.08-.09c.06-.19.23-.09.26-.3.06-.07.21-.13.21-.21,0-.04.02-.08.06-.09.15-.06.19-.11.28-.22l.08.06h.08s.06-.04.07-.06c0-.04,0-.11-.06-.13.11-.06.13-.11.21-.19.04,0,.62-.39.66-.45.04-.06.07-.13.13-.17.06-.17,1.07-.43,1.16-.56.11-.02.69-.21.69-.21.11-.07.28-.15.41-.04.67-.09,2.06-.09,2.27.73.23.17.43.47.56.71.06.09.06.21.13.3.02.06.06.13.04.19.28-.36,1.09-1.59,1.44-1.71.11-.04.28-.02.24.15l.06.04c.04.21.34.9.28,1.01-.06.09-.11.11-.15.24-.04.15-.21.28-.34.38-.09.15-.21.26-.32.38-.02-.02-.04,0-.02.02-.11.24-.73.79-.79.96-.02,0-.64.81-.64.83-.13.09-.15.21-.26.32v.02c-.08.15-.17.34-.26.47,0,0-.07-.02-.06.02v.07l-.09-.02.04.11-.06.04-.04.06c-.13.09-.23.24-.32.36l-.02-.02c-.17.17-.34.53-.45.75-.09.02-.09.15-.21.15-.07,0-.15-.06-.22-.06-.06,0-.09.04-.15.04l-.04-.02.06-.13v.04s.06-.09.07-.13l.08-.08c0-.09.09-.15.09-.24.02,0,.02-.02.02-.04-.06.08-.22.34-.28.34-.04.06-.07.11-.09.19l-.07-.09-.06.02c-.41-.28-.22-.38,0-.77l.26-.45c.17-.06.43-.69.54-.86.04-.07.07-.13.13-.19v-.02c.09-.15.13-.38.32-.45l.06-.11.07-.04c.11-.19.24-.38.39-.56v-.08s.02-.02.02-.04l-.02-.04s.02-.09.04-.13l-.02-.02.02-.04v-.04l-.02-.02s.04-.07.02-.11h.06s.02-.02.02-.04v-.13s-.02.04-.02.06ZM2.16,7.75l.04-.02v-.19l-.04-.02s-.06.09-.06.13l.06.09ZM2.15,8.01l-.04.06h.06c.02-.06.02-.09.02-.15l-.08.04.04.06ZM2.13,7.37l.07.04c.02-.06.02-.11.02-.17h-.06s-.04.09-.04.13ZM2.15,8.5s0-.02-.02-.02v.02h.02ZM2.16,7.2l.06.02c-.02-.15.02-.36.04-.54l-.04.02s-.04.26-.04.3c-.08.06-.02.13-.02.21ZM2.26,9.1c0-.08-.02-.13-.02-.21l-.04-.02v.02h-.04c-.02.07.04.15.09.21ZM2.33,9.62l-.07.04c.06.06.04.13.06.19.02.02.06.02.09.02-.06-.15-.09-.45-.11-.62h-.02l-.04-.02h.06l-.04-.11-.08.02s.02.06.04.06l.02.04c-.07.02,0,.26.02.34.04,0,.07.02.07.06ZM2.18,8.5s0,.02.02.02v-.02h-.02ZM2.2,8.65v.02s.02-.02.02-.04h-.02v.02ZM2.26,6.64l.04-.13-.04-.02c-.04.06-.02.11,0,.15ZM2.43,10.03l-.02-.11-.04-.02h-.04l-.02.04s.08.08.11.09ZM2.35,8.08s.02-.06,0-.08v.08ZM2.39,8.14l.02-.02-.02-.02s-.02,0-.04.02l.04.02ZM2.37,8.25s0-.02-.02-.02v.02h.02ZM2.52,9.45l-.04-.02.02-.02c.02-.13-.02-.34-.04-.49l-.06-.08.02-.09.04-.02v-.06l-.11-.06c0,.21.04.83.13.97-.04.08-.06.13.04.15.06-.09,0-.21,0-.3ZM2.39,7.43l.02.02h.04v-.02s-.02,0-.04-.02h-.02v.02ZM2.45,8.33s-.04,0-.04.02h.04v-.02ZM2.43,7.09l.02-.02.04.02c.02-.06.06-.13.04-.19l-.02.06-.06-.02s-.02.09-.02.15ZM2.5,7.28l.02-.02-.02-.02-.04.02.04.02ZM2.52,7.65s-.04,0-.04.02t.04-.02ZM2.52,7.73v-.08l-.02.04.02.04ZM2.54,7.18c-.06,0-.04.04-.02.04,0-.02.02-.02.02-.04ZM2.52,7.84v-.04s0,.04,0,.04ZM2.54,7.61v-.02h-.02s0,.02.02.02ZM3.1,7.05v.02s.04-.04.02-.06t-.02.04ZM3.18,6.56s0-.02.02-.04l-.02.02v.02ZM3.44,7.95c-.07.24-.07.64-.07.88.04-.24.09-.64.07-.88ZM3.87,5.93c.17-.51.41-1.14.71-1.58.08-.11.26-.39.26-.51-.32.56-.68,1.07-.9,1.71-.13.36-.21.75-.32,1.11.11-.22.17-.51.24-.73ZM4.02,2.08l.19-.17c-.11.04-.13.06-.19.17ZM4.58,2.01c-.08-.02-.09.06-.11.11l.07.04.09-.08-.06-.08ZM4.53,1.65l.17-.17-.15.11-.02.06ZM4.86,1.9l-.02-.08-.04-.04-.06-.02c-.06.06-.09.17-.04.24l.15-.11ZM5.26,1.37c-.02.06.06.13,0,.17l-.13-.08c-.04.13-.17.15-.24.23.02.04.06.11.04.15.08-.02.13-.06.19-.11.08.02.17-.04.19-.13.04-.02.09-.02.13.02.06-.11.02-.17.17-.17.09-.13.64-.39.77-.53l-.02-.04v-.06l-.02.02-.02-.09c-.19.04-.26.17-.28.36l-.11-.17c-.13.02.02.19-.11.15l.02.09-.02.04-.04-.06.04-.08c-.11-.11-.45.21-.54.28ZM5.28,3.3s-.04,0-.02.02c-.08.08-.13.13-.17.23-.06.06-.11.11-.15.19.07.02.3-.36.34-.43ZM5.01,2.16s.02,0,.02-.02t-.02.02ZM5.01,12.7c.08.19,1.16,0,1.35-.06l.04.02v.06l-.04.02h-.02c-.06-.04-.09-.08-.13,0-.04,0-.07.02-.11.06l-.08-.02-.04.02c-.09,0-.19.02-.26.04-.06-.02-.08.02-.11.06l-.07-.02-.04-.04h-.02l-.06.09c.34.11.86-.08,1.18-.15l-.02-.04s-.08-.02-.09-.06l.04-.06h.04v-.08h.09l.08-.04.04-.02s.06-.04.06-.06c0,0-.88.21-.99.22-.17.04-.32,0-.49.04-.08-.04-.17-.06-.24,0-.04-.06-.06-.06-.09,0ZM5.15,2.19v.06h.02s0-.04-.02-.06ZM5.2,2.21l.06-.04-.04-.04h-.04s.04.06.02.08ZM5.31,2.08l-.02.02v.04l.02-.06ZM5.35,2.1l.06-.06h.06c.06-.06.13-.09.19-.13l.02-.06.04.02c.02-.06.08-.06.13-.08v-.06c-.15.08-.28.17-.41.26l-.02.04v-.02l-.08.04.02.04ZM5.99,2.55c.26-.32.56-.54.84-.83-.34.17-.75.53-.98.83l-.06.02-.04-.04s.04-.08.07-.09c.08-.02.19-.04.17-.15l.08-.08c-.28.13-.38.24-.58.45v.02l.04.02s.07-.04.11-.06l.02.02-.02.08-.04.04.02.09c-.13.13-.15.09-.23.28-.04.02-.06.06-.06.09.23-.21.45-.45.64-.69ZM5.37,12.9v-.02s-.02,0-.02.02h.02ZM5.41,2.8s-.02.02-.02.04h.02s0-.02.02-.04h-.02ZM5.45,13.03h-.04l.02.02s.02,0,.02-.02ZM5.54,2.78l-.02.02v.02s.02-.02.02-.04ZM5.6,1.73h.02s.02-.02.02-.04l-.04.04ZM5.9,1.52v.02h.02l.08-.04.04-.06-.07.04h-.02s-.04.02-.04.02v.02-.02l-.13.06-.09.09.04.02s.04-.02.06,0c.04-.04.07-.07.11-.09,0,0,0-.04.02-.06ZM7.04,12.96s-.09.04-.13.04c.02.02-.02.02-.02.02-.06,0-.09.04-.11.09-.06-.08-.19.02-.24.04-.06.06-.15,0-.24.06-.08-.02-.09.02-.15.06-.06-.02-.13-.02-.21-.02l-.04.06-.06-.02-.02-.02-.09.04c.11.11.23.04.34.08l-.04.06.06.06.02-.02.02-.08.04-.02.02.02-.02.04h.02v.04c.11.02.19-.04.24-.13l.04.09s.07-.06.11-.06l.08.02c.11-.04.21-.09.3-.13.02-.02.04-.06.04-.09l.08.06c.04-.06.13-.08.19-.11,0-.04,0-.08.02-.11.06,0,.04.04.04.08l.04.02.07-.09-.04-.09-.09-.02s-.02-.02-.04-.02c-.06.02-.21.13-.21.09ZM5.73,13.37v.06s.04-.06,0-.06ZM5.86,13.07l.04-.02h-.06l.02.02ZM5.9,1.76l.06-.07-.02-.02-.07.06s.02.04.04.04ZM5.92,13.43s-.04-.04-.04,0h.04ZM6.12,1.41s-.06,0-.07.02v.02l.07-.04ZM6.38.73l.06.13v.04l.09-.04h-.02c0-.08.02-.21-.09-.17l-.04.04ZM6.57,13.03h.04l.02-.02s-.04.02-.06.02ZM6.61,13.33l-.04.04v-.06l.02-.02.02.04ZM6.63,12.66h-.02s0,.02.02.02v-.02ZM6.65,12.72s-.02.02,0,.04h.06s-.04-.04-.06-.04ZM6.65,13.02s.04,0,.07-.04c-.04.02-.06.04-.07.04ZM6.68.71l.04.02v-.04l-.04-.02v.04ZM6.7,12.73h.02l-.02-.02v.02ZM6.89,12.43l.02.02s.17-.02.15-.08h.07l.08-.04s-.13,0-.17.02c-.04.04-.09.06-.15.08ZM8.17,11.83s-.06.04-.09.06l-.49.24c-.06.02-.26.15-.28.19.11-.06.26-.11.39-.15v-.02s.04-.02.06-.04c.15-.06.28-.17.41-.26v-.02ZM7.43,13.17s-.08.06-.13.08l.13-.04v-.04ZM7.57,12.92l-.06-.04-.02-.02h-.04s0,.07.02.11c.04.02.07-.02.09-.06ZM7.51,12.87h.02s0-.02-.02-.02v.02ZM8.3,5.33l-.04-.04c-.08.15-.17.26-.24.41.08-.09.24-.26.28-.38ZM9.46,4.26l-.02-.04v-.02c-.15.24-.39.51-.56.73l.02.08v.02l.02-.02.02-.09c.15-.15.24-.34.39-.49.02-.04.04-.09.07-.13.02.02.04-.02.06-.04ZM8.9,11.59l.02.06.06-.07-.02-.04-.06.06ZM8.97,11.57h.04c.08-.04.13-.11.19-.17v-.02l.02.02.06-.06v-.04l-.06-.02-.24.24s.02.04,0,.04ZM9.59,3.85v-.09l.02-.04h-.02c-.09.24-.32.41-.47.62l.04.06c.11-.19.28-.39.43-.54ZM9.4,11.18s.02-.02.02-.04c-.02,0-.02.02-.02.04ZM9.5,11.05v-.02h-.02s0,.02.02.02ZM9.57,10.99l.06-.06h-.02l-.04.02v.04ZM9.65,10.92l.02-.02-.02-.02v.04ZM9.78,10.75v.02-.02ZM9.82,10.65l.06-.06-.08.06h.02ZM9.91,1.6s.02-.02.02-.04t-.04.02s0,.02.02.02ZM9.95,10.78s0-.04.02-.04h.04l.02-.04s-.02,0-.02-.02c-.04,0-.07,0-.11-.02v.04l.06.08ZM10.42,2.18c-.04-.21-.06-.54-.19-.71,0-.06-.04-.13-.09-.15.04-.08.02-.09-.06-.06.06.32.19.54.24.99l-.02.02h-.06l-.02-.04v-.02c.06-.02.11-.06.02-.09.04-.04-.02-.06-.04-.08.06-.02.06-.04.02-.07,0-.06-.02-.13-.04-.19l-.08-.06v-.06l.04-.04-.02-.02h-.09v-.04l.02-.02-.06-.02s-.04.06-.04.09c.02.02.04.06.02.08h-.04l-.04.04v.02l.08-.02c.06-.02-.04.02-.02.04h-.06c0,.07.08.09.13.09l-.09.04s.02.02.04.02v.02l-.02.04c.02.06.04.09.04.15l.08.02-.08.04s.04.06.04.09h.06l.04.02s-.06.02-.07.02l-.04.02.06.04h.11s.09-.08.09-.04l.13-.17ZM10.02,10.69h.02l.06-.06v-.06l.04.02.06-.08-.02-.02v-.04l.04.02s0,.04.02.02l.02-.06-.06-.06h-.04l-.06.04v-.04l-.04-.02c-.06.04-.09.11-.13.17l.13-.13h.02l.02.04s-.04.04-.07.06l.06.04-.04-.02-.04.08.02.06s.02.02,0,.04ZM9.97,10.73h-.02v-.02l.02.02ZM10.02,1.97l-.02-.02h.06s-.02.02-.04.02ZM10.1,10.33v.02h.02s.02-.02-.02-.02ZM10.17,10.3s0-.02.02-.02v-.02s-.06,0-.02.04ZM10.15,2.46h.02l-.02-.02v.02ZM10.21,3.34l.09-.13s.02-.06.02-.08c-.06.04-.13.13-.11.21ZM10.3,2.94s-.02,0-.02.02l.02-.02ZM10.42,2.53l-.06.06h.02s.04-.04.04-.06ZM10.53,9.72c.11-.13.56-.69.66-.77l.02.04-.02.04s-.09.02-.08.08l-.04.09-.06.02s-.04.06-.06.08v.02l.19-.15.04.02-.11.15.04.04.09-.15v-.06h.04l.08-.11-.02-.02v-.04s.04.02.06.02v-.08l-.04-.04s-.06.02-.08.02v-.04l.02-.02-.02-.04.06-.06.06-.13c-.11.09-.71.92-.83,1.09ZM10.6,2.35l.38-.47.04-.02s-.02-.02-.04-.02c-.13.13-.24.32-.38.45v.06ZM10.62,2.57c.06-.02.17-.17.17-.24.07-.07.19-.24.28-.3.02-.09.07-.04.07-.15h-.04c-.17.17-.32.38-.49.54v.15ZM11.22,2.08c-.19.19-.41.43-.56.66v.04l.06-.04c.09-.13.39-.45.45-.56.04-.02.06-.06.06-.09ZM11.32,9.4c-.04.08-.13.15-.15.19v.02s.11-.13.15-.21ZM11.24,1.78s0-.04-.02-.02l-.04.06s0,.04.02.02l.04-.06ZM11.37,1.48l-.17.15-.02.04.02.02c.08-.06.13-.13.17-.21ZM11.33,9.36s.02,0,.02-.02c0,.02-.02.02-.02.02Z"/><path class="cls-1" d="M19.37,8.91l.04.02s-.06.09-.06.13c-.04.08-.08.15-.13.23,0,0,.02,0,.02-.02t-.02.04l-.06.06h.02c-.41.58-.98,1.16-1.69,1.29l-.04-.02h-.06l-.02-.04c.24,0,.79-.22.96-.39.04-.02.08-.04.11-.08-.13.06-.24.17-.38.22h-.02c-.26.19-1.11.34-1.39.15-.02-.02-.04,0-.02.02h.04l.02.02c.22.08.38.08.6.08l.02.04c-.23,0-.45-.08-.66-.08,0-.02-.02-.02-.04-.02-.08.15-.23.3-.32.45v-.02l-.06.08h.04l-.04.04h-.02v.06c-.26.43-.47.6-.82.96-.23.07-.39.21-.62.26h.02l-.02.02c-.32.02-.66.02-.94-.13l-.06.02c-.32-.07-.62-.26-.84-.49v.02c-.11-.13-.21-.26-.3-.41l.04.08c-.26-.41-.32-.9-.51-1.33,0-.28-.08-.56-.02-.84.02-.02.04-.04.06-.04h.04c0,.38,0,.71.06,1.07v-.86c0-.08-.02-.3.02-.26v-.11l.02-.04-.06-.02-.04.17-.06-.04c0-.09.09-.45.09-.47l.04-.02s0-.04-.02-.04l-.02.04-.04-.02c.04-.11.06-.28.11-.39l-.02.02.15-.34.02-.02c.02-.09.06-.19.11-.28l-.02.02c.23-.47.51-.99.86-1.41.06-.17.34-.38.47-.47.04-.02.08-.04.11-.08l-.04.02.06-.06.04.02c.39-.45,1.48-.24,1.93.02l-.02.06s-.04-.02-.04,0l.04.02-.02.04c.17.04.36.11.21.3h-.26l-.02.08c.08,0,.15.02.23.04.15-.02.36,0,.49.08.02.02.11.06.09.08l.15.22h.04c.04.13.09.26.11.38v-.08c.09.62.21,1.18.21,1.8l-.04.02-.02.04h-.02l-.02.04.06.02c0,.09-.08.41-.08.43-.04.02-.02.22-.02.26l-.04.09h.02c-.06.15-.15.3-.19.45l-.02.02c.73.21,1.48-.49,1.93-.96v.02c.04-.09.19-.28.26-.36,0-.02.02-.02.04-.02l-.09.17c.13-.17.23-.34.36-.51l.04.02v.04l-.06.09.04.02s.02-.04.04-.06l.02.06h.02l-.34.56.02.06.21-.34v.02ZM13.07,7.28h.02c.06-.09.36-.54.41-.6.02-.06.06-.11.09-.17-.17.17-.26.34-.39.54-.02.04-.04.09-.08.11l-.02.06s-.04.04-.04.06ZM15.92,6.23l-.08-.06c-.11.04-.38.09-.45.15-.94.62-2.1,3.38-2.01,4.54.02.3.13.54.24.83.09.04.19.09.28.15,1.07,0,1.44-.94,1.91-1.71-.58-.58-.77-1.14-.84-1.95l.02.02v-.13l-.02.02v-.06l.02-.02c-.23-.45.3-1.71.92-1.78ZM13.54,6.32l-.13.21s.04,0,.02-.02l.11-.19ZM13.63,6.21c.38-.47.84-.66,1.54-.66.09,0,.45.02.51.08h.04c-.36-.22-.94-.08-1.33-.02-.11.02-.3.19-.41.22-.06.09-.19.15-.26.26h-.02l-.06.11ZM15.73,5.7c-.39-.15-.84-.13-1.26-.04-.17.04-.26.19-.43.22,0,.04-.04.06-.06.08-.08.02-.17.11-.21.19.45-.38.84-.54,1.43-.51.08,0,.43.08.47.08l.02.02h.07l-.04-.04ZM14.44,12.28l-.04-.04c-.11,0-.23-.06-.34-.04l-.04-.02s-.06.04-.02.04c.13.04.28.06.43.06ZM14.14,12.32c.11.04.21.02.32.02l-.11-.02c-.09.02-.17-.02-.26-.02l-.02-.02h-.04s.09.04.11.04ZM14.46,12.34h.15v-.02s-.11,0-.15.02ZM15.04,8.2c-.02-.53.13-1.05.34-1.5-.3.3-.34,1.07-.34,1.46v.04ZM15.1,8.65c.02.15.06.3.13.41.02.02.04,0,.02-.02-.08-.13-.11-.26-.15-.39ZM15.38,6.7s0-.02.02-.04c-.02,0-.02.02-.02.04ZM16.39,8.63c.07-.39.17-1.76-.06-2.04l-.02.02c-.08-.02-.21.06-.26.11-.69.24-.56,1.8-.34,2.34.09.24.24.38.38.58.15-.34.23-.66.3-1.01ZM16.5,10.52l-.04-.02c-.02.06-.24.43-.26.45.02.09-.19.24-.23.36l-.08.08c-.04.09-.13.21-.19.28-.02.04-.15.21-.13.19.26-.26.43-.6.68-.86v-.02c.06-.06.09-.13.11-.21h.02c0-.09.07-.17.11-.24ZM15.75,11.46l.21-.22.02-.06c.06-.04.11-.17.13-.24l.06-.02v-.08l.04-.02s.07-.08.07-.13h-.07l-.45.77ZM19.19,9.36s.04-.04.04-.08v.02s-.04.04-.04.06Z"/><path class="cls-1" d="M27.48,8.27c.08.17-.49,1.31-.64,1.46l-.04-.02c.11-.19.24-.39.32-.6l-.11.13v.02l-.06.06c-.04.11-.13.28-.19.39.02.02,0,.04-.02.02l-.09.17v.02s-.09.15-.11.17c-.02.09-.08.19-.15.26v.04l.04-.02c.09-.23.24-.41.36-.62l.04.04s-.21.32-.21.34c-.02,0-.02.02-.02.04-.06.08-.08.19-.11.28v-.02c-.26.45-.58.88-.92,1.29v-.02l-.06.08-.02.02h-.02v.06c-.39.41-.84,1.29-1.54.86,0,.02-.02.04-.04.04-.04,0-.09-.07-.13-.11l-.04-.02h-.02c-.09-.13-.24-.36-.39-.43l-.23-.36s0-.04.02-.04l.08.08c.02.08.08.15.13.21,0-.02-.02-.09-.04-.08-.02-.06-.09-.09-.11-.19-.02-.02-.08-.06-.06-.08l-.06-.09s0-.04-.02-.04c0,.06.04.11.07.15l-.04.02h-.02c-.06-.08-.06-.17-.11-.24t0-.02l-.09-.17c.02-.06-.08-.19-.06-.22l-.04-.09s0-.09-.02-.13c.08-.36.08-.73.17-1.09.04-.19.13-.36.17-.54l.04-.04c0-.06.02-.11.04-.17l.06-.06s0-.04-.02-.02c.11-.39,1.2-3.04,1.41-3.3-.15-.09-.3-.11-.47-.09l-.09.06c.11-.02.21-.04.32-.02v.04c-.15.04-.26.04-.41.09l.11-.04c-.54.23-1.43,1.28-1.73,1.8v.02l-.07.11v.02c-.49.69-.92,1.39-1.28,2.18v-.02l-.06.11.02-.02-.02.06-.02.02c-.13.39-.34.79-.45,1.2-.08.26-.09.54-.19.79-.04.11-.09.3-.17.38.02.13.04.26.04.39l-.09-.06-.04.04-.15-.11-.02-.02h-.02c-.08-.08-.13-.13-.19-.23v-.02c-.17-.17-.3-.32-.43-.53,0-.02,0-.04.02-.06.08.11.17.22.23.34-.06-.13-.13-.24-.21-.36,0-.02-.02-.02-.02-.04s-.08-.11-.08-.13l-.04-.08v-.02s-.06-.08-.06-.11c0,.04.02.09.04.13.04.08.06.17.11.22l-.04.02c-.06-.08-.06-.17-.11-.24v-.02c-.06-.06-.06-.11-.09-.17v-.04l-.06-.11v-.07h-.02c-.13-.56.19-1.58.17-1.63.08-.15.09-.34.15-.49l.06-.06s0-.04-.02-.02c.19-.54.38-1.09.58-1.63.21-.56.43-1.14.69-1.69.06-.11.13-.21.17-.34.07,0,.32.13.39.19.06,0,.09.02.11.08,1.16.86.62,1.11.21,2.23.56-.58,1.41-2.19,2.33-2.33t.02.02c.58-.13.45-.22,1.07-.08l.02.06.3.17c.06,0,.11.02.13.08.23.17.47.34.62.58.24.36-.06.69-.21,1.01-.26.6-.49,1.22-.71,1.82l-.04.04c-.11.28-.6,1.76-.64,1.84,0,.04,0,.08-.02.09h-.06l.04.02s-.02.08-.04.11v.11s-.02.06-.02.09c-.02.02-.09.32-.11.38-.02,0-.02.02-.02.04l.02.02-.02.04c.02.06-.06.39-.09.43v.08l.04.04s0-.04.02-.02c.08,0,.13-.04.19-.09.56-.19,2.33-3.53,3-4.2.15.02.23.04.28.19ZM19.38,9.04c.21-.6.47-1.18.69-1.76.02,0,.04,0,.04-.02v-.04h.02c.09-.24.26-.45.36-.69v-.02s.13-.28.15-.34l.02-.02v-.04s.02,0,.02-.02-.04-.04-.06-.04l-.02.04v.02c-.08.19-.23.39-.32.58v.02l-.04.02v.06l-.04.02c-.02.06-.06.11-.04.17l-.04.04c.02.06-.08.13-.09.19v.04s-.04.04-.04.06v.02c-.04.06-.06.11-.08.17l-.02.02h.02c-.32.79-.67,1.59-.81,2.42.13-.28.17-.6.26-.88ZM20.04,6.96l-.06.09s0,.04.02.02c0-.04.02-.08.04-.11ZM20.06,6.92c.06-.08.11-.15.13-.22,0,0,.32-.54.36-.64v-.04s-.04,0-.02.02c-.07.08-.19.32-.23.41l-.02.02c-.02.06-.04.11-.08.15-.04.11-.09.21-.15.3ZM20.25,11.38l.02.02c.02-.06,0-.15,0-.09l-.02.08ZM20.32,11.44h-.02c-.04.09-.04.21-.04.3.02-.06,0-.19.06-.24v-.06ZM20.71,9.94l-.21.49h.02l.04-.04v.06l-.04.06s-.06,0-.04.02l.04.02c-.15.15-.13.39-.23.56v.06l-.02.02v.04c.04.09.17-.39.19-.47.06-.19.17-.36.21-.54l.02-.02-.02-.04v-.02l.04.02.04-.11s-.02-.02-.04-.02l.04-.04v.02l.02-.04v-.02h-.06ZM20.55,10.69c-.08.23-.17.45-.15.49l-.02.04s.04,0,.02-.02c.06-.15.09-.32.15-.51ZM20.47,10.54v.02h.02l-.02-.02ZM20.66,10.37l-.02.02v.04s.02-.04.02-.06ZM21,9.68l-.17.3v.02c-.08.11-.11.22-.15.36,0-.02.02-.06.04-.07.08-.13.17-.3.21-.43l.02-.02c0-.06.04-.09.06-.15ZM20.77,9.88v-.04s-.04.06-.04.08l.04-.04ZM20.83,10.13l-.06.13h.02l.04-.09v-.04ZM20.83,9.79v-.07s-.02.06-.04.09l.02-.02h.02ZM20.94,9.49v-.04l-.11.22.09-.13.04-.02.02-.04h-.04ZM20.87,10.05l-.04.08s.04-.04.04-.08ZM20.88,9.7l.04-.04s-.04,0-.06.02l.02.02ZM20.94,9.43c.13-.09.17-.28.24-.43l-.09.09s-.08.17-.15.34ZM21.31,8.93s-.02.02-.02.04t.02-.04ZM22.03,7.8v-.02c-.04.07-.09.13-.15.19v.04c.06-.06.11-.13.15-.21ZM22.23,7.45l-.17.26.02.02.04-.04.02-.08h.02l.02-.04v-.02s.06-.08.06-.11ZM22.23,7.45l.06-.08-.04.06s-.02.02-.02.02ZM23.02,6.49l-.19.17c.06-.04.13-.09.19-.17ZM23.04,11.61l-.02-.08-.02-.02c-.04-.06-.06-.13-.06-.19l-.02-.02c-.02.08.08.22.11.3ZM23.02,6.49s.06-.08.09-.11h-.02l-.08.11ZM23.34,9.11c.26-.73.6-1.58,1.03-2.23v-.02l.19-.28.02-.09c.04-.06.08-.11.09-.19l.02-.02v-.04s0-.04-.02-.06c-.08.21-.26.45-.38.66-.02,0-.04,0-.04.02l.02.04c-.06-.02-.09.15-.09.19l-.04.04c-.02.08-.08.11-.09.19v.04h-.02s-.02.06-.02.08c-.04.02-.08.08-.06.11,0,.02-.06.08-.02.08-.34.51-.69,1.67-.86,2.31.13-.26.17-.54.26-.81ZM23.72,5.42h.04-.04ZM23.77,12.64s-.04-.02-.04-.02l.04.02ZM24,7.15s0,.04.02.04v-.02c.06-.08.13-.21.17-.3-.06.09-.11.19-.19.28ZM24.62,12.64l-.02-.02c-.07.04-.15.08-.21.13.08-.02.15-.07.23-.11ZM26.08,10.63l-.04-.02-.23.32-.04.02c-.23.45-.62.81-.88,1.24l-.06.04s-.17.24-.17.24c.02.04.11-.07.13-.09.11-.11.49-.54.52-.66.02-.02.06-.04.06-.08.02,0,.04-.02.06-.04v-.06l.06-.02c.06-.06.09-.13.11-.21l.08-.08c.02-.09.08-.17.15-.24v-.04l.04-.02c.04-.09.13-.26.21-.32ZM25.82,11.16v.02c-.06.08-.32.47-.36.49v.02c-.07.11-.23.22-.28.34l-.06.04s-.34.45-.36.47c.06.04.19-.21.23-.24.17-.21.34-.41.52-.6,0-.04.04-.09.08-.11l.06-.09h.02c0-.08.13-.24.17-.28,0-.02,0-.04-.02-.04ZM27.13,9.1s.04-.06.06-.08l-.06.08Z"/><path class="cls-1" d="M32.13,5.53c-.08-.08-.3.24-.32.28-.17.28-.32.71-.52.96l-.02-.02c-.04.08-.07.15-.13.21-.06.07-.15.22-.19.04-.04-.11.08-.3,0-.39l-.07-.04c0-.07,0-.22.04-.34l-.09-.06c-.11.04-.34.09-.43.15-.98.71-2.1,3.3-2.03,4.54.02.3.15.54.24.83h.02c.13.06.24.17.39.19.11.08.36.06.49.04,1.2-.21,2.53-2.44,3.26-3.39v.02c.06-.11.15-.23.23-.32.02,0,.04,0,.04-.02l-.07.13c.07-.11.06-.04.21-.15l.04.04s-.04.08-.08.09l.02.02.04-.02v-.02l.04.06c-.11.15-.08.06-.17.21l.02.04c.06-.07-.02.08.04-.02l.04.04c-.08.11.02,0-.06.11-.17.3-.51.96-.62,1.07-.04.09-.23.38-.28.43h-.04l.26-.41c-.11.13-.23.28-.3.41.02.02,0,.04-.02.02-.07.11-.15.24-.24.34v.02c-.06.11-.13.21-.23.28l-.02.04c.06-.02.47-.58.52-.66l.02.02c-.04.07-.26.36-.26.36,0,.02-.02.04-.02.04-.06.09-.09.19-.17.26-.36.43-.83.94-1.33,1.18l.02-.02-.09.06h.02l-.06.04-.02-.02c-.06.09-.36.17-.47.23-.45.04-.96-.06-1.31-.36-.17.04-.36-.15-.47-.26h-.02l-.04.04c-.11-.13-.21-.26-.3-.41l.04.08c-.38-.68-.52-1.41-.52-2.18.02,0,.04-.02.06-.04h.06c-.06.15,0,.88.04,1.07,0-.19-.02-.34.02-.52-.06-.17,0-.38,0-.56-.04-.02-.02-.06,0-.04,0-.06.02-.09.02-.15l-.06-.02c0,.06-.02.11-.02.17l-.07-.04.11-.47s.02-.09.02-.11l-.04.09-.04-.02.09-.24s.02-.11.04-.15l-.02.02.15-.34s.09-.26.11-.3l-.02.02c.24-.51.86-1.59,1.33-1.88.04-.02.07-.04.11-.08l-.04.02.08-.06.02.02c.38-.45,1.5-.24,1.95.02l-.02.06-.04-.02s0,.04.02.04v.04s.07.02.11.02l.02-.02-.02-.02c.04-.09.09-.17.09-.28l.02-.02h-.02c.02-.06.06-.09.09-.13.04-.06,0-.13.04-.17v-.02h.04v-.04l.02-.02.02-.06h.02v-.04s.08-.08.08-.13l.04-.04.04.02.02-.04-.04-.02.02-.04s.06-.04.08-.06v-.09s0-.06.02-.06c.02-.04.04-.09.08-.11v-.02l-.02-.04c.04-.09.11-.19.09-.28.02-.08,0-.17.04-.22.15-.06.98.49,1.13.64.15.15.04.26-.06.41-.51.81-1.14,1.58-1.76,2.29l-.09-.08c.15-.11.9-1.41,1.05-1.65ZM28.57,6.51c-.09.09-.28.34-.32.45-.06.06-.09.11-.13.19v.02l-.04.06s-.02.07,0,.06c.06-.11.34-.49.36-.56.06-.06.09-.13.13-.21ZM28.29,6.68s.04-.02.06-.04c0-.02,0-.06.02-.08l-.06.06-.02.06ZM28.61,6.25s.02-.04.02-.06c-.08.11-.17.21-.23.3v.04l.21-.28ZM28.51,12.02l.26.17v-.02c-.07-.06-.19-.11-.26-.15ZM28.53,6.47l.04-.04v-.02s-.04.04-.04.06ZM28.76,6.04c.3-.34.79-.43,1.2-.51.13-.02.62.11.73.09t-.02-.02c-.41-.15-1.35-.13-1.71.22-.06.04-.13.08-.17.13l-.04.08ZM30.74,5.74s-.04-.02-.02-.04c-.49-.11-.75-.17-1.26-.04-.17.04-.34.21-.45.22l-.04.08c-.09.04-.15.11-.23.19.45-.36.86-.54,1.43-.51.07,0,.45.08.47.08l.04.02h.06ZM28.81,12.15h.02l.08.04-.02-.04-.06-.02-.02.02ZM28.98,12.23c.06.02.13.04.19.04.21.08.88-.04,1.03-.21l.11-.04s.04-.04.04-.06h.06c.06-.04.52-.43.54-.49l.04-.02.06-.07c.08-.04.17-.15.21-.21l.04-.02-.04-.02c-.08.08-.34.36-.41.38-.21.32-.69.53-1.03.66-.06-.02-.51.15-.71.04h-.06l-.02-.02h-.04s-.02.02,0,.04ZM30.86,11.65c-.23.28-1.01.71-1.37.68l-.04.02-.13-.02c-.08.02-.17-.02-.24-.02l-.04-.02h-.04s.11.04.13.04c.47.09.79-.06,1.2-.23.04-.04.11-.06.15-.11l.11-.06v-.02s.07-.06.11-.08l.17-.15s0-.06-.02-.04ZM29.21,5.65s-.04.02-.04.02c0,0,.02-.02.04-.02ZM30.09,12.25l-.09.04h.02l.09-.04h-.02ZM30.2,12.19l-.07.04s.06-.02.07-.04ZM30.91,6.23s.02-.06.04-.08c.02-.02,0-.04-.02-.02l-.02.09ZM30.99,11.57v-.02s-.04.04-.06.08l.06-.06ZM30.99,11.63s.04,0,.06-.02c-.02,0-.04,0-.06.02ZM33.09,8.72l.02-.04s-.02.02-.02.04Z"/><path class="cls-1" d="M38.86,8.55c-.06.09.02.08,0,.11-.15.28-.51.99-.64,1.12-.04.09-.23.38-.28.43h-.04l.26-.41c-.11.13-.23.28-.3.41.02.02,0,.04-.02.02-.07.11-.15.24-.24.34v.02c-.06.11-.13.21-.23.28l-.02.04c.06-.02.47-.58.52-.66l.02.02c-.04.07-.07.15-.13.21-.04.04-.11.09-.13.15,0,.02-.02.04-.02.04-.06.09-.09.19-.17.26-.36.43-.83.94-1.33,1.18l.02-.02-.09.06h.02l-.06.04-.02-.02c-.06.09-.36.17-.47.23-.45.04-.96-.06-1.31-.36-.17.04-.36-.15-.47-.26h-.02l-.04.04c-.11-.13-.21-.26-.3-.41l.04.08c-.38-.68-.52-1.41-.52-2.18.02,0,.04-.02.06-.04h.06c-.06.15,0,.88.04,1.07,0-.19-.02-.34.02-.52-.06-.17,0-.38,0-.56-.04-.02-.02-.06,0-.04,0-.06.02-.09.02-.15l-.06-.02c0,.06-.02.11-.02.17l-.07-.04.11-.47s.02-.09.02-.11l-.04.09-.04-.02.09-.24s.02-.11.04-.15l-.02.02.15-.34s.09-.26.11-.3l-.02.02c.07-.13.15-.26.21-.41.32-.3.54-1.11,1.13-1.46.04-.02.07-.04.11-.08l-.04.02.08-.06.02.02c.39-.45,1.5-.24,1.95.02h-.02c.26.11.43.36.54.6.02.04.04.17.06.17.04.11-.06.38-.06.51,0,.11-.23.54-.26.66-.28.68-.88,1.12-1.52,1.44h-.02c-.26.09-.36.19-.66.19.02,0,0-.02-.02,0-.07.02-.15.04-.23.04,0-.02-.02-.02-.04-.02l.11-.04c-.09.02-.24.06-.34.06-.32.96-.32,1.43,0,2.36h.02c.13.06.24.17.39.19.11.08.36.06.49.04,1.22-.21,2.36-2.23,3.09-3.21v.02c.06-.11.15-.23.23-.32.02,0,.04,0,.04-.02l-.09.15c.11-.15.21-.3.36-.41l.04.04s-.04.07-.07.09l.02.02.04-.02v-.02l.04.06c-.11.13-.06.13-.11.23l.04.04ZM33.83,7.28c.06-.11.34-.49.36-.56.06-.06.09-.13.13-.21-.09.09-.28.34-.32.45-.06.06-.09.11-.13.19v.02l-.04.06s-.02.07,0,.06ZM34.04,6.68s.04-.02.06-.04c0-.02,0-.06.02-.08l-.06.06-.02.06ZM34.15,6.53l.21-.28s.02-.06.04-.08l-.24.32v.04ZM34.53,12.17c-.07-.06-.19-.11-.26-.15l.26.17v-.02ZM34.32,6.41s-.04.04-.04.06l.04-.04v-.02ZM34.66,9.02l-.19.06v-.02l-.04.08c.08-.04.15-.06.23-.08v-.04ZM34.47,6.06c.3-.36.81-.43,1.24-.53.13-.02.62.11.73.09t-.02-.02c-.47-.17-1.54-.11-1.88.36l-.08.09ZM36.57,6.17c-.11.04-.36.09-.43.15-.52.39-1.56,2.06-1.65,2.7l.02-.02.17-.08-.06.02c.21-.09.41-.13.58-.3.11-.04.24-.15.36-.21.02,0,.04,0,.06.02-.11.09-.24.17-.38.24h-.02l-.04.02c.06,0,.11-.04.17-.06l.02-.02h.04c.06-.08.17-.09.24-.17-.02-.02,0-.04.02-.02l.09-.08s0-.04.02-.02l.08-.06h.02c.04-.06.07-.11.15-.13v-.02h-.04s-.13.15-.15.13l-.21.15-.02-.04c.06-.06.13-.11.21-.15.02.02.04,0,.02-.02.23-.3.58-.52.73-.88v.02l.04-.06s-.02-.04,0-.02v-.04c.11-.24.23-.47.28-.73,0-.04.02-.09.04-.13-.04-.19-.06-.19-.24-.23l-.02.06-.09-.06ZM36.5,5.74s-.04-.02-.02-.04c-.49-.11-.75-.17-1.26-.04-.17.04-.34.21-.45.22l-.04.08c-.09.04-.15.11-.23.19.45-.36.86-.54,1.43-.51.07,0,.45.08.47.08l.04.02h.06ZM34.64,12.15l-.06-.02-.02.02h.02l.08.04-.02-.04ZM37.04,11.16l-.04-.02c-.08.08-.34.36-.41.38-.21.32-.69.53-1.03.66-.06-.02-.51.15-.71.04h-.06l-.02-.02h-.04s-.02.02,0,.04c.06.02.13.04.19.04.21.08.88-.04,1.03-.21l.11-.04s.04-.04.04-.06h.06c.06-.04.52-.43.54-.49l.04-.02.06-.07c.08-.04.17-.15.21-.21l.04-.02ZM36.61,11.65c-.23.28-1.01.71-1.37.68l-.04.02-.13-.02c-.08.02-.17-.02-.24-.02l-.04-.02h-.04s.11.04.13.04c.47.09.79-.06,1.2-.23.04-.04.11-.06.15-.11l.11-.06v-.02s.07-.06.11-.08l.17-.15s0-.06-.02-.04ZM34.96,5.65s-.04.02-.04.02c0,0,.02-.02.04-.02ZM35.84,12.25l-.09.04h.02l.09-.04h-.02ZM35.95,12.19l-.07.04s.06-.02.07-.04ZM36.97,6.71v.04l-.02.02c.02.22-.26.49-.26.69l-.04.02c-.04.15-.13.23-.19.36v.02l-.04.02c-.02.06-.15.19-.15.19l.02.02c.23-.23.34-.39.47-.67h.02c.04-.08.08-.15.09-.23l.02-.02c.04-.11.08-.24.09-.36l.02-.02s0-.09-.04-.08ZM36.37,7.73s-.04,0-.04.02c.02,0,.04,0,.04-.02ZM36.4,7.78s.02,0,.02-.04l-.02.02v.02ZM36.54,7.52c-.04.06-.13.26-.08.21.06-.08.15-.24.19-.34,0-.06.11-.21.13-.24v-.04l.09-.24.04-.11s0-.06-.02-.04l-.15.45-.04.04c-.02.09-.11.23-.17.32ZM36.63,7.28l.02-.06s-.02.04-.02.06ZM36.65,7.22s.04-.04.04-.06h-.02l-.02.04v.02ZM36.74,11.57v-.02s-.04.04-.06.08l.06-.06ZM36.74,11.63s.04,0,.06-.02c-.02,0-.04,0-.06.02ZM36.95,6.6s.04-.09.02-.15c0,.06-.02.13-.02.15ZM36.98,6.68h.04s0-.02-.02-.04l-.02.04ZM38.8,8.55l.02.04c.04-.06-.02,0-.02-.04ZM38.84,8.72l.02-.04s-.02.02-.02.04ZM38.86,8.66v.02l.04-.06-.04.04Z"/><path class="cls-1" d="M45.11,5.36s-.07-.02-.09-.02c.21.02.45.06.54.19.04.04.08.19.11.21v.04l.04.09.02.02.02-.08.08.02v.19l.06.11.04.02c0,.08.04.13.07.21s-.04.19-.04.28c-.22.99-.43,2.08-.9,3.04.64-.3,1.05-.38,2.12-1.29l.21.17.08-.04.04.02.02.04c0,.06.02.11.08.15-.04.06-.15.09-.21.11v.06l.23-.13.02.08c-.11.02.04.11-.08.13.04-.02-.09-.04-.11,0-.26.38-1.28.94-1.84,1.13h-.08v-.04l.81-.34c-.23.09-.43.21-.68.22-.04.02-.21.13-.21.11l-.26.13c-.13.04-.38.19-.51.22l-.02.02c.11,0,.23-.08.32-.11l.08-.06h.02l.38-.17.02.04c-.06.02-.39.15-.43.19-.02,0-.06,0-.02.02-.07.06-.19.11-.32.15l.02.02-.19.11c-.24.28-.51.66-.79.92-.17.17-.36.39-.53.54v-.02l-.06.09h.02l-.06.04v-.02c-.15.41-1.41,1.05-1.8.92-.15-.04-.38-.13-.39-.28-.06-.04-.13-.09-.08-.17l.02-.02c-.02-.06.04-.06.08-.08h.04c-.13-.02-.19-.04-.26-.15l-.02-.06c-.17-.08-.13-.22-.08-.41l.09-.09.04-.07c.62-.56.83-.43,1.29-.77l.19-.09c.32-.39.68-.79.96-1.2h-.02c.73-.81,1.54-2.76,1.65-3.79-.69.17-1.97,1.63-2.46,2.21-.79.83-1.37,1.82-2.04,2.7v-.04l-.04.06c-.02.08-.23.51-.28.52l.11-.24-.17.3-.02.02c-.08.3-.23.6-.34.86-.39,1.03-.71,2.14-1.13,3.17h-.02c-.02.13-.23.77-.23.81-.13.02-.13.11-.06.21-.02.04-.08.08-.11.06l-.02.06s.11.13.08.17c-.19.13-.02.22-.15.26l-.19.79c-.07.41-.23.53-.26.99l-.04-.13c-.04.09-.02.47-.02.6-.19-.08-.9-.21-.98-.36l-.02.06c-1.01-1.12.68-5.31,1.09-6.36.09-.24.28-.96.41-1.11.02-.04.06-.09.04-.15.04-.11.13-.22.11-.36l.06-.04c.07-.11.04-.3.15-.39.19-.54.39-1.09.54-1.63.36-1.14.88-2.21,1.2-3.36.04-.17,1.11-.08,1.26-.06l.04.02c.06,0,.09.02.13.04.02.04.06.04.09.06l.04.02.09.06.02.06c.06.04.04.09.09.11.04.04.09.13.13.15.06.17-.02.26,0,.41-.06-.04-.3-.09-.39-.11l.36.15c-.02.17-.02.34-.11.49-.04.09-.15.47-.19.53-.08.3-.23.62-.34.92-.17.04-.19.38-.26.54.13-.22.24-.45.47-.64h.04c-.23.26-.49.64-.66.94v.02c.21-.36.51-.66.69-.99h.02c.06-.06.23-.28.26-.36-.13.13-.22.26-.28.34l-.04-.04c.24-.32.54-.66.82-.97.62-.66,1.26-1.41,2.1-1.8l-.02.02.17-.06h-.04c.08-.02.19-.02.21-.06.04,0,.11-.02.19-.02l-.02.02h.17ZM37.61,15.08c-.06.22-.13.43-.21.66.06-.06.13-.38.21-.66ZM38.23,15.27q.08-.04.04-.09c-.21.17-.3,1.12-.47,1.39l-.06-.02v-.07c.06-.02.11-.04.07-.11.04-.04.02-.09,0-.13l.06-.06s.08-.28.08-.32c.02-.04,0-.08,0-.11l.04-.06.04-.04.02-.04-.06-.06v-.04l.04-.02-.04-.08c-.09.04-.06.17-.11.23l-.04-.04-.06.02v.02l.08.04-.02.04h-.04l-.02-.02c-.09.06-.04.15.02.21l-.09-.04s.02.08,0,.09t.04.04v.02h-.02s-.02-.04-.02-.06l-.06.04c-.02.07-.04.17-.04.24l.04.06-.06.02c0,.06-.04.11-.04.17l.04.02.02.06-.04-.02-.02-.02-.04.02.02.09.11.04.04-.06.08.08-.02.02.06.06c-.06.06-.11.11-.08.21-.04,0-.02.06,0,.08.09-.13.38-1.07.47-1.52.04-.15.06-.26.04-.26ZM37.61,15.08c.04-.09.06-.21.07-.28-.04.09-.04.19-.07.28ZM37.78,14.44c.04-.09.09-.23.09-.26-.04.08-.06.17-.09.26ZM37.87,15.34h.06s-.02.04.02.02l-.02.04h.09l.07-.08-.02-.04-.06.06h-.06s0-.04-.02-.04h-.04l-.04.04ZM37.93,15.4h-.06l.02.02.04-.02ZM37.93,15.25h.02l.02-.07h.04c.06,0,.02-.04,0-.06v-.04l-.04-.02c-.02.06-.04.13-.04.19ZM37.98,14.98l-.04.04s.06.02.08,0l.07.02.02.08s.04-.06,0-.09l.04-.02-.07-.04-.02-.06-.07.02v.06ZM38.06,14.78l.09-.02-.02.02.04-.02-.02-.06h.06l-.09-.11-.08.09.02.09ZM38.58,14.12l-.02-.04s-.07.06-.09.09l-.09-.04h.04s.02-.09.02-.13l-.06-.06h-.04v-.04l-.04.02c-.04.08-.04.17-.08.24-.06.06-.04.11-.04.17l.04.04h-.08l-.02.09.08.09.09-.06c.02-.09.07-.15.09-.24l.04.04.06.04c.06-.06.07-.15.09-.23ZM38.34,13.92l.21-.02-.02-.04-.17-.09c-.06.06-.02.09-.02.15ZM39.56,11.08c-.17.38-1.09,2.74-.99,2.98.13-.15.71-2.19.9-2.55,0-.11.15-.36.09-.43ZM39.86,10.48l-.02-.02v.02s-.19.21-.11.26c0,.04-.04.08-.08.08l-.02.13c.09.04.21-.38.22-.47ZM39.67,9.88c.06.02.11,0,.17-.02l-.11-.09c-.08,0-.08.06-.06.11ZM39.95,9.06c.02.06.09.06.08.11h-.11c-.02.09-.06.17-.09.26l.06.06.02.09c-.06.04-.06-.04-.07-.06l-.06.02c-.04.13.02.22.13.22.06-.06.08-.06.15-.06l.02.11-.04.02.06.11c-.06.17-.11.06-.11.32-.06.04-.06.07-.04.11l.06-.06c.3-.58.6-1.16.86-1.74,0-.07.04-.13.08-.21l.04-.04c.02-.09.11-.26.09-.36.08-.13.15-.3.13-.45.11-.04.11-.06.04-.13-.09,0-.51,1.09-.6,1.33l-.41.84-.04.04-.07-.06s.02-.08.04-.11c.11-.02.19-.06.11-.17.08-.06.09-.13.06-.21.11,0,.09-.08.13-.15.02,0,.04-.06.06-.09-.02-.15.11-.19.11-.32.07-.06.04-.15.02-.21.02-.04.04-.08.08-.11l.06-.02v.04s.02-.04,0-.04l.04-.08s-.04-.08-.09-.11c-.02-.06.04-.08.07-.08l-.02-.13c-.09.02-.11.11-.17.15-.04.06,0,.15-.09.21l-.04-.09-.07.02v.04l.07.08v.06h-.06v-.04l-.04.02-.04-.04c-.08.11-.06.24,0,.36l-.13-.04s-.04.06.02.08c.02.02-.02.06-.04.08-.07-.02-.23.36-.23.41ZM40.22,8.7l-.02-.06.06.04v.04l-.04-.02ZM40.84,12.08h-.02l-.04.02h.02l.04-.02ZM41.83,12.96v-.02c-.11.02-.23.04-.28.09.08-.04.17-.04.28-.07ZM41.89,12.79l-.06.06s0,.04.02.02l.06-.06-.02-.02ZM41.85,7.91c.08-.04.11-.09.15-.15l.04-.02c.09-.11.38-.39.41-.45-.09.04-.38.34-.6.62ZM43.95,10.84v-.02l-.06.02v.04l-.02.02c-.02.06-.34.36-.36.39-.11.28-1.26,1.33-1.48,1.41l-.02.04h-.02l-.04.04s0,.04.02.04c.36-.15.79-.54,1.07-.83.02,0,.04-.02.06-.04v-.06l.06-.02c.08-.08.13-.17.19-.24.06-.04.28-.36.3-.41h.06c.06-.08.19-.34.24-.38ZM43.61,11.46h-.02c-.06.13-.21.21-.24.34l-.11.08c-.11.19-.98.9-1.16.96l-.02.04s.09-.04.11-.04c.11-.04.81-.58.88-.67l.13-.11s.19-.23.23-.24c.02-.08.15-.21.19-.3l.02-.04ZM42.97,12.28l-.04.02-.02.07h.02l.04-.06v-.04ZM44.96,5.5l-.02-.02c-.47-.04-.81.41-1.11.54-.11.13-.26.24-.39.39-.08.02-.47.43-.49.49h.02c.19-.19.47-.34.6-.56.38-.21.6-.6,1.07-.73.13-.13.17-.08.32-.11ZM43.05,12.21l-.07.07q.06-.02.07-.07ZM43.44,6.21s-.04,0-.06.04c.02-.02.04-.04.06-.04ZM43.44,6.3s.08-.08.09-.11c-.04.02-.08.08-.09.11ZM44.98,5.4c-.3.02-.71.13-.92.34-.11.09-.21.19-.32.26-.04.02-.21.15-.13.15l.02-.02c.09-.09.19-.15.28-.24.23-.21.69-.47.99-.47.02,0,.06-.02.07-.02ZM43.74,11.36s-.06.04-.08.06l.08-.02v-.04ZM43.84,11.42s0-.04-.02-.02c-.02.02-.04.02-.04.06l.06-.04ZM45.15,8.91l-.13.21-.02.02c-.04.13-.06.26-.15.38,0,.02-.08.23-.09.24l-.04.09.07-.04.04-.09h-.02c.11-.23.28-.54.34-.81Z"/><path class="cls-1" d="M48.34,5.89l.06.02c-.04.06-.21.66-.28.94l.19-.17-.04.13c-.13.17-.19.39-.3.58l.02.09c.06-.07.19-.39.24-.43l.09-.23s.09-.04.15-.06c-.04.04-.36.75-.39.83l.07.06c.09-.21.32-.51.38-.73.09-.08.06-.21.15-.28,0-.02.75-1.74.79-1.82,0-.04.02-.11.07-.11v-.02c.13-.17.21-.47.3-.66l-.02-.04-.13-.06c-.19.49-.45,1.09-.71,1.58l-.04-.13-.02.02c0-.13.28-.6.32-.77.11-.07.11-.32.23-.39.02-.06.06-.11.06-.17l.09-.39c-.02.06-.08.13-.08.15v.04c-.09.19-.21.53-.36.66-.04,0-.09-.02-.13-.02-.02-.04.24-.54.28-.64,0-.08.26-.69.17-.53-.04.06-.6,1.13-.81,1.35l-.13.02c.17-.24.21-.62.41-.83.08-.26.28-.54.38-.81l-.04-.02.02.02c-.54-.23-1.31-.58-2.16-.88-.09-.06-.07-.13.04-.19.11.04.23.06.3.09.09.04.17.11.26.11.24.08.45.24.69.3v-.02c-.28-.11-.73-.36-1.01-.49.08-.11.09-.17.24-.19.64.24,1.26.51,1.91.77.17-.34.6-.97.64-1.31-.15.32-.26.69-.54.92.11-.28.99-2.06,1.18-2.14.11-.04.52.09.64.15l.04-.02c.15.13.41.04.51.28l.62.39c-.08.28-.32.47-.45.73-.28.56-.54,1.11-.84,1.65.41.13,1.67.43,2.33.13.23.11.19.69-.04.71-.21.06-1.37.07-2.51-.39-.96,1.84-1.91,3.77-2.51,5.76-.13.45-.21.92-.32,1.37-.11.43-.21.86-.21,1.31.06.08.09.15.15.21.04.04.21.02.24.02,1.13-.13,3.28-3.13,4.01-4.07l.38.19c-.36.58-.69,1.2-1.11,1.74h-.04l-.02.04h-.04c.15-.22.36-.49.53-.75-.17.23-.47.53-.56.73,0,.02-.15.21-.17.24-.06.08-.09.15-.15.21.11-.11.23-.24.32-.39l.04.02c-.09.15-.26.28-.34.43-.02-.02-.04.02-.04.04l-.21.3c-.43.51-1.03,1.03-1.59,1.41-.04.04-.07.04-.09.06h.02l-.06.04h-.02c-.09.11-.45.26-.56.28-1.5.28-2.21-2.29-1.93-3.41.04-.15.23-.56.21-.68.07-.09.71-2.51,1.01-3.09.04.08.09.13.15.17l-.13.34-.06.06c0,.24-.09.24-.15.49-.02.02-.06.04-.06.08.02.09-.17.64-.21.77.11-.34.3-.66.41-.99,0-.04.02-.11.04-.17l-.02.02v-.08l.13-.26h.02l.04-.07s-.04.02-.04,0l.04-.02v.02l.04-.09s-.04.02-.04,0l.06-.09s-.02.06-.02.09l.02-.04ZM47.43,8.48c-.06.06-.06.15-.09.21-.07,0-.06.13-.04.17-.02.06-.02.17-.06.21-.04.08-.04.24-.04.34.02-.08.06-.13.09-.19-.02-.13.09-.54.13-.73ZM47.43,2.18v-.02c-.06-.04-.11-.06-.19-.06.06.02.13.04.19.08ZM47.63,8.59s-.04-.07-.06-.11l-.02.04c0,.15-.04.28-.04.41l.02.04c.04-.07.06-.34.09-.38ZM47.67,6.77s-.02.06-.04.07c0-.02.02-.06.04-.07ZM47.9,6.83s.04-.08.07-.11c0,.06-.04.09-.06.15l-.02-.04ZM48.08,6.53l-.06.11s-.02,0-.02-.02l.04-.11s.04,0,.04.02ZM50.61,11.35l-.02-.02c-.04.06-.47.41-.51.43-.49.64-1.5.92-1.54.96-.17-.02-.38-.04-.51-.17v.04l.02.04c.23.15.81.19.99,0,.17-.04.28-.21.41-.22.02-.02.04-.04.04-.06.11-.04.24-.17.3-.26.15-.09.23-.22.38-.32l.04-.06.06-.02c.04-.06.28-.28.34-.34ZM50.13,11.93l-.02-.02v.02c-.39.39-1.52,1.26-2.06.71v.04c.41.41,1.41-.09,1.74-.43h.02c.02-.06.06-.09.11-.11l.21-.21ZM48.12,6.85c-.02.06-.04.11-.04.13.04-.04.04-.09.04-.13ZM48.16,6.32s.02,0,.04-.02c.04-.06.02-.13.06-.19l-.09.21ZM48.42,6.43c0,.09-.04.13-.09.19.02-.08.13-.21.04-.26l.02-.06.08.02.04-.02s-.04.09-.08.13ZM48.65,5.1c0,.06-.21.56-.26.67h-.02c.02-.11.21-.62.28-.67ZM48.48,6.04s.02-.04.04-.06l.04.02-.06.02-.02.02ZM48.55,6.34l-.06.15s.02-.11.06-.15ZM48.55,6.55l-.02-.06.06-.02-.04.08ZM48.66,5.78l.06.02-.04.04-.02.06s-.04-.08-.04-.11c0-.02.04-.02.04,0ZM48.7,4.97s0,.06-.04.08c-.02-.04-.02-.08,0-.09.02,0,.04,0,.04.02ZM48.66,5.66c.04-.08.08-.13.13-.19l.02-.08h.02l.04-.26h.07l.02.02c-.04.13-.09.24-.15.36v.02c-.04.06-.06.13-.07.19l-.08-.06ZM48.72,4.86v-.02s.02,0,.02.02h-.02ZM48.81,5.78l-.02-.08.06-.11.11-.02c-.06.17-.15.34-.21.51,0-.13.02-.19.06-.3ZM48.79,5.65s0-.04.02-.06c0,.02,0,.04-.02.06ZM49.06,4.6l.04.06h.07c-.02.13-.11.21-.15.32,0,.04,0,.09-.04.13l-.06-.06c.04-.08.06-.15.06-.22.02-.04.09-.17.08-.23ZM49.25,12.66l-.13.08h.02l.11-.06v-.02ZM49.32,12.62l-.06.04s.04-.02.06-.04ZM49.38,3l-.02-.02s-.04-.02-.06-.02l.08.06v-.02ZM49.51,3.34l-.04.08c.02-.06.04-.08.04-.08ZM49.62,3.68c.02-.06.04-.11.04-.17l-.04.06v.06s.02.04,0,.06ZM49.88,3.88c0-.07.07-.09,0-.19.34-.66-.06-.15-.11.09l.04.08.08.02ZM50.26,11.82v-.02s-.08.06-.09.09c.04-.02.07-.04.09-.08ZM50.3,11.85l-.04.04s.04,0,.06-.04h-.02ZM51.35,10.71c-.09.13-.21.24-.3.34l.06-.02c.08-.08.13-.17.23-.26l.02-.06Z"/><path class="cls-1" d="M12.98,39.18l.34-2.42h4.72l.25-1.76,2.98.19c.3.02.64.05.61.3-.04.31-.44.47-.63.54l-.1.73h5.14l-.38,2.75h-5.14l-.12.82h3.4l-.36,2.56h-9.91l.36-2.56h3.4l.12-.82h-4.35c.07.47-.5.42-.87.4-1.35,1.57-2.73,3.1-4.18,4.56.37,0,1.56-.05,1.88-.07-.04-.52-.09-.85-.16-1.34l2.35-.75c.08.45.16.87.24,2.28l.12-.89h12.62l-.71,5.08h-2.94l.38-2.75h-6.81l-.12.87,2.74.26c.25.02.5.07.47.31-.04.28-.36.4-.62.49-.73,3.03-1.61,6.7-6.18,8.95-.58-1.29-.76-1.5-1.88-2.47,1.62-.8,4.48-2.21,5.1-5.66h-2.75l.27-1.9c-.56.05-1.26.24-2.16.52.03-.24.04-.47.04-.61-.24.05-.52.07-.77.07l-1.38,9.85h-2.87l1.1-7.83c-.13.07-.24.09-.39.12-.16,1.13-.68,3.67-1.29,5.08-.46-.16-1.63-.4-2.48-.45.87-2.07,1.05-3.22,1.43-5.57l2.43.38c.14.02.27.05.36.07l.19-1.36c-.73.07-1.85.17-2.18.17-.16.3-.33.56-.57.56-.28,0-.25-.35-.24-.61l.19-2.66c.25,0,.81.02,1.11,0,.48-.45.64-.63,2.16-2.23-1.31-1.41-1.82-1.86-2.62-2.47l1.89-2.23c.26.17.32.21.4.28,1.46-2,1.73-2.42,2.05-3.03l2.35,1.22c.11.05.32.19.29.4-.04.28-.3.33-.79.38-.34.45-.88,1.17-2.16,2.7.28.31.38.42.54.59,1.25-1.46,1.6-2.02,1.89-2.42l2.21,1.41ZM11.94,47.75c-.06.75-.23,3.1-.01,4.56-.5.09-1.55.31-2.6.73-.14-1.13.12-3.85.29-5.05l2.32-.24ZM21.4,46.86c.09,0,.41.02.36.38-.04.26-.31.38-.48.42l-.82,5.88c-.03.23-.06.42.31.42.35,0,.66-.09,1.07-2.37.73.54,1.85.87,2.57.96-.19,1.22-.48,2.07-.72,2.49-.67,1.15-1.62,1.53-2.25,1.53h-2.2c-1.18,0-2.09-.28-1.9-1.67l1.15-8.22,2.89.19Z"/><path class="cls-1" d="M33.89,36.73c.27.07.38.12.35.28-.04.28-.44.35-.61.38-1.35,2.73-2.06,5.64-2.47,8.53-.16,1.15-.27,2.44-.1,3.52.21-.38,1.17-2.09,1.38-2.44.84.8,1.22,1.06,2.21,1.72-1.39,1.83-2.84,4.75-3.39,6.7l-3.07.45c-1.02-3.1-.86-7.92-.46-10.74.21-1.5,1-6.02,2.54-9.38l3.61.99ZM45.08,35.77c.43.05.62.05.59.28-.03.24-.3.3-.46.33-.19,1.34-.41,2.94-.57,4.23.22-.05,1.84-.38,3.57-1.06-.35,2.18-.38,2.4-.46,3.62-1.22.45-1.91.59-3.6.94-.84,6.18-1.74,8.79-5.95,12.6-.78-1.36-2.31-2.35-2.67-2.56,3.76-2.56,4.51-5.9,5.01-9.52-1.53.16-3.33.28-4.83.26l.21-3.81c.61.12,1.13.21,2.42.21.23,0,1.16,0,2.61-.12.06-.73.25-3.59.23-5.76l3.91.35Z"/><path class="cls-1" d="M61.21,36.1c.2.05.44.14.41.38-.04.28-.37.31-.55.31-.14.38-.77,2.04-.91,2.37,2.19-.4,3.04-.75,4-1.15l-.12,3.69c-.75.24-2.13.63-5.39,1.1-1.34,2.96-3.68,8.08-7.99,13.75-.88-.63-1.68-1.03-3.25-1.79,2.29-2.47,5.35-6.98,7.31-11.4-1.43.12-1.71.12-4.26.14l.24-3.85c.69.05,1.49.09,2.67.09,1.04,0,1.74-.02,2.77-.09.57-1.76.95-3.29,1.25-4.44l3.81.89ZM60.96,50.24c-.68.75-.79,1.2-.82,1.39-.05.33.1.47.33.61.45.28,1.77.4,3.05.4,2.41,0,4.19-.47,5.2-.78-.13.45-.3.96-.42,1.83-.12.84-.11,1.48-.13,1.95-1.66.28-3.25.4-4.85.4-3.03,0-7-.45-6.53-3.78.13-.92.44-1.67,1.33-3.08l2.84,1.06ZM60.8,43.59c2.19-.42,4.73-.42,5.17-.42,2.01,0,2.92.16,3.37.26-.38,1.74-.46,2.11-.7,3.69-1.12-.3-2.21-.42-3.41-.42-1.37,0-3.27.21-4.92.42l.49-3.52Z"/><path class="cls-1" d="M88.13,37.16c.12.12.2.21.18.35-.03.21-.2.26-.31.26s-.25-.05-.38-.09c-.53.45-4.72,3.43-5.6,4.11-1.19.92-2.65,2.04-3.61,2.82-.84.68-.92.77-.94.96-.03.24.05.31.88.82.06.05,1.99,1.48,3.85,3.1,2.33,2.04,3.27,3.24,4.15,4.61-1.04.85-1.9,1.64-3.11,3.17-.8-1.53-4.05-5.62-10.25-10.1-.21-.14-.71-.59-.59-1.39.09-.61.22-.89,2.82-2.77,3.55-2.54,6.92-5.31,10-8.44l2.92,2.58Z"/><path class="cls-1" d="M92.2,38.92c.68.09,1.32.19,2.54.19.67,0,1.37-.05,2.38-.12.81-2.02,1.12-3.01,1.42-4l3.47,1.15c.31.09.41.19.39.38-.04.28-.41.28-.53.28-.09.16-.54,1.25-.68,1.55,1.17-.28,1.9-.52,2.61-.78-.2.96-.38,2.56-.42,3.5-1.71.47-3.04.71-3.82.82-.46.96-1.55,3.12-3.2,6.02-1.62,2.82-2.68,4.23-3.43,5.17-1.01-.56-2.18-1.1-3.28-1.41,1.92-2.3,4.24-5.78,5.98-9.28-.54.05-2.77.12-3.49.12l.06-3.59ZM106.28,45.33c-.67.8-1.02,1.32-1.16,2.3-.11.78-.1,1.88-.09,2.3,1.31.59,3.44,1.88,4.51,2.87-.9.82-2.16,2.35-2.52,2.82-1.56-1.41-1.75-1.55-2.39-1.97-.75,2.21-2.37,2.87-5.03,2.87-3.68,0-5.28-1.67-4.97-3.88.06-.45.61-3.71,5.29-3.71.65,0,1.1.05,1.52.07,0-.16.14-1.86.17-2.04.21-1.53,1.52-2.91,2.08-3.27l2.59,1.64ZM99.64,51.72c-.65,0-1.53.33-1.62.96-.08.56.55.87,1.52.87,1.57,0,1.77-.78,1.93-1.36-.52-.28-1.21-.47-1.83-.47ZM105.89,39.2c3.51,1.22,4.74,2.21,5.66,3.05-.92.96-2.04,2.37-2.53,3.03-1.2-1.2-3.34-2.42-5.39-3.03l2.26-3.05Z"/><path class="cls-1" d="M128.51,37.95c-1.72,1.06-5.82,4.7-6.4,5.24.41-.09,1.58-.35,2.83-.35,3.15,0,6.11,2.02,5.52,6.18-.72,5.17-5.88,7.42-9.88,7.42-2.99,0-5.71-1.2-5.31-4.04.33-2.33,2.66-3.76,5.06-3.76,2.18,0,4.27,1.25,4.49,3.45,1.64-.77,1.89-2.58,1.92-2.77.08-.56.29-3.43-3.29-3.43-3.91,0-6.46,2.33-10.15,5.73l-2.39-2.75c2.93-1.88,8.81-7.05,10.65-9.14-.76.17-1.58.35-6.27.82l-.04-3.69c.9.02,7.58.09,11.78-1.48l1.49,2.56ZM119.63,51.58c-.79,0-1.04.45-1.09.85-.12.89,1.12,1.24,1.91,1.24.53,0,.94-.12,1.18-.19-.15-1.6-1.35-1.9-2-1.9Z"/><path class="cls-1" d="M139.52,43.08h1.81l-.41,2.91h-1.81l-.54,3.83c.87-.24,1.71-.49,2.54-.8-.32.96-.4,2.04-.5,2.94-.69.33-2.63.96-3.56,1.27-.61.21-3.29,1.01-3.82,1.17-.16.31-.33.52-.51.52-.28,0-.33-.26-.37-.52l-.29-3.03c1.59-.28,2.74-.56,3.08-.63l.66-4.75h-1.94l.41-2.91h1.94l.55-3.9h-2.45l.4-2.89h8.1l-.4,2.89h-2.34l-.55,3.9ZM153.82,53.34l-.39,2.8h-14.14l.39-2.8h5.88l.25-1.79h-3.94l.39-2.8h3.94l.25-1.81h-4.28l1.55-11.04h11.85l-1.55,11.04h-4.42l-.25,1.81h4.26l-.39,2.8h-4.26l-.25,1.79h5.12ZM145.74,42.65l-.24,1.72h1.32l.24-1.72h-1.32ZM147.39,40.23l.23-1.64h-1.32l-.23,1.64h1.32ZM150.2,42.65l-.24,1.72h1.37l.24-1.72h-1.37ZM151.91,40.23l.23-1.64h-1.37l-.23,1.64h1.37Z"/><path class="cls-1" d="M159.78,55.51l-.17,1.22h-3.63l2.41-17.2h7.73l.63-4.49,3.54.14c.44.02.52.12.49.28-.04.28-.33.4-.6.49l-.5,3.57h7.78l-2.41,17.2h-3.59l.17-1.22h-11.85ZM164.29,52.52l.5-3.6h-4.1l-.5,3.6h4.1ZM165.24,45.78l.45-3.2h-4.1l-.45,3.2h4.1ZM172.05,52.52l.5-3.6h-4.19l-.5,3.6h4.19ZM172.99,45.78l.45-3.2h-4.19l-.45,3.2h4.19Z"/><path class="cls-1" d="M190.75,36.17c.4.09.54.14.5.4-.04.31-.34.31-.65.33-.18.47-.99,2.44-1.18,2.96,4.12-.16,5.15,2.42,4.51,6.98-.05.38-.76,5.4-3.02,7.87-.6.66-1.7,1.55-3.95,1.55-1.02,0-1.46-.14-1.93-.28.24-1.71.26-2.02.05-3.83,1.4.4,1.88.47,2.36.47,1.9,0,2.75-4.23,3.07-6.58.13-.94.3-2.66-1.8-2.66-.23,0-.47.02-.7.05-1.81,4.46-4.14,8.76-7.06,12.71-.61-.59-1.35-1.13-3.07-1.88,2.31-2.91,4.68-6.46,6.29-10.01-1.5.42-2.28.73-3.46,1.27l-.53-3.97c.94-.09,1.99-.33,5.5-1.1.71-2.07,1.14-3.34,1.43-5.24l3.64.96ZM196.3,39.01c1.25,1.48,2.41,3.1,3.12,4.53.67,1.34.81,2.12.7,2.94-.25,1.76-2.37,2.51-3.83,3.05-.35-1.15-1.03-2.56-1.32-3.12.92-.28,1.23-.38,1.3-.89.16-1.13-1.7-4.09-2.54-5.17l2.57-1.34ZM198,36.1c.87,1.06,1.21,1.64,1.57,2.33-.58.38-.71.47-1.86,1.25-.19-.31-1.13-1.86-1.56-2.4l1.85-1.17ZM200.52,34.64c1.09,1.32,1.43,2.02,1.61,2.4-.56.38-1.48.96-2.06,1.34-.48-1.17-.8-1.74-1.49-2.58l1.94-1.15Z"/><path class="cls-1" d="M203.11,56.28c-.85-1.22-2.1-2.68-4.13-4.04l2.6-2.51c2.2,1.46,3.83,3.2,4.52,3.95l-2.98,2.61Z"/><path class="cls-1" d="M6.44,80.9c-1.41,1.13-2.42,2.42-2.5,2.96-.06.4.21.66.36.75.79.47,3.45.52,4.53.52,4.88,0,7.94-.85,9.1-1.17-.08,1.27.03,2.96.13,3.9-3.28.8-8.14.94-9.95.94-5.3,0-8.57-.99-8.07-4.56.28-2.02,2.15-3.81,4.2-5.38l2.19,2.04ZM18.66,72.69c-3.03,1.15-5.33,2.51-7.94,4.65-.04-.05-.22-.28-1.73-2.35.68-.42,1.26-.87,1.84-1.41-.58.05-2.03.14-4.14.14-1.83,0-2.56-.09-3.1-.14l.36-3.88c1.82.4,4.93.52,6.92.52,3.66,0,5.65-.38,6.35-.52l1.46,2.98Z"/><path class="cls-1" d="M27.8,80.9c-1.41,1.13-2.42,2.42-2.5,2.96-.06.4.21.66.36.75.79.47,3.45.52,4.53.52,4.88,0,7.94-.85,9.1-1.17-.08,1.27.03,2.96.13,3.9-3.28.8-8.14.94-9.95.94-5.3,0-8.57-.99-8.07-4.56.28-2.02,2.15-3.81,4.2-5.38l2.19,2.04ZM40.01,72.69c-3.03,1.15-5.33,2.51-7.94,4.65-.04-.05-.22-.28-1.73-2.35.68-.42,1.26-.87,1.84-1.41-.58.05-2.03.14-4.14.14-1.83,0-2.56-.09-3.1-.14l.36-3.88c1.82.4,4.93.52,6.92.52,3.66,0,5.65-.38,6.35-.52l1.46,2.98Z"/><path class="cls-1" d="M49.28,70.32c.42.16.59.24.57.4-.03.21-.5.26-.66.28-.99,2.09-2.17,4.77-2.86,9.7-.13.96-.13,1.22-.1,1.88.17-.26.88-1.29,1.22-1.76.52,1.06,1.18,1.67,1.51,1.93-.73,1.1-2.18,3.83-2.31,5.62l-3.41.89c-.48-2.21-.97-4.82-.33-9.4.6-4.25,1.65-7.17,3.01-10.9l3.38,1.36ZM53.84,81.37c-.19.4-.51,1.2-.58,1.67-.14,1.03.39,1.2,3.05,1.2,1.55,0,3.6-.09,5.81-.63-.66,1.74-.84,3.5-.88,3.83-1.63.24-4.26.31-5.9.31-3.45,0-6.03-.61-5.62-3.48.04-.31.23-1.65,1.25-3.45l2.88.56ZM52.44,71.33c.69.05,1.6.12,2.99.12,3.82,0,6-.54,6.91-.75-.03.38-.23,2.44-.18,3.57-.98.19-3.48.71-7.23.71-1.37,0-2.26-.07-2.99-.12l.49-3.52Z"/><path class="cls-1" d="M71.48,70.34c.18.07.28.17.25.33-.04.28-.49.33-.7.35-2.07,4.84-2.55,8.32-2.66,9.05-.16,1.18-.15,1.72-.17,2.35.36-.45.96-1.2,1.32-1.67.34.89.77,1.62,1.34,2.33-.56.68-2.36,2.96-2.73,5.76l-3.18.59c-.17-1.13-.62-4.46.08-9.47.34-2.4,1.18-6.63,2.9-10.76l3.54,1.15ZM82.55,69.83c.11.02.29.05.26.26-.04.28-.37.35-.58.38-.14.52-.33,1.18-.63,2.82,1.85-.33,2.68-.59,3.55-.87l-.5,3.55c-.55.14-1.65.4-3.62.75-.33,2.33-.41,4.61-.39,5.4,1.7.61,3.32,1.57,4.06,2.42-.47.68-1.37,2.21-2.04,3.31-.64-.73-1.31-1.36-2.23-1.79-.51,3.01-3.53,3.36-4.98,3.36-3.47,0-4.94-1.93-4.63-4.11.39-2.8,3.27-3.85,6.27-3.78.19-2.68.21-2.98.35-4.35-1.34.12-2.29.12-2.68.12-.74,0-1.22-.02-1.7-.07l.52-3.69c.82.09,1.98.26,4.33.16.14-.99.43-3.05.67-4.58l3.98.71ZM75.71,84.4c-.51,0-1.64.17-1.75.89-.09.61.64.87,1.38.87.18,0,1.57,0,1.74-1.15.02-.12.03-.21,0-.31-.26-.12-.65-.31-1.37-.31Z"/><path class="cls-1" d="M90.75,72.08c.54.12,1.32.31,3.15.31.14,0,.72,0,1.37-.05.53-1.48,1.13-2.77,1.6-3.85l3.45,1.15c.18.05.4.12.37.33-.04.28-.32.31-.6.33-.37.63-.58,1.01-.9,1.62,3.06-.49,4.92-1.22,5.85-1.57l.05,3.27c-3.17.96-5.15,1.22-7.32,1.53-.05.19-.32.96-.37,1.13.79-.17,1.58-.24,2.42-.24,4.1,0,7.97,2.09,7.35,6.53-.65,4.65-5.1,6.65-9.06,7.54-.22-.73-.52-1.41-1.6-2.82,2.69-.54,6.34-1.83,6.75-4.72.07-.49.25-2.09-1.57-2.84-1.07,1.67-3.01,4.14-5.02,5.92.1.47.14.68.23,1.03-.35.21-.48.28-1.56.87-.1.05-1.44.84-1.72,1.01-.11-.38-.12-.45-.18-.68-2.03,1.13-3.42,1.27-4.21,1.27-3.08,0-2.66-2.98-2.58-3.57.19-1.34,1.17-5.52,7.14-8.18.22-1.08.35-1.5.45-1.93-.74.02-1.19.05-1.53.05-.95,0-1.73-.05-2.56-.21l.59-3.22ZM93.22,81.22c-1.52,1.08-2.66,2.65-2.84,3.9-.08.56.11.71.41.71.6,0,1.57-.47,2.26-.96,0-.21-.02-1.81.16-3.64ZM96.47,81.67c.48-.61,1.18-1.46,1.77-2.4-.26.02-.73.07-1.59.31-.08.54-.17,1.39-.18,2.09Z"/><path class="cls-1" d="M127.08,71.31c-1.72,1.06-5.82,4.7-6.4,5.24.41-.09,1.58-.35,2.83-.35,3.15,0,6.11,2.02,5.52,6.18-.72,5.17-5.88,7.43-9.88,7.43-2.99,0-5.71-1.2-5.31-4.04.33-2.33,2.66-3.76,5.06-3.76,2.18,0,4.27,1.25,4.49,3.45,1.64-.78,1.89-2.58,1.92-2.77.08-.56.29-3.43-3.29-3.43-3.91,0-6.46,2.33-10.15,5.73l-2.39-2.75c2.93-1.88,8.81-7.05,10.65-9.14-.76.17-1.58.35-6.27.82l-.04-3.69c.9.02,7.58.09,11.78-1.48l1.49,2.56ZM118.2,84.94c-.79,0-1.04.45-1.09.85-.12.89,1.12,1.25,1.91,1.25.53,0,.94-.12,1.18-.19-.15-1.6-1.35-1.9-2-1.9Z"/><path class="cls-1" d="M137.35,86.3c-.26,1.86-1.95,3.34-3.73,3.34s-3.06-1.48-2.8-3.34c.25-1.81,1.92-3.31,3.73-3.31s3.05,1.5,2.8,3.31ZM132.26,86.3c-.14,1.03.55,1.86,1.57,1.86s1.95-.85,2.09-1.86c.14-.99-.53-1.86-1.57-1.86s-1.95.84-2.09,1.86Z"/></g></svg>