<?xml version="1.0" encoding="UTF-8"?><svg id="_レイヤー_2" xmlns="http://www.w3.org/2000/svg" viewBox="0 0 166.69 254.39"><defs><style>.cls-1{opacity:.12;}.cls-2{fill:#fff;stroke-width:0px;}</style></defs><g id="_レイヤー_1-2"><g class="cls-1"><path class="cls-2" d="M88.48,159.83c-5.92,1.56-11.63,2.34-17.14,2.34-21.81,0-39.15-6.54-52.03-19.63C6.44,129.35,0,111.8,0,89.89c0-25.24,8.57-46.53,25.7-63.87C43.05,8.67,64.13,0,88.95,0c22.12,0,40.61,7.48,55.46,22.43,14.85,15.16,22.28,33.86,22.28,56.08s-10.33,47.26-31,75.09l-74.93,100.79-26.79-20.87,54.52-73.69ZM132.1,78.2c0-13.5-4.15-24.56-12.46-33.18-8.31-8.62-18.95-12.93-31.94-12.93-15.16,0-27.78,5.45-37.86,16.36-10.18,11.11-15.27,24.61-15.27,40.5,0,13.19,4.05,23.73,12.15,31.62,8.31,8,19.06,12,32.25,12,14.85,0,27.42-5.24,37.7-15.73,10.28-10.59,15.42-23.47,15.42-38.63Z"/></g></g></svg>