<?xml version="1.0" encoding="UTF-8"?><svg id="_レイヤー_2" xmlns="http://www.w3.org/2000/svg" viewBox="0 0 211.92 125.1"><defs><style>.cls-1{fill:#d91a17;}.cls-1,.cls-2{stroke-width:0px;}.cls-2{fill:#fff;}</style></defs><g id="_レイヤー_1-2"><path class="cls-1" d="M14.08.56c.51.15.84.22,1.35.45l-.02.06c-.13-.02-.26-.06-.39-.09l-.02.08.09.02c.06.04,0,.08-.04.09l-.02.02c-.39-.15-.9-.19-1.29-.26l-.07.06c.3.04.66.09.96.17l-.02.08s-1.13-.11-1.18-.13c.13.04.28.06.43.08-.3,0-.58-.04-.86-.06-.58-.04-1.2-.02-1.78-.02-.45,0-1.67.15-1.99.04l-.06-.06c.32,0,2.01-.06,2.23-.09-.36,0-.77-.09-1.11-.04-.36.06-.81.08-1.16.08l-.02.02h-.06l-.02-.02c-.21.04-.45,0-.66.06-.38-.06-.84.08-1.24.08l-.06.04c.26,0,.53-.02.79-.04.08-.08.41-.04.51-.04.23,0,.45-.02.68-.02.07,0,.04.06,0,.08-.3.09-.77-.08-1.05.04l-.04-.02s-.04,0-.04.02c-.07-.02-.56.13-.79.13l.06.02c-.28.08-.54.06-.83.09l.47.43c.21.21.34.39.26.69-.06.23-.21.39-.24.64-.06.38-.75,1.46-.96,1.88v.02c-.13.24-1.03,2.16-1.05,2.29-.11.17-.15.38-.24.54.58,0,1.54-.04,2.06.17-.02,0-.06,0-.04.02.13,0,.26.02.39.06,0,.02.06.02.04.04l-.15-.02c.19.04.34.09.51.13l-.02.08h-.11l-.02.06h.06l-.02.08-.54-.04-.04.06c.11,0,.21.02.32.02l-.02.02v.06h-.39l.09.02c-.17,0-.36-.04-.52-.04-.39-.02-.81.11-1.2.11l-.04-.04h-.02l-.02-.04c.21,0,.43-.06.66-.06-.08,0-.13-.02-.21-.04-.11.04-.56.06-.71.06l-.02.02c-.11.02-.19,0-.3.02l-.02.04c.15.02.38-.04.54-.04l.02.06s-.43.02-.43.02c-.06,0-.09.02-.15.04-.06.15-.28.75-.38.83.02.07-.21.58-.24.69-.15.43-.41,1.01-.51,1.5-.15.84-.58,1.95-.56,2.78-.15.11-.09.34-.3.47-.11.07-.24.04-.36.09-.09.06-.11.15-.23.21l-.06-.04.06-.3.04.04c.04-.17.06-.36.13-.53-.04-.17.09-.34.04-.51-.09.21-.15.36-.13.6,0,.08-.06.13-.13.17-.02.15-.06.3-.09.45-.04-.06-.08-.11-.13-.15l-.08.06c-.21-.06-.38-.06-.45-.3-.08-.26.28-1.84.36-2.16l.04-.04c.15-.47.41-1.33.41-1.82.04-.06.06-.13.08-.21l-.04.04c.02-.15.08-.3.13-.45-.02-.26.15-.92.34-1.11l.06-.19-.04.04c-.09.02-.28.07-.38.07h-.6v.02c-.06.02-.13,0-.19.02,0,.08.24.06.3.06.04-.02.07-.04.07.02.02.07-.3.07-.34.07-.38.04-.77.02-1.14-.04,0-.08.06-.6.08-.66.02-.04.04-.08.08-.04.28,0,.56-.17.84-.15.39.02,1.2-.15,1.61-.23.13-.69.92-2.33,1.2-2.94.51-1.11.92-2.25,1.52-3.3l.02-.11c-.13,0-.32-.02-.41.09-.17.04-.38.11-.54.17-.08.06-.34.21-.43.19l-.09.04-.06.06c-.06.02-.23.08-.24.11l-.08.06c-.11.02-.22.08-.32.13l-.04-.04h-.09l-.06.04.02.09c-.09.04-.13.08-.21.15-.06,0-.56.39-.6.45-.04.06-.06.13-.11.17-.02.08-.75.71-.73.88-.22.22-.32.83-.45.88-.15.47-.19.99.15,1.41.09.11.58.41.26.51-.17.06-.32-.15-.47-.19-.28.3-.77-.83-.79-1.05-.04-.75-.02-1.39.34-2.08.45-.9,1.16-1.5,1.95-2.08.32-.22.71-.36.99-.64.04,0,.07-.04.11-.06.09,0,.75-.26.88-.32l.04-.04c.08-.02.39-.09.41-.13l.19-.06c.06.04.23.06.13-.04l.09-.02.09.02c.08-.06.15-.08.24-.09l.06.02.06-.06c.06,0,.13-.02.19-.04l.06.02.04-.04.49-.08c.04.06.11.11.13,0,.15-.04.77.04.83-.04.15,0,.32-.02.47-.02l.06.04.09-.02c.11-.08.32-.09.45-.06l.04-.02c.06,0,2.42-.06,2.48-.07.08.13.19.09.32,0,.07.02.11.09.13.15.04-.02.21-.17.24-.15.17.07.38.02.43.07.47.15,1.05.11,1.56.21l.02.02h-.08l-.04.02h-.02l-.02.04h-.06v.02c.36-.02.92.17,1.28.3-.21-.06-.43-.08-.64-.11ZM.28,4.76c-.11.09-.15.13-.04.24.11-.11.15-.43.21-.58.3-.79,1.07-1.56,1.73-2.04l.08-.02.04.08-.11.11c-.13-.02-.22-.02-.24.13l-.02.02c-.09.02-.13.13-.17.21-.11-.06-.15.06-.21.13-.04.02-.38.41-.41.47-.09.06-.08.15-.09.24-.08.04-.11.15-.21.15l-.04.08c0,.06.02.11.06.15,0,.06-.04.11-.09.09,0,.06-.02.09-.02.15.19-.04.23-.34.36-.41l.04.09s.09-.02.11-.06l-.09-.08.02-.08h.06l.02.04.02-.02.04.06c.13-.13.15-.22.15-.41.04.04.08.06.11.07.04-.02.06-.06.04-.09l.04-.06c.09.02.39-.34.47-.41.02-.04-.04-.09.02-.13l.11.04c.06-.11.17-.17.26-.24-.07-.28.08-.19.06-.11l.02.04h.06c.11-.08.13-.23.02-.3-.11.04-.09.02-.19-.02l.06-.11.06-.02v-.13c.15-.08.23-.04.36-.17l.09-.08c.06-.02.09-.04.11-.09-.09,0-.39.17-.47.21-.56.28-2.21,1.67-2.21,2.25-.11.15-.21.43-.17.62ZM1.03,8.97v-.02c-.08,0-.17,0-.24.04h.21l.04-.02ZM.83,3.88h.02v-.04s-.02.02-.02.04ZM.9,4.41s-.04,0-.06.04h.07l-.02-.04ZM1.03,4.22l-.02-.02h-.04s.02.02.02.04l.04-.02ZM1.11,8.85l-.02-.02-.06.02v.04l.07-.02v-.02ZM1.09,13.77c.09-.28.24-.62.28-.88l-.08-.04c-.06.3-.13.62-.21.92ZM2.38,8.74l.04-.02.02-.08c-.24.06-.94.15-1.14.15l-.04.02h-.06l-.04.02s0,.04.02.04c.39,0,.81-.13,1.2-.13ZM1.5,8.95c-.09,0-.19.02-.24,0l-.04.02c.07,0,.19,0,.28-.02ZM1.65,3.34s0,.06-.02.08l-.04-.06.02-.04.04.02ZM1.65,3.41l-.02.02v-.02h.02ZM2.33,8.87s0-.04.02-.04c-.15,0-.32.02-.49.06.09-.02.19-.02.26,0,.08-.02.13-.02.21-.02ZM3.17,8.87h-.06c-.43.86-.75,1.88-1.03,2.79.02.04.04.13.04.17.17-.58.36-1.14.56-1.73,0-.06.24-.71.28-.79.07-.06.07-.15.13-.23,0-.08.06-.15.08-.22ZM2.19,8.93s-.08,0-.11.02h.09l.02-.02ZM2.29,8.91s-.06.02-.09.02c.04.02.06.02.09-.02ZM2.23,10.39l.06.06c.08-.24.51-1.43.62-1.56h-.13c-.04.06-.07.11-.06.19-.06.41-.36.9-.49,1.31ZM2.81,2.7h-.02l-.17.15c.08-.04.13-.09.19-.15ZM2.66,2.2s.02,0,.04-.02v-.02l-.04.04ZM2.85,2.25s-.04-.02-.08-.02c-.02.02,0,.06.02.08l.04.09c.08.02.11-.06.15-.09l-.11-.06.04-.04h-.02l-.04.02v.02ZM2.96,2.59l-.15.11c.08-.02.11-.06.15-.11ZM2.85,8.8l.11-.02v-.04s-.08,0-.11.02v.04ZM3.02,8.65v-.04l.02-.04c-.06,0-.09,0-.15.02l-.02.07c.06,0,.09-.02.15-.02ZM3.08,8.05h.15l.21-.49c.04-.11.9-1.99.9-2.08.15-.34.36-.67.47-1.03l-.02-.04h-.04c-.06.04-.54,1.09-.62,1.24-.22.22-.41.83-.53,1.14-.07.08-.04.13-.13.21l-.02.06.02.09c-.28.21-.21.73-.38.84l-.02.06ZM3.21,7.39l-.08.19c.04-.06.06-.13.08-.19ZM3.38,2.38l-.22.11c.11,0,.15-.04.22-.11ZM3.15,8.76h.04l.02-.02s-.02-.02-.04-.02l-.02.04ZM3.3,8.55h-.06l-.02.04v.02l.04.02h.02l.02-.08ZM3.96,1.37c-.08-.09-.6.21-.67.28v.02l.02-.02c.06-.02.36-.08.34-.17.08-.06.22-.06.32-.11ZM3.9,7.03c.21-.58.54-1.12.79-1.69.08-.15.26-.45.26-.62-.56,1.05-1.09,2.16-1.5,3.28h.06c.15-.3.28-.66.39-.97ZM3.56,6.49c.36-.64.79-1.42,1.01-2.08h-.02l-.04.04c-.19.52-.71,1.42-.96,2.04ZM8.21.53l.08-.04c-.13-.04-.92.02-1.09.04-1.12.13-1.74.3-2.83.64-.06.02-.21.08-.21.15,1.09-.43,2.89-.79,4.05-.79ZM5.08,3.53c-.06.11-.15.3-.24.39l-.04.09.04.02c.11-.15.21-.32.24-.51ZM4.84,4.31l.06-.04s.04-.09.04-.13c0-.02-.02-.02-.04-.02-.02.04-.06.17-.06.19ZM5.7,8.61s.08.02.11.02l-.04-.02h-.08ZM9.08.66l-.11-.08c-.11-.02-.23-.02-.34-.02l.04-.06v-.06c-.11-.02-.21,0-.32,0l-.04.04c.06.04.13.04.19.04l-.02.11-.02-.04c-.06-.02-.11,0-.17.02l-.04.08v.04l-.04.02s-.02-.08-.06-.08l-.08-.09-.06.02v.19c.08.02.13,0,.19-.04l.04.04h.15c.06-.04.13-.02.19-.04.08.06.15.02.23,0l.04-.08.02.08c.06,0,.09,0,.15.02l.02-.08.04-.04ZM8.74.49l.02.02s.04-.02,0-.06t-.02.04ZM8.81.49s.04.02.04,0t-.02-.02l-.02.02ZM8.89.49l.02.02.04-.02-.02-.04-.04.04ZM9.02.55v.02h.02l.02-.02v-.04l-.04.04ZM9.25.43s-.09-.04-.13-.02l-.02.02.04.02s.08,0,.11-.02ZM9.41.7l-.07-.04.04-.02-.06-.02-.04.02h-.04v-.06c-.02.06-.04.09-.09.13.06.04.11.02.17.04l.09-.06ZM9.26.47h.06s-.02-.02-.04-.02l-.02.02ZM9.28.43l.04.02.08-.06c-.08-.04-.08,0-.11.04ZM9.38.51l-.04.02.06.04.02-.04-.04-.02ZM9.45.43h.06s.04-.04.02-.06h-.04l-.06.04.02.02ZM9.56.58h-.06l-.04.13h.06l.04-.13ZM9.55.47h.02l-.02-.02v.02ZM9.73.66v-.08l.06-.04c-.06-.02-.07-.02-.11.02l-.04-.02v.06l-.04.08.04.06.08-.02.06.02s-.02-.06-.04-.08ZM9.83.62l.02-.02-.06-.02s-.04.04-.02.06l.06-.02ZM12.42.4c-.15-.09-1.91-.08-1.99-.08-.04,0-.09.02-.13.02-.11-.04-.24,0-.36.04-.06-.06-.09-.06-.13.02.06.04,1.54.02,1.91.02l.04.02v.06h-.09c-.06-.04-.09-.09-.17-.02h-.02c-.06-.04-.09,0-.15.02l-.09-.04h-.15c-.06.04-.09.02-.15,0l-.11.02c-.06-.02-.11,0-.15.04l-.09-.02-.06-.04s-.09.06-.11.09l-.06-.02-.02-.02-.07.04c.06.09.24.02.32.07l-.02.04.02.04h.04l.02-.08.04-.02.02.04-.02.02h.02l-.02.04c.09.02.19,0,.26-.08l.02.08.11-.04.06.04c.11,0,.21,0,.32-.02l.06-.04.06.06c.06-.04.13-.02.21-.02l.02-.04.06-.04s-.02.08.02.09l.11-.04.02-.09-.09-.06v-.02l.06-.04h.04l.06-.06c.08.02.15.02.22.02.06,0,.11.02.15-.02ZM9.83.55h.02s0-.04-.02-.06l-.02.04.02.02ZM10.07.68l-.04-.02h-.08l-.02-.04-.04-.02-.02.02v.04h-.07l.02.04s.08.04.11.02c.04-.04.08-.04.13-.04ZM9.98.55v-.02h-.02v.02h.02ZM10.28.64l-.04-.02v-.04l-.04-.06-.11-.02-.04.04.09.02v.02s.04.04.04.06h-.02l-.04.04.02.02h.06l-.02-.06.06-.02.02.06.02-.04ZM10.07.49h.02v-.02h-.02v.02ZM10.11.62l-.02-.02v.02h.02ZM10.24.7h-.02l.02.02v-.02ZM10.41.64v.02h.02s0-.02-.02-.02ZM11.1.64s-.02,0-.04.02v-.04h.04v.02ZM14.72.68h.04-.04Z"/><path class="cls-1" d="M14.61,10.69c-.11.15-.17.38-.24.54-.02,0-.04.02-.06.04l-.04-.02s.13-.3.21-.49l-.24.49h.02l-.02.02-.08.17-.02.02v.04s-.04.08-.08.11c.02.08-.09.23-.13.28v.04c.06-.06.09-.17.15-.24v-.06h.02s.15-.3.17-.34l.04.04s-.17.32-.17.34c-.02,0-.09.28-.11.32v-.02c-.04.08-.11.24-.17.3-.07.21-.51.82-.62.99v-.02l-.06.08-.02.02c-.08,0-.13.26-.17.32-.11.15-.26.3-.39.43-.47.47-.47.19-.79.24-.04-.02-.07-.04-.11-.08l-.04.04-.17-.13h-.02l-.23-.24v-.02c-.15-.11-.39-.34-.47-.53v-.04c.09.09.17.23.26.32l-.06-.09v-.02c-.07-.08-.11-.17-.19-.22v-.04s-.11-.11-.09-.13c-.04-.09-.13-.17-.13-.28l-.02-.02c-.02.08.17.38.21.45l-.02.02c-.08-.08-.09-.13-.13-.24l-.02-.02-.09-.13v-.04l-.08-.15s.02-.11-.02-.08c-.11-.26-.09-.6-.06-.88l-.02.06h-.02l-.02.02-.11.24h.02l-.17.22-.04.02c-.09.19-.69.81-.83.9v.02h-.02c-.09.36-1.07.79-1.41.81l-.45-.39s-.09-.08-.06-.04l-.3-.24c0-.06,0-.09-.02-.15-.04-.02-.04-.08-.06-.13,0,.07,0,.15.02.21l-.08-.06-.08-.41v.04c-.08-.81-.11-1.56.08-2.34l.04-.02.02-.04h.04c-.08.32-.17.66-.17.98-.04.06-.04.11-.04.17.02-.02.09-.43.09-.47l.04-.09c-.02-.13.06-.24.06-.36.04-.08.06-.19.06-.28l.09-.24s0-.08.02-.09c.04-.04.04-.11.08-.15-.02-.11.13-.36.19-.47l-.06.06c-.04.11-.09.21-.15.32v.08h-.02c0,.06-.15.41-.19.49h-.04c.02-.07.19-.51.19-.52.02-.02.02-.04.02-.06.06-.13.06-.24.13-.38h-.02c.47-1.78,2.66-2.85,4.22-1.48v.02c.13-.34.3-.69.41-1.05.13.02.28.11.39.19.06,0,.11.02.13.08.24.17.49.34.67.58.28.38.02.66-.11,1.01-.17.51-1.01,3.17-1.01,3.66l-.02.04s0,.08-.02.09c-.02,0-.04,0-.04-.02-.02.04-.15.32-.04.21v-.08s.04-.08.04-.11l.04.02s-.02.08-.04.11v.02l.02.07-.02.02s.02.04,0,.09c-.04.02-.07.32-.07.38v.04h-.02l.02.02c0,.08-.02.43-.06.47v.08l.04.04.02-.02c.07,0,.13-.04.17-.09.08-.02.13-.07.15-.15.66-.43,1.8-3.39,2.46-4.05.66.11.15.69.09,1.07ZM6.85,12.98s.02-.08-.02-.09c.02.04.02.06.02.09ZM6.85,12.98v.04s.02-.02.04-.02l-.04-.02ZM7.75,10.24c.04-.06.08-.11.09-.19.02-.02.51-.75.54-.83h-.02v-.04l-.04.04s-.09,0-.13-.02c-.02,0-.02-.02,0-.02l-.02-.02v.02c-.15.28-.34.6-.45.9.04.04.02.09.02.15ZM10.28,10.69c.15-.24.26-.47.47-.66.17-.54.32-1.09.51-1.63-.21-.15-.41-.26-.66-.36-1.74.84-2.96,3.6-2.74,5.44l.06-.06c.53-.17,2.03-2.17,2.36-2.74ZM8.18,13.9l-.02-.02-.21.11.23-.09ZM8.33,9.73l-.04.02-.04.08v.04c-.04.06-.13.15-.15.22h.02c.13-.11.19-.34.32-.43.06-.19.24-.45.34-.64.04-.04.06-.06-.02-.06-.02.04-.06.08-.09.11l.02.02-.06.04c-.06.13-.15.39-.26.51,0,.04-.02.06-.04.09ZM9.77,12.25h-.02l-.19.23-.09.06c-.13.38-.71.64-.88.96-.09.06-.17.15-.26.19l-.06.06s-.02.04-.02.04l.02.02v-.02c.17-.09.67-.41.73-.58l.08-.07h.04l.02-.02v-.04l.04-.02c.07-.09.13-.19.21-.26.04-.09.15-.15.17-.22l.04-.02.04-.06v-.04s.13-.13.15-.19ZM8.33,9.51c0,.09.21-.3.22-.32h-.06l-.17.32ZM9.53,12.72h-.02c-.09.15-.22.3-.36.43h-.02c-.06.09-.43.38-.52.47l-.23.17s-.04.02-.04.04h.02s.08-.04.09-.07c.06,0,.66-.51.73-.58.02-.06.11-.13.15-.19h.02c.04-.09.13-.13.17-.22v-.04ZM9.32,13.24v.02l-.06.06h-.02l.08-.08ZM9.32,13.24l.06-.08s-.02.06-.06.08ZM9.94,12.49s-.02.04-.06.04c0-.04.04-.04.06-.04ZM10.38,11.63s-.04,0-.02.02c-.02.06-.06.09-.09.13v.02c-.04.09-.09.17-.17.23v.04c.06-.04.17-.21.19-.26h.02s.08-.11.08-.17ZM10.3,11.85s.02,0,.02,0h-.02ZM10.56,11.5s.02-.02.02-.02l-.02.02ZM10.62,13.07h-.02s.02.02.02,0ZM10.62,11.29c.04-.08.06-.13.08-.21-.06.06-.08.13-.08.21ZM10.75,7.67c.13.04.24.13.38.17-.11-.06-.26-.17-.38-.19v.02ZM11.31,8.89h-.04v.08s-.06.08-.04.11c0,.02-.06.08-.02.08-.08.21-.15.39-.21.6.15-.32.69-1.8.84-1.93q0-.06-.04-.09c-.13.38-.51.75-.51,1.16ZM11.35,8.46l-.11.23s0,.04.02.04v-.02s.06-.09.06-.13l.06-.11h-.02ZM11.61,7.9l-.04.08c-.08.13-.02.04.04-.08ZM11.61,7.9l.11-.17c0-.09-.06.08-.11.17ZM11.69,13.9l-.02-.02s.02.02.02.02ZM12.36,14.16c-.08.04-.15.08-.21.13.04-.02.22-.09.21-.13ZM13.64,12.17l-.04-.02c-.23.3-.38.71-.62.99v.02c-.06.09-.17.17-.21.28-.04.04-.24.36-.3.45-.02.04-.07.06-.07.09,0,.02.02.04.04.04v-.02l.04-.02s.04-.06.06-.08c.09-.09.13-.21.22-.3.06-.13.26-.22.26-.39l.02-.04.06-.02v-.08l.06-.02c.04-.06.11-.24.15-.28.02-.09.06-.19.13-.24v-.04l.04-.02.04-.08v-.04c.04-.06.11-.13.13-.21ZM13.43,12.7v.02c-.11.17-.19.36-.32.51-.06.08-.24.24-.24.34-.08.06-.24.36-.36.47v.04c.19-.26.43-.62.66-.84.02-.08.09-.15.13-.21,0-.08.11-.21.15-.28,0-.02,0-.04-.02-.04ZM14.56,10.63l.02-.02.04-.09-.06.11Z"/><path class="cls-1" d="M19.46,7.07c-.08-.08-.3.24-.32.28-.17.28-.32.71-.52.96l-.02-.02c-.04.08-.07.15-.13.21-.06.07-.15.22-.19.04-.04-.11.08-.3,0-.39l-.08-.04c0-.07,0-.22.04-.34l-.09-.06c-.11.04-.34.09-.43.15-.98.71-2.1,3.3-2.03,4.54.02.3.15.54.24.83h.02c.13.06.24.17.39.19.11.08.36.06.49.04,1.2-.21,2.53-2.44,3.26-3.39v.02c.06-.11.15-.23.22-.32.02,0,.04,0,.04-.02l-.07.13c.07-.11.06-.04.21-.15l.04.04s-.04.08-.08.09l.02.02.04-.02v-.02l.04.06c-.11.15-.08.06-.17.21l.02.04c.06-.07-.02.08.04-.02l.04.04c-.08.11.02,0-.06.11-.17.3-.51.96-.62,1.07-.04.09-.22.38-.28.43h-.04l.26-.41c-.11.13-.23.28-.3.41.02.02,0,.04-.02.02-.07.11-.15.24-.24.34v.02c-.06.11-.13.21-.23.28l-.02.04c.06-.02.47-.58.53-.66l.02.02c-.04.07-.26.36-.26.36,0,.02-.02.04-.02.04-.06.09-.09.19-.17.26-.36.43-.83.94-1.33,1.18l.02-.02-.09.06h.02l-.06.04-.02-.02c-.06.09-.36.17-.47.23-.45.04-.96-.06-1.31-.36-.17.04-.36-.15-.47-.26h-.02l-.04.04c-.11-.13-.21-.26-.3-.41l.04.08c-.38-.68-.52-1.41-.52-2.18.02,0,.04-.02.06-.04h.06c-.06.15,0,.88.04,1.07,0-.19-.02-.34.02-.52-.06-.17,0-.38,0-.56-.04-.02-.02-.06,0-.04,0-.06.02-.09.02-.15l-.06-.02c0,.06-.02.11-.02.17l-.08-.04.11-.47s.02-.09.02-.11l-.04.09-.04-.02.09-.24s.02-.11.04-.15l-.02.02.15-.34s.09-.26.11-.3l-.02.02c.24-.51.86-1.59,1.33-1.88.04-.02.08-.04.11-.08l-.04.02.08-.06.02.02c.38-.45,1.5-.24,1.95.02l-.02.06-.04-.02s0,.04.02.04v.04s.07.02.11.02l.02-.02-.02-.02c.04-.09.09-.17.09-.28l.02-.02h-.02c.02-.06.06-.09.09-.13.04-.06,0-.13.04-.17v-.02h.04v-.04l.02-.02.02-.06h.02v-.04s.08-.08.08-.13l.04-.04.04.02.02-.04-.04-.02.02-.04s.06-.04.08-.06v-.09s0-.06.02-.06c.02-.04.04-.09.08-.11v-.02l-.02-.04c.04-.09.11-.19.09-.28.02-.08,0-.17.04-.22.15-.06.97.49,1.12.64.15.15.04.26-.06.41-.51.81-1.14,1.58-1.76,2.29l-.09-.08c.15-.11.9-1.41,1.05-1.65ZM15.9,8.05c-.09.09-.28.34-.32.45-.06.06-.09.11-.13.19v.02l-.04.06s-.02.07,0,.06c.06-.11.34-.49.36-.56.06-.06.09-.13.13-.21ZM15.62,8.22s.04-.02.06-.04c0-.02,0-.06.02-.08l-.06.06-.02.06ZM15.94,7.78s.02-.04.02-.06c-.08.11-.17.21-.23.3v.04l.21-.28ZM15.84,13.56l.26.17v-.02c-.07-.06-.19-.11-.26-.15ZM15.86,8.01l.04-.04v-.02s-.04.04-.04.06ZM16.09,7.58c.3-.34.79-.43,1.2-.51.13-.02.62.11.73.09t-.02-.02c-.41-.15-1.35-.13-1.71.22-.06.04-.13.08-.17.13l-.04.08ZM18.07,7.28s-.04-.02-.02-.04c-.49-.11-.75-.17-1.26-.04-.17.04-.34.21-.45.22l-.04.08c-.09.04-.15.11-.23.19.45-.36.86-.54,1.43-.51.07,0,.45.08.47.08l.04.02h.06ZM16.14,13.69h.02l.08.04-.02-.04-.06-.02-.02.02ZM16.31,13.77c.06.02.13.04.19.04.21.08.88-.04,1.03-.21l.11-.04s.04-.04.04-.06h.06c.06-.04.53-.43.54-.49l.04-.02.06-.07c.08-.04.17-.15.21-.21l.04-.02-.04-.02c-.08.08-.34.36-.41.38-.21.32-.69.53-1.03.66-.06-.02-.51.15-.71.04h-.06l-.02-.02h-.04s-.02.02,0,.04ZM18.19,13.18c-.23.28-1.01.71-1.37.68l-.04.02-.13-.02c-.08.02-.17-.02-.24-.02l-.04-.02h-.04s.11.04.13.04c.47.09.79-.06,1.2-.23.04-.04.11-.06.15-.11l.11-.06v-.02s.08-.06.11-.08l.17-.15s0-.06-.02-.04ZM16.54,7.18s-.04.02-.04.02c0,0,.02-.02.04-.02ZM17.42,13.78l-.09.04h.02l.09-.04h-.02ZM17.53,13.73l-.08.04s.06-.02.08-.04ZM18.24,7.77s.02-.06.04-.08,0-.04-.02-.02l-.02.09ZM18.32,13.11v-.02s-.04.04-.06.08l.06-.06ZM18.32,13.17s.04,0,.06-.02c-.02,0-.04,0-.06.02ZM20.42,10.26l.02-.04s-.02.02-.02.04Z"/><path class="cls-1" d="M24.6,10.07c-.24.36-.36.9-.66,1.2l-.04-.02c.11-.19.26-.43.34-.62l.02-.02.02-.04c-.08.13-.24.28-.26.41-.08.07-.09.17-.15.26.02.02,0,.04-.02.02l-.09.17v.02l-.09.15v.02c-.04.09-.09.19-.17.26v.04l.04-.02c.09-.23.24-.41.36-.62l.04.04c-.15.23-.24.41-.34.66l.02-.02c-.26.45-.6.9-.92,1.28l-.06.06-.02.04h-.02l-.02.06c-.28.3-.99,1.41-1.54.86,0,.02,0,.04-.02.04l-.17-.13h-.02l-.21-.24v-.02c-.17-.17-.3-.3-.41-.53,0-.02,0-.04.02-.04.08.09.13.23.23.32l-.06-.09v-.02s-.19-.22-.17-.26c-.06-.09-.08-.09-.09-.21-.04-.02-.11-.17-.09-.22l-.02.04c0,.08.04.13.08.19.04.08.06.17.11.23l-.04.02c-.06-.08-.06-.19-.11-.24v-.02c-.06-.06-.06-.11-.09-.17.02-.04-.02-.11-.04-.15,0-.02-.02-.09-.04-.08-.02-.11-.04-.23-.04-.34l.02-.04h-.02c.02-.19.24-1.44.38-1.54-.02-.04.04-.17.08-.21.02-.02,0-.04-.02-.02.22-.53.43-1.07.64-1.59.26-.67.69-1.31.92-1.99.09,0,.3.13.39.19.06,0,.09.02.11.08.22.17.47.34.62.58.24.38-.06.67-.21,1.01-.13.28-1.41,3.47-1.37,3.69-.02.04-.04.06-.04.09-.02,0-.04,0-.04-.02-.02.04-.17.32-.06.21v-.08l.06-.11.02.02s-.02.08-.04.11v.02l.02.07s.02.04-.02.04c0,.02-.02.09-.04.11l-.09.34-.02.02s0,.04.02.04c0,.08-.06.43-.09.47l-.02.06.02.02.02.04.02-.02c.07,0,.13-.04.19-.09.07-.02.13-.07.17-.15.71-.47,2.03-3.26,2.83-4.05.24.04.36.19.3.45ZM20.45,10.65c.24-.6.49-1.18.77-1.76-.02-.04.39-.66.45-.77v-.09s.04-.08.08-.09l.04-.09.02-.02v-.04l.02-.02s-.06-.04-.06-.04c-.04.08-.13.26-.19.32l-.02.06c-.07.08-.09.15-.15.24v.04h-.04l-.02.02.02.04-.04.02-.06.17-.04.04c0,.06-.04.11-.08.15v.08h-.04s-.02.06-.02.08l-.06.11s-.06.08-.02.08c-.36.73-.71,1.56-.86,2.34.15-.26.17-.56.28-.84ZM21.32,8.35c-.08.13-.17.24-.23.34.08.04.19-.23.23-.34ZM21.3,12.72v.02s.02-.02,0-.02ZM21.33,8.29l.26-.39.09-.19s-.04-.02-.02,0c-.11.11-.15.32-.24.41h-.02c-.02.06-.04.11-.08.17ZM21.71,14.16c-.08.04-.15.08-.22.13.04,0,.24-.09.22-.13ZM23.17,12.17l-.02-.02c-.28.26-1.07,1.58-1.31,1.74-.02.02-.08.09-.08.11l.04.02v-.02c.11-.04.66-.83.73-.84,0-.02.02-.06.02-.08l.04-.02c.13-.15.19-.39.34-.52v-.04l.06-.02.04-.08v-.04s.13-.15.15-.21ZM22.8,12.88l-.15.19c-.09.3-.69.69-.79.99.06.04.19-.21.22-.24.17-.11.36-.47.53-.6.02-.08.11-.15.15-.21,0-.08.13-.21.17-.28,0-.09-.11.11-.13.15ZM22.22,5.61c.02-.22.11-.43.17-.66.43-1.8,1.95-.24,1.86.23l.02.02h-.02c-.04.17-.13.26-.19.41v.13c-.08.02-.21.49-.34.56h-.04c-.11.17-.3.15-.49.15-.24.09-.58.21-.77-.08-.09-.13.04-.39.06-.54-.11-.04-.13.15-.15.22-.11-.04-.11-.36-.11-.45ZM22.48,5.48l.06.02c.04.06.02.17.02.24-.04.02-.02.06,0,.04.02-.04.04-.06.08-.08l.02-.02-.02-.04v-.09s-.04-.04-.04-.06h.02v-.09l.02-.04s-.06-.09.02-.11l-.02-.02h-.06l-.02.04v.06l.02.02-.04.04v.09l-.06-.02v.02ZM22.57,4.9h.04s-.02-.02-.04-.02v.02ZM22.76,4.93s-.04,0-.02.02.09.02.02-.02ZM22.74,4.58s.02,0,.02.02v-.04s-.02,0-.02.02ZM22.74,4.6c.06.02.02,0,0-.02v.02ZM22.8,4.67s-.02.06-.02.09l-.02.02.02.04s-.02.06-.02.08l.04.04h.02l.06-.11s.02-.08.02-.11c.06-.11.19-.19.26-.32,0-.02,0-.08-.04-.06l-.04.02c-.04.08-.09.15-.15.22l-.06.02-.02.04-.06.04ZM22.76,4.56h.04v-.04h-.02s0,.02-.02.04ZM23.1,4.65s-.04.09-.04.13h-.06l.04.04h-.04l-.02.04.02.02.02.06-.02.02s-.02.06-.02.09l.02.04-.06-.02s.02.04.04.06l-.04.08.06.02v-.02l.06-.06.06-.02s0-.04.02-.04c.04-.08.04-.15.06-.23l.08-.06.02-.06h.02s.04-.06,0-.09l.08-.09s-.02-.06-.02-.08c-.11-.04-.08.02-.11,0-.04.06-.08.15-.15.17ZM23.23,4.31l.04.04c.06,0,.08-.02.06-.08-.04.02-.06.04-.09.02v.02ZM23.36,4.48l.04.02v-.04l-.02-.02h-.02v.04Z"/><path class="cls-1" d="M25.53,7.47l.06-.09v.09l.02-.04.04.02s-.17.66-.26.94c.06-.04.13-.11.17-.17,0,.21-.3.49-.3.67l-.04.04.04.09.13-.28s.06-.11.11-.15v-.04c.06-.13.08-.21.23-.24v.02c-.15.24-.26.54-.39.81l.09.06c.07-.13.34-.62.36-.73.15-.13.77-1.74.96-2.1,0-.04.02-.11.08-.11v-.02c.13-.17.19-.45.28-.66v-.04l-.15-.06c-.21.53-.51,1.03-.69,1.58l-.06-.13-.02.02c.06-.15.49-1.12.56-1.16.04-.17.41-1.12.53-1.2-.02-.06.07-.17.11-.21-.02-.04.11-.24.15-.26.06-.08.09-.21.15-.3l-.08-.02s-.58.99-.6,1.09c.02.06-.06.19-.11.23.02.19-.34.79-.43.96-.04,0-.09-.02-.13-.02.02-.02,0-.04-.02-.02.04-.06.56-1.29.69-1.54l-.26.47.17-.43v-.02l-.04.02c-.26.6-.51,1.16-.9,1.71-.04,0-.09,0-.13.02.15-.41.39-.79.58-1.18.09-.21.17-.45.28-.66.26-.52.68-1.01.83-1.59-.17.32-.26.69-.54.92.07-.28.97-2.06,1.18-2.14.13-.04.49.09.62.15l.06-.02c.15.13.41.06.51.28l.62.39c-.08.28-.34.47-.47.73-.23.43-.43.88-.64,1.31-.96,2.03-2.03,4.01-2.81,6.15-1.11,2.98-.41,3.28-.26,3.34h.02s.04.02.06.04l.06-.04c.09.02.38-.24.43-.3,1.44-1.31,1.56-1.86,2.7-3.28v.02c.06-.06.15-.24.21-.32h.02l-.06.13c.11-.15.19-.3.32-.43l.06.02-.08.11.04.02.02-.04h.02l.04.04-.28.51.02.04.17-.28v.02l.04.02c-.08.11-.13.24-.19.38l.06-.09c-.3.54-.19.41-.53.92h-.02l-.04.02h-.02c.02-.07.06-.17.11-.26l-.15.26s-.02.02-.02.04c-.04.06-.21.34-.24.38-.04.11-.11.22-.21.3v.04c.06-.06.23-.28.23-.34h.02c.08-.11.17-.23.22-.36l.04.02c-.04.08-.23.34-.23.38,0,.02-.06.02-.04.04l-.17.3.02-.02c-.36.51-.75.94-1.16,1.39v-.02l-.08.07h.02l-.04.04h-.02c-.02.06-.3.32-.34.34-.26.19-.56.45-.9.45-.24,0-.73-.3-.88-.45-.77-.73-1.09-1.99-.86-3.02.06-.23.15-.45.21-.68.09-.11.71-2.49,1.01-3.09.02.08.08.13.15.17-.06.11-.09.22-.13.34l-.06.04-.02.04c.02.08.02.15-.04.21-.04.09-.06.23-.15.3v.13c-.09.22-.15.45-.23.67l.09-.13c.11-.28.21-.58.32-.88l-.06.08s.04-.11.04-.13c.02,0,.02.02.02.02.07-.17.13-.34.22-.51l.04-.09-.02.02-.04-.02ZM24.46,10.93c.02-.08.06-.11.09-.19,0-.24.08-.49.11-.73l-.06.17-.04.04c-.08,0-.04.13-.02.17l-.04.08s0,.09-.04.13c0,.09,0,.24-.04.34h.02ZM24.83,10.02c-.04.06-.06.36-.07.45l.02.04c.06-.17.13-.3.06-.49ZM25.04,10.35h-.02l.02.02v-.02ZM25.15,8.37s.04-.08.08-.11l-.08.15v-.04ZM25.34,7.97c.02-.11.09-.22.15-.34v.02c-.04.07-.09.26-.15.32ZM25.62,7.9l.02-.06.08.02.04-.02s-.04.09-.07.13c0,.09-.04.13-.09.19.02-.08.13-.21.04-.26ZM25.62,7.32c.04-.21.15-.47.24-.66l.04-.02c-.09.21-.15.43-.24.64l-.04.04ZM25.72,14.35c.08.02.13.06.21.06v-.02c-.08,0-.13-.04-.21-.04ZM25.81,7.88c-.02.06-.04.11-.08.15.02-.04.04-.13.08-.15ZM25.81,8.08l-.02-.06.06-.02-.04.08ZM25.96,7.33s-.04.06-.04.09l-.04-.04v-.08s.06.02.08.02ZM25.92,6.58s-.02-.08,0-.09l.04.02s-.02.06-.04.08ZM25.92,7.2c.02-.09.11-.17.15-.26h.02l.04-.26h.06l.04.02-.04.11c-.04.06-.13.21-.11.26-.04.06-.06.13-.08.19l-.08-.06ZM26.04,14.31s-.07,0-.09.02c.02,0,.06,0,.09-.02ZM25.98,6.4h-.02s0-.02.02-.02v.02ZM26,7.62v-.11c.06-.09.06-.15.06-.26l.06-.11.11-.02c-.07.17-.13.36-.22.51ZM26.07,7.13l-.02.06s0-.04.02-.06ZM26.11,14.29l.02.02v-.02c.43-.15.71-.64,1.03-.81v-.02l.02-.04c.06-.04.49-.53.52-.62l.04-.02c.09-.11.15-.24.26-.34l-.04-.02s-.81.94-.9,1.05l-.04.02c-.08.11-.22.17-.3.28-.06.02-.36.38-.54.43l-.04.04s-.04.02-.04.04ZM26.19,6.58c.04-.06.11-.43.11-.45l.06.06h.06l.02-.04c-.02.11-.17.45-.21.49,0-.02-.02-.04-.04-.06ZM27.63,13.02c-.17.34-.62.56-.81.84-.15.06-.26.22-.39.32-.06.04-.28.17-.21.17.32-.15.75-.56.99-.81.02-.04.36-.38.43-.51.02-.02,0-.04-.02-.02ZM27.05,13.77h-.04l-.06.08h.02l.07-.06v-.02ZM27.76,4.18c.02-.08.08-.17.13-.22-.04-.04-.09-.09-.15-.11,0,.08-.15.23-.19.32-.19.39-.38.75-.54,1.16l.04.08.09.02c0-.09.08-.11,0-.19h.08l-.04-.06.04-.02c.15-.23.38-.83.54-.98ZM27.14,6.04c.02-.08.04-.15.04-.22-.06.11-.11.24-.15.38l.11-.15ZM27.1,13.69l-.06.08s.04-.04.06-.08ZM27.25,6.21l-.02-.02s-.04.02-.02.06c.02,0,.04-.02.04-.04ZM27.7,4.93l-.06-.04c.13-.23.26-.43.32-.71-.08.15-.54,1.05-.52,1.12.11-.09.09-.38.26-.38ZM27.48,5.68v-.02h-.02v.04l.02-.02ZM27.76,12.9h-.02l-.06.08.06-.04.02-.04ZM28.55,3.64c-.34.66-.49,1.43-.83,2.06.32-.56.84-1.67.84-2.03l-.02-.04ZM27.78,4.95l-.02.02v.02s.04,0,.04-.02t-.02-.02ZM27.82,12.94h-.02l-.04.04s.04,0,.06-.04ZM27.84,4.86h-.02s.02.02.04.02t-.02-.02ZM27.95,4.65l-.02.02v.02h.02v-.02s.02,0,.02-.02h-.02ZM29.26,10.05h.02v-.02l-.02.02Z"/><path class="cls-1" d="M33.44,10.07c-.24.36-.36.9-.66,1.2l-.04-.02c.11-.19.26-.43.34-.62l.02-.02.02-.04c-.07.13-.24.28-.26.41-.08.07-.09.17-.15.26.02.02,0,.04-.02.02l-.09.17v.02l-.09.15v.02c-.04.09-.09.19-.17.26v.04l.04-.02c.09-.23.24-.41.36-.62l.04.04c-.15.23-.24.41-.34.66l.02-.02c-.26.45-.6.9-.92,1.28l-.06.06-.02.04h-.02l-.02.06c-.28.3-.99,1.41-1.54.86,0,.02,0,.04-.02.04l-.17-.13h-.02l-.21-.24v-.02c-.17-.17-.3-.3-.41-.53,0-.02,0-.04.02-.04.07.09.13.23.22.32l-.06-.09v-.02s-.19-.22-.17-.26c-.06-.09-.08-.09-.09-.21-.04-.02-.11-.17-.09-.22l-.02.04c0,.08.04.13.08.19.04.08.06.17.11.23l-.04.02c-.06-.08-.06-.19-.11-.24v-.02c-.06-.06-.06-.11-.09-.17.02-.04-.02-.11-.04-.15,0-.02-.02-.09-.04-.08-.02-.11-.04-.23-.04-.34l.02-.04h-.02c.02-.19.24-1.44.38-1.54-.02-.04.04-.17.07-.21.02-.02,0-.04-.02-.02.23-.53.43-1.07.64-1.59.26-.67.69-1.31.92-1.99.09,0,.3.13.39.19.06,0,.09.02.11.08.22.17.47.34.62.58.24.38-.06.67-.21,1.01-.13.28-1.41,3.47-1.37,3.69-.02.04-.04.06-.04.09-.02,0-.04,0-.04-.02-.02.04-.17.32-.06.21v-.08l.06-.11.02.02s-.02.08-.04.11v.02l.02.07s.02.04-.02.04c0,.02-.02.09-.04.11l-.09.34-.02.02s0,.04.02.04c0,.08-.06.43-.09.47l-.02.06.02.02.02.04.02-.02c.08,0,.13-.04.19-.09.08-.02.13-.07.17-.15.71-.47,2.03-3.26,2.83-4.05.24.04.36.19.3.45ZM29.3,10.65c.24-.6.49-1.18.77-1.76-.02-.04.39-.66.45-.77v-.09s.04-.08.08-.09l.04-.09.02-.02v-.04l.02-.02s-.06-.04-.06-.04c-.04.08-.13.26-.19.32l-.02.06c-.08.08-.09.15-.15.24v.04h-.04l-.02.02.02.04-.04.02-.06.17-.04.04c0,.06-.04.11-.08.15v.08h-.04s-.02.06-.02.08l-.06.11s-.06.08-.02.08c-.36.73-.71,1.56-.86,2.34.15-.26.17-.56.28-.84ZM30.16,8.35c-.07.13-.17.24-.22.34.08.04.19-.23.22-.34ZM30.14,12.72v.02s.02-.02,0-.02ZM30.18,8.29l.26-.39.09-.19s-.04-.02-.02,0c-.11.11-.15.32-.24.41h-.02c-.02.06-.04.11-.07.17ZM30.56,14.16c-.08.04-.15.08-.23.13.04,0,.24-.09.23-.13ZM32.02,12.17l-.02-.02c-.28.26-1.07,1.58-1.31,1.74-.02.02-.08.09-.08.11l.04.02v-.02c.11-.04.66-.83.73-.84,0-.02.02-.06.02-.08l.04-.02c.13-.15.19-.39.34-.52v-.04l.06-.02.04-.08v-.04s.13-.15.15-.21ZM31.64,12.88l-.15.19c-.09.3-.69.69-.79.99.06.04.19-.21.23-.24.17-.11.36-.47.52-.6.02-.08.11-.15.15-.21,0-.08.13-.21.17-.28,0-.09-.11.11-.13.15ZM31.06,5.61c.02-.22.11-.43.17-.66.43-1.8,1.95-.24,1.86.23l.02.02h-.02c-.04.17-.13.26-.19.41v.13c-.08.02-.21.49-.34.56h-.04c-.11.17-.3.15-.49.15-.24.09-.58.21-.77-.08-.09-.13.04-.39.06-.54-.11-.04-.13.15-.15.22-.11-.04-.11-.36-.11-.45ZM31.32,5.48l.06.02c.04.06.02.17.02.24-.04.02-.02.06,0,.04.02-.04.04-.06.08-.08l.02-.02-.02-.04v-.09s-.04-.04-.04-.06h.02v-.09l.02-.04s-.06-.09.02-.11l-.02-.02h-.06l-.02.04v.06l.02.02-.04.04v.09l-.06-.02v.02ZM31.42,4.9h.04s-.02-.02-.04-.02v.02ZM31.61,4.93s-.04,0-.02.02.09.02.02-.02ZM31.59,4.58s.02,0,.02.02v-.04s-.02,0-.02.02ZM31.59,4.6c.06.02.02,0,0-.02v.02ZM31.64,4.67s-.02.06-.02.09l-.02.02.02.04s-.02.06-.02.08l.04.04h.02l.06-.11s.02-.08.02-.11c.06-.11.19-.19.26-.32,0-.02,0-.08-.04-.06l-.04.02c-.04.08-.09.15-.15.22l-.06.02-.02.04-.06.04ZM31.61,4.56h.04v-.04h-.02s0,.02-.02.04ZM31.94,4.65s-.04.09-.04.13h-.06l.04.04h-.04l-.02.04.02.02.02.06-.02.02s-.02.06-.02.09l.02.04-.06-.02s.02.04.04.06l-.04.08.06.02v-.02l.06-.06.06-.02s0-.04.02-.04c.04-.08.04-.15.06-.23l.07-.06.02-.06h.02s.04-.06,0-.09l.08-.09s-.02-.06-.02-.08c-.11-.04-.07.02-.11,0-.04.06-.08.15-.15.17ZM32.07,4.31l.04.04c.06,0,.08-.02.06-.08-.04.02-.06.04-.09.02v.02ZM32.21,4.48l.04.02v-.04l-.02-.02h-.02v.04Z"/><path class="cls-1" d="M34.42,7.43l.06.02c-.04.06-.21.66-.28.94l.19-.17-.04.13c-.13.17-.19.39-.3.58l.02.09c.06-.07.19-.39.24-.43l.09-.23s.09-.04.15-.06c-.04.04-.36.75-.39.83l.08.06c.09-.21.32-.51.38-.73.09-.08.06-.21.15-.28,0-.02.75-1.74.79-1.82,0-.04.02-.11.08-.11v-.02c.13-.17.21-.47.3-.66l-.02-.04-.13-.06c-.19.49-.45,1.09-.71,1.58l-.04-.13-.02.02c0-.13.28-.6.32-.77.11-.07.11-.32.22-.39.02-.06.06-.11.06-.17l.09-.39c-.02.06-.08.13-.08.15v.04c-.09.19-.21.53-.36.66-.04,0-.09-.02-.13-.02-.02-.04.24-.54.28-.64,0-.08.26-.69.17-.53-.04.06-.6,1.13-.81,1.35l-.13.02c.17-.24.21-.62.41-.83.08-.26.28-.54.38-.81l-.04-.02.02.02c-.54-.23-1.31-.58-2.16-.88-.09-.06-.07-.13.04-.19.11.04.22.06.3.09.09.04.17.11.26.11.24.08.45.24.69.3v-.02c-.28-.11-.73-.36-1.01-.49.08-.11.09-.17.24-.19.64.24,1.26.51,1.91.77.17-.34.6-.97.64-1.31-.15.32-.26.69-.54.92.11-.28.99-2.06,1.18-2.14.11-.04.52.09.64.15l.04-.02c.15.13.41.04.51.28l.62.39c-.08.28-.32.47-.45.73-.28.56-.54,1.11-.84,1.65.41.13,1.67.43,2.33.13.23.11.19.69-.04.71-.21.06-1.37.07-2.51-.39-.96,1.84-1.91,3.77-2.51,5.76-.13.45-.21.92-.32,1.37-.11.43-.21.86-.21,1.31.06.08.09.15.15.21.04.04.21.02.24.02,1.12-.13,3.28-3.13,4.01-4.07l.38.19c-.36.58-.69,1.2-1.11,1.74h-.04l-.02.04h-.04c.15-.22.36-.49.53-.75-.17.23-.47.53-.56.73,0,.02-.15.21-.17.24-.06.08-.09.15-.15.21.11-.11.22-.24.32-.39l.04.02c-.09.15-.26.28-.34.43-.02-.02-.04.02-.04.04l-.21.3c-.43.51-1.03,1.03-1.59,1.41-.04.04-.08.04-.09.06h.02l-.06.04h-.02c-.09.11-.45.26-.56.28-1.5.28-2.21-2.29-1.93-3.41.04-.15.23-.56.21-.68.07-.09.71-2.51,1.01-3.09.04.08.09.13.15.17l-.13.34-.06.06c0,.24-.09.24-.15.49-.02.02-.06.04-.06.08.02.09-.17.64-.21.77.11-.34.3-.66.41-.99,0-.04.02-.11.04-.17l-.02.02v-.08l.13-.26h.02l.04-.07s-.04.02-.04,0l.04-.02v.02l.04-.09s-.04.02-.04,0l.06-.09s-.02.06-.02.09l.02-.04ZM33.51,10.02c-.06.06-.06.15-.09.21-.08,0-.06.13-.04.17-.02.06-.02.17-.06.21-.04.08-.04.24-.04.34.02-.08.06-.13.09-.19-.02-.13.09-.54.13-.73ZM33.51,3.71v-.02c-.06-.04-.11-.06-.19-.06.06.02.13.04.19.08ZM33.71,10.13s-.04-.07-.06-.11l-.02.04c0,.15-.04.28-.04.41l.02.04c.04-.07.06-.34.09-.38ZM33.75,8.31s-.02.06-.04.07c0-.02.02-.06.04-.07ZM33.97,8.37s.04-.08.08-.11c0,.06-.04.09-.06.15l-.02-.04ZM34.16,8.07l-.06.11s-.02,0-.02-.02l.04-.11s.04,0,.04.02ZM36.69,12.88l-.02-.02c-.04.06-.47.41-.51.43-.49.64-1.5.92-1.54.96-.17-.02-.38-.04-.51-.17v.04l.02.04c.22.15.81.19.99,0,.17-.04.28-.21.41-.22.02-.02.04-.04.04-.06.11-.04.24-.17.3-.26.15-.09.22-.22.38-.32l.04-.06.06-.02c.04-.06.28-.28.34-.34ZM36.21,13.47l-.02-.02v.02c-.39.39-1.52,1.26-2.06.71v.04c.41.41,1.41-.09,1.74-.43h.02c.02-.06.06-.09.11-.11l.21-.21ZM34.2,8.38c-.02.06-.04.11-.04.13.04-.04.04-.09.04-.13ZM34.24,7.86s.02,0,.04-.02c.04-.06.02-.13.06-.19l-.09.21ZM34.5,7.97c0,.09-.04.13-.09.19.02-.08.13-.21.04-.26l.02-.06.08.02.04-.02s-.04.09-.08.13ZM34.72,6.64c0,.06-.21.56-.26.67h-.02c.02-.11.21-.62.28-.67ZM34.56,7.58s.02-.04.04-.06l.04.02-.06.02-.02.02ZM34.63,7.88l-.06.15s.02-.11.06-.15ZM34.63,8.08l-.02-.06.06-.02-.04.08ZM34.74,7.32l.06.02-.04.04-.02.06s-.04-.08-.04-.11c0-.02.04-.02.04,0ZM34.78,6.51s0,.06-.04.08c-.02-.04-.02-.08,0-.09.02,0,.04,0,.04.02ZM34.74,7.2c.04-.08.08-.13.13-.19l.02-.08h.02l.04-.26h.07l.02.02c-.04.13-.09.24-.15.36v.02c-.04.06-.06.13-.08.19l-.08-.06ZM34.8,6.4v-.02s.02,0,.02.02h-.02ZM34.89,7.32l-.02-.08.06-.11.11-.02c-.06.17-.15.34-.21.51,0-.13.02-.19.06-.3ZM34.88,7.18s0-.04.02-.06c0,.02,0,.04-.02.06ZM35.14,6.13l.04.06h.08c-.02.13-.11.21-.15.32,0,.04,0,.09-.04.13l-.06-.06c.04-.08.06-.15.06-.22.02-.04.09-.17.08-.23ZM35.33,14.2l-.13.08h.02l.11-.06v-.02ZM35.4,14.16l-.06.04s.04-.02.06-.04ZM35.46,4.54l-.02-.02s-.04-.02-.06-.02l.08.06v-.02ZM35.59,4.88l-.04.08c.02-.06.04-.08.04-.08ZM35.7,5.21c.02-.06.04-.11.04-.17l-.04.06v.06s.02.04,0,.06ZM35.96,5.42c0-.07.07-.09,0-.19.34-.66-.06-.15-.11.09l.04.08.08.02ZM36.34,13.35v-.02s-.08.06-.09.09c.04-.02.07-.04.09-.08ZM36.38,13.39l-.04.04s.04,0,.06-.04h-.02ZM37.42,12.25c-.09.13-.21.24-.3.34l.06-.02c.08-.08.13-.17.22-.26l.02-.06Z"/><path class="cls-1" d="M42.68,10.07c-.24.36-.36.9-.66,1.2l-.04-.02c.11-.19.26-.43.34-.62l.02-.02.02-.04c-.08.13-.24.28-.26.41-.08.07-.09.17-.15.26.02.02,0,.04-.02.02l-.09.17v.02l-.09.15v.02c-.04.09-.09.19-.17.26v.04l.04-.02c.09-.23.24-.41.36-.62l.04.04c-.15.23-.24.41-.34.66l.02-.02c-.26.45-.6.9-.92,1.28l-.06.06-.02.04h-.02l-.02.06c-.28.3-.99,1.41-1.54.86,0,.02,0,.04-.02.04l-.17-.13h-.02l-.21-.24v-.02c-.17-.17-.3-.3-.41-.53,0-.02,0-.04.02-.04.08.09.13.23.23.32l-.06-.09v-.02s-.19-.22-.17-.26c-.06-.09-.08-.09-.09-.21-.04-.02-.11-.17-.09-.22l-.02.04c0,.08.04.13.08.19.04.08.06.17.11.23l-.04.02c-.06-.08-.06-.19-.11-.24v-.02c-.06-.06-.06-.11-.09-.17.02-.04-.02-.11-.04-.15,0-.02-.02-.09-.04-.08-.02-.11-.04-.23-.04-.34l.02-.04h-.02c.02-.19.24-1.44.38-1.54-.02-.04.04-.17.08-.21.02-.02,0-.04-.02-.02.22-.53.43-1.07.64-1.59.26-.67.69-1.31.92-1.99.09,0,.3.13.39.19.06,0,.09.02.11.08.22.17.47.34.62.58.24.38-.06.67-.21,1.01-.13.28-1.41,3.47-1.37,3.69-.02.04-.04.06-.04.09-.02,0-.04,0-.04-.02-.02.04-.17.32-.06.21v-.08l.06-.11.02.02s-.02.08-.04.11v.02l.02.07s.02.04-.02.04c0,.02-.02.09-.04.11l-.09.34-.02.02s0,.04.02.04c0,.08-.06.43-.09.47l-.02.06.02.02.02.04.02-.02c.07,0,.13-.04.19-.09.07-.02.13-.07.17-.15.71-.47,2.03-3.26,2.83-4.05.24.04.36.19.3.45ZM38.54,10.65c.24-.6.49-1.18.77-1.76-.02-.04.39-.66.45-.77v-.09s.04-.08.08-.09l.04-.09.02-.02v-.04l.02-.02s-.06-.04-.06-.04c-.04.08-.13.26-.19.32l-.02.06c-.07.08-.09.15-.15.24v.04h-.04l-.02.02.02.04-.04.02-.06.17-.04.04c0,.06-.04.11-.08.15v.08h-.04s-.02.06-.02.08l-.06.11s-.06.08-.02.08c-.36.73-.71,1.56-.86,2.34.15-.26.17-.56.28-.84ZM39.4,8.35c-.08.13-.17.24-.23.34.08.04.19-.23.23-.34ZM39.38,12.72v.02s.02-.02,0-.02ZM39.42,8.29l.26-.39.09-.19s-.04-.02-.02,0c-.11.11-.15.32-.24.41h-.02c-.02.06-.04.11-.08.17ZM39.79,14.16c-.08.04-.15.08-.22.13.04,0,.24-.09.22-.13ZM41.25,12.17l-.02-.02c-.28.26-1.07,1.58-1.31,1.74-.02.02-.08.09-.08.11l.04.02v-.02c.11-.04.66-.83.73-.84,0-.02.02-.06.02-.08l.04-.02c.13-.15.19-.39.34-.52v-.04l.06-.02.04-.08v-.04s.13-.15.15-.21ZM40.88,12.88l-.15.19c-.09.3-.69.69-.79.99.06.04.19-.21.22-.24.17-.11.36-.47.53-.6.02-.08.11-.15.15-.21,0-.08.13-.21.17-.28,0-.09-.11.11-.13.15ZM40.3,5.61c.02-.22.11-.43.17-.66.43-1.8,1.95-.24,1.86.23l.02.02h-.02c-.04.17-.13.26-.19.41v.13c-.08.02-.21.49-.34.56h-.04c-.11.17-.3.15-.49.15-.24.09-.58.21-.77-.08-.09-.13.04-.39.06-.54-.11-.04-.13.15-.15.22-.11-.04-.11-.36-.11-.45ZM40.56,5.48l.06.02c.04.06.02.17.02.24-.04.02-.02.06,0,.04.02-.04.04-.06.08-.08l.02-.02-.02-.04v-.09s-.04-.04-.04-.06h.02v-.09l.02-.04s-.06-.09.02-.11l-.02-.02h-.06l-.02.04v.06l.02.02-.04.04v.09l-.06-.02v.02ZM40.65,4.9h.04s-.02-.02-.04-.02v.02ZM40.84,4.93s-.04,0-.02.02.09.02.02-.02ZM40.82,4.58s.02,0,.02.02v-.04s-.02,0-.02.02ZM40.82,4.6c.06.02.02,0,0-.02v.02ZM40.88,4.67s-.02.06-.02.09l-.02.02.02.04s-.02.06-.02.08l.04.04h.02l.06-.11s.02-.08.02-.11c.06-.11.19-.19.26-.32,0-.02,0-.08-.04-.06l-.04.02c-.04.08-.09.15-.15.22l-.06.02-.02.04-.06.04ZM40.84,4.56h.04v-.04h-.02s0,.02-.02.04ZM41.18,4.65s-.04.09-.04.13h-.06l.04.04h-.04l-.02.04.02.02.02.06-.02.02s-.02.06-.02.09l.02.04-.06-.02s.02.04.04.06l-.04.08.06.02v-.02l.06-.06.06-.02s0-.04.02-.04c.04-.08.04-.15.06-.23l.08-.06.02-.06h.02s.04-.06,0-.09l.08-.09s-.02-.06-.02-.08c-.11-.04-.08.02-.11,0-.04.06-.08.15-.15.17ZM41.31,4.31l.04.04c.06,0,.08-.02.06-.08-.04.02-.06.04-.09.02v.02ZM41.44,4.48l.04.02v-.04l-.02-.02h-.02v.04Z"/><path class="cls-1" d="M48.34,10.09c-.06.09.02.08,0,.11-.15.28-.51.99-.64,1.12-.04.09-.23.38-.28.43h-.04l.26-.41c-.11.13-.22.28-.3.41.02.02,0,.04-.02.02-.08.11-.15.24-.24.34v.02c-.06.11-.13.21-.22.28l-.02.04c.06-.02.47-.58.52-.66l.02.02c-.04.07-.07.15-.13.21-.04.04-.11.09-.13.15,0,.02-.02.04-.02.04-.06.09-.09.19-.17.26-.36.43-.83.94-1.33,1.18l.02-.02-.09.06h.02l-.06.04-.02-.02c-.06.09-.36.17-.47.23-.45.04-.96-.06-1.31-.36-.17.04-.36-.15-.47-.26h-.02l-.04.04c-.11-.13-.21-.26-.3-.41l.04.08c-.38-.68-.53-1.41-.53-2.18.02,0,.04-.02.06-.04h.06c-.06.15,0,.88.04,1.07,0-.19-.02-.34.02-.52-.06-.17,0-.38,0-.56-.04-.02-.02-.06,0-.04,0-.06.02-.09.02-.15l-.06-.02c0,.06-.02.11-.02.17l-.07-.04.11-.47s.02-.09.02-.11l-.04.09-.04-.02.09-.24s.02-.11.04-.15l-.02.02.15-.34s.09-.26.11-.3l-.02.02c.08-.13.15-.26.21-.41.32-.3.54-1.11,1.12-1.46.04-.02.08-.04.11-.08l-.04.02.08-.06.02.02c.39-.45,1.5-.24,1.95.02h-.02c.26.11.43.36.54.6.02.04.04.17.06.17.04.11-.06.38-.06.51,0,.11-.22.54-.26.66-.28.68-.88,1.12-1.52,1.44h-.02c-.26.09-.36.19-.66.19.02,0,0-.02-.02,0-.07.02-.15.04-.22.04,0-.02-.02-.02-.04-.02l.11-.04c-.09.02-.24.06-.34.06-.32.96-.32,1.43,0,2.36h.02c.13.06.24.17.39.19.11.08.36.06.49.04,1.22-.21,2.36-2.23,3.09-3.21v.02c.06-.11.15-.23.23-.32.02,0,.04,0,.04-.02l-.09.15c.11-.15.21-.3.36-.41l.04.04s-.04.07-.07.09l.02.02.04-.02v-.02l.04.06c-.11.13-.06.13-.11.23l.04.04ZM43.31,8.82c.06-.11.34-.49.36-.56.06-.06.09-.13.13-.21-.09.09-.28.34-.32.45-.06.06-.09.11-.13.19v.02l-.04.06s-.02.07,0,.06ZM43.52,8.22s.04-.02.06-.04c0-.02,0-.06.02-.08l-.06.06-.02.06ZM43.63,8.07l.21-.28s.02-.06.04-.08l-.24.32v.04ZM44.01,13.71c-.08-.06-.19-.11-.26-.15l.26.17v-.02ZM43.8,7.95s-.04.04-.04.06l.04-.04v-.02ZM44.14,10.56l-.19.06v-.02l-.04.08c.08-.04.15-.06.22-.08v-.04ZM43.95,7.6c.3-.36.81-.43,1.24-.53.13-.02.62.11.73.09t-.02-.02c-.47-.17-1.54-.11-1.88.36l-.08.09ZM46.05,7.71c-.11.04-.36.09-.43.15-.52.39-1.56,2.06-1.65,2.7l.02-.02.17-.08-.06.02c.21-.09.41-.13.58-.3.11-.04.24-.15.36-.21.02,0,.04,0,.06.02-.11.09-.24.17-.38.24h-.02l-.04.02c.06,0,.11-.04.17-.06l.02-.02h.04c.06-.08.17-.09.24-.17-.02-.02,0-.04.02-.02l.09-.08s0-.04.02-.02l.08-.06h.02c.04-.06.08-.11.15-.13v-.02h-.04s-.13.15-.15.13l-.21.15-.02-.04c.06-.06.13-.11.21-.15.02.02.04,0,.02-.02.23-.3.58-.52.73-.88v.02l.04-.06s-.02-.04,0-.02v-.04c.11-.24.23-.47.28-.73,0-.04.02-.09.04-.13-.04-.19-.06-.19-.24-.23l-.02.06-.09-.06ZM45.98,7.28s-.04-.02-.02-.04c-.49-.11-.75-.17-1.26-.04-.17.04-.34.21-.45.22l-.04.08c-.09.04-.15.11-.22.19.45-.36.86-.54,1.42-.51.08,0,.45.08.47.08l.04.02h.06ZM44.12,13.69l-.06-.02-.02.02h.02l.08.04-.02-.04ZM46.52,12.7l-.04-.02c-.08.08-.34.36-.41.38-.21.32-.69.53-1.03.66-.06-.02-.51.15-.71.04h-.06l-.02-.02h-.04s-.02.02,0,.04c.06.02.13.04.19.04.21.08.88-.04,1.03-.21l.11-.04s.04-.04.04-.06h.06c.06-.04.52-.43.54-.49l.04-.02.06-.07c.08-.04.17-.15.21-.21l.04-.02ZM46.09,13.18c-.22.28-1.01.71-1.37.68l-.04.02-.13-.02c-.08.02-.17-.02-.24-.02l-.04-.02h-.04s.11.04.13.04c.47.09.79-.06,1.2-.23.04-.04.11-.06.15-.11l.11-.06v-.02s.07-.06.11-.08l.17-.15s0-.06-.02-.04ZM44.44,7.18s-.04.02-.04.02c0,0,.02-.02.04-.02ZM45.32,13.78l-.09.04h.02l.09-.04h-.02ZM45.43,13.73l-.08.04s.06-.02.08-.04ZM46.44,8.25v.04l-.02.02c.02.22-.26.49-.26.69l-.04.02c-.04.15-.13.23-.19.36v.02l-.04.02c-.02.06-.15.19-.15.19l.02.02c.22-.23.34-.39.47-.67h.02c.04-.08.08-.15.09-.23l.02-.02c.04-.11.08-.24.09-.36l.02-.02s0-.09-.04-.08ZM45.84,9.27s-.04,0-.04.02c.02,0,.04,0,.04-.02ZM45.88,9.32s.02,0,.02-.04l-.02.02v.02ZM46.01,9.06c-.04.06-.13.26-.08.21.06-.08.15-.24.19-.34,0-.06.11-.21.13-.24v-.04l.09-.24.04-.11s0-.06-.02-.04l-.15.45-.04.04c-.02.09-.11.23-.17.32ZM46.11,8.82l.02-.06s-.02.04-.02.06ZM46.13,8.76s.04-.04.04-.06h-.02l-.02.04v.02ZM46.22,13.11v-.02s-.04.04-.06.08l.06-.06ZM46.22,13.17s.04,0,.06-.02c-.02,0-.04,0-.06.02ZM46.43,8.14s.04-.09.02-.15c0,.06-.02.13-.02.15ZM46.46,8.22h.04s0-.02-.02-.04l-.02.04ZM48.28,10.09l.02.04c.04-.06-.02,0-.02-.04ZM48.32,10.26l.02-.04s-.02.02-.02.04ZM48.34,10.2v.02l.04-.06-.04.04Z"/><path class="cls-1" d="M50.05,6.57c.24.13.58.41.73.58.26.28.32.39.34.54-.6.56-1.37,1.44-1.26,2.21l.02.04c-.06.28.41,1.29.56,1.58.36-.26,1.13-.77,1.43-1.07l.02-.04-.02.02c.08-.11.17-.15.22-.24.06-.08-.11.04-.13.06-.11.11-.21.24-.34.34-.02-.08.39-.51.77-.92.3.04.43.23.47.41-.3.38-.64.75-.71.86-.28.23-1.14.94-1.48,1.12.28.66.54,1.76.32,2.48-.04-.04-.02.13-.04.17l-.02.02v-.08c-.02.08-.04.15-.08.23h-.06v-.06l-.04-.02v.04l-.06-.02c0-.08.02-.17.02-.24l-.04-.02s-.02.09-.02.13h-.02c-.02.13-.09.24-.15.36l.15-.09.04.04-.15.13.02.04.06-.06h.02l.02.06c-.21.21-.49.34-.73.49h-.04l-.06.04v.02c.15-.08.36-.17.49-.26v.02l.02.04c-.17.11-.34.21-.52.28l.06-.02c-1.03.49-2.83.34-3.15-.97.02-.04.02-.08.02-.11l.02-.04c.09.69.71,1.14,1.37,1.31-.3-.09-.6-.22-.83-.45-.11-.04-.39-.38-.39-.49-.32-.64.02-1.31.51-1.74l.04-.04c-.13.04-.39.38-.45.51-.13.08-.24.62-.24.79,0,.04-.04.02-.04,0,0-.38.13-.51.24-.83.02-.02.06-.04.04-.06.11-.19.24-.3.36-.47l-.02.02c.41-.45,1.56-.97,2.14-1.2-.19-.24-.51-.58-.58-.9l.02-.04v-.04l.06-.04c.08.26.32.62.49.88l-.6-1.26c0-.06-.04-.11-.04-.17-.08-.17-.13-.24-.13-.45l-.02-.02-.04.06c.09.28.15.64.3.9l-.09.02c-.04-.08-.17-.49-.19-.51.06,0,0-.04-.02-.06-.08-.11-.13-.26-.17-.39v.04c-.17-.67.02-1.42.32-2.04v.02l.06-.09h-.04l.04-.04h.04s0-.06-.02-.08c.09-.13.09-.3.19-.41.13-.17.34-.3.49-.43v-.02c.04-.08.11-.09.15-.15l-.02-.02.39-.19ZM49.68,12.53h-.06l.02.02c-.68.3-3.23,1.56-2.38,2.61,1.09,1.41,3.47.19,2.42-2.63ZM48.25,12.81l-.19.08.02.02s.08-.06.17-.09ZM48.33,12.75c.17-.09.36-.19.41-.19.21-.15.58-.28.81-.39l-.02-.06c-.06.02-.19.11-.24.11-.23.09-.66.36-.96.53ZM48.74,8.74l.02-.02c0-.09.17-.66.21-.67,0-.04.41-.71.45-.75.06-.06.23-.21.24-.28.04-.08-.09,0-.11.02-.04.02-.13.17-.15.21-.15.26-.41.49-.51.77h-.02s-.09.26-.09.28c0,.06,0,.11-.02.17-.06.06-.04.17-.06.23,0,0,.02.06.04.06ZM49.53,7.65c0-.06.06-.08.04-.13.02-.04.19-.28.24-.3l.06-.08-.02-.04-.06-.02c-.17.04-.66.79-.66.94-.02,0-.04.04-.02.06l-.06.02-.02.02.04.07s-.06,0-.08.02c0,.06-.02.13-.04.19.02.07-.02.13-.04.19,0,.09-.02.19-.06.28,0,.04,0,.08.02.11l-.06.04s0,.11.02.15c-.02.09-.02.22-.02.32h.06c0-.19,0-.34.09-.51v-.06c.22-.41.13-.79.54-1.27ZM49.13,12.21l-.15.08-.02.02h.02c.17-.09.38-.19.56-.24l-.04-.04c-.11.08-.24.13-.38.19ZM50.02,8.74l-.06-.04c-.04.11-.08.21-.09.32.04-.09.08-.21.15-.28ZM50.32,13.9v-.17s-.02.11,0,.17ZM50.3,8.38c.13-.13.58-.45.58-.62h-.08c-.15.22-.38.38-.51.62ZM50.48,11.59c.09-.04.24-.13.39-.24-.17.11-.32.21-.41.22l.02.02ZM52.08,10.41h-.04v.02s-.13.06-.11.11c.04.09-1.31,1.14-1.39,1.09h-.04l.04.07c.06-.02.24-.11.26-.15.06-.02.71-.43.73-.51.13-.13.39-.38.51-.54v-.04s.04-.04.04-.06ZM51.95,10.43s0-.02.02-.02l-.02.02ZM52.43,9.85l-.24.32.02.02c.09-.11.17-.21.22-.34Z"/><path class="cls-2" d="M7.65,58.27h-3.19l1.03-7.36c-1.21,1.01-1.76,1.36-2.2,1.65-.35-.66-.92-1.69-1.89-2.37,2.25-1.34,5.22-3.57,6.8-6.27H3.44l.44-3.17h3.03l.57-4.04,3.3.21c.16,0,.46.02.43.26-.03.24-.31.38-.67.52l-.43,3.05h1.74l1.03.73.4-2.87h11.55c-.8,6.2-1.77,13.49-3.65,17.15-1.14,2.21-2.68,2.47-5.5,2.4.04-1.64-.03-2.09-.73-3.57.5.09,1.49.3,2.16.3,1.02,0,1.44-.35,1.82-1.25.17-.38,1.45-3.92,2.25-9.66.12-.84.17-1.36.24-2.04h-2.48c-1.26,7.03-2.72,12.15-8.88,16.5-.45-.92-1.22-1.72-2.12-2.19l-.28,2.02ZM14.92,45.34c.11.07.16.16.2.26.13-.59.3-1.32.68-3.67h-2.68c-.33.7-2.13,3.34-3.59,4.98,1.32,2.12,2.5,3.01,2.98,3.36-1.16.71-1.86,1.74-2.34,2.49-.34-.35-.65-.66-1.49-1.79l-.7,5.03c5.42-3.15,6.47-7.52,7.1-10.17-.11.12-.32.14-.56.16-.2.28-1.12,1.57-2.44,2.87-.69-.87-1.23-1.29-2-1.76,1.22-1.13,2.01-2.14,2.77-3.38l2.09,1.62Z"/><path class="cls-2" d="M31.61,44.78c.23.05.61.12.56.47-.05.38-.53.47-.79.52-.74,2.33-2.19,6.04-3.51,7.71-1-.61-1.72-.8-3.56-1.06,1.86-2.4,3.14-5.22,3.95-8.18l3.35.54ZM36.62,42.9c.18.02.55.05.51.35-.04.28-.35.38-.62.47l-1.39,9.92c-.1.71-.14,1.03.8,1.03h2.45c1.04,0,1.5,0,2.32-2.87.59.59,1.5,1.32,2.83,1.65-1.49,4.32-2.73,4.44-5.07,4.44h-4.47c-1.44,0-3.1,0-2.7-2.87l1.73-12.36,3.6.23ZM36.19,36.25c2.61,1.06,4.28,2.16,5.83,3.36-1.2,1.29-1.49,1.72-2.39,3.01-1.73-1.36-2.84-2.23-5.56-3.43l2.12-2.94ZM43.42,42.97c2.3,2.75,3.44,6.32,3.77,7.31-1.43.49-2.33.94-3.57,1.72-.98-3.74-2.32-5.9-3.22-7.26l3.03-1.76Z"/><path class="cls-2" d="M69.95,38.46c.11.07.2.21.19.3-.02.14-.15.26-.38.26-.09,0-.18-.02-.39-.05-1.85,2.3-2.78,3.34-3.25,3.85h4.81l-.41,2.96h-7.45c-1.07.89-1.56,1.25-2,1.55h7.04l-1.53,10.93h-3.33l.12-.87h-7.66l-.12.87h-3.33l.92-6.58c-1.86.75-2.71,1.01-3.31,1.18-.42-1.93-1.06-2.87-1.34-3.31,3.22-.52,7.32-2.37,9.6-3.76h-8.61l.41-2.96h8.03l.17-1.25h-6.44l.41-2.91h6.44l.28-1.97,3.61.14c.14,0,.37.02.33.26-.03.19-.2.26-.64.42l-.16,1.15h2.73l-.22,1.6c1.58-1.88,2.25-3.01,2.61-3.57l2.88,1.76ZM63.73,54.74l.15-1.08h-7.66l-.15,1.08h7.66ZM64.22,51.22l.16-1.1h-7.66l-.16,1.1h7.66ZM62,42.83c.24-.21.53-.49,1.26-1.25h-1.71l-.17,1.25h.62Z"/><path class="cls-2" d="M84.27,37.96c.24.07.44.14.41.35-.05.33-.54.38-.68.38-.57,1.6-.8,2.21-1.04,2.82,1.99,0,5.29.07,4.49,5.76-.54,3.88-2.21,7.19-3.53,8.69-.47.54-1.57,1.64-3.66,1.64-.72,0-1.75-.09-2.42-.26.06-.26.13-.47.19-.87.05-.35.17-1.34.09-3.15.49.3,1.06.52,1.94.52.62,0,1.01-.09,1.43-.45.89-.71,2-3.34,2.4-6.25.34-2.42-1.35-2.28-2.35-2.21-2.72,6.37-5.4,9.94-7.62,12.41-.87-.73-2.27-1.5-3.14-1.86,2.86-2.89,5.24-6.2,6.89-9.85-1.15.28-3.05.82-3.85,1.2l-.74-3.78c.98-.19,5.22-1.06,6.09-1.2.8-2.26,1.18-3.97,1.44-5.15l3.65,1.24ZM90.34,39.19c2.14,2.89,3.21,6.81,2.95,8.67-.17,1.22-.66,1.88-1.99,2.49-.22.09-1.21.54-2.42.73-.29-1.39-.47-2.07-.9-3.15.64-.14,1.53-.33,1.63-1.08.08-.59-.28-2.14-.75-3.22-.45-1.06-1.19-2.04-1.6-2.61l3.08-1.83Z"/><path class="cls-2" d="M103.07,42.03c.16.05.33.09.3.31-.04.28-.32.3-.58.33-.7,1.06-1.52,2.44-2.1,4.06,2.26-1.43,5.05-2.19,7.07-2.19,3.98,0,5.51,2.98,5.12,5.78-.63,4.49-5.23,7.57-12.89,7.57-.67,0-1.25-.02-1.68-.05.04-1.29-.05-1.93-.54-3.95.76.19,1.55.35,3.38.35,5.25,0,7.62-2,7.89-3.97.1-.68.01-2.4-2.37-2.4-3.31,0-6.02,2.16-7.92,3.85l-3.14-1.22c1.23-4.02,2.29-6.58,3.79-9.73l3.67,1.25ZM102.57,36.53c.79.12,4.28.66,7.41,2.61-1.05,1.25-1.77,2.26-2.56,3.43-1.75-1.39-4.43-2.42-6.49-2.89l1.64-3.15Z"/><path class="cls-2" d="M16.42,107.31l.56-3.99,3.02.09c.16,0,.52.07.49.31-.03.21-.18.33-.59.56l-.42,3.03h4.77l-2.08,14.85c-.27,1.9-.9,2.94-3.93,2.94-.39,0-.65-.02-.92-.07.1-1.2-.05-2.14-.5-3.08.31.09.53.16,1.07.16,1.27,0,1.32-.33,1.41-.96l.46-3.29c-.86.66-1.06.82-1.47,1.22-.6-1.03-.83-1.64-1.38-3.17-.72,1.34-1.27,2.14-2.25,3.17-.18-.21-.53-.54-1.2-.99l-.94,6.72h-2.92l.59-4.21c-.79.17-1.58.38-2.25.73-.11-1.83-.05-2.82.25-5.12l2.16-.19c-.21,1.83-.13,3.27-.05,3.85l.68-4.86c-.24.09-.92.28-1.69.63.01-.59,0-.68,0-.94l-1.17.09-1.4,10.01h-2.75l1.1-7.85c-.12.05-.19.05-.31.07-.65,3.34-1.1,4.75-1.52,5.87-.78-.35-1.87-.52-2.58-.56,1.02-2.19,1.5-3.76,1.95-6.46l2.32.45c.09.02.14.02.22.05l.19-1.34c-.33.02-1.73.14-2.04.16-.21.31-.34.42-.5.42-.19,0-.24-.09-.22-.42l.14-2.8c.44.02.55.02,1.57.02.35-.35,1.07-1.17,1.59-1.79-.18-.19-1.44-1.43-2.68-2.37l1.89-2.28c.23.19.29.21.44.33.81-1.17.93-1.36,2.01-3.24l2.29,1.17c.2.09.38.28.36.42-.04.28-.62.26-.75.26-.34.45-1.81,2.49-2.12,2.91.25.21.35.31.49.45,1.24-1.6,1.62-2.12,1.96-2.61l2.17,1.34c.11.07.25.16.33.28h4.17ZM11.98,107.74c-.19.02-.24.02-.66.05-.83,1.13-2.52,3.1-3.84,4.63.58,0,1.25,0,1.6-.02-.05-.28-.1-.47-.18-1.03l2.02-.71c.13.42.24.94.36,2.04l.69-4.96ZM13.76,115.87c.46-.63,1.66-2.28,2.32-5.64h-1.53l-.79,5.64ZM18.99,110.23c-.07,2.02.1,3.74,1.05,5.54l.78-5.54h-1.83Z"/><path class="cls-2" d="M33.51,109.99c.15.09.25.21.23.33-.05.35-.51.33-.74.31-.6.82-1.36,1.62-1.58,1.83.16.16.39.35.37.54-.02.12-.13.24-.3.35l-1.61,11.51h-3.43l1.25-8.95c-.39.28-.69.49-1.07.73-.32-1.01-1.04-1.83-1.86-2.4,2.78-1.48,5.17-4.51,6.26-5.85l2.48,1.6ZM33.82,104.94c.15.12.15.23.14.33-.04.26-.23.35-.47.35-.12,0-.21-.02-.29-.05-2.46,2.33-3.92,3.34-5.28,4.11-.47-1.27-1.68-2.04-1.98-2.23,1.33-.71,3.63-2.14,5.59-4.51l2.29,2ZM34.19,118.88h-2.82l.37-2.61h8.57l.14-.99h-8.03l.35-2.47h14.03l-.35,2.47h-2.5l-.14.99h3.06l-.37,2.61h-3.06l-.46,3.29c-.31,2.18-1.31,2.75-5.03,2.7.18-.92-.06-2.35-.67-3.34.27.05.74.14,1.23.14.95,0,1.07-.23,1.16-.82l.28-1.97h-4.03c.82,1.06,1.17,1.6,1.52,2.35-1.32.85-1.55,1.01-2.61,1.97-.38-.94-1.3-2.42-2.14-3.24l1.52-1.08ZM45.92,111.92h-12.27l1.12-7.99h12.27l-1.12,7.99ZM37.6,108.89l-.14,1.01h5.35l.14-1.01h-5.35ZM43.19,107.13l.14-1.01h-5.35l-.14,1.01h5.35Z"/><path class="cls-2" d="M58.67,120.8c5.15-.94,7.19-4.89,7.53-7.33.27-1.9-.24-5.4-4.54-5.76-1.92,8.6-6.32,15.02-8.77,15.02-1.8,0-4.73-3.1-4.12-7.45.71-5.05,6.07-10.95,12.88-10.95,5.07,0,9,3.5,8.21,9.12-.15,1.08-.66,4.09-3.75,7.26-1.64,1.67-3.41,2.54-5.5,3.41-.57-1.36-.98-2.07-1.94-3.31ZM52.24,115c-.25,1.81.55,3.17,1.04,3.17.55,0,1.14-1.06,1.48-1.67,1.32-2.33,2.46-5.03,2.91-8.08-2.83,1.01-5.14,4.46-5.43,6.58Z"/><path class="cls-2" d="M81.06,115.26c.23.02.57.09.52.4-.04.26-.4.35-.64.42-1.6,5-4.43,7.52-9.94,8.86-.12-1.46-1.44-2.77-1.77-3.08,6.45-.61,7.79-3.92,8.45-7.12l3.38.52ZM93.54,105.46l-.44,3.12h-4.82c1.04,1.01,2.58,3.06,3.67,5.19-.34.26-.44.33-1.37,1.01-.31.23-.75.59-1.51,1.22-.29-.59-.5-1.03-1.16-2.14-3.73.38-7.87.68-14.56,1.01-.08.21-.21.54-.52.54-.32,0-.32-.35-.31-.73l-.04-3.15c.12,0,3.6-.12,4.02-.14.7-.85,1.53-2,2.04-2.82h-6.69l.44-3.12h8.7l.32-2.3,3.66.12c.12,0,.46.02.42.31-.03.21-.21.33-.49.54l-.19,1.34h8.82ZM83.22,108.58c.01.4-.27.42-.96.45-.46.68-.6.84-1.72,2.23,2.4-.09,2.7-.12,5.32-.28-.54-.63-.78-.84-1.2-1.17l1.88-1.22h-3.31ZM84.01,124.73c-1.06,0-3.15-.31-2.78-2.96l1.03-7.38,3.52.31c.18.02.5.05.46.33-.04.31-.31.42-.58.54l-.65,4.63c-.12.87-.15,1.08.84,1.08h1.64c.83,0,1.14-.56,1.58-2.54.91.78,1.68,1.2,2.93,1.55-1.01,4.04-2.73,4.44-4.56,4.44h-3.45Z"/><path class="cls-2" d="M112.37,112.77l-.37,2.61h-6c-.08.38-.14.63-.21.82h8.93l-.38,2.7h-6.92c2.47,2.19,5.23,2.66,6.84,2.87-.99.99-1.49,1.71-2.26,3.08-1.08-.21-5.53-1.36-8.15-4.94-1.64,1.97-4.73,4.18-9.17,5-.22-.94-.87-2.4-1.34-3.01,2.41-.19,5.4-.87,7.41-3.01h-7.04l.38-2.7h8.24c.05-.19.12-.4.23-.82h-5.49l.37-2.61h5.65l.12-.89h-6l.13-.92h-2.64l.81-5.8h8.52l.25-1.81,3.67.09c.3,0,.52.12.49.31-.02.14-.22.28-.6.47l-.13.94h8.59l-.79,5.64h-2.71l-.15,1.08h-6c-.05.38-.12.66-.15.89h5.83ZM103.8,107.83h-5.37l-.2,1.46h5.37l.2-1.46ZM107.04,109.29h5.46l.2-1.46h-4.91s.05.12.05.16c-.04.28-.35.35-.68.42l-.12.87Z"/><path class="cls-2" d="M128.26,116.31h-2.25l.41-2.91h2.04c-.54-.59-1.57-1.34-2.69-1.62,2.04-1.53,2.36-3.81,2.58-5.36l.38-2.73h8.08l-.76,5.43c-.05.35.23.35.46.35.58,0,.89-1.36,1.01-1.93,1.07.96,1.83,1.15,2.25,1.27-.81,2.49-1.45,3.57-2.81,3.57h-2.59c-1.16,0-1.84-.78-1.62-2.3l.5-3.57h-1.6c-.51,2.63-.63,3.36-1.48,4.75-.81,1.34-1.39,1.86-1.69,2.14h8.1l.95,1.34c-1.47,2.87-3.35,4.91-3.82,5.43,2.28,1.43,3.54,1.67,4.28,1.81-.87.75-1.52,1.41-2.33,2.75-.97-.35-2.6-.94-4.6-2.23-2.49,1.72-4.35,2.3-5.15,2.56-.37-1.15-1.53-2.63-1.64-2.7l-.31,2.19h-3.12l.1-.71h-1.48l-.15,1.08h-3.15l1.15-8.22h7.75l-.77,5.52c1.93-.42,3.4-1.15,4.52-1.83-.53-.66-1.43-1.88-1.91-3.24l1.34-.82ZM127.06,107.03l-.36,2.54h-9.19l.36-2.54h9.19ZM124.93,113.52l-.34,2.4h-6.99l.34-2.4h6.99ZM125.38,110.3l-.33,2.4h-6.99l.33-2.4h6.99ZM126.3,103.7l-.37,2.63h-6.99l.37-2.63h6.99ZM120.13,119.16l-.27,1.9h1.48l.27-1.9h-1.48ZM130.09,116.31c.46.87.97,1.5,1.39,1.97.97-1.01,1.22-1.41,1.57-1.97h-2.96Z"/><path class="cls-2" d="M146.83,111.59l.39-2.77h3.91l.14-1.01h-2.87l.39-2.77h2.87l.23-1.67,3.23.09c.19,0,.43.05.4.31-.03.21-.29.4-.69.61l-.09.66h2.08l.23-1.67,3.11.09c.23,0,.55.05.52.28-.04.26-.33.4-.63.52l-.11.78h2.8l-.39,2.77h-2.8l-.14,1.01h3.22l-.39,2.77h-11.78c-.83,6.27-1.19,9-3.88,12.85-.79-.94-1.75-1.53-2.06-1.65l-.29,2.04h-3.24l1.63-11.68c-.48.49-.73.73-.97.99-.31-1.08-.67-1.81-1.5-2.7,3.05-2.58,5.29-6.72,6.07-8.29l2.75,1.06c.15.07.28.16.26.31-.03.24-.42.33-.61.38-.66,1.27-1.82,2.91-2.14,3.36.37.19.46.35.44.52-.03.23-.19.38-.51.47l-1.78,12.71c1.46-1.83,2.01-4.63,2.09-5.03.32-1.65.71-4.23.79-5.33h-.69ZM152.5,121.39l-.49,3.48h-2.75l1.74-12.45h10.53l-1.45,10.36c-.3,2.16-2.59,2.14-3.38,2.14.04-.63-.36-1.9-.62-2.54l-.28,2.02h-2.48l.42-3.01h-1.25ZM154.06,119.2l.15-1.08h-1.25l-.15,1.08h1.25ZM154.51,115.96l.15-1.08h-1.25l-.15,1.08h1.25ZM154.36,107.81l-.14,1.01h2.08l.14-1.01h-2.08ZM156.23,121.39l-.11.8c.42.12.56.14.77.14.51,0,.54-.19.58-.52l.06-.42h-1.3ZM157.83,119.2l.15-1.08h-1.3l-.15,1.08h1.3ZM158.28,115.96l.15-1.08h-1.3l-.15,1.08h1.3Z"/><path class="cls-2" d="M169.57,121.08c-.26,1.86-1.95,3.34-3.73,3.34s-3.06-1.48-2.8-3.34c.25-1.81,1.92-3.31,3.73-3.31s3.05,1.5,2.8,3.31ZM164.48,121.08c-.14,1.03.55,1.86,1.57,1.86s1.95-.85,2.09-1.86c.14-.99-.53-1.86-1.57-1.86s-1.95.85-2.09,1.86Z"/><path class="cls-2" d="M7.6,76.51c3.18,1.76,5.84,3.78,7.3,5.52-1.26,1.53-1.39,1.69-2.64,3.29-.66-.73-2.67-2.91-6.49-5.22l-1.54,11.02H.32l2.91-20.75,3.89.19c.16,0,.44.02.4.26-.03.24-.3.33-.49.38l-1.01,7.19,1.58-1.88Z"/><path class="cls-2" d="M21.33,75.82c.55,1.17,1.24,3.22,1.53,4.3-.61.21-2,.75-3.14,1.46-.41-1.53-.98-3.05-1.55-4.49l3.16-1.27ZM34.38,76.2c.25.07.42.14.39.35-.03.23-.36.26-.48.26-3.11,8.34-7.3,11.63-13,13.98-.21-.49-.74-1.64-1.83-2.65,6.25-2.33,9.66-5.52,11.7-13l3.21,1.06ZM26.2,74.74c.6,1.32.99,2.51,1.28,4.42-1.78.63-2.37.87-3.09,1.22-.27-1.2-.93-3.29-1.4-4.39l3.21-1.25Z"/><path class="cls-2" d="M53.83,72.98c.72,0,.9-.14,1.16-.33l2.12,1.69c-.79.99-1.04,1.46-1.92,3.12-2.47,4.72-4.23,7.4-7.15,9.71-.57.45-3.56,2.77-6.88,4.14-.57-1.39-1.3-2.26-2.2-3.1,3.7-1.32,6.66-3.45,7.97-4.7,1.47-1.41,3.66-4.3,4.73-7.14h-13.43l.47-3.38h15.12ZM59.94,71.38c-.17,1.22-1.28,2.21-2.49,2.21s-2.04-.99-1.87-2.21c.17-1.25,1.28-2.21,2.48-2.21s2.04.96,1.87,2.21ZM56.74,71.38c-.08.56.29,1.03.87,1.03s1.08-.47,1.16-1.03c.08-.59-.32-1.03-.87-1.03s-1.08.45-1.16,1.03Z"/><path class="cls-2" d="M72.56,76.11c.16,0,.41.02.38.28-.03.24-.35.35-.47.4-.46,2.58-1.24,5.22-2.19,7.03-1.26,2.42-3.85,5.38-6.78,6.96-.99-1.06-1.65-1.62-2.89-2.49,3.5-1.88,7.36-4.44,8.06-12.41l3.9.24ZM78.79,71.64c.16,0,.74,0,1.33-.21l2.23,2.4c-.28.33-.36.45-1,1.22-3.68,4.46-5.93,6.51-7.31,7.75-.68-1.08-1.28-1.76-2.3-2.58,2.17-1.81,3.35-2.94,5.03-5.03h-15.49l.5-3.55h17.01Z"/><path class="cls-2" d="M84.9,75.19l.49-3.53h11.83c.37,0,1.21-.05,1.62-.19l1.53,2c-.22.24-.63.73-1.09,1.5-1.13,1.97-2.34,3.95-3.75,5.76.87.75,4.6,4.32,6.04,6.44-.89.89-2.34,2.3-3.23,3.2-.69-1.2-2.25-3.95-5.29-6.7-2.6,2.7-6.66,5.73-9.87,7.03-.67-1.48-1.07-2.14-2.19-3.22,3.14-1.08,5.62-2.47,8.18-4.7,3-2.58,4.27-4.89,5.69-7.59h-9.98Z"/><path class="cls-2" d="M109.66,70.84c.28,0,.44.02.41.23-.03.24-.33.38-.5.45l-1.61,11.49h-3.87l1.72-12.29,3.85.12ZM120.32,70.42c.23,0,.43.05.41.24-.04.28-.33.4-.5.47l-1.07,7.66c-.36,2.56-1.16,5.15-2.87,7.26-1.54,1.9-4.46,4.44-7.77,5.43-.21-.96-.88-2.14-1.99-3.01,7.6-2.56,8.4-7.26,8.74-9.66l1.19-8.53,3.87.14Z"/><path class="cls-2" d="M143.65,78.85l-.56,4h-20.12l.56-4h20.12Z"/><path class="cls-2" d="M155.01,76.51c3.18,1.76,5.84,3.78,7.31,5.52-1.26,1.53-1.39,1.69-2.64,3.29-.66-.73-2.67-2.91-6.49-5.22l-1.54,11.02h-3.91l2.91-20.75,3.89.19c.16,0,.44.02.4.26-.03.24-.3.33-.49.38l-1.01,7.19,1.58-1.88Z"/><path class="cls-2" d="M177.59,70.75c.2.05.41.07.37.31-.04.26-.3.31-.46.33-.22.92-.25,1.13-.31,1.39,1.07,0,4.66-.07,6.37.14l-.49,3.5c-1.1-.09-3.09-.28-6.47-.21l-.36,2.58c.65-.05,3.28-.3,6.03-1.1l-.49,3.5c-1.96.42-3.93.61-5.89.78-.14,1.01-.16,1.1-.25,2.09,2.84.4,6.53,2.44,7.3,3.1-.84.73-1.33,1.25-2.98,2.94-1-.99-2.92-2.33-4.54-2.96-.12,1.22-.35,3.99-5.42,3.99-3.59,0-5.97-1.67-5.67-3.81.38-2.68,3.85-3.83,7.7-3.76q.08-.54.17-1.39c-2.3.05-6.5.12-6.17-2.21.12-.82.64-1.58,2.02-2.84l2.46.59c-.5.56-.58.63-.6.8-.04.26-.09.66,2.63.54.06-.42.3-2.33.36-2.7-2.86.12-5.41.45-7.37.71l.52-3.71c1.15-.12,6.25-.35,7.3-.42.12-.89.25-1.81.31-2.89l3.93.73ZM170.63,86.26c-.12,0-2.34,0-2.47.96-.11.78,1.16.85,1.55.85,1.13,0,1.89-.42,1.93-1.72-.23-.05-.54-.09-1.01-.09Z"/><path class="cls-2" d="M206.64,74.32c-5.71-.09-11.39,5.12-11.92,8.93-.38,2.73,2.83,4.06,5.97,4.13-.65.99-1.76,2.99-2.33,4.28-1.8-.52-8.18-2.4-7.4-8.01.61-4.35,4.36-7.47,5.39-8.08-4.59.38-7.47.96-9.79,1.48l.09-4.42c3.54,0,5.56,0,10.38-.54,3.41-.38,7.25-1.01,9.52-1.72l.1,3.95ZM202.33,77.66c.61.61,1.44,1.79,1.8,2.51-.71.47-1.07.73-1.98,1.41-.7-1.29-.89-1.6-1.69-2.66l1.87-1.27ZM204.99,75.99c.57.59,1.35,1.74,1.71,2.47-.64.45-1.08.8-1.89,1.46-.68-1.29-.89-1.6-1.69-2.66l1.87-1.27Z"/><path class="cls-2" d="M208.94,91.12c-.85-1.22-2.1-2.68-4.13-4.04l2.6-2.51c2.2,1.46,3.83,3.2,4.52,3.95l-2.98,2.61Z"/></g></svg>