<?xml version="1.0" encoding="UTF-8"?><svg id="_レイヤー_2" xmlns="http://www.w3.org/2000/svg" viewBox="0 0 151.93 53.32"><defs><style>.cls-1{fill:#000;}.cls-1,.cls-2{stroke-width:0px;}.cls-2{fill:#d91a17;}</style></defs><g id="_レイヤー_1-2"><path class="cls-2" d="M72,.36c.52.11.86.15,1.38.34v.06c-.15,0-.28-.03-.41-.06v.08s.08.01.08.01c.06.03,0,.08-.03.1l-.02.02c-.4-.12-.91-.11-1.31-.15l-.07.06c.3.01.66.04.97.09v.08s-1.14-.02-1.2-.04c.13.03.29.03.44.04-.3.02-.58.01-.86.02-.58,0-1.2.08-1.78.13-.45.04-1.65.29-1.98.2l-.06-.05c.32-.03,2-.22,2.22-.28-.35.03-.77-.03-1.11.05-.35.08-.8.14-1.15.17l-.02.02h-.06s-.02-.01-.02-.01c-.2.05-.45.04-.65.11-.38-.02-.83.15-1.23.18l-.05.04c.26-.02.52-.06.78-.1.07-.08.41-.07.5-.08.22-.02.45-.06.67-.08.07,0,.04.05,0,.08-.29.12-.77-.01-1.04.12l-.04-.02s-.04,0-.04.02c-.08-.01-.55.18-.77.2h.06c-.27.11-.54.12-.81.18l.5.39c.22.19.37.36.32.67-.04.23-.17.41-.19.66-.02.38-.63,1.52-.8,1.95v.02c-.11.25-.85,2.23-.86,2.37-.1.18-.12.39-.2.56.58-.05,1.53-.16,2.07,0-.02,0-.06,0-.04.02.13-.01.26,0,.4.02,0,.02.06.01.04.03h-.15c.19.02.34.06.51.08v.08s-.12,0-.12,0v.06s.04,0,.04,0v.08s-.56,0-.56,0l-.03.06c.11,0,.21,0,.32,0l-.02.02v.06s-.39.03-.39.03h.09c-.17.02-.36,0-.53.02-.39.01-.79.18-1.19.21l-.04-.03h-.02s-.02-.04-.02-.04c.21-.02.42-.09.65-.11-.07,0-.13,0-.21-.02-.11.05-.56.1-.71.12l-.02.02c-.11.03-.19.02-.3.04l-.02.04c.15,0,.37-.07.54-.08l.02.06s-.43.05-.43.05c-.06,0-.09.03-.15.05-.04.15-.22.77-.31.85.02.07-.16.6-.19.71-.11.44-.33,1.04-.38,1.54-.08.85-.42,1.99-.33,2.81-.14.13-.07.34-.26.49-.11.08-.24.06-.35.12-.09.06-.1.16-.21.22l-.06-.03.03-.3.04.04c.02-.17.03-.36.09-.53-.05-.17.07-.34,0-.51-.08.21-.12.37-.08.61,0,.08-.04.13-.12.18,0,.15-.03.3-.06.46-.04-.05-.08-.11-.14-.14l-.07.06c-.21-.04-.38-.02-.47-.26-.1-.26.13-1.85.18-2.18l.03-.04c.11-.48.3-1.36.26-1.85.03-.06.05-.14.06-.21l-.03.04c0-.15.05-.31.09-.46-.04-.26.07-.93.25-1.13l.04-.19-.03.04c-.09.03-.27.1-.37.11l-.6.05v.02c-.05.02-.13.01-.18.03,0,.07.25.03.3.03.04-.02.07-.04.08.01.03.07-.29.1-.33.1-.37.07-.76.08-1.14.06,0-.08,0-.6.02-.66.01-.04.03-.08.07-.04.28-.02.55-.21.83-.22.39-.01,1.18-.25,1.59-.36.07-.7.72-2.39.95-3.03.41-1.14.73-2.32,1.24-3.42v-.11c-.12.01-.31,0-.39.13-.16.05-.36.14-.53.21-.07.06-.32.23-.42.22l-.09.05-.05.06c-.05.02-.22.09-.23.13l-.07.06c-.11.03-.22.09-.31.16l-.04-.04h-.09s-.05.05-.05.05l.03.09c-.09.04-.12.08-.19.17-.06,0-.53.44-.56.5-.03.06-.04.14-.1.18-.01.08-.69.77-.66.94-.21.24-.25.85-.38.92-.11.48-.11,1.01.27,1.39.1.11.61.36.3.48-.16.07-.33-.12-.48-.15-.26.32-.83-.76-.87-.98-.1-.75-.13-1.38.16-2.1.38-.93,1.04-1.59,1.77-2.24.3-.25.68-.41.94-.72.04,0,.07-.04.11-.06.09,0,.73-.32.85-.39l.03-.04c.07-.02.38-.13.4-.17l.18-.07c.06.03.23.04.13-.05l.09-.03h.09c.07-.05.14-.08.24-.1h.06s.05-.05.05-.05c.06,0,.13-.03.18-.05h.06s.03-.03.03-.03l.48-.12c.04.05.12.1.13-.01.15-.05.77-.03.82-.11.15-.01.32-.04.47-.06l.06.03.09-.03c.11-.08.31-.12.44-.09l.04-.02c.06,0,2.41-.26,2.46-.28.08.12.19.08.32-.03.08.01.12.08.14.14.04-.02.19-.19.23-.17.17.06.38-.01.44.04.48.11,1.06.03,1.57.08l.02.02h-.08s-.04.03-.04.03h-.02s-.02.04-.02.04h-.06s0,.02,0,.02c.35-.05.93.09,1.29.19-.21-.04-.44-.04-.64-.06ZM58.59,5.68c-.1.1-.14.14-.02.25.1-.12.11-.44.16-.6.23-.81.94-1.64,1.55-2.18l.07-.02.04.07-.1.12c-.13,0-.23,0-.23.15l-.02.02c-.09.03-.12.14-.15.22-.12-.05-.14.07-.19.15-.04.02-.34.44-.37.5-.09.06-.06.15-.07.25-.07.04-.1.16-.19.17l-.03.08c0,.06.03.11.07.14,0,.06-.03.12-.09.1,0,.06-.01.09,0,.15.18-.05.2-.36.32-.44l.04.09s.09-.03.11-.07l-.1-.07v-.08s.07,0,.07,0l.02.04.02-.02.04.05c.12-.14.13-.24.12-.42.04.03.08.05.12.07.04-.02.05-.06.03-.1l.03-.06c.09.01.36-.37.43-.45.01-.04-.05-.09,0-.13l.12.03c.05-.12.15-.18.24-.26-.1-.27.06-.19.05-.12l.02.04h.06c.11-.09.11-.24,0-.3-.11.05-.09.03-.19,0l.05-.12.05-.02v-.13c.13-.09.21-.06.33-.2l.09-.08c.05-.02.09-.04.1-.1-.09,0-.38.2-.45.24-.54.33-2.07,1.85-2.02,2.43-.1.16-.17.45-.12.63ZM59.06,4.76h.02s0-.04,0-.04t-.02.04ZM59.18,5.28s-.04,0-.05.04h.08s-.02-.04-.02-.04ZM59.29,5.08l-.02-.02h-.04s.02.02.02.04l.04-.02ZM59.68,9.81v-.02c-.08,0-.17.01-.24.06l.21-.02.04-.02ZM59.75,9.69l-.02-.02-.05.02v.04s.08-.02.08-.02v-.02ZM59.83,4.15s0,.06-.01.08l-.04-.05.02-.04h.04ZM61.01,9.47l.04-.02v-.08c-.23.08-.91.23-1.12.24l-.04.02h-.06s-.04.03-.04.03c0,.02,0,.04.02.04.39-.03.79-.2,1.18-.23ZM59.84,4.23l-.02.02v-.02s.02,0,.02,0ZM60.15,9.75c-.09,0-.18.03-.24.02l-.04.02c.07,0,.19-.02.28-.04ZM60.13,14.59c.07-.29.19-.64.21-.9l-.08-.03c-.03.3-.08.63-.13.93ZM60.96,9.61s0-.04.02-.04c-.15.01-.32.05-.48.1.09-.03.19-.03.26-.02.07-.02.13-.03.2-.04ZM60.84,9.68s-.08,0-.11.03h.09s.02-.03.02-.03ZM60.75,2.93s.02,0,.04-.02v-.02s-.04.04-.04.04ZM60.94,3.42h-.02s-.16.16-.16.16c.07-.04.12-.1.17-.16ZM60.93,9.65s-.05.02-.09.03c.04.02.06.01.09-.03ZM60.94,2.97s-.04-.01-.08-.01c-.02.02,0,.06.02.07l.04.09c.08.01.11-.07.14-.11l-.12-.05.03-.04h-.02s-.04.02-.04.02v.02ZM61.08,3.3l-.14.12c.07-.03.11-.07.14-.12ZM61.8,9.54h-.06c-.36.9-.59,1.94-.8,2.87.02.04.05.13.05.17.12-.59.26-1.17.42-1.77,0-.06.18-.73.22-.81.07-.06.06-.16.11-.24,0-.07.04-.15.06-.23ZM61,11.13l.06.05c.05-.25.39-1.46.49-1.6h-.13c-.03.07-.07.13-.04.2-.02.42-.28.93-.38,1.35ZM61.47,3.06l-.21.13c.11,0,.15-.05.21-.13ZM61.97,2c-.08-.09-.58.26-.65.34v.02s.02-.02.02-.02c.05-.02.35-.1.32-.2.07-.06.22-.08.31-.14ZM61.48,9.49l.11-.03v-.04s-.08,0-.11.03v.04ZM61.64,9.33v-.04s.01-.04.01-.04c-.06,0-.09,0-.15.03v.08s.08-.03.14-.03ZM61.64,8.72h.15s.17-.51.17-.51c.03-.12.73-2.06.73-2.15.12-.35.3-.7.38-1.07l-.02-.04h-.04c-.05.05-.45,1.13-.51,1.29-.21.24-.34.86-.43,1.18-.07.08-.03.13-.11.22v.06s.01.09.01.09c-.26.23-.15.75-.3.87v.06ZM61.72,8.06l-.06.19c.03-.06.05-.14.06-.19ZM61.78,9.43h.04s.02-.02.02-.02t-.04-.01v.04ZM61.91,9.21h-.06s-.02.04-.02.04v.02s.04.02.04.02h.02s.01-.08.01-.08ZM62,7.13c.3-.66.67-1.48.84-2.16h-.02s-.03.04-.03.04c-.14.54-.59,1.48-.79,2.11ZM62.38,7.65c.16-.6.45-1.17.65-1.75.06-.16.22-.47.21-.64-.47,1.09-.91,2.24-1.23,3.39h.06c.12-.32.23-.68.31-1.01ZM66.14.81l.07-.04c-.13-.03-.91.09-1.08.13-1.11.22-1.71.44-2.77.87-.05.02-.2.09-.19.17,1.05-.52,2.81-1.02,3.97-1.12ZM63.27,4.06c-.05.12-.12.31-.21.41l-.03.1.04.02c.1-.16.18-.33.2-.52ZM63.09,4.86l.05-.04s.03-.1.03-.13c0-.02-.02-.02-.04-.02-.02.04-.04.17-.04.19ZM64.31,9.07s.08.01.11,0l-.04-.02h-.08ZM67.01.87l-.12-.07c-.11,0-.23,0-.34,0l.03-.06v-.06c-.12,0-.21.02-.32.03l-.03.04c.06.03.13.03.19.02v.11s-.03-.04-.03-.04c-.06-.01-.11,0-.17.03l-.03.08v.04s-.03.02-.03.02c0-.04-.03-.07-.06-.07l-.08-.09-.05.02.02.19c.08.01.13-.01.18-.05l.04.03h.15c.05-.05.13-.04.18-.07.08.05.15,0,.22-.02l.03-.08.03.07c.06,0,.09,0,.15,0v-.08s.05-.04.05-.04ZM66.66.73l.02.02s.04-.02,0-.06t-.02.04ZM66.74.72s.04.02.04,0t-.02-.02l-.02.02ZM66.81.71l.02.02.04-.02-.02-.04-.04.04ZM66.95.76v.02s.02,0,.02,0l.02-.02v-.04s-.04.04-.04.04ZM67.16.63s-.1-.03-.13,0l-.02.02.04.02s.08,0,.11-.03ZM67.35.88l-.08-.03.04-.02h-.06s-.04,0-.04,0h-.04s0-.05,0-.05c-.01.06-.03.1-.08.14.06.03.11.01.17.02l.09-.06ZM67.19.66h.06s-.02-.02-.04-.02l-.02.02ZM67.2.63l.04.02.07-.06c-.08-.03-.08,0-.11.05ZM67.3.69l-.04.02.06.03.02-.04-.04-.02ZM67.37.61h.06s.03-.04.01-.06h-.04s-.05.04-.05.04l.02.02ZM67.49.75h-.06s-.03.14-.03.14h.06s.03-.14.03-.14ZM67.47.64h.02s-.02-.02-.02-.02v.02ZM67.67.81v-.08s.05-.04.05-.04c-.06-.02-.08-.01-.11.03l-.04-.02v.06s-.03.08-.03.08l.04.05.07-.03h.06s-.02-.04-.04-.06ZM67.76.77l.02-.02h-.06s-.03.03-.01.04l.05-.02ZM70.32.33c-.16-.08-1.91.08-1.99.09-.04,0-.09.03-.13.03-.12-.03-.24.02-.35.07-.06-.05-.1-.05-.13.03.06.03,1.53-.11,1.91-.14h.04s0,.07,0,.07h-.09c-.06-.02-.1-.08-.17,0h-.02c-.06-.03-.09,0-.15.03l-.1-.03h-.15c-.05.05-.09.04-.15.02l-.11.03c-.06-.01-.11,0-.15.05h-.09s-.06-.04-.06-.04c-.04.02-.09.06-.1.1h-.06s-.02-.03-.02-.03l-.07.04c.06.09.24,0,.32.05l-.02.04.02.04h.04s.01-.08.01-.08l.04-.02.02.04-.02.02h.02s-.02.04-.02.04c.09.01.19-.02.25-.1l.03.07.11-.05.06.03c.11,0,.21-.02.32-.04l.05-.04.06.05c.05-.04.13-.03.2-.04l.02-.04.05-.04s-.01.08.03.09l.11-.05v-.1s-.09-.05-.09-.05v-.02s.05-.04.05-.04h.04s.05-.06.05-.06c.08.01.15,0,.23,0,.06,0,.11,0,.15-.03ZM67.75.69h.02s0-.04-.02-.06v.04s0,.02,0,.02ZM68.01.8l-.04-.02h-.07s-.02-.03-.02-.03l-.04-.02-.02.02v.04s-.07,0-.07,0l.02.04s.08.03.11,0c.03-.04.07-.04.13-.05ZM67.9.68v-.02s-.02,0-.02,0v.02s.02,0,.02,0ZM68.21.75l-.04-.02v-.04s-.04-.05-.04-.05h-.11s-.03.03-.03.03h.09s0,.03,0,.03c0,.02.04.03.04.05h-.02s-.03.04-.03.04l.02.02h.06s-.02-.06-.02-.06l.05-.02.02.05.02-.04ZM67.99.62h.02s0-.02,0-.02h-.02s0,.02,0,.02ZM68.04.74l-.02-.02v.02s.02,0,.02,0ZM68.18.81h-.02s.02.02.02.02v-.02ZM68.34.74v.02s.02,0,.02,0t-.02-.02ZM69.03.68s-.02,0-.04.02v-.04s.03,0,.03,0v.02ZM72.64.42h.04s-.04,0-.04,0Z"/><path class="cls-2" d="M72.52,3.27s.02-.02.02-.04l.72-.85c.15-.18.42-.36.62-.5,1.1-.82,2.15-1.78,3.6-1.28h.02c.14.08.24.11.37.14v.02c.33.14.68.28,1.02.44l.12.33c.02.05.2.08.26.18.13.22.02.98-.11,1.18-.11.54-.36,1.08-.54,1.61-.09.05-.34.84-.35.97-.06.14-.12.31-.17.45-.03.04-.17.47-.16.52-.2.6-.41,1.24-.56,1.85l.02.04c-.03.06-.04.13-.06.19l-.05.1c.58-.09,1.22-.08,1.8-.13,0,0-.02.02,0,.02.13-.07.35-.07.48-.08l.04.02c-.08,0-.15.03-.2.05.19-.03.5-.12.67-.09l.02.05c-.06,0-.09,0-.15.03v.05s.06-.02.08-.03v.08c-.23.06-.45.13-.69.17v.06c.12-.03.26-.06.39-.11v.06c-.14.07-.3.14-.45.15.02,0,.06,0,.07-.03-.74.19-1.51.35-2.26.41l.02.03-.04.14-.03.04v.04c-.04.13-.07.27-.12.39h-.06s0,.06.02.08c-.04.16-.26.51-.25.6l.02.04c-.07.12-.09.23-.12.35l-.05.04v.08s.01.05.01.05c-.01.1-.04.23-.09.31v.06c-.08.29-.57,1.72-.59,1.97-.11.03-.14.14-.07.25-.03.06-.11.08-.16.07.02.07.11.18.06.24-.07.08-.11.29-.16.31-.08.14-.15.29-.19.45-.09.03-.14.14-.17.24-.12-.03-.31-.05-.41-.13-.1-.11-.04-.24-.18-.33-.05.57-.8.1-.88-.21-.05-.2.17-.84.04-1.09,0-.02,0-.04.02-.04l.04-.14c-.01-.13.04-.27.03-.38.02-.04.03-.1.03-.13.03-.06.04-.14.06-.19l.04-.02-.02-.04v-.06s.05-.04.05-.04c.02-.04.01-.09,0-.13l.02-.02v-.04s.03-.1.03-.1l.02-.02c0-.09.04-.19.05-.29h.06s-.02-.06-.02-.06l.04-.15h.02c.12-.16.16-.56.24-.77v-.06s.03-.02.03-.02c-.01-.17.03-.59.1-.78l-.02.04c.02-.17.08-.34.15-.52l-.97-.09h.02s-.1-.03-.13-.03l.04.02h-.08s-.02-.03-.02-.03c-.35.08-2.49-.49-3-.58-.89,1.8-1.35,3.74-2.08,5.59v-.02s.01-.04.01-.04c.02-.02,0-.04-.02-.02-.04.19-.08.38-.14.58v.04s-.01.02-.01.02l-.03.1s-.05.1-.05.12c-.02.02,0,.06,0,.07h-.02s-.01.06-.01.06h-.02s-.03.08-.05.12v.04s.03.04.03.04c-.01.08-.05.12-.06.19l-.05.04v.06s-.01,0-.01,0c-.07.12-.12.35-.15.48h-.09s.02-.22.02-.22c-.14.16-.32,0-.25-.04-.02,0-.04,0-.04-.02-.01.08-.11.33-.2.15-.07-.11.02-.27,0-.38h-.02c-.15-.04.03-1.47.09-1.68.12-.4.25-1.06.31-1.47.06-.42.83-2.44,1.04-2.89v-.04s.14-.28.14-.31c.03-.04.05-.1.06-.14l.05-.02v-.08s.03-.08.06-.1c.01-.08.04-.13.08-.19l.04-.02v-.06s.04-.08.04-.08c-.85-.08-1.65.08-2.45.43.05-.02.09-.1.1-.16h.02s.02.07.02.07l.09-.03.03-.04c.07-.03.07-.04.03-.11l.02-.02h.08s.03.08.03.08l.05-.02c.05-.1-.03-.11-.07-.16.06,0,.09,0,.15,0l.07-.08h.04s.04.01.04.01c.04,0,.07,0,.11-.03l.07-.06c.13-.03.22-.06.35-.07.02.07.1.05.15.04-.04,0-.04-.03-.06-.05l.05-.06c.13-.01.79,0,.92,0l.06.07s.11,0,.11,0l-.04-.03v-.09c-.1-.01-.2-.02-.28-.07-.05.04-1.02.16-1.16.13l-.04-.05h-.08c-.05.07-.12.07-.2.1-.06-.03-.12-.05-.17,0-.11.03-.35.1-.44.17-.06,0-.09.06-.1.1-.18.07-.34.22-.5.36h.06s.07-.05.07-.05h.06s-.12.1-.12.1l.05.11.09-.03v.08c-.07.02-.1.04-.14.09l-.06-.07-.03.04.06.05c-.07.04-.12.1-.17.16-.2.09-.53.89-.57,1.12-.07.08-.07.5,0,.6,0,.07.05.13.11.18v.08s-.06.08-.06.08c-.08-.01-.14-.04-.18-.1-.71-.39-.03-2.39.47-2.73,1.14-.81,2.47-1.07,3.85-.98.05-.06.16-.16.13-.26.05-.08.12-.16.15-.26l.12-.14v-.06c.45-.92,1.54-2.52,2.15-3.34v.04c.05-.06.1-.14.17-.22l-.05.04.08-.12c.06.01.09-.03.11-.08l.15-.2c-.07.06-.1.12-.16.18ZM66,9.27l.07-.04.08.05v-.08c-.14-.06-.16-.08-.21.07-.06-.07-.14-.08-.21-.1-.04.02-.03.08,0,.11l.13.04c-.06,0-.09,0-.15.03l.06.09s-.07.03-.09,0v.08c.03.06.07.09.11.12h.06s-.04-.08-.04-.08c.06.01.11,0,.13-.07.05-.06.12-.1.15-.18l-.08-.07ZM67.38,8.66s-.04-.05-.06-.05l-.05.08.11-.03ZM68.38,11.42l-.02-.02v-.08s.03-.04.03-.04l-.04-.09c.05-.1.1-.18.11-.27h.02c0-.06,0-.13.04-.19-.28.19-1.04,2.94-1.02,3.13-.05.06-.1.1-.02.17,0,0,.61-2.01.76-2.43l.03-.04h.06s-.05.15-.05.15c-.13.07-.1.1-.09.21-.05.06-.05.12-.04.19-.05.02-.07.06-.07.12-.03.06-.17.49-.16.54-.05.06-.03.12-.02.19-.01.06-.04.13-.1.18,0,.04-.02.04-.01.06l.05.11-.03.08h-.02s.01.13.01.13c.11-.07.12-.31.19-.41v.02s.03-.08.03-.08v-.06s.01,0,.01,0v-.06c.12-.48.21-1.07.36-1.52ZM67.68,15.25s-.05.06-.05.08v.04s.02.02.02.02l.03-.13ZM67.69,15.17s-.08-.01-.02.02t0,.04v-.06ZM67.82,8.53c-.02-.07-.07-.11-.14-.08.02.06.08.09.14.08ZM67.75,14.73c.03-.1.08-.21.07-.3-.05.12-.06.21-.07.3ZM68.54,11.35l-.04-.02c-.04.21-.16.39-.18.6.05-.1.1-.38.15-.43.01-.06.03-.12.06-.16ZM68.6,11.2h-.06s-.01.06-.01.06h.02s.02.02.02.02c0-.02.01-.06.03-.08ZM68.8,10.11c-.07.04-.19.41-.22.51h.02s.04-.14.08-.16l.03-.1v-.02c.03-.08.08-.16.09-.23ZM69.09,9.56l-.06-.03-.09.23.04-.02.03-.06h.02s.07-.12.07-.12ZM69.15,9.38l.03-.06-.03.06ZM69.2,9.29c.03-.06.06-.12.08-.18-.01.06-.05.12-.08.18ZM69.31,9.05l.24-.49-.04-.02c-.04.17-.12.33-.2.51ZM71.27,8.66c-.06-.05-.14-.1-.2-.17l-.48-.09-.05.12c.25.04.48.09.73.15ZM70.64,6.68h.06s.1-.18.1-.18c-.09.04-.11.08-.15.18ZM76.09,4.8c0-.06-.01-.13,0-.19-.04-.09.38-.92.36-1.12.18-.28.18-.52.23-.6l.04-.04c0-.13.01-.28.16-.33.17-.43.34-.86.47-1.32l-.07.08c.03-.11.03-.3-.05-.37-.19.02-.28.04-.46.11l-.02.02c-.27.1-.54.27-.77.46v.02c-.27.12-.46.3-.71.47-2.02,1.48-3.32,3.59-4.39,5.84.54.12,3.58.76,3.97.69,0-.15.05-.53.21-.6.01-.08.04-.14.04-.21.08-.18.1-.35.2-.53-.03-.07,0-.17.04-.25-.01-.13.08-.18.13-.27v-.07c.03-.06.02-.12.07-.16l.03-.1s.12-.31.14-.41h.09s.07-.03.07-.03h.02s.01-.08.01-.08c-.02-.04-.08-.07-.12-.07.05-.06.08-.14.06-.21l.02-.04c.05-.02.23-.6.22-.7ZM71,6.07l.02.04.05-.08v-.04s-.04.04-.03.08h-.04ZM71.19,5.81s.07-.06.1-.1h-.04s-.07.07-.07.07v.04ZM71.29,5.69c.09-.08.32-.5.4-.64h-.02c-.03.06-.25.4-.3.42l-.02.04v.06s-.03.04-.03.04h-.02s-.01.08-.01.08ZM71.89,4.68c-.21.24-.41.49-.56.78.21-.24.37-.52.56-.78ZM71.56,4.78h.06s.03-.1.03-.12l-.08.12ZM72.27,3.69c-.2.26-.35.54-.52.81l.05-.04c.01-.06.03-.12.1-.12.18-.56,1.57-1.9,1.99-2.29.12-.1.69-.55.76-.65h-.04c-.45.21-2.03,1.87-2.35,2.29ZM72,8.79l-.1-.03v.02s.08.03.08.03l.02-.02ZM72.55,8.89l-.34-.07-.02-.02-.04.04h.02c.08.03.15.04.23.05.02.02.08.01.1.03l.05-.04ZM72.19,4.07l.1-.14-.1.14ZM72.69,3.45c-.03.06-.24.3-.28.3l-.05.06v.08c.12-.16.26-.3.42-.45h.02s-.05.04-.05.08v.02c.17-.2.97-1.02,1.07-1.2.22-.08.69-.7.95-.78l.05-.06v-.04s-.04,0-.04,0c-.61.35-1.69,1.4-2.09,1.98ZM72.52,3.27v.02s0-.02,0-.02ZM72.97,8.95c-.12-.05-.23-.02-.32-.05l.06.03c.08.01.17-.01.27.02ZM72.68,3.09c.07-.02.19-.17.23-.23-.05.02-.17.17-.23.23ZM73.29,9.19h-.11s.02,0,.02,0l.1.03s.02-.04,0-.04ZM73.45,9.22s-.07,0-.11-.01c.04.04.06.03.11.01ZM74.63,9.14l-.08-.05c-.15-.02-.59-.05-.66,0,.16.08.3,0,.38.06.11,0,.25,0,.36-.01ZM74.03,9.24s-.06-.01-.08-.01c.02.02.04.02.08.01ZM74.16,14.26s-.02-.02-.04-.02l-.03.02c0,.06.03.09.07.13,0-.04,0-.09,0-.13ZM74.21,14.16l-.05-.11-.03.12s.02.02.04.02l.04-.02ZM74.41,9.25c-.06,0-.11,0-.17,0,.06.01.11,0,.17,0ZM74.32,14.11s.03-.06.03-.12l-.03.12ZM74.35,14l.06.03-.03.1c.07-.02.15-.05.08-.14.04-.04,0-.11-.01-.15.04,0,.05-.04.05-.08.02-.04.05-.29.08-.37.03-.04,0-.11-.03-.15,0,.07,0,.11-.06.21.02.06.04.09,0,.15-.02.04-.01.08,0,.11-.03.06-.05.14-.04.19h-.06s-.02.04-.02.04h-.02s0,.04,0,.04ZM74.91,12.54c-.09.04-.26.92-.28,1l-.17.67-.02.02h-.08s0-.03,0-.03c-.02.04-.01.1,0,.13l.04.07-.04.02.08.07c-.05.08-.04.14-.06.21.11-.44.51-1.6.46-1.73l.05-.08c.01-.08.04-.17,0-.24.09-.04.09-.06,0-.11ZM74.36,13.9s.05-.1.04-.15l-.04.15ZM74.55,13.25l.05-.08h.02s.02,0,.02,0c.04.04.01-.08.01-.08l-.06-.07v.06s-.05.04-.05.06v.11ZM74.58,12.96h.04s0-.06-.02-.08c0,.02-.01.06-.01.08ZM74.6,9.25s.02.02.04.01c.02.02.04,0,.02-.02h-.06ZM74.61,12.83h.02s.07-.08.07-.08l-.04-.05-.03.04v.1ZM74.62,13.17l.04-.02s-.04,0-.04.02ZM74.73,12.46s.02-.04,0-.07v.07ZM74.94,11.11c.05-.02,0-.04-.02-.04,0,.11-.08.38-.13.48v.04c.05-.08.16-.43.15-.48ZM74.8,12.12h.04s.06,0,.06,0l-.04-.03-.05.04ZM75.21,11.23l-.02-.03c-.07.02-.11.08-.12.14l-.1-.05c-.03.1-.06.21-.07.31l.02-.02-.03.12s.05-.1.06-.16c0-.04.01-.08.05-.1l.04.05.08.03c.07-.08.08-.19.09-.29ZM75.03,10.87h-.04s-.06.16-.06.16l.04-.02.06-.14ZM75.02,12.27l-.04-.07h-.02s-.01.08-.01.08l.06.03.02-.04ZM75,1.37l.12-.1s0-.04-.02-.02c-.04.04-.11.08-.16.13h.06ZM75.02,12.08h-.04s-.02,0-.02,0l.05.09s.03-.06.01-.09ZM75.02,11.14s-.04-.02-.04,0c-.02.04-.01.1,0,.13l.04.02s.03-.1,0-.15ZM74.99,11.7l.02.04h.04s-.04-.04-.06-.04ZM75.06,11.92l-.02-.02h-.04s-.01.08,0,.12c.04-.02.07-.06.07-.1ZM75.07,10.89l-.03.08h.08s0-.06,0-.06h-.04ZM75.11,1.12l.02.02c.15-.07.27-.16.41-.24-.08-.01-.36.18-.43.22ZM75.76,9.4c-.06,0-.09-.01-.15,0l-.12.37v.09c-.11.35-.2.71-.26,1.08-.03.04-.05.12-.06.17l.02.05.05-.04c.12-.42.49-1.4.52-1.72ZM75.83,5.99c-.09.08-.09.1-.08.21.01-.08.05-.13.08-.21ZM76.22,7.52c-.13.31-.25.62-.35.95h.15c.04-.15.29-.88.21-.95ZM75.91,5.81l.06-.19c-.07.06-.07.1-.06.19ZM76.17,6.04c.11,0,.13,0,.24-.04-.06-.05-.14-.08-.2-.12-.09.03-.07.08-.04.15ZM76.84,6.08c.11-.08.21-.7.23-.83-.05-.17.38-.82.39-1.01,0-.24.09-.46.19-.69l.14-.37c0-.06,0-.11-.03-.17l.11-.08v-.02s-.06-.07-.1-.1c-.14.11-.74,2.62-.93,2.84l-.12-.05s0-.11.03-.15c.13-.03.24-.08.13-.22v-.02c.07-.06.04-.17,0-.24.15-.01.12-.09.13-.2,0,0,.15-.48.16-.54.07-.08,0-.17-.02-.24l.07-.12.09-.04s-.02.02-.02.04l.04-.02-.02-.02v-.08c-.06-.15-.24-.13-.03-.24l-.05-.15c-.22.07-.19.37-.28.44-.06-.07-.1-.12-.19-.04v.06s.2.04.17.12l-.05.02-.04-.05-.02.02-.08-.03c-.1.16-.05.3.07.43-.06-.02-.13-.03-.19-.02-.08.1.12.1.01.17l.1.05v.04s-.06-.01-.06-.01l-.04-.07c-.13-.03-.17.43-.2.54.02.05.12.07.09.14h-.13c.03.12-.04.22-.07.34.02.02.18.12.14.16-.05.04-.1-.05-.16-.06l-.07.03c-.02.19.09.24.25.28.05-.06.12-.08.2-.09l.05.13-.04.04.1.11c-.05.1-.13.2-.12.31v.11s-.04.1-.02.13l.05-.06v-.06s.03,0,.03,0l.08-.18h-.04c.03-.06.06-.13.06-.21l.02-.04ZM76.55,6.74l-.02-.02v.02s-.1.14-.1.14c-.01.06-.1.14,0,.19-.01.06-.05.08-.08.12l-.04.15c.15,0,.22-.49.25-.6ZM76.96,3.3s.02.04.04.05l.05-.04h-.1ZM78.12,9.11c-.19.01-.39.07-.58.03-.13.05-.28.04-.43.05v.04c.06,0,.92-.08,1.01-.12ZM77.29,1.3s-.02.04-.02.04c0,0,0-.02.02-.04ZM77.52,5.23c-.08.19-.1.37-.14.54l.13-.44s0-.06.01-.09ZM79.59,8.44v-.02s.02.02.02.02h-.02Z"/><path class="cls-2" d="M92.63,15.16h.02s-.05.1-.04.15c-.2.05-.48.15-.66.26l-.04-.02s-.04-.05-.08-.05c-.18.15-2.02-.1-2.35-.16-.07.04-.1.1-.06.17.06,0,.11,0,.15.04.04.02.07-.04.09-.08.02.03.04.05.05.09l.07-.04.04.04c.46.11.96.22,1.45.18-.71.1-1.44.14-2.12-.13-.21-.08-.44-.08-.65-.13-.52-.11-1.51-.48-2.03-.68-.74-.28-1.15-.66-1.99-.87-1.11-.26-2.01.05-3.01.49l-.52.29-.02.04-.05.04.02.05-.03.08c-.07.04-.15.03-.22.04l-.03.04c-.11,0-.21.02-.32,0l-.06-.09.03-.27-.1-.12-.02.02c-.01-.17-.07-.2,0-.38.26-.68,1.94-1.36,2.61-1.46-.02-.04-.04-.07-.03-.11l-.08-.05s-.04.02-.06,0c-.09.1-.44-.12-.52-.18-.34-.27-.65-.57-.97-.86-.22-.21-.53-.95-.75-1.1,0-.06,0-.11-.03-.15-.06-.07-.09-.16-.13-.25l-.02-.02c-.03-.09-.05-.18-.1-.27l.03-.04h-.06s0-.05,0-.05l.02-.04s-.04-.07-.07-.11l.02-.02-.04-.03v-.11s-.03-.02-.03-.02c0-.07-.03-.13-.04-.2l.04-.04-.04-.02c-.07-.16.03-.29-.01-.38l-.02-.02-.02-.21.02-.02v-.06s-.04-.02-.04-.02c-.02-.04-.03-.09-.03-.13l.02-.04s-.02-.02-.02-.04c0-.34-.02-.68,0-1.02.02-.04.03-.08,0-.11.11-.03.05-.08,0-.13.02-.04.07-.06.11-.06l-.08-.11.07-.1s-.04-.07.01-.1c.08-.21.13-.46.21-.67h-.02s.01-.08.01-.08l.03-.04c0-.08.03-.13.02-.21v-.04c0-.08.04-.13.04-.21.02-.02.07-.06.01-.06l.12-.37.05-.02c-.04-.28.3-.49.26-.66.05-.08.1-.2.13-.27.05-.04.09-.08.12-.14v-.06c.04-.1.09-.2.16-.28,0-.02.02-.02.01-.04.27-.36.54-.78.85-1.09.12-.12.34-.27.42-.39.11,0,.15-.07.19-.17.04-.02.09-.03.13,0,.03-.06.04-.17.1-.2.09-.03.27-.17.31-.16.25-.1,1.7-1.01,1.88-.95.61-.18,1.63-.51,2.21-.13h.02c.18.08.35.37.48.52h.06c-.09-.15-.19-.29-.32-.41l.02-.04.04.02.02.03c.1.05.33.35.38.46-.03-.09-.07-.17-.13-.23.26.22.55.99.58,1.34l.02.02c.02.19.02.47.07.63-.03.12.02.24,0,.36-.02.02-.03.04-.03.06l-.04.02c-.03-.34.04-.83-.1-1.16.01.15.08,1.18.06,1.22l-.02.02c0,.11-.02.23,0,.34,0-.11.05-.25.06-.36l.04.02c0,.09,0,.21-.03.3,0,.04-.07.7-.07.7l.02-.02c-.02.17-.09.33-.15.48-.04.13-.09.44-.14.52-.05.06-.14.12-.13.22-.02.02-.15.24-.15.26l-.04.02-.03.1-.04.04c-.01.06-.07.1-.12.14v.02s.25.11.25.11l.04-.02v-.02s.02.02.02.02h.06s.19.04.21.03l.02-.02c.14.06.27.05.4.1.04.03.08.09.14.1l.05.13c-.08-.05-.24-.11-.33-.14.06.05.14.12.19.19h.02s-.1-.12-.1-.12l.12.14.14.05s-.01.06-.01.08l.04.02s0-.04.02-.02c.07.22.15.42.26.62v.02s-.04,0-.04,0c.1.27.26,1.33.16,1.53h-.02c.15,1.78-.84,3.06-2.14,4.15-.3.25-.64.47-1,.61.18.1,1.62.73,1.77.76.08.09.25.07.37.16.56.41,1.41.43,2.06.6.08.07.23.02.35.08h.11c.08.04.3-.01.42.01.23.28,1.24,0,1.62,0l-.03.06ZM80.01,7.54c.03-.08.07-.72.04-.85-.03.04-.08.57-.06.65l-.02.02s-.01.09.03.13q-.05.04,0,.06ZM80.05,8.2l.02.02.03-.08h.06s-.02.01-.02.01l.02.06.04.03c-.04-.09-.04-.22-.05-.33-.02.02-.03.04-.03.06v.06s-.01.04-.01.04h-.04s-.04-.01-.04-.01c-.02.04-.01.1.01.15ZM80.56,10.02c-.23-.53-.42-1.19-.47-1.77l-.02-.02-.02.04c0,.26.27,1.69.5,1.75ZM80.8,4.39l-.23.66s-.02.04-.03.06c.07-.03.05-.1.08-.16.07-.12.58-1.2.59-1.27l-.05.04c-.08.21-.28.44-.36.67ZM80.7,10.4v-.09c-.07-.03-.09-.12-.12-.2-.05.02.08.26.12.29ZM81.85,12.04c-.19-.29-.58-.59-.71-.92-.03-.07-.07-.16-.13-.21v-.06s-.07-.09-.09-.14h-.06s-.03-.09-.03-.09l-.04-.05-.08-.09c0,.17.71,1.3.86,1.34h-.02c.06.07.11.16.22.17-.01.1,0,.09.08.05ZM80.9,9.45l.04.02-.02.02h.06s0-.04,0-.04l-.04-.04-.05.02s0,.04.02.02ZM81.27,3.83h-.08s-.02.05-.02.05l.04.03.05-.08ZM81.51,3.39l.03-.06v-.02s-.04.02-.04.02l-.1.14-.04-.07c-.07.06-.12.16-.15.26.04-.02.07-.06.1-.1l.04.03c.05-.06.08-.18.15-.2ZM81.34,3.59s-.05.08-.05.12c0,0,.08-.12.05-.12ZM81.79,5.1c.05-.1.1-.2.11-.31-.03.06-.11.24-.11.31ZM81.86,3.53l.06.03s.03-.08.05-.12h-.06s0,0,0,0l-.05.08ZM81.89,2.7c.16-.14.81-.86.94-.91.04-.02.07-.04.11-.08-.32.23-.92.64-.98.91-.06,0-.09.03-.07.08ZM83.25,13.05l-.1-.05s-.09-.01-.13,0c-.26.08-.95.15-1.12.36.39-.03.88-.26,1.35-.3ZM82.01,3.24h-.04s-.05.1-.05.1c.04-.02.05-.06.08-.1ZM81.97,3.45l.04-.02c.03-.06.08-.18.13-.22v-.06s-.09.16-.09.16c-.04,0-.05.02-.09.04h-.04s.02.04.02.04l.04.02-.02.04ZM83.81,12.52c.32.05,1.62-.42,1.79-.64h.02c.09-.08.29-.08.38-.2.07-.03.14-.09.22-.11h.06s0-.04,0-.04l.04-.02.04.02.07-.08h.04s.02-.02.02-.02l.07-.04s.04,0,.02-.02c.07-.03.13-.07.18-.11v.02c1.23-1.08,1.75-1.88,1.62-3.62l-.04-.03s.03-.06.03-.1c-.02-.04-.06-.05-.03-.09.01-.1-.02-.19-.06-.28h-.07c-.16-.36-.47-.93-.97-.74l.04-.21s-.05.06-.09.08l-.04-.02s-.06,0-.07.02l.02.07-.1.1c-.06,0-.6.44-.9.54-.07.02-.19.02-.24.08-.13-.03-.57.14-.63.05-.36-.06-.95-.09-1.17-.45-.04-.07-.03-.13.06-.14.06.01.12.05.18.08l.02.02s.05-.1.17-.05c.74.05,1.37-.26,1.96-.65.09-.06.17-.2.26-.27.05-.1.1-.16.13-.25.09-.1.19-.2.24-.34v-.02c.03-.08.07-.23.17-.26l-.02-.04.02-.04.04-.02v-.1s.05-.02.05-.02l-.02-.04.03-.08s.04-.02.01-.04l.08-.2h.04s-.02-.06-.02-.06l.03-.12h.02c.06-.12.07-.1.07-.23.02-.04.06-.16.04-.19l.04-.02v-.04s-.03-.04-.03-.04c.02-.04.01-.1,0-.13l.02-.04c-.02-.26.02-.64.04-.93-.02-.04-.03-.07,0-.11v-.09c.08-.04,0-.1-.04-.13.02-.04.05-.06.09-.08-.04-.04-.08-.07-.12-.08.02-.02.03-.06.03-.1-.02-.04-.06-.05-.03-.09-.02-.24-.11-.42-.2-.64,0,.02.06.01.04.03h.04s.02.01.02.01v-.02c-.09-.18-.24-.34-.31-.52.04.09.13.16.19.23-.09-.14-.19-.28-.32-.42-.08-.01-.19-.02-.26-.02l-.05.08c-.14.07-.54.12-.75.21-1.18.53-2.38,2.38-2.91,3.51v.02s-.13.24-.13.27c-.04.04-.05.08-.07.12l-.05.02.02.05s-.03.08-.07.1c0,.06-.05.12-.06.17l-.02.02v.06s-.18.49-.18.49l-.05.02.02.06c-.03.06-.04.13-.06.19-.09.08-.16.31-.15.45-.03.08-.02.15-.06.23h-.04s0,.08-.01.1l.02.04c-.04.46-.27,1.7-.17,2.08-.07.04-.04.16.02.22-.02.04-.05.06-.09.08.16.34.04.28.07.62l.02.02v.06s0,.06,0,.04v.04s-.01.02-.01.02l.04.05s-.01.04,0,.04l.02.05-.02.02h.02s.01.13.01.13l-.04.02.04.02.03.09h-.02s.01.13.01.13l.02.02v.13s.02.06.03.04l.05.09s0,.05.02.03c.06.24.19.42.26.64-.09.06-.01.06.04.07l-.05.08s.06.01.09.01c0,.02-.01.06-.01.08.02,0,.08.03.04.05v.07s.04,0,.04,0l-.02.04s.02.02.02.04l.13.25s-.13,0-.05.02l.16.33-.13-.16c.03.09.09.18.15.25h.02c.05-.06.74.05.85.08ZM82.23,2.94c-.05.02-.12.09-.14.14-.06.02-.09.08-.12.12l.04.04c.07-.12.15-.2.22-.3ZM82.31,13.51l-.04-.02s0,.02-.02.04h.06s0-.02,0-.02ZM82.43,4.69c-.05.12-.04.23-.07.34.09-.21.51-1.09.5-1.21-.15.29-.33.55-.44.86ZM82.9,2.02s.05-.02.03-.04l-.14.11-.05.08c.05-.06.11-.08.16-.15ZM82.95,1.69c.09.01.06.01.11-.05.04-.02.05-.06.07-.1l-.18.14ZM82.97,3.71c.06.01.27-.38.28-.46-.02.02-.21.21-.15.26-.09.06-.1.1-.13.2ZM83.19,2.5s-.09.08-.1.12c.02,0,.05-.02.07-.03l.03-.06s.07-.08.08-.14c-.05.04-.07.08-.08.14v-.04ZM83.15,1.55h.08s.07-.05.07-.05v-.06s-.09.07-.15.11ZM83.59,2.36c-.05.06-.11.22-.17.26l.04.02s.07-.04.11-.06l.02.02v.08s-.05.04-.05.04l.03.09c-.05.06-.12.1-.15.2h-.02c-.01.06-.08.14-.06.19.14-.37,1.49-1.83,1.88-2.09l-.36.16v.02s.26-.11.26-.11c-.11.07-.24.09-.32.18h-.04c-.35.35-.69.72-.98,1.12l-.04.02-.06-.03.05-.08c.09-.06.19-.01.17-.18.07-.04.09-.1.1-.18.08.01.18-.13.23-.19.01-.06.17-.2.22-.26l.07-.06c-.11.05-.2.15-.3.19-.15.26-.45.43-.62.67ZM83.36,2.73l.04-.02v-.04s-.05.06-.05.06h.02ZM85.24,12.53s.01-.08.03-.1h.04s.01-.08.01-.08h.09s.05-.05.05-.05l.04-.02s.05-.02.05-.06c-.04-.02-.17.05-.2.07-.11.05-.22.06-.33.1-.29.14-.63.11-.92.21-.08-.01-.17-.04-.24.02-.04-.05-.06-.05-.09,0,.07.18,1.18-.1,1.34-.17l.04.02.02.06s-.05.02-.07.02c-.04-.03-.1-.07-.13.01l-.11.07h-.08s-.04,0-.04,0h-.06s-.07.03-.11.03l-.09.03c-.06-.01-.07.03-.11.07h-.06s-.04-.05-.04-.05h-.04s-.03.06-.03.06c.31.05.27.02.51,0,.04-.04.47-.25.53-.25ZM85.45,13.19l.31-.16s0-.08.03-.1l.06.05c.05-.06.12-.08.18-.13v-.02s-.04.02-.04.02h-.02c-.05.04-.14.09-.22.06-.21.02-.5.08-.7.13l.29.15.04-.02h.08ZM85.15,1.02l.16-.07s.11-.05.13-.05v-.06s-.06.02-.08.02l-.21.15ZM85.41,13.46l-.08-.05s-.07.02-.11.03l-.04.02.08.05.15-.05ZM86.77,6.25l.04.05v.02s.04,0,.04,0l.03-.1-.06-.09h-.09s0-.09,0-.09h.04s-.03-.08-.03-.08l.09-.04.05-.06s.03-.08.05-.12c-.24.11-.42.37-.66.51-.23.13-.49.17-.71.29-.09,0-.19.02-.26.1-.06-.05-.08-.05-.11.03.2.17,1.21-.38,1.39-.51h.04s.02.05.02.05l-.03.04s-.17-.04-.14.07c-.06,0-.07.06-.09.1-.02-.02-.06-.03-.09-.01l-.03.04-.05.02s-.07.04-.11.05l-.09.04c-.06-.01-.07.04-.11.08h-.07s-.04,0-.04,0h-.04s-.03.1-.03.1h-.06s-.02-.01-.02-.01l-.05.06s.1.03.13.03c.06.01.09-.05.15-.03v.06s.03.03.03.03l.04-.02-.02-.07.04-.02.02.02-.02.04h.02s0,.04,0,.04c.09,0,.16-.07.17-.17l.04.07.09-.06-.02-.06h.02s.02.02.02.02l-.02.04h.06c.09-.03.18-.1.25-.16v-.07s.07.03.07.03c.03-.06.09-.08.14-.12l-.02-.06v-.06ZM85.4,13.14l-.03.04v-.06s.01-.02.01-.02t.02.04ZM87.14,14.52c.1.1.12.06.25.07-.53-.24-1.13-.43-1.62-.73-.08-.05-.18-.1-.27-.13.36.31,1.62.75,1.65.79ZM85.89,13.81s-.14-.08-.16-.14l.02-.04s-.08-.03-.1-.07l-.09.08c.08.01.15.04.21.08.02.05.08.05.12.08ZM86.84,12.74c.07-.04.1-.16.17-.2l-.02-.04h-.02s-.07.05-.07.05c-.01.06-.07.1-.12.08-.08.12-.2.13-.3.21l-.04-.03h-.06s-.04.03-.04.03l.03.07c-.09,0-.63.33-.76.42l.08.03c.4-.15.81-.39,1.15-.62ZM85.63,12.22v.02s.17-.03.16-.09h.06s.07-.05.07-.05c-.06-.05-.24.1-.29.12ZM85.77,6.63l.02-.02s-.02.02-.02.02ZM86.07,12.82l.04.02.07-.1-.11.07v.02ZM88.45,14.9s-.03-.09-.01-.13c-.12-.1-.4-.1-.58-.2-.08-.1-.27-.07-.33-.16-.12-.03-.32-.05-.41-.15l-.2-.08c-.07.03-.66-.3-.76-.35l-.05.08.2.1c.11,0,1.72.74,1.95.82.02.07.14.06.19.08ZM86.25,12.9s.05-.02.09-.06c-.04.02-.07.06-.09.06ZM86.56,12.72s-.07.04-.11.05c.06,0,.08,0,.11-.05ZM86.94,6.2l.07-.08-.1-.03h-.04s.07.11.07.11ZM86.97,6.37c.06,0,.07-.04.09-.08-.04.02-.07.04-.09.08ZM87.2,5.44l-.2.26.07-.04c.03-.08.12-.14.13-.22ZM87.15,6.22c.05-.02.09-.04.1-.1l-.1.1ZM87.83,3.55c-.02.45-.57,1.81-.56,1.83.33-.38.54-1.17.58-1.67.01-.06,0-.13.04-.19l-.02-.04s-.02.04-.03.06ZM87.72,1.56l-.02.02c.05.18.13.89.15.95l-.02.04.03.13s-.03.04.02.05c.05-.12-.04-.73-.07-.9l.02-.02h.04s0,.03,0,.03c-.02.02-.03.08,0,.09l.02.07v.04c0,.07.02.15.02.21.02.04.02.07.03.11l-.04.02.02.04h.04s0,.05,0,.05h-.02s.02.06.02.06l.05-.08v-.09s.01.02.01.02l.04-.02v-.02s-.06,0-.06,0c-.02-.04.05-.04.05-.02.01-.06,0-.09-.07-.13l.05-.02-.02-.02v-.04s.01-.02.01-.02c-.02-.05-.03-.11-.03-.17h-.06s.04-.04.04-.04l-.03-.11h-.02s-.04-.03-.04-.03c0,0,.08,0,.05-.02l-.04-.03h-.06s-.04.04-.04.04v.02s-.04-.03-.04-.03l.02-.02h-.06s0-.07,0-.07l-.02-.04h.02s-.02-.06-.04-.05ZM87.86,3.47l.05-.08h.08s-.04.03-.04.03v.08s.05.03.05.03h.04s0,.02,0,.02l.02-.02c.03-.08.02-.19.03-.27l-.04-.03h.04s.01-.06.01-.06l-.04-.02-.02-.04c-.07.06-.08.14-.09.21-.02-.02-.04-.03-.06-.03-.03.06-.03.12-.02.17ZM88.04,3.55l-.13.05v.02s.14.03.14.03v-.09ZM88.08,2.96c-.05.02-.05.04-.05.08h-.04s.08.05.08.05c.05-.06.03-.08,0-.13ZM88.03,2.12v.02s-.02,0-.02,0l.02-.02ZM88.58,9.41l-.04-.05c-.04.25-.31.76-.47.94l.06.05c.18-.28.4-.6.45-.94ZM88.26,3.51s-.07.5-.12.61v.04c.05-.08.12-.39.1-.46l.02-.02s0-.11,0-.17ZM88.14,6.23l.2.12-.16-.16s-.06,0-.03.04ZM88.45,7.24c.06.26.06.73.16.96l-.02.04s0,.09.03.13t.02.05c.04-.17-.02-.71-.08-.92l.02-.02h.04s0,.05,0,.05c-.04.02-.03.06,0,.07l.03.07c-.05.12.03.15.02.24l-.02.02h.02s.03.07.03.11l-.04.02.02-.02h-.02s.02.04.02.04l.04.04v.04s-.02,0-.02,0l.02.04.05-.08v-.07s.05,0,.05,0v-.02s-.06-.01-.06-.01c-.02-.02.05-.02.05-.02.01-.06,0-.09-.07-.13h.06s-.02-.04-.02-.04v-.02s.01-.04.01-.04c-.02-.05-.03-.11-.03-.17l-.04-.02.02-.02-.03-.11h-.02s-.04-.03-.04-.03c0,0,.08,0,.05-.02l-.04-.04h-.06s-.03.05-.03.05v.02s-.04-.03-.04-.03l.02-.02h-.06s0-.11,0-.11l-.04-.07-.02.04ZM88.6,6.5s.02.04.02.05h.02s0-.08-.04-.05ZM88.78,7.8l.02.02h-.04s0-.02,0-.02h.02ZM89.25,15.27c-.17-.02-.33-.08-.48-.15.06.07.05.16.04.26l.38.1.05-.02c0-.06-.01-.13,0-.19ZM92.39,15.2s-.52.1-.61.11c-.03.04-.07.04-.11,0-.15-.04-.2.07-.3.03-.04,0-.09,0-.13.03-.4-.02-.78-.11-1.16-.17-.04.02-.09.03-.13.01-.07,0-.14-.04-.21-.08h-.08c-.05.05-.56-.14-.67-.16v.11c.12.03.72.22.81.18.04,0,.72.09.78.14.13-.01.21,0,.34.03.04-.02.4,0,.44.04.02,0,.82-.16.93-.17.04-.02.09-.06.1-.1ZM89.01,7.8c0,.11.02.24.05.35-.01-.13-.04-.24-.05-.35ZM92.53,15.16h-.02s-.02.02-.02.02l.02.02s.02-.02.02-.04Z"/><path class="cls-1" d="M13.96,31.96c.21.02.38.07.35.33-.05.33-.29.4-.48.45-.42,1.71-.59,2.58-.69,3.12,2.46-.05,4.97-.42,7.43-1.18-.29.92-.72,3.13-.8,4.04-2.28.59-5.82.87-7.25.89-.1.92-.39,3.45-.28,4.51,2.2.3,6.46,2.77,7.83,3.9-.64.61-1.77,1.76-2.91,3.27-.47-.42-3.08-2.65-5.13-3.38-.07.66-.23,1.83-1.33,2.87-1.44,1.39-3.81,1.46-4.53,1.46-2.92,0-6.59-1.2-6.13-4.49.49-3.48,5.23-4.3,7.87-4.3.3,0,.44.02.62.05.29-3.41.32-3.62,1-8.48.17-1.2.25-2.63.18-3.78l4.25.73ZM6.74,46.67c-1.23,0-2.64.38-2.77,1.24-.15,1.08,1.67,1.1,1.86,1.1,2.2,0,2.32-.87,2.5-2.14-.22-.07-.62-.21-1.59-.21Z"/><path class="cls-1" d="M37.78,33.2c.12.12.2.21.18.35-.03.21-.2.26-.31.26s-.25-.05-.38-.09c-.53.45-4.72,3.43-5.6,4.11-1.19.92-2.65,2.04-3.61,2.82-.84.68-.92.77-.94.96-.03.24.05.31.88.82.06.05,1.99,1.48,3.85,3.1,2.33,2.04,3.27,3.24,4.15,4.61-1.04.85-1.9,1.64-3.11,3.17-.8-1.53-4.05-5.62-10.25-10.1-.21-.14-.71-.59-.59-1.39.09-.61.22-.89,2.82-2.77,3.55-2.54,6.92-5.31,10-8.44l2.92,2.58Z"/><path class="cls-1" d="M44.21,34.78c.54.12,1.32.31,3.15.31.14,0,.72,0,1.37-.05.53-1.48,1.13-2.77,1.6-3.85l3.45,1.15c.18.05.4.12.37.33-.04.28-.32.31-.6.33-.37.63-.58,1.01-.9,1.62,3.06-.49,4.92-1.22,5.85-1.57l.05,3.27c-3.17.96-5.15,1.22-7.32,1.53-.05.19-.32.96-.37,1.13.79-.17,1.58-.24,2.42-.24,4.1,0,7.97,2.09,7.35,6.53-.65,4.65-5.1,6.65-9.07,7.54-.22-.73-.52-1.41-1.6-2.82,2.69-.54,6.34-1.83,6.75-4.72.07-.49.25-2.09-1.57-2.84-1.07,1.67-3.01,4.14-5.02,5.92.1.47.14.68.23,1.03-.35.21-.48.28-1.56.87-.1.05-1.44.85-1.72,1.01-.11-.38-.12-.45-.18-.68-2.03,1.13-3.42,1.27-4.21,1.27-3.08,0-2.66-2.98-2.58-3.57.19-1.34,1.17-5.52,7.14-8.18.22-1.08.35-1.5.45-1.93-.74.02-1.19.05-1.53.05-.95,0-1.73-.05-2.56-.21l.59-3.22ZM46.68,43.92c-1.52,1.08-2.66,2.66-2.84,3.9-.08.56.11.71.41.71.6,0,1.57-.47,2.26-.96,0-.21-.02-1.81.16-3.64ZM49.93,44.37c.48-.61,1.18-1.46,1.77-2.4-.26.02-.73.07-1.59.31-.08.54-.17,1.39-.18,2.09Z"/><path class="cls-1" d="M80.53,34c-1.72,1.06-5.82,4.7-6.4,5.24.41-.09,1.58-.35,2.83-.35,3.15,0,6.11,2.02,5.52,6.18-.72,5.17-5.88,7.42-9.88,7.42-2.99,0-5.71-1.2-5.31-4.04.33-2.33,2.66-3.76,5.06-3.76,2.18,0,4.27,1.25,4.49,3.45,1.64-.77,1.89-2.58,1.92-2.77.08-.56.29-3.43-3.29-3.43-3.91,0-6.46,2.33-10.15,5.73l-2.39-2.75c2.92-1.88,8.81-7.05,10.65-9.14-.76.17-1.58.35-6.27.82l-.04-3.69c.9.02,7.58.09,11.78-1.48l1.49,2.56ZM71.66,47.63c-.79,0-1.04.45-1.09.85-.12.89,1.12,1.24,1.91,1.24.53,0,.94-.12,1.18-.19-.15-1.6-1.35-1.9-2-1.9Z"/><path class="cls-1" d="M91.7,43.83c-.73.56-2.06,1.79-2.16,2.56-.24,1.69,2.93,1.69,3.91,1.69,3.15,0,6.34-.49,9.48-1.41-.06.59-.19,1.88.04,3.99-1.85.52-5.2,1.08-9.2,1.08-3.61,0-4.99-.4-6.06-.87-.7-.31-2.74-1.41-2.41-3.78.34-2.44,3.05-4.63,4.13-5.5l2.28,2.23ZM102.51,36.09c-2.27.87-4.89,2.33-6.37,3.83-.73-.73-1.51-1.48-2.15-2.02.97-.8,1.2-.96,1.95-1.53-1.45.12-5.37.33-7.33.28l.36-3.92c1.36.24,4.19.3,5.72.3,2.92,0,5.52-.4,6.53-.54l1.28,3.59ZM104.04,32.43c.54.59,1.36,1.69,1.76,2.47-.4.35-.74.63-1.6,1.69-.79-1.27-.91-1.41-1.86-2.61l1.7-1.55ZM106.1,30.43c.3.33.89.94,1.85,2.3-.67.52-1.26,1.08-1.71,1.6-.39-.68-1.23-1.81-1.69-2.3l1.54-1.6Z"/><path class="cls-1" d="M121.79,31.84c1.38.09,3.61-.47,5.06-.89l1.33,2.21c.04.07.09.19.08.26-.02.16-.17.21-.31.21s-.29-.05-.5-.09c-1.97.35-3.36.52-5.17.59-.04.31-.05.38-.12.71h6.99l-.32,2.3h-2.96l-.33,2.33h-3.17l.33-2.33h-1.25c-.49.87-1.14,1.86-1.98,2.73h6.32l-1.32,9.45h-1.11c1.39.66,2.77.92,3.44,1.03-1.04,1.01-2,2.4-2.21,2.7-2.57-.66-5.11-2.02-6.37-2.91l1-.82h-5.32l.9.82c.15.12.18.19.17.28-.04.28-.38.24-.81.19-1.54.73-4.2,1.9-6.36,2.42-.31-1.25-1.21-2.28-1.47-2.56,1.45-.28,3.11-.87,3.87-1.15h-1.11l1.23-8.76c-.32.33-.46.47-.69.66-.78-.92-2.22-1.31-2.62-1.43,2.25-1.67,2.73-4.3,3.26-8.11l2.45.38c1.25,0,3.19-.47,4.48-.94l1.01,2.23c.04.07.07.16.06.26-.02.12-.15.21-.26.21-.09,0-.22-.07-.53-.21-1.67.35-2.85.52-4.54.66-.05.35-.08.42-.11.59h5.88l-.29,2.09c.29-.45.85-1.29,1.26-4.23l.14-.99,1.99.14ZM118.72,39.85c-.08-.07-.89-.94-2.02-1.25.52-.38,1.04-.78,1.55-1.48h-1.76l-.33,2.33h-2.96l.33-2.33h-1.3c-.34.96-.79,1.88-1.4,2.73h7.89ZM121.52,46.29h-8.59l-.11.78h8.59l.11-.78ZM121.84,44.01h-8.59l-.11.78h8.59l.11-.78ZM113.46,42.51h8.59l.11-.75h-8.59l-.11.75Z"/><path class="cls-1" d="M141.12,31.68l-1.23,8.77h-6.04l-1.72,12.27h-3.33l2.94-21.03h9.38ZM134.32,37.1l-.15,1.08h3.03l.15-1.08h-3.03ZM137.49,50.95h-3.17l1.27-9.07h9.4l-.99,7.07c.85.19,1.33.28,1.65.28.25,0,.48-.12.55-.63l1.14-8.15h-6.04l1.23-8.77h9.4l-2.59,18.47c-.35,2.49-2.79,2.54-3.67,2.54-.49,0-.71-.02-1.05-.09,0-1.03-.08-1.74-.83-3.48h-6.04l-.26,1.83ZM137.64,35.04l.15-1.08h-3.03l-.15,1.08h3.03ZM141.18,46.6l.31-2.21h-3.08l-.31,2.21h3.08ZM144.78,37.1l-.15,1.08h3.03l.15-1.08h-3.03ZM148.1,35.04l.15-1.08h-3.03l-.15,1.08h3.03Z"/></g></svg>