<?xml version="1.0" encoding="UTF-8"?><svg id="_レイヤー_2" xmlns="http://www.w3.org/2000/svg" viewBox="0 0 221 45.97"><defs><style>.cls-1{fill:#fff;}.cls-1,.cls-2{stroke-width:0px;}.cls-2{fill:#00c300;}</style></defs><g id="_レイヤー_1-2"><rect class="cls-2" x="0" y="0" width="221" height="45.97" rx="22.99" ry="22.99"/><path class="cls-1" d="M74.12,16.49h.32l.3-.08,1.18.6c-.28.73-.63,1.41-1.05,2.05-.42.64-.89,1.22-1.42,1.75s-1.09,1-1.7,1.42c-.6.42-1.21.78-1.84,1.09-.11-.19-.27-.42-.49-.68s-.41-.47-.59-.62c.56-.24,1.11-.54,1.66-.9s1.06-.77,1.53-1.23c.47-.46.89-.95,1.26-1.47.37-.52.65-1.05.85-1.6v-.32ZM69.62,28.25h12.96v1.49h-12.96v-1.49ZM69.77,19.19l.97-.99c.22.13.45.28.69.44.24.16.47.32.68.49.21.17.39.33.52.48l-1.02,1.09c-.19-.22-.46-.47-.82-.76-.36-.29-.7-.54-1.03-.75ZM70.49,16.49h4.2v1.46h-4.2v-1.46ZM71.7,22.31h8.75v4.18h-8.75v-4.18ZM72.58,26.69l1.65-.42c.19.27.36.58.52.92.15.34.27.64.34.9l-1.74.5c-.05-.26-.15-.57-.29-.93-.15-.36-.3-.68-.47-.96ZM73.31,19.96h5.55v1.5h-5.55v-1.5ZM73.46,23.74v1.33h5.13v-1.33h-5.13ZM77.56,16c.34.81.79,1.58,1.36,2.31.56.73,1.22,1.38,1.96,1.95.75.57,1.55,1.02,2.41,1.35-.13.12-.27.27-.43.44-.15.17-.3.36-.43.54-.13.19-.25.36-.34.52-.92-.42-1.76-.96-2.53-1.62-.76-.66-1.44-1.42-2.03-2.26-.59-.85-1.09-1.77-1.51-2.75l1.54-.48ZM77.91,26.24l1.75.38c-.19.37-.37.72-.54,1.05s-.33.62-.49.86l-1.58-.36c.11-.18.22-.38.32-.61s.21-.45.3-.68c.09-.23.17-.44.23-.63ZM79.85,16.09l1.36.96c-.42.35-.86.7-1.31,1.04s-.87.63-1.25.87l-1.07-.84c.24-.17.5-.37.78-.61s.55-.48.82-.73.49-.48.67-.69ZM81.54,17.83l1.32.93c-.42.37-.87.74-1.36,1.11s-.93.67-1.33.92l-1.08-.84c.27-.18.55-.39.85-.63.29-.24.58-.49.87-.75.29-.26.53-.5.73-.74Z"/><path class="cls-1" d="M87.44,15.94h.95v.34h.51v.46c-.29.56-.67,1.2-1.16,1.93-.48.73-1.09,1.42-1.83,2.09-.07-.12-.17-.25-.3-.41s-.26-.29-.4-.43c-.13-.14-.26-.25-.38-.33.43-.36.81-.75,1.14-1.16s.62-.84.87-1.27c.25-.43.45-.84.6-1.23ZM85.29,28.07c.48-.07,1.02-.16,1.63-.26.61-.1,1.25-.22,1.93-.34.67-.12,1.35-.24,2.03-.36l.12,1.5c-.93.19-1.87.38-2.81.58-.95.2-1.8.37-2.56.52l-.34-1.63ZM85.46,22.28h5.49v1.51h-5.49v-1.51ZM85.61,24.65l1.16-.3c.12.42.23.87.33,1.36.1.49.17.9.2,1.25l-1.22.33c0-.37-.06-.8-.15-1.28s-.2-.94-.32-1.36ZM86.18,19.69h4.44v1.5h-4.44v-1.5ZM87.51,20.29h1.56v8.07l-1.56.29v-8.36ZM87.68,15.94h1.25c.29.25.59.53.92.84.32.31.62.62.91.92.29.3.52.59.7.85l-1.15,1.38c-.15-.26-.36-.56-.62-.89-.26-.33-.54-.67-.83-.99s-.58-.6-.86-.83h-.3v-1.27ZM89.76,24.25l1.29.3c-.12.43-.24.87-.37,1.31-.12.44-.24.81-.35,1.12l-1.1-.29c.07-.23.14-.49.2-.78.06-.29.13-.58.19-.88.06-.29.1-.56.13-.79ZM90.65,27.56c.38-.21.83-.48,1.37-.82s1.07-.68,1.62-1.04l.55,1.37c-.45.33-.91.67-1.37,1s-.91.66-1.34.95l-.83-1.46ZM91.08,20.87h8.02v1.52h-8.02v-1.52ZM91.16,23.66l1.17-.75c.3.27.6.58.9.94.3.36.52.67.66.95l-1.26.84c-.12-.28-.32-.61-.61-.98s-.57-.71-.86-1ZM91.8,16.45h6.2v5.28h-1.67v-3.81h-4.53v-1.47ZM92.13,18.73h5.13v1.36h-5.13v-1.36ZM94.17,21.65h1.67v6.67c0,.38-.04.68-.11.91-.08.23-.23.4-.46.52-.23.13-.5.21-.81.24-.31.03-.67.04-1.08.04-.02-.23-.07-.49-.16-.78-.09-.29-.17-.55-.26-.78.21,0,.41.01.61.01h.4c.09,0,.15-.01.17-.04.03-.03.04-.08.04-.15v-6.64ZM95.79,22.72c.12.44.28.9.49,1.38.21.48.46.96.75,1.42s.64.9,1.05,1.28.87.71,1.39.97c-.12.11-.25.25-.4.43-.15.17-.29.35-.43.54-.14.18-.25.36-.33.52-.49-.32-.93-.7-1.31-1.15s-.72-.94-1.01-1.46c-.29-.52-.53-1.04-.73-1.55-.19-.51-.35-.98-.47-1.42l1-.95ZM97.83,22.69l1.39.87c-.3.34-.61.68-.93,1.01-.32.34-.62.63-.88.88l-1.12-.76c.17-.17.35-.37.54-.6.19-.23.38-.47.55-.71s.33-.47.45-.68Z"/><path class="cls-1" d="M104.83,17.11c-.03.1-.07.24-.13.42s-.1.36-.13.53-.06.3-.08.39c-.05.21-.11.49-.17.85-.06.35-.12.75-.19,1.2-.07.44-.13.9-.19,1.36-.06.46-.11.91-.14,1.32-.03.42-.04.77-.04,1.07,0,.15,0,.31,0,.49,0,.18.02.34.05.49.07-.18.14-.36.22-.53.08-.17.15-.34.23-.51.08-.17.15-.34.22-.51l.92.75c-.14.41-.28.84-.43,1.29-.14.45-.28.88-.39,1.28-.12.4-.2.74-.26,1-.02.1-.04.22-.05.36-.01.14-.02.25-.02.34,0,.08,0,.18,0,.29,0,.11.01.22.02.32l-1.7.13c-.16-.53-.3-1.21-.42-2.03s-.18-1.75-.18-2.77c0-.56.02-1.15.08-1.76.05-.62.11-1.21.17-1.78.07-.57.13-1.09.2-1.57.07-.47.12-.86.17-1.15.03-.21.06-.45.09-.71.03-.26.05-.52.06-.76l2.07.18ZM112.15,16.94c-.02.14-.04.29-.05.46-.02.17-.03.34-.04.51,0,.16-.02.38-.03.65-.01.27-.02.57-.02.91v1.06c0,.68,0,1.32.03,1.91.02.6.04,1.15.08,1.65s.06.97.08,1.39c.03.42.04.81.04,1.17,0,.39-.05.75-.16,1.08-.1.33-.27.62-.5.87-.23.25-.53.44-.91.58s-.83.2-1.37.2c-1.04,0-1.86-.21-2.46-.63-.6-.42-.9-1.02-.9-1.81,0-.51.13-.96.4-1.34.27-.38.66-.68,1.16-.9.5-.21,1.09-.32,1.77-.32s1.36.08,1.94.22c.58.15,1.11.35,1.59.6.48.25.91.52,1.28.82s.71.58,1.01.85l-1.04,1.58c-.57-.54-1.12-1-1.67-1.4-.54-.39-1.08-.69-1.61-.9s-1.09-.32-1.66-.32c-.42,0-.76.08-1.03.24-.27.16-.4.38-.4.67s.13.52.4.66c.27.14.6.21.99.21.31,0,.55-.05.74-.16.18-.11.31-.26.38-.47.08-.2.11-.45.11-.74,0-.26-.01-.6-.03-1.02-.02-.42-.04-.89-.07-1.41-.03-.52-.05-1.06-.07-1.63-.02-.56-.03-1.12-.03-1.66,0-.57,0-1.09,0-1.55s0-.81,0-1.04c0-.11-.01-.27-.03-.47-.02-.2-.04-.38-.08-.52h2.15ZM106.45,19.48c.43.04.86.07,1.3.1.44.02.88.04,1.33.04.92,0,1.83-.04,2.75-.12.91-.08,1.75-.21,2.52-.38v1.88c-.78.11-1.62.2-2.54.26s-1.82.1-2.73.1c-.44,0-.88,0-1.31-.02-.44-.02-.87-.04-1.31-.07v-1.79Z"/><path class="cls-1" d="M120.5,24.14c-.07.26-.13.51-.18.76-.05.25-.07.5-.07.75,0,.48.24.88.73,1.18.48.31,1.27.47,2.35.47.68,0,1.33-.03,1.97-.08.63-.05,1.23-.12,1.79-.21.56-.09,1.07-.2,1.51-.32v2.12c-.43.1-.92.19-1.46.26s-1.12.13-1.75.18-1.29.07-1.99.07c-1.14,0-2.09-.12-2.87-.38-.77-.25-1.34-.61-1.72-1.09-.38-.48-.57-1.06-.57-1.75,0-.44.04-.84.11-1.2.07-.36.13-.68.2-.96l1.96.18ZM119.24,17.78c.55.06,1.17.11,1.86.13.69.03,1.43.04,2.22.04.49,0,1,0,1.52-.03.53-.02,1.03-.04,1.52-.08.49-.03.93-.07,1.31-.11v2c-.35.03-.77.06-1.27.09-.5.03-1.01.05-1.54.07-.54.02-1.04.02-1.52.02-.78,0-1.51-.02-2.17-.05-.67-.03-1.31-.07-1.92-.12v-1.98Z"/><path class="cls-1" d="M131.88,18.49c.48.08,1,.15,1.56.2.56.06,1.08.08,1.54.08s1.01-.02,1.58-.04c.58-.03,1.18-.08,1.82-.14.64-.06,1.28-.14,1.93-.23.65-.09,1.28-.21,1.9-.34l.03,1.79c-.48.08-1.02.16-1.63.24-.61.08-1.24.15-1.9.22-.66.07-1.31.12-1.95.16-.64.04-1.23.06-1.77.06-.58,0-1.13-.01-1.66-.04-.53-.02-1.01-.06-1.46-.1v-1.86ZM137.12,16.73c-.08.26-.15.52-.2.77-.06.25-.11.51-.16.76-.05.24-.11.51-.17.82-.07.31-.13.64-.21.98-.08.35-.16.69-.24,1.04-.08.35-.17.69-.26,1.03s-.17.64-.25.92c.61-.34,1.21-.58,1.82-.73.6-.15,1.23-.22,1.9-.22.81,0,1.52.13,2.12.41.6.27,1.07.64,1.41,1.12.33.48.5,1.04.5,1.68,0,.84-.19,1.55-.58,2.13s-.94,1.04-1.65,1.37-1.57.54-2.56.63c-1,.09-2.1.07-3.31-.06l-.53-1.94c.82.14,1.62.21,2.41.21s1.49-.08,2.12-.22c.63-.15,1.13-.39,1.51-.73s.56-.78.56-1.33c0-.45-.19-.84-.57-1.16-.38-.32-.94-.49-1.67-.49-.87,0-1.67.15-2.39.45-.73.3-1.31.73-1.76,1.3-.07.11-.14.21-.2.32-.07.1-.14.21-.22.34l-1.77-.63c.28-.54.54-1.16.78-1.84.24-.69.46-1.39.65-2.09.19-.7.34-1.35.46-1.96.12-.6.21-1.1.25-1.48.05-.32.08-.59.09-.82s0-.46-.01-.7l2.13.09Z"/><path class="cls-1" d="M150.05,19.63c-.05.2-.1.46-.16.77-.05.32-.11.64-.16.98-.05.34-.1.67-.14.98s-.08.57-.11.78c.68-.49,1.39-.85,2.14-1.08.74-.23,1.51-.35,2.29-.35.88,0,1.63.16,2.25.48s1.09.74,1.42,1.26c.33.52.49,1.08.49,1.7,0,.68-.15,1.31-.44,1.89s-.76,1.08-1.42,1.49-1.53.7-2.59.87c-1.07.17-2.39.19-3.95.06l-.57-1.96c1.5.2,2.76.23,3.78.08,1.02-.14,1.79-.43,2.32-.87.53-.44.79-.97.79-1.6,0-.33-.1-.62-.29-.88-.19-.25-.46-.46-.79-.6-.34-.15-.73-.22-1.16-.22-.84,0-1.63.15-2.36.46-.74.3-1.34.74-1.81,1.31-.13.16-.24.31-.32.44-.08.13-.16.28-.23.43l-1.73-.43c.06-.29.12-.63.18-1.03.06-.4.12-.82.18-1.28.06-.46.11-.91.17-1.37.05-.46.09-.92.13-1.37s.07-.86.09-1.23l2.01.29ZM149.96,16.61c.36.11.81.22,1.35.34s1.1.24,1.69.35c.59.12,1.15.21,1.67.29s.95.14,1.28.18l-.45,1.83c-.3-.04-.66-.1-1.09-.17-.43-.07-.88-.16-1.35-.25-.47-.09-.94-.18-1.4-.28s-.88-.19-1.26-.28c-.38-.09-.69-.17-.93-.23l.48-1.8Z"/><path class="cls-1" d="M160.55,19.91c.27.02.54.03.79.02s.53-.01.81-.02c.24,0,.54-.03.89-.05.35-.02.73-.05,1.12-.08.39-.03.79-.06,1.19-.1.4-.04.77-.06,1.11-.08.34-.02.62-.03.84-.03.53,0,1,.09,1.4.26.4.17.72.47.96.89.23.42.35.99.35,1.71,0,.59-.03,1.23-.08,1.92-.05.69-.14,1.35-.26,1.98-.12.63-.29,1.17-.51,1.61-.24.52-.57.88-.98,1.08-.42.2-.91.3-1.48.3-.29,0-.6-.02-.92-.07-.32-.04-.62-.09-.88-.14l-.33-1.98c.2.05.42.1.65.15s.46.09.67.12.39.04.52.04c.25,0,.47-.05.66-.14s.34-.26.46-.5c.14-.29.25-.66.34-1.12.08-.46.15-.96.2-1.49.04-.54.07-1.05.07-1.54,0-.4-.06-.7-.17-.89-.11-.19-.27-.32-.49-.38-.22-.07-.48-.1-.8-.1-.22,0-.53.02-.92.05s-.81.07-1.25.12c-.44.04-.85.09-1.24.14-.38.05-.68.09-.89.11-.21.04-.48.08-.82.13-.33.04-.62.09-.85.13l-.18-2.04ZM166.64,16.84c-.05.19-.1.4-.14.62-.04.22-.09.43-.13.62-.04.22-.09.47-.15.74-.06.27-.12.55-.17.82-.06.28-.11.54-.17.8-.1.43-.22.93-.38,1.5s-.33,1.18-.53,1.84-.42,1.31-.67,1.97c-.25.66-.51,1.3-.79,1.93s-.58,1.19-.9,1.69l-1.95-.78c.35-.47.68-1,.98-1.58.3-.58.58-1.19.83-1.81s.47-1.23.67-1.83c.19-.6.36-1.16.5-1.68.14-.52.25-.96.33-1.33.14-.68.25-1.33.33-1.96s.12-1.22.11-1.79l2.23.22ZM171.8,18.25c.24.32.49.72.74,1.21.26.48.5,1,.75,1.54s.47,1.06.68,1.56c.2.5.36.92.47,1.27l-1.91.88c-.1-.42-.24-.89-.41-1.4-.17-.51-.38-1.04-.6-1.58-.22-.53-.46-1.04-.72-1.52-.25-.48-.52-.88-.79-1.2l1.79-.77Z"/><path class="cls-1" d="M180.17,19.63c-.05.2-.1.46-.16.77-.05.32-.11.64-.16.98-.05.34-.1.67-.14.98s-.08.57-.11.78c.68-.49,1.39-.85,2.14-1.08.74-.23,1.51-.35,2.29-.35.88,0,1.63.16,2.25.48s1.09.74,1.42,1.26c.33.52.49,1.08.49,1.7,0,.68-.15,1.31-.44,1.89s-.76,1.08-1.42,1.49-1.53.7-2.59.87c-1.07.17-2.39.19-3.95.06l-.57-1.96c1.5.2,2.76.23,3.78.08,1.02-.14,1.79-.43,2.32-.87.53-.44.79-.97.79-1.6,0-.33-.1-.62-.29-.88-.19-.25-.46-.46-.79-.6-.34-.15-.73-.22-1.16-.22-.84,0-1.63.15-2.36.46-.74.3-1.34.74-1.81,1.31-.13.16-.24.31-.32.44-.08.13-.16.28-.23.43l-1.73-.43c.06-.29.12-.63.18-1.03.06-.4.12-.82.18-1.28.06-.46.11-.91.17-1.37.05-.46.09-.92.13-1.37s.07-.86.09-1.23l2.01.29ZM180.08,16.61c.36.11.81.22,1.35.34s1.1.24,1.69.35c.59.12,1.15.21,1.67.29s.95.14,1.28.18l-.45,1.83c-.3-.04-.66-.1-1.09-.17-.43-.07-.88-.16-1.35-.25-.47-.09-.94-.18-1.4-.28s-.88-.19-1.26-.28c-.38-.09-.69-.17-.93-.23l.48-1.8Z"/><path class="cls-1" d="M43.21,10.4c-7.28,0-13.21,4.81-13.21,10.72,0,5.3,4.7,9.73,11.05,10.58,1.55.33,1.37.9,1.02,2.98-.06.33-.27,1.3,1.14.71,1.41-.59,7.6-4.48,10.38-7.67,1.91-2.11,2.83-4.24,2.83-6.6,0-5.91-5.93-10.72-13.21-10.72ZM38.54,24.27c0,.15-.11.26-.26.26h-3.7c-.07,0-.13-.03-.18-.07-.05-.05-.07-.11-.07-.18v-5.76c0-.15.11-.26.26-.26h.92c.15,0,.26.11.26.26v4.57h2.52c.14,0,.25.12.25.26v.92ZM40.78,24.28c0,.15-.11.26-.26.26h-.92c-.15,0-.26-.11-.26-.26v-5.76c0-.15.11-.26.26-.26h.92c.15,0,.26.12.26.26v5.76ZM47.16,24.28c0,.15-.11.26-.26.26h-.92c-.09,0-.17-.05-.21-.11l-2.64-3.56v3.42c0,.15-.11.26-.26.26h-.92c-.15,0-.26-.11-.26-.26v-5.76c0-.15.11-.26.26-.26h.92c.08,0,.17.04.21.11l2.64,3.56v-3.42c0-.15.11-.26.26-.26h.92c.15,0,.27.11.27.25v5.76ZM52.28,19.44c0,.15-.11.26-.26.26h-2.52v.97h2.52c.15,0,.26.11.26.26v.93c0,.15-.11.26-.26.26h-2.52v.97h2.52c.15,0,.26.11.26.26v.92c0,.15-.11.26-.26.26h-3.7c-.15,0-.26-.12-.26-.26v-5.76c0-.15.12-.26.26-.26h3.7c.14,0,.25.12.26.26v.92Z"/></g></svg>