<?xml version="1.0" encoding="UTF-8"?><svg id="_レイヤー_2" xmlns="http://www.w3.org/2000/svg" viewBox="0 0 330.65 54.34"><defs><style>.cls-1{fill:#937485;}.cls-1,.cls-2{stroke-width:0px;}.cls-2{fill:#fff;}</style></defs><g id="_レイヤー_1-2"><rect class="cls-1" x="0" y="0" width="330.65" height="54.34" rx="27.17" ry="27.17"/><path class="cls-2" d="M38.64,30.65c.21.04.42.06.65.08.22.02.44.03.64.03h8.57c.23,0,.46-.01.66-.03.21-.02.39-.04.56-.07v1.89c-.19-.03-.4-.04-.64-.05-.23,0-.43-.01-.58-.01h-8.57c-.19,0-.4,0-.62.01-.23,0-.45.03-.66.05v-1.89ZM39.48,23.73c.17.02.38.04.61.05.23.02.44.03.62.03h7.07c.2,0,.41,0,.62-.03.22-.02.42-.03.6-.05v1.78c-.19-.02-.39-.03-.61-.04s-.42-.01-.61-.01h-7.07c-.17,0-.38,0-.62.01-.24,0-.45.02-.61.04v-1.78ZM43.23,31.72v-6.99h1.82v6.99h-1.82Z"/><path class="cls-2" d="M62.11,23.99c-.05.08-.13.2-.23.36s-.17.32-.23.46c-.18.41-.41.86-.67,1.37-.26.5-.56,1.01-.9,1.51-.33.51-.69.98-1.06,1.42-.49.55-1.02,1.09-1.61,1.62-.58.53-1.2,1.02-1.85,1.47s-1.31.83-1.98,1.15l-1.34-1.4c.7-.27,1.38-.61,2.04-1.01.66-.41,1.27-.85,1.83-1.33.56-.48,1.05-.94,1.46-1.39.29-.33.56-.68.81-1.05.25-.37.48-.74.68-1.11.2-.37.35-.71.44-1.02h-4.41c-.18,0-.37,0-.57.02-.2.01-.39.03-.57.04-.18.01-.31.02-.41.03v-1.85c.13,0,.29.02.48.04.19.02.38.03.58.04s.36.01.49.01h4.59c.29,0,.55-.02.79-.05.24-.03.42-.07.55-.12l1.07.79ZM59.19,28.03c.34.27.7.58,1.08.94.38.36.76.72,1.13,1.1.37.38.72.75,1.03,1.1.32.35.58.66.8.92l-1.48,1.29c-.32-.44-.69-.9-1.1-1.38-.41-.48-.84-.95-1.3-1.42s-.92-.92-1.38-1.35l1.22-1.2Z"/><path class="cls-2" d="M64.93,26.16c.19.02.4.04.62.05.22.02.43.03.63.03h8.52c.14,0,.33,0,.57-.02.24-.01.44-.03.62-.06v1.69c-.16-.02-.35-.03-.57-.03-.22,0-.43,0-.61,0h-8.52c-.19,0-.4,0-.63.01-.23,0-.44.02-.62.04v-1.7ZM66.44,22.83c.22.04.45.06.7.07.25.01.48.02.69.02h5.23c.22,0,.46,0,.7-.02.24-.01.48-.04.7-.07v1.68c-.23-.02-.46-.03-.7-.04-.24,0-.48-.01-.7-.01h-5.21c-.22,0-.47,0-.72.01-.26,0-.48.02-.68.04v-1.68ZM71.59,27.05c0,.85-.07,1.61-.22,2.28s-.36,1.28-.64,1.81c-.16.29-.36.6-.62.91-.26.31-.56.61-.9.88s-.7.51-1.09.7l-1.52-1.1c.46-.18.9-.44,1.33-.78s.77-.7,1.03-1.08c.33-.5.55-1.06.66-1.66.11-.61.17-1.26.17-1.95h1.81Z"/><path class="cls-2" d="M78.08,29.09c.56-.12,1.14-.29,1.72-.5.58-.21,1.13-.44,1.64-.69s.94-.47,1.29-.67c.42-.26.84-.55,1.25-.88.41-.33.79-.65,1.14-.98.35-.33.63-.64.85-.92l1.29,1.26c-.25.29-.58.6-1,.94-.41.34-.86.68-1.33,1.03-.48.34-.95.65-1.43.93-.29.18-.63.37-1.01.55-.38.19-.78.37-1.2.55-.42.18-.84.34-1.26.5-.42.16-.81.29-1.18.42l-.77-1.53ZM82.58,28.25l1.77-.34v4.63c0,.15,0,.32,0,.51,0,.19.02.37.03.53.02.16.03.28.05.37h-1.92c.02-.09.03-.21.03-.37,0-.16.01-.34.02-.53,0-.19.01-.36.01-.51v-4.29Z"/><path class="cls-2" d="M100.59,24.14c-.06.12-.11.27-.16.44s-.09.33-.12.47c-.07.31-.16.67-.27,1.07-.11.4-.25.81-.4,1.24-.16.42-.34.84-.55,1.26-.21.42-.45.81-.72,1.17-.39.51-.85,1-1.37,1.45-.52.46-1.1.86-1.74,1.22s-1.35.67-2.12.92l-1.42-1.55c.86-.21,1.6-.47,2.23-.77.63-.31,1.18-.65,1.64-1.04.47-.38.88-.8,1.22-1.24.29-.36.53-.76.73-1.18.2-.42.37-.85.51-1.29.13-.43.23-.83.28-1.2h-6.06c-.29,0-.58,0-.87.01-.28,0-.51.02-.68.04v-1.83c.14,0,.3.02.48.04.18.02.37.03.57.05s.37.02.51.02h6.01c.13,0,.29,0,.48-.02.19-.01.37-.04.53-.08l1.29.82Z"/><path class="cls-2" d="M102.73,29.09c.56-.12,1.14-.29,1.72-.5.58-.21,1.13-.44,1.64-.69s.94-.47,1.29-.67c.42-.26.84-.55,1.25-.88.41-.33.79-.65,1.14-.98.35-.33.63-.64.85-.92l1.29,1.26c-.25.29-.58.6-1,.94-.41.34-.86.68-1.33,1.03-.48.34-.95.65-1.43.93-.29.18-.63.37-1.01.55-.38.19-.78.37-1.2.55-.42.18-.84.34-1.26.5-.42.16-.81.29-1.18.42l-.77-1.53ZM107.23,28.25l1.77-.34v4.63c0,.15,0,.32,0,.51,0,.19.02.37.03.53.02.16.03.28.05.37h-1.92c.02-.09.03-.21.03-.37,0-.16.01-.34.02-.53,0-.19.01-.36.01-.51v-4.29Z"/><path class="cls-2" d="M117.05,25.77c.09.17.18.38.29.64s.22.53.33.82.22.56.33.83c.11.27.19.49.25.68l-1.59.6c-.05-.17-.13-.4-.23-.68s-.21-.57-.33-.88c-.12-.31-.24-.59-.34-.85-.11-.26-.2-.46-.28-.6l1.56-.56ZM124.87,26.03c-.07.21-.13.39-.18.53s-.09.29-.14.42c-.16.66-.39,1.32-.68,1.97s-.65,1.27-1.09,1.84c-.61.78-1.29,1.44-2.06,1.98-.77.54-1.53.96-2.29,1.24l-1.37-1.39c.48-.13.98-.32,1.51-.58.53-.26,1.04-.57,1.53-.93.49-.36.92-.77,1.27-1.21.29-.37.56-.8.79-1.28.23-.48.42-1,.57-1.55.15-.55.25-1.09.31-1.63l1.82.58ZM120.07,25.08c.06.14.14.34.24.59s.21.53.32.82.21.57.3.83.16.46.21.61l-1.56.55c-.04-.17-.1-.37-.18-.62-.09-.25-.18-.52-.29-.8-.1-.28-.21-.55-.31-.81-.1-.26-.2-.48-.27-.65l1.55-.51Z"/><path class="cls-2" d="M129.28,31.55v-7.48c0-.22-.01-.49-.03-.78-.02-.29-.05-.55-.1-.78h2.03c-.03.23-.05.47-.08.75-.03.27-.04.54-.04.81v7.48c0,.12,0,.29.01.51,0,.22.03.45.05.68.03.23.04.44.05.62h-2.03c.03-.26.06-.56.09-.91.03-.35.04-.65.04-.91ZM130.67,25.88c.43.11.92.26,1.46.44s1.08.37,1.62.57,1.06.4,1.54.59c.48.2.88.38,1.2.54l-.74,1.79c-.36-.19-.77-.38-1.21-.58-.44-.2-.89-.38-1.34-.57-.46-.18-.9-.35-1.34-.51-.44-.16-.83-.29-1.19-.42v-1.86Z"/><path class="cls-2" d="M149.37,24.97c-.16.17-.34.35-.53.55s-.35.38-.49.53c-.23.27-.51.56-.83.88-.32.32-.66.64-1.03.96s-.75.62-1.15.91c-.47.33-.99.64-1.57.94-.58.3-1.2.58-1.85.83s-1.31.48-1.99.68l-1-1.53c1.26-.28,2.31-.62,3.17-1.03.86-.41,1.57-.79,2.13-1.14.33-.23.64-.45.92-.68.29-.22.54-.45.75-.67.22-.22.38-.42.51-.59h-4.71c-.15,0-.33,0-.55,0s-.43,0-.63.01c-.2,0-.38.02-.51.03v-1.7c.25.03.54.06.85.07.32.01.59.02.81.02h5.51c.2,0,.39-.01.58-.03.19-.02.35-.05.5-.1l1.08,1.05ZM145.63,27.81v.88c0,.35,0,.72,0,1.11,0,.39,0,.77,0,1.14v.94c0,.17,0,.36.01.57,0,.21.02.41.04.6.02.19.03.35.04.49h-1.87c.02-.12.04-.28.05-.47.02-.2.03-.4.04-.61,0-.21.01-.41.01-.58v-3.38l1.69-.69ZM145.73,22.18c-.02.16-.04.34-.05.57-.02.22-.03.43-.03.63v1.46h-1.7v-1.46c0-.21,0-.42-.02-.64-.01-.22-.03-.4-.06-.56h1.86ZM149.55,31.38c-.37-.3-.72-.57-1.05-.8-.33-.23-.66-.45-.99-.65-.33-.2-.68-.41-1.07-.62l1.08-1.25c.4.22.75.41,1.07.59.31.18.63.37.95.57.32.2.69.44,1.11.73l-1.09,1.43Z"/><path class="cls-2" d="M162.12,23.99c-.05.08-.13.2-.23.36s-.17.32-.23.46c-.18.41-.41.86-.67,1.37-.26.5-.56,1.01-.9,1.51-.33.51-.69.98-1.06,1.42-.49.55-1.02,1.09-1.61,1.62-.58.53-1.2,1.02-1.85,1.47s-1.31.83-1.98,1.15l-1.34-1.4c.7-.27,1.38-.61,2.04-1.01.66-.41,1.27-.85,1.83-1.33.56-.48,1.05-.94,1.46-1.39.29-.33.56-.68.81-1.05.25-.37.48-.74.68-1.11.2-.37.35-.71.44-1.02h-4.41c-.18,0-.37,0-.57.02-.2.01-.39.03-.57.04-.18.01-.31.02-.41.03v-1.85c.13,0,.29.02.48.04.19.02.38.03.58.04s.36.01.49.01h4.59c.29,0,.55-.02.79-.05.24-.03.42-.07.55-.12l1.07.79ZM159.21,28.03c.34.27.7.58,1.08.94.38.36.76.72,1.13,1.1.37.38.72.75,1.03,1.1.32.35.58.66.8.92l-1.48,1.29c-.32-.44-.69-.9-1.1-1.38-.41-.48-.84-.95-1.3-1.42s-.92-.92-1.38-1.35l1.22-1.2Z"/><path class="cls-2" d="M171.67,22.66c-.16.23-.31.47-.46.73s-.26.46-.34.6c-.29.52-.66,1.06-1.09,1.62-.43.56-.92,1.1-1.46,1.62-.55.52-1.13,1-1.74,1.44l-1.47-1.08c.57-.36,1.08-.72,1.51-1.09.44-.37.82-.74,1.14-1.11.32-.37.6-.72.83-1.07.23-.34.43-.65.59-.92.1-.16.21-.38.33-.64.11-.26.2-.5.26-.72l1.9.62ZM175.91,24.71c-.07.12-.14.27-.22.44s-.15.34-.21.5c-.11.38-.27.82-.47,1.31-.2.49-.46,1-.75,1.52s-.64,1.03-1.03,1.51c-.62.75-1.35,1.42-2.18,2.03-.83.61-1.85,1.15-3.07,1.64l-1.53-1.38c.88-.26,1.65-.56,2.29-.9s1.2-.7,1.68-1.09.9-.79,1.27-1.23c.3-.34.58-.72.83-1.15.25-.43.47-.86.65-1.28.18-.42.3-.8.36-1.12h-4.38l.6-1.47h3.72c.2,0,.4-.01.6-.04.2-.03.38-.07.53-.12l1.33.82Z"/><path class="cls-2" d="M188.78,26.6c-.04.09-.09.18-.14.29-.05.1-.08.19-.11.26-.2.62-.45,1.25-.75,1.87-.3.62-.69,1.2-1.18,1.74-.65.73-1.38,1.32-2.18,1.78-.81.45-1.62.8-2.46,1.03l-1.29-1.47c.98-.21,1.85-.51,2.61-.91s1.39-.85,1.89-1.37c.35-.36.63-.73.84-1.12.21-.39.38-.77.5-1.12h-6.28c-.16,0-.38,0-.66.01-.29,0-.57.03-.84.05v-1.69c.28.02.55.04.81.05.26.02.5.03.7.03h6.44c.21,0,.4-.01.57-.04s.3-.06.38-.09l1.16.71ZM179.93,22.83c.18.03.4.04.65.05s.49.01.7.01h5c.2,0,.44,0,.71-.01s.51-.03.69-.05v1.68c-.17-.02-.4-.03-.67-.03-.27,0-.53,0-.76,0h-4.98c-.21,0-.44,0-.68.01s-.47.02-.67.03v-1.68Z"/><path class="cls-2" d="M201.01,24.3c-.06.12-.11.27-.16.44s-.09.32-.12.46c-.08.32-.17.68-.28,1.07-.11.39-.24.8-.4,1.23-.16.42-.35.85-.56,1.26s-.45.81-.72,1.17c-.39.52-.84,1-1.36,1.46-.52.45-1.1.86-1.74,1.22s-1.35.67-2.12.92l-1.42-1.56c.87-.21,1.61-.46,2.24-.77.63-.3,1.17-.65,1.63-1.04.46-.39.87-.81,1.22-1.25.29-.36.53-.76.74-1.18s.38-.85.51-1.28.22-.83.27-1.2h-6.04c-.3,0-.59,0-.87.01s-.5.02-.68.04v-1.83c.13.02.29.03.47.05s.38.03.57.04.36.01.5.01h6.02c.13,0,.29,0,.47-.01s.37-.04.54-.09l1.29.83ZM199.66,21.84c.11.16.23.35.36.56.12.21.25.41.36.62.11.2.21.38.29.54l-1.09.46c-.09-.17-.18-.36-.29-.56-.11-.2-.22-.4-.34-.6-.12-.2-.23-.39-.34-.57l1.07-.44ZM201.48,21.52c.11.16.23.34.36.55s.26.42.38.62.22.39.3.55l-1.08.47c-.15-.27-.31-.57-.5-.9s-.37-.62-.54-.86l1.08-.43Z"/><path class="cls-2" d="M204.81,32.8v-9.63h1.92v3.81h3.64v-3.81h1.91v9.63h-1.91v-4.16h-3.64v4.16h-1.92Z"/><path class="cls-2" d="M215.39,32.8v-9.63h3.16c.71,0,1.35.09,1.92.29.57.19,1.02.51,1.35.94s.5,1.04.5,1.8-.17,1.33-.5,1.8-.78.82-1.34,1.05c-.56.22-1.19.34-1.88.34h-1.29v3.42h-1.92ZM217.32,27.86h1.16c.66,0,1.15-.14,1.48-.42s.49-.69.49-1.25-.17-.94-.51-1.16c-.34-.22-.85-.33-1.51-.33h-1.09v3.16Z"/><path class="cls-2" d="M227.15,22.76c-.03.09-.06.21-.11.36-.05.16-.09.31-.12.46s-.05.26-.07.34c-.04.18-.09.43-.14.73-.05.31-.11.65-.16,1.04s-.11.78-.16,1.18-.09.78-.12,1.14c-.03.36-.04.67-.04.93,0,.13,0,.27,0,.42,0,.15.02.29.04.42.06-.16.12-.31.19-.46.07-.15.13-.29.2-.44s.13-.29.19-.44l.79.65c-.12.36-.24.73-.37,1.12s-.24.76-.34,1.1c-.1.35-.18.64-.23.87-.02.09-.03.19-.05.31-.01.12-.02.22-.02.3,0,.07,0,.15,0,.25s.01.19.02.28l-1.47.12c-.14-.46-.26-1.05-.36-1.76-.1-.71-.16-1.51-.16-2.4,0-.49.02-1,.07-1.53.04-.53.09-1.05.15-1.54s.11-.95.18-1.36c.06-.41.11-.74.14-.99.03-.18.05-.39.08-.62.03-.23.04-.45.05-.66l1.79.16ZM233.49,22.62c-.02.12-.03.26-.05.4s-.02.29-.03.44c0,.14-.02.33-.03.56,0,.23-.01.5-.01.79v.92c0,.59,0,1.14.03,1.66s.04.99.07,1.43.05.84.07,1.2.03.7.03,1.01c0,.34-.04.65-.14.94-.09.29-.24.54-.44.75-.2.22-.46.38-.79.5-.32.12-.72.18-1.19.18-.9,0-1.61-.18-2.13-.55-.52-.36-.78-.89-.78-1.57,0-.44.12-.83.35-1.16.23-.33.57-.59,1-.78.43-.19.94-.28,1.53-.28s1.17.06,1.68.2c.5.13.96.3,1.38.52s.79.45,1.11.71c.33.25.62.5.88.73l-.9,1.36c-.49-.47-.97-.87-1.44-1.21-.47-.34-.93-.6-1.4-.78-.46-.18-.94-.27-1.44-.27-.36,0-.66.07-.89.21-.23.14-.34.33-.34.58s.12.45.35.57c.23.12.52.18.86.18.27,0,.48-.04.64-.14.16-.09.27-.23.33-.4.06-.18.1-.39.1-.64,0-.23,0-.52-.03-.88-.02-.36-.04-.77-.06-1.22-.02-.45-.04-.92-.06-1.41s-.03-.97-.03-1.44c0-.49,0-.94,0-1.35,0-.4,0-.7,0-.9,0-.1,0-.23-.03-.4-.02-.17-.04-.32-.06-.46h1.86ZM228.55,24.82c.37.04.75.06,1.12.08.38.02.76.03,1.15.03.8,0,1.59-.03,2.38-.1.79-.07,1.52-.18,2.18-.32v1.62c-.68.09-1.41.17-2.2.23-.79.06-1.58.08-2.37.08-.38,0-.76,0-1.14-.02-.38-.01-.76-.03-1.14-.06v-1.55Z"/><path class="cls-2" d="M240.75,28.86c-.06.23-.11.45-.16.66-.04.22-.06.43-.06.65,0,.42.21.76.63,1.03.42.27,1.1.4,2.03.4.59,0,1.16-.02,1.7-.07.55-.04,1.06-.1,1.55-.18.49-.08.92-.17,1.31-.27v1.83c-.37.09-.79.16-1.26.23-.47.06-.97.12-1.51.16-.54.04-1.12.06-1.72.06-.99,0-1.82-.11-2.48-.33-.67-.22-1.17-.53-1.5-.94-.33-.41-.49-.92-.49-1.51,0-.38.03-.73.09-1.04.06-.31.12-.59.17-.83l1.7.16ZM239.65,23.35c.48.05,1.01.09,1.61.12.6.03,1.24.04,1.92.04.42,0,.86,0,1.32-.03s.89-.04,1.32-.07c.42-.03.8-.06,1.13-.09v1.73c-.3.03-.67.05-1.1.08-.43.03-.88.04-1.34.06-.46.01-.9.02-1.32.02-.68,0-1.3-.01-1.88-.04-.58-.03-1.14-.06-1.66-.1v-1.72Z"/><path class="cls-2" d="M250.62,23.96c.42.07.87.13,1.35.17.49.05.93.07,1.34.07s.87-.01,1.37-.04c.5-.03,1.03-.07,1.58-.12s1.11-.12,1.67-.2c.56-.08,1.11-.18,1.64-.29l.03,1.55c-.42.07-.89.14-1.41.21s-1.07.13-1.64.19c-.57.06-1.14.1-1.69.14-.55.03-1.07.05-1.53.05-.5,0-.98-.01-1.44-.03s-.88-.05-1.27-.08v-1.61ZM255.16,22.44c-.07.23-.13.45-.17.67-.05.22-.09.44-.14.66-.04.21-.09.45-.15.71-.06.27-.12.55-.18.85-.06.3-.13.6-.21.9-.07.3-.15.6-.23.89-.08.29-.15.56-.22.8.53-.29,1.05-.5,1.57-.63.52-.12,1.07-.19,1.65-.19.7,0,1.31.12,1.84.35.52.23.93.56,1.22.97.29.42.44.9.44,1.46,0,.73-.17,1.34-.5,1.85-.33.5-.81.9-1.43,1.18-.62.29-1.36.47-2.22.55s-1.82.06-2.87-.05l-.46-1.68c.71.12,1.41.18,2.09.18s1.29-.07,1.84-.2.98-.34,1.31-.63c.33-.29.49-.67.49-1.15,0-.39-.16-.73-.49-1.01-.33-.28-.81-.42-1.44-.42-.75,0-1.45.13-2.07.39-.63.26-1.14.64-1.53,1.13-.06.1-.12.19-.17.27-.06.09-.12.19-.19.3l-1.53-.55c.24-.47.47-1,.68-1.6.21-.6.39-1.2.56-1.81.17-.61.3-1.17.4-1.7.1-.52.18-.95.22-1.28.04-.28.07-.51.08-.71,0-.19,0-.4-.01-.6l1.85.08Z"/><path class="cls-2" d="M266.39,24.95c-.04.17-.09.4-.14.67-.05.27-.09.56-.14.85-.04.29-.08.58-.12.84s-.07.49-.1.68c.59-.42,1.21-.74,1.85-.94s1.31-.3,1.98-.3c.76,0,1.41.14,1.95.42s.95.64,1.23,1.09.42.94.42,1.47c0,.59-.13,1.14-.38,1.64-.25.5-.66.93-1.24,1.29-.57.36-1.32.61-2.25.75s-2.07.17-3.42.05l-.49-1.7c1.3.17,2.39.2,3.28.07s1.55-.38,2.01-.75c.46-.38.68-.84.68-1.38,0-.29-.08-.54-.25-.76-.16-.22-.39-.39-.69-.52-.29-.13-.63-.19-1-.19-.73,0-1.41.13-2.05.4s-1.16.64-1.57,1.14c-.11.14-.21.27-.28.38-.07.12-.14.24-.2.37l-1.5-.38c.05-.25.1-.55.16-.89.05-.34.1-.71.16-1.11.05-.39.1-.79.14-1.19.04-.4.08-.79.12-1.18.04-.39.06-.75.08-1.07l1.74.25ZM266.31,22.33c.31.09.7.19,1.17.3.47.1.96.21,1.47.31.51.1.99.18,1.45.25s.83.12,1.11.16l-.39,1.59c-.26-.03-.57-.08-.94-.15-.37-.07-.76-.14-1.17-.21-.41-.08-.82-.16-1.21-.24-.4-.08-.76-.16-1.09-.24-.33-.08-.6-.14-.81-.2l.42-1.56Z"/><path class="cls-2" d="M311.52,25.6v6.26c0,.86-.71,1.56-1.56,1.56h-6.26c-.86,0-1.56-.71-1.56-1.56v-6.26c0-.86.71-1.56,1.56-1.56h6.26c.93,0,1.56.78,1.56,1.56ZM309.95,25.6h-6.26v1.56h6.26v-1.56ZM314.65,22.48v6.26c0,.86-.71,1.56-1.56,1.56h-.78v-1.56h.78v-6.26h-6.26v.78h-1.56v-.78c0-.86.71-1.56,1.56-1.56h6.26c.86,0,1.56.71,1.56,1.56Z"/></g></svg>