<?xml version="1.0" encoding="UTF-8"?><svg id="_レイヤー_2" xmlns="http://www.w3.org/2000/svg" viewBox="0 0 145.39 52.74"><defs><style>.cls-1{fill:#fff;stroke-width:0px;}</style></defs><g id="_レイヤー_1-2"><path class="cls-1" d="M48.39,1.65s-.02.02-.02.04l-.04.07c.08.36-.84,1.73-1.03,2.12v.02c-.22.41-.45.83-.62,1.26-.15.34-.43.64-.56.99-.39.39-.64,1.76-1.07,2.14,0,.02-.19.49-.21.53-.15.43-.39.86-.58,1.28-.28.64-.79,2.36-.96,3.04-.17.09-.15.38-.34.45-.11.04-.24,0-.36.04-.09.04-.15.13-.24.17l-.06-.04c.02-.09.06-.19.09-.28l.02.04c.06-.11.11-.43.21-.51-.02-.11.09-.36.09-.51l.02-.04v-.04c-.13.22-.23.38-.23.66,0,.09-.07.13-.15.17-.04.13-.09.28-.15.41-.02-.06-.06-.11-.09-.15l-.09.04c-.19-.09-.38-.11-.41-.34-.04-.22.45-1.8.56-2.1l.04-.02c.24-.39.47-1.29.56-1.76.04-.06.06-.13.09-.21l-.06.04c.17-.43.3-1.22.6-1.5.02-.11.08-.3.17-.36.88-2.19,2.1-4.24,3-6.41h.02c.02-.08.06-.15.09-.21,0-.08.04-.15.04-.23-.22.04-.47.08-.69.13l-.02-.06-.06-.04s.02-.06.02-.08l.02.02.02-.08.08.02s.08-.04.11-.07c-.34,0-.73.09-1.03.22l-.06.06c-.09,0-.11.02-.17.09-.06-.04-.06-.02-.06.04.3-.02.67-.3.99-.28l.02.06-.04.02h-.02s-.07-.08-.09,0l-.07.06c-.08-.04-.19,0-.26.04l-.06.08h-.06l-.04-.04s-.02.02-.02.02v.09h-.04l-.02-.02-.02.06s.06.04.09.02c.02-.02.06-.02.09-.02v.02l-.13.06s-.08-.08-.09-.09h-.06l-.02.04h.06l.06.06s-.04.02-.02.04l-.04.02h-.02l-.04.02s-.02-.06-.04-.06v.06s-.02.04-.02.04c-.02.02-.07-.09-.07-.09l.02-.02-.06.04-.02-.02s.02.09.02.13h.02l-.04.02s0-.08-.02-.09l-.04.02s.02.06.04.09l-.02.02-.08-.04.02-.02h-.04s0,.04-.02.02l-.04-.04.02.13h.02l-.08.04v-.08l-.09-.04-.17.06s0-.07-.02-.11c-.07,0-.11.04-.17.08v.04s.07.02.11,0l.02.06-.06.08v.08l.04.04-.02.02s-.09-.09-.15-.11v.02c.02.06.04.11.08.17-1.05.81-2.36,2.4-2.03,3.77l-.02.09c.02.08.13.51.17.53.06.04.13.06.17.11,0,.26-.19.19-.34.21v.02c-.21.3-.69-.51-.77-.67-.07-.17-.09-.39-.15-.56-.3-1.03.66-2.04.66-2.4.02-.04.32-.32.38-.43v-.04l.09-.09c.06,0,.08-.02.08-.08l.08-.08.06.02-.02-.08.04-.04h.06s.04-.09.08-.11h.04l.02-.06.08-.08h.04v-.02l.21-.17.06.04c.06,0,.02-.06,0-.08l.15-.09c.06,0,.23-.04.26-.09v-.04l.17-.11h.09l.04-.04v-.04l.15-.11h.04s.02-.02.02-.04c.34-.15.66-.34,1.01-.45.09-.08.19-.04.24-.09.09.11.02.08.11.04l.06-.09c.06,0,.09.08.11.11.02-.06.06-.11.09-.17.17.11.15-.06.24,0,.26.06.58-.04.84-.04.02.02,0,.04-.02.02l-.02.04h-.02v.04h-.04v.02c.06,0,.11,0,.17-.02.06-.04.45.04.54.06h-.06l.45.17v.02c.71.36.77.62.56,1.31ZM42.19,3.45s-.08.04-.11.02c-.04-.02-.04-.06-.06-.09l.04-.02-.08-.09.09-.08c.04-.06.06-.13.08-.21l-.06.02c-.11.17-.3.34-.38.53-.08.19-.41,1.11-.28,1.26-.04.11-.04.26.07.34-.09.09-.07.11.04.13.04-.04.04-.09.02-.15,0-.58.02-1.03.34-1.56l.04-.02.08.04-.02.08c-.08,0-.21,0-.11.11v.02c-.06.04-.04.09-.02.15-.04-.02-.08.02-.08.06-.02.04-.04.08-.04.11.02.06,0,.09-.04.13l-.02.11s0,.09.04.13l-.04.09-.06.02v-.02.02l.02.06.11.06-.02.06-.04.02.07.08c.06-.02.08-.08.09-.13,0-.04-.02-.09.02-.13l.07.02.08-.02v-.02l-.11-.02-.02-.04.04-.02.04.04v-.02l.06.02c.08-.09-.02-.17-.09-.22.04,0,.09,0,.13.02.11-.08-.11-.02.06-.13l.06-.24-.06-.08h.09c-.02-.06.02-.11.06-.15-.04-.04-.08-.08-.09-.13l.08.06s.06.02.08.02c0-.11-.06-.17-.17-.21ZM42.24,11.33l-.08-.04c-.04.28-.19.64-.28.9.15-.28.23-.58.36-.86ZM42.05,4.18l.02.04-.06-.04v-.02l.04.02ZM42.49,2.64c-.09-.06-.24.21-.26.28l.02.02v-.02s.19-.11.11-.15c.06-.04.09-.07.13-.13ZM42.41,3.41l-.13-.04-.04.02.13.11c.06,0,.06-.06.04-.09ZM44.21,1.13l-.06-.02c-.39.15-1.65,1.22-1.59,1.46.45-.51,1.05-1.05,1.63-1.41l.02-.04ZM43.37,9.56c.17-.47.43-.92.62-1.39.17-.41.47-.81.64-1.26.32-.88.88-1.67,1.29-2.51.08-.17.45-.77.45-.9-.34.39-1.48,2.72-1.74,3.32-.17.13-1.42,2.98-1.56,3.38.02.06.04.09.04.15l.26-.79ZM43.29,8.95l.07.06c.23-.6.51-1.22.86-1.76.19-.28.3-.71.45-1.03.24-.49.51-.99.79-1.46.06-.11.24-.41.24-.53.13-.24.43-.73.51-.99l-.02-.06-.04.02h-.02c-.3.47-.94,1.65-1.18,2.16-.04.08-.13.28-.19.3l-.04.06.02.11c-.28.11-.21.62-.41.83-.09.26-.28.53-.32.79-.17.15-.53,1.14-.73,1.52ZM44.23,1.44h.02v-.02l-.02.02ZM44.64.84s-.06,0-.08.02v.02l.04.02.04-.06ZM44.72.81s-.04,0-.06.02v.04h.04l.02-.06ZM44.9,5.18c.21-.39,1.07-1.8,1.11-2.01h-.04c-.08.22-.45.83-.58,1.07h-.02l-.47.94ZM46.52,2.31c-.04.08-.19.34-.26.39l-.02.09h.02c.11-.15.21-.3.26-.49ZM46.25,3.08l.06-.02.06-.13-.04-.02-.08.15v.02Z"/><path class="cls-1" d="M55.24,9c.08.17-.49,1.31-.64,1.46l-.04-.02c.11-.19.24-.39.32-.6l-.11.13v.02l-.06.06c-.04.11-.13.28-.19.39.02.02,0,.04-.02.02l-.09.17v.02s-.09.15-.11.17c-.02.09-.08.19-.15.26v.04l.04-.02c.09-.23.24-.41.36-.62l.04.04s-.21.32-.21.34c-.02,0-.02.02-.02.04-.06.08-.08.19-.11.28v-.02c-.26.45-.58.88-.92,1.29v-.02l-.06.08-.02.02h-.02v.06c-.39.41-.84,1.29-1.54.86,0,.02-.02.04-.04.04-.04,0-.09-.07-.13-.11l-.04-.02h-.02c-.09-.13-.24-.36-.39-.43l-.23-.36s0-.04.02-.04l.08.08c.02.08.08.15.13.21,0-.02-.02-.09-.04-.08-.02-.06-.09-.09-.11-.19-.02-.02-.08-.06-.06-.08l-.06-.09s0-.04-.02-.04c0,.06.04.11.07.15l-.04.02h-.02c-.06-.08-.06-.17-.11-.24t0-.02l-.09-.17c.02-.06-.08-.19-.06-.22l-.04-.09s0-.09-.02-.13c.08-.36.08-.73.17-1.09.04-.19.13-.36.17-.54l.04-.04c0-.06.02-.11.04-.17l.06-.06s0-.04-.02-.02c.11-.39,1.2-3.04,1.41-3.3-.15-.09-.3-.11-.47-.09l-.09.06c.11-.02.21-.04.32-.02v.04c-.15.04-.26.04-.41.09l.11-.04c-.54.23-1.43,1.28-1.73,1.8v.02l-.08.11v.02c-.49.69-.92,1.39-1.28,2.18v-.02l-.06.11.02-.02-.02.06-.02.02c-.13.39-.34.79-.45,1.2-.08.26-.09.54-.19.79-.04.11-.09.3-.17.38.02.13.04.26.04.39l-.09-.06-.04.04-.15-.11-.02-.02h-.02c-.08-.08-.13-.13-.19-.23v-.02c-.17-.17-.3-.32-.43-.53,0-.02,0-.04.02-.06.08.11.17.22.23.34-.06-.13-.13-.24-.21-.36,0-.02-.02-.02-.02-.04s-.08-.11-.08-.13l-.04-.08v-.02s-.06-.08-.06-.11c0,.04.02.09.04.13.04.08.06.17.11.22l-.04.02c-.06-.08-.06-.17-.11-.24v-.02c-.06-.06-.06-.11-.09-.17v-.04l-.06-.11v-.07h-.02c-.13-.56.19-1.58.17-1.63.08-.15.09-.34.15-.49l.06-.06s0-.04-.02-.02c.19-.54.38-1.09.58-1.63.21-.56.43-1.14.69-1.69.06-.11.13-.21.17-.34.08,0,.32.13.39.19.06,0,.09.02.11.08,1.16.86.62,1.11.21,2.23.56-.58,1.41-2.19,2.33-2.33t.02.02c.58-.13.45-.22,1.07-.08l.02.06.3.17c.06,0,.11.02.13.08.22.17.47.34.62.58.24.36-.06.69-.21,1.01-.26.6-.49,1.22-.71,1.82l-.04.04c-.11.28-.6,1.76-.64,1.84,0,.04,0,.08-.02.09h-.06l.04.02s-.02.08-.04.11v.11s-.02.06-.02.09c-.02.02-.09.32-.11.38-.02,0-.02.02-.02.04l.02.02-.02.04c.02.06-.06.39-.09.43v.08l.04.04s0-.04.02-.02c.08,0,.13-.04.19-.09.56-.19,2.33-3.53,3-4.2.15.02.22.04.28.19ZM47.14,9.77c.21-.6.47-1.18.69-1.76.02,0,.04,0,.04-.02v-.04h.02c.09-.24.26-.45.36-.69v-.02s.13-.28.15-.34l.02-.02v-.04s.02,0,.02-.02-.04-.04-.06-.04l-.02.04v.02c-.08.19-.22.39-.32.58v.02l-.04.02v.06l-.04.02c-.02.06-.06.11-.04.17l-.04.04c.02.06-.08.13-.09.19v.04s-.04.04-.04.06v.02c-.04.06-.06.11-.08.17l-.02.02h.02c-.32.79-.67,1.59-.81,2.42.13-.28.17-.6.26-.88ZM47.79,7.69l-.06.09s0,.04.02.02c0-.04.02-.08.04-.11ZM47.81,7.65c.06-.08.11-.15.13-.22,0,0,.32-.54.36-.64v-.04s-.04,0-.02.02c-.07.08-.19.32-.22.41l-.02.02c-.02.06-.04.11-.08.15-.04.11-.09.21-.15.3ZM48,12.12l.02.02c.02-.06,0-.15,0-.09l-.02.08ZM48.07,12.17h-.02c-.04.09-.04.21-.04.3.02-.06,0-.19.06-.24v-.06ZM48.47,10.67l-.21.49h.02l.04-.04v.06l-.04.06s-.06,0-.04.02l.04.02c-.15.15-.13.39-.22.56v.06l-.02.02v.04c.04.09.17-.39.19-.47.06-.19.17-.36.21-.54l.02-.02-.02-.04v-.02l.04.02.04-.11s-.02-.02-.04-.02l.04-.04v.02l.02-.04v-.02h-.06ZM48.3,11.42c-.08.23-.17.45-.15.49l-.02.04s.04,0,.02-.02c.06-.15.09-.32.15-.51ZM48.22,11.27v.02h.02l-.02-.02ZM48.41,11.1l-.02.02v.04s.02-.04.02-.06ZM48.75,10.41l-.17.3v.02c-.08.11-.11.22-.15.36,0-.02.02-.06.04-.07.08-.13.17-.3.21-.43l.02-.02c0-.06.04-.09.06-.15ZM48.52,10.61v-.04s-.04.06-.04.08l.04-.04ZM48.58,10.86l-.06.13h.02l.04-.09v-.04ZM48.58,10.52v-.07s-.02.06-.04.09l.02-.02h.02ZM48.69,10.22v-.04l-.11.22.09-.13.04-.02.02-.04h-.04ZM48.62,10.78l-.04.08s.04-.04.04-.08ZM48.64,10.43l.04-.04s-.04,0-.06.02l.02.02ZM48.69,10.16c.13-.09.17-.28.24-.43l-.09.09s-.08.17-.15.34ZM49.07,9.66s-.02.02-.02.04t.02-.04ZM49.78,8.53v-.02c-.04.07-.09.13-.15.19v.04c.06-.06.11-.13.15-.21ZM49.99,8.18l-.17.26.02.02.04-.04.02-.08h.02l.02-.04v-.02s.06-.08.06-.11ZM49.99,8.18l.06-.08-.04.06s-.02.02-.02.02ZM50.77,7.22l-.19.17c.06-.04.13-.09.19-.17ZM50.79,12.34l-.02-.08-.02-.02c-.04-.06-.06-.13-.06-.19l-.02-.02c-.02.08.08.22.11.3ZM50.77,7.22s.06-.08.09-.11h-.02l-.08.11ZM51.09,9.85c.26-.73.6-1.58,1.03-2.23v-.02l.19-.28.02-.09c.04-.06.08-.11.09-.19l.02-.02v-.04s0-.04-.02-.06c-.08.21-.26.45-.38.66-.02,0-.04,0-.04.02l.02.04c-.06-.02-.09.15-.09.19l-.04.04c-.02.08-.08.11-.09.19v.04h-.02s-.02.06-.02.08c-.04.02-.08.08-.06.11,0,.02-.06.08-.02.08-.34.51-.69,1.67-.86,2.31.13-.26.17-.54.26-.81ZM51.47,6.15h.04-.04ZM51.52,13.37s-.04-.02-.04-.02l.04.02ZM51.75,7.88s0,.04.02.04v-.02c.06-.08.13-.21.17-.3-.06.09-.11.19-.19.28ZM52.37,13.37l-.02-.02c-.07.04-.15.08-.21.13.08-.02.15-.07.23-.11ZM53.83,11.36l-.04-.02-.22.32-.04.02c-.22.45-.62.81-.88,1.24l-.06.04s-.17.24-.17.24c.02.04.11-.07.13-.09.11-.11.49-.54.52-.66.02-.02.06-.04.06-.08.02,0,.04-.02.06-.04v-.06l.06-.02c.06-.06.09-.13.11-.21l.08-.08c.02-.09.08-.17.15-.24v-.04l.04-.02c.04-.09.13-.26.21-.32ZM53.57,11.89v.02c-.06.08-.32.47-.36.49v.02c-.08.11-.23.22-.28.34l-.06.04s-.34.45-.36.47c.06.04.19-.21.23-.24.17-.21.34-.41.52-.6,0-.04.04-.09.08-.11l.06-.09h.02c0-.08.13-.24.17-.28,0-.02,0-.04-.02-.04ZM54.88,9.83s.04-.06.06-.08l-.06.08Z"/><path class="cls-1" d="M56.86,5.76c.24.13.58.41.73.58.26.28.32.39.34.54-.6.56-1.37,1.44-1.26,2.21l.02.04c-.06.28.41,1.29.56,1.58.36-.26,1.12-.77,1.42-1.07l.02-.04-.02.02c.08-.11.17-.15.23-.24.06-.08-.11.04-.13.06-.11.11-.21.24-.34.34-.02-.08.39-.51.77-.92.3.04.43.23.47.41-.3.38-.64.75-.71.86-.28.23-1.14.94-1.48,1.12.28.66.54,1.76.32,2.48-.04-.04-.02.13-.04.17l-.02.02v-.08c-.02.08-.04.15-.08.23h-.06v-.06l-.04-.02v.04l-.06-.02c0-.08.02-.17.02-.24l-.04-.02s-.02.09-.02.13h-.02c-.02.13-.09.24-.15.36l.15-.09.04.04-.15.13.02.04.06-.06h.02l.02.06c-.21.21-.49.34-.73.49h-.04l-.06.04v.02c.15-.08.36-.17.49-.26v.02l.02.04c-.17.11-.34.21-.53.28l.06-.02c-1.03.49-2.83.34-3.15-.97.02-.04.02-.08.02-.11l.02-.04c.09.69.71,1.14,1.37,1.31-.3-.09-.6-.22-.83-.45-.11-.04-.39-.38-.39-.49-.32-.64.02-1.31.51-1.74l.04-.04c-.13.04-.39.38-.45.51-.13.08-.24.62-.24.79,0,.04-.04.02-.04,0,0-.38.13-.51.24-.83.02-.02.06-.04.04-.06.11-.19.24-.3.36-.47l-.02.02c.41-.45,1.56-.97,2.14-1.2-.19-.24-.51-.58-.58-.9l.02-.04v-.04l.06-.04c.08.26.32.62.49.88l-.6-1.26c0-.06-.04-.11-.04-.17-.08-.17-.13-.24-.13-.45l-.02-.02-.04.06c.09.28.15.64.3.9l-.09.02c-.04-.08-.17-.49-.19-.51.06,0,0-.04-.02-.06-.08-.11-.13-.26-.17-.39v.04c-.17-.67.02-1.42.32-2.04v.02l.06-.09h-.04l.04-.04h.04s0-.06-.02-.08c.09-.13.09-.3.19-.41.13-.17.34-.3.49-.43v-.02c.04-.08.11-.09.15-.15l-.02-.02.39-.19ZM56.48,11.72h-.06l.02.02c-.67.3-3.23,1.56-2.38,2.61,1.09,1.41,3.47.19,2.42-2.63ZM55.06,12l-.19.08.02.02s.08-.06.17-.09ZM55.13,11.95c.17-.09.36-.19.41-.19.21-.15.58-.28.81-.39l-.02-.06c-.06.02-.19.11-.24.11-.22.09-.66.36-.96.53ZM55.54,7.93l.02-.02c0-.09.17-.66.21-.67,0-.04.41-.71.45-.75.06-.06.22-.21.24-.28.04-.08-.09,0-.11.02-.04.02-.13.17-.15.21-.15.26-.41.49-.51.77h-.02s-.09.26-.09.28c0,.06,0,.11-.02.17-.06.06-.04.17-.06.23,0,0,.02.06.04.06ZM56.33,6.85c0-.06.06-.08.04-.13.02-.04.19-.28.24-.3l.06-.08-.02-.04-.06-.02c-.17.04-.66.79-.66.94-.02,0-.04.04-.02.06l-.06.02-.02.02.04.07s-.06,0-.08.02c0,.06-.02.13-.04.19.02.07-.02.13-.04.19,0,.09-.02.19-.06.28,0,.04,0,.08.02.11l-.06.04s0,.11.02.15c-.02.09-.02.22-.02.32h.06c0-.19,0-.34.09-.51v-.06c.23-.41.13-.79.54-1.27ZM55.94,11.4l-.15.08-.02.02h.02c.17-.09.38-.19.56-.24l-.04-.04c-.11.08-.24.13-.38.19ZM56.82,7.93l-.06-.04c-.04.11-.08.21-.09.32.04-.09.07-.21.15-.28ZM57.12,13.09v-.17s-.02.11,0,.17ZM57.1,7.58c.13-.13.58-.45.58-.62h-.08c-.15.22-.38.38-.51.62ZM57.29,10.78c.09-.04.24-.13.39-.24-.17.11-.32.21-.41.22l.02.02ZM58.88,9.6h-.04v.02s-.13.06-.11.11c.04.09-1.31,1.14-1.39,1.09h-.04l.04.07c.06-.02.24-.11.26-.15.06-.02.71-.43.73-.51.13-.13.39-.38.51-.54v-.04s.04-.04.04-.06ZM58.75,9.62s0-.02.02-.02l-.02.02ZM59.24,9.04l-.24.32.02.02c.09-.11.17-.21.22-.34Z"/><path class="cls-1" d="M60.54,6.62l.06.02c-.04.06-.21.66-.28.94l.19-.17-.04.13c-.13.17-.19.39-.3.58l.02.09c.06-.07.19-.39.24-.43l.09-.23s.09-.04.15-.06c-.04.04-.36.75-.39.83l.07.06c.09-.21.32-.51.38-.73.09-.08.06-.21.15-.28,0-.02.75-1.74.79-1.82,0-.04.02-.11.07-.11v-.02c.13-.17.21-.47.3-.66l-.02-.04-.13-.06c-.19.49-.45,1.09-.71,1.58l-.04-.13-.02.02c0-.13.28-.6.32-.77.11-.07.11-.32.23-.39.02-.06.06-.11.06-.17l.09-.39c-.02.06-.08.13-.08.15v.04c-.09.19-.21.53-.36.66-.04,0-.09-.02-.13-.02-.02-.04.24-.54.28-.64,0-.08.26-.69.17-.53-.04.06-.6,1.13-.81,1.35l-.13.02c.17-.24.21-.62.41-.83.08-.26.28-.54.38-.81l-.04-.02.02.02c-.54-.23-1.31-.58-2.16-.88-.09-.06-.08-.13.04-.19.11.04.23.06.3.09.09.04.17.11.26.11.24.08.45.24.69.3v-.02c-.28-.11-.73-.36-1.01-.49.08-.11.09-.17.24-.19.64.24,1.26.51,1.91.77.17-.34.6-.97.64-1.31-.15.32-.26.69-.54.92.11-.28.99-2.06,1.18-2.14.11-.04.53.09.64.15l.04-.02c.15.13.41.04.51.28l.62.39c-.08.28-.32.47-.45.73-.28.56-.54,1.11-.84,1.65.41.13,1.67.43,2.33.13.22.11.19.69-.04.71-.21.06-1.37.07-2.51-.39-.96,1.84-1.91,3.77-2.51,5.76-.13.45-.21.92-.32,1.37-.11.43-.21.86-.21,1.31.06.08.09.15.15.21.04.04.21.02.24.02,1.13-.13,3.28-3.13,4.01-4.07l.38.19c-.36.58-.69,1.2-1.11,1.74h-.04l-.02.04h-.04c.15-.22.36-.49.53-.75-.17.23-.47.53-.56.73,0,.02-.15.21-.17.24-.06.08-.09.15-.15.21.11-.11.23-.24.32-.39l.04.02c-.09.15-.26.28-.34.43-.02-.02-.04.02-.04.04l-.21.3c-.43.51-1.03,1.03-1.59,1.41-.04.04-.07.04-.09.06h.02l-.06.04h-.02c-.09.11-.45.26-.56.28-1.5.28-2.21-2.29-1.93-3.41.04-.15.22-.56.21-.68.08-.09.71-2.51,1.01-3.09.04.08.09.13.15.17l-.13.34-.06.06c0,.24-.09.24-.15.49-.02.02-.06.04-.06.08.02.09-.17.64-.21.77.11-.34.3-.66.41-.99,0-.04.02-.11.04-.17l-.02.02v-.08l.13-.26h.02l.04-.07s-.04.02-.04,0l.04-.02v.02l.04-.09s-.04.02-.04,0l.06-.09s-.02.06-.02.09l.02-.04ZM59.62,9.21c-.06.06-.06.15-.09.21-.07,0-.06.13-.04.17-.02.06-.02.17-.06.21-.04.08-.04.24-.04.34.02-.08.06-.13.09-.19-.02-.13.09-.54.13-.73ZM59.62,2.91v-.02c-.06-.04-.11-.06-.19-.06.06.02.13.04.19.08ZM59.83,9.32s-.04-.07-.06-.11l-.02.04c0,.15-.04.28-.04.41l.02.04c.04-.07.06-.34.09-.38ZM59.87,7.5s-.02.06-.04.07c0-.02.02-.06.04-.07ZM60.09,7.56s.04-.08.07-.11c0,.06-.04.09-.06.15l-.02-.04ZM60.28,7.26l-.06.11s-.02,0-.02-.02l.04-.11s.04,0,.04.02ZM62.81,12.08l-.02-.02c-.04.06-.47.41-.51.43-.49.64-1.5.92-1.54.96-.17-.02-.38-.04-.51-.17v.04l.02.04c.23.15.81.19.99,0,.17-.04.28-.21.41-.22.02-.02.04-.04.04-.06.11-.04.24-.17.3-.26.15-.09.23-.22.38-.32l.04-.06.06-.02c.04-.06.28-.28.34-.34ZM62.32,12.66l-.02-.02v.02c-.39.39-1.52,1.26-2.06.71v.04c.41.41,1.41-.09,1.74-.43h.02c.02-.06.06-.09.11-.11l.21-.21ZM60.32,7.58c-.02.06-.04.11-.04.13.04-.04.04-.09.04-.13ZM60.35,7.05s.02,0,.04-.02c.04-.06.02-.13.06-.19l-.09.21ZM60.62,7.16c0,.09-.04.13-.09.19.02-.08.13-.21.04-.26l.02-.06.08.02.04-.02s-.04.09-.08.13ZM60.84,5.83c0,.06-.21.56-.26.67h-.02c.02-.11.21-.62.28-.67ZM60.67,6.77s.02-.04.04-.06l.04.02-.06.02-.02.02ZM60.75,7.07l-.06.15s.02-.11.06-.15ZM60.75,7.28l-.02-.06.06-.02-.04.08ZM60.86,6.51l.06.02-.04.04-.02.06s-.04-.08-.04-.11c0-.02.04-.02.04,0ZM60.9,5.7s0,.06-.04.08c-.02-.04-.02-.08,0-.09.02,0,.04,0,.04.02ZM60.86,6.4c.04-.08.08-.13.13-.19l.02-.08h.02l.04-.26h.08l.02.02c-.04.13-.09.24-.15.36v.02c-.04.06-.06.13-.07.19l-.08-.06ZM60.92,5.59v-.02s.02,0,.02.02h-.02ZM61.01,6.51l-.02-.08.06-.11.11-.02c-.06.17-.15.34-.21.51,0-.13.02-.19.06-.3ZM60.99,6.38s0-.04.02-.06c0,.02,0,.04-.02.06ZM61.25,5.33l.04.06h.07c-.02.13-.11.21-.15.32,0,.04,0,.09-.04.13l-.06-.06c.04-.08.06-.15.06-.22.02-.04.09-.17.08-.23ZM61.44,13.39l-.13.08h.02l.11-.06v-.02ZM61.52,13.35l-.06.04s.04-.02.06-.04ZM61.57,3.73l-.02-.02s-.04-.02-.06-.02l.08.06v-.02ZM61.7,4.07l-.04.08c.02-.06.04-.08.04-.08ZM61.82,4.41c.02-.06.04-.11.04-.17l-.04.06v.06s.02.04,0,.06ZM62.08,4.61c0-.07.08-.09,0-.19.34-.66-.06-.15-.11.09l.04.08.08.02ZM62.45,12.55v-.02s-.08.06-.09.09c.04-.02.08-.04.09-.08ZM62.49,12.58l-.04.04s.04,0,.06-.04h-.02ZM63.54,11.44c-.09.13-.21.24-.3.34l.06-.02c.08-.08.13-.17.23-.26l.02-.06Z"/><path class="cls-1" d="M72.34,9.88c-.11.15-.17.38-.24.54-.02,0-.04.02-.06.04l-.04-.02s.13-.3.21-.49l-.24.49h.02l-.02.02-.08.17-.02.02v.04s-.04.08-.08.11c.02.08-.09.23-.13.28v.04c.06-.06.09-.17.15-.24v-.06h.02s.15-.3.17-.34l.04.04s-.17.32-.17.34c-.02,0-.09.28-.11.32v-.02c-.04.08-.11.24-.17.3-.07.21-.51.82-.62.99v-.02l-.06.08-.02.02c-.08,0-.13.26-.17.32-.11.15-.26.3-.39.43-.47.47-.47.19-.79.24-.04-.02-.07-.04-.11-.08l-.04.04-.17-.13h-.02l-.23-.24v-.02c-.15-.11-.39-.34-.47-.53v-.04c.09.09.17.23.26.32l-.06-.09v-.02c-.07-.08-.11-.17-.19-.22v-.04s-.11-.11-.09-.13c-.04-.09-.13-.17-.13-.28l-.02-.02c-.02.08.17.38.21.45l-.02.02c-.08-.08-.09-.13-.13-.24l-.02-.02-.09-.13v-.04l-.08-.15s.02-.11-.02-.08c-.11-.26-.09-.6-.06-.88l-.02.06h-.02l-.02.02-.11.24h.02l-.17.22-.04.02c-.09.19-.69.81-.83.9v.02h-.02c-.09.36-1.07.79-1.41.81l-.45-.39s-.09-.08-.06-.04l-.3-.24c0-.06,0-.09-.02-.15-.04-.02-.04-.08-.06-.13,0,.07,0,.15.02.21l-.08-.06-.08-.41v.04c-.08-.81-.11-1.56.08-2.34l.04-.02.02-.04h.04c-.08.32-.17.66-.17.98-.04.06-.04.11-.04.17.02-.02.09-.43.09-.47l.04-.09c-.02-.13.06-.24.06-.36.04-.08.06-.19.06-.28l.09-.24s0-.08.02-.09c.04-.04.04-.11.08-.15-.02-.11.13-.36.19-.47l-.06.06c-.04.11-.09.21-.15.32v.08h-.02c0,.06-.15.41-.19.49h-.04c.02-.07.19-.51.19-.52.02-.02.02-.04.02-.06.06-.13.06-.24.13-.38h-.02c.47-1.78,2.66-2.85,4.22-1.48v.02c.13-.34.3-.69.41-1.05.13.02.28.11.39.19.06,0,.11.02.13.08.24.17.49.34.67.58.28.38.02.66-.11,1.01-.17.51-1.01,3.17-1.01,3.66l-.02.04s0,.08-.02.09c-.02,0-.04,0-.04-.02-.02.04-.15.32-.04.21v-.08s.04-.08.04-.11l.04.02s-.02.08-.04.11v.02l.02.07-.02.02s.02.04,0,.09c-.04.02-.07.32-.07.38v.04h-.02l.02.02c0,.08-.02.43-.06.47v.08l.04.04.02-.02c.07,0,.13-.04.17-.09.08-.02.13-.07.15-.15.66-.43,1.8-3.39,2.46-4.05.66.11.15.69.09,1.07ZM64.57,12.17s.02-.08-.02-.09c.02.04.02.06.02.09ZM64.57,12.17v.04s.02-.02.04-.02l-.04-.02ZM65.47,9.43c.04-.06.08-.11.09-.19.02-.02.51-.75.54-.83h-.02v-.04l-.04.04s-.09,0-.13-.02c-.02,0-.02-.02,0-.02l-.02-.02v.02c-.15.28-.34.6-.45.9.04.04.02.09.02.15ZM68.01,9.88c.15-.24.26-.47.47-.66.17-.54.32-1.09.51-1.63-.21-.15-.41-.26-.66-.36-1.74.84-2.96,3.6-2.74,5.44l.06-.06c.53-.17,2.03-2.17,2.36-2.74ZM65.91,13.09l-.02-.02-.21.11.23-.09ZM66.06,8.93l-.04.02-.04.08v.04c-.04.06-.13.15-.15.22h.02c.13-.11.19-.34.32-.43.06-.19.24-.45.34-.64.04-.04.06-.06-.02-.06-.02.04-.06.08-.09.11l.02.02-.06.04c-.06.13-.15.39-.26.51,0,.04-.02.06-.04.09ZM67.5,11.44h-.02l-.19.23-.09.06c-.13.38-.71.64-.88.96-.09.06-.17.15-.26.19l-.06.06s-.02.04-.02.04l.02.02v-.02c.17-.09.67-.41.73-.58l.08-.07h.04l.02-.02v-.04l.04-.02c.07-.09.13-.19.21-.26.04-.09.15-.15.17-.22l.04-.02.04-.06v-.04s.13-.13.15-.19ZM66.06,8.7c0,.09.21-.3.22-.32h-.06l-.17.32ZM67.26,11.91h-.02c-.09.15-.22.3-.36.43h-.02c-.06.09-.43.38-.52.47l-.23.17s-.04.02-.04.04h.02s.08-.04.09-.07c.06,0,.66-.51.73-.58.02-.06.11-.13.15-.19h.02c.04-.09.13-.13.17-.22v-.04ZM67.05,12.43v.02l-.06.06h-.02l.08-.08ZM67.05,12.43l.06-.08s-.02.06-.06.08ZM67.67,11.68s-.02.04-.06.04c0-.04.04-.04.06-.04ZM68.1,10.82s-.04,0-.02.02c-.02.06-.06.09-.09.13v.02c-.04.09-.09.17-.17.23v.04c.06-.04.17-.21.19-.26h.02s.08-.11.08-.17ZM68.03,11.05s.02,0,.02,0h-.02ZM68.29,10.69s.02-.02.02-.02l-.02.02ZM68.34,12.26h-.02s.02.02.02,0ZM68.34,10.48c.04-.08.06-.13.08-.21-.06.06-.08.13-.08.21ZM68.48,6.86c.13.04.24.13.38.17-.11-.06-.26-.17-.38-.19v.02ZM69.04,8.08h-.04v.08s-.06.08-.04.11c0,.02-.06.08-.02.08-.08.21-.15.39-.21.6.15-.32.69-1.8.84-1.93q0-.06-.04-.09c-.13.38-.51.75-.51,1.16ZM69.08,7.65l-.11.23s0,.04.02.04v-.02s.06-.09.06-.13l.06-.11h-.02ZM69.34,7.09l-.04.08c-.08.13-.02.04.04-.08ZM69.34,7.09l.11-.17c0-.09-.06.08-.11.17ZM69.41,13.09l-.02-.02s.02.02.02.02ZM70.09,13.35c-.08.04-.15.08-.21.13.04-.02.22-.09.21-.13ZM71.36,11.36l-.04-.02c-.23.3-.38.71-.62.99v.02c-.06.09-.17.17-.21.28-.04.04-.24.36-.3.45-.02.04-.07.06-.07.09,0,.02.02.04.04.04v-.02l.04-.02s.04-.06.06-.08c.09-.09.13-.21.22-.3.06-.13.26-.22.26-.39l.02-.04.06-.02v-.08l.06-.02c.04-.06.11-.24.15-.28.02-.09.06-.19.13-.24v-.04l.04-.02.04-.08v-.04c.04-.06.11-.13.13-.21ZM71.16,11.89v.02c-.11.17-.19.36-.32.51-.06.08-.24.24-.24.34-.08.06-.24.36-.36.47v.04c.19-.26.43-.62.66-.84.02-.08.09-.15.13-.21,0-.08.11-.21.15-.28,0-.02,0-.04-.02-.04ZM72.28,9.83l.02-.02.04-.09-.06.11Z"/><path class="cls-1" d="M78.18,7.58c.19.23.06.3-.02.54-.56,1.8-.92,3.77-1.65,5.51-.6,1.44-2.01,4.09-3.84,4.09-.49,0-.99-.17-1.37-.49,0-.06.02-.13.02-.19.02-.04.02-.08.06-.09.34.39,1.41.11,1.65-.3.09-.06.17-.15.26-.23.08-.15.17-.3.26-.45-.08.11-.15.24-.19.38.19-.23.32-.47.49-.69.06-.08.15-.11.21-.19.17-.24.24-.58.36-.86-.08.19-.17.34-.22.43-.21.3-.45.6-.64.94.49-.86.92-1.72,1.29-2.64l.11.02c-.11.26-.32.77-.51,1.16.08-.15.19-.28.26-.45v-.11c.41-.41.51-.99.64-1.54-.08.19-.15.38-.24.56l-.09-.06c.24-.66.43-1.37.69-2.04-.04.06-.11.09-.11.15-.02,0-.06,0-.04.02l-.15.24h.02l-.19.22-.04.02c-.09.17-.73.79-.9.9l-.02.02h-.02c-.09.34-1.12.79-1.46.81l-.43-.39-.04-.04c-.09-.07-.19-.15-.26-.24-.02-.06-.02-.09-.02-.15l-.06-.11c0,.06,0,.13.02.19h-.02l-.06-.06c-.04-.15-.04-.36-.04-.51,0-.81.06-1.46.34-2.27h.04c-.08.36-.26.77-.3,1.14.13-.23.11-.53.22-.75,0-.11.09-.28.11-.41,0-.02,0-.04.02-.04.06-.11.11-.23.15-.34.13-.13.19-.41.3-.58v-.04c-.19.3-.3.64-.49.94h-.04c.04-.13.22-.45.22-.52.02-.04.04.02.04-.06l.17-.38h-.02c.43-.66.83-1.31,1.48-1.78l-.02.02c.06-.02.11-.04.15-.08h-.04l.08-.04.02.02c.62-.53,1.99-.17,2.57.3.04-.11.08-.19.19-.22.11-.19.98.58,1.09.71ZM71.99,12.17v.04s.02-.02.04-.02l-.04-.02ZM75.67,9.85c.13-.15.22-.34.36-.49.06-.06.15-.11.19-.19.02,0-.02.08.02.04.28-.51.39-1.09.54-1.65-.11-.11-.41-.26-.56-.32-1.05.11-1.44,1.29-1.97,1.86-.08.09-.62.96-.69,1.11-.08.15-.38.99-.39,1.01,0,.06-.28.9-.32,1.07-.04.17-.09.51.19.34.06-.04.13-.02.17-.09,1.05-.73,1.63-1.78,2.48-2.68ZM73.25,13.09l-.02-.02-.22.11c.08-.02.17-.06.24-.09ZM73.14,9.41l.02.02c.23-.36.51-.66.73-1.01h-.02v-.04l-.04.04s-.09,0-.13-.02l.02-.02-.02-.02-.02.02c-.21.26-.38.62-.54.9l.04.09-.02.04h-.02ZM73.17,8.29h.02c.04-.09.73-.96.86-1.07,0,0,.32-.23.36-.26.19-.08.38-.11.56-.19.32,0,.62-.08.94.02.04.02.08.02.11.02l.04.02h.08s-.04-.02-.02-.04c-.66-.19-1.31-.15-1.89.21l-.02.06c-.13,0-.68.64-.69.75l-.06.04-.28.45ZM74.99,11.44h-.02c-.47.47-.99,1.12-1.59,1.44l-.02.04s-.04.02-.04.04l.02.02v-.02c.28-.08.68-.47.86-.66h.04s.04-.04.04-.06c0,0,.43-.47.45-.51l.04-.02c.04-.06.22-.26.22-.28ZM73.87,16.56s-.21.09-.22.08v-.02l-.09-.02-.06-.04.04-.04v-.07l-.06-.02-.09.04s.08.06.11.09l-.06.09.08.08.11.04c.08-.02.15-.06.23-.09,0-.04,0-.08.02-.11ZM74.71,11.91h-.02c-.21.32-.54.49-.81.75-.08.08-.19.15-.28.21l-.15.11s-.04.02-.04.04h.02c.23-.11.71-.49.88-.66h.02c.02-.06.11-.13.15-.19h.02c.06-.09.13-.15.21-.22v-.04ZM73.44,7.71h.02s.04-.06.06-.09l-.08.09ZM73.79,8.89v.04l-.06.02c-.06.09-.15.28-.23.34h.04c.09-.15.24-.28.34-.43.08-.13.19-.26.26-.39l.15-.24.04-.04s-.02-.02-.04-.02h-.02l-.04.06h-.02l-.04.06v.02l-.06.04c-.02.07-.09.15-.09.22l-.24.34ZM73.79,7.31c.02-.06.09-.09.13-.13.28-.28.64-.45,1.03-.52-.34.06-.62.15-.75.24h-.02c-.09.09-.23.15-.3.26h-.02s-.26.3-.3.38c0,.08.17-.17.22-.22ZM73.89,16.15l.09-.11-.09-.06c-.15.04-.19.26-.28.38h.08l.09-.13.09.06.08-.02s-.04-.09-.06-.11ZM73.81,8.74v-.02l.24-.34h-.06c-.06.11-.13.21-.21.32,0,.02,0,.04.02.04ZM74.39,15.96c-.02-.06-.06-.09-.11-.11-.04-.04-.04-.11-.06-.17h-.17l-.06.15-.09.02c.04.13.08.08.17.08l.13.13v.11q.11-.06.09-.19l.09-.02ZM74.04,16.17s.08-.02.11-.06c0-.06-.04-.09-.09-.11l-.04.13.02.04ZM74.22,16.32l-.02-.06-.04-.04-.04.04.04.04.06.02ZM74.47,15.64c-.08-.08-.15-.11-.19-.21l-.08.09.21.24.06-.13ZM74.6,15.32l.02-.09h-.02l.06-.06.11.06c-.08-.09-.17-.19-.17-.32-.22.06-.26.26-.26.45.08.02.15,0,.19-.06v.08l.08-.06ZM74.39,6.77l.13-.08c-.06.02-.09.04-.13.08ZM74.79,15.57l-.04-.09-.09.04.02.08.11-.02ZM74.77,15.23s-.06.06-.06.11c.06-.02.06-.06.06-.11ZM75.72,12.12c-.08.02-.49,1.26-.6,1.48.22.19.04.26-.06.13l-.04.02-.06.13-.04.02h.02l-.06.02.13.11-.09.08-.04.09v.06s0,.08.02.09l.04-.02c.09-.19.28-.36.34-.56.06-.21.43-1.03.39-1.16.08-.13.09-.21.04-.36.19,0,.09-.06,0-.13ZM75.16,6.64c.17-.02.34,0,.51.02.13.02.32.02.43.07-.09-.13-.51-.15-.94-.09ZM75.84,10.54l-.07.11s0,.06-.02.04l-.11.13v.02c-.02.06-.08.09-.11.13v.02c-.04.09-.11.17-.19.23l-.02.04c.08-.04.19-.17.22-.26h.02c.11-.15.23-.26.28-.45ZM75.86,11.85l-.08-.08-.02.04s.06.04.09.04ZM76.04,11.72l-.21-.11c-.07.08.06.13.11.17-.06,0-.11.02-.09.08l.04.06s.04.08.06.09c.04-.09.07-.19.09-.28ZM76.92,9.32s-.08,0-.06.04l-.04.04s-.02.04-.04.02v-.11l-.08-.08.04.06h-.06l-.08.11.06-.08c-.09.17-.24.34-.32.53l.06.02.02.02s-.02.06-.06.04l-.04-.04-.04.08c.08.06.15.06.23.08l-.13.06.08.11-.02.02s-.06.02-.09.04l.02.08.02.02.02.06c-.06.06-.02.19-.09.28-.04-.02-.08-.02-.11,0l-.04.06h.06s.06,0,.07,0l.06.08c-.04.09-.17.11-.19.22-.04.19-.08.26-.15.43-.04,0-.09,0-.13-.02,0,.02-.04.09,0,.11l.06-.04.15.08c.08-.08.09-.13.21-.15-.07-.08-.09-.08-.06-.17.04-.09.22-.68.3-.69l.11.04.04-.06c-.06-.06-.02-.11-.02-.19.04,0,.17,0,.11-.08l.06-.11s.02-.09.04-.11l.04-.13-.06-.13s.06-.34.07-.41l-.02-.09ZM76.12,10.45c.06.02.19.09.19-.02-.06-.02-.17-.06-.19.02ZM76.29,10.01l-.04.06c.08.02.06,0,.04-.06ZM76.4,6.86c.13.04.23.13.36.17-.11-.06-.24-.15-.36-.19v.02ZM77.22,8.96l-.09-.04c-.06,0-.11-.02-.15-.04.08,0,.13,0,.21-.02l-.17-.09.15.02c-.06-.08-.13-.13-.21-.19l-.17.36.06.02c0,.06-.04.04-.07.04l-.02.04.04.02c.11.02.22.08.15-.09.11.04.23.06.34.08.06-.02-.04-.08-.06-.09Z"/><path class="cls-1" d="M83.67,5.87c.02-.06.02-.11.02-.19.06-.11.15-.21.21-.32h-.02l.06-.09h-.09l-.07.09c.04.09-.13.04-.06-.06.17-.21.24-.43.47-.58.15.09.28.22.41.32l.21.15s.06.07,0,.06c-.04.08-.02.17-.04.24-.19.54-.39,1.07-.39,1.67-.04.08-.09,1.11-.09,1.28-.04-.04,0,.17,0,.19-.02,0-.02.02-.02.04l-.04-.09c0,.06,0,.11.04.17v.13l-.08.04v-.04l-.02-.04-.06.04v.02l-.08.04-.04-.09v.02s-.06-.08-.09-.08c.02.02-.06.04-.08.04,0-.02-.04-.04-.06-.06-.08-.06-.11-.21-.15-.3-.19-.47-.19-.94-.19-1.42l-.02-.04c-.02-.13.02-.3.02-.43-.69.24-2.53,3.32-2.85,4.01l.02-.02-.06.11.02-.02-.06.08v.06c-.09.13-.13.34-.17.49-.06.21-.21.43-.26.66-.08.26-.11.54-.21.79-.04.13-.06.28-.15.38,0,.13.04.26.04.39-.04-.02-.08-.02-.11-.06,0,.02,0,.04-.02.04-.06-.04-.11-.08-.15-.13h-.04l-.21-.23v-.02c-.13-.19-.3-.34-.43-.53.02-.02.02-.04.02-.06l.08.08c.02.06.13.22.17.26l-.06-.09v-.04s-.15-.21-.17-.22v-.04s-.08-.11-.08-.13l-.04-.08v-.02s-.08-.13-.08-.19l-.02-.02v.02s0,.06.02.09l.09.19c0,.06.04.11.08.15l-.04.02s-.06-.08-.08-.13c-.02-.02-.04-.15-.06-.13-.04-.04-.09-.11-.08-.17-.04-.06-.07-.17-.06-.22h-.02c-.04-.08-.09-.32-.04-.39h-.02c.02-.26.22-1.07.21-1.2.04-.06.08-.22.09-.3l.04-.06c0-.07.02-.17.07-.22.02-.02,0-.04-.02-.02.24-.51.41-1.09.6-1.63.21-.56.45-1.12.69-1.69.06-.11.13-.23.17-.34.13.04.26.11.38.19.06,0,.09.02.11.08h.02c.86.66.81.67.43,1.61l-.22.62c.22-.51,1.63-2.21,2.33-2.31l.15-.06c.06-.21.11-.41.19-.62.06.15-.11.28-.08.43l.08-.04v-.02s.02.02.02.02v-.04s-.02.02-.02.02ZM79,9.77l.69-1.76s.04-.04.04-.06h.02c0-.06.02-.09.06-.13.04-.13.15-.34.24-.45l.04-.11.06-.08v-.08l.11-.21v-.02l.02-.04s-.02-.04-.04-.06c-.02.08-.34.64-.39.69l.02.04-.04.02-.04.06s-.02.15-.06.17c0,.06-.06.11-.08.17v.04l-.04.02-.02.04v.02s-.06.07-.04.11l-.02.06-.02.02h.02c-.32.79-.66,1.58-.81,2.42.13-.28.15-.6.26-.88ZM79.6,7.78s0,.04.02.02c.04-.11.13-.28.19-.38,0-.02.24-.43.26-.47l.02-.06.06-.11c.06-.11-.07.09-.09.15-.04.04-.04.07-.06.11l-.09.13s-.26.53-.3.6ZM79.93,12.17h-.02c-.04.09-.06.21-.06.3.04-.09.04-.21.08-.3ZM80.36,10.56c-.11.22-.23.47-.24.6h.02l.02-.04.02.06-.04.06s-.04,0-.06.02l.04.02c-.09.19-.13.32-.19.53l-.02.04s-.04.21.02.11l.23-.69.11-.26s.04-.15.04-.11l.04-.11-.02-.02.02-.04.02.02.02-.04v-.02h-.06l.06-.06-.02-.06ZM80.2,11.35c-.08.19-.13.36-.19.54l-.02.02v.04s.04,0,.02-.02c.08-.17.11-.38.19-.58ZM80.8,9.73s-.06.08-.11.09c.04.09-.09.28-.15.32-.02.08-.09.24-.17.41.02-.02.04-.06.06-.04l.02-.04v-.06l.09-.15.04-.02.02-.04h-.04l-.02-.04c.06-.06.11-.11.15-.19v-.04l.11-.22ZM80.61,10.35c-.06.13-.13.24-.17.36l-.02.02s-.04.09-.04.13c.04-.09.09-.19.15-.28-.02-.08.09-.15.07-.22ZM81.64,8.53v-.02c-.04.06-.15.17-.17.22.08-.04.13-.13.17-.21ZM81.88,8.12l-.15.21v.02l-.06.09.02.02c.02-.06.04-.11.09-.15v-.02s.04-.08.08-.09c0-.02,0-.04.02-.08ZM83.33,6.17s.02-.02.04-.02c-.02,0-.04,0-.04.02ZM83.72,5.79h-.02l-.02.04v.02h.02s0-.04.02-.06ZM83.85,5.78v-.02s.09-.3.11-.34c.02-.02.04-.08-.04,0-.02.08-.04.17-.07.24-.04.04-.02.09-.09.17,0,.02-.02.06-.02.09l.04.02c0-.06.04-.13.08-.17ZM84.11,5.46c0-.11-.09.04-.09.04-.04.11-.07.22-.13.34,0,.04-.02.15-.04.17h.11l.15-.49v-.06ZM84.06,5.31s.04-.08.04-.13l-.02.06-.04.04s0,.04.02.04ZM84.13,5.36l-.02-.02-.02.06h.04v-.04Z"/><path class="cls-1" d="M92.2,9.88c-.11.15-.17.38-.24.54-.02,0-.04.02-.06.04l-.04-.02s.13-.3.21-.49l-.24.49h.02l-.02.02-.08.17-.02.02v.04s-.04.08-.08.11c.02.08-.09.23-.13.28v.04c.06-.06.09-.17.15-.24v-.06h.02s.15-.3.17-.34l.04.04s-.17.32-.17.34c-.02,0-.09.28-.11.32v-.02c-.04.08-.11.24-.17.3-.07.21-.51.82-.62.99v-.02l-.06.08-.02.02c-.08,0-.13.26-.17.32-.11.15-.26.3-.39.43-.47.47-.47.19-.79.24-.04-.02-.07-.04-.11-.08l-.04.04-.17-.13h-.02l-.23-.24v-.02c-.15-.11-.39-.34-.47-.53v-.04c.09.09.17.23.26.32l-.06-.09v-.02c-.07-.08-.11-.17-.19-.22v-.04s-.11-.11-.09-.13c-.04-.09-.13-.17-.13-.28l-.02-.02c-.02.08.17.38.21.45l-.02.02c-.08-.08-.09-.13-.13-.24l-.02-.02-.09-.13v-.04l-.08-.15s.02-.11-.02-.08c-.11-.26-.09-.6-.06-.88l-.02.06h-.02l-.02.02-.11.24h.02l-.17.22-.04.02c-.09.19-.69.81-.83.9v.02h-.02c-.09.36-1.07.79-1.41.81l-.45-.39s-.09-.08-.06-.04l-.3-.24c0-.06,0-.09-.02-.15-.04-.02-.04-.08-.06-.13,0,.07,0,.15.02.21l-.08-.06-.08-.41v.04c-.08-.81-.11-1.56.08-2.34l.04-.02.02-.04h.04c-.08.32-.17.66-.17.98-.04.06-.04.11-.04.17.02-.02.09-.43.09-.47l.04-.09c-.02-.13.06-.24.06-.36.04-.08.06-.19.06-.28l.09-.24s0-.08.02-.09c.04-.04.04-.11.08-.15-.02-.11.13-.36.19-.47l-.06.06c-.04.11-.09.21-.15.32v.08h-.02c0,.06-.15.41-.19.49h-.04c.02-.07.19-.51.19-.52.02-.02.02-.04.02-.06.06-.13.06-.24.13-.38h-.02c.47-1.78,2.66-2.85,4.22-1.48v.02c.13-.34.3-.69.41-1.05.13.02.28.11.39.19.06,0,.11.02.13.08.24.17.49.34.67.58.28.38.02.66-.11,1.01-.17.51-1.01,3.17-1.01,3.66l-.02.04s0,.08-.02.09c-.02,0-.04,0-.04-.02-.02.04-.15.32-.04.21v-.08s.04-.08.04-.11l.04.02s-.02.08-.04.11v.02l.02.07-.02.02s.02.04,0,.09c-.04.02-.07.32-.07.38v.04h-.02l.02.02c0,.08-.02.43-.06.47v.08l.04.04.02-.02c.07,0,.13-.04.17-.09.08-.02.13-.07.15-.15.66-.43,1.8-3.39,2.46-4.05.66.11.15.69.09,1.07ZM84.44,12.17s.02-.08-.02-.09c.02.04.02.06.02.09ZM84.44,12.17v.04s.02-.02.04-.02l-.04-.02ZM85.34,9.43c.04-.06.08-.11.09-.19.02-.02.51-.75.54-.83h-.02v-.04l-.04.04s-.09,0-.13-.02c-.02,0-.02-.02,0-.02l-.02-.02v.02c-.15.28-.34.6-.45.9.04.04.02.09.02.15ZM87.87,9.88c.15-.24.26-.47.47-.66.17-.54.32-1.09.51-1.63-.21-.15-.41-.26-.66-.36-1.74.84-2.96,3.6-2.74,5.44l.06-.06c.53-.17,2.03-2.17,2.36-2.74ZM85.77,13.09l-.02-.02-.21.11.23-.09ZM85.92,8.93l-.04.02-.04.08v.04c-.04.06-.13.15-.15.22h.02c.13-.11.19-.34.32-.43.06-.19.24-.45.34-.64.04-.04.06-.06-.02-.06-.02.04-.06.08-.09.11l.02.02-.06.04c-.06.13-.15.39-.26.51,0,.04-.02.06-.04.09ZM87.36,11.44h-.02l-.19.23-.09.06c-.13.38-.71.64-.88.96-.09.06-.17.15-.26.19l-.06.06s-.02.04-.02.04l.02.02v-.02c.17-.09.67-.41.73-.58l.08-.07h.04l.02-.02v-.04l.04-.02c.07-.09.13-.19.21-.26.04-.09.15-.15.17-.22l.04-.02.04-.06v-.04s.13-.13.15-.19ZM85.92,8.7c0,.09.21-.3.22-.32h-.06l-.17.32ZM87.12,11.91h-.02c-.09.15-.22.3-.36.43h-.02c-.06.09-.43.38-.52.47l-.23.17s-.04.02-.04.04h.02s.08-.04.09-.07c.06,0,.66-.51.73-.58.02-.06.11-.13.15-.19h.02c.04-.09.13-.13.17-.22v-.04ZM86.91,12.43v.02l-.06.06h-.02l.08-.08ZM86.91,12.43l.06-.08s-.02.06-.06.08ZM87.53,11.68s-.02.04-.06.04c0-.04.04-.04.06-.04ZM87.96,10.82s-.04,0-.02.02c-.02.06-.06.09-.09.13v.02c-.04.09-.09.17-.17.23v.04c.06-.04.17-.21.19-.26h.02s.08-.11.08-.17ZM87.89,11.05s.02,0,.02,0h-.02ZM88.15,10.69s.02-.02.02-.02l-.02.02ZM88.21,12.26h-.02s.02.02.02,0ZM88.21,10.48c.04-.08.06-.13.08-.21-.06.06-.08.13-.08.21ZM88.34,6.86c.13.04.24.13.38.17-.11-.06-.26-.17-.38-.19v.02ZM88.9,8.08h-.04v.08s-.06.08-.04.11c0,.02-.06.08-.02.08-.08.21-.15.39-.21.6.15-.32.69-1.8.84-1.93q0-.06-.04-.09c-.13.38-.51.75-.51,1.16ZM88.94,7.65l-.11.23s0,.04.02.04v-.02s.06-.09.06-.13l.06-.11h-.02ZM89.2,7.09l-.04.08c-.08.13-.02.04.04-.08ZM89.2,7.09l.11-.17c0-.09-.06.08-.11.17ZM89.28,13.09l-.02-.02s.02.02.02.02ZM89.95,13.35c-.08.04-.15.08-.21.13.04-.02.22-.09.21-.13ZM91.23,11.36l-.04-.02c-.23.3-.38.71-.62.99v.02c-.06.09-.17.17-.21.28-.04.04-.24.36-.3.45-.02.04-.07.06-.07.09,0,.02.02.04.04.04v-.02l.04-.02s.04-.06.06-.08c.09-.09.13-.21.22-.3.06-.13.26-.22.26-.39l.02-.04.06-.02v-.08l.06-.02c.04-.06.11-.24.15-.28.02-.09.06-.19.13-.24v-.04l.04-.02.04-.08v-.04c.04-.06.11-.13.13-.21ZM91.02,11.89v.02c-.11.17-.19.36-.32.51-.06.08-.24.24-.24.34-.08.06-.24.36-.36.47v.04c.19-.26.43-.62.66-.84.02-.08.09-.15.13-.21,0-.08.11-.21.15-.28,0-.02,0-.04-.02-.04ZM92.15,9.83l.02-.02.04-.09-.06.11Z"/><path class="cls-1" d="M98.87,6.56h-.02c.09.17.15.36.13.49-.11.41-.21.84-.36,1.26-.13.36-.36.68-.51,1.03.11-.19.67-1.14.79-1.22.19-.28.39-.77.68-.96.06-.15.71-.75.86-.79.53-.38.81-.43,1.41-.28l.02.06.3.17c.06,0,.09.02.11.08h.02c.23.17.47.34.62.58.24.36-.06.69-.21,1.01-.26.6-.49,1.22-.71,1.82l-.04.04c-.11.28-.6,1.76-.64,1.84,0,.04,0,.08-.02.09h-.06l.04.02s-.02.08-.04.11v.11s-.02.06-.02.09c-.04.02-.11.32-.11.38l-.02.02v.13c0,.06-.06.34-.09.38v.06l-.02.02h.02l.04.04s.02.02.02-.02c.07,0,.13-.04.19-.09.39-.13,2.12-2.94,2.46-3.51.15-.26.36-.45.53-.69.67.09.08.73,0,1.07-.04.06-.08.11-.09.19-.09.09-.13.36-.26.39l-.02-.02c.09-.23.22-.41.32-.62-.11.19-.36.58-.38.64-.02.04-.07.17-.11.19v.04l-.09.13c-.02.13-.13.19-.17.3l.06-.02c.08-.19.22-.45.36-.62l.04.04s-.21.32-.21.34c-.02,0-.02.02-.02.04-.06.09-.08.19-.13.28l.02-.02c-.26.45-.58.9-.92,1.29v-.02l-.06.08-.02.02h-.02c-.04.24-.66.83-.88.96-.22.13-.45.09-.66-.04l-.04.04-.15-.11h.02l-.02-.02h-.04c-.11-.13-.24-.36-.39-.43l-.22-.36s0-.04.02-.04l.21.28-.04-.06v-.02s-.19-.22-.17-.26l-.06-.09s0-.04-.02-.04l-.02-.08s-.06-.06-.08-.11c.04.13.11.3.15.34,0,.02-.02.02-.04.02-.06-.08-.06-.17-.11-.24v-.02c-.06-.06-.06-.11-.09-.17.02-.04-.02-.11-.04-.15,0-.02-.02-.09-.04-.08-.02-.11-.04-.23-.04-.34l.02-.04c.04-.54.22-.98.32-1.48l.04-.04c0-.06.02-.11.04-.17l.06-.06-.02-.02c.21-.69,1.09-2.85,1.46-3.43-.11-.04-.23-.06-.34-.04-.51.08-1.73,1.56-1.99,2.01v.02c-.11.11-1.24,1.91-1.31,2.08-.08.19-.21.45-.34.62v-.11l.04.02c.02-.06.08-.09,0-.13l.04-.04.04.04c0-.06,0-.09-.08-.08l.06-.06v-.07l.04-.02h.02v-.09l.09-.15.04-.02.02-.04h-.04v-.06l-.11.17h-.06s-.04.09-.04.13l-.08.06c-.04.08-.06.15-.11.21v.09l-.04.06c0,.08-.04.15-.08.23l.08-.06-.04.08.06.04.04-.04v.06l-.04.06s-.04,0-.04-.02l-.02.04.04.02-.09.13.04-.08-.04-.02h-.02l.04-.04.04.02v-.04l-.04-.02c-.06,0-.06.02-.06.08l-.11-.02v.06s.06.02.08.02l-.08.04.04.04h-.04v.04l.04.06.02.02h.02c-.13.26-.21.52-.28.79-.04.11-.13.22-.17.34-.04.11-.04.34-.09.41-.17.21-.94-.45-1.07-.6-.04-.04-.24-.17-.15-.23-.04-.19.02-.3.06-.47.23-1.31.88-2.46,1.43-3.66.04-.09.04-.23.13-.28.06.19-.39.94-.41,1.24h.02c.08-.17.13-.34.17-.53.17-.21.3-.6.39-.84-.04.04-.06.11-.13.11-.04-.24.77-1.44.86-1.78h-.02c-.06-.43-.9.41-.98.49-.09.04-.21.11-.24.23-.38.21-1.69,2.49-1.88,2.59l-.08.11s-.69,1.05-.77,1.16c-.11.15-.15.38-.28.51-.04.09-.09.26-.17.32-.17.34-.41,1.05-.58,1.31l-.04.02c0,.06-.06.34-.09.38v.04l.02.02s0,.02.02.06l.02-.02.04.32.02.02-.02.06-.09-.06-.04.04c-.06-.04-.11-.08-.15-.13h-.04c-.06-.08-.13-.15-.19-.24v-.02c-.15-.15-.36-.3-.43-.53,0-.02,0-.04.02-.06l.22.34-.04-.09s-.06-.08-.08-.09c-.02-.04-.04-.09-.08-.11l-.02-.06s-.04,0-.02-.02l-.06-.09s0-.04-.02-.04l-.02-.08h-.04c.04.08.09.15.11.22l-.04.02-.11-.24v-.02l-.09-.17c.02-.06-.04-.11-.06-.17,0,0,.02-.11-.02-.08-.09-.38,0-.96.09-1.33h.02c0-.13.17-.58.17-.62.02-.04.04-.11.04-.15l.06-.06s0-.04-.02-.02c.34-1.13.81-2.25,1.29-3.32.06-.11.11-.23.15-.34.13,0,.28.11.39.19.04-.02.09.02.11.06v.02c.21.13.51.38.64.58.22.36-.06.71-.19,1.03-.26.6-.41,1.26-.68,1.86-.07.15-.15.3-.19.47.28-.43.47-.94.75-1.37.58-.84,1.31-1.91,2.03-2.63v.11l-.02.02-.04-.04s-.13.09-.04.13v.02l-.04.02-.06-.04-.02.04c.02.06.08.06.11.08l-.09.02v.08s-.02.02-.04.02l-.04.02-.02.04v.06l-.06.04c0,.06-.04.08-.08.11h-.06l-.04.04h.08v.04c-.04.06-.13.08-.15.13-.08.08-.13.19-.19.26h-.08s-.02.06-.02.06l.02-.02.06.04s.09-.08.15-.08c-.02-.09.09-.24.17-.3l.13-.17.06-.04.06.02.04-.04s.02-.07.04-.11c.06-.02.09-.08.15-.09l.11-.13.02-.08c.08-.06.11-.17.19-.23l.02-.06s-.04.04-.06.04h-.04l.06-.06-.04-.08-.06.02v-.06l.08-.06.06.06.02-.02-.06-.04c.26-.19.58-.38.92-.43.24.08.26-.11.49.19.15.02.24.15.32.26l-.02-.08c.09.09.21.26.3.45v-.06s.04.06.04.09ZM92.04,12.38l.04.02-.06-.09s-.02-.09-.02-.13l-.02.04.06.17ZM92.36,9.94c.19-.54.41-1.11.64-1.65l.06-.11s.04,0,.04-.02v-.04s.21-.41.23-.47c.06-.04.13-.15.15-.22v-.02l.04-.06.02-.09c.04-.06.08-.13.09-.21.02-.02.06-.08.02-.09,0,0-.06,0-.04.02-.04.08-.34.53-.32.6l-.02.04-.04.02v.06h-.04s-.02.07-.04.11v.06c-.04.06-.11.17-.13.24l.02.04h-.04s-.02.06-.02.07l-.09.19h.02c-.36.73-.66,1.59-.81,2.4.15-.26.17-.58.26-.86ZM93.11,7.71c-.06.08-.11.15-.15.22,0,.02,0,.04.02.04v-.02s.08-.15.13-.24ZM93.15,7.63s.02-.06.04-.06c0-.06.15-.26.19-.3.04-.11.09-.21.15-.32,0-.02,0-.06-.02-.04l-.04.04s-.17.38-.19.39h-.02l-.11.28ZM93.69,10.95l-.09.11-.08.04-.02.07.04.02c.09-.06.08-.09.15-.17v-.08ZM93.51,11.08h.02l.02-.04s0-.02-.02-.04c0,.02,0,.06-.02.07ZM93.73,10.58c-.09.06-.11.24-.17.34l.04-.02.06-.13h.04l.04-.02v-.04l-.02-.04.04-.08-.02-.02ZM93.62,10.99v-.02h-.02v.02h.02ZM93.75,10.84h-.02v.02h.02v-.02ZM93.97,10.45s-.02-.06-.06-.06v-.09l-.09.04-.04.11-.04.04c0,.06.06.02.08,0l.06.06-.02.07c.06-.06.06-.07.06-.15l.06-.02ZM93.84,10.6l-.04-.06-.04.09.02.02.06-.06ZM93.86,10.65h-.02l-.02.02.02.04.02-.02v-.04ZM94.05,10.22l-.06-.04-.02-.06-.04.08.04.04.02.08.06-.09ZM94.26,9.9s-.06-.11-.04-.17c-.08.04-.11.11-.15.19-.06.04-.04.09-.06.15.04-.02.08-.04.11-.07l-.02.06.06-.06.02-.06h-.02l.04-.04h.06ZM94.2,10.07s-.04.02-.06.04l.02.04.06-.02s-.02-.04-.02-.06ZM94.22,9.98s.02-.02.04-.06c-.02.02-.04.04-.04.06ZM95.42,7.93l-.08.06c-.04.13-.47.69-.58.86v.09l-.07-.02s0,.04-.02.02l-.06.09s-.02.04-.04.02l.04.07-.08.06-.02.06s-.02-.04-.02-.02l.02.02s-.04.06-.04.09c.13-.11.75-1.01.79-1.13l.06-.04c.04-.06.06-.11.06-.17.06-.02.08-.02.04-.08ZM95.57,7.76l-.02-.04-.04.02.06.02ZM95.68,7.69l-.07-.08-.02.06.04.04-.06.06v.08l.11-.15ZM95.64,7.8h-.02v.02l.02-.02ZM95.77,7.41h.02v-.02h-.02v.02ZM96.02,7.03h.02s0-.02-.02-.02v.02ZM96.09,6.92s.08.04.09,0c-.04-.02-.06-.04-.09,0ZM96.26,6.77l.02-.02-.04-.02h-.02l.04.04ZM96.24,6.7l.06.02s.02-.06,0-.08l-.06.06ZM96.39,6.94l-.02.02v.02l.02-.04ZM96.71,11.96l-.02-.02c-.06.08-.09.15-.11.22l.13-.17v-.04ZM97.63,9.38l-.04-.02c-.22.41-.38.81-.53,1.26-.07.06-.28.6-.26.66l-.17.41s0,.04-.02.04l.04.04h.04c.09-.24.23-.47.34-.69.06-.13.08-.3.13-.41l.06-.04s-.02-.06-.02-.07c.02,0,.06-.02.06-.04l.04-.09c0-.08.02-.17.06-.24,0-.13.08-.21.11-.32l-.02-.06.06-.02s.02-.09.02-.13l.11-.26ZM97.56,10.03h-.04s-.22.64-.22.64c0,.09-.15.3-.19.41-.04.02-.24.53-.28.66l-.02.02v.04c.06.04.15-.26.17-.3.06-.11.36-.79.39-.81,0-.04.07-.24.09-.26.02-.13.11-.28.09-.39ZM97.07,11.59c-.06.06-.07.15-.13.21v.02c-.02.08-.06.11-.08.19l.04.02c.07-.13.11-.28.17-.43ZM97.24,6.06l-.04-.09-.04-.02s0,.04.02.04c-.04-.02-.08-.02-.11,0l-.13.11.06.06s-.08,0-.11-.02v.04c.09.04.09.08.15-.02.02.04.08.08.11.09l.02-.06-.07-.06s.07,0,.11.02l-.04-.08.06.02.02-.04ZM97.39,11.55l-.02-.04.06-.04s-.02.04-.04.08ZM97.39,11.55h.02-.02ZM97.46,11.42l-.04.06.02-.02s0-.02.02-.04ZM97.61,9.92l-.02-.02s-.04.06-.02.09l.04-.04v-.04ZM97.78,10.41h-.02v.04l.02-.04ZM97.89,10.61h-.04s-.02.04,0,.06l.04-.06ZM97.89,10.56h-.04s.02.02.04.02v-.02ZM97.99,10.39s-.06-.02-.07.02c.04.02.06.02.07-.02ZM98.03,9.06c.06-.08.08-.17.11-.26v-.08c.09-.13.09-.24.17-.38l.08.04c-.02.08-.17.36-.15.39l-.04.02s0,.04.02.04l-.02.09c.11-.24.54-1.22.54-1.46l-.11.26.02-.02c-.09.17-.09.41-.21.56-.02,0-.04.02-.06.04l-.06-.02c.02-.06.04-.13.04-.19.09-.21.19-.45.26-.67-.09.09-.28.53-.32.66-.02.04-.02.22-.06.24l-.08.19v.04l-.07.15c0,.13-.06.24-.13.36v.04l.06-.04ZM97.99,10.16c.13-.11.15-.24.24-.38h.06s.02-.06.02-.06l-.02.02-.04-.04-.11.11c0,.06-.08.22-.15.34ZM98.04,10.28h-.02v.02h.02v-.02ZM98.23,9.86l-.02.02h.02v-.02ZM98.23,6.06l.09.09.04-.06-.13-.11v.08ZM98.38,9.55l.02-.04c-.06.04-.08.09-.11.15l.06.04.02-.04-.02-.04.04-.04v-.04ZM98.42,9.58h-.04s.04.02.04,0ZM99.34,8.1c-.15.13-.81,1.16-.81,1.24-.04.02-.06.04-.04.07l.08-.06c.11-.26.34-.56.51-.81v-.09l.06.02s0-.04.02-.02l.06-.09s.02-.04.04-.04l-.02-.04c.08-.08.06-.11.11-.19ZM99.77,7.45l-.09.06.02-.04-.04.04-.02.06-.04.04-.04-.02c.02.06.04.09.02.15.07-.06.17-.19.19-.28ZM99.56,7.58s.04-.04.04-.07l-.04.07ZM99.62,7.45s.06-.04.06-.08l-.06.04v.04ZM99.86,7.35l-.04-.11-.06.08.04.04v.06l.06-.06ZM99.9,7.18v.08l.08-.02s.06-.08.09-.11c.02-.04-.04-.04-.06-.02l-.04-.04.04-.06c-.06.04-.08.04-.09.11l-.04.02.02.04ZM100.03,7.24c-.06.06-.09.11-.15.15.06-.04.11-.09.15-.15ZM100.03,7.03s-.02.04.02.04l.04-.06v-.02l-.06.04ZM100.03,6.98s.02,0,.02-.02t.02-.02h-.04v.04ZM100.29,6.86l-.07.06h-.06l-.02.04v.02l-.06.08c.06,0,.11-.04.13-.09l.07-.09ZM100.39,9.85c.21-.54.43-1.11.69-1.61l.09-.19.08-.11c.08-.24.22-.41.36-.62v-.09s.04-.08.07-.09l.04-.09.02-.02v-.04s0-.04-.02-.06c-.08.21-.26.45-.38.66-.02,0-.06,0-.04.02l.02.04c-.06-.02-.09.15-.09.19l-.04.04c-.02.08-.08.11-.09.19v.04h-.04s-.02.06-.02.08c-.04.02-.06.08-.04.11,0,.02-.04.06-.04.08-.38.77-.62,1.5-.84,2.31.13-.26.17-.54.26-.81ZM100.26,6.77l.11-.08h.08l.06-.04-.04-.04c-.09.04-.15.06-.21.15ZM100.67,6.62l-.34.3c.13-.07.24-.19.34-.3ZM100.44,6.71s-.04.04-.04.06l.02-.02.06-.02-.04-.02ZM101.04,7.88s0,.04.02.04v-.02c.06-.08.09-.19.15-.26v-.04l-.17.28ZM101.19,11.96v-.06l-.04.08.02.02v-.02l.02-.02ZM101.21,11.83s.02-.02.02-.04c0,.02-.02.04-.02.04ZM101.31,7.43l.11-.13v-.02c.06-.04.09-.17.13-.24l.06-.11.02-.02v-.02l-.02.02c-.08.13-.13.3-.24.41l-.06.11ZM101.66,13.37l-.02-.02c-.08.04-.15.08-.21.13.08-.02.15-.07.22-.11ZM103.13,11.36l-.04-.02-.23.32-.04.02c-.13.26-.64.81-.69.96-.06.06-.15.21-.19.28l-.06.04c-.02.08-.09.11-.11.17l-.04.02s-.04.04-.02.06l.02.02v-.02c.08-.02.51-.54.53-.6.06-.04.09-.09.11-.15.02-.02.06-.04.06-.08.02,0,.04-.02.06-.04v-.06l.06-.02c.06-.06.09-.13.11-.21l.06-.06v-.02l.17-.28.04-.02c.04-.09.13-.26.21-.32ZM102.83,12s.06-.06.06-.09l-.02-.02v.02c-.09.15-.22.36-.36.49v.02c-.08.11-.22.22-.28.34l-.06.04c-.06.09-.32.36-.36.47.04.02.19-.21.22-.24.17-.21.34-.41.53-.6,0-.04.04-.09.08-.11l.06-.09h.02c0-.08.07-.15.11-.21ZM104.18,9.83s.06-.08.08-.11l-.08.11Z"/><path class="cls-1" d="M11.67,51.99h-3.98l1.5-10.69c-2.24,1.27-4.51,2.44-6.88,3.34-.49-1.29-1.37-2.47-2.31-3.36,9.17-2.54,15.6-8.93,17.27-10.76l2.73,2.47c.12.09.24.24.21.45-.03.21-.23.31-.41.31-.12,0-.21,0-.45-.07-1.92,2-5.63,4.7-5.79,4.82l-1.89,13.51Z"/><path class="cls-1" d="M21.79,47.88c6.79-1.39,13.93-5.92,18.99-12.64.77,1.6,1.08,2.19,1.94,3.2-1.63,2.02-4.17,4.98-8.29,7.82-2.33,1.62-6.36,3.9-10.27,5.24-.04.26-.19.52-.4.52-.14,0-.22-.07-.32-.33l-1.64-3.81ZM25.96,31.64c3.61,2.02,4.64,3.2,5.25,3.85-.65.68-.85.94-2.69,3.2-2.17-2.16-4.23-3.22-5.31-3.76l2.75-3.29Z"/><path class="cls-1" d="M45.17,36.08l.49-3.53h11.83c.37,0,1.21-.05,1.62-.19l1.53,2c-.22.24-.63.73-1.09,1.5-1.13,1.97-2.34,3.95-3.75,5.76.87.75,4.6,4.32,6.04,6.44-.89.89-2.34,2.3-3.23,3.2-.69-1.2-2.25-3.95-5.29-6.7-2.6,2.7-6.66,5.73-9.87,7.03-.67-1.48-1.07-2.14-2.19-3.22,3.14-1.08,5.62-2.47,8.18-4.7,3-2.58,4.27-4.89,5.69-7.59h-9.98Z"/><path class="cls-1" d="M72.74,39.25c1.49.92,2.42,1.55,3.32,2.26,1.28-1.67,1.89-2.89,2.21-3.57h-5.49c-1.68,1.93-3.52,3.78-5.6,5.26-1.31-1.41-1.43-1.55-2.57-2.47,3.63-2.26,6.57-5.62,8.93-9.87l3.44,1.2c.24.09.4.14.37.33-.03.21-.27.26-.6.28-.53.78-.88,1.29-1.39,2h5.05c.86,0,1.24-.12,1.63-.23l1.44,1.43c-.41.63-.44.66-.62.99-1.98,3.57-2.73,4.91-4.22,6.84,1.13,1.15,1.47,1.74,1.71,2.19-.73.78-2.2,2.49-2.68,3.1-.41-.71-.87-1.41-1.67-2.33-3.58,3.43-7.26,4.91-9.29,5.66-.51-1.15-1.26-2.23-2.08-3.15,3.17-.82,7.05-3.05,8.95-4.89-1.37-1.15-2.59-1.97-3.4-2.49l2.55-2.54Z"/><path class="cls-1" d="M100.97,34.53c.76,0,1.2-.17,1.69-.35l1.69,1.67c-.52.71-2.38,3.92-3.08,5.12-4.7,8.13-10.21,10.74-12.39,11.77-.32-.52-.86-1.29-2.61-2.68,3.73-1.5,6.89-4.09,8.3-5.57,2.2-2.3,3.66-5.15,4.37-6.58h-5.79c-1.79,2.23-3.83,4.23-6.05,6.02-1.06-1.34-1.46-1.83-2.47-2.54,6.3-4.84,8.34-8.98,9.05-10.39l3.1,1.65c.09.05.28.16.25.35-.03.24-.37.31-.6.33-.47.73-.57.92-.77,1.2h5.3ZM100.82,30.28c.83.82,1.47,1.55,1.95,2.26-1.44.87-1.59.96-2.08,1.32-.76-1.03-1.15-1.53-1.88-2.26l2.01-1.32ZM104.54,30.02c.65.66,1.49,1.74,1.93,2.42-.33.21-1.82,1.1-2.12,1.29-.13-.24-.84-1.62-1.74-2.47l1.93-1.25Z"/><path class="cls-1" d="M121.79,37.4c.72,0,1.32-.02,2.02-.21l2.02,1.62c-.5.75-2.66,4.09-3.12,4.75-2.92,4.16-5.79,6.81-11.33,9.02-.49-1.1-1.48-2.35-2.1-3.03,2.23-.75,7.77-2.61,10.92-8.72h-13.89l.48-3.43h15ZM123.92,31.92l-.47,3.36h-13.43l.47-3.36h13.43Z"/><path class="cls-1" d="M141.01,39.16c1.95,2.91,3.96,7.1,4.39,9.16-1.18.8-2.58,1.76-3.49,2.47-.17-.75-.34-1.5-.7-2.63-5.54,1.01-9.06,1.55-15.37,2.28-.08.21-.22.45-.41.45-.23,0-.27-.26-.28-.47l-.37-3.62c1.09-.02,1.7-.05,2.44-.09,2.1-3.12,5.64-9.89,7.53-15.25l3.86,1.04c.2.05.4.12.37.33-.05.33-.43.4-.62.45-.54,1.01-2.77,5.55-3.26,6.46-.51.96-2.29,4.28-3.83,6.67,2.23-.23,5.01-.56,8.67-1.24-.72-1.43-1.45-2.84-2.44-4.07l3.51-1.93Z"/></g></svg>