<?xml version="1.0" encoding="UTF-8"?><svg id="_レイヤー_2" xmlns="http://www.w3.org/2000/svg" viewBox="0 0 224.38 103.99"><defs><style>.cls-1{fill:#000;}.cls-1,.cls-2{stroke-width:0px;}.cls-2{fill:#d91a17;}</style></defs><g id="_レイヤー_1-2"><path class="cls-2" d="M0,19.36c0-.31.2-.54.51-.57l6.81-.72c.41-.04.67.14.77.44l4.76,16.58.21-.02,4.61-17.56c.1-.32.36-.56.77-.6l6.76-.71c.31-.03.51.15.51.46v34.16c0,.31-.2.54-.51.57l-6.14.65c-.31.03-.51-.15-.51-.46v-18.17l-.26.03-3.07,12.23c-.1.37-.31.55-.62.58l-3.48.37c-.31.03-.51-.1-.62-.45l-3.07-11.58-.26.03v18.17c0,.31-.21.54-.51.57l-6.14.65c-.31.03-.51-.15-.51-.46V19.36Z"/><path class="cls-2" d="M39.68,15.19c.1-.32.26-.54.61-.58l7.94-.83c.36-.04.56.15.61.45l7.48,33.37c.1.35-.1.53-.41.56l-7.07.74c-.36.04-.56-.15-.61-.45l-.92-5.44-6.2.65-.97,5.64c-.05.32-.21.54-.56.58l-7.12.75c-.31.03-.46-.16-.41-.47l7.63-34.96ZM46.23,36.96l-1.89-11.24h-.1s-2.05,11.66-2.05,11.66l4.04-.42Z"/><path class="cls-2" d="M61.44,29.98c0-8.38.26-10.17.77-11.83,1.38-4.39,4.46-6.83,9.47-7.36,6.35-.67,9.73,2.55,10.04,8.37,0,.36-.1.58-.41.66l-6.86,1.86c-.31.08-.56-.04-.56-.41-.05-2.43-.72-3.29-2.1-3.14-.87.09-1.43.51-1.74,1.43-.21.75-.26,1.27-.26,9.55s.05,8.79.26,9.5c.31.85.87,1.15,1.74,1.06,1.38-.14,2.05-1.15,2.1-3.58,0-.36.26-.54.56-.52l6.86.42c.31.02.41.22.41.58-.31,5.88-3.69,9.81-10.04,10.47-5.02.53-8.09-1.27-9.47-5.37-.51-1.55-.77-3.28-.77-11.67Z"/><path class="cls-2" d="M88.62,10.05c0-.31.2-.54.51-.57l7.12-.75c.31-.03.51.15.51.46v12.73c0,.21.1.3.31.28l3.79-.4c.2-.02.31-.14.31-.34v-12.73c0-.31.21-.54.51-.57l7.12-.75c.31-.03.51.15.51.46v34.16c0,.31-.21.54-.51.57l-7.12.75c-.31.03-.51-.15-.51-.46v-13.51c0-.21-.1-.3-.31-.28l-3.79.4c-.21.02-.31.14-.31.34v13.51c0,.31-.21.54-.51.57l-7.12.75c-.31.03-.51-.15-.51-.46V10.05Z"/><path class="cls-2" d="M117.19,7.04c0-.31.2-.54.51-.57l7.12-.75c.31-.03.51.15.51.46v34.16c0,.31-.21.54-.51.57l-7.12.75c-.31.03-.51-.15-.51-.46V7.04Z"/><path class="cls-2" d="M133.22,5.36c0-.31.2-.54.51-.57l7.42-.78c.41-.04.62.14.72.44l5.38,19.05.25-.03V3.86c0-.31.21-.54.51-.57l6.04-.63c.31-.03.51.15.51.46v34.16c0,.31-.21.54-.51.57l-7.27.76c-.41.04-.61-.14-.72-.44l-5.48-19.04-.31.03v19.62c0,.31-.21.54-.51.57l-6.04.63c-.31.03-.51-.15-.51-.46V5.36Z"/><path class="cls-2" d="M162.45,2.29c0-.31.2-.54.51-.57L179.25,0c.31-.03.51.15.51.46v6.31c0,.31-.2.54-.51.57l-8.35.88c-.2.02-.31.14-.31.34v5.8c0,.21.1.3.31.28l7.17-.75c.31-.03.51.15.51.46v6.31c0,.31-.21.54-.51.57l-7.17.75c-.2.02-.31.14-.31.34v6.11c0,.21.1.3.31.28l8.35-.88c.31-.03.51.15.51.46v6.31c0,.31-.2.54-.51.57l-16.28,1.71c-.31.03-.51-.15-.51-.46V2.29Z"/><path class="cls-2" d="M0,69.36c0-.31.2-.54.51-.57l7.12-.75c.31-.03.51.15.51.46v27.02c0,.21.1.3.31.28l8.5-.89c.31-.03.51.15.51.46v6.31c0,.31-.21.54-.51.57l-16.43,1.73c-.31.03-.51-.15-.51-.46v-34.16Z"/><path class="cls-2" d="M24.47,66.79c0-.31.2-.54.51-.57l7.12-.75c.31-.03.51.15.51.46v34.16c0,.31-.21.54-.51.57l-7.12.75c-.31.03-.51-.15-.51-.46v-34.16Z"/><path class="cls-2" d="M40.5,65.1c0-.31.2-.54.51-.57l7.42-.78c.41-.04.62.14.72.44l5.38,19.05.26-.03v-19.62c0-.31.2-.54.51-.57l6.04-.64c.31-.03.51.15.51.46v34.16c0,.31-.21.54-.51.57l-7.27.76c-.41.04-.62-.14-.72-.44l-5.48-19.04-.31.03v19.62c0,.31-.21.54-.51.57l-6.04.63c-.31.03-.51-.15-.51-.46v-34.16Z"/><path class="cls-2" d="M69.73,62.03c0-.31.2-.54.51-.57l16.28-1.71c.31-.03.51.15.51.46v6.31c0,.31-.21.54-.51.57l-8.34.88c-.21.02-.31.14-.31.34v5.8c0,.21.1.3.31.28l7.17-.75c.31-.03.51.15.51.46v6.31c0,.31-.21.54-.51.57l-7.17.75c-.21.02-.31.14-.31.34v6.11c0,.21.1.3.31.28l8.34-.88c.31-.03.51.15.51.46v6.31c0,.31-.21.54-.51.57l-16.28,1.71c-.31.03-.51-.15-.51-.46v-34.16Z"/><path class="cls-2" d="M94.31,83.93v-24.48c0-.31.2-.54.51-.57l7.12-.75c.31-.03.51.15.51.46v25.41c0,1.55.77,2.35,2.1,2.21,1.33-.14,2.1-1.1,2.1-2.65v-25.41c0-.31.21-.54.51-.57l7.12-.75c.31-.03.51.15.51.46v24.48c0,7.09-3.99,11.13-10.24,11.79-6.25.66-10.24-2.55-10.24-9.64Z"/><path class="cls-2" d="M123.13,91.1c-.31.03-.51-.15-.51-.46v-34.16c0-.31.2-.54.51-.57l9.57-1.01c6.5-.68,10.65,2.3,10.65,10.22s-4.51,11.81-10.65,12.45l-1.64.17c-.21.02-.31.14-.31.34v11.7c0,.31-.21.54-.51.57l-7.12.75ZM135.21,65.97c0-3.47-.92-4.3-2.97-4.09l-1.18.12c-.21.02-.31.14-.31.34v8.18c0,.21.1.3.31.28l1.18-.12c2.05-.22,2.97-1.24,2.97-4.71Z"/><path class="cls-1" d="M156.92,67.09c.87.57,1.36.99,2.02,1.54,1.82-1.85,2.71-3.1,3.04-3.58l-9.1.96.08-2.31,10.65-1.12c.33-.04.74-.17,1.06-.31l1.4,1.68c-.45.42-.61.64-.76.84-1.64,2.12-2.9,3.51-4.8,5.52.32.34.88.97,1.29,1.69-.56.55-1.46,1.45-2.02,2.02-.51-.98-1.4-2.65-4.56-4.95l1.71-1.96Z"/><path class="cls-1" d="M168.75,63.13c1.15.34,2.95,1.3,3.46,1.76-.58.68-1.31,1.82-1.53,2.22-1.24-.98-2.44-1.44-3.35-1.75l1.43-2.22ZM167.98,71.53c4.79-2.17,8.82-6.09,10.9-9.34.46,1.02,1.36,1.82,1.48,1.93-2,3.12-6.6,7.41-10.68,9.37,0,.09-.04.36-.27.38-.11.01-.19-.13-.22-.18l-1.22-2.16ZM170.39,59.52c1.52.44,2.45.79,3.72,1.43-.33.41-1.28,1.82-1.5,2.17-1.1-.7-2.32-1.21-3.6-1.57l1.38-2.03Z"/><path class="cls-1" d="M180.99,69.73c4.33-1.37,8.67-4.81,11.51-9.53.61.99.86,1.35,1.48,1.95-.92,1.43-2.38,3.53-4.87,5.66-1.41,1.21-3.88,2.97-6.33,4.12,0,.17-.09.35-.22.36-.09,0-.15-.03-.24-.19l-1.33-2.37ZM182.59,58.87c2.49,1.07,3.25,1.76,3.68,2.15-.38.49-.49.67-1.54,2.27-1.56-1.26-2.97-1.81-3.72-2.08l1.57-2.33Z"/><path class="cls-1" d="M200.99,58.69l.06-1.82,7.63-.8c-.18,3.58-.32,5.03-.76,5.91-.71,1.41-1.87,1.51-2.79,1.59-.04-.55-.14-1.08-.56-2.03.21,0,.36,0,.57-.03,1.06-.11,1.22-.13,1.42-3.41l-1.46.15c-.07.66-.19,1.95-1.13,3.72-.53,1-1.23,1.61-1.77,2.07-.24-.33-.55-.73-.94-1.03.09.45.12.82.17,1.2-1.22.48-1.36.54-1.74.77-.01-.11-.02-.18-.08-.75-.32.08-.44.09-.61.13l-.22,6.47-1.98.21.17-4.94s-.12.06-.26.1c-.29,2.43-.33,2.62-.63,3.79-.52-.12-1.32-.23-1.9-.22.52-1.94.54-2.08.71-4.16l1.95.09c.06,0,.09,0,.13.03l.03-.98-1.66.31c-.1.21-.24.43-.35.44-.13.01-.17-.18-.18-.32l-.17-1.9c.91-.08,1.18-.12,1.43-.15.28-.37.47-.62.63-.87-.64-.54-1.29-1.07-2.01-1.52l1.06-1.58c.18.09.24.11.4.21.1-.2.92-1.8,1.22-2.71l1.57.7c.1.05.21.1.2.2,0,.23-.35.25-.49.25-.6,1.3-1.13,2.3-1.23,2.48.04.04.28.23.32.28.25-.43.94-1.63,1.31-2.63l1.67.86c.1.05.25.14.25.22,0,.19-.16.2-.55.24-.69,1.22-1.66,2.77-2.2,3.56.64-.11.91-.17,1.11-.21-.08-.38-.15-.59-.21-.84l1.6-.71c.26.81.34,1.12.4,1.38.82-.74,1.73-1.85,1.97-4l-2.13.22ZM200.86,65.01c-.01,1.19.03,2.13.24,3.24-.74.22-1.17.37-1.81.69-.17-1.56-.14-2.35-.1-3.59l1.68-.33ZM203.25,69.8l-.02.48-1.99.21.22-6.3,7.01-.74-.22,6.3-1.99.21.02-.48-3.03.32ZM206.34,67.62l.07-2.08-3.03.32-.07,2.08,3.03-.32Z"/><path class="cls-1" d="M218.24,54.61c.51-.02.63,0,.63.14,0,.17-.19.25-.28.29,1.87,2.39,4.12,3.45,5.79,3.92-.69.86-1.1,1.93-1.19,2.13-1.14-.44-3.93-1.5-6.17-4.61-2.23,3.22-4.74,5.09-6,5.89-.22-.49-.54-.98-1.57-1.66,1.86-1.08,4.42-2.58,6.16-6l2.63-.11ZM215.53,60.55c.27-.01.38.04.37.16,0,.12-.13.21-.28.34-.14,3.94-.39,6.17-3.79,8.73-.3-.53-.62-.89-1.59-1.49,3.01-2.02,3.04-3.17,3.13-7.65l2.15-.1ZM220.48,60.04c.15,0,.32-.02.31.15,0,.09-.05.14-.16.26l-.28,8.12-2.23.23.3-8.71,2.06-.06Z"/></g></svg>