<?xml version="1.0" encoding="UTF-8"?><svg id="_レイヤー_2" xmlns="http://www.w3.org/2000/svg" xmlns:xlink="http://www.w3.org/1999/xlink" viewBox="0 0 291.58 87.96"><defs><style>.cls-1{fill:#000;}.cls-1,.cls-2,.cls-3{stroke-width:0px;}.cls-2{fill:url(#_名称未設定グラデーション_38);}.cls-4{fill:none;stroke:#000;stroke-miterlimit:10;stroke-width:1.5px;}.cls-3{fill:#fff;}</style><linearGradient id="_名称未設定グラデーション_38" x1="0" y1="54.03" x2="291.58" y2="54.03" gradientUnits="userSpaceOnUse"><stop offset="0" stop-color="#00b900"/><stop offset="1" stop-color="#4bce00"/></linearGradient></defs><g id="_レイヤー_1-2"><rect class="cls-1" x="2.78" y="27.56" width="286.01" height="52.96" transform="translate(-2.63 7.7) rotate(-3)"/><polygon class="cls-2" points="286.01 80.51 0 80.51 5.57 27.56 291.58 27.56 286.01 80.51"/><path class="cls-3" d="M54.18,59.61c.91-.04,1.93-.08,3.04-.12,1.12-.04,2.29-.1,3.54-.16,1.24-.06,2.51-.12,3.79-.18,1.29-.06,2.55-.12,3.8-.18l-.38,2.46c-1.63.1-3.27.21-4.93.31-1.66.11-3.25.21-4.76.29-1.52.09-2.88.16-4.08.23l-.02-2.65ZM59.7,45.45l2.8.79c-.51,1-1.11,1.97-1.79,2.93-.68.96-1.38,1.85-2.11,2.67-.72.82-1.44,1.53-2.16,2.12-.16-.18-.37-.38-.63-.62-.27-.24-.54-.47-.83-.7s-.54-.41-.75-.55c.72-.5,1.41-1.11,2.09-1.81.67-.71,1.3-1.47,1.88-2.3.58-.83,1.08-1.67,1.5-2.52ZM60.94,51.97l2.92.72c-.41.76-.84,1.52-1.29,2.28-.45.76-.91,1.51-1.38,2.25-.47.74-.93,1.44-1.39,2.1-.46.66-.9,1.26-1.32,1.79l-2.24-.72c.41-.57.83-1.2,1.27-1.89.44-.69.86-1.41,1.28-2.16.41-.74.8-1.49,1.17-2.23s.7-1.46.98-2.14ZM64.1,56.15l2.6-1.13c.46.69.91,1.43,1.36,2.22.45.79.86,1.56,1.23,2.32.37.76.66,1.44.87,2.06l-2.78,1.38c-.18-.62-.44-1.33-.79-2.13-.35-.8-.74-1.61-1.18-2.44-.43-.83-.87-1.58-1.32-2.28ZM67.56,45.49c.2.53.45,1.08.76,1.65s.65,1.14,1.03,1.7c.38.56.77,1.09,1.17,1.6.4.5.79.95,1.17,1.34-.24.18-.51.39-.81.65-.3.26-.59.53-.87.8-.28.28-.52.53-.71.76-.39-.49-.79-1.03-1.19-1.63-.4-.59-.79-1.22-1.18-1.87-.39-.66-.75-1.32-1.1-2-.35-.67-.65-1.34-.91-2l2.64-1.02Z"/><path class="cls-3" d="M72.11,59.86c.78-.11,1.7-.25,2.75-.41s2.16-.33,3.34-.53,2.34-.39,3.49-.6l-.08,2.23c-1.05.21-2.11.43-3.19.65-1.08.22-2.12.43-3.13.63-1.01.2-1.93.38-2.77.55l-.39-2.53ZM73.58,48.17h17.08l-.3,2.46h-17.08l.3-2.46ZM73.75,52.62h8.15l-.3,2.42h-8.15l.3-2.42ZM76.3,54h2.51l-.77,6.32h-2.51l.77-6.32ZM83.14,45.13h2.7c-.22,1.49-.38,2.97-.49,4.43-.1,1.47-.15,2.85-.14,4.13.01,1.29.08,2.42.21,3.41.12.99.3,1.76.54,2.33.23.56.51.84.84.84.19,0,.37-.27.54-.81.17-.54.36-1.39.55-2.55.26.28.57.56.95.84.37.28.73.49,1.07.61-.26,1.23-.56,2.18-.89,2.83-.32.65-.71,1.1-1.15,1.35-.44.25-.98.38-1.63.38-.71,0-1.29-.24-1.76-.72-.47-.48-.85-1.14-1.14-1.99-.29-.85-.49-1.83-.62-2.96-.13-1.13-.19-2.35-.18-3.68,0-1.32.06-2.71.17-4.14s.25-2.87.42-4.31ZM86.37,46.38l1.83-1.36c.24.18.51.38.79.62.29.24.55.48.8.73.25.25.44.48.58.69l-1.94,1.49c-.11-.21-.28-.45-.52-.71-.23-.26-.48-.52-.75-.78-.26-.26-.53-.49-.79-.69Z"/><path class="cls-3" d="M91.64,61.17l1.72-14.05h3.08l-1.4,11.46h5.6l-.32,2.59h-8.68Z"/><path class="cls-3" d="M102.51,61.17l1.72-14.05h3.08l-1.72,14.05h-3.08Z"/><path class="cls-3" d="M108.76,61.17l1.72-14.05h3.14l2.91,7.11,1.02,3.08h.09c0-.74.01-1.57.03-2.47s.08-1.77.18-2.6l.63-5.12h2.93l-1.72,14.05h-3.14l-2.89-7.15-1.03-3.03h-.09c-.03.76-.05,1.58-.06,2.46,0,.88-.06,1.74-.16,2.57l-.63,5.14h-2.93Z"/><path class="cls-3" d="M122.89,61.17l1.72-14.05h8.76l-.31,2.57h-5.67l-.36,2.93h4.8l-.32,2.59h-4.8l-.41,3.37h5.88l-.32,2.59h-8.96Z"/><path class="cls-3" d="M143.94,50.92c-.11.91-.24,1.8-.37,2.67-.14.87-.34,1.71-.6,2.5-.26.8-.62,1.57-1.09,2.3-.46.73-1.06,1.43-1.8,2.09-.74.66-1.67,1.28-2.8,1.86l-2.2-1.99c.33-.11.68-.25,1.05-.43.37-.17.76-.4,1.16-.69.62-.4,1.13-.83,1.54-1.27.41-.44.74-.92.99-1.44.25-.52.45-1.09.61-1.71.15-.62.27-1.32.37-2.09.04-.31.07-.61.09-.9.02-.28.02-.59,0-.92h3.04ZM151.99,48.36c-.12.13-.27.3-.46.51-.19.21-.34.4-.45.55-.36.5-.83,1.08-1.39,1.73s-1.17,1.28-1.82,1.89c-.65.61-1.29,1.13-1.94,1.56l-1.94-1.72c.4-.24.78-.5,1.16-.79.38-.28.74-.58,1.07-.89.33-.31.63-.61.89-.9.26-.29.45-.54.59-.76h-9.61c-.4,0-.78.01-1.13.04-.35.03-.77.06-1.25.11l.36-2.91c.37.05.75.1,1.15.14.39.04.79.07,1.19.07h10c.2,0,.44,0,.72-.02.28-.01.55-.04.81-.07.26-.03.46-.06.59-.09l1.46,1.53Z"/><path class="cls-3" d="M162.55,45.9c-.05.23-.11.52-.18.87-.07.35-.12.64-.16.87-.28,1.87-.63,3.53-1.06,4.98-.43,1.46-.96,2.75-1.58,3.89-.63,1.14-1.38,2.17-2.25,3.07-.87.91-1.9,1.75-3.08,2.51l-2.2-1.97c.45-.24.92-.52,1.44-.85.51-.33,1-.7,1.45-1.12.71-.64,1.31-1.33,1.81-2.06.5-.73.92-1.52,1.26-2.37.34-.85.63-1.78.85-2.78.22-1,.41-2.09.55-3.26.02-.14.03-.32.05-.55.02-.23.02-.46.03-.68,0-.23,0-.42,0-.57h3.08ZM168.42,50.01c-.04.15-.09.33-.14.54s-.08.36-.09.46c-.06.42-.15.94-.26,1.58-.11.64-.24,1.32-.38,2.04-.15.72-.3,1.45-.47,2.16-.17.72-.35,1.38-.55,2-.2.61-.4,1.12-.61,1.52-.26.49-.61.87-1.05,1.13-.44.26-.99.4-1.68.4-.55,0-1.11-.02-1.66-.06-.55-.04-1.04-.08-1.48-.11v-2.78c.44.08.9.14,1.36.19.46.05.87.08,1.24.08.31,0,.55-.05.71-.16.16-.11.3-.28.41-.52.13-.23.26-.54.39-.93s.25-.83.37-1.32c.12-.49.23-1,.35-1.53.11-.53.21-1.05.29-1.55.08-.5.15-.96.2-1.38h-9.02c-.32,0-.72,0-1.21.02-.49.01-.96.04-1.39.08l.34-2.74c.42.05.87.09,1.33.11.46.03.87.04,1.22.04h8.59c.24,0,.49-.01.75-.04.26-.03.52-.06.78-.11l1.67.89Z"/><path class="cls-3" d="M186.89,49.72c-.1.21-.21.49-.32.81-.11.33-.19.59-.26.78-.15.48-.3.94-.47,1.39-.17.45-.35.89-.54,1.32-.19.44-.4.86-.63,1.29-.23.42-.48.85-.76,1.28-.62.96-1.38,1.82-2.26,2.58s-1.86,1.41-2.9,1.95c-1.05.54-2.15.95-3.31,1.24l-1.87-2.51c.46-.08.97-.19,1.51-.34.54-.15,1.03-.31,1.47-.47.52-.19,1.04-.43,1.56-.73.53-.29,1.04-.64,1.52-1.02.49-.38.94-.82,1.35-1.3.36-.45.67-.93.95-1.44.28-.5.52-1.03.72-1.58s.38-1.11.53-1.67h-9.04c-.02.16-.04.36-.07.59-.03.23-.06.47-.09.73-.03.26-.06.5-.09.72-.03.22-.05.41-.07.56-.03.23-.05.48-.07.76-.02.28-.03.52-.03.72h-2.89c.06-.25.11-.53.17-.83.06-.3.1-.59.13-.85.02-.15.05-.38.08-.67.04-.3.07-.61.12-.94.04-.33.08-.64.11-.94.04-.29.07-.54.09-.73.03-.21.05-.49.08-.82.03-.33.04-.61.03-.84.34.03.66.04.96.06.3.01.64.02,1.02.02h9.95c.4,0,.74-.02,1-.06.26-.04.49-.09.67-.15l1.66,1.12ZM181.05,45.64c-.1.43-.18.77-.23,1.01-.05.25-.09.52-.13.82-.02.16-.05.42-.09.77s-.09.71-.13,1.08c-.05.37-.08.68-.11.94h-2.93c.04-.29.08-.62.12-.99.05-.37.09-.72.13-1.05.04-.33.07-.57.09-.74.04-.3.06-.58.07-.82.01-.25.01-.58,0-1.01h3.21Z"/><path class="cls-3" d="M187.84,59.22c.99-.14,1.92-.33,2.8-.57.88-.24,1.71-.51,2.49-.82.78-.31,1.5-.64,2.16-.99,1.19-.66,2.29-1.4,3.3-2.22,1.01-.83,1.91-1.69,2.71-2.59.8-.9,1.45-1.79,1.96-2.66l1.27,2.95c-.6.87-1.31,1.73-2.14,2.59-.83.86-1.74,1.67-2.74,2.43-1,.76-2.05,1.45-3.16,2.07-.69.38-1.43.74-2.21,1.08-.79.34-1.6.64-2.45.9-.85.26-1.7.46-2.56.6l-1.44-2.76ZM191.98,46.64c.3.23.65.51,1.05.84.4.33.81.69,1.24,1.07.43.38.83.75,1.2,1.13.37.37.68.7.92.99l-2.41,2.19c-.22-.28-.5-.6-.84-.96-.34-.37-.71-.75-1.12-1.14-.41-.4-.81-.77-1.21-1.12-.4-.35-.76-.64-1.08-.87l2.25-2.12Z"/><path class="cls-3" d="M208.03,59.31c.03-.25.08-.66.15-1.22.07-.56.15-1.2.23-1.92.09-.72.18-1.47.28-2.25s.19-1.54.28-2.27c.09-.73.17-1.38.24-1.94.07-.56.12-.97.15-1.24.04-.35.08-.75.1-1.19.02-.44.02-.83-.02-1.17h3.27c-.08.34-.17.71-.26,1.12-.09.41-.17.82-.22,1.24-.04.3-.09.74-.16,1.32-.07.58-.15,1.24-.24,1.97-.09.73-.18,1.48-.27,2.25-.09.77-.18,1.51-.26,2.22-.09.71-.16,1.34-.23,1.88s-.11.94-.15,1.19c-.02.18-.05.43-.07.76-.03.33-.04.67-.05,1.03,0,.36-.01.68-.02.96h-3.29c.11-.38.22-.83.32-1.36.1-.53.18-.99.23-1.38ZM211.32,50.99c.61.16,1.29.38,2.04.63.75.26,1.51.53,2.28.82.77.29,1.49.58,2.15.86.67.28,1.21.53,1.62.75l-1.55,2.91c-.5-.28-1.05-.55-1.65-.83-.6-.28-1.21-.55-1.83-.81-.62-.27-1.22-.51-1.81-.73-.59-.22-1.13-.42-1.63-.6l.37-3.01Z"/><path class="cls-3" d="M221.47,55.42c.33-.24.64-.48.93-.73.29-.25.6-.52.92-.82.24-.23.52-.5.83-.82.31-.32.64-.67,1-1.06.36-.38.72-.77,1.08-1.16.36-.39.72-.75,1.06-1.08.78-.79,1.5-1.22,2.17-1.27.67-.05,1.32.26,1.95.95.4.42.8.89,1.2,1.44.4.54.79,1.08,1.16,1.61.38.53.72,1,1.02,1.4.27.33.56.67.87,1.04.3.37.62.75.96,1.14.34.39.69.79,1.05,1.19.37.4.76.81,1.18,1.21l-2.48,2.51c-.39-.42-.79-.88-1.21-1.4-.42-.52-.82-1.04-1.23-1.57-.4-.53-.77-1.02-1.11-1.47-.33-.47-.68-.96-1.03-1.48s-.69-1.01-1.03-1.49c-.33-.48-.62-.89-.87-1.23-.19-.23-.36-.37-.51-.43-.16-.06-.31-.05-.47.03-.16.08-.34.24-.54.46-.2.23-.45.5-.73.82-.28.32-.57.66-.87,1.01-.3.35-.59.7-.87,1.04-.28.34-.53.64-.75.91-.27.31-.53.64-.78.97-.26.33-.48.63-.68.9l-2.23-2.61Z"/><path class="cls-3" d="M267.23,47.47c3.64,0,6.56,2.93,6.56,6.56s-2.93,6.56-6.56,6.56-6.56-2.93-6.56-6.56,2.93-6.56,6.56-6.56ZM266.55,50.21c-.11,0-.22.05-.3.14l-.63.63c-.19.16-.19.44,0,.63l2.43,2.43-2.43,2.43c-.19.19-.19.46,0,.63l.63.63c.08.08.19.14.3.14.14,0,.25-.05.33-.14l3.23-3.23c.25-.25.25-.68,0-.93l-3.23-3.23c-.08-.08-.19-.14-.33-.14Z"/><path class="cls-1" d="M49.73,12.43h-5.43c-2.34,0-3.52-1.43-3.28-3.75l.06-.54h1.93c-.15,1.4-.2,2.37,1.5,2.37h5.43l-.2,1.93ZM50.7,2.29h-.37l-.17,1.65h-7.88l.2-1.93h6.86l.13-1.22h1.39l-.16,1.49ZM52.59,2.29h-1.4l.16-1.49h1.4l-.16,1.49Z"/><path class="cls-1" d="M60.34,1.18c-.27,2.6-.39,7.38,4.04,10.12-.47.34-1.34,1.2-1.72,1.69-2.35-1.51-3.51-3.83-4.02-6.13-1.29,2.76-3.07,4.85-5.34,6.16-.31-.41-1.13-1.22-1.59-1.57,2.81-1.32,4.62-3.83,5.64-7.19l.93.17c-.03-.45-.04-.89-.04-1.3h-2.92l.21-1.96h4.81Z"/><path class="cls-1" d="M68.78,5.19c-.72.46-1.51.9-2.3,1.24-.18-.46-.61-1.2-.97-1.61,2.36-.95,4.62-2.82,5.73-4.31h2.04c1.21,1.94,3.05,3.33,5.07,4.02-.53.49-1.02,1.18-1.43,1.76-.67-.32-1.35-.74-2-1.2l-.11,1.08h-6.13l.1-.98ZM74.27,8.74c.99.99,1.97,2.26,2.45,3.21l-1.91,1.08c-.09-.24-.24-.5-.39-.78-3.06.17-6.27.32-8.54.42l-.05-1.88c.61-.01,1.29-.04,2.03-.07.36-.62.71-1.33.99-2h-2.84l.19-1.78h11.01l-.19,1.78h-2.74ZM74.04,4.41c-.79-.66-1.47-1.37-1.9-2.06-.57.67-1.35,1.39-2.24,2.06h4.14ZM71.21,8.74c-.4.65-.81,1.32-1.21,1.93,1.05-.04,2.15-.08,3.24-.12-.3-.38-.62-.75-.93-1.08l1.48-.73h-2.58Z"/><path class="cls-1" d="M83.07,4.91c1.02,0,1.76.83,1.66,1.85s-1.03,1.85-2.04,1.85-1.76-.83-1.66-1.85,1.03-1.85,2.04-1.85Z"/><path class="cls-1" d="M94.18,12.54h-.37l.19-1.85h.37c.53,0,1.11-.22,1.55-.55.45-.34.67-.81.72-1.35.12-1.1-.75-1.75-1.79-1.75h-1.43l-.37,3.52c-.12,1.12-1.03,1.97-2.15,1.98h-.29c-2,.01-2.81-1.8-2.62-3.58.11-1.06.6-1.97,1.44-2.72.5-.46,1.58-.95,2.25-.96l.14-1.33h-2.51l.17-1.67h2.51l.11-1.06h1.93l-.11,1.06h2.59l-.17,1.67h-2.59l-.13,1.25c.98,0,1.99-.09,2.89.24,1.44.5,2.22,1.78,2.05,3.36-.24,2.3-2.19,3.75-4.4,3.75ZM91.49,7.16c-.84.08-1.46,1.07-1.54,1.82-.07.62.04,1.77.87,1.77.16,0,.3-.1.32-.28l.35-3.32ZM99.5,4.94h-1.93c.22-2.07.25-1.74-.45-3.38h2.11c.36.73.49,1.22.4,2.09l-.14,1.29Z"/><path class="cls-1" d="M103.07,6.07l-.73,6.97h-1.9l1.27-12.08h5.26l-.54,5.12h-3.36ZM104.78,4.63l.05-.49h-1.56l-.05.49h1.56ZM103.46,2.4l-.05.48h1.56l.05-.48h-1.56ZM112.04,10.82c-.11,1.02-.36,1.55-1,1.86-.65.32-1.52.36-2.77.36-.01-.52-.2-1.36-.41-1.88h-2.47l-.08.73h-1.77l.53-5.06h5.25l-.45,4.3h.86c.25,0,.35-.09.38-.33l.49-4.71h-3.45l.54-5.13h5.39l-1.04,9.86ZM107.36,8.39h-1.68l-.13,1.22h1.68l.13-1.22ZM110.75,4.66l.05-.52h-1.62l-.05.52h1.62ZM109.36,2.39l-.05.49h1.62l.05-.49h-1.62Z"/><path class="cls-1" d="M121.65.5c1.22,2.06,3.09,3.66,5.13,4.47-.53.49-1.03,1.14-1.44,1.73-.6-.33-1.19-.73-1.77-1.16l-.09.87h-6.61l.1-.94c-.67.45-1.37.86-2.08,1.22-.2-.45-.67-1.16-1.04-1.56,2.37-1.07,4.67-3.05,5.79-4.63h2.01ZM115.8,7.53h8.62l-.58,5.54h-1.98l.05-.46h-4.74l-.05.46h-1.89l.58-5.54ZM117.51,9.21l-.18,1.72h4.74l.18-1.72h-4.74ZM122.59,4.73c-.86-.77-1.59-1.59-2.06-2.35-.64.78-1.5,1.59-2.51,2.35h4.57Z"/><path class="cls-1" d="M139.23,5.53h-2.13l-.11,1.07c-.15,1.43-1.31,2.5-2.73,2.5h-.65l.2-1.93c.5,0,1.13.15,1.21-.57l.11-1.07h-3.16l-.34,3.28c-.12,1.11.18,1.8,1.38,1.8h4.62l-.2,1.93h-4.65c-.98,0-1.92-.3-2.51-1.04-.6-.74-.72-1.72-.62-2.68l.34-3.28h-2.05l.2-1.93h2.05l.23-2.17h1.97l-.23,2.17h3.16l.23-2.17h1.97l-.23,2.17h2.13l-.2,1.93Z"/><path class="cls-1" d="M144.54,4.91c1.02,0,1.76.83,1.66,1.85s-1.03,1.85-2.04,1.85-1.76-.83-1.66-1.85,1.03-1.85,2.04-1.85Z"/><path class="cls-1" d="M161.16,7.61c-.46,1.24-1.08,2.26-1.84,3.09.58.37,1.28.65,2.07.83-.42.34-1,1.04-1.28,1.49-.85-.25-1.57-.62-2.18-1.1-.66.46-1.38.83-2.17,1.14-.13-.36-.4-.86-.66-1.23l-.13,1.2h-1.84l.1-.95c-1.48.11-2.96.21-4.11.3l.05-1.64c.33-.01.7-.03,1.1-.05l.4-3.78h-.98l.16-1.51h11.91l-.16,1.51h-5.99l-.48,4.57c.58-.2,1.12-.48,1.62-.81-.37-.51-.65-1.1-.89-1.74l1.03-.28h-1.23l.15-1.44h3.88l.32-.05,1.14.44ZM160.23,5.08h-8.81l.44-4.18h8.81l-.44,4.18ZM153.38,10.53l.04-.34h-1.36l-.04.42,1.37-.08ZM152.19,8.89h1.36l.04-.36h-1.36l-.04.36ZM152.4,6.92l-.03.32h1.36l.03-.32h-1.36ZM158.46,3.55h-5.05l-.03.33h5.05l.03-.33ZM158.62,2.11h-5.05l-.03.32h5.05l.03-.32ZM157.49,8.67c.14.33.33.63.55.93.27-.29.5-.6.71-.93h-1.26Z"/><path class="cls-1" d="M167.3,11.28c-.15-.21-.36-.48-.58-.75l-.26,2.5h-1.86l.23-2.19c-.48.57-1.01,1.08-1.51,1.47-.25-.41-.74-1.04-1.1-1.36.88-.53,1.81-1.41,2.49-2.31h-1.84l.17-1.6h2.19l.08-.81h-2.23l.16-1.56h1.07c-.01-.37-.1-.83-.21-1.19l.72-.17h-1.28l.16-1.55h2.07l.12-1.12h1.86l-.12,1.12h2.08l-.16,1.55h-1.07l.56.11c-.28.49-.49.92-.69,1.25h1.14l-.16,1.56h-2.15l-.08.81h2.02l-.17,1.6h-2.02c.44.32,1.37,1.08,1.62,1.3l-1.24,1.36ZM165.67,3.3c.13.4.23.87.23,1.2l-.6.16h2.26l-.78-.16c.17-.34.38-.81.52-1.2h-1.64ZM171.64,4.81h3.96l-.19,1.77h-1.12l-.67,6.4h-1.86l.67-6.4h-.98c-.25,1.96-.88,4.72-2.7,6.48-.19-.42-.82-1.08-1.24-1.31,1.61-1.6,1.98-3.85,2.16-5.63l.48-4.61,1.01.29c1.25-.32,2.5-.74,3.33-1.18l1.39,1.39c-1.23.54-2.73.94-4.09,1.23l-.17,1.57Z"/><path class="cls-1" d="M189.28,4.62l-.14,1.35h-8.75l.14-1.35h3.37l.04-.36h-2.58v-.04s-1.05.48-1.05.48c-.04-.26-.12-.61-.22-.96l-.98,9.3h-1.73l.83-7.88c-.15.7-.35,1.4-.54,1.96l-1.32-.48c.36-.91.7-2.41.88-3.5l1.17.15.29-2.8h1.73l-.21,2.05.79-.32.14.41.14-1.31h2.96l.09-.83h1.9l-.09.83h3.05l-.14,1.34h-3.05l-.04.36h2.67l-.13,1.26h-2.67l-.04.36h3.48ZM187.75,11.3c-.08.79-.28,1.24-.84,1.49-.56.26-1.25.28-2.16.28-.02-.48-.17-1.18-.33-1.63.46.04,1.09.03,1.27.03s.24-.05.26-.21l.02-.15h-3.5l-.21,1.96h-1.77l.71-6.73h7.08l-.52,4.96ZM184.07,3.01l.04-.36h-2.95c.1.29.19.59.28.87l.05-.52h2.58ZM186.1,9.81l.04-.37h-3.5l-.04.37h3.5ZM182.82,7.71l-.04.41h3.5l.04-.41h-3.5Z"/><path class="cls-1" d="M194.43,3.8h2.09l-.17,1.6h-.92l.43.11c-.26.46-.48.88-.67,1.24h.82l-.17,1.6h-1.88l-.08.79h1.74l-.17,1.6h-1.74l-.24,2.26h-1.77l.24-2.26h-1.85l.17-1.6h1.85l.08-.79h-1.96l.17-1.6h.85c-.04-.38-.12-.86-.24-1.24l.43-.11h-1.22l.17-1.6h2.27l.07-.67h-1.8l.17-1.57h1.8l.11-1.02h1.77l-.11,1.02h1.61l-.17,1.57h-1.61l-.07.67ZM193.73,6.64c.17-.36.36-.83.51-1.24h-1.69c.13.42.24.91.24,1.24l-.39.11h1.7l-.37-.11ZM202.49,5.94c-.41,1.6-.98,3.07-1.73,4.3.44.54.97.99,1.58,1.32-.45.34-1.07,1.03-1.4,1.51-.51-.34-.95-.77-1.33-1.26-.43.48-.89.9-1.39,1.26-.16-.29-.42-.62-.7-.91l-.09.87h-1.73l1.26-12.01h5.74l-.26,2.47c-.08.78-.29,1.24-.9,1.49-.59.25-1.34.26-2.29.26-.01-.5-.18-1.19-.34-1.64.54.03,1.29.03,1.48.03.2-.01.27-.04.28-.19l.08-.77h-2.23l-.31,2.92h2.88l.31-.07,1.09.41ZM197.6,11.39c.39-.33.75-.69,1.08-1.08-.3-.66-.55-1.39-.74-2.16l-.34,3.24ZM199.27,7.11c.12.53.29,1.03.5,1.51.25-.48.46-.98.63-1.51h-1.14Z"/><path class="cls-1" d="M204.44,12.54c-.34-1.07-.44-2.22-.32-3.38l.81-7.72h1.93l-.81,7.72c-.13,1.28.08,2.25.49,3.38h-2.1ZM214.94,4.89h-2.01l-.34,3.28c.64.37,1.27.78,1.85,1.22l-.24,2.27c-.63-.42-1.26-.86-1.89-1.27-.38,1.36-1.59,2.29-2.98,2.29-1.56,0-2.6-1.16-2.44-2.72.17-1.59,1.59-2.51,3.06-2.51.26,0,.51.03.76.08l.28-2.63h-3.38l.2-1.93h3.38l.18-1.75h1.93l-.18,1.75h2.01l-.2,1.93ZM210.52,9.48c-.24-.12-.49-.2-.77-.2-.44,0-.89.2-.95.7-.05.46.28.75.73.75.56,0,.9-.41.96-.93l.03-.33Z"/><path class="cls-1" d="M225.55,12.43h-5.43c-2.34,0-3.52-1.43-3.28-3.75l.06-.54h1.93c-.15,1.4-.2,2.37,1.5,2.37h5.43l-.2,1.93ZM225.98,3.95h-7.88l.2-1.93h7.88l-.2,1.93Z"/><path class="cls-1" d="M233.89,12.54h-4.17l.2-1.93h4.17c1.08,0,2.23-.33,2.36-1.61.11-1.02-.51-1.48-1.47-1.48h-.77c-1.02,0-2.31.57-3.11,1.28h-1.85l1.73-4.27h-2.38l.2-1.93h2.96l.56-1.39h2.05l-.56,1.39h4.94l-.2,1.93h-5.52l-.59,1.45c.63-.25,1.31-.4,1.97-.4.77,0,1.38-.04,2.09.21,1.36.49,2.03,1.72,1.87,3.2-.25,2.39-2.29,3.54-4.5,3.54Z"/><path class="cls-1" d="M249.71,10.12c-.92,1.72-2.74,2.42-4.52,2.42h-3.45l.2-1.93h3.45c1.2,0,2.68-.49,2.83-1.93.12-1.12-.73-1.77-1.77-1.77h-.42c-.62,0-1.15.28-1.66.66-.64.48-1.27.98-1.86,1.49h-1.49l.51-4.85h2l-.2,1.93c.81-.65,1.72-1.16,2.72-1.16.79,0,1.43-.01,2.15.29,1.35.57,2.11,1.89,1.95,3.41-.05.49-.2.99-.44,1.44ZM249.06,3.99l-1.84-.62c-.47-.16-1.19-.24-1.71-.24h-3.28l.2-1.93h3.28c1.4,0,2.28.33,3.55.77l-.21,2.02Z"/><line class="cls-4" x1="21.06" y1=".38" x2="30.56" y2="16.5"/><line class="cls-4" x1="270.52" y1=".38" x2="261.02" y2="16.5"/></g></svg>