<?xml version="1.0" encoding="UTF-8"?><svg id="_レイヤー_2" xmlns="http://www.w3.org/2000/svg" viewBox="0 0 336 132.36"><defs><style>.cls-1{fill:#00b900;}.cls-1,.cls-2{stroke-width:0px;}.cls-3{fill:none;stroke:#00b900;stroke-miterlimit:10;}.cls-2{fill:#fff;}</style></defs><g id="_レイヤー_1-2"><rect class="cls-1" x=".5" y=".5" width="335" height="131.36" rx="11.46" ry="11.46"/><path class="cls-2" d="M92.93,45.94c0-15.38-15.42-27.89-34.37-27.89s-34.37,12.51-34.37,27.89c0,13.79,12.23,25.34,28.74,27.52,1.12.24,2.64.74,3.03,1.69.35.87.23,2.23.11,3.11,0,0-.4,2.43-.49,2.94-.15.87-.69,3.4,2.98,1.85s19.79-11.65,27.01-19.96h0c4.98-5.46,7.37-11.01,7.37-17.16h-.01ZM46.44,54.15c0,.37-.3.67-.67.67h-9.63c-.18,0-.34-.07-.46-.19h0c-.12-.13-.19-.29-.19-.47v-14.97c0-.37.3-.67.67-.67h2.41c.37,0,.67.3.67.67v11.89h6.55c.37,0,.67.3.67.67v2.41h-.02ZM52.25,54.15c0,.37-.3.67-.67.67h-2.41c-.37,0-.67-.3-.67-.67v-14.98c0-.37.3-.67.67-.67h2.41c.37,0,.67.3.67.67v14.98ZM68.84,54.15c0,.37-.3.67-.67.67h-2.41c-.06,0-.12,0-.17-.02h0s-.03,0-.05-.02h-.02s-.02,0-.03,0c0,0-.02,0-.03-.02,0,0,0,0-.02,0,0,0-.03-.02-.04-.02h0c-.06-.04-.12-.1-.17-.16l-6.87-9.28v8.89c0,.37-.3.67-.67.67h-2.41c-.37,0-.67-.3-.67-.67v-14.98c0-.37.3-.67.67-.67h2.58s.03,0,.04,0h.02s.03,0,.04.02h.02s.02,0,.03.02c0,0,0,0,.02,0,0,0,.02.02.03.02,0,0,0,0,.02,0,0,0,.02.02.04.03h0s.03.04.04.05h0s.04.04.05.07l6.86,9.27v-8.9c0-.37.3-.67.67-.67h2.41c.37,0,.67.3.67.67v14.98l.02.04ZM82.16,41.58c0,.37-.3.67-.67.67h-6.55v2.53h6.55c.37,0,.67.3.67.67v2.41c0,.37-.3.67-.67.67h-6.55v2.53h6.55c.37,0,.67.3.67.67v2.41c0,.37-.3.67-.67.67h-9.63c-.18,0-.34-.07-.46-.19h0c-.12-.13-.19-.29-.19-.47v-14.97c0-.18.07-.34.19-.46h0c.12-.13.28-.2.46-.2h9.63c.37,0,.67.3.67.67v2.41-.02Z"/><path class="cls-2" d="M.5,100.21v20.76c0,6.01,4.87,10.89,10.89,10.89h313.22c6.01,0,10.89-4.87,10.89-10.89v-20.76H.5Z"/><rect class="cls-3" x=".5" y=".5" width="335" height="131.36" rx="11.46" ry="11.46"/><path class="cls-2" d="M132.76,35.52c.71,1.1.77,2.67.6,3.9-.36,2.58-1.82,4.81-4.15,6.19-2.06,1.26-5.41,1.7-7.64,1.7-2.79,0-6.13-.66-7.88-2.73-1.17-1.35-1.56-3.24-1.29-5.15.26-1.89,1.12-3.55,2.69-4.81.87-.72,1.56-1.01,2.57-1.35-.72-.38-1.18-.63-1.71-1.26-.96-1.13-1.39-2.7-1.17-4.27.32-2.29,1.85-4.15,3.84-5.34,2.06-1.26,4.61-1.73,6.84-1.73,2.45,0,4.84.57,6.65,2.01,1.54,1.19,2.44,2.89,2.14,5.06-.22,1.6-1.09,3.14-2.36,4.27-.71.63-1.24.88-2.06,1.26,1.32.53,2.15,1.04,2.93,2.26ZM123.53,35.37c-2.17,0-4.23.82-4.58,3.33-.36,2.54,1.48,3.33,3.65,3.33s4.09-.91,4.43-3.33c.34-2.42-1.36-3.33-3.5-3.33ZM124.1,31.5c1.7,0,3.31-.85,3.58-2.77.27-1.92-1.07-2.76-2.8-2.76s-3.5.69-3.79,2.76c-.29,2.07,1.22,2.77,3.02,2.77Z"/><path class="cls-2" d="M144.51,39.32c-1.42,4.15-3.76,7.19-7.22,10.02-1.05-1.32-2.66-2.64-4.21-3.36,5.02-3.58,6.63-7.32,7.42-12.94l1.7-12.13h20.15l-3.27,23.34c-.21,1.48-.48,2.8-1.86,3.8-1.13.79-2.92.94-5.24.94h-1.33c.14-1.7-.18-4.05-.9-5.5.51.09,2.15.31,2.74.31,1.05,0,1.19-.5,1.31-1.41l.43-3.08h-9.72ZM155.2,32.41h-9.17l-.05.34c-.09.66-.21,1.29-.3,1.95h9.2l.32-2.29ZM156.14,25.69h-9.17l-.32,2.26h9.17l.32-2.26Z"/><path class="cls-2" d="M171.43,30.65h-4.68l.64-4.59c3.35-.5,5.09-1.41,6.67-4.71h5.08l-3.54,25.26h-6.41l2.23-15.96Z"/><path class="cls-2" d="M203.22,35.52c.71,1.1.77,2.67.6,3.9-.36,2.58-1.82,4.81-4.15,6.19-2.06,1.26-5.41,1.7-7.64,1.7-2.79,0-6.13-.66-7.88-2.73-1.17-1.35-1.56-3.24-1.29-5.15.26-1.89,1.12-3.55,2.69-4.81.87-.72,1.56-1.01,2.57-1.35-.72-.38-1.18-.63-1.71-1.26-.96-1.13-1.39-2.7-1.17-4.27.32-2.29,1.85-4.15,3.84-5.34,2.06-1.26,4.61-1.73,6.84-1.73,2.45,0,4.84.57,6.65,2.01,1.54,1.19,2.44,2.89,2.14,5.06-.22,1.6-1.09,3.14-2.36,4.27-.71.63-1.24.88-2.06,1.26,1.32.53,2.15,1.04,2.93,2.26ZM193.99,35.37c-2.17,0-4.23.82-4.58,3.33-.36,2.54,1.48,3.33,3.65,3.33s4.09-.91,4.43-3.33c.34-2.42-1.36-3.33-3.5-3.33ZM194.56,31.5c1.7,0,3.31-.85,3.58-2.77.27-1.92-1.07-2.76-2.8-2.76s-3.5.69-3.79,2.76c-.29,2.07,1.22,2.77,3.02,2.77Z"/><path class="cls-2" d="M212.7,46.36l-.23,1.63h-5.54l3.65-26.08h23.16l-3.64,26.01h-5.63l.22-1.57h-11.98ZM226.08,36.37h-11.98l-.71,5.09h11.98l.71-5.09ZM227.42,26.82h-11.98l-.68,4.84h11.98l.68-4.84Z"/><path class="cls-2" d="M241.51,32.37c-.79,2.04-1.39,4.16-1.69,6.27-.3,2.12-.29,4.23-.07,6.28.2,1.86.49,2.96,1.08,4.65h-3.52c-.57-1.06-.76-1.64-1.04-2.84-.6-2.51-.87-5.38-.49-8.08.38-2.7,1.45-5.57,2.75-8.08.61-1.2.97-1.79,1.83-2.84h3.52c-1.07,1.72-1.67,2.8-2.39,4.65Z"/><path class="cls-2" d="M250.63,41.16c-1.06,3.1-2.81,5.38-5.4,7.5-.79-.99-1.99-1.97-3.14-2.51,3.75-2.68,4.96-5.47,5.55-9.68l1.27-9.07h15.07l-2.44,17.46c-.16,1.1-.36,2.09-1.39,2.84-.85.59-2.18.71-3.92.71h-1c.11-1.27-.13-3.03-.67-4.11.38.07,1.61.24,2.05.24.79,0,.89-.38.98-1.06l.32-2.3h-7.27ZM258.62,35.99h-6.85l-.04.26c-.07.49-.16.96-.23,1.46h6.88l.24-1.71ZM259.33,30.96h-6.85l-.24,1.69h6.85l.24-1.69Z"/><path class="cls-2" d="M270.53,27.72c.57,1.06.76,1.65,1.06,2.84.6,2.51.84,5.38.47,8.08-.38,2.7-1.43,5.57-2.73,8.08-.63,1.2-.99,1.79-1.86,2.84h-3.52c1.09-1.69,1.67-2.8,2.39-4.65.79-2.04,1.39-4.16,1.69-6.28.3-2.11.29-4.23.07-6.27-.2-1.86-.47-2.94-1.08-4.65h3.52Z"/><path class="cls-2" d="M286.45,39.82c2.21.59,5.68,2.44,7.4,3.88-1.05,1.08-2.21,2.37-3.07,3.57-1.27-1.17-3.17-2.51-4.78-3.22-.14.71-.31,1.25-.64,1.79-1.16,1.83-3.6,2.26-5.27,2.26s-4.26-.47-5.5-1.74c-.71-.73-1.06-1.69-.88-2.94.47-3.38,4.81-4.42,7.47-4.42.32,0,.9.02,1.2.05.12-1.71.33-3.67.53-5.12.21-1.5.4-3.03.57-4.54.09-.99.13-1.6.03-2.4l4.67.56c.23.02.48.05.43.38-.04.28-.24.38-.51.47-.27.63-.53,1.83-.76,3.15,2-.05,4.99-.4,6.97-1.03-.25,1.15-.46,2.3-.62,3.45-.04.31-.08.54-.11.92-1.8.45-5.05.71-6.86.71-.17,1.53-.25,2.96-.27,4.23ZM280.33,42.5c-.67,0-2.21.07-2.34.99-.12.85,1.18.96,1.79.96s1.03-.09,1.35-.23c.65-.31.8-.78.9-1.48-.55-.19-1.1-.23-1.7-.23Z"/><path class="cls-2" d="M303.43,27.91c.29.07.49.16.45.4-.03.23-.33.4-.53.49-.97,1.79-1.69,4.49-1.96,6.42-.09.61-.11,1.15-.1,1.74.47-.71.98-1.55,1.62-2.66.59.73,1.29,1.34,2.04,1.93-1.31,1.71-2.77,3.92-3.36,5.95l-3.79.31c-.56-2.61-.54-5.55-.16-8.29.31-2.23.82-3.9,1.55-6.09.12-.35.24-.75.34-1.1l3.9.92ZM314.01,27.11c.23,0,.5.05.46.33-.04.26-.24.38-.44.49-.12,2.7-.34,5.38-.71,8.08-.5,3.55-1.37,6.16-4.05,8.95-1.52,1.6-3.11,2.73-5.04,3.74-.49-.8-1.77-2.26-2.91-3.03,1.8-.75,3.32-1.72,4.72-3.12,2.19-2.26,2.71-4.46,3.1-7.28.38-2.7.54-5.71.27-8.34l4.6.19Z"/><path class="cls-2" d="M129.77,59.51c.61,0,.95-.06,1.55-.28l2.89,2.92c-.69.8-1.14,1.69-1.68,2.92-2.33,5.19-4.86,9.86-9.38,13.63-2.78,2.33-5.86,4.27-9.1,5.77-.91-1.72-2.15-3.26-3.5-4.64,3.36-1.08,7.8-3.59,10.44-6.08,2.3-2.18,4.96-6.02,5.85-8.97h-16.97l.74-5.28h19.15ZM138.7,58.25c-.24,1.69-1.79,3.04-3.42,3.04s-2.74-1.38-2.51-3.01c.23-1.66,1.73-3.04,3.36-3.04s2.81,1.32,2.57,3.01ZM134.33,58.28c-.1.74.41,1.38,1.17,1.38s1.5-.58,1.62-1.41c.11-.8-.47-1.41-1.22-1.41s-1.46.68-1.56,1.44Z"/><path class="cls-2" d="M148.37,58.01c.3,0,.7,0,.64.43-.04.28-.28.46-.8.71l-2.38,16.98c5.63-1.75,12.84-6.76,16.92-11.3.52,1.93,1.1,3.84,1.81,5.68-5.24,4.97-11.46,8.57-17.74,11.27-1.67.71-3.15,1.35-4.38,1.9l-3.15-3.69c.22-.52.34-1.1.41-1.66l2.88-20.57,5.77.25Z"/><path class="cls-2" d="M168.19,81.31c-.79-1.5-1.95-3.38-3.18-4.54,4.5-1.66,9.64-5.71,12.87-9.4h-10.68l.75-5.37h13.53l.76-5.4,5.63.4c.48.03.66.06.61.37-.05.34-.51.58-.77.71l-.55,3.93h6.42l-.75,5.37h-6.42l-1.78,12.71c-.16,1.11-.46,2.18-1.41,2.95-1.44,1.2-4.24,1.35-5.91,1.35-.36,0-.73,0-1.05-.03.03-1.93-.4-4.05-.97-5.83.64.15,1.82.37,2.52.37,1.03,0,1.35-.34,1.48-1.26l.79-5.65c-3.61,4.18-8.41,7.52-11.9,9.33Z"/><path class="cls-2" d="M222.32,67.86l-.77,5.53h-26.32l.77-5.53h26.32Z"/><path class="cls-2" d="M244.57,59.51c.61,0,.95-.06,1.55-.28l2.89,2.92c-.69.8-1.14,1.69-1.68,2.92-2.33,5.19-4.86,9.86-9.38,13.63-2.78,2.33-5.86,4.27-9.1,5.77-.91-1.72-2.15-3.26-3.5-4.64,3.36-1.08,7.8-3.59,10.44-6.08,2.3-2.18,4.96-6.02,5.85-8.97h-16.97l.74-5.28h19.15ZM253.49,58.25c-.24,1.69-1.79,3.04-3.42,3.04s-2.74-1.38-2.51-3.01c.23-1.66,1.73-3.04,3.36-3.04s2.81,1.32,2.57,3.01ZM249.13,58.28c-.1.74.41,1.38,1.17,1.38s1.5-.58,1.62-1.41c.11-.8-.47-1.41-1.22-1.41s-1.46.68-1.56,1.44Z"/><path class="cls-2" d="M277.86,61.63c.83,1.84,1.64,3.44,2.64,4.91-5.87,7.8-15.24,13.97-24.14,17.04-.1.52-.26.8-.66.8-.3,0-.39-.25-.47-.49l-2.16-5.56c9.12-1.84,19.2-8.75,24.79-16.7ZM265.66,62.49c-1.37,1.35-2.83,3.13-3.92,4.7-1.92-2.09-4.4-3.81-6.94-5.1l3.85-4.61c2.13.98,5.35,3.29,7.01,5Z"/><path class="cls-2" d="M292.28,76.65l-.79,5.62h-5.57l.79-5.62h5.57ZM294.01,64.67l-2.51,9.09h-3.21l.03-9.09.99-7.09h5.69l-.99,7.09Z"/><path class="cls-1" d="M11.42,122.8l-.11.76h-2.55l.87-6.21h6.07l-.85,6.05h-2.5l.08-.6h-1.02ZM15.52,114.95l-.27,1.92h-5.24l.27-1.92h5.24ZM16.82,110.1l-.29,2.06h-6.47l.29-2.06h6.47ZM15.85,112.6l-.27,1.92h-5.24l.27-1.92h5.24ZM16.52,107.8l-.26,1.88h-5.24l.26-1.88h5.24ZM12.91,119.47h-1.02l-.18,1.25h1.02l.18-1.25ZM21.86,109.91c.49-.76,1.05-1.9,1.35-2.73l2.73.72c.12.03.25.16.23.32-.03.21-.27.28-.61.3-.26.48-.53.93-.84,1.39h1.33l-.34,2.41h-2.91l-.17,1.21h2.55l-.34,2.41h-2.55l-.17,1.23h3.21l-.35,2.5h-3.21l-.54,3.89h-2.93l.54-3.89h-3.07l.35-2.5h3.07l.17-1.23h-2.5l.34-2.41h2.5l.17-1.21h-2.91l.34-2.41h1.35c-.31-.54-.63-1.11-.99-1.6l2.4-1.16c.46.67,1.02,1.5,1.35,2.23-.37.16-.72.33-1.08.53h1.53Z"/><path class="cls-1" d="M33.08,108.06c.32.04.46.07.43.28-.03.19-.23.28-.5.35-.61,2.02-1.29,5.63-1.65,8.2-.19,1.37-.36,3.18,1.34,3.18,1.37,0,2.93-1,3.97-1.99.91-.84,1.98-2.02,2.62-3.09.56.95,1.14,1.88,1.84,2.73-.94,1.27-2.07,2.43-3.32,3.4-1.79,1.41-3.73,2.27-5.88,2.27-1.3,0-2.44-.3-3.15-1.28-.91-1.27-.8-3.2-.53-5.12.17-1.2.32-2.29.49-3.25.2-1.14.4-2.39.56-3.54.12-.83.23-1.74.28-2.58l3.51.46Z"/><path class="cls-1" d="M55.1,109.13c.12.11.15.18.13.3-.02.14-.14.23-.28.23-.1,0-.25-.04-.35-.07-.6.44-1.53,1.16-2.35,1.79-.97.77-2.83,2.15-4.18,3.13-.27.19-.64.46-.66.65-.02.12.09.21.55.55,1.79,1.3,4.51,3.8,5.85,5.65-.99.77-1.94,1.62-2.8,2.55-1.37-2.23-4.48-5.24-6.55-6.83-.88-.67-1.33-1.02-1.23-1.78.11-.77.9-1.34,2.32-2.36.93-.69,3.67-2.81,4.52-3.57.83-.72,1.82-1.6,2.54-2.43l2.49,2.18Z"/><path class="cls-1" d="M62.48,108.73c.2.07.28.12.26.25-.03.23-.27.32-.59.39-.9,1.83-1.56,4.45-1.83,6.4-.09.63-.14,1.27-.14,1.88.28-.39.61-.86.9-1.32.32.58.69,1.13,1.09,1.64-1.04,1.36-1.86,3.03-2.05,4.64l-2.71.44c-.33-2.36-.18-5.01.16-7.47.37-2.62,1.01-5.21,2.02-7.76l2.91.92ZM67.67,107.72l3.28.48c.14.02.34.05.31.25-.03.19-.22.3-.49.42-.19.63-.3,1.16-.41,1.79.84-.16,1.63-.35,2.43-.65l-.34,2.96c-.83.26-1.65.42-2.49.56-.17,1.35-.29,2.71-.33,4.06.95.41,2.16,1.02,2.81,1.81-.82,1.16-1.33,1.93-1.76,2.67-.41-.44-1.04-.98-1.53-1.3-.24.74-.64,1.34-1.34,1.76-.74.46-1.78.56-2.59.56-.94,0-2.12-.25-2.73-.93-.51-.58-.75-1.34-.63-2.18.3-2.11,2.51-3.04,4.33-3.04.21,0,.38.02.55.05.07-1.11.13-1.94.24-3.11-.77.07-1.56.11-2.32.11-.38,0-.75,0-1.12-.05l.45-2.99c.64.11,1.4.16,2.11.16.38,0,.92-.02,1.17-.04.2-1.44.34-2.57.4-3.34ZM65.48,119.37c-.36,0-.97.11-1.04.6-.06.46.49.58.85.58.61,0,1.2-.26,1.23-.95-.33-.14-.65-.23-1.04-.23Z"/><path class="cls-1" d="M75.68,108.02h3.47l-1.59,11.33h6.73l-.39,2.81h-10.19l1.98-14.14Z"/><path class="cls-1" d="M85.6,122.17l1.98-14.14h3.59l-1.98,14.14h-3.59Z"/><path class="cls-1" d="M96.37,113.25l-1.13,8.92h-3.47l1.98-14.14h3.34l4.85,8.92,1.13-8.92h3.47l-1.98,14.14h-3.47l-4.73-8.92Z"/><path class="cls-1" d="M118.38,122.17h-11.27l1.98-14.14h11.04l-.39,2.81h-7.58l-.39,2.76h6.59l-.38,2.71h-6.59l-.43,3.04h7.8l-.39,2.81Z"/><path class="cls-1" d="M128.14,109.8c.1.05.12.12.1.25-.03.19-.16.26-.64.33-1.31,2.18-3.41,4.8-5.49,6.28-.59-.84-1.37-1.51-2.18-2.13,2.15-1.46,4.37-3.85,5.53-6.17l2.67,1.44ZM128.77,117.01l2.72-1.6c.55.76,1.37,2.34,1.8,3.22.58,1.16,1.07,2.38,1.47,3.62-.89.26-2.23.97-3.02,1.51-.15-.54-.33-1.09-.52-1.6-3.35.39-6.46.7-9.73,1.02-.2.3-.28.39-.42.39-.17,0-.19-.16-.2-.33l-.14-2.95c.5,0,1.18-.04,1.9-.09,1.39-2.15,3.3-5.59,4.28-7.92l3.1,1.11c.15.05.21.12.19.26-.04.26-.27.3-.71.35-.56,1.12-2.81,4.92-3.53,6,1.4-.11,2.89-.23,4.23-.35-.48-1.04-.82-1.69-1.43-2.64ZM133.48,107.76c-.03,1.43.47,2.75,1.17,3.87.65,1.04,1.5,1.81,2.43,2.6-.94.76-1.62,1.43-2.38,2.36-.88-.67-1.95-1.94-2.55-2.87-.55-.88-1.14-2.23-1.41-3.29h-2.34l.37-2.67h4.7Z"/><path class="cls-1" d="M143,119.9c1.04-.14,2.12-.32,3.12-.49-.33.74-.51,1.44-.62,2.21-.03.23-.04.32-.05.48-2.58.49-5.17.86-7.76,1.16-.15.3-.27.46-.44.46-.16,0-.2-.19-.2-.32l-.09-2.83c1-.07,2.1-.18,3.02-.28l.45-3.24h-2.43l.36-2.55h7.54l-.36,2.55h-2.15l-.4,2.85ZM149.83,108.78l1.83-1.71c.79.58,1.57,1.2,2.21,1.92-.45.39-.82.76-1.23,1.21h1.92l-.38,2.71h-5.17c.04,2.32.36,4.38,1.4,6.35.19.35.32.55.46.55.29,0,.68-1.18.9-1.88.44.72,1.2,1.42,1.95,1.83-.41,1.43-1.35,3.85-3.12,3.85-1.51,0-2.61-2-3.09-3.2-.94-2.32-1.36-4.89-1.34-7.49h-7.9l.38-2.71h7.45c.03-.62.13-1.78.22-2.46.03-.23.04-.32.08-.47l3.1.14c.16,0,.3.05.28.25-.02.18-.16.3-.35.37-.05.02-.11.05-.13.09-.04.18-.05.26-.09.53-.07.47-.12,1.13-.15,1.57h2.25c-.45-.51-.95-1.02-1.5-1.42Z"/><path class="cls-1" d="M157.91,123.27c-.74-.81-1.47-1.48-2.39-2.11,1.22-.67,2.45-1.5,3.39-2.55,1.4-1.57,2.08-3.57,2.34-5.44.05-.35.08-.7.1-1.06l3.23.18c.17.02.36.03.33.23-.02.16-.27.32-.42.41-.11.7-.27,1.41-.45,2.11,1.25-1.04,2.33-2.16,3.28-3.48h-11.2l.43-3.04h12.53c.36,0,.82-.03,1.17-.19l1.78,1.65c-.08.11-.36.46-.49.65-.41.56-1.07,1.44-1.68,2.23-1.2,1.55-2.58,3.17-3.84,4.31-.51-.72-1.31-1.41-2.04-1.9-.91,3.29-3.1,6.16-6.06,8Z"/><path class="cls-1" d="M178.84,109.99c.11-.81.18-1.55.21-2.34l3.37.19c.29.02.44.07.41.26-.02.18-.23.28-.51.39-.09.62-.22,1.44-.32,2.01h5.76c-.31,1.97-.62,3.96-1.04,5.96-.37,1.79-.76,3.36-1.33,4.29-1.2,2.04-3.05,2.37-5.08,2.37h-.52c.05-1.12-.09-2.3-.27-3.38.52.14.86.18,1.4.18.88,0,1.49-.14,1.9-1.07.46-1.05.99-3.69,1.15-4.84l.06-.42h-2.63c-1.18,4.19-3.86,7.76-7.92,9.67-.47-.76-1.42-1.88-2.1-2.45,1.68-.74,3.38-1.76,4.61-3.22,1.08-1.25,1.66-2.43,2.07-4.01h-4.89l.43-3.1h5.18l.07-.51Z"/><path class="cls-1" d="M201.82,110.24c.55,0,.8-.04,1.34-.28l1.72,1.35c-.2.42-.38.84-.65,1.53-.27.69-.63,1.57-1.12,2.51-1.27,2.5-2.73,4.56-4.92,6.33-1.09.88-2.15,1.48-3.4,2-.59-.84-1.33-1.67-2.08-2.34,1.8-.56,3.84-1.9,5.16-3.32,1.14-1.23,2.39-3.34,2.91-4.92h-7.87l-.5,3.55h-3.17l.9-6.42h5.41l.38-2.73,3.32.16c.24.02.41.05.38.23-.03.19-.32.3-.47.35l-.28,1.99h2.93Z"/><path class="cls-1" d="M220.03,110.35c.48,1.06.94,1.97,1.51,2.81-3.37,4.47-8.73,8-13.83,9.76-.06.3-.15.46-.38.46-.17,0-.22-.14-.27-.28l-1.24-3.18c5.23-1.06,11-5.01,14.2-9.57ZM213.04,110.84c-.78.77-1.62,1.79-2.25,2.69-1.1-1.2-2.52-2.18-3.98-2.92l2.21-2.64c1.22.56,3.06,1.88,4.02,2.87Z"/><path class="cls-1" d="M229.47,111.93c1.43.7,4.33,2.5,5.72,3.98-.77.93-1.49,1.85-2.23,2.83-1.21-1.39-3.16-2.81-4.8-3.69l-1.16,8.27h-3.35l2.2-15.71,3.28.1c.26,0,.39.04.37.23-.02.18-.25.28-.4.35l-.71,5.07,1.08-1.42Z"/><path class="cls-1" d="M244.19,107.25l2.9.55c.19.03.35.09.32.28-.03.25-.32.3-.51.32-.17.25-.37.54-.55.83,1.14-.12,2.56-.32,3.67-.7l-.45,2.83c-1.43.32-2.54.42-5.17.67-.28.39-.58.79-.86,1.16.64-.33,1.46-.53,2.14-.53.94,0,1.76.56,2.15,1.35,1.87-.83,3.02-1.37,3.72-1.79l.68,3.04c-1.7.47-2.97.9-4.13,1.37-.04.63-.11,1.27-.19,1.88-.05.39-.14.86-.19,1.12-1.06.02-1.72.04-3.03.09.17-.58.27-1.05.35-1.64-.54.3-1.86,1.06-1.96,1.72-.04.3.25.46.5.54.46.18,1.27.23,1.89.23,1.7,0,3.68-.19,5.37-.72-.24.72-.48,1.97-.59,2.73l-.04.32c-1.53.3-3.11.4-4.63.4-2.11,0-5.98-.25-5.57-3.18.18-1.3,1.16-2.21,2.19-3.01.91-.69,1.89-1.27,2.9-1.76-.19-.37-.57-.51-.99-.51-1.8,0-3.48,2.09-4.53,3.48l-2.46-1.62c1.42-1.34,2.84-2.97,4.01-4.52-1.28,0-2.03-.02-2.25-.04l.45-2.87c.91.16,1.86.19,2.82.19.28,0,.54,0,.82-.02.47-.74.9-1.44,1.21-2.22Z"/><path class="cls-1" d="M264.42,113.25h5.23l-.42,3.01h-5.5c-.97,3.69-3.63,6-7.04,7.3-.45-.84-1.32-1.97-2.01-2.6,2.49-.69,4.88-2.04,5.72-4.7h-6.38l.42-3.01h6.6l.22-1.55c-1.4.21-2.79.39-4.18.42-.16-.93-.53-2.04-.92-2.87.22.02.6.04.91.04,2.62,0,6.93-.7,9.37-2.04l2,2.18c.09.11.11.18.1.25-.02.16-.19.25-.35.25-.05,0-.09,0-.35-.07-1.05.47-2.03.77-3.12,1.09l-.32,2.3Z"/><path class="cls-1" d="M278.24,119.76h4.56l-.37,2.67h-11.98l.37-2.67h4.58l.75-5.35h-3.47l.38-2.71h9.76l-.38,2.71h-3.45l-.75,5.35Z"/><path class="cls-1" d="M290.04,115.29c-.82.28-1.68.62-2.45,1.02-.23-1.11-.73-2.57-1.16-3.57l2.48-.97c.42.93.88,2.37,1.14,3.52ZM299.09,112.05c.17.05.26.11.25.23-.02.16-.25.26-.37.32-1.96,5.05-4.82,8.46-9.9,10.57-.35-.69-1.07-1.64-1.6-2.18,2.15-.77,4.09-1.88,5.72-3.61,1.79-1.88,2.61-3.82,3.24-6.19l2.67.86ZM293.68,114.43c-.83.26-1.67.56-2.5.91-.18-1.07-.61-2.55-1.03-3.53l2.51-.93c.43.77.93,2.66,1.03,3.55Z"/><path class="cls-1" d="M313.46,110.13c.4,0,.74-.07,1.13-.25l1.53,1.32c-.52.74-1.35,2.18-1.91,3.27-1.44,2.76-3.72,5.44-5.9,7.14-1.15.9-2.32,1.6-3.6,2.22-.57-.92-1.36-1.71-2.18-2.38,2.04-.79,4.17-2.14,5.76-3.75,1.31-1.32,2.49-3.04,3.34-4.66h-4.33c-1.2,1.48-3.03,3.29-4.23,4.19-.65-.81-1.33-1.5-2.18-2.13,2.48-1.88,5.52-4.98,6.76-7.81l2.82,1.27c.11.05.24.12.22.28-.03.21-.32.28-.53.32-.23.37-.43.69-.62.97h3.93Z"/><path class="cls-1" d="M320.3,118.95l-.45,3.22h-3.17l.45-3.22h3.17ZM321.3,112.09l-1.44,5.21h-1.84l.04-5.21.57-4.06h3.24l-.57,4.06Z"/><path class="cls-1" d="M325.83,118.95l-.45,3.22h-3.17l.45-3.22h3.17ZM326.83,112.09l-1.44,5.21h-1.84l.04-5.21.57-4.06h3.24l-.57,4.06Z"/></g></svg>