<?xml version="1.0" encoding="UTF-8"?><svg id="_レイヤー_2" xmlns="http://www.w3.org/2000/svg" viewBox="0 0 321.57 97.61"><defs><style>.cls-1{fill:#000;}.cls-1,.cls-2{stroke-width:0px;}.cls-2{fill:#d91a17;}</style></defs><g id="_レイヤー_1-2"><path class="cls-2" d="M.82,41.66c-.56-1.7-.82-3.33-.82-11.56s.25-9.91.82-11.73c1.38-4.44,4.76-6.97,9.68-7.49,4.92-.52,8.35,1.3,9.73,5.45.56,1.7.82,3.33.82,11.56s-.26,9.91-.82,11.73c-1.38,4.44-4.81,6.98-9.73,7.49-4.92.52-8.29-1.3-9.68-5.45ZM12.44,38.26c.2-.7.26-1.32.26-9.5s-.05-8.79-.26-9.44c-.26-.75-.92-1.2-1.95-1.09-.97.1-1.64.69-1.89,1.49-.21.69-.25,1.32-.25,9.5s.05,8.79.25,9.45c.26.75.92,1.2,1.89,1.09,1.02-.11,1.69-.7,1.95-1.5Z"/><path class="cls-2" d="M33.74,44.15c-.31.03-.51-.15-.51-.46v-27.02c0-.21-.1-.3-.31-.28l-5.73.6c-.31.03-.51-.15-.51-.46v-6.31c0-.31.21-.54.51-.57l20.22-2.13c.31-.03.51.15.51.46v6.31c0,.31-.21.54-.51.57l-5.73.6c-.21.02-.31.14-.31.34v27.02c0,.31-.21.54-.51.57l-7.12.75Z"/><path class="cls-2" d="M54.58,7.28c0-.31.2-.54.51-.57l7.12-.75c.31-.03.51.15.51.46v12.73c0,.21.1.3.31.28l3.79-.4c.21-.02.31-.14.31-.34V5.96c0-.31.21-.54.51-.57l7.12-.75c.31-.03.51.15.51.46v34.16c0,.31-.21.54-.51.57l-7.12.75c-.31.03-.51-.15-.51-.46v-13.51c0-.21-.1-.3-.31-.28l-3.79.4c-.21.02-.31.14-.31.34v13.51c0,.31-.21.54-.51.57l-7.12.75c-.31.03-.51-.15-.51-.46V7.28Z"/><path class="cls-2" d="M83.15,4.28c0-.31.2-.54.51-.57l16.28-1.71c.31-.03.51.15.51.46v6.31c0,.31-.21.54-.51.57l-8.35.88c-.21.02-.31.14-.31.34v5.8c0,.21.1.3.31.28l7.17-.75c.31-.03.51.15.51.46v6.31c0,.31-.21.54-.51.57l-7.17.75c-.21.02-.31.14-.31.34v6.11c0,.21.1.3.31.28l8.35-.88c.31-.03.51.15.51.46v6.31c0,.31-.21.54-.51.57l-16.28,1.71c-.31.03-.51-.15-.51-.46V4.28Z"/><path class="cls-2" d="M121.6,34.92c-.36.04-.56-.1-.67-.4l-3.53-12.31-1.18.12c-.21.02-.31.14-.31.34v12.32c0,.31-.21.54-.51.57l-7.12.75c-.31.03-.51-.15-.51-.46V1.69c0-.31.2-.54.51-.57L118.06.09c6.25-.66,10.45,2.11,10.45,10.03,0,4.3-1.38,7.29-3.64,9.28l4.56,14.17c.1.25,0,.52-.26.54l-7.58.8ZM120.37,10.98c0-3.21-.92-4.1-2.97-3.88l-1.18.12c-.21.02-.31.14-.31.34v7.71c0,.21.1.3.31.28l1.18-.12c2.05-.21,2.97-1.3,2.97-4.45Z"/><path class="cls-2" d="M.36,62.98c0-.31.2-.54.51-.57l16.28-1.71c.31-.03.51.15.51.46v6.31c0,.31-.21.54-.51.57l-8.35.88c-.21.02-.31.14-.31.34v6.21c0,.21.1.3.31.28l7.17-.75c.31-.03.51.15.51.46v6.31c0,.31-.21.54-.51.57l-7.17.75c-.21.02-.31.14-.31.34v12.84c0,.31-.21.54-.51.57l-7.12.75c-.31.03-.51-.15-.51-.46v-34.16Z"/><path class="cls-2" d="M28.88,59.99c.1-.32.26-.54.61-.58l7.94-.83c.36-.04.56.15.61.45l7.48,33.38c.1.35-.1.53-.41.56l-7.07.74c-.36.04-.56-.15-.61-.45l-.92-5.44-6.2.65-.97,5.64c-.05.32-.21.54-.56.58l-7.12.75c-.31.03-.46-.16-.41-.47l7.63-34.96ZM35.43,81.76l-1.89-11.24h-.1s-2.05,11.67-2.05,11.67l4.04-.43Z"/><path class="cls-2" d="M50.64,74.78c0-8.38.26-10.17.77-11.83,1.38-4.39,4.46-6.83,9.47-7.36,6.35-.67,9.73,2.55,10.04,8.36,0,.36-.1.58-.41.67l-6.86,1.86c-.31.08-.56-.04-.56-.41-.05-2.43-.72-3.29-2.1-3.14-.87.09-1.43.51-1.74,1.43-.2.75-.25,1.27-.25,9.55s.05,8.79.25,9.5c.31.85.87,1.15,1.74,1.06,1.38-.14,2.05-1.15,2.1-3.58,0-.36.26-.54.56-.53l6.86.42c.31.02.41.21.41.58-.31,5.88-3.69,9.81-10.04,10.48-5.02.53-8.09-1.27-9.47-5.37-.51-1.55-.77-3.28-.77-11.67Z"/><path class="cls-2" d="M77.82,54.84c0-.31.2-.54.51-.57l7.12-.75c.31-.03.51.15.51.46v34.16c0,.31-.21.54-.51.57l-7.12.75c-.31.03-.51-.15-.51-.46v-34.16Z"/><path class="cls-2" d="M93.85,53.16c0-.31.2-.54.51-.57l7.12-.75c.31-.03.51.15.51.46v27.02c0,.21.1.3.31.28l8.5-.89c.31-.03.51.15.51.46v6.31c0,.31-.21.54-.51.57l-16.44,1.73c-.31.03-.51-.15-.51-.46v-34.16Z"/><path class="cls-2" d="M118.32,50.58c0-.31.2-.54.51-.57l7.12-.75c.31-.03.51.15.51.46v34.16c0,.31-.21.54-.51.57l-7.12.75c-.31.03-.51-.15-.51-.46v-34.16Z"/><path class="cls-2" d="M140.13,82.97c-.31.03-.51-.15-.51-.46v-27.02c0-.21-.1-.3-.31-.28l-5.73.6c-.31.03-.51-.15-.51-.46v-6.31c0-.31.21-.54.51-.57l20.22-2.13c.31-.03.51.15.51.46v6.31c0,.31-.21.54-.51.57l-5.74.6c-.21.02-.31.14-.31.34v27.02c0,.31-.21.54-.51.57l-7.12.75Z"/><path class="cls-2" d="M160.97,46.1c0-.31.2-.54.51-.57l7.12-.75c.31-.03.51.15.51.46v34.16c0,.31-.21.54-.51.57l-7.12.75c-.31.03-.51-.15-.51-.46v-34.16Z"/><path class="cls-2" d="M176.99,44.42c0-.31.2-.54.51-.57l16.28-1.71c.31-.03.51.15.51.46v6.31c0,.31-.2.54-.51.57l-8.35.88c-.2.02-.31.14-.31.34v5.8c0,.21.1.3.31.28l7.17-.75c.31-.03.51.15.51.46v6.31c0,.31-.21.54-.51.57l-7.17.75c-.2.02-.31.14-.31.34v6.11c0,.21.1.3.31.28l8.35-.88c.31-.03.51.15.51.46v6.31c0,.31-.2.54-.51.57l-16.28,1.71c-.31.03-.51-.15-.51-.46v-34.16Z"/><path class="cls-2" d="M210.99,76.04c-7.07.74-10.14-2.76-10.19-8.61,0-.31.1-.58.41-.66l6.76-1.8c.36-.09.56.1.56.41.05,2.63.82,3.74,2.46,3.57,1.49-.16,2.25-1.06,2.25-3.5s-.56-3.15-3.12-3.86l-2.1-.61c-4.92-1.45-6.91-4.04-6.91-9.83,0-6.68,3.23-10.64,9.93-11.34,6.5-.68,9.83,2.43,10.04,7.95,0,.31-.15.53-.46.62l-6.45,1.66c-.31.08-.56-.04-.56-.36-.05-2.06-.82-2.97-2.25-2.82-1.38.14-2.1,1.1-2.1,2.86,0,2.02.56,2.63,3.23,3.44l2.1.61c4.97,1.39,6.91,3.93,6.91,9.78,0,7.56-3.28,11.73-10.5,12.49Z"/><path class="cls-1" d="M246.03,52.44c-4.3.45-6.44,3.37-6.5,4.92-.05,1.6,1.55,1.58,3.88,1.36-.33.7-.67,1.59-.91,2.43-2.38.03-5.7.03-5.59-3.2.04-1.21.72-2.57,1.78-3.67-2.14.52-4.51,1.48-5.66,1.97l-.49-2.75c1.18-.17,2.52-.42,3.69-.68,1.32-1.16,2.11-1.97,2.9-3.13-.38.07-2.07.43-2.42.5-.47.08-.79.13-1.09.16l-.07-2.39c.36-.02.95-.05,1.75-.14.44-.05,3.86-.41,5.96-1.23l.89,1.33c-1.66,1.4-3.32,3.03-4.23,3.99,2.55-.73,3.8-1.11,5.93-1.83l.17,2.36Z"/><path class="cls-1" d="M254.18,56.94c3.29-.96,4.35-3.67,4.41-5.29.04-1.26-.53-3.5-3.35-3.44-.66,5.73-3.09,10.21-4.69,10.38-1.18.12-3.29-1.69-3.19-4.57.11-3.34,3.21-7.54,7.64-8.01,3.3-.35,6.11,1.66,5.98,5.37-.02.71-.15,2.71-1.95,4.98-.96,1.2-2.05,1.89-3.35,2.6-.47-.85-.78-1.28-1.49-2.02ZM249.59,53.61c-.04,1.2.58,2.03.89,1.99.36-.04.67-.77.85-1.19.7-1.61,1.26-3.44,1.34-5.46-1.77.85-3.04,3.26-3.09,4.66Z"/><path class="cls-1" d="M265.36,58.49l-2.07.22.25-7.27c-.13.17-.25.32-.38.47-.71-1.25-1.03-1.52-1.23-1.7,1.84-1.96,3.33-5.05,3.54-6.05l2.01.61c.09.02.16.08.16.18,0,.12-.18.25-.39.3-.59,1.44-1.21,2.54-1.47,2.95.13.05.24.1.23.27,0,.14-.21.27-.33.33l-.33,9.67ZM270.58,47.73l.14-4.02,2.02-.06c.17,0,.33,0,.32.2,0,.12-.19.25-.34.32l-.1,2.9,2.2-.73.96.47-.13,3.91c-.06,1.75-.42,2.27-.6,2.51-.4.54-1.4.89-2.11.96-.03-.43-.08-1.03-.51-1.8l-.06,1.65-2.02.21.15-4.35-.87.28-.16,4.77c-.02.64.51.77,1.24.69l2.79-.29c.79-.08.94-.7,1.2-1.67.66.49,1.06.63,1.81.71-.55,2.49-1.72,2.86-3.11,3l-3.45.36c-2.49.26-2.61-1.02-2.57-2.16l.16-4.72-1.38.44-.34-2.04,1.79-.58.12-3.65,2.05-.09c.08,0,.3-.02.29.2,0,.14-.1.23-.28.34l-.09,2.52.87-.28ZM272.54,49.26l-.1,2.87c.15,0,.44-.02.6-.03.18-.02.42-.06.44-.48l.09-2.7-1.03.34Z"/><path class="cls-1" d="M284.11,53.8c3.29-.96,4.35-3.67,4.41-5.29.04-1.26-.53-3.5-3.35-3.44-.66,5.73-3.09,10.21-4.69,10.38-1.18.12-3.29-1.69-3.19-4.57.11-3.34,3.21-7.54,7.64-8.01,3.3-.35,6.11,1.66,5.98,5.37-.02.71-.15,2.71-1.95,4.98-.96,1.2-2.05,1.89-3.35,2.6-.47-.85-.78-1.28-1.49-2.02ZM279.51,50.46c-.04,1.2.58,2.03.89,2,.36-.04.67-.77.85-1.19.7-1.61,1.26-3.44,1.35-5.46-1.77.85-3.04,3.26-3.09,4.66Z"/><path class="cls-1" d="M301.02,46.22l.08-2.19,1.9-.06c.23,0,.31.09.31.17,0,.12-.22.24-.33.28l-.04.99,1.69-.72.98.32-.13,3.85c-.04,1.2-.67,1.65-1.12,1.9.19.18.85.71,1.71.65-.03.33-.11,1.02-.38,1.56-.58,1.11-1.76,1.25-1.91,1.27l-3.24.34c-2.23.23-2.28-1.29-2.27-1.74l.12-3.34-.69.29c-.29,4.13-.58,5.1-3.17,5.65-.01-.45-.06-1.29-.4-1.89-.46,1.13-.82,1.6-.96,1.8-.5-.46-1.34-.87-1.83-.94,1.38-2.16,1.71-4.37,1.78-5,.09-.88.11-1.54.19-4.1l-1.36.14.07-1.96,2.17-.23.07-2.16,2.21-.14c.14-.01.38,0,.37.21,0,.12-.13.21-.39.33l-.05,1.52,1.7-.18-.04,1.01c1.19-1.8,1.44-2.98,1.53-3.39l2.02.38c.07,0,.21.04.2.2,0,.14-.11.21-.34.33-.12.31-.15.4-.21.55l4.8-.5-.06,1.83-5.63.59c-.1.18-.39.74-.81,1.38l.95-.05c.18,0,.25.1.25.21,0,.09-.1.18-.27.29l-.03.78.56-.23ZM295.35,48.29c-.09,1.36-.33,2.9-1.07,4.91.36.02.45.03.63.01.45-.05.68-.46.84-1.67.13-1,.26-2.33.26-3.32l-.66.07ZM295.49,45.09l-.04,1.19,2.16-.23c-.53-.29-.64-.32-.9-.42.22-.22.31-.33.66-.75l-1.87.2ZM298.46,47.31l.02-.68c-.13-.11-.26-.22-.68-.46,0,.48-.02.95-.02,1.41l.67-.27ZM300.38,48.64l-.11,3.14c-.02.5.32.82.84.76l1.99-.21c.89-.09.98-.57,1.06-1.47-.32.13-.58.17-.88.22-.02-.25-.09-.83-.49-1.54l-.07,1.89-1.9.2.11-3.23-.56.25ZM302.87,47.57l-.05,1.57c.7-.09.71-.59.72-.79l.04-1.09-.7.31Z"/><path class="cls-1" d="M313.16,41.68l-.06,1.68-5.99.63.06-1.68,5.99-.63ZM314.58,47.64l-1.46.15.07-1.92,1.33-.14c-.39-.35-1.12-.76-1.86-.87,1.23-1.13,1.28-2.64,1.31-3.67l.06-1.8,5.26-.55-.12,3.59c0,.23.17.21.32.2.38-.04.48-.95.53-1.32.76.55,1.27.62,1.55.67-.36,1.68-.7,2.43-1.59,2.52l-1.69.18c-.75.08-1.25-.38-1.22-1.39l.08-2.36-1.04.11c-.15,1.75-.18,2.23-.64,3.19-.44.93-.78,1.3-.95,1.51l5.28-.55.71.81c-.76,1.97-1.85,3.43-2.11,3.8,1.58.78,2.42.84,2.92.88-.51.55-.89,1.02-1.33,1.95-.66-.16-1.76-.43-3.15-1.14-1.5,1.29-2.68,1.8-3.18,2.02-.32-.72-1.18-1.61-1.25-1.65l-.05,1.44-2.04.21.02-.47-.96.1-.02.71-2.05.22.19-5.43,5.05-.53-.13,3.65c1.23-.41,2.14-.98,2.82-1.5-.39-.39-1.06-1.13-1.47-1.98l.82-.63ZM312.22,46.05l-.05,1.58-4.55.48.05-1.58,4.55-.48ZM312.29,43.92l-.05,1.58-4.55.48.05-1.58,4.55-.48ZM312.44,39.56l-.06,1.74-4.55.48.06-1.74,4.55-.48ZM309.48,50.05l-.04,1.26.96-.1.04-1.26-.96.1ZM315.77,47.52c.36.53.74.91,1.04,1.19.57-.72.7-1,.89-1.39l-1.93.2Z"/></g></svg>