<?xml version="1.0" encoding="UTF-8"?><svg id="_レイヤー_2" xmlns="http://www.w3.org/2000/svg" viewBox="0 0 128.86 53.66"><defs><style>.cls-1{fill:#fff;stroke-width:0px;}</style></defs><g id="_レイヤー_1-2"><path class="cls-1" d="M52.66,2.47l.04.04c-.17.08-.38.17-.56.21-.19.21-.49.32-.69.51-.32.26-.77.69-.99,1.03l-.02-.09.04.04.04-.04s.02-.04-.04-.08c-.02-.02,0-.04.02-.02l.06.04s-.06-.08-.09-.09l.08-.02-.02-.06h.06l.02-.04v-.04l.04-.04v-.04l-.26.24c-.02.09-.08.19-.11.28l.04.04.04-.02.02.04-.04.06s-.04-.04-.06-.04v.02l.04.02c-.11.15-.26.32-.36.49v.02c-.06.13-.13.22-.13.38-.21.36,0,.66-.08,1.01.13.75.51,1.24,1.18,1.59.09.06.22.13.04.17-.19.06-.32-.11-.47-.15v.02c-.08.08-.26-.06-.34-.09-.68-.41-1.11-1.37-1.11-2.14-.02-1.14.67-2.18,1.42-3,.21-.22.66-.6.79-.84l.86-.6.02-.04.24-.15c.07,0,.24-.15.32-.19l.08.02s.06-.04.06-.08l.07-.04s.28-.11.32-.15h.06l.06-.06s.17-.08.22-.06v-.02c.06-.04.43-.15.53-.17l.04.02s.06-.02.07-.06c.26-.09.56-.06.81-.15l.02-.02h.11l.02-.02.88-.13.08.02.04-.02c.84.02,1.72-.06,2.51.26h.09c.06.11.17.13.3.11.04.04.09.07.11.13.3,0,.39.15.45.15.08.04.17.04.21.11.43.38.88.66,1.22,1.12v.02c-.04-.06-.09-.08-.15-.09.17.21.34.47.43.71h.02c.09.3.3.56.36.86-.02.02-.09.08-.08.09.13.28.13.62.13.94l-.06.11c.06.36-.11,1.09-.23,1.42-.06.17-.15.3-.21.47-.06.21-.28.41-.39.6-.09.15-.47.56-.49.67-.19.19-.49.51-.69.62h-.04s-.04.06-.06.08h-.04s-.06.07-.09.09h-.04l-.02.04-.09.06s-.02.02-.04.04c-.06.06-.13.09-.21.13l-.06-.02v.06c-.06.02-.11.04-.15.08l-.02-.02c-.09.04-.21.02-.24.13-.08.02-.19.11-.26.09l-.04.02-.02.04-.13.09h-.06l-.02.02c-.22.11-1.2.39-1.27.43-.02-.02-.08-.07-.09-.02-.04,0-.08.02-.09.06-.04,0-.08-.04-.08-.08l-.13.11s-.07-.04-.11-.04c-.06.02-.08.06-.13.02-.28-.06-.58-.04-.86-.13h.02s.04-.02.06-.04h.04c-.34-.13-.88-.19-.98-.62-.04.11-.26.54-.36.62,0,.04-.19.49-.21.53-.15.43-.39.86-.58,1.28-.28.62-.79,2.36-.96,3.04-.17.09-.15.38-.34.45-.11.04-.24,0-.36.04-.09.04-.15.13-.24.17l-.06-.04.07-.28.04.04c.04-.11.11-.43.19-.51,0-.19.11-.36.11-.54l.02-.04c-.11.19-.26.43-.24.66,0,.09-.04.13-.13.17-.04.13-.09.28-.15.41-.02-.06-.06-.11-.11-.15l-.08.04c-.19-.09-.38-.11-.41-.34-.04-.22.45-1.8.56-2.1l.04-.02c.19-.32.49-1.39.56-1.76.04-.06.06-.13.09-.21l-.06.04c.08-.3.41-1.33.58-1.5.02-.09.11-.3.19-.36.49-1.18,1.01-2.27,1.61-3.41.49-.94.94-2.36,1.5-3.21,0-.09.09-.43.13-.53-.19.02-.99.09-1.11.13-.6.23-1.18.54-1.74.83l.04-.09.04.04c.06-.02.09-.06.06-.11v-.02h.04l.04.06.02-.02s-.02-.08-.06-.09h.08l.02-.06c-.21.08-.36.17-.52.28l.02.08.06-.02-.02.06s-.06.02-.09.02l-.02-.04-.02.02v-.02l-.04-.04c-.09.06-.17.08-.24.15h-.02v.04s.04.02.04,0v-.04l.08.02s.09-.04.13-.08l-.04-.06h.04l.06.04v-.02ZM51.08,2.4c-.81.47-2.36,2.79-1.89,3.71-.04.11-.06.17.06.22.04-.19-.04-.43-.04-.62,0-.73.66-2.01,1.16-2.48l.04.06s-.08.08-.09.13c-.11.02-.19.08-.19.21h-.02c-.08.08-.09.15-.11.24-.09,0-.41.64-.45.75-.06.08-.04.17-.04.26-.04.06-.08.19-.13.21-.02.08-.06.09.04.21l-.04.09-.02.02c0,.06.02.09.02.15.13-.09.09-.39.19-.51l.04.06.02-.11-.02-.02v-.08h.02c.09-.39.26-.66.43-.99l.04-.02c.17-.32.43-.56.67-.81l-.06-.04s-.09.06-.13.08l-.02-.02.02-.09.06-.04v-.11c.08-.06.45-.41.45-.47ZM49.37,5.1l.02-.04v-.02l-.02.02v.04ZM49.5,5.59s0-.04-.02-.06l-.04.06h.06ZM49.54,5.31s-.02.02-.04.02l.02.02s.02-.02.02-.04ZM50.22,4.46l-.06-.04c-.06.04-.09.09-.11.15l.08.04-.04-.04.08-.02.06-.09ZM50.22,4.39h-.04l-.02.02s.06.02.08.02l-.02-.04ZM50.59,4.01h-.06s0,.02.02.04l.04-.04ZM50.59,3.98h-.04l.04.02v-.02ZM50.69,3.88s-.06-.04-.08-.02c.02.02.06.02.08.02ZM50.72,3.75h-.02l-.02-.02-.04.04h.06l.02-.02ZM50.71,2.96s.02-.02.04-.02v-.02s-.02.02-.04.04ZM50.74,3.81h-.02l.02.02v-.02ZM50.85,2.92l-.06.04s.02.04.04.06l.08-.09h-.02s.02-.02.02-.04h-.02s-.02.02-.02.04h-.02ZM50.89,13.45c.15-.26.22-.56.36-.84l-.08-.04c-.11.28-.19.6-.28.88ZM50.95,3.54h-.02v.02h.02v-.02ZM51.02,3.47l-.04.02.02.02s.04-.02.02-.04ZM51.08,3.43s-.02,0-.04.02c.02,0,.04,0,.04-.02ZM51.12,3.38l-.02-.02v-.02s.02-.02,0-.04l-.02.02s.02.04.04.06ZM51.44,3l-.08.09c-.06.02-.11.08-.11.13-.06-.02-.06.02-.04.06.08-.02.13-.11.21-.15l-.04-.06.06-.02.04.02c.06-.02-.02-.06-.04-.08ZM51.21,2.33s.04,0,.02-.02l-.02.02ZM51.66,1.99c.04-.06.09-.09.15-.13-.09-.02-.47.34-.58.45.15-.09.26-.26.43-.32ZM51.55,3s-.02.04-.04.04t.04-.04ZM51.79,2.83c-.06.04-.15.04-.19.04l.04.07.15-.11ZM55.86.32l.07-.04c-1.03,0-2.64.54-3.51,1.12-.15.09-.36.21-.45.36.92-.69,2.74-1.41,3.88-1.44ZM52.11,11.61c.06-.08.02-.15.06-.26.26-.64.56-1.26.83-1.89.07-.19.22-.39.32-.58.22-.43.39-.9.62-1.33.26-.52,1.39-2.46,1.44-2.76-.28.28-1.52,2.79-1.76,3.32v.02c-.36.54-1.31,2.68-1.54,3.36.02.04.04.09.04.13ZM52.3,10.22l.08.06c.22-.6.51-1.22.86-1.76.19-.28.3-.71.45-1.03.24-.49.51-.99.79-1.46.06-.11.24-.41.24-.53.15-.28.43-.69.51-.99l-.02-.06-.04.02h-.02c-.34.51-.92,1.61-1.18,2.16-.04.08-.13.28-.19.3l-.04.06v.11c-.24.11-.21.64-.39.83-.09.26-.28.53-.32.79l-.09.08c-.17.49-.38.99-.64,1.44ZM52.79,2.25h-.02l-.02.02s.02,0,.04-.02ZM52.94,2.16l-.02.02h.02v-.02ZM53.31,2.17l-.04-.02s-.02.04-.02.06l.06-.04ZM53.35,2.04s-.06,0-.07.02l.04.02h.02l.02-.04ZM53.33,2.14l-.02-.02s0,.02.02.04v-.02ZM53.5,2.06s-.04-.06-.08-.04c.02.02.06.04.08.04ZM53.57,1.95h.02-.02ZM53.61,2.01l-.02-.02v.02h.02ZM53.91,1.65h-.02q0,.06-.06.08s.06,0,.08-.04v-.04ZM53.97,6.34c.13-.21.3-.41.39-.62.09-.21.51-1.05.64-1.22v-.06h-.02c-.13.11-.81,1.48-1.01,1.89ZM54.06,1.67l-.02-.02h-.02l-.02.02s.04.02.06,0ZM55.37,1.27c-.11.02-.58.09-.64.13h-.06l-.02.02c-.06,0-.15.04-.17.09l-.06-.02-.02.06c.06-.04.81-.24.96-.26v-.02ZM54.91,8.64h.04l.09-.15-.02-.06.06.02.08-.08-.02-.04v-.06l.04.04s0,.04.02.02l.04-.06-.06-.07h-.08v-.06h.04l-.02-.06s.07-.04.09-.07h.02s.04-.06.06-.08h-.04c-.32.32-.73.47-.73.99l.09.08c0-.43.09-.51.38-.79h.04l.02.04-.02.04s-.11-.02-.09.06c-.04,0-.06.04-.06.08-.08.06-.15.15-.19.24,0,.04,0,.11-.02.15l-.04.02.02.04.06.02s.04.04.06.04c0-.04,0-.07.02-.11l.02.02h.04v-.02l-.06-.02s.06-.02.06,0l.02-.06-.02-.07.06.02v-.02l.02-.04ZM54.72,9.23l-.13-.11c.04.06.08.11.13.11ZM54.62,8.85l.02-.02s-.02.02-.02.02ZM54.81,9.28l-.08-.06.02.04.04.02h.02ZM56.71,8.63l.06-.06h.06c.22-.11.53-.32.77-.38l.04-.04c.22-.09,1.16-.79,1.22-.79.17-.11.45-.47.62-.51.21-.21.41-.51.64-.66.02-.06.06-.11.11-.13.15-.15.6-.83.66-.86h.04c.09-.22.15-.45.26-.66,0,.04.02.08.04.09l-.06-.02-.02.04c0,.06,0,.08.06.09l-.02.02-.06-.02v.04l.07.04c.04-.11.13-.34.13-.45h-.04l-.02.04-.04-.04.02-.08h.04l.04.02v-.04l.02.02v-.04h-.04l.02.02h-.06c.11-.39.04-.62.04-.99l-.06-.04h-.02l-.04-.06-.06.06-.06-.04h-.02c-.06-.04-.15-.28-.21-.36v-.02l-.15-.11c-.06-.19-.3-.38-.47-.45l-.06-.07c-.07-.04-.15-.09-.24-.11l-.11-.07c-.11,0-.15-.06-.24-.11-.23-.13-.56-.19-.83-.3-.04.02-.09,0-.13-.02h-.06l-.11-.06.04-.06v.06s.06.02.06-.06c.04-.04.02.07.02.07h.02l.02-.09c-.06,0-.09-.02-.15-.02l-.09-.04v.06l.02.02-.04.04s-.02-.08-.02-.09l-.02.02v-.04l-.02-.02s0,.06.02.07v.04l-.38-.15-.02-.02c-.58-.06-1.14.06-1.71.06l.09.04c.49-.02,1.35.64,1.22,1.16-.02.11-.08.22-.11.34-.02-.02-.02.04-.02.04-.17.32-.17.64-.38.97-.24.38-.49.81-.69,1.22v.02c-.09.21-.58,1.05-.6,1.2-.06.07-.58,1.01-.58,1.05-.13.13-.32.58-.38.77.13-.13.36-.3.47-.43.02-.02.08-.09.08-.11.09-.04.19-.09.28-.15v-.02c.06-.06.13-.06.19-.11l.02.02s.02-.04.04-.06h.04l.06-.06s.08-.06.09-.06c.02.02.04,0,.02-.02.06-.02.11-.04.15-.08l.02.02.02-.04.09-.04c.06,0,.13,0,.17-.06v-.02h.04l.08-.06h.06s.02-.02.02-.04l.09-.07h.04v-.02l.77-.38s.06.06.06.02l.04-.06.08.04.06-.09h.07l.06-.04c.19,0,.32-.13.51-.15.02,0-.04.06-.04.06h.04c.13-.06.26-.09.41-.11l-.11.06c.11-.04.26-.08.38-.08l.02.02-.08.04h-.02l-.04.02v.04h.04l.02-.02v.06l-.43.17v.06l.3-.13.02.04s-.02.02-.04.02l-.34.17.15-.06c-.28.15-.54.28-.83.39v.02c-.19.04-.41.21-.58.28-.02,0-.04,0-.06-.02.08-.06.56-.3.58-.32l.08-.02c-.06,0-.21.07-.26.09h-.02c-.09.09-.3.17-.41.22.02.02,0,.04-.02.02l-.3.17h-.02c-.08.08-.23.13-.26.17h.04c.19-.11.38-.23.56-.32l.02.04c-.09.08-.21.11-.32.17-.02,0-.19.15-.24.17h.02c-.17.15-.45.19-.6.38h-.06l-.09.07h-.02l-.11.08h-.02s-.06.04-.06.08l-.08.02s-.07.08-.13.09l-.02.04-.09.06s-.04-.04-.06-.04l-.02.02.02.06c-.09.06-.24.19-.26.28-.11.11-.09.17-.13.24.08.08.24.09.39.13l-.11-.04c.06,0,.11.02.17.02l.04.02v-.04c.43-.11.84-.26,1.26-.39ZM54.79,8.91l.02-.02h-.02l-.02.02h.02ZM54.83,8.94h-.04s-.02.02,0,.02l.04-.02ZM54.89,8.64l-.02-.02v-.02s.02.02.02.04ZM55.21,9.11s-.04-.02-.06-.02c.02,0,.04,0,.06.02ZM55.3,8.23l-.08-.04h-.02l.02.02.02.06.06-.04ZM55.32,9.15s-.08-.04-.11-.04c.04,0,.06.02.09.04h.02ZM55.22,4.07h.04c.11-.15.21-.3.26-.49-.08.11-.17.28-.26.39l-.04.09ZM55.22,8.46l.06-.04v-.02l-.06.06ZM55.26,8.18h-.02v.02s.02,0,.02-.02ZM55.34,4.18l-.08.15v.02l.06-.02.04-.13-.02-.02ZM55.28,8.4s.04-.02.06-.06l-.06.06ZM55.54,7.8c-.08.04-.17.08-.22.13l.02.02v-.02l.06-.02c.04-.06.09-.08.15-.11ZM55.39,8.31s.04,0,.06-.04l-.06.04ZM55.54,1.27h-.06.06ZM55.56,1.26l.06.02v-.02h-.06ZM56.84,7.03h-.06c-.34.21-.77.51-1.13.67l-.06.08c.26-.15.53-.32.79-.45l.02-.04c.07-.04.39-.21.43-.26ZM55.86.45s-.09-.06-.13-.07l-.04.02-.02.06.02.02c.06-.02.11-.02.17-.02ZM55.79,1.31h.11v-.04l-.11.04ZM55.81.38v.02l.02-.02h-.02ZM56.14.3l-.02.08-.02-.02c-.06-.02-.09,0-.15.02l-.06.06v.02c.21,0,.38-.06.58-.02l.02-.04.02.04c.06.02.09.02.15.02.02-.02.04-.06.08-.06-.15-.11-.28-.08-.45-.08l.02-.02.02-.06c-.09,0-.3-.02-.38.04.06.04.13.04.19.02ZM57.31,9.28h-.08c-.24.11-.66.19-.94.19v-.04h.06s.06.04.08,0h.02l.08-.04c.11.06.15-.04.26-.02l.07-.06h.06l.02.02s.09-.11.09-.06l.04-.04-.09-.02-.09.02.02-.04-.04-.02v.06s-.04.02-.04,0l.02-.02-.02-.02c-.06,0-.09.02-.11.08l-.02-.06s-.04.02-.06.04v.04h-.02v-.02l.02-.02-.04-.02-.15.04-.04.04-.02-.04s-.07.04-.11.04v.02l-.04.04s0-.06-.02-.08l-.04.04v.08l.04.02s-.02.04-.04.04l-.04.04h-.11l-.04.02h-.04l.02.02c.15,0,1.11-.06,1.28-.22q.06.02.06-.04ZM56.69,1.2c-.23,0-.43-.02-.64.06v.04h.26l.04-.06.11.02.23-.06ZM56.37,8.98v.04h.04l-.04-.04ZM56.39.26s.02.02.04.02l.02-.02s-.02,0-.04-.02l-.02.02ZM56.42,9h.06l-.06-.09-.04.04s.02.04.04.06ZM56.48.28h.02s0-.02-.02-.02v.02ZM56.48,9.08h.04v-.02s-.04.02-.04.02ZM56.56.26s0,.02.02.04l.04-.04-.02-.02-.04.02ZM56.56,9.06v.02s.02,0,.04-.02h-.04ZM57.44,8.7l.04.04.04-.02-.04-.04v-.04h.13c.15-.06.11-.13.32-.13v-.02l-.04-.04s-.09.02-.13,0c0,.09-.32.19-.43.23l-.04-.04h-.04l-.06.08s-.08-.02-.11,0c-.08-.02-.19.09-.26.11-.04.06-.11.08-.17.11.24,0,.54-.17.79-.24ZM57.04,8.93c-.11.06-.26.06-.38.11v.02c.09-.04.19-.04.28-.04v-.04s.04,0,.02.02l.07-.04h.02l-.02-.04ZM56.69.3v.02s.04,0,.04-.02h-.04ZM56.8.26s.09-.02.13-.02c-.06-.02-.09-.02-.15-.02,0,.02,0,.04.02.04ZM56.88,7.16s-.04-.06-.08-.06c0,.04-.02.02-.02.02l.04.08.06-.04ZM56.91.34s-.04.08-.09.09c.08.06.19.06.26,0l-.08-.04h.04s-.06-.02-.09-.02v.02l-.04-.02v-.04ZM56.88,7.16h.02c.06-.02.11-.08.17-.09l-.02-.04.04.04.04-.02v-.06s-.06-.02-.09-.02c-.02,0-.04.04-.06.04,0,0,0-.02-.02-.02v-.04s-.09.04-.11.08l.08-.02.02.06-.02-.02-.04.04v.08ZM57.08.22s-.08-.02-.11,0c0,.02,0,.04.02.04h-.04s0,.02.02.02l.02-.02.09-.04ZM56.95,9.19v.02h.02s0-.02-.02-.02ZM56.97,6.96h.02l-.02-.02v.02ZM57.04,9.19l-.02-.02s.02.02.02.02ZM57.04.3l-.02.02.04.02.02-.02-.04-.02ZM57.04,6.96s0-.04-.02-.04c0,.02,0,.04.02.04ZM57.1,9.15h-.04s.04.02.02.04h-.04s.02.04.04.06h.06l.02-.02h-.06s0-.06,0-.08ZM57.12,6.86c-.06,0-.04.04-.02.04,0-.02.02-.02.02-.04ZM57.12,8.91s-.02,0-.04.02l.02.02s.02,0,.04-.02l-.02-.02ZM57.12.24v.02h.08l.02-.04s-.08,0-.09.02ZM57.14.45h.06v-.04l.04-.04h-.07v.04l-.02.04ZM57.16,6.86s0-.02.02-.04t-.04.04v.02h.02v-.02ZM57.14,9.13v.02l.06-.02s0,.04.02.04l.04-.08h-.06l-.06.04ZM57.21,6.94s-.02,0-.04.02l-.02-.02v.08l.06-.02.02-.04h-.04l.02-.02ZM57.17,6.88v.02s.04-.02,0-.02ZM57.19,8.91s0-.02-.02-.02v.04l.02-.02ZM57.19,6.84s.02-.04,0-.04-.02.04,0,.04ZM57.19,9.21v.02s.02,0,.02-.02h-.02ZM57.23,8.91s0-.02.02-.02t-.02-.02h-.02l.02.04ZM57.27,6.92l-.02-.02h-.02s.02.04.02.06h.02v-.04ZM57.25.43l.06.04h.08l.04.02-.02-.06.02-.06h.04s-.06-.04-.09,0l-.04-.02-.02.04-.06.04ZM57.36,9.17v-.09l-.04-.04-.04.04-.02-.02s0,.04.02.06l-.04.04s.02.02.04,0v-.04s0,.02.02.04l-.02.04.06-.04.02.02ZM57.27,6.86l.02.04c-.02.06.02.04.04.04l-.02-.08.02-.02-.04.02h-.02ZM57.27,9.19s0,.04.02.04c0-.02,0-.04-.02-.04ZM58.11,6.39h-.04c-.09.04-.69.36-.79.38h.06c.13-.09.39-.19.54-.26h.02l.02.04s-.08.02-.09.02l-.04.04h-.06c-.06.02-.13.09-.19.11,0-.02-.04-.02-.04,0v.04h-.04l-.02.04h.11s.06-.06.06,0l.06-.08.04.04s0-.04.02-.04l.04.02.09-.06v-.04l.02.02.07-.04v-.02c0-.06.02.04.04.02l.02-.04-.02-.04-.04-.02v-.04h.02v-.04h.06l.08-.06ZM57.33,6.83v.02s.02-.02,0-.02ZM57.34,6.88s-.02.02.02.02h.04l.04-.04s-.08.02-.09.02v-.02h-.02s0,.02.02.02ZM57.4,8.83l-.02-.04-.04.02s.04.02.06.02ZM57.36,1.22c.11.04.32.06.43.06,0-.02-.02-.02-.04-.02l-.04-.06.02-.04h-.17l-.02-.06c-.08.06-.09.09-.19.11ZM57.38,6.83v-.02h-.02l.02.02ZM57.4,9.13l.02-.02v-.09l-.04.02.02.04v.06ZM57.47,6.81s-.02-.02-.04-.02h-.04v.02h.04s.02.08.04.06l-.02-.04s0-.02.02-.02ZM57.44,9.21s0-.02-.02-.02v.02h.02ZM57.49.41s-.09-.02-.06.02c0,0,.04,0,.06-.02ZM57.44,9.02l.06.02-.04-.04-.02.02ZM57.49,9.21s-.06.02-.04.04h.02l.02-.04ZM57.61.47v-.04l-.04-.02s-.02.02-.02.04h-.08v.02c.08.02.17.02.24.02l-.02-.02h-.09ZM57.51,9.04h-.02l-.02.02h.04s-.02-.02,0-.02ZM57.51,9.15v-.04s-.04,0-.04.02t.04.02ZM58.15.43l-.07.04-.06-.02v-.02l-.09.02s.24.08.3.09l-.02.04.02.04h.04l.02-.06h.04l.02.04h-.02s.02.02,0,.02c.09.06.17.06.26.02v.06s.08.02.11.02l.06.06c.09.02.21.06.3.09l.06-.02.04.06.19.08.04-.02h.06s0,.04-.02.04v.04l.11.02.04-.04-.06-.08.02-.02s.06.02.09.04l.06-.02c.06.06.26.19.34.21-.21-.3-1.63-.84-2.01-.83-.11-.06-.26-.06-.38-.04-.06-.06-.08-.06-.13-.02.04.04.15.08.26.09-.02,0-.02.02,0,.02h.02l-.06.02.09.04s.02.04.04.06h-.06s.06.04.06.04v-.04h.06v.04l.04-.02-.04-.02v-.04l-.04-.04-.09-.04v-.02c.11.04.24.06.38.08ZM57.49.38h.02l.02-.02-.02-.02s-.02.02-.02.04ZM57.51,9.04h.02l.02.04v-.08l-.04.04ZM57.57,9.19v-.04h-.02v.02l-.04.04s.04,0,.06-.02ZM57.55,1.11s.09.02.13.02c-.04-.02-.09-.02-.13-.02ZM57.57,9.17h-.02.02ZM57.64,9.13l-.06.04s.06,0,.08-.02c.02-.02,0-.04-.02-.02ZM58.04,8.96h-.09l-.04-.06.04.02.06-.06.02-.06-.39.17-.02.02s.09.02.15.02l.06-.04h.04v.02l.02.04c.06,0,.13-.04.17-.07ZM57.68,9.06h-.02v.02l.02-.02ZM57.72,9.11l-.02.02h.02v-.02ZM57.76,6.69l-.02.02v-.02h.02ZM57.79,1.11l-.02-.02s0,.02.02.02ZM57.79,9.06l-.02-.02v.02h.02ZM57.83,9.04s-.04.02,0,.02v-.02ZM58.02,8.42l.02.02.04-.02v-.04l.02-.04c-.06.02-.09.04-.13.08l.02.06v-.02h.04v-.04ZM58.02,8.36h.02v-.02h-.02v.02ZM58.11,8.85l.02-.02-.02-.06h-.02l-.06.04h.02l.06.04ZM58.08.52s-.02,0-.02.02h.04s-.02,0-.02-.02ZM59.86,7.71c-.43.43-1.05.81-1.58,1.11-.04.02-.21.09-.23.13h.04c.3-.13,1.76-.94,1.76-1.24ZM58.15.43s.04.02.06.02h.02-.02.02v-.02h-.08ZM58.17,1.37v.04s0-.02.02-.02l.02.06h.06l.02-.06-.11-.02ZM59.41.84l-.02.02-.08-.02c-.06-.06-.08-.11-.17-.09v-.02c-.06-.02-.11-.04-.17-.04-.07-.08-.39-.17-.49-.17-.06-.04-.09-.02-.15-.02l-.09-.04-.02-.02c.47.08.99.19,1.18.39ZM58.28,1.27h-.04s.02.02.04.02v-.02ZM58.32,8.23h-.02.02ZM58.54,1.33l.02-.04-.04.02h-.13c-.08.04.15.08.19.09.08-.02-.02-.06-.04-.08ZM58.6,1.56h.02v-.04s-.02.02-.02.04ZM58.69,1.35s-.02-.04-.04-.04h-.04v.04h.07ZM58.73.71h-.04s.02-.02.04-.02v.02ZM59.07,1.54s0-.04-.02-.04c-.02-.02-.08-.02-.09-.04l-.17-.06-.02-.02-.08-.02v.04s.08.06.13.08l.02-.04s0,.04.02.04c.06.02.15.02.21.06ZM58.71,1.35h.06l-.02-.02s-.02.02-.04.02ZM58.71,1.5s0,.04.02.06v-.06h-.02ZM58.9,7.84l-.09.06-.08.09h.02l.17-.13-.02-.02ZM58.99,7.74s-.04.06-.06.06l.02.02.11-.11-.07.04ZM58.96,1.58v.02s.02,0,.02-.02h-.02ZM59.03,1.59v.02s.02,0,.04-.02h-.04ZM59.09,1.61l-.02.02s.02,0,.04-.02h-.02ZM59.16,1.56l-.06-.02s.04.02.06.02ZM59.12,1.63s0,.02.02.02v-.02h-.02ZM59.24,1.67l.02.02h.02s-.02-.02-.04-.02ZM59.37,1.65l-.02-.02h-.04l.09.06v-.04h-.04ZM59.88,6.96l-.02-.04-.06.06.04.02.04-.04ZM60.03,6.81l-.06-.06s-.02.02-.04.02v.04h-.04v.02l.04.07.09-.09ZM60.23,7.39v-.02s-.06.06-.09.08l-.06.09c-.06.02-.09.08-.13.11.06.04.13-.07.15-.11.06-.04.09-.09.13-.15ZM60.04,6.77l.04-.06v-.02l-.04.02v.06ZM60.12,6.64v.04h.02l.04-.06s-.04,0-.06.02ZM60.34,6.41l.04-.06-.02-.02h-.06s-.04.08-.08.11l.06-.04h.06ZM60.29,6.47h-.02v.02l.02-.02ZM61.47,5.36s-.07.07-.07.11c-.02.3-.56,1.11-.73,1.37l-.04.02-.06-.04-.08.09h.02v.07l-.04.02.04.07c-.06.04-.11.08-.13.13-.04.04-.06.09-.08.13.26-.09,1.01-1.28,1.05-1.56.08-.09.11-.19.09-.32.06-.04.08-.06.02-.11ZM60.4,7.01v.02l.02-.02h-.02ZM60.57,6.83l.06-.08c.06,0,.13-.02.09-.09.02-.02.06-.08.06-.13-.09.09-.15.21-.21.3ZM60.96,6.23c-.06.11-.15.24-.19.28.06.02.11-.11.15-.15,0-.04.02-.07.04-.13ZM61.04,6.08l-.06.13.06-.08v-.06ZM61.09,5.06s-.07-.02-.09.02c.04.02.08.04.09-.02ZM61.13,4.88l-.04-.04-.02.04h.06ZM61.11,4.93v-.02h-.04v.02h.04ZM61.11,2.87v.02h.02s0-.02-.02-.02ZM61.15,2.91l-.02.02.02.04s0,.02.02.04l.02-.02s-.02,0-.02-.02h-.02l.02-.02-.02-.04ZM61.13,5.01v.02l.02-.02.02-.06h-.02l-.02.02s.02.02,0,.04ZM61.15,5.93s.02-.04.02-.06l-.02.06ZM61.15,5.93v.02l.02-.02h-.02ZM61.19,3.02h-.02s0,.02.02.02v-.02ZM61.21,3.13h.04l-.02-.02s-.02,0-.02.02ZM61.34,4.03s.02.02.04.02l-.06.06s0,.09-.02.13h.06c.02-.06.04-.13.08-.19-.02-.02-.06-.02-.09-.02Z"/><path class="cls-1" d="M65.11,7.14c.02-.06.02-.11.02-.19.06-.11.15-.21.21-.32h-.02l.06-.09h-.09l-.08.09c.04.09-.13.04-.06-.06.17-.21.24-.43.47-.58.15.09.28.22.41.32l.21.15s.06.07,0,.06c-.04.08-.02.17-.04.24-.19.54-.39,1.07-.39,1.67-.04.08-.09,1.11-.09,1.28-.04-.04,0,.17,0,.19-.02,0-.02.02-.02.04l-.04-.09c0,.06,0,.11.04.17v.13l-.07.04v-.04l-.02-.04-.06.04v.02l-.08.04-.04-.09v.02s-.06-.08-.09-.08c.02.02-.06.04-.08.04,0-.02-.04-.04-.06-.06-.08-.06-.11-.21-.15-.3-.19-.47-.19-.94-.19-1.42l-.02-.04c-.02-.13.02-.3.02-.43-.69.24-2.53,3.32-2.85,4.01l.02-.02-.06.11.02-.02-.06.08v.06c-.09.13-.13.34-.17.49-.06.21-.21.43-.26.66-.08.26-.11.54-.21.79-.04.13-.06.28-.15.38,0,.13.04.26.04.39-.04-.02-.08-.02-.11-.06,0,.02,0,.04-.02.04-.06-.04-.11-.08-.15-.13h-.04l-.21-.23v-.02c-.13-.19-.3-.34-.43-.53.02-.02.02-.04.02-.06l.08.08c.02.06.13.22.17.26l-.06-.09v-.04s-.15-.21-.17-.22v-.04s-.08-.11-.08-.13l-.04-.08v-.02s-.07-.13-.07-.19l-.02-.02v.02s0,.06.02.09l.09.19c0,.06.04.11.07.15l-.04.02s-.06-.08-.08-.13c-.02-.02-.04-.15-.06-.13-.04-.04-.09-.11-.08-.17-.04-.06-.08-.17-.06-.22h-.02c-.04-.08-.09-.32-.04-.39h-.02c.02-.26.23-1.07.21-1.2.04-.06.07-.22.09-.3l.04-.06c0-.07.02-.17.08-.22.02-.02,0-.04-.02-.02.24-.51.41-1.09.6-1.63.21-.56.45-1.12.69-1.69.06-.11.13-.23.17-.34.13.04.26.11.38.19.06,0,.09.02.11.08h.02c.86.66.81.67.43,1.61l-.23.62c.23-.51,1.63-2.21,2.33-2.31l.15-.06c.06-.21.11-.41.19-.62.06.15-.11.28-.08.43l.08-.04v-.02s.02.02.02.02v-.04s-.02.02-.02.02ZM60.44,11.04l.69-1.76s.04-.04.04-.06h.02c0-.06.02-.09.06-.13.04-.13.15-.34.24-.45l.04-.11.06-.08v-.08l.11-.21v-.02l.02-.04s-.02-.04-.04-.06c-.02.08-.34.64-.39.69l.02.04-.04.02-.04.06s-.02.15-.06.17c0,.06-.06.11-.07.17v.04l-.04.02-.02.04v.02s-.06.07-.04.11l-.02.06-.02.02h.02c-.32.79-.66,1.58-.81,2.42.13-.28.15-.6.26-.88ZM61.04,9.06s0,.04.02.02c.04-.11.13-.28.19-.38,0-.02.24-.43.26-.47l.02-.06.06-.11c.06-.11-.08.09-.09.15-.04.04-.04.07-.06.11l-.09.13s-.26.53-.3.6ZM61.37,13.45h-.02c-.04.09-.06.21-.06.3.04-.09.04-.21.08-.3ZM61.8,11.83c-.11.22-.22.47-.24.6h.02l.02-.04.02.06-.04.06s-.04,0-.06.02l.04.02c-.09.19-.13.32-.19.53l-.02.04s-.04.21.02.11l.22-.69.11-.26s.04-.15.04-.11l.04-.11-.02-.02.02-.04.02.02.02-.04v-.02h-.06l.06-.06-.02-.06ZM61.64,12.62c-.08.19-.13.36-.19.54l-.02.02v.04s.04,0,.02-.02c.08-.17.11-.38.19-.58ZM62.24,11.01s-.06.08-.11.09c.04.09-.09.28-.15.32-.02.08-.09.24-.17.41.02-.02.04-.06.06-.04l.02-.04v-.06l.09-.15.04-.02.02-.04h-.04l-.02-.04c.06-.06.11-.11.15-.19v-.04l.11-.22ZM62.05,11.63c-.06.13-.13.24-.17.36l-.02.02s-.04.09-.04.13c.04-.09.09-.19.15-.28-.02-.08.09-.15.08-.22ZM63.08,9.81v-.02c-.04.06-.15.17-.17.22.08-.04.13-.13.17-.21ZM63.32,9.39l-.15.21v.02l-.06.09.02.02c.02-.06.04-.11.09-.15v-.02s.04-.08.08-.09c0-.02,0-.04.02-.08ZM64.77,7.44s.02-.02.04-.02c-.02,0-.04,0-.04.02ZM65.16,7.07h-.02l-.02.04v.02h.02s0-.04.02-.06ZM65.29,7.05v-.02s.09-.3.11-.34c.02-.02.04-.08-.04,0-.02.08-.04.17-.08.24-.04.04-.02.09-.09.17,0,.02-.02.06-.02.09l.04.02c0-.06.04-.13.08-.17ZM65.56,6.73c0-.11-.09.04-.09.04-.04.11-.08.22-.13.34,0,.04-.02.15-.04.17h.11l.15-.49v-.06ZM65.5,6.58s.04-.08.04-.13l-.02.06-.04.04s0,.04.02.04ZM65.57,6.64l-.02-.02-.02.06h.04v-.04Z"/><path class="cls-1" d="M70.19,10.54c-.24.36-.36.9-.66,1.2l-.04-.02c.11-.19.26-.43.34-.62l.02-.02.02-.04c-.07.13-.24.28-.26.41-.08.07-.09.17-.15.26.02.02,0,.04-.02.02l-.09.17v.02l-.09.15v.02c-.04.09-.09.19-.17.26v.04l.04-.02c.09-.23.24-.41.36-.62l.04.04c-.15.23-.24.41-.34.66l.02-.02c-.26.45-.6.9-.92,1.28l-.06.06-.02.04h-.02l-.02.06c-.28.3-.99,1.41-1.54.86,0,.02,0,.04-.02.04l-.17-.13h-.02l-.21-.24v-.02c-.17-.17-.3-.3-.41-.53,0-.02,0-.04.02-.04.07.09.13.23.22.32l-.06-.09v-.02s-.19-.22-.17-.26c-.06-.09-.08-.09-.09-.21-.04-.02-.11-.17-.09-.22l-.02.04c0,.08.04.13.08.19.04.08.06.17.11.23l-.04.02c-.06-.08-.06-.19-.11-.24v-.02c-.06-.06-.06-.11-.09-.17.02-.04-.02-.11-.04-.15,0-.02-.02-.09-.04-.08-.02-.11-.04-.23-.04-.34l.02-.04h-.02c.02-.19.24-1.44.38-1.54-.02-.04.04-.17.07-.21.02-.02,0-.04-.02-.02.23-.53.43-1.07.64-1.59.26-.67.69-1.31.92-1.99.09,0,.3.13.39.19.06,0,.09.02.11.08.22.17.47.34.62.58.24.38-.06.67-.21,1.01-.13.28-1.41,3.47-1.37,3.69-.02.04-.04.06-.04.09-.02,0-.04,0-.04-.02-.02.04-.17.32-.06.21v-.08l.06-.11.02.02s-.02.08-.04.11v.02l.02.07s.02.04-.02.04c0,.02-.02.09-.04.11l-.09.34-.02.02s0,.04.02.04c0,.08-.06.43-.09.47l-.02.06.02.02.02.04.02-.02c.08,0,.13-.04.19-.09.08-.02.13-.07.17-.15.71-.47,2.03-3.26,2.83-4.05.24.04.36.19.3.45ZM66.05,11.12c.24-.6.49-1.18.77-1.76-.02-.04.39-.66.45-.77v-.09s.04-.08.08-.09l.04-.09.02-.02v-.04l.02-.02s-.06-.04-.06-.04c-.04.08-.13.26-.19.32l-.02.06c-.08.08-.09.15-.15.24v.04h-.04l-.02.02.02.04-.04.02-.06.17-.04.04c0,.06-.04.11-.08.15v.08h-.04s-.02.06-.02.08l-.06.11s-.06.08-.02.08c-.36.73-.71,1.56-.86,2.34.15-.26.17-.56.28-.84ZM66.91,8.81c-.07.13-.17.24-.22.34.08.04.19-.23.22-.34ZM66.89,13.18v.02s.02-.02,0-.02ZM66.93,8.76l.26-.39.09-.19s-.04-.02-.02,0c-.11.11-.15.32-.24.41h-.02c-.02.06-.04.11-.07.17ZM67.3,14.63c-.08.04-.15.08-.23.13.04,0,.24-.09.23-.13ZM68.77,12.64l-.02-.02c-.28.26-1.07,1.58-1.31,1.74-.02.02-.08.09-.08.11l.04.02v-.02c.11-.04.66-.83.73-.84,0-.02.02-.06.02-.08l.04-.02c.13-.15.19-.39.34-.52v-.04l.06-.02.04-.08v-.04s.13-.15.15-.21ZM68.39,13.35l-.15.19c-.09.3-.69.69-.79.99.06.04.19-.21.23-.24.17-.11.36-.47.52-.6.02-.08.11-.15.15-.21,0-.08.13-.21.17-.28,0-.09-.11.11-.13.15ZM67.81,6.08c.02-.22.11-.43.17-.66.43-1.8,1.95-.24,1.86.23l.02.02h-.02c-.04.17-.13.26-.19.41v.13c-.08.02-.21.49-.34.56h-.04c-.11.17-.3.15-.49.15-.24.09-.58.21-.77-.08-.09-.13.04-.39.06-.54-.11-.04-.13.15-.15.22-.11-.04-.11-.36-.11-.45ZM68.07,5.94l.06.02c.04.06.02.17.02.24-.04.02-.02.06,0,.04.02-.04.04-.06.08-.08l.02-.02-.02-.04v-.09s-.04-.04-.04-.06h.02v-.09l.02-.04s-.06-.09.02-.11l-.02-.02h-.06l-.02.04v.06l.02.02-.04.04v.09l-.06-.02v.02ZM68.17,5.36h.04s-.02-.02-.04-.02v.02ZM68.35,5.4s-.04,0-.02.02.09.02.02-.02ZM68.33,5.04s.02,0,.02.02v-.04s-.02,0-.02.02ZM68.33,5.06c.06.02.02,0,0-.02v.02ZM68.39,5.14s-.02.06-.02.09l-.02.02.02.04s-.02.06-.02.08l.04.04h.02l.06-.11s.02-.08.02-.11c.06-.11.19-.19.26-.32,0-.02,0-.08-.04-.06l-.04.02c-.04.08-.09.15-.15.22l-.06.02-.02.04-.06.04ZM68.35,5.03h.04v-.04h-.02s0,.02-.02.04ZM68.69,5.12s-.04.09-.04.13h-.06l.04.04h-.04l-.02.04.02.02.02.06-.02.02s-.02.06-.02.09l.02.04-.06-.02s.02.04.04.06l-.04.08.06.02v-.02l.06-.06.06-.02s0-.04.02-.04c.04-.08.04-.15.06-.23l.07-.06.02-.06h.02s.04-.06,0-.09l.08-.09s-.02-.06-.02-.08c-.11-.04-.07.02-.11,0-.04.06-.08.15-.15.17ZM68.82,4.78l.04.04c.06,0,.08-.02.06-.08-.04.02-.06.04-.09.02v.02ZM68.95,4.95l.04.02v-.04l-.02-.02h-.02v.04Z"/><path class="cls-1" d="M74.82,7.54c-.08-.08-.3.24-.32.28-.17.28-.32.71-.53.96l-.02-.02c-.04.08-.08.15-.13.21-.06.07-.15.22-.19.04-.04-.11.08-.3,0-.39l-.07-.04c0-.07,0-.22.04-.34l-.09-.06c-.11.04-.34.09-.43.15-.97.71-2.1,3.3-2.03,4.54.02.3.15.54.24.83h.02c.13.06.24.17.39.19.11.08.36.06.49.04,1.2-.21,2.53-2.44,3.26-3.39v.02c.06-.11.15-.23.23-.32.02,0,.04,0,.04-.02l-.08.13c.08-.11.06-.04.21-.15l.04.04s-.04.08-.08.09l.02.02.04-.02v-.02l.04.06c-.11.15-.08.06-.17.21l.02.04c.06-.07-.02.08.04-.02l.04.04c-.08.11.02,0-.06.11-.17.3-.51.96-.62,1.07-.04.09-.23.38-.28.43h-.04l.26-.41c-.11.13-.22.28-.3.41.02.02,0,.04-.02.02-.08.11-.15.24-.24.34v.02c-.06.11-.13.21-.22.28l-.02.04c.06-.02.47-.58.52-.66l.02.02c-.04.07-.26.36-.26.36,0,.02-.02.04-.02.04-.06.09-.09.19-.17.26-.36.43-.83.94-1.33,1.18l.02-.02-.09.06h.02l-.06.04-.02-.02c-.06.09-.36.17-.47.23-.45.04-.96-.06-1.31-.36-.17.04-.36-.15-.47-.26h-.02l-.04.04c-.11-.13-.21-.26-.3-.41l.04.08c-.38-.68-.53-1.41-.53-2.18.02,0,.04-.02.06-.04h.06c-.06.15,0,.88.04,1.07,0-.19-.02-.34.02-.52-.06-.17,0-.38,0-.56-.04-.02-.02-.06,0-.04,0-.06.02-.09.02-.15l-.06-.02c0,.06-.02.11-.02.17l-.07-.04.11-.47s.02-.09.02-.11l-.04.09-.04-.02.09-.24s.02-.11.04-.15l-.02.02.15-.34s.09-.26.11-.3l-.02.02c.24-.51.86-1.59,1.33-1.88.04-.02.08-.04.11-.08l-.04.02.08-.06.02.02c.38-.45,1.5-.24,1.95.02l-.02.06-.04-.02s0,.04.02.04v.04s.08.02.11.02l.02-.02-.02-.02c.04-.09.09-.17.09-.28l.02-.02h-.02c.02-.06.06-.09.09-.13.04-.06,0-.13.04-.17v-.02h.04v-.04l.02-.02.02-.06h.02v-.04s.08-.08.08-.13l.04-.04.04.02.02-.04-.04-.02.02-.04s.06-.04.08-.06v-.09s0-.06.02-.06c.02-.04.04-.09.08-.11v-.02l-.02-.04c.04-.09.11-.19.09-.28.02-.08,0-.17.04-.22.15-.06.98.49,1.13.64s.04.26-.06.41c-.51.81-1.14,1.58-1.76,2.29l-.09-.08c.15-.11.9-1.41,1.05-1.65ZM71.26,8.51c-.09.09-.28.34-.32.45-.06.06-.09.11-.13.19v.02l-.04.06s-.02.07,0,.06c.06-.11.34-.49.36-.56.06-.06.09-.13.13-.21ZM70.97,8.68s.04-.02.06-.04c0-.02,0-.06.02-.08l-.06.06-.02.06ZM71.29,8.25s.02-.04.02-.06c-.08.11-.17.21-.22.3v.04l.21-.28ZM71.2,14.03l.26.17v-.02c-.08-.06-.19-.11-.26-.15ZM71.22,8.48l.04-.04v-.02s-.04.04-.04.06ZM71.44,8.04c.3-.34.79-.43,1.2-.51.13-.02.62.11.73.09t-.02-.02c-.41-.15-1.35-.13-1.71.22-.06.04-.13.08-.17.13l-.04.08ZM73.43,7.74s-.04-.02-.02-.04c-.49-.11-.75-.17-1.26-.04-.17.04-.34.21-.45.22l-.04.08c-.09.04-.15.11-.22.19.45-.36.86-.54,1.42-.51.08,0,.45.08.47.08l.04.02h.06ZM71.5,14.16h.02l.08.04-.02-.04-.06-.02-.02.02ZM71.67,14.23c.06.02.13.04.19.04.21.08.88-.04,1.03-.21l.11-.04s.04-.04.04-.06h.06c.06-.04.52-.43.54-.49l.04-.02.06-.07c.08-.04.17-.15.21-.21l.04-.02-.04-.02c-.08.08-.34.36-.41.38-.21.32-.69.53-1.03.66-.06-.02-.51.15-.71.04h-.06l-.02-.02h-.04s-.02.02,0,.04ZM73.54,13.65c-.22.28-1.01.71-1.37.68l-.04.02-.13-.02c-.08.02-.17-.02-.24-.02l-.04-.02h-.04s.11.04.13.04c.47.09.79-.06,1.2-.23.04-.04.11-.06.15-.11l.11-.06v-.02s.07-.06.11-.08l.17-.15s0-.06-.02-.04ZM71.89,7.65s-.04.02-.04.02c0,0,.02-.02.04-.02ZM72.77,14.25l-.09.04h.02l.09-.04h-.02ZM72.89,14.2l-.08.04s.06-.02.08-.04ZM73.6,8.23s.02-.06.04-.08c.02-.02,0-.04-.02-.02l-.02.09ZM73.67,13.58v-.02s-.04.04-.06.08l.06-.06ZM73.67,13.63s.04,0,.06-.02c-.02,0-.04,0-.06.02ZM75.78,10.73l.02-.04s-.02.02-.02.04Z"/><path class="cls-1" d="M81.54,10.56c-.06.09.02.08,0,.11-.15.28-.51.99-.64,1.12-.04.09-.23.38-.28.43h-.04l.26-.41c-.11.13-.22.28-.3.41.02.02,0,.04-.02.02-.08.11-.15.24-.24.34v.02c-.06.11-.13.21-.22.28l-.02.04c.06-.02.47-.58.52-.66l.02.02c-.04.07-.07.15-.13.21-.04.04-.11.09-.13.15,0,.02-.02.04-.02.04-.06.09-.09.19-.17.26-.36.43-.83.94-1.33,1.18l.02-.02-.09.06h.02l-.06.04-.02-.02c-.06.09-.36.17-.47.23-.45.04-.96-.06-1.31-.36-.17.04-.36-.15-.47-.26h-.02l-.04.04c-.11-.13-.21-.26-.3-.41l.04.08c-.38-.68-.53-1.41-.53-2.18.02,0,.04-.02.06-.04h.06c-.06.15,0,.88.04,1.07,0-.19-.02-.34.02-.52-.06-.17,0-.38,0-.56-.04-.02-.02-.06,0-.04,0-.06.02-.09.02-.15l-.06-.02c0,.06-.02.11-.02.17l-.07-.04.11-.47s.02-.09.02-.11l-.04.09-.04-.02.09-.24s.02-.11.04-.15l-.02.02.15-.34s.09-.26.11-.3l-.02.02c.08-.13.15-.26.21-.41.32-.3.54-1.11,1.12-1.46.04-.02.08-.04.11-.08l-.04.02.08-.06.02.02c.39-.45,1.5-.24,1.95.02h-.02c.26.11.43.36.54.6.02.04.04.17.06.17.04.11-.06.38-.06.51,0,.11-.22.54-.26.66-.28.68-.88,1.12-1.52,1.44h-.02c-.26.09-.36.19-.66.19.02,0,0-.02-.02,0-.07.02-.15.04-.22.04,0-.02-.02-.02-.04-.02l.11-.04c-.09.02-.24.06-.34.06-.32.96-.32,1.43,0,2.36h.02c.13.06.24.17.39.19.11.08.36.06.49.04,1.22-.21,2.36-2.23,3.09-3.21v.02c.06-.11.15-.23.23-.32.02,0,.04,0,.04-.02l-.09.15c.11-.15.21-.3.36-.41l.04.04s-.04.07-.07.09l.02.02.04-.02v-.02l.04.06c-.11.13-.06.13-.11.23l.04.04ZM76.52,9.28c.06-.11.34-.49.36-.56.06-.06.09-.13.13-.21-.09.09-.28.34-.32.45-.06.06-.09.11-.13.19v.02l-.04.06s-.02.07,0,.06ZM76.72,8.68s.04-.02.06-.04c0-.02,0-.06.02-.08l-.06.06-.02.06ZM76.84,8.53l.21-.28s.02-.06.04-.08l-.24.32v.04ZM77.21,14.18c-.08-.06-.19-.11-.26-.15l.26.17v-.02ZM77.01,8.42s-.04.04-.04.06l.04-.04v-.02ZM77.34,11.03l-.19.06v-.02l-.04.08c.08-.04.15-.06.22-.08v-.04ZM77.16,8.06c.3-.36.81-.43,1.24-.53.13-.02.62.11.73.09t-.02-.02c-.47-.17-1.54-.11-1.88.36l-.08.09ZM79.26,8.18c-.11.04-.36.09-.43.15-.52.39-1.56,2.06-1.65,2.7l.02-.02.17-.08-.06.02c.21-.09.41-.13.58-.3.11-.04.24-.15.36-.21.02,0,.04,0,.06.02-.11.09-.24.17-.38.24h-.02l-.04.02c.06,0,.11-.04.17-.06l.02-.02h.04c.06-.08.17-.09.24-.17-.02-.02,0-.04.02-.02l.09-.08s0-.04.02-.02l.08-.06h.02c.04-.06.08-.11.15-.13v-.02h-.04s-.13.15-.15.13l-.21.15-.02-.04c.06-.06.13-.11.21-.15.02.02.04,0,.02-.02.23-.3.58-.52.73-.88v.02l.04-.06s-.02-.04,0-.02v-.04c.11-.24.23-.47.28-.73,0-.04.02-.09.04-.13-.04-.19-.06-.19-.24-.23l-.02.06-.09-.06ZM79.18,7.74s-.04-.02-.02-.04c-.49-.11-.75-.17-1.26-.04-.17.04-.34.21-.45.22l-.04.08c-.09.04-.15.11-.22.19.45-.36.86-.54,1.42-.51.08,0,.45.08.47.08l.04.02h.06ZM77.32,14.16l-.06-.02-.02.02h.02l.08.04-.02-.04ZM79.72,13.16l-.04-.02c-.08.08-.34.36-.41.38-.21.32-.69.53-1.03.66-.06-.02-.51.15-.71.04h-.06l-.02-.02h-.04s-.02.02,0,.04c.06.02.13.04.19.04.21.08.88-.04,1.03-.21l.11-.04s.04-.04.04-.06h.06c.06-.04.52-.43.54-.49l.04-.02.06-.07c.08-.04.17-.15.21-.21l.04-.02ZM79.29,13.65c-.22.28-1.01.71-1.37.68l-.04.02-.13-.02c-.08.02-.17-.02-.24-.02l-.04-.02h-.04s.11.04.13.04c.47.09.79-.06,1.2-.23.04-.04.11-.06.15-.11l.11-.06v-.02s.07-.06.11-.08l.17-.15s0-.06-.02-.04ZM77.64,7.65s-.04.02-.04.02c0,0,.02-.02.04-.02ZM78.52,14.25l-.09.04h.02l.09-.04h-.02ZM78.64,14.2l-.08.04s.06-.02.08-.04ZM79.65,8.72v.04l-.02.02c.02.22-.26.49-.26.69l-.04.02c-.04.15-.13.23-.19.36v.02l-.04.02c-.02.06-.15.19-.15.19l.02.02c.22-.23.34-.39.47-.67h.02c.04-.08.08-.15.09-.23l.02-.02c.04-.11.08-.24.09-.36l.02-.02s0-.09-.04-.08ZM79.05,9.73s-.04,0-.04.02c.02,0,.04,0,.04-.02ZM79.09,9.79s.02,0,.02-.04l-.02.02v.02ZM79.22,9.53c-.04.06-.13.26-.08.21.06-.08.15-.24.19-.34,0-.06.11-.21.13-.24v-.04l.09-.24.04-.11s0-.06-.02-.04l-.15.45-.04.04c-.02.09-.11.23-.17.32ZM79.31,9.28l.02-.06s-.02.04-.02.06ZM79.33,9.23s.04-.04.04-.06h-.02l-.02.04v.02ZM79.42,13.58v-.02s-.04.04-.06.08l.06-.06ZM79.42,13.63s.04,0,.06-.02c-.02,0-.04,0-.06.02ZM79.63,8.61s.04-.09.02-.15c0,.06-.02.13-.02.15ZM79.67,8.68h.04s0-.02-.02-.04l-.02.04ZM81.49,10.56l.02.04c.04-.06-.02,0-.02-.04ZM81.53,10.73l.02-.04s-.02.02-.02.04ZM81.54,10.67v.02l.04-.06-.04.04Z"/><path class="cls-1" d="M7.1,53.66h-3.22l.71-5.1c-1.04,1.32-1.6,1.86-2.13,2.35-1.22-1.34-1.9-1.67-2.46-1.95,1.88-1.55,3.83-3.52,5.17-6.53H1.66l.42-3.03h3.8l.24-1.72c-1.46.49-2.24.92-2.81,1.22-.04-1.04-.2-2.54-.76-4.16l2.7-.94c.38,1.06.79,2.63.91,3.6l.75-5.36,3.12.19c.3.02.64.05.6.38-.04.28-.43.45-.65.52l-.88,6.27h3.17l-.43,3.03h-2.85c.94,1.86,1.95,2.8,2.52,3.34-.76.63-1.22,1.1-2.01,2.26-.63-.61-.93-.94-1.41-1.53l-1,7.17ZM13.89,34.4c.2.05.44.14.42.3-.03.19-.35.35-.58.47-.28.68-.89,2.07-1.79,3.67-.83-.52-1.4-.73-2.42-.92.39-.8,1.19-2.56,1.78-4.25l2.58.73ZM22.36,43.82l.15,2.87-2.4.61-.88,6.32h-3.29l.76-5.43-5.74,1.5-.11-3.01,6.29-1.57,1.15-8.22c-.88.66-1.39,1.17-2.1,1.95-.5-.87-1.83-2.28-2.47-2.87l2.23-2.23c1.01.92,1.89,1.88,2.4,2.68l.6-4.3,3.22.28c.18.02.5.05.46.31-.03.19-.3.35-.55.49l-1.55,11.07,1.82-.45ZM14.86,39.38c1.07,1.13,1.78,2,2.51,3.27-.66.59-1.38,1.27-2.32,2.16-.59-1.1-1.48-2.33-2.39-3.24l2.21-2.19Z"/><path class="cls-1" d="M36.28,43h7.08l-.42,2.96h-4.17l2.79,1.2c.2.09.33.14.31.28-.04.26-.41.31-.79.33-.54,1.04-.92,1.74-1.47,2.54h3.54l-.41,2.89h-19.42l.4-2.89h3.87c-.38-1.29-.62-1.88-1.37-3.1l2.44-1.25h-3.38l.41-2.96h7.18l.18-1.32h-3.33l.23-1.65c-1.67.99-2.12,1.27-4.17,2.33-.7-1.1-1.39-1.97-2.31-2.68,6.85-2.8,10.26-6.3,11.14-7.61l3.71.42c.14.02.29.05.27.23-.03.24-.28.35-.52.42,3.29,4.14,6.84,5.52,8.6,6.2-.49.38-2.32,1.88-2.97,3.06-1.48-.68-2.3-1.25-3.74-2.37l-.23,1.65h-3.29l-.18,1.32ZM32.48,45.96h-2.94c.25.38.94,1.53,1.46,3.17-1.05.54-1.52.8-2.13,1.17h3.01l.61-4.35ZM38.3,38.65c-1.18-1.01-1.82-1.71-2.65-2.89-1.37,1.36-2.91,2.47-3.53,2.89h6.18ZM35.25,50.3h2.82c-.85-.52-1.26-.73-1.68-.92,1.21-1.5,1.85-2.77,2.15-3.43h-2.69l-.61,4.35Z"/><path class="cls-1" d="M50.93,37.17c1.68.7,4.26,2.44,4.97,3.22-.99.94-2.28,2.56-2.68,3.13-1.73-1.69-3.48-2.58-4.81-3.2l2.52-3.15ZM48.42,49.81c7.62-2.54,14.36-7.85,18.04-12.45.54,1.62,1.78,2.98,1.94,3.17-3.54,4.42-11.2,10.2-17.7,12.52-.02.14-.12.54-.47.54-.16,0-.27-.24-.3-.31l-1.5-3.48ZM54,31.95c2.23.92,3.6,1.6,5.42,2.77-.56.56-2.23,2.56-2.63,3.05-1.56-1.25-3.33-2.21-5.21-2.96l2.42-2.87Z"/><path class="cls-1" d="M70.66,37.36l.49-3.53h11.83c.37,0,1.21-.05,1.62-.19l1.53,2c-.22.24-.63.73-1.09,1.5-1.13,1.97-2.34,3.95-3.75,5.76.87.75,4.6,4.32,6.04,6.44-.89.89-2.34,2.3-3.23,3.2-.69-1.2-2.25-3.95-5.29-6.7-2.6,2.7-6.66,5.73-9.87,7.03-.67-1.48-1.07-2.14-2.19-3.22,3.14-1.08,5.62-2.47,8.18-4.7,3-2.58,4.27-4.89,5.69-7.59h-9.98Z"/><path class="cls-1" d="M89.21,42.67l.47-3.36h19.81l-.47,3.36h-7.57c-.45,2.56-1.3,5.17-3.66,7.47-.8.78-2.61,2.44-5.51,3.34-.54-1.1-1.48-2.19-2.37-2.91,5.46-1.46,7.29-4.46,7.82-7.9h-8.52ZM107.15,33.22l-.48,3.41h-13.31l.48-3.41h13.31Z"/><path class="cls-1" d="M124.47,40.43c1.95,2.91,3.96,7.1,4.39,9.16-1.18.8-2.58,1.76-3.49,2.47-.17-.75-.34-1.5-.7-2.63-5.53,1.01-9.06,1.55-15.36,2.28-.08.21-.22.45-.41.45-.23,0-.27-.26-.28-.47l-.37-3.62c1.09-.02,1.7-.05,2.44-.09,2.1-3.12,5.64-9.89,7.53-15.25l3.86,1.04c.2.05.4.12.37.33-.04.33-.43.4-.62.45-.54,1.01-2.77,5.55-3.27,6.46-.51.96-2.29,4.28-3.83,6.67,2.23-.23,5.01-.56,8.67-1.24-.72-1.43-1.45-2.84-2.44-4.07l3.51-1.93Z"/></g></svg>