<?xml version="1.0" encoding="UTF-8"?><svg id="_レイヤー_2" xmlns="http://www.w3.org/2000/svg" viewBox="0 0 284.9 104.52"><defs><style>.cls-1{fill:#000;}.cls-1,.cls-2{stroke-width:0px;}.cls-2{fill:#d91a17;}</style></defs><g id="_レイヤー_1-2"><path class="cls-2" d="M10.19,54.42C3.12,55.17.05,51.66,0,45.82c0-.31.1-.58.41-.66l6.76-1.8c.36-.09.56.1.56.41.05,2.63.82,3.74,2.46,3.57,1.48-.16,2.25-1.07,2.25-3.5s-.56-3.15-3.12-3.86l-2.1-.61c-4.92-1.45-6.91-4.04-6.91-9.83,0-6.68,3.23-10.64,9.93-11.34,6.5-.68,9.83,2.43,10.04,7.95,0,.31-.15.53-.46.62l-6.45,1.66c-.31.08-.56-.04-.56-.36-.05-2.06-.82-2.97-2.25-2.82-1.38.15-2.1,1.1-2.1,2.86,0,2.02.56,2.63,3.22,3.44l2.1.61c4.97,1.39,6.91,3.93,6.91,9.78,0,7.56-3.28,11.73-10.5,12.49Z"/><path class="cls-2" d="M33.54,16.77c.1-.32.26-.54.62-.58l7.94-.83c.36-.04.56.15.61.45l7.48,33.38c.1.35-.1.53-.41.56l-7.07.74c-.36.04-.56-.15-.61-.45l-.92-5.44-6.2.65-.97,5.64c-.05.32-.2.54-.56.58l-7.12.75c-.31.03-.46-.16-.41-.47l7.63-34.96ZM40.09,38.55l-1.89-11.24h-.1s-2.05,11.67-2.05,11.67l4.04-.43Z"/><path class="cls-2" d="M56.52,14.36c0-.31.2-.54.51-.57l16.28-1.71c.31-.03.51.15.51.46v6.31c0,.31-.21.54-.51.57l-8.35.88c-.21.02-.31.14-.31.34v6.21c0,.21.1.3.31.28l7.17-.75c.31-.03.51.15.51.46v6.31c0,.31-.2.54-.51.57l-7.17.75c-.21.02-.31.14-.31.34v12.84c0,.31-.2.54-.51.57l-7.12.75c-.31.03-.51-.15-.51-.46V14.36Z"/><path class="cls-2" d="M80.95,11.79c0-.31.2-.54.51-.57l16.28-1.71c.31-.03.51.15.51.46v6.31c0,.31-.21.54-.51.57l-8.35.88c-.21.02-.31.14-.31.34v5.8c0,.21.1.3.31.28l7.17-.75c.31-.03.51.15.51.46v6.31c0,.31-.21.54-.51.57l-7.17.75c-.21.02-.31.14-.31.34v6.11c0,.21.1.3.31.28l8.35-.88c.31-.03.51.15.51.46v6.31c0,.31-.21.54-.51.57l-16.28,1.71c-.31.03-.51-.15-.51-.46V11.79Z"/><path class="cls-2" d="M111.36,43.27c-.31.03-.51-.15-.51-.46V15.79c0-.21-.1-.3-.31-.28l-5.73.6c-.31.03-.51-.15-.51-.46v-6.31c0-.31.2-.54.51-.57l20.22-2.12c.31-.03.51.15.51.46v6.31c0,.31-.21.54-.51.57l-5.74.6c-.21.02-.31.14-.31.34v27.02c0,.31-.21.54-.51.57l-7.12.75Z"/><path class="cls-2" d="M138.03,40.47c-.31.03-.51-.15-.51-.46v-12.89l-6.86-20.55c-.1-.35.05-.52.41-.56l7.01-.74c.36-.04.56.15.62.45l2.92,11.8.15-.02,2.82-12.41c.05-.32.25-.54.61-.58l6.91-.73c.36-.04.51.1.41.47l-6.86,21.99v12.89c0,.31-.2.54-.51.57l-7.12.75Z"/><path class="cls-2" d="M177.66,17.72c-2.3-3.23-3.69-5.62-3.69-8.57,0-4.92,3.53-8.55,8.71-9.09,5.12-.54,8.65,2.35,8.65,7.27,0,2.95-1.54,5.96-5.17,10.17l2.61,3.71,2-3.16c.21-.28.46-.36.77-.18l4.15,2.57c.26.18.26.44.1.71l-3.38,5.22.72,1.01c.56.82,1.08.92,1.89.84l.31-.03c.31-.03.51.15.51.46v5.23c0,.31-.2.54-.51.57l-2.35.25c-2.3.24-3.43-.11-4.76-1.98l-.05-.1c-2.15,2.5-4.46,3.57-7.48,3.89-4.92.52-8.5-2.37-8.5-7.59,0-3.52,1.59-6.69,5.48-11.19ZM181.6,29.73c.92-.1,1.74-.55,2.97-2.18l-3.23-4.63c-1.49,1.97-2,3.26-2,4.56,0,1.6.92,2.39,2.25,2.25ZM184.52,7.69c0-1.35-.72-2.1-1.84-1.98-1.23.13-1.84,1.02-1.84,2.37,0,.88.46,2.07,1.74,4.17,1.59-2.03,1.95-3.15,1.95-4.55Z"/><path class="cls-2" d="M10.19,104.42c-7.07.74-10.14-2.76-10.19-8.61,0-.31.1-.58.41-.66l6.76-1.8c.36-.09.56.1.56.41.05,2.63.82,3.74,2.46,3.57,1.48-.16,2.25-1.07,2.25-3.5s-.56-3.15-3.12-3.86l-2.1-.61c-4.92-1.45-6.91-4.04-6.91-9.83,0-6.68,3.23-10.64,9.93-11.34,6.5-.68,9.83,2.43,10.04,7.95,0,.31-.15.53-.46.62l-6.45,1.66c-.31.08-.56-.04-.56-.36-.05-2.06-.82-2.97-2.25-2.82-1.38.15-2.1,1.1-2.1,2.86,0,2.02.56,2.63,3.22,3.44l2.1.61c4.97,1.39,6.91,3.93,6.91,9.78,0,7.56-3.28,11.73-10.5,12.49Z"/><path class="cls-2" d="M27.7,67.39c0-.31.2-.54.51-.57l16.28-1.71c.31-.03.51.15.51.46v6.31c0,.31-.2.54-.51.57l-8.35.88c-.2.02-.31.14-.31.34v5.8c0,.21.1.3.31.28l7.17-.75c.31-.03.51.15.51.46v6.31c0,.31-.21.54-.51.57l-7.17.75c-.2.02-.31.14-.31.34v6.11c0,.21.1.3.31.28l8.35-.88c.31-.03.51.15.51.46v6.31c0,.31-.2.54-.51.57l-16.28,1.71c-.31.03-.51-.15-.51-.46v-34.16Z"/><path class="cls-2" d="M51.97,81.92c0-8.38.26-10.17.77-11.83,1.38-4.39,4.46-6.83,9.47-7.36,6.35-.67,9.73,2.55,10.04,8.37,0,.36-.1.58-.41.66l-6.86,1.86c-.31.08-.56-.04-.56-.41-.05-2.43-.72-3.29-2.1-3.14-.87.09-1.43.51-1.74,1.42-.21.75-.26,1.27-.26,9.55s.05,8.79.26,9.5c.31.85.87,1.15,1.74,1.06,1.38-.15,2.05-1.15,2.1-3.58,0-.36.26-.54.56-.53l6.86.42c.31.02.41.22.41.58-.31,5.88-3.69,9.81-10.04,10.47-5.02.53-8.09-1.27-9.47-5.37-.51-1.55-.77-3.28-.77-11.67Z"/><path class="cls-2" d="M79.1,86.47v-24.48c0-.31.21-.54.51-.57l7.12-.75c.31-.03.51.15.51.46v25.41c0,1.55.77,2.35,2.1,2.21,1.33-.14,2.1-1.1,2.1-2.65v-25.41c0-.31.21-.54.51-.57l7.12-.75c.31-.03.51.15.51.46v24.48c0,7.09-3.99,11.13-10.24,11.79-6.25.66-10.24-2.55-10.24-9.64Z"/><path class="cls-2" d="M121.24,92.23c-.36.04-.56-.1-.67-.4l-3.53-12.31-1.18.12c-.21.02-.31.14-.31.34v12.32c0,.31-.21.54-.51.57l-7.12.75c-.31.03-.51-.15-.51-.46v-34.16c0-.31.2-.54.51-.57l9.78-1.03c6.25-.66,10.45,2.11,10.45,10.03,0,4.3-1.38,7.29-3.63,9.28l4.56,14.17c.1.25,0,.52-.26.54l-7.58.8ZM120.01,68.3c0-3.21-.92-4.1-2.97-3.88l-1.18.12c-.21.02-.31.14-.31.34v7.71c0,.21.1.3.31.28l1.18-.12c2.05-.21,2.97-1.29,2.97-4.45Z"/><path class="cls-2" d="M135.73,56.03c0-.31.2-.54.51-.57l7.12-.75c.31-.03.51.15.51.46v34.16c0,.31-.21.54-.51.57l-7.12.75c-.31.03-.51-.15-.51-.46v-34.16Z"/><path class="cls-2" d="M157.54,88.42c-.31.03-.51-.15-.51-.46v-27.02c0-.21-.1-.3-.31-.28l-5.73.6c-.31.03-.51-.15-.51-.46v-6.31c0-.31.21-.54.51-.57l20.22-2.13c.31-.03.51.15.51.46v6.31c0,.31-.2.54-.51.57l-5.73.6c-.21.02-.31.14-.31.34v27.02c0,.31-.2.54-.51.57l-7.12.75Z"/><path class="cls-2" d="M184.21,85.62c-.31.03-.51-.15-.51-.46v-12.89l-6.86-20.55c-.1-.35.05-.52.41-.56l7.01-.74c.36-.04.56.15.61.45l2.92,11.8.15-.02,2.82-12.41c.05-.32.26-.54.61-.58l6.91-.73c.36-.04.51.1.41.47l-6.86,21.99v12.89c0,.31-.21.54-.51.57l-7.12.75Z"/><path class="cls-1" d="M219.37,49.29c.12.03.19.09.19.21,0,.19-.16.22-.49.28-.13.23-.63,1.35-.73,1.58l6.97-.73-.07,1.94-2.55.27s.03.07.03.12c0,.19-.14.26-.43.35-.63,1.29-1.01,1.85-1.36,2.32,1.79.77,3.13,1.71,3.58,2.02-.9.7-1.08.96-1.76,1.92-1.12-.81-2.11-1.48-3.46-2.14-1.89,1.71-4.2,2.65-6.59,3.21-.22-.89-.44-1.3-.96-2.14,2.56-.25,4.26-1.1,5.37-1.89-.73-.19-1.21-.29-1.61-.36-.08.12-.28.42-.46.67-.73-.48-1.72-.65-2.17-.73.89-1.04,1.51-2.02,1.8-2.51l-3.21.34.07-1.94,4.3-.45c.34-.67.76-1.59,1.07-2.39l-2.68.28-.05,1.54-2.31.24.12-3.55,5.37-.56.05-1.32,2.49-.2c.06,0,.3,0,.29.22,0,.19-.25.29-.43.32l-.03.73,5.37-.56-.12,3.55-2.2.23.05-1.54-4.13.43.7.24ZM217.29,53.41c-.18.31-.38.64-.59.99.61.11,1.34.25,2.19.51.25-.32.6-.79,1.08-1.78l-2.68.28Z"/><path class="cls-1" d="M229.71,49.98c.15.01.41.03.4.27,0,.25-.31.34-.48.39-.33,1.56-1.01,4.08-1.76,5.26-.7-.33-1.17-.4-2.39-.45,1.05-1.69,1.69-3.61,2.01-5.59l2.22.12ZM232.85,48.42c.12,0,.36,0,.35.2,0,.19-.2.27-.37.35l-.23,6.55c-.02.47-.02.68.59.62l1.6-.17c.68-.07.98-.1,1.32-2.03.42.34,1.07.75,1.95.88-.67,2.92-1.47,3.08-3,3.24l-2.91.31c-.94.1-2.02.21-1.96-1.68l.28-8.17,2.36-.09ZM232.11,44.12c1.77.51,2.94,1.12,4.03,1.79-.69.92-.85,1.22-1.35,2.12-1.22-.77-2-1.26-3.86-1.85l1.18-2.06ZM237.28,48c1.69,1.63,2.68,3.88,2.96,4.5-.9.42-1.45.77-2.21,1.36-.9-2.37-1.92-3.68-2.6-4.51l1.85-1.35Z"/><path class="cls-1" d="M248.91,46.19c.12.03.19.09.19.21,0,.19-.16.22-.49.28-.13.23-.63,1.35-.73,1.58l6.97-.73-.07,1.94-2.55.27s.03.07.03.12c0,.19-.14.26-.43.35-.63,1.29-1.01,1.85-1.36,2.32,1.79.77,3.13,1.71,3.58,2.02-.9.7-1.08.96-1.76,1.92-1.11-.81-2.11-1.48-3.46-2.14-1.89,1.71-4.19,2.65-6.59,3.21-.22-.89-.44-1.3-.96-2.14,2.56-.25,4.26-1.1,5.37-1.89-.73-.19-1.21-.29-1.61-.36-.08.12-.28.42-.46.67-.74-.48-1.72-.66-2.17-.73.89-1.04,1.51-2.02,1.8-2.51l-3.21.34.07-1.94,4.3-.45c.34-.67.76-1.59,1.07-2.39l-2.68.28-.05,1.54-2.31.24.12-3.55,5.37-.56.05-1.32,2.49-.2c.06,0,.3,0,.29.22,0,.19-.25.29-.43.32l-.03.73,5.37-.56-.12,3.55-2.2.23.05-1.54-4.13.43.7.24ZM246.82,50.3c-.17.31-.38.64-.59.99.61.11,1.34.25,2.19.51.25-.32.6-.79,1.08-1.78l-2.69.28Z"/><path class="cls-1" d="M264.33,49.48l3.08-.32-.07,2.06-3.08.32-.05,1.35,5.17-.54-.07,2.05-12.75,1.34.07-2.05,5.22-.55.05-1.35-2.96.31.07-2.06,2.96-.31.04-1.26-3.11.33.03-.84c-.99.8-1.31,1-1.51,1.13-.13-.26-.38-.8-1.68-1.54.83-.43,4.42-2.49,6.49-6.45l2.34.05c.1,0,.3.03.29.22,0,.25-.24.35-.31.39.47.72,1.56,1.49,2.47,2.12,1.22.86,2.2,1.27,3.46,1.68-.7.75-1.08,1.23-1.51,2.03-.36-.12-.73-.25-1.33-.53l-.03.82-3.24.34-.04,1.26ZM265.82,45.97c-1.1-.75-2.01-1.48-2.72-2.3-.16.23-.96,1.42-2.52,2.85l5.23-.55Z"/><path class="cls-1" d="M278.11,51.1c3.29-.96,4.35-3.67,4.41-5.29.04-1.26-.53-3.5-3.35-3.44-.66,5.73-3.09,10.21-4.69,10.38-1.18.12-3.29-1.69-3.19-4.57.11-3.34,3.21-7.54,7.64-8.01,3.3-.35,6.11,1.66,5.98,5.37-.02.71-.15,2.71-1.95,4.98-.96,1.2-2.05,1.89-3.35,2.6-.47-.85-.78-1.28-1.49-2.02ZM273.52,47.76c-.04,1.2.58,2.03.89,2,.36-.04.67-.77.85-1.19.7-1.61,1.26-3.44,1.34-5.46-1.77.85-3.04,3.26-3.09,4.66Z"/><path class="cls-1" d="M224.31,67.22c-.18,2.28-.53,4.96-2.02,7.9.22.24,1.29,1.41,2.63,2.12-.32.22-.85.58-1.7,1.9-1.06-.68-1.78-1.44-2.25-1.98-.72.86-1.64,1.72-3.19,2.59-.48-.77-.54-.84-.75-1.04l-.05,1.4-2.23.24.09-2.53c-1.42.54-2.25.86-3.56,1.29,0,.14-.07.25-.22.27-.17.02-.19-.1-.22-.22l-.42-1.89c.43-.11.55-.13.99-.26l.28-8.15-.91.1.07-1.97,7.47-.78-.04,1.09,5.17-.54.84.48ZM214.96,74.7l-1.28.13-.05,1.52c.18-.05,1.08-.32,1.29-.37l.04-1.29ZM215.07,71.55l-1.28.13-.04,1.29,1.28-.13.04-1.29ZM215.18,68.49l-1.28.13-.04,1.2,1.28-.13.04-1.2ZM219.68,69.58c.17,1.27.85,2.91,1.33,3.77.95-2.26.99-3.88,1.01-4.39l-4.01.42.04-1.2-.63.07-.33,9.59c1.04-.57,1.96-1.43,2.68-2.37-1.08-1.82-1.77-3.94-1.9-5l1.82-.9Z"/><path class="cls-1" d="M229.56,65.31c.27.03.42.06.41.24,0,.2-.26.27-.37.3-.48,1.32-.75,2.68-.8,4.03-.02.68.03.99.09,1.37.13-.26.18-.39.38-.86.25-.58.4-.8.5-.93.64.57.75.67,1.47,1.13-.26.43-1.31,2.21-1.69,4.09l-2.17.49c-.92-2.53-.9-4.73-.87-5.65.04-1.24.21-2.2.63-3.89.09-.35.09-.43.12-.62l2.3.3ZM236.47,64.01c.15-.02.35-.02.34.18,0,.17-.14.22-.25.26,0,.54.11,2.88.12,3.36.03.55.04,1.2.01,1.81-.07,1.96-.35,5.96-4.83,9.01-.88-1.16-1.57-1.46-1.9-1.61,3.68-2.18,4.12-4.9,4.2-7.19.07-1.91.04-3.83-.38-5.62l2.68-.2Z"/><path class="cls-1" d="M245.39,65.47c.07.02.12.11.11.19,0,.17-.22.24-.58.25-.32.48-1.22,1.92-2.42,3.53.38-.07.73-.14,1.06-.22-.05-.38-.09-.55-.14-.8l1.53-.66c.32,1.22.47,1.78.62,2.64l.24-7.06,6.44-.68-.39,11.46.79-.08-.07,1.96-8.78.92.07-1.96,1.55-.16.14-4.02c-.61.23-1.08.44-1.74.77,0-.26-.02-.39-.04-.6-.12.03-.61.17-.82.21l-.22,6.29-2.2.23.16-4.75-.09.04c-.29,2.37-.54,3.14-.69,3.55-.64-.15-1.48-.2-1.81-.21.47-1.32.73-2.37.8-3.72l1.8-.05.03-.82c-.39.1-.83.21-1.36.33-.03.13-.1.41-.27.43-.14.01-.19-.13-.2-.27l-.18-2.25c.35-.04.62-.05.92-.08.36-.42.77-.9,1.18-1.45-.67-.56-1.35-.96-2.18-1.43l1.13-1.9c.19.09.4.19.55.28.69-1.17.96-1.82,1.16-2.26l1.89.54c.18.04.28.14.28.23,0,.22-.23.24-.46.25-.67,1.21-1.23,2.09-1.34,2.26l.28.2c.22-.33.65-.98,1.21-1.98l2.05.85ZM244.75,71.55c.07,1.03.31,2.35.37,2.71-.2.08-1.11.36-1.29.45-.26.1-.46.19-.64.28-.07-.69-.16-1.62-.14-2.94l1.7-.5ZM249.63,74.35l.06-1.79-2.02.21-.06,1.79,2.02-.21ZM249.76,70.37l.06-1.68-2.02.21-.06,1.68,2.02-.21ZM249.89,66.63l.05-1.62-2.02.21-.05,1.62,2.02-.21Z"/><path class="cls-1" d="M266.48,65.26c.16.04.19.09.19.17,0,.2-.22.22-.32.24-.17,1.13-.39,1.85-.73,2.89.68.3,1.57.76,2.22,1.42-.76,1.05-.84,1.19-1.54,2.39-.36-.35-.73-.7-1.7-1.29-.43.82-1.63,2.89-3.47,4.29-.64-.71-1.09-1.01-1.91-1.42,1.45-.77,2.97-3,3.41-3.82-.8-.3-1.44-.47-2.64-.67-.19.39-1.05,2.18-1.26,2.55-1.06,1.86-1.8,2.48-2.63,2.57-1.19.13-2.5-.77-2.44-2.34.07-2.17,2.22-4.64,5.05-4.81.11-.28.31-.74.53-1.36.38-1.12.45-1.25.52-1.46-.78.3-2.04.71-3.07.96l-.42-2.55c2.99-.31,4.85-1.11,5.51-1.52l1.46,1.16c-1.04,1.46-2.09,3.98-2.31,4.64.48.04,1.05.07,2.58.53.29-1.11.45-2.18.49-3.27l2.49.73ZM255.8,72.05c0,.28.14.29.22.29.24-.03,1.26-1.62,1.61-2.52-.74.06-1.78,1.16-1.82,2.23Z"/></g></svg>