<?xml version="1.0" encoding="UTF-8"?><svg id="_レイヤー_2" xmlns="http://www.w3.org/2000/svg" viewBox="0 0 36.64 24.51"><defs><style>.cls-1{fill:#d91a17;stroke-width:0px;}</style></defs><g id="_レイヤー_1-2"><path class="cls-1" d="M1.79,6.82h33.07c.99,0,1.79-.8,1.79-1.79V0H0v5.03c0,.99.8,1.79,1.79,1.79Z"/><path class="cls-1" d="M13.99,16.26c0,2.39,1.94,4.33,4.33,4.33s4.33-1.94,4.33-4.33-1.94-4.33-4.33-4.33-4.33,1.94-4.33,4.33ZM15.09,16.26c0-1.78,1.45-3.23,3.23-3.23s3.23,1.45,3.23,3.23-1.45,3.23-3.23,3.23-3.23-1.45-3.23-3.23Z"/><path class="cls-1" d="M16.63,16.26c0,.93.76,1.69,1.69,1.69s1.69-.76,1.69-1.69-.76-1.69-1.69-1.69-1.69.76-1.69,1.69Z"/><path class="cls-1" d="M23.65,15.65c-.31-2.67-2.57-4.75-5.32-4.75s-5.02,2.08-5.32,4.75c-4.53-.15-8.21-1.32-10.23-2.12-.61-1.72-.95-3.58-.95-5.51h33.01c0,1.93-.34,3.79-.95,5.51-2.03.8-5.71,1.97-10.23,2.13Z"/><path class="cls-1" d="M12.99,16.84c.29,2.69,2.56,4.78,5.33,4.78s5.04-2.09,5.33-4.78c4.04-.13,7.39-1.02,9.61-1.8-2.64,5.6-8.33,9.48-14.94,9.48s-12.3-3.88-14.94-9.48c2.22.78,5.57,1.67,9.61,1.8Z"/></g></svg>