<?xml version="1.0" encoding="UTF-8"?><svg id="_レイヤー_2" xmlns="http://www.w3.org/2000/svg" viewBox="0 0 30.83 29.12"><defs><style>.cls-1{fill:#d91a17;stroke-width:0px;}</style></defs><g id="_レイヤー_1-2"><path class="cls-1" d="M5.41,29.11l13.21-.7,9.76.71s2.35.12,2.45-1.99c.12-2.38-2.08-2.56-2.08-2.56l-10.24-1.87-9.72-.4c1.41-1.65,4.3-5.08,5.51-6.27l10.24,5.76c1.01.72,2.41.48,3.13-.53.72-1.01.48-2.41-.53-3.13l-11.31-8.73c-2.2-1.56-5.49-1.97-8.96,1.74C2.72,15.57.54,20.16.04,23.92c-.35,2.63,1.66,5.19,5.37,5.19Z"/><path class="cls-1" d="M20.6,0c-2.74,0-4.96,2.22-4.96,4.96s2.22,4.96,4.96,4.96,4.96-2.22,4.96-4.96S23.34,0,20.6,0Z"/></g></svg>