<?xml version="1.0" encoding="UTF-8"?><svg id="_レイヤー_2" xmlns="http://www.w3.org/2000/svg" viewBox="0 0 42.63 39.56"><defs><style>.cls-1{fill:#d91a17;stroke-width:0px;}</style></defs><g id="_レイヤー_1-2"><path class="cls-1" d="M38.76,5.15h-2.03c-.28,0-.51.23-.51.51v4.39H6.41v-4.39c0-.28-.23-.51-.51-.51h-2.03v12.11h2.03c.28,0,.51-.23.51-.51v-4.39h2.65c.39,1.85,1.42,6.25,2.46,7.55.59.73,2,.42,2.81-.1l2.04-1.06v5.2l-5.11,2.18c-.75.42-1.23,1.05-1.04,2.33l1.14,9.73c.07.64.65,1.4,2.17,1.36,1.19-.04,1.62-1,1.66-1.57.17-2.01.43-8.07.43-8.07l5.68-1.15,5.71,1.15s.26,6.06.43,8.07c.05.57.48,1.54,1.66,1.57,1.53.05,2.11-.71,2.17-1.36l1.14-9.73c.2-1.28-.29-1.92-1.04-2.33l-5.1-2.18h0v-5.19l2.02,1.05c.7.45,2.22.87,2.81.1,1.01-1.33,2.05-5.71,2.46-7.55h2.67v4.39c0,.28.23.51.51.51h2.03V5.15ZM28.81,14.72l-1.36-.71h-12.28l-1.36.71-.78-2.37h16.57l-.78,2.37Z"/><path class="cls-1" d="M.51,17.26h2.03V5.15H.51c-.28,0-.51.23-.51.51v11.09c0,.28.23.51.51.51Z"/><path class="cls-1" d="M42.11,5.15h-2.03v12.11h2.03c.28,0,.51-.23.51-.51V5.66c0-.28-.23-.51-.51-.51Z"/><circle class="cls-1" cx="21.31" cy="4.57" r="4.57"/></g></svg>