<?xml version="1.0" encoding="UTF-8"?><svg id="_レイヤー_2" xmlns="http://www.w3.org/2000/svg" viewBox="0 0 47.9 33.08"><defs><style>.cls-1{fill:#d91a17;stroke-width:0px;}</style></defs><g id="_レイヤー_1-2"><path class="cls-1" d="M3.67,0C1.64,0,0,1.64,0,3.67v25.74c0,2.03,1.64,3.67,3.67,3.67h23.59V0H3.67ZM20.78,17.27c-1.48,1.31-3.56,2-6.02,2h-4.67v9.69h-4.34V4.13h9.24c2.41,0,4.46.7,5.91,2.03,1.47,1.34,2.24,3.23,2.24,5.46s-.82,4.28-2.36,5.65Z"/><path class="cls-1" d="M15.05,8.31h-4.96v6.78h4.83c2.62,0,3.78-1.05,3.78-3.4,0-2.17-1.3-3.37-3.66-3.37Z"/><path class="cls-1" d="M45.88,10.89h-1.89l-1.57-5.62C41.58,2.29,38.96.12,35.89,0c-.09,0-.19,0-.28,0h-6.77v2.07h6.77s.06,0,.09,0c1.08.02,2.1.39,2.96,1.06.86.68,1.47,1.6,1.77,2.66l1.81,6.48.06.14c.07.15.14.3.22.44h-13.68v8.96h5.07c.52,0,.91.49.8,1.01l-.31,1.35c-.09.37-.42.64-.8.64h-4.76v3.64h10.17v2.67c0,1.09.8,1.97,1.79,1.97h3.81c.99,0,1.79-.88,1.79-1.97v-3.2c.49-.41.79-1.03.79-1.72v-7.83c0-1.72-.57-3.01-1.24-4.08l.45-.1c.88-.2,1.5-.86,1.5-1.62h0c0-.92-.91-1.67-2.02-1.67ZM43.56,19.12c0,.92-.74,1.66-1.65,1.66h-3.55c-.84,0-1.58-.61-1.68-1.44-.1-.82.4-1.58,1.17-1.81l3.6-1.05c1.05-.31,2.11.49,2.11,1.59v1.05Z"/></g></svg>