<?xml version="1.0" encoding="UTF-8"?><svg id="_レイヤー_2" xmlns="http://www.w3.org/2000/svg" viewBox="0 0 40.13 40.94"><defs><style>.cls-1{fill:#d91a17;stroke-width:0px;}</style></defs><g id="_レイヤー_1-2"><path class="cls-1" d="M37.97,9.69l-5.16,5.19h-6.91c-.54,0-.97.44-.97.97s.44.97.97.97h7.17v14.34l-8.5,2.42H5.01c-1.6,0-2.89,1.29-2.89,2.89,0,1.08.6,2.01,1.48,2.51.16,1.1,1.1,1.95,2.25,1.95,1.01,0,1.86-.66,2.16-1.57h21.77c.3.91,1.15,1.57,2.16,1.57s1.93-.72,2.2-1.69c1.18-.33,2.05-1.39,2.1-2.66h.01v-5.17s0-.01,0-.02V15.01l3.53-3.53c.5-.49.5-1.3,0-1.79-.49-.49-1.3-.49-1.79,0Z"/><path class="cls-1" d="M7.6,22.23l-6.52.72S-.06,23.18,0,24.54c.06,1.26.89,1.5,1.17,1.56l8.65-.18c.38,0,.83-.27,1.01-.6l.62-.96-2.99-4.1-.86,1.98Z"/><path class="cls-1" d="M17.74,16.36c.03.26.16.61.41.77,1.7,1.04,6.4,3.47,6.4,3.47.51.21,1.17-.01,1.59-.64.55-.84,0-1.63,0-1.63l-4.78-3.72s-.02-3.62-.06-5.05c-.06-1.75-2.15-3.43-3.55-3.45-2.03-.03-8.1-.21-8.1-.21-.61,0-.98.41-1.35.84l-3.57,4.48s-.59.96.47,1.82c.65.53,1.33.41,1.67.06l3.71-3.82,3.24.82-3.61,4.78c-.5.85-1.48,2.5-.67,3.88l4.19,5.76-1.77,6.55s-.15,1.07,1.15,1.5c.72.24,1.59.14,1.89-.53l3.07-8.42c.14-.35.06-.88-.18-1.17l-3.04-4.42,2.76-3.24.13,1.57Z"/><path class="cls-1" d="M26.87,3.75c0-2.07-1.68-3.75-3.75-3.75s-3.75,1.68-3.75,3.75,1.68,3.75,3.75,3.75,3.75-1.68,3.75-3.75Z"/></g></svg>