<?xml version="1.0" encoding="UTF-8"?><svg id="_レイヤー_2" xmlns="http://www.w3.org/2000/svg" viewBox="0 0 36.64 40.13"><defs><style>.cls-1{fill:#d91a17;stroke-width:0px;}</style></defs><g id="_レイヤー_1-2"><path class="cls-1" d="M5.83,11.63l-1.72-.65c-1.57-.59-3.33.2-3.92,1.77-.59,1.57.2,3.32,1.77,3.92l3.86,1.46v-6.5Z"/><path class="cls-1" d="M28.78,12.88c-.02.06-.03.12-.05.18v21.09c0,.58-.24,1.12-.62,1.5-.38.38-.92.62-1.5.62h-15.57c.08-.12.14-.25.2-.39.1-.27.15-.55.15-.82,0-.47-.14-.92-.4-1.3-.26-.38-.63-.69-1.1-.86l-2.4-.9h0c-.27-.1-.54-.15-.81-.15-.47,0-.92.14-1.3.4-.38.26-.69.63-.86,1.1-.1.27-.15.54-.15.81,0,.47.14.92.4,1.3.26.38.63.69,1.1.86l2.4.9c.27.1.55.15.82.15.47,0,.92-.14,1.3-.4.07-.04.13-.1.19-.15,1.92,1.61,4.92,3.19,9.38,3.3,9.33.22,11.81-6.69,13.15-14.26,0,0,3.22-14.51,3.44-15.28,1.09-3.83-5.67-4.99-7.74,2.29Z"/><path class="cls-1" d="M9.46,19.46V3.45h15.64v25.61h-13.4c-.03.27-.09.54-.19.81-.25.67-.7,1.22-1.26,1.6-.15.1-.3.19-.46.26l.46.17c.67.25,1.22.7,1.6,1.26.31.45.5.97.56,1.52h14.19c.15,0,.28-.06.38-.16.1-.1.16-.23.16-.38V.53c0-.15-.06-.28-.16-.38-.1-.1-.23-.16-.38-.16H7.96c-.15,0-.28.06-.38.16-.1.1-.15.23-.16.38v18.08l1.39.52c.23.09.45.2.64.33ZM17.28,32.98c-.51,0-.93-.42-.93-.93s.42-.93.93-.93.93.42.93.93-.42.93-.93.93Z"/><path class="cls-1" d="M7.53,30.84c.27.1.55.15.82.15.47,0,.92-.14,1.3-.4.38-.26.69-.63.86-1.1.1-.27.15-.55.15-.82,0-.47-.14-.92-.4-1.3-.26-.38-.63-.69-1.1-.86l-2.4-.9c-.27-.1-.54-.15-.82-.15-.47,0-.92.14-1.3.4-.38.26-.69.63-.86,1.1-.1.27-.15.54-.15.81,0,.47.14.92.4,1.3.26.38.63.69,1.1.86l2.4.9Z"/><path class="cls-1" d="M6.81,24.46c.27.1.55.15.82.15.47,0,.92-.14,1.3-.4.38-.26.69-.63.86-1.1.1-.27.15-.55.15-.82,0-.47-.14-.92-.4-1.3-.26-.38-.63-.69-1.1-.86l-2.4-.9c-.27-.1-.54-.15-.82-.15-.47,0-.92.14-1.3.4-.38.26-.69.63-.86,1.1-.1.27-.15.54-.15.82,0,.47.14.92.4,1.3.26.38.63.69,1.1.86l2.4.9Z"/></g></svg>