<?xml version="1.0" encoding="UTF-8"?><svg id="_レイヤー_2" xmlns="http://www.w3.org/2000/svg" viewBox="0 0 40.13 33.74"><defs><style>.cls-1{fill:#d91a17;stroke-width:0px;}</style></defs><g id="_レイヤー_1-2"><path class="cls-1" d="M20.7,29.48L1.15,12.88l-1.15,1.35,19.56,16.6h0c2.22,1.87,5.04,2.9,7.95,2.9h12.53v-1.77h-12.53c-2.49,0-4.91-.88-6.81-2.48Z"/><path class="cls-1" d="M27.51,30.19h9.43c4.44,0,3.77-4.44.89-5.1-1.95-.45-4.44-1.48-4.44-1.48-.99-.33-1.79-1.05-2.23-1.99,0,0-.11-.23-.29-.61l-3.62,1.09c-.4.12-.81-.1-.93-.5-.12-.4.1-.81.5-.93l3.41-1.03c-.29-.63-.63-1.35-.99-2.12l-3.38,1.02c-.4.12-.81-.11-.93-.5-.12-.4.1-.81.5-.93l3.18-.96c-.34-.73-.67-1.45-.99-2.12l-3.16.96c-.4.12-.81-.1-.93-.5-.12-.4.1-.81.5-.93l2.96-.89c-.42-.92-.73-1.61-.81-1.82-.36-.92-1.14-3.49-2.92-2.06-2.93,2.35-8.28,1.66-9.66-.91-1.03-1.92-.44-3.99,0-5.62.35-1.3-1.48-3.33-2.81-1.55C9.83,1.95,1.9,11.34,1.9,11.34l19.94,16.78c1.59,1.34,3.59,2.07,5.67,2.07Z"/></g></svg>