<?xml version="1.0" encoding="UTF-8"?><svg id="_レイヤー_2" xmlns="http://www.w3.org/2000/svg" viewBox="0 0 29.43 40.13"><defs><style>.cls-1{fill:#d91a17;stroke-width:0px;}</style></defs><g id="_レイヤー_1-2"><path class="cls-1" d="M14.72,9.41L6.02,1C4.99,0,3.48-.27,2.16.28.85.84,0,2.13,0,3.55v21.48c0,1.44.59,2.82,1.62,3.83l10.63,10.28c1.38,1.33,3.56,1.33,4.94,0l10.63-10.28c1.04-1,1.62-2.39,1.62-3.83V3.55c0-1.43-.85-2.71-2.16-3.27-1.31-.55-2.83-.27-3.85.72l-8.7,8.41ZM24.42,24.41c0,.48-.19.94-.54,1.28l-9.17,8.87v-18.17l1.74-1.69,6.46-6.25c.25-.25.64-.32.96-.18.33.14.54.46.54.82v15.32Z"/></g></svg>