<?xml version="1.0" encoding="UTF-8"?><svg id="_レイヤー_2" xmlns="http://www.w3.org/2000/svg" viewBox="0 0 33.93 39.52"><defs><style>.cls-1{fill:#d91a17;stroke-width:0px;}</style></defs><g id="_レイヤー_1-2"><path class="cls-1" d="M12.77,9.2c.11.16.24.33.38.51l3.81-1.68,3.81,1.68c.16-.2.3-.39.42-.56.18-.28.3-.51.36-.62l-3.89-1.72v-.99c0-.07,0-.12.02-.15.02-.06.03-.06.03-.07,0,0,.01-.01.02-.02.02,0,.05-.02.07-.02h.02c.76,0,1.45-.32,1.94-.82.5-.5.81-1.2.81-1.96,0-.76-.31-1.46-.81-1.96C19.26.31,18.56,0,17.79,0c-.57,0-1.11.18-1.55.47-.44.3-.79.72-1.01,1.22-.15.35.02.76.37.91.35.15.76-.02.91-.37h0c.1-.25.28-.46.5-.61.22-.15.48-.24.77-.24.38,0,.72.15.98.4.25.25.4.59.4.98,0,.38-.15.72-.4.98-.25.25-.59.4-.98.4-.03,0-.13,0-.26.03-.1.02-.23.05-.36.11-.1.05-.21.11-.32.2-.16.13-.32.31-.42.54-.11.23-.16.5-.16.78v.99l-3.88,1.71s.03.06.05.1c.07.14.18.34.34.57Z"/><path class="cls-1" d="M33.59,13.02l-4.23-2.48c-.07-.05-.15-.1-.24-.14-.19-.1-.42-.21-.67-.32-.45-.2-1.01-.42-1.58-.64-1.74-.66-3.71-1.33-3.71-1.34-.35-.12-.73.06-.87.4h0s-.1.24-.31.58c-.31.52-.86,1.27-1.68,1.88-.41.31-.88.58-1.44.77-.55.2-1.18.32-1.9.32-.98,0-1.78-.22-2.46-.55-.51-.25-.94-.56-1.31-.89-.55-.5-.95-1.04-1.2-1.45-.13-.21-.22-.38-.28-.5-.03-.06-.05-.1-.06-.13,0-.01-.01-.02-.01-.03h0s0,0,0,0h0c-.14-.34-.52-.51-.87-.4,0,0-1.31.44-2.73.97-.71.26-1.45.54-2.07.8-.31.13-.6.25-.84.37-.12.06-.23.11-.33.17-.08.05-.16.09-.24.14L.34,13.02c-.27.16-.4.49-.32.79l1.81,6.4c.06.2.2.36.38.45.19.09.4.08.59,0l4.08-1.95-.36,20.12c0,.19.07.37.2.5.13.13.31.21.5.21h19.49c.19,0,.37-.08.5-.21.13-.13.2-.31.2-.5l-.36-20.12,4.08,1.95c.19.09.4.09.59,0,.19-.09.33-.25.38-.45l1.81-6.4c.09-.31-.04-.63-.32-.79Z"/></g></svg>